<?xml version="1.0" encoding="utf-8"?>
<!-- Generator: Adobe Illustrator 27.9.0, SVG Export Plug-In . SVG Version: 6.00 Build 0)  -->
<svg version="1.1" id="Layer_1" xmlns="http://www.w3.org/2000/svg" xmlns:xlink="http://www.w3.org/1999/xlink" x="0px" y="0px"
	 viewBox="0 0 4195.5 4063.4" style="enable-background:new 0 0 4195.5 4063.4;" xml:space="preserve">
<style type="text/css">
	.st0{fill:#02A5C4;}
</style>
<path class="st0" d="M3753.7,2003.3c109,904.8-375.8,1525.7-1344.4,1678.8C1281.5,3860.4,421.8,3097.5,390.9,2091
	C356.2,959.3,1401.5,142.6,2508.7,404.5c358.8,84.9,670.6,251.5,933.2,506.6c125.2,121.6,251.7,259.9,104.4,445
	c-104,130.7-279.3,93.4-459.1-85.6c-483.9-481.6-1108.7-591.8-1612.5-284.4c-429.7,262.2-706.3,803.8-624,1221.7
	c103.6,526,503.7,910.3,1035.5,1019c298.1,60.9,587.7,56.1,869.3-54.1c191.4-74.9,354.5-189.9,412.5-451.8
	c-585.4,174.2-1158.3,305.6-1666.6-105c-163.7-132.2-267.8-338.3-372.7-537.6C2031,2889.5,2883.6,2468.5,3753.7,2003.3z"/>
</svg>
