<?xml version="1.0" encoding="utf-8"?>
<!-- Generator: Adobe Illustrator 27.9.0, SVG Export Plug-In . SVG Version: 6.00 Build 0)  -->
<svg version="1.1" id="Layer_1" xmlns="http://www.w3.org/2000/svg" xmlns:xlink="http://www.w3.org/1999/xlink" x="0px" y="0px"
	 viewBox="0 0 636.7 382" style="enable-background:new 0 0 636.7 382;" xml:space="preserve">
<style type="text/css">
	.st0{fill:#E70012;}
	.st1{fill:#F9F6E6;}
	.st2{fill:#F9F6E6;stroke:#F9F6E6;stroke-width:5;stroke-linecap:round;stroke-linejoin:round;stroke-miterlimit:10;}
</style>
<g>
	<g>
		<path class="st0" d="M327.6,131.1c-4.6,3.7-9.4,8.5-15,9.1c-9.8,1-19.7,2.3-29.7-0.1c-22.1-5.3-37.1-18.6-43.7-40
			c-5.8-18.8-3.7-37.1,8.6-53.4c12.7-16.8,29.8-24.8,50.6-24.7c8,0.1,16,1.5,23,6.1c2.1,1.4,4.4,1.9,6.8,2.4
			c2.3,3.8,6.5,5.6,9.4,8.8c6.2,6.8,9.7,15,13.1,23.3c0.8,2,1.4,3.4,4.2,2.5c11-3.6,18.5,0.7,21,12.1c1.3,6,0.6,12-4.4,15.9
			c-4.6,3.5-9.9,6.8-16.4,3.3c-3-1.6-4.1,0.3-4.9,2.8c-1.9,6-4.8,11.4-8.4,16.6C337.7,121.6,332.2,126,327.6,131.1z M288.9,116.8
			c-4.4-3.7-4.4-3.7,1-5.8c0.4-0.2,0.9-0.2,1.3-0.4c1-0.4,2.3-0.7,2.1-2.1c-0.2-1-1.3-1.1-2.2-1.4c-3.1-1.3-3.2-1.3-1.7-4.2
			c0.4-0.7,0.1-1.4-0.5-1.5c-5.3-0.9-7.9-5.3-11.5-8.4c-1.1-1-2.4-2-2.9,0.5c-0.5,2.4-1.8,1.5-3,0.7c-1-0.7-1.5-3-3.1-1.5
			c-1,1-0.5,2.8,0.1,4.3c0.4,1,2.5,2.4,0.5,3.4c-3.2,1.6-1.2,3.7-0.7,5.4c0.5,1.5,2,2.8,1.1,4.8c-6.3-2.8-9.6-8.8-14.1-14.4
			c-0.2,2.8-0.3,4.7-0.5,6.6c-0.4,0.5-0.7,1-1.1,1.5c-0.7-7.2-5.9-4.9-9.3-6.3c-0.3,0.5-0.4,1-0.2,1.7c2.8,10,9.5,17.4,16.9,24.1
			c9.3,8.4,20.6,12.1,32.9,12.9c1.7,0.1,3.8,0.6,4.3-2c-6-2.9-13.7-1.9-18.7-9.2c4.3,0.9,7,3.6,10.5,3c1.3-0.2,3.6,0.7,3.6-1.6
			c0-1.7-2-1.7-3.4-2.1c-4.4-1.3-8.5-3.3-12.8-7.6C282.4,117.9,285.9,119.3,288.9,116.8z M294.7,98.8c8.3,0,17.2-8.4,16.9-16.6
			c-0.4-10.8-4.6-16.3-15.6-16.7c-11.9-0.4-18.6,5.7-18.5,15.8C277.6,89.5,286.6,98.7,294.7,98.8z M364.1,81.2
			c0.1-2.7-1.1-4.1-3.8-4.1c-2.9,0-4.2,1.8-4.1,4.4c0,2.7,1.9,3.7,4.3,3.8C363.2,85.3,364.2,83.7,364.1,81.2z"/>
		<path class="st1" d="M327.6,131.1c4.7-5.1,10.1-9.5,14.1-15.3c3.6-5.2,6.5-10.6,8.4-16.6c0.8-2.5,2-4.4,4.9-2.8
			c6.4,3.5,11.7,0.2,16.4-3.3c5-3.9,5.8-9.8,4.4-15.9c-2.5-11.4-10-15.8-21-12.1c-2.8,0.9-3.4-0.5-4.2-2.5
			c-3.5-8.3-6.9-16.6-13.1-23.3c-2.9-3.2-7.1-5-9.4-8.8c9.3-5.5,19.2-9.2,30.2-9.8c13.7-0.7,25.8,3.4,36.6,11.6
			c6.2,4.7,11.5,10.3,15.8,16.8c7.8,12,11.2,25.1,8.3,39.3c-1.6,7.8-2.6,15.8-6.4,23c-5.1,9.6-13.3,16-22.5,21.2
			c-15.7,8.8-32.3,11.6-49.8,5.9C335.4,137,331.8,133.6,327.6,131.1z M377.8,62.1c1.6,1.2,2.8,2.1,4,2.9c0.7,0.5,1.4,1.5,2.3,0.7
			c0.8-0.7,0.5-1.7,0.2-2.6c-0.2-0.4-0.4-0.8-0.5-1.3c-0.4-1-1.4-2.1-0.3-2.9c1.2-0.9,2.3,0.3,3.1,1.2c1.4,1.5,2.8,3.1,4.3,4.9
			c0.5-2.8,0.5-5-0.6-7.1c-0.3-0.6-0.9-1.3-0.1-2c0.9-0.7,1.4,0.1,2,0.4c2.5,1.5,4.1,4,6.5,7.1c-0.2-2.3-0.2-3.7-0.5-4.9
			c-0.4-1.1-0.8-2,0.4-2.8c1.1-0.7,1.6,0.4,2.3,0.8c3.1,1.7,6.4,3.2,8.4,7.5c-0.3-19.2-32.5-41.8-50-37.5c3.5,1.6,6.7,3,9.8,4.3
			c0.8,0.3,2,0.3,1.7,1.5c-0.3,1.3-1.5,0.6-2.3,0.8c-2.4,0.7-4.6-1.4-7.9-0.4c4.5,2.8,8.4,5.2,12.4,7.6c0.8,0.5,1.7,1,1.4,2
			c-0.3,1.2-1.5,1-2.2,0.6c-2.2-1-4.3-0.8-6.5,0.1c0.5,2.9,5,3.1,3.9,5.9c-0.8,2-3.9,0.4-5.9,0.9c-1.4,0.3-3.5-0.3-3.6,1.8
			c-0.1,1.7,1.7,1.8,3.2,1.8c1.3,0,2.6,0.4,2.9,1.8c0.2,1.2-0.9,1.8-2,2.1c-0.5,0.1-1.4,0.1-1.2,1c0.2,0.7,0.6,1.5,1.5,1.6
			c5.3,0.7,9,3.9,12.6,7.9C377.4,65.6,377.5,64.2,377.8,62.1z"/>
		<path class="st1" d="M288.9,116.8c-3.1,2.5-6.5,1.2-11.2,0.3c4.2,4.3,8.3,6.2,12.8,7.6c1.4,0.4,3.4,0.5,3.4,2.1
			c0,2.3-2.3,1.4-3.6,1.6c-3.5,0.6-6.2-2.1-10.5-3c5,7.3,12.8,6.3,18.7,9.2c-0.5,2.6-2.6,2.2-4.3,2c-12.3-0.8-23.6-4.5-32.9-12.9
			c-7.4-6.7-14.1-14.1-16.9-24.1c-0.2-0.7-0.2-1.2,0.2-1.7c3.4,1.4,8.7-0.9,9.3,6.3c0.4-0.5,0.7-1,1.1-1.5c0.1-1.9,0.3-3.8,0.5-6.6
			c4.5,5.7,7.7,11.6,14.1,14.4c0.9-2.1-0.6-3.3-1.1-4.8c-0.6-1.7-2.6-3.8,0.7-5.4c2.1-1-0.1-2.4-0.5-3.4c-0.6-1.5-1.1-3.3-0.1-4.3
			c1.5-1.5,2.1,0.8,3.1,1.5c1.2,0.8,2.5,1.8,3-0.7c0.5-2.5,1.8-1.5,2.9-0.5c3.6,3.2,6.2,7.6,11.5,8.4c0.5,0.1,0.8,0.8,0.5,1.5
			c-1.5,2.9-1.5,3,1.7,4.2c0.8,0.3,2,0.4,2.2,1.4c0.2,1.3-1.1,1.7-2.1,2.1c-0.4,0.2-0.9,0.2-1.3,0.4
			C284.6,113.1,284.6,113.1,288.9,116.8z"/>
		<path class="st1" d="M294.7,98.8c-8,0-17.1-9.3-17.2-17.5c-0.1-10.1,6.6-16.2,18.5-15.8c11.1,0.4,15.2,5.9,15.6,16.7
			C311.9,90.4,303,98.8,294.7,98.8z M295.1,77.5c-3.1-0.1-4.6,1.5-4.5,4.2c0.1,2.5,1.6,4,4.1,4c2.8,0,4.1-1.6,4.1-4.4
			C298.7,78.6,297.5,77.3,295.1,77.5z"/>
		<path class="st0" d="M377.8,62.1c-0.2,2.1-0.4,3.5-0.6,5.5c-3.6-4-7.4-7.3-12.6-7.9c-0.8-0.1-1.3-0.8-1.5-1.6
			c-0.2-0.9,0.6-0.8,1.2-1c1.1-0.3,2.2-0.8,2-2.1c-0.3-1.4-1.6-1.8-2.9-1.8c-1.4,0-3.2-0.1-3.2-1.8c0.1-2.1,2.3-1.4,3.6-1.8
			c2-0.5,5.1,1.1,5.9-0.9c1.1-2.7-3.4-3-3.9-5.9c2.1-0.9,4.2-1.1,6.5-0.1c0.8,0.3,1.9,0.6,2.2-0.6c0.3-1-0.6-1.5-1.4-2
			c-4-2.4-7.9-4.8-12.4-7.6c3.3-1,5.5,1.1,7.9,0.4c0.8-0.2,2,0.5,2.3-0.8c0.3-1.3-0.9-1.2-1.7-1.5c-3.2-1.3-6.3-2.8-9.8-4.3
			c17.5-4.3,49.7,18.4,50,37.5c-1.9-4.3-5.2-5.8-8.4-7.5c-0.7-0.4-1.3-1.5-2.3-0.8c-1.2,0.8-0.8,1.7-0.4,2.8
			c0.4,1.2,0.3,2.6,0.5,4.9c-2.3-3.1-4-5.6-6.5-7.1c-0.5-0.3-1.1-1.1-2-0.4c-0.9,0.7-0.3,1.4,0.1,2c1.1,2.2,1.2,4.4,0.6,7.1
			c-1.6-1.8-2.9-3.4-4.3-4.9c-0.8-0.8-1.9-2-3.1-1.2c-1.1,0.8-0.1,2,0.3,2.9c0.2,0.4,0.4,0.8,0.5,1.3c0.3,0.9,0.6,1.9-0.2,2.6
			c-1,0.8-1.6-0.3-2.3-0.7C380.6,64.2,379.4,63.3,377.8,62.1z"/>
	</g>
	<g>
		<path class="st2" d="M11.7,234c0-1.1,0.1-2.2,0.1-3.3c0.5-3.2-0.9-5.8-2.5-8.3c-1.7-2.7-1-4.9,0.5-7.3c3.6-5.9,9.5-7.9,15.7-8.5
			c6.7-0.7,13.2,0.2,16.8,7.3c0.9,1.8,2.3,1.2,3.5,0.4c1.8-1.1,3.6-2,5.8-2.2c8.6-0.9,16.2,6.7,17.2,13.9c0.3,2.3,0.8,4.8,3.2,6.2
			c0.3-3.1,0.3-3.1-1.6-8.3c-1.5-4.1,1.3-9,5.7-9.5c9.9-1,15.9,1.3,19.4,11.8c0.7,2.2,1.6,4.3,3.3,6c3.5,3.5,5.3,7.7,5.3,12.9
			c-0.1,3.7-1.7,7.4-0.6,11.1c0.8,2.6,0.9,5.3,1,8c0.3,6.2-0.7,12.4-0.5,18.7c0.1,3.9-1.2,6.9-3.7,9.6c-1.1,1.3-2.8,2.1-3.8,3.5
			c-5.6,7.7-19.1,5.4-22.4-4.3c-0.4-1.3-0.5-2.3-0.1-3.6c2.1-6.1,4-12.4,3.1-19c-0.9-6.4-0.7-12.9-0.9-19.3
			c-0.2-4.6-1.1-9.3-4.7-12.9c-0.6-0.6-1.2-1.4-2-0.6c-0.7,0.7,0.1,1.3,0.5,1.8c3.2,4.6,4.9,9.5,4,15.1c-0.1,0.9,0.1,1.9,0.1,2.8
			c-0.2,9.3,1.7,18.6-1.2,28c-2.6,8.7-7,14-16.2,16c-6.7,1.4-12.7-3-12.1-9.8c0.3-3.8,0.5-7.8-0.8-11.5c-1.4-4.4-0.6-8.5,0.8-12.6
			c1-2.7,1.3-5.4,1.3-8.2c0-2.9-0.3-5.8-1.2-8.6c-0.8-2.7-0.5-5.5,0.9-8.2c0.5-0.9,0.8-2.3-0.4-2.8c-0.9-0.3-1.9,0.6-2.4,1.6
			c-0.2,0.5-0.6,1.1-0.6,1.6c-0.1,2.7-0.2,5.4,0.3,8.1c0.8,4.5,2.1,9,0.5,13.5c-2.1,6.1-2.8,12.2-1.2,18.7c1,3.9,1.7,8.6-1.1,12.4
			c-1.9,2.6-4,5.2-6.4,7.4c-4.6,4.1-10.3,5.1-16,4.9c-4.4-0.1-6.4-4-6-10.4c0.4-5.8,0.7-11.8-1.6-16.9c-2.2-4.9-1.6-9.2-0.8-13.8
			c0.8-4.3,1-8.7,0.1-12.8c-1-4.1-0.8-7.8,0.7-11.7C12.2,238.8,13.6,236.4,11.7,234z M93.6,292.5c3.6-2.4,5.7-4.8,6.5-8.1
			c2.1-9.2,0.9-18.4,0.9-27.6c0-1-0.4-2.1-1.5-1.8c-1,0.3-0.7,1.4-0.7,2.4C99.7,269.1,101.1,280.9,93.6,292.5z M39.1,282.5
			c-1.2,2.3,0.3,4.8-0.9,6.3c-3.9,5.1-7.1,11.2-14.4,12.3c-0.7,0.1-1.5,0.2-1.5,1c0,1.1,1,1.2,1.8,1.2c2.6,0.2,5.1-0.4,7.2-2
			c3.8-2.9,6.5-6.8,8.8-10.8C41.5,288.2,41.5,285.2,39.1,282.5z M82.4,217.6c-1.5,0.1-3,0.2-4.6,0.3c-0.6,0.1-1.1,0.5-1.1,1.2
			c0.1,0.8,0.7,0.8,1.3,0.8c0.8,0.1,1.6,0.1,2.5,0c4.2-0.3,6.8,1.6,8.3,5.4c0.5,1.3,1.2,2.5,1.9,3.7c0.4,0.6,1.2,1,1.8,0.7
			c0.7-0.4,0.5-1.2,0.3-1.9c-0.4-1.2-1.2-2.2-1.5-3.5C90,218.9,88,217.6,82.4,217.6z M11.6,218c-0.4,1.3,0.5,2.7,1.2,4
			c1,1.8,1.6,5.6,3.4,4.7c2-1-0.1-4.2-1-6.1c-1.1-2.3-0.8-4,1.2-5.4c1.5-1.1,3.1-2.1,4.6-3.2c0.5-0.3,0.9-0.8,0.7-1.5
			c-0.2-0.8-0.8-0.7-1.4-0.7C16.2,209.6,11.6,213.8,11.6,218z M68.7,275.8c-0.5,7-1.8,13.6-7.3,18.5c-0.5,0.4-0.5,1.1,0,1.5
			c0.5,0.4,1.1-0.1,1.6-0.3C67.9,293,71.9,281.2,68.7,275.8z M58.2,217.8c-2.4-4.3-5.8-2.7-8.6-3c-0.8-0.1-1.9-0.1-2,0.9
			c-0.1,1.3,1.1,1.4,2,1.4C52.3,217.1,55,216.8,58.2,217.8z"/>
		<path class="st2" d="M288.3,268.3c3.7,1.9,8.6-1.9,9.2-6.7c0.3-2.9,0.6-5.8,1.1-8.6c1-5.9,4.6-10.7,6.5-16.3
			c1.7-5,1.9-10.4,4.3-15.3c2.9-5.8,9.1-8.8,15.3-7c3.8,1.1,6.2,6.4,5.6,11c-0.8,5.6-3,10.7-4.2,16.2c-0.2,0.8-0.4,1.6-0.4,2.4
			c0.2,9.4-2.6,18.1-7.1,26.2c-0.9,1.6-0.8,3.2-0.9,4.7c-1.2,12.2-7.5,21.4-16.6,28.9c-4,3.3-6.4,7.6-9.2,11.7
			c-2.5,3.8-6.4,5.6-10.6,7c-2.2,0.7-4.1,2.2-6.1,3.2c-5.9,2.8-12.3,3.4-18.5,5c-13.4,3.5-27.2,5.7-39.4,13.2
			c-5,3.1-11.1,3.8-17.1,4c-8.3,0.2-16.6-0.4-24.9,1.3c-4.3,0.9-8.2,3.1-12.6,4c-9.2,2-18.4,3.7-27.9,4c-6.8,0.2-13.2-1.1-19.7-2.3
			c-9.4-1.8-18.2,0.3-27,3.4c-7.2,2.5-14.6,4.8-22,0.3c-0.6-0.3-1.4-0.6-2-0.5c-5.9,1.6-12.1,0-18,2.1c-9.3,3.3-16.8-1-23.5-7
			c-2.2-2-4.1-3.9-3.7-7.4c0.3-2.2,1.7-3.3,2.8-4.7c4.4-5.2,10.2-7,17-6.9c8.7,0.2,17.1,2.3,25.8,2.4c1.9,0,3.7-0.1,5.6-0.7
			c7.8-2.3,15.7-2.3,23.7-1.1c5.4,0.8,10.5-0.6,14.9-3.7c6.3-4.6,13.1-7.6,21-6.5c4.2,0.6,8.5,1.4,12.5,2.8c8.4,2.8,15.7,0.1,23-3.6
			c6.3-3.3,12.8-5.7,20-4.9c7.1,0.7,13.5-1.4,19.8-4.4c3.8-1.7,7.7-2.5,11.8-2.6c3.1-0.1,6.1,0.1,9.2,0.2c5,0.2,9.6-0.5,13.9-3.7
			c4-2.9,9.1-3.1,13.9-3.8c1.5-0.2,3-0.4,4.3-1.2c5.9-3.8,12.5-6.3,17-12.1c2.8-3.4,3.7-5.6,1.7-9.8c-2.6-5.9-6.8-10.8-10.7-15.7
			c-3.1-3.9-3.8-8.1-3.4-12.8c0.3-3.8,0.3-7.4-1-11.1c-2.5-7.3,3.3-15,11-15.2c4.6-0.1,8.7,0.5,11,5.2c0.7,1.4,0.3,2.8,0.7,4.1
			c2.9,8,5.6,16.1,9.2,23.9c0.9,2,1.1,4.1-1.3,5.6C290.9,266.6,289.6,267.5,288.3,268.3z M103.8,335.9c1.7,0.9,3,1.1,3.9,0.3
			c2.6-2.2,5.7-2.5,8.7-3.1c9-1.9,18.1-3.5,27.4-1.5c2.3,0.5,4.7,0.1,7,0.1c0.7,0,1.4-0.6,1.4-1.3c0.1-1.1-0.9-0.9-1.5-0.9
			c-4.2,0.2-8.4-0.6-12.5-0.6c-5.1,0-10.3,0.4-15.4,0.6C116.1,329.7,110,332.2,103.8,335.9z M321.5,216.2c4,1.9,5,5.1,4.9,9
			c-0.1,2.7-1.5,4.9-2.6,7.2c-2.5,5.6-3.7,11.5-2.9,18.3c1.7-1.6,1.9-3,1.9-4.6c0-4.4,0.2-8.7,2.7-12.7c2.3-3.7,2.6-7.9,2.2-12.1
			C327.4,217.3,325.4,215.7,321.5,216.2z M286.6,255.7c0.2-1.4,0.1-2.4-0.2-3.6c-1.5-5.3-4.4-10.2-5.2-15.7
			c-0.8-5.2-3.6-7.2-8.9-6.2c0.4,1.1,1.4,1.7,2.3,1.9c3.7,0.6,4.2,3.6,5,6.3C281.2,244.4,283,250.3,286.6,255.7z M311.6,280.2
			c-2.6,7.6-7.7,12.8-12.2,18.7C305,298.2,313.1,286.1,311.6,280.2z M64.7,357.1c-0.8-1.9-2.4-1.5-3.7-1.7
			c-5.9-0.9-11.6,1.1-17.4,1.6c-0.8,0.1-1.8,0.4-1.7,1.4c0.1,1.3,1.2,1.3,2.1,1.1C50.7,357.5,57.5,357.6,64.7,357.1z M219.9,337.9
			c-5.7,1.1-10.8,4.3-17.6,3.5C206.8,344.1,215.5,342.2,219.9,337.9z"/>
		<path class="st2" d="M220.7,259.1c-1.3,1-1.7,2.2-1.8,3.9c-0.4,6.3,0,12.7-1.5,18.9c-1.7,6.7-3.9,13.2-11.3,16
			c-3.8,1.4-6.8,0.4-9.5-2.2c-2.5-2.3-3.1-5-2.4-8.4c1.3-6.7,1.3-13.4,0.2-20.2c-0.5-3.2-0.4-6.5,0.9-9.6c3.4-8.2,2.7-16.5,0.3-24.6
			c-1.5-4.9-2.6-9.5-0.9-14.8c2-6.2,1.7-12.9-0.8-19.2c-2.8-6.8-0.4-10,5.3-13.1c4.7-2.5,9.6-2.4,14.1,0.9c3.8,2.8,4.5,6.7,4.3,11.1
			c-0.2,4.2-0.7,8.4,0.5,12.6c1.7,5.8,1.5,11.7,1.5,17.7c0,1.5-0.3,3.2,0.5,4.7c0.5-0.3,0.8-0.4,0.8-0.5c-1.4-7.5,3.8-12.6,6.7-18.6
			c3.1-6.5,6.8-12.8,10.4-19c4.3-7.4,10.3-7.5,15.6-0.6c6,7.8,3.3,18.1-2.3,25.3c-4,5.2-6.9,10.9-7.6,17.6c-0.1,1.4-0.4,2.9-1.2,3.9
			c-4.4,5.9-4.6,11.6,0.4,17.1c4.3,4.7,5.6,10.8,8.7,16.1c1.8,3.1,3.9,5.8,3.5,9.8c-0.5,5.4-7.6,10.6-12.9,9.3
			c-6-1.6-10.4-4.9-12.7-10.8c-1.5-4-3.8-7.6-6.8-10.6c-3.2-3.2-2.7-6.9-1.9-10.7C220.9,260.2,221.2,259.7,220.7,259.1z
			 M245.4,221.8c0.2-0.3,0.5-0.6,0.7-0.9c0.2-0.3,0.4-0.5,0.6-0.7c-0.5-0.3-0.9-0.2-1,0.4c-0.5,0-0.7,0.2-0.8,0.6
			c-0.4,0.3-1,0.5-0.5,1C244.9,222.7,245.1,222,245.4,221.8z M206.8,187.6c5.8,1.9,6.2,6.7,5.9,11.5c-0.4,6.6,2.3,12.6,2.9,19.1
			c-0.2-7.8-1-15.5-1.5-23.3C213.8,190.3,211.7,188,206.8,187.6z M213.1,285.5c3.3-3.3,2.8-7.5,2-11.3c-0.8-4.1,0-8.1-0.2-12.2
			C209.7,269.4,214.5,277.7,213.1,285.5z M247.7,191.7c1.2,4.1,5.5,6.4,5.2,11c-0.1,0.7,0.4,1.1,1.1,0.9c0.7-0.2,0.8-0.7,0.9-1.3
			C255.1,199.6,250.4,192.7,247.7,191.7z M250.3,283.3c-2.1,3.4-5.2,5.1-9.4,5.9C246.9,290.5,251,287.9,250.3,283.3z M241.9,231.2
			c0-3.2,1.2-6,3-9.3C241.2,224.7,240.3,227.8,241.9,231.2z"/>
		<path class="st2" d="M470.9,251.8c-0.5,5.7,0.4,9.9,1.6,14c2.3,8.1,1.3,16.1-0.8,23.7c-1.4,5.1-6,8-11.3,10.1
			c-5.6,2.2-10.7,0.2-13.5-4.4c-1.6-2.6-1.8-5.5-1.9-8.8c-0.1-5.7,2.3-11,1.7-16.7c-0.3-2.8,1.1-5.5,0.7-8.4
			c-0.4-2.8-0.7-5.6-3.7-6.7c-3.2-1.2-5.9-0.5-8.4,2.2c-5.1,5.5-7,11.3-4.3,18.7c2.7,7.4,2.4,14.7-4.1,20.5c-6.7,6-17.8,3.8-21-4.5
			c-1-2.4-0.7-5.4,0-8c1.5-5.1,1.9-10-0.7-14.9c-1.3-2.5-0.8-5,0.1-7.9c2.1-6.8,2.4-13.8-0.4-20.6c-2.7-6.4-3-13.2-2.5-20
			c0.4-4.6,0.3-9.2,0.3-13.8c0-2.8-1.7-5-2.5-7.5c-2.2-7.3,2.8-15.9,10.3-17.7c2.8-0.7,5.6-0.8,8.3-0.6c3.7,0.2,6.5,2.8,5.6,6.2
			c-1.7,6.5,1.2,11.8,3.3,17.4c0.8,2.1,1.3,4.1,1,6.1c-1,6.6,0.4,13.2-0.4,19.7c-0.1,0.9-0.6,2.5,0.8,2.6c1.4,0.1,1.1-1.5,1.1-2.5
			c0.2-6.4,0.4-5.9,6-8.8c8.4-4.4,15.6-1.7,22.8,2.3c2,1.1,4,3,4,5.1c0.1,5,3.8,8.4,5.2,12.8C469.6,245.2,471.3,248.9,470.9,251.8z
			 M439.5,225.7c11.6-3.6,17.7,2.5,21.9,12c-0.3-7.4-3.2-12.2-10.2-14.6C446.8,221.6,443.2,221.7,439.5,225.7z M423.2,209.1
			c0.4-2.6,0.5-5-0.7-7.6c-1.8-3.9-3.8-7.8-2-12.5c0.4-1,0.6-2.5,0.6-3.7c-0.1-1.4-1-2.5-2.5-2.3c-1.7,0.3-0.4,1.4-0.4,2.2
			c0,1.3,0.3,2.6,0,3.9c-2,7.5,3.2,13.3,4.4,20C422.6,209.1,422.8,209.1,423.2,209.1z M462.1,294.8c5.1-1.9,9.1-9.6,7.8-14.8
			C468.1,285.3,465.7,290.4,462.1,294.8z"/>
		<path class="st2" d="M595.5,217.9c3.5-0.5,6.8,0.9,9.8,3.6c3.4,3,7.6,5.1,11.2,7.9c4.3,3.4,8,6.9,8.5,12.8
			c0.6,6.5,4,12.7,3.2,19.1c-1.4,11.6-5.2,22.9-17.2,25.3c-1.6,0.3-3.3,0.6-4.8,0.4c-8-1.4-15.8-1-23.3,2.3
			c-1.7,0.7-3.4,0.6-5.2,0.7c-0.6,0-1.6-0.2-1.6,0.8c0,0.8,0.8,1.2,1.5,1.2c1.9,0.1,3.8,0.2,5.6,0c2.1-0.2,3.5,0.7,3.2,2.6
			c-1.4,9.2,1.1,18.1,1.4,27.1c0.3,6.8-8.1,12.5-14.7,10.8c-8.4-2.2-12.8-8.9-11.2-17.6c1.2-6.1,0.7-12-1.2-17.8
			c-1.3-4.1-2-8.1-1.7-12.4c0.3-5,0.3-9.9-2.3-14.4c-2.5-4.4-1-8.9-0.5-13.3c0.6-4.8-0.6-9.5-1.1-14.1c-0.9-7.8,5.1-15.9,13-15.9
			c4.8,0,8.7-2.4,12.5-4.9C585.2,219.3,589.8,217.7,595.5,217.9z M582.5,261.2c-0.1,4.2,3.1,6.6,6.5,5.7c3.8-1,6.7-3.4,9.1-6.3
			c3.6-4.3,2.5-10-2.2-12.2c-1.2-0.5-2.3-1.1-3.4-1.7c-3.7-1.9-8.9,0.8-9.3,5C582.9,255.1,583.5,258.5,582.5,261.2z M594.2,221.3
			c-1.8-0.4-3.8,0.5-5.9,0.7c-0.7,0.1-1.5,0.1-1.5,1.1c0,1.2,1,1.1,1.8,1.1c0.8-0.1,1.6-0.4,2.4-0.5c3.8-0.7,7.6-0.2,10.2,2.4
			c3.4,3.4,7.1,5.8,11.6,7.3c0.8,0.3,1.6,2.1,2.6,0.6c0.6-0.9-0.8-1.5-1.5-2c-4.5-3.2-9.1-6.2-13.5-9.5
			C598.4,221.1,596.5,221.3,594.2,221.3z M560.5,241.6c-0.1-0.7,0.5-1.7-0.8-1.9c-1.2-0.2-1.3,0.7-1.4,1.6c0,0.2-0.1,0.5-0.1,0.7
			c0.1,7.8,3.1,15.6,0.2,23.4c-0.2,0.6,0.3,1.1,1,1.1c0.5,0,1-0.2,1-0.7c0.2-4.2,2.6-8.2,1.3-12.4
			C560.6,249.5,559,245.8,560.5,241.6z M577.6,329.6c4.5-0.8,6.9-3.3,7.6-7.5c0.6-3.7-0.9-6.5-4.3-9.3
			C582,319.2,583.3,324.9,577.6,329.6z M584.8,245c-2.4-0.8-3.8-0.2-4.8,1.6c-1.5,2.7-1.6,5.1,0.9,8.4
			C580.6,250.6,581.9,247.5,584.8,245z"/>
		<path class="st2" d="M365.7,246.2c7.3-1.1,11.6,2.9,15.6,7.4c1.9,2.2,4.1,3.9,6.3,5.6c7.4,5.7,7,9.2,6.4,17.7
			c-0.2,2.6-1.9,4.6-4,5.4c-4.3,1.6-7.2,5.1-10.8,7.7c-4.1,3-8.4,5.6-13.7,5.5c-1.3,0-2.4-0.3-3.7-0.8c-4.5-2-9.3-3.2-14.2-3.4
			c-7.3-0.4-13.1-8.1-13.9-13.4c-0.7-4.3,6.4-11.8,11-12c2.6-0.1,5,0,7.4,1.4c3.1,1.9,7,1.5,10.3,2.8c0.5,0.2,1,0,1.2-0.5
			c0.3-0.7-0.2-1.1-0.6-1.5c-1.7-1.4-3.9-1.8-5.9-2.1c-5-0.7-9.1-3-12.8-6.2c-3.2-2.8-5-5.3-2.4-10.8c1.7-3.5,1.6-7.2-0.7-10.7
			c-2.4-3.7-1.5-7.4,1.4-10.7c6.8-7.7,18.7-8.1,27.8-3.6c3.7,1.9,7.4,2.5,11.7,1.8c7.1-1.2,11.9,1.7,12.3,10.2
			c0.2,5-0.7,9.1-5.4,11.7c-2.7,1.5-5.4,2-8.4,0.8c-3.3-1.4-5.9-3.9-9.4-4.8C368.8,243,367.3,243.4,365.7,246.2z M388.9,230.6
			c1.7,4.8,3,9.4-2.6,12.3c-0.7,0.4-1.4,1.3-0.8,2.1c0.5,0.7,1.5,0.5,2.3,0.1c2.4-1.2,4.5-3.1,4-5.6
			C391.2,236.5,393.2,232.6,388.9,230.6z M349,287.1c-2.9-1.4-5.2-2.6-7.4-3.7c-0.5-0.2-1-0.7-1.6-0.1c-0.6,0.7-0.2,1.3,0.3,1.9
			C342.4,287.9,345.1,288.3,349,287.1z M344.5,239.7c1.1-4.2-2.4-8,1.3-11.4C341.2,230.4,341,232.7,344.5,239.7z"/>
		<path class="st2" d="M153.9,283.7c-0.5-2.5,0.8-5.2,0.7-8c-0.2-3.8,0.2-7.6-1.2-11.5c-1-2.8-0.2-6,0.8-8.9
			c1.6-4.7,1.9-9.4-0.3-13.8c-3.1-6.5-3.2-13.1-1.4-19.8c2.2-8.1,1.5-16-1.4-23.8c-2-5.5,2-14.4,11.2-12.5
			c8.1,1.7,12.8,7.4,14.2,15.6c1.1,6.4-0.8,12.9,1.2,19.2c1,3.1,2,6.1,2.2,9.4c0.7,8.3-3,15.4-5,23c-1.4,5.2-1.2,10.6,0.2,15.9
			c2,7.4,4.5,14.6-0.2,22.1c-2,3.2-4.2,5.9-7.8,6.7c-2.2,0.5-4.1,3.1-6.8,1.2c-3.8-2.8-5.8-6.6-6.5-11.1
			C153.7,286.2,153.9,285.2,153.9,283.7z M158.1,206.7c0-2.1,0.3-3.7-0.1-5.1c-1.3-5-1-9.2,4.6-11.5c0.9-0.4,0.5-1.2-0.3-1.5
			c-3.5-1.5-7.3,0.6-7.9,4.4c-0.3,1.9-0.6,3.9,0.1,5.7C155.4,201.2,155.1,204.4,158.1,206.7z M175.1,230.4c0.3,4.5-0.8,8-1.5,11.5
			c-0.6,3-2.3,5.7-2.1,8.8c0,0.7-0.3,1.5,0.8,1.6c0.7,0.1,1.1-0.5,1.2-1.1c1.3-5.2,3.9-10.2,4-15.7
			C177.4,233.9,177.3,232.4,175.1,230.4z"/>
		<path class="st2" d="M483.1,267.9c0.6-4.8-0.1-10.4-1.6-16c-0.7-2.5-0.2-5.3,1.3-7.7c3.5-5.7,6.9-11.5,9.6-17.6
			c1.5-3.3,4.8-4.7,8-5c7.6-0.6,15.2-0.1,22.7,1.4c6.9,1.3,12,5.5,15.8,11.6c2.3,3.8,5.5,7,7,11.3c1.1,3.1,1.7,6.2,0.8,9.2
			c-1.4,4.5-1.6,9-1.4,13.6c0.3,7.3-2.9,13.1-7,18.6c-0.8,1.1-1.8,1.9-3.1,2.3c-6.6,2.3-12.8,5.6-19.1,8.6
			c-4.9,2.3-10.3,1.4-14.9-0.9c-8-4-13.9-10.4-17.3-18.7C482.8,275.7,483.4,272.1,483.1,267.9z M509.5,253c-0.2,0.2-0.5,0.5-0.7,0.7
			c-3.6,3.5-2.1,13.3,2.4,15.4c2.3,1.1,6.4-0.3,6.2-2.4c-0.3-3.5,1.3-5.9,3.2-8.5c2.4-3.2,0.5-7.4-3.5-7.8
			C514.2,250,511.4,250.4,509.5,253z M534.2,233.7c-3.3-5.9-8.6-8.2-14.8-8.9c-0.7-0.1-1.9-0.4-1.9,0.9c0,0.7,0.7,1.1,1.5,1.2
			c4.9,1,9.6,2.6,13,6.6C532.6,234.2,533.3,234.1,534.2,233.7z M518.9,271.8c-4.4-0.8-9.2,1.3-12.5-2.9c-0.4-0.5-1.1-0.4-1.5,0.2
			c-0.3,0.5-0.2,1.1,0.2,1.6C506.7,273.8,515.8,274.7,518.9,271.8z"/>
		<path class="st2" d="M141,241.3c1,5.7-1.2,11.4-3,17c-0.8,2.5-0.8,5.1-0.2,7.6c1.5,6.3,3.1,12.6,3.2,19.2
			c0.1,6-5.2,12.4-10.8,14.1c-5.6,1.8-9.7-1.3-9.4-6.8c0.4-7.8-2.5-14.3-5.1-21.1c-0.9-2.5-0.6-4.9-0.3-7.5
			c1.2-8.1,3.6-16.2,1.1-24.7c-1-3.4,0.2-7.1,2.7-10.1c2.3-2.8,5.2-4.8,8.4-6.4c5.4-2.7,11.5,1.1,12.6,7.7
			C141,233.9,141.2,237.4,141,241.3z M137.6,235.4c0-1.2,0.1-2.2,0-3.1c-0.7-4.4-3.4-8.2-8-6.2c-0.9,0.4-2.4,0.3-2.3,1.4
			c0.2,1.3,1.7,1,2.7,1c2.3-0.1,4.8,0.1,4.6,3c-0.4,4.3,1.9,8.2,1.6,12.4c-0.1,1.2,0.3,2.8,1.5,2.8c1.8,0,1.2-1.8,1.5-3
			C139.7,240.6,136.7,238.2,137.6,235.4z"/>
		<path class="st2" d="M127.8,188.8c2.5-0.2,4.9,0.5,7,1.9c3.3,2.1,5.4,5.3,4.7,9.1c-0.8,4.5-4,7.6-8.4,8.9c-3.6,1-6.9,2.3-9.9,4.4
			c-2.9,2-5,0.7-7.1-1.2c-2.2-1.9-4.4-4.3-3-7.2c2.9-5.9,6.5-11.5,12.4-15.1C124.9,188.7,126.3,188.9,127.8,188.8z M121,195.7
			c-0.1-1.1,1.2-1.4,1.5-2.3c0.2-0.3,1-0.5,0.4-1c-0.5-0.4-0.7,0.2-1,0.5C120.7,193.5,120.2,194.3,121,195.7
			c-0.3,0.1-0.4-0.9-0.8-0.2C120.5,195.5,120.7,195.6,121,195.7z M122.9,192.2c1.6,0.6,2.6-0.5,4.6-1.1
			C125.3,190.8,123.8,190.4,122.9,192.2z"/>
	</g>
	<g>
		<path class="st0" d="M11.7,234c0-1.1,0.1-2.2,0.1-3.3c0.5-3.2-0.9-5.8-2.5-8.3c-1.7-2.7-1-4.9,0.5-7.3c3.6-5.9,9.5-7.9,15.7-8.5
			c6.7-0.7,13.2,0.2,16.8,7.3c0.9,1.8,2.3,1.2,3.5,0.4c1.8-1.1,3.6-2,5.8-2.2c8.6-0.9,16.2,6.7,17.2,13.9c0.3,2.3,0.8,4.8,3.2,6.2
			c0.3-3.1,0.3-3.1-1.6-8.3c-1.5-4.1,1.3-9,5.7-9.5c9.9-1,15.9,1.3,19.4,11.8c0.7,2.2,1.6,4.3,3.3,6c3.5,3.5,5.3,7.7,5.3,12.9
			c-0.1,3.7-1.7,7.4-0.6,11.1c0.8,2.6,0.9,5.3,1,8c0.3,6.2-0.7,12.4-0.5,18.7c0.1,3.9-1.2,6.9-3.7,9.6c-1.1,1.3-2.8,2.1-3.8,3.5
			c-5.6,7.7-19.1,5.4-22.4-4.3c-0.4-1.3-0.5-2.3-0.1-3.6c2.1-6.1,4-12.4,3.1-19c-0.9-6.4-0.8-12.6-0.2-19.2c0.5-4.8-1.9-8.7-5.4-13
			c0,0-0.8-1.3-1.6-0.5c-0.7,0.7-0.1,2.7,0.3,3.2c3.2,4.6,4.2,5.9,3.4,11.5c-0.1,0.9-0.4,6.6-0.2,7.5c1.3,8.8,1.3,15.6-0.4,25.4
			c-2.6,8.7-7,14-16.2,16c-6.7,1.4-12.7-3-12.1-9.8c0.3-3.8,0.5-7.8-0.8-11.5c-1.4-4.4-0.6-8.5,0.8-12.6c1-2.7,1.3-5.4,1.3-8.2
			c0-2.9-0.3-5.8-1.2-8.6c-0.8-2.7-0.5-5.5,0.9-8.2c0.5-0.9,0.8-2.3-0.4-2.8c-0.9-0.3-1.9,0.6-2.4,1.6c-0.2,0.5-0.5,1.1-0.6,1.6
			c-0.4,1.7-1.3,5.3-0.8,8c0.8,4.5,2,8.4,0.5,12.9c-2.1,6.1-3.1,12.5-1.4,19c1,3.9,3.1,9,0.3,12.8c-1.9,2.6-4,5.2-6.4,7.4
			c-4.6,4.1-10.3,5.1-16,4.9c-4.4-0.1-6.4-4-6-10.4c0.4-5.8,0.7-11.8-1.6-16.9c-2.2-4.9-1.6-9.2-0.8-13.8c0.8-4.3,1-8.7,0.1-12.8
			c-1-4.1-0.8-7.8,0.7-11.7C12.2,238.8,13.6,236.4,11.7,234z M93.6,292.5c3.6-2.4,5.7-4.8,6.5-8.1c2.1-9.2,0.9-18.4,0.9-27.6
			c0-1-0.4-2.1-1.5-1.8c-1,0.3-0.7,1.4-0.7,2.4C99.7,269.1,101.1,280.9,93.6,292.5z M39.1,282.5c-1.2,2.3,0.3,4.8-0.9,6.3
			c-3.9,5.1-7.1,11.2-14.4,12.3c-0.7,0.1-1.5,0.2-1.5,1c0,1.1,1,1.2,1.8,1.2c2.6,0.2,5.1-0.4,7.2-2c3.8-2.9,6.5-6.8,8.8-10.8
			C41.5,288.2,41.5,285.2,39.1,282.5z M82.4,217.6c-1.5,0.1-3,0.2-4.6,0.3c-0.6,0.1-1.1,0.5-1.1,1.2c0.1,0.8,0.7,0.8,1.3,0.8
			c0.8,0.1,1.6,0.1,2.5,0c4.2-0.3,6.8,1.6,8.3,5.4c0.5,1.3,1.2,2.5,1.9,3.7c0.4,0.6,1.2,1,1.8,0.7c0.7-0.4,0.5-1.2,0.3-1.9
			c-0.4-1.2-1.2-2.2-1.5-3.5C90,218.9,88,217.6,82.4,217.6z M11.6,218c-0.4,1.3,0.5,2.7,1.2,4c1,1.8,1.6,5.6,3.4,4.7
			c2-1-0.1-4.2-1-6.1c-1.1-2.3-0.8-4,1.2-5.4c1.5-1.1,3.1-2.1,4.6-3.2c0.5-0.3,0.9-0.8,0.7-1.5c-0.2-0.8-0.8-0.7-1.4-0.7
			C16.2,209.6,11.6,213.8,11.6,218z M68.7,275.8c-0.5,7-1.8,13.6-7.3,18.5c-0.5,0.4-0.5,1.1,0,1.5c0.5,0.4,1.1-0.1,1.6-0.3
			C67.9,293,71.9,281.2,68.7,275.8z M58.2,217.8c-2.4-4.3-5.8-2.7-8.6-3c-0.8-0.1-1.9-0.1-2,0.9c-0.1,1.3,1.1,1.4,2,1.4
			C52.3,217.1,55,216.8,58.2,217.8z"/>
		<path class="st0" d="M288.3,268.3c3.7,1.9,8.6-1.9,9.2-6.7c0.3-2.9,0.6-5.8,1.1-8.6c1-5.9,4.6-10.7,6.5-16.3
			c1.7-5,1.9-10.4,4.3-15.3c2.9-5.8,9.1-8.8,15.3-7c3.8,1.1,6.2,6.4,5.6,11c-0.8,5.6-3,10.7-4.2,16.2c-0.2,0.8-0.4,1.6-0.4,2.4
			c0.2,9.4-2.6,18.1-7.1,26.2c-0.9,1.6-0.8,3.2-0.9,4.7c-1.2,12.2-7.5,21.4-16.6,28.9c-4,3.3-6.4,7.6-9.2,11.7
			c-2.5,3.8-6.4,5.6-10.6,7c-2.2,0.7-4.1,2.2-6.1,3.2c-5.9,2.8-12.3,3.4-18.5,5c-13.4,3.5-27.2,5.7-39.4,13.2
			c-5,3.1-11.1,3.8-17.1,4c-8.3,0.2-16.6-0.4-24.9,1.3c-4.3,0.9-8.2,3.1-12.6,4c-9.2,2-18.4,3.7-27.9,4c-6.8,0.2-13.2-1.1-19.7-2.3
			c-9.4-1.8-18.2,0.3-27,3.4c-7.2,2.5-14.6,4.8-22,0.3c-0.6-0.3-1.4-0.6-2-0.5c-5.9,1.6-12.1,0-18,2.1c-9.3,3.3-16.8-1-23.5-7
			c-2.2-2-4.1-3.9-3.7-7.4c0.3-2.2,1.7-3.3,2.8-4.7c4.4-5.2,10.2-7,17-6.9c8.7,0.2,17.1,2.3,25.8,2.4c1.9,0,3.7-0.1,5.6-0.7
			c7.8-2.3,15.7-2.3,23.7-1.1c5.4,0.8,10.5-0.6,14.9-3.7c6.3-4.6,13.1-7.6,21-6.5c4.2,0.6,8.5,1.4,12.5,2.8c8.4,2.8,15.7,0.1,23-3.6
			c6.3-3.3,12.8-5.7,20-4.9c7.1,0.7,13.5-1.4,19.8-4.4c3.8-1.7,7.7-2.5,11.8-2.6c3.1-0.1,6.1,0.1,9.2,0.2c5,0.2,9.6-0.5,13.9-3.7
			c4-2.9,9.1-3.1,13.9-3.8c1.5-0.2,3-0.4,4.3-1.2c5.9-3.8,12.5-6.3,17-12.1c2.8-3.4,3.7-5.6,1.7-9.8c-2.6-5.9-6.8-10.8-10.7-15.7
			c-3.1-3.9-3.8-8.1-3.4-12.8c0.3-3.8,0.3-7.4-1-11.1c-2.5-7.3,3.3-15,11-15.2c4.6-0.1,8.7,0.5,11,5.2c0.7,1.4,0.3,2.8,0.7,4.1
			c2.9,8,5.6,16.1,9.2,23.9c0.9,2,1.1,4.1-1.3,5.6C290.9,266.6,289.6,267.5,288.3,268.3z M103.8,335.9c1.7,0.9,3,1.1,3.9,0.3
			c2.6-2.2,5.7-2.5,8.7-3.1c9-1.9,18.1-3.5,27.4-1.5c2.3,0.5,4.7,0.1,7,0.1c0.7,0,1.4-0.6,1.4-1.3c0.1-1.1-0.9-0.9-1.5-0.9
			c-4.2,0.2-8.4-0.6-12.5-0.6c-5.1,0-10.3,0.4-15.4,0.6C116.1,329.7,110,332.2,103.8,335.9z M321.5,216.2c4,1.9,5,5.1,4.9,9
			c-0.1,2.7-1.5,4.9-2.6,7.2c-2.5,5.6-3.7,11.5-2.9,18.3c1.7-1.6,1.9-3,1.9-4.6c0-4.4,0.2-8.7,2.7-12.7c2.3-3.7,2.6-7.9,2.2-12.1
			C327.4,217.3,325.4,215.7,321.5,216.2z M286.6,255.7c0.2-1.4,0.1-2.4-0.2-3.6c-1.5-5.3-4.4-10.2-5.2-15.7
			c-0.8-5.2-3.6-7.2-8.9-6.2c0.4,1.1,1.4,1.7,2.3,1.9c3.7,0.6,4.2,3.6,5,6.3C281.2,244.4,283,250.3,286.6,255.7z M311.6,280.2
			c-2.6,7.6-7.7,12.8-12.2,18.7C305,298.2,313.1,286.1,311.6,280.2z M64.7,357.1c-0.8-1.9-2.4-1.5-3.7-1.7
			c-5.9-0.9-11.6,1.1-17.4,1.6c-0.8,0.1-1.8,0.4-1.7,1.4c0.1,1.3,1.2,1.3,2.1,1.1C50.7,357.5,57.5,357.6,64.7,357.1z M219.9,337.9
			c-5.7,1.1-10.8,4.3-17.6,3.5C206.8,344.1,215.5,342.2,219.9,337.9z"/>
		<path class="st0" d="M220.7,259.1c-1.3,1-1.7,2.2-1.8,3.9c-0.4,6.3,0,12.7-1.5,18.9c-1.7,6.7-3.9,13.2-11.3,16
			c-3.8,1.4-6.8,0.4-9.5-2.2c-2.5-2.3-3.1-5-2.4-8.4c1.3-6.7,1.3-13.4,0.2-20.2c-0.5-3.2-0.4-6.5,0.9-9.6c3.4-8.2,2.7-16.5,0.3-24.6
			c-1.5-4.9-2.6-9.5-0.9-14.8c2-6.2,1.7-12.9-0.8-19.2c-2.8-6.8-0.4-10,5.3-13.1c4.7-2.5,9.6-2.4,14.1,0.9c3.8,2.8,4.5,6.7,4.3,11.1
			c-0.2,4.2-0.7,8.4,0.5,12.6c1.7,5.8,1.5,11.7,1.5,17.7c0,1.5-0.3,3.2,0.5,4.7c0.5-0.3,0.8-0.4,0.8-0.5c-1.4-7.5,3.8-12.6,6.7-18.6
			c3.1-6.5,6.8-12.8,10.4-19c4.3-7.4,10.3-7.5,15.6-0.6c6,7.8,3.3,18.1-2.3,25.3c-4,5.2-6.9,10.9-7.6,17.6c-0.1,1.4-0.4,2.9-1.2,3.9
			c-4.4,5.9-4.6,11.6,0.4,17.1c4.3,4.7,5.6,10.8,8.7,16.1c1.8,3.1,3.9,5.8,3.5,9.8c-0.5,5.4-7.6,10.6-12.9,9.3
			c-6-1.6-10.4-4.9-12.7-10.8c-1.5-4-3.8-7.6-6.8-10.6c-3.2-3.2-2.7-6.9-1.9-10.7C220.9,260.2,221.2,259.7,220.7,259.1z
			 M245.4,221.8c0.2-0.3,0.5-0.6,0.7-0.9c0.2-0.3,0.4-0.5,0.6-0.7c-0.5-0.3-0.9-0.2-1,0.4c-0.5,0-0.7,0.2-0.8,0.6
			c-0.4,0.3-1,0.5-0.5,1C244.9,222.7,245.1,222,245.4,221.8z M206.8,187.6c5.8,1.9,6.2,6.7,5.9,11.5c-0.4,6.6,2.3,12.6,2.9,19.1
			c-0.2-7.8-1-15.5-1.5-23.3C213.8,190.3,211.7,188,206.8,187.6z M213.1,285.5c3.3-3.3,2.8-7.5,2-11.3c-0.8-4.1,0-8.1-0.2-12.2
			C209.7,269.4,214.5,277.7,213.1,285.5z M247.7,191.7c1.2,4.1,5.5,6.4,5.2,11c-0.1,0.7,0.4,1.1,1.1,0.9c0.7-0.2,0.8-0.7,0.9-1.3
			C255.1,199.6,250.4,192.7,247.7,191.7z M250.3,283.3c-2.1,3.4-5.2,5.1-9.4,5.9C246.9,290.5,251,287.9,250.3,283.3z M241.9,231.2
			c0-3.2,1.2-6,3-9.3C241.2,224.7,240.3,227.8,241.9,231.2z"/>
		<path class="st0" d="M470.9,251.8c-0.5,5.7,0.4,9.9,1.6,14c2.3,8.1,1.3,16.1-0.8,23.7c-1.4,5.1-6,8-11.3,10.1
			c-5.6,2.2-10.7,0.2-13.5-4.4c-1.6-2.6-1.8-5.5-1.9-8.8c-0.1-5.7,2.3-11,1.7-16.7c-0.3-2.8,1.1-5.5,0.7-8.4
			c-0.4-2.8-0.7-5.6-3.7-6.7c-3.2-1.2-5.9-0.5-8.4,2.2c-5.1,5.5-7,11.3-4.3,18.7c2.7,7.4,2.4,14.7-4.1,20.5c-6.7,6-17.8,3.8-21-4.5
			c-1-2.4-0.7-5.4,0-8c1.5-5.1,1.9-10-0.7-14.9c-1.3-2.5-0.8-5,0.1-7.9c2.1-6.8,2.4-13.8-0.4-20.6c-2.7-6.4-3-13.2-2.5-20
			c0.4-4.6,0.3-9.2,0.3-13.8c0-2.8-1.7-5-2.5-7.5c-2.2-7.3,2.8-15.9,10.3-17.7c2.8-0.7,5.6-0.8,8.3-0.6c3.7,0.2,6.5,2.8,5.6,6.2
			c-1.7,6.5,1.2,11.8,3.3,17.4c0.8,2.1,1.3,4.1,1,6.1c-1,6.6,0.4,13.2-0.4,19.7c-0.1,0.9-0.6,2.5,0.8,2.6c1.4,0.1,1.1-1.5,1.1-2.5
			c0.2-6.4,0.4-5.9,6-8.8c8.4-4.4,15.6-1.7,22.8,2.3c2,1.1,4,3,4,5.1c0.1,5,3.8,8.4,5.2,12.8C469.6,245.2,471.3,248.9,470.9,251.8z
			 M439.5,225.7c11.6-3.6,17.7,2.5,21.9,12c-0.3-7.4-3.2-12.2-10.2-14.6C446.8,221.6,443.2,221.7,439.5,225.7z M423.2,209.1
			c0.4-2.6,0.5-5-0.7-7.6c-1.8-3.9-3.8-7.8-2-12.5c0.4-1,0.6-2.5,0.6-3.7c-0.1-1.4-1-2.5-2.5-2.3c-1.7,0.3-0.4,1.4-0.4,2.2
			c0,1.3,0.3,2.6,0,3.9c-2,7.5,3.2,13.3,4.4,20C422.6,209.1,422.8,209.1,423.2,209.1z M462.1,294.8c5.1-1.9,9.1-9.6,7.8-14.8
			C468.1,285.3,465.7,290.4,462.1,294.8z"/>
		<path class="st0" d="M595.5,217.9c3.5-0.5,6.8,0.9,9.8,3.6c3.4,3,7.6,5.1,11.2,7.9c4.3,3.4,8,6.9,8.5,12.8
			c0.6,6.5,4,12.7,3.2,19.1c-1.4,11.6-5.2,22.9-17.2,25.3c-1.6,0.3-3.3,0.6-4.8,0.4c-8-1.4-15.8-1-23.3,2.3
			c-1.7,0.7-3.4,0.6-5.2,0.7c-0.6,0-1.6-0.2-1.6,0.8c0,0.8,0.8,1.2,1.5,1.2c1.9,0.1,3.8,0.2,5.6,0c2.1-0.2,3.5,0.7,3.2,2.6
			c-1.4,9.2,1.1,18.1,1.4,27.1c0.3,6.8-8.1,12.5-14.7,10.8c-8.4-2.2-12.8-8.9-11.2-17.6c1.2-6.1,0.7-12-1.2-17.8
			c-1.3-4.1-2-8.1-1.7-12.4c0.3-5,0.3-9.9-2.3-14.4c-2.5-4.4-1-8.9-0.5-13.3c0.6-4.8-0.6-9.5-1.1-14.1c-0.9-7.8,5.1-15.9,13-15.9
			c4.8,0,8.7-2.4,12.5-4.9C585.2,219.3,589.8,217.7,595.5,217.9z M582.5,261.2c-0.1,4.2,3.1,6.6,6.5,5.7c3.8-1,6.7-3.4,9.1-6.3
			c3.6-4.3,2.5-10-2.2-12.2c-1.2-0.5-2.3-1.1-3.4-1.7c-3.7-1.9-8.9,0.8-9.3,5C582.9,255.1,583.5,258.5,582.5,261.2z M594.2,221.3
			c-1.8-0.4-3.8,0.5-5.9,0.7c-0.7,0.1-1.5,0.1-1.5,1.1c0,1.2,1,1.1,1.8,1.1c0.8-0.1,1.6-0.4,2.4-0.5c3.8-0.7,7.6-0.2,10.2,2.4
			c3.4,3.4,7.1,5.8,11.6,7.3c0.8,0.3,1.6,2.1,2.6,0.6c0.6-0.9-0.8-1.5-1.5-2c-4.5-3.2-9.1-6.2-13.5-9.5
			C598.4,221.1,596.5,221.3,594.2,221.3z M560.5,241.6c-0.1-0.7,0.5-1.7-0.8-1.9c-1.2-0.2-1.3,0.7-1.4,1.6c0,0.2-0.1,0.5-0.1,0.7
			c0.1,7.8,3.1,15.6,0.2,23.4c-0.2,0.6,0.3,1.1,1,1.1c0.5,0,1-0.2,1-0.7c0.2-4.2,2.6-8.2,1.3-12.4
			C560.6,249.5,559,245.8,560.5,241.6z M577.6,329.6c4.5-0.8,6.9-3.3,7.6-7.5c0.6-3.7-0.9-6.5-4.3-9.3
			C582,319.2,583.3,324.9,577.6,329.6z M584.8,245c-2.4-0.8-3.8-0.2-4.8,1.6c-1.5,2.7-1.6,5.1,0.9,8.4
			C580.6,250.6,581.9,247.5,584.8,245z"/>
		<path class="st0" d="M365.7,246.2c7.3-1.1,11.6,2.9,15.6,7.4c1.9,2.2,4.1,3.9,6.3,5.6c7.4,5.7,7,9.2,6.4,17.7
			c-0.2,2.6-1.9,4.6-4,5.4c-4.3,1.6-7.2,5.1-10.8,7.7c-4.1,3-8.4,5.6-13.7,5.5c-1.3,0-2.4-0.3-3.7-0.8c-4.5-2-9.3-3.2-14.2-3.4
			c-7.3-0.4-13.1-8.1-13.9-13.4c-0.7-4.3,6.4-11.8,11-12c2.6-0.1,5,0,7.4,1.4c3.1,1.9,7,1.5,10.3,2.8c0.5,0.2,1,0,1.2-0.5
			c0.3-0.7-0.2-1.1-0.6-1.5c-1.7-1.4-3.9-1.8-5.9-2.1c-5-0.7-9.1-3-12.8-6.2c-3.2-2.8-5-5.3-2.4-10.8c1.7-3.5,1.6-7.2-0.7-10.7
			c-2.4-3.7-1.5-7.4,1.4-10.7c6.8-7.7,18.7-8.1,27.8-3.6c3.7,1.9,7.4,2.5,11.7,1.8c7.1-1.2,11.9,1.7,12.3,10.2
			c0.2,5-0.7,9.1-5.4,11.7c-2.7,1.5-5.4,2-8.4,0.8c-3.3-1.4-5.9-3.9-9.4-4.8C368.8,243,367.3,243.4,365.7,246.2z M388.9,230.6
			c1.7,4.8,3,9.4-2.6,12.3c-0.7,0.4-1.4,1.3-0.8,2.1c0.5,0.7,1.5,0.5,2.3,0.1c2.4-1.2,4.5-3.1,4-5.6
			C391.2,236.5,393.2,232.6,388.9,230.6z M349,287.1c-2.9-1.4-5.2-2.6-7.4-3.7c-0.5-0.2-1-0.7-1.6-0.1c-0.6,0.7-0.2,1.3,0.3,1.9
			C342.4,287.9,345.1,288.3,349,287.1z M344.5,239.7c1.1-4.2-2.4-8,1.3-11.4C341.2,230.4,341,232.7,344.5,239.7z"/>
		<path class="st0" d="M153.9,283.7c-0.5-2.5,0.8-5.2,0.7-8c-0.2-3.8,0.2-7.6-1.2-11.5c-1-2.8-0.2-6,0.8-8.9
			c1.6-4.7,1.9-9.4-0.3-13.8c-3.1-6.5-3.2-13.1-1.4-19.8c2.2-8.1,1.5-16-1.4-23.8c-2-5.5,2-14.4,11.2-12.5
			c8.1,1.7,12.8,7.4,14.2,15.6c1.1,6.4-0.8,12.9,1.2,19.2c1,3.1,2,6.1,2.2,9.4c0.7,8.3-3,15.4-5,23c-1.4,5.2-1.2,10.6,0.2,15.9
			c2,7.4,4.5,14.6-0.2,22.1c-2,3.2-4.2,5.9-7.8,6.7c-2.2,0.5-4.1,3.1-6.8,1.2c-3.8-2.8-5.8-6.6-6.5-11.1
			C153.7,286.2,153.9,285.2,153.9,283.7z M158.1,206.7c0-2.1,0.3-3.7-0.1-5.1c-1.3-5-1-9.2,4.6-11.5c0.9-0.4,0.5-1.2-0.3-1.5
			c-3.5-1.5-7.3,0.6-7.9,4.4c-0.3,1.9-0.6,3.9,0.1,5.7C155.4,201.2,155.1,204.4,158.1,206.7z M175.1,230.4c0.3,4.5-0.8,8-1.5,11.5
			c-0.6,3-2.3,5.7-2.1,8.8c0,0.7-0.3,1.5,0.8,1.6c0.7,0.1,1.1-0.5,1.2-1.1c1.3-5.2,3.9-10.2,4-15.7
			C177.4,233.9,177.3,232.4,175.1,230.4z"/>
		<path class="st0" d="M483.1,267.9c0.6-4.8-0.1-10.4-1.6-16c-0.7-2.5-0.2-5.3,1.3-7.7c3.5-5.7,6.9-11.5,9.6-17.6
			c1.5-3.3,4.8-4.7,8-5c7.6-0.6,15.2-0.1,22.7,1.4c6.9,1.3,12,5.5,15.8,11.6c2.3,3.8,5.5,7,7,11.3c1.1,3.1,1.7,6.2,0.8,9.2
			c-1.4,4.5-1.6,9-1.4,13.6c0.3,7.3-2.9,13.1-7,18.6c-0.8,1.1-1.8,1.9-3.1,2.3c-6.6,2.3-12.8,5.6-19.1,8.6
			c-4.9,2.3-10.3,1.4-14.9-0.9c-8-4-13.9-10.4-17.3-18.7C482.8,275.7,483.4,272.1,483.1,267.9z M509.5,253c-0.2,0.2-0.5,0.5-0.7,0.7
			c-3.6,3.5-2.1,13.3,2.4,15.4c2.3,1.1,6.4-0.3,6.2-2.4c-0.3-3.5,1.3-5.9,3.2-8.5c2.4-3.2,0.5-7.4-3.5-7.8
			C514.2,250,511.4,250.4,509.5,253z M534.2,233.7c-3.3-5.9-8.6-8.2-14.8-8.9c-0.7-0.1-1.9-0.4-1.9,0.9c0,0.7,0.7,1.1,1.5,1.2
			c4.9,1,9.6,2.6,13,6.6C532.6,234.2,533.3,234.1,534.2,233.7z M518.9,271.8c-4.4-0.8-9.2,1.3-12.5-2.9c-0.4-0.5-1.1-0.4-1.5,0.2
			c-0.3,0.5-0.2,1.1,0.2,1.6C506.7,273.8,515.8,274.7,518.9,271.8z"/>
		<path class="st0" d="M141,241.3c1,5.7-1.2,11.4-3,17c-0.8,2.5-0.8,5.1-0.2,7.6c1.5,6.3,3.1,12.6,3.2,19.2
			c0.1,6-5.2,12.4-10.8,14.1c-5.6,1.8-9.7-1.3-9.4-6.8c0.4-7.8-2.5-14.3-5.1-21.1c-0.9-2.5-0.6-4.9-0.3-7.5
			c1.2-8.1,3.6-16.2,1.1-24.7c-1-3.4,0.2-7.1,2.7-10.1c2.3-2.8,5.2-4.8,8.4-6.4c5.4-2.7,11.5,1.1,12.6,7.7
			C141,233.9,141.2,237.4,141,241.3z M137.6,235.4c0-1.2,0.1-2.2,0-3.1c-0.7-4.4-3.4-8.2-8-6.2c-0.9,0.4-2.4,0.3-2.3,1.4
			c0.2,1.3,1.7,1,2.7,1c2.3-0.1,4.8,0.1,4.6,3c-0.4,4.3,1.9,8.2,1.6,12.4c-0.1,1.2,0.3,2.8,1.5,2.8c1.8,0,1.2-1.8,1.5-3
			C139.7,240.6,136.7,238.2,137.6,235.4z"/>
		<path class="st0" d="M127.8,188.8c2.5-0.2,4.9,0.5,7,1.9c3.3,2.1,5.4,5.3,4.7,9.1c-0.8,4.5-4,7.6-8.4,8.9c-3.6,1-6.9,2.3-9.9,4.4
			c-2.9,2-5,0.7-7.1-1.2c-2.2-1.9-4.4-4.3-3-7.2c2.9-5.9,6.5-11.5,12.4-15.1C124.9,188.7,126.3,188.9,127.8,188.8z M121,195.7
			c-0.1-1.1,1.2-1.4,1.5-2.3c0.2-0.3,1-0.5,0.4-1c-0.5-0.4-0.7,0.2-1,0.5C120.7,193.5,120.2,194.3,121,195.7
			c-0.3,0.1-0.4-0.9-0.8-0.2C120.5,195.5,120.7,195.6,121,195.7z M122.9,192.2c1.6,0.6,2.6-0.5,4.6-1.1
			C125.3,190.8,123.8,190.4,122.9,192.2z"/>
	</g>
</g>
</svg>
