<?xml version="1.0" encoding="utf-8"?>
<!-- Generator: Adobe Illustrator 27.3.1, SVG Export Plug-In . SVG Version: 6.00 Build 0)  -->
<svg version="1.1" id="Layer_1" xmlns="http://www.w3.org/2000/svg" xmlns:xlink="http://www.w3.org/1999/xlink" x="0px" y="0px"
	 viewBox="0 0 50 40" style="enable-background:new 0 0 50 40;" xml:space="preserve">
<style type="text/css">
	.st0{opacity:0.6;}
	.st1{fill:none;}
	.st2{fill:#FFFFFF;}
</style>
<g transform="translate(.318 -.074)" class="st0">
	<path class="st1" d="M7.14,1.54h36.07v36.07H7.14V1.54z"/>
	<path class="st2" d="M25.18,4.55c4.08,0,4.59,0.02,6.2,0.09c1.25,0.03,2.48,0.26,3.65,0.7c1,0.38,1.91,0.97,2.66,1.73
		c0.76,0.75,1.36,1.66,1.73,2.66c0.44,1.17,0.67,2.4,0.7,3.65c0.07,1.6,0.09,2.11,0.09,6.2s-0.01,4.59-0.09,6.2
		c-0.03,1.25-0.26,2.48-0.7,3.65c-0.78,2.02-2.38,3.62-4.4,4.4c-1.17,0.44-2.4,0.67-3.65,0.7c-1.6,0.07-2.11,0.09-6.2,0.09
		s-4.59-0.01-6.2-0.09c-1.25-0.03-2.48-0.26-3.65-0.7c-2.02-0.78-3.62-2.38-4.4-4.4c-0.44-1.17-0.67-2.4-0.7-3.65
		c-0.07-1.6-0.09-2.11-0.09-6.2s0.02-4.59,0.09-6.2c0.03-1.25,0.26-2.48,0.7-3.65c0.38-1,0.97-1.91,1.74-2.66
		c0.75-0.76,1.66-1.36,2.66-1.73c1.17-0.44,2.4-0.67,3.65-0.7C20.59,4.57,21.1,4.55,25.18,4.55z M25.18,12.06
		c-4.15,0-7.51,3.36-7.51,7.51s3.36,7.52,7.51,7.52s7.51-3.36,7.51-7.52l0,0C32.69,15.43,29.33,12.06,25.18,12.06z M34.95,11.69
		c0-1.04-0.84-1.88-1.88-1.88s-1.88,0.84-1.88,1.88s0.84,1.88,1.88,1.88l0,0C34.11,13.57,34.95,12.73,34.95,11.69z M25.18,15.07
		c2.49,0,4.51,2.02,4.51,4.51s-2.02,4.51-4.51,4.51s-4.51-2.02-4.51-4.51l0,0C20.67,17.09,22.69,15.07,25.18,15.07
		C25.18,15.07,25.18,15.07,25.18,15.07L25.18,15.07z"/>
</g>
</svg>
