<?xml version="1.0" encoding="utf-8"?>
<!-- Generator: Adobe Illustrator 27.3.1, SVG Export Plug-In . SVG Version: 6.00 Build 0)  -->
<svg version="1.1" id="Layer_1" xmlns="http://www.w3.org/2000/svg" xmlns:xlink="http://www.w3.org/1999/xlink" x="0px" y="0px"
	 viewBox="0 0 50 40" style="enable-background:new 0 0 50 40;" xml:space="preserve">
<style type="text/css">
	.st0{opacity:0.61;fill:#FFFFFF;}
	.st1{opacity:0.6;}
	.st2{fill:none;}
	.st3{fill:#FFFFFF;}
</style>
<path class="st0" d="M118.71,0.99h-15.32c-5.81,0-10.52,4.71-10.52,10.52v15.32c0,5.81,4.71,10.52,10.52,10.52h15.32
	c5.81,0,10.52-4.71,10.52-10.52V11.51C129.23,5.7,124.52,0.99,118.71,0.99z M119.12,27.2h-4.96l-5.98-8.6v8.6h-5.2V11.14h4.96
	l5.98,8.6v-8.59h5.2V27.2z"/>
<g transform="translate(.318 -.074)" class="st1">
	<path class="st2" d="M2.68-1.93h44.01v44.01H2.68V-1.93z"/>
	<path class="st3" d="M24.68,1.74c4.98,0,5.6,0.02,7.56,0.11c1.52,0.03,3.03,0.32,4.45,0.85c1.22,0.46,2.33,1.18,3.25,2.11
		c0.93,0.92,1.65,2.02,2.11,3.25c0.53,1.43,0.82,2.93,0.85,4.45c0.09,1.95,0.11,2.58,0.11,7.56s-0.02,5.6-0.11,7.56
		c-0.03,1.52-0.32,3.03-0.85,4.45c-0.95,2.47-2.9,4.42-5.37,5.37c-1.43,0.53-2.93,0.82-4.45,0.85c-1.95,0.09-2.58,0.11-7.56,0.11
		s-5.6-0.02-7.56-0.11c-1.52-0.03-3.03-0.32-4.45-0.85c-2.47-0.95-4.42-2.9-5.37-5.37c-0.53-1.43-0.82-2.93-0.85-4.45
		c-0.09-1.95-0.11-2.58-0.11-7.56s0.02-5.6,0.11-7.56c0.03-1.52,0.32-3.03,0.85-4.45c0.46-1.23,1.19-2.34,2.13-3.25
		c0.92-0.93,2.03-1.65,3.25-2.11c1.43-0.53,2.93-0.82,4.45-0.85C19.08,1.76,19.7,1.74,24.68,1.74z M24.68,10.91
		c-5.06,0-9.17,4.1-9.17,9.17s4.1,9.17,9.17,9.17s9.17-4.1,9.17-9.17l0,0C33.85,15.01,29.75,10.91,24.68,10.91z M36.6,10.45
		c0-1.27-1.03-2.29-2.29-2.29s-2.29,1.03-2.29,2.29c0,1.27,1.03,2.29,2.29,2.29l0,0C35.57,12.74,36.6,11.71,36.6,10.45z
		 M24.68,14.57c3.04,0,5.5,2.46,5.5,5.5s-2.46,5.5-5.5,5.5s-5.5-2.46-5.5-5.5l0,0C19.18,17.04,21.64,14.57,24.68,14.57
		C24.68,14.57,24.68,14.57,24.68,14.57L24.68,14.57z"/>
</g>
</svg>
