<?xml version="1.0" encoding="utf-8"?>
<!-- Generator: Adobe Illustrator 27.3.1, SVG Export Plug-In . SVG Version: 6.00 Build 0)  -->
<svg version="1.1" id="Layer_1" xmlns="http://www.w3.org/2000/svg" xmlns:xlink="http://www.w3.org/1999/xlink" x="0px" y="0px"
	 viewBox="0 0 40 40" style="enable-background:new 0 0 40 40;" xml:space="preserve">
<style type="text/css">
	.st0{fill:#FFFFFF;}
</style>
<path class="st0" d="M0.4,14.7c0-0.5,0-1.1,0-1.6c0-0.1,0.1-0.3,0.1-0.4c0.4-3.2,1.6-6,4.3-8c2.6-1.9,5.5-2.5,8.6-1.7
	c2.3,0.6,4,2,5.4,3.9c0.4,0.6,0.8,1.2,1.2,1.8c0.5-0.7,1-1.5,1.6-2.2c1.8-2.2,4.1-3.6,7-3.7c4.6-0.3,8.8,2.6,10.3,6.9
	c1.4,4.2,0.8,8.1-1.6,11.7c-1.4,2.1-3,3.9-4.8,5.5c-3.8,3.4-7.6,6.7-11.5,10c-0.7,0.6-1.2,0.6-1.9,0c-3-2.6-6.1-5.2-9.1-7.9
	c-2.3-2-4.5-4.1-6.4-6.6C2.3,20.8,1.3,19,0.8,17C0.6,16.3,0.5,15.5,0.4,14.7z"/>
</svg>
