<?xml version="1.0" encoding="utf-8"?>
<!-- Generator: Adobe Illustrator 27.3.1, SVG Export Plug-In . SVG Version: 6.00 Build 0)  -->
<svg version="1.1" id="Layer_1" xmlns="http://www.w3.org/2000/svg" xmlns:xlink="http://www.w3.org/1999/xlink" x="0px" y="0px"
	 viewBox="0 0 70 70" style="enable-background:new 0 0 70 70;" xml:space="preserve">
<style type="text/css">
	.st0{fill:#2EBBF0;}
</style>
<path class="st0" d="M69.94,20.52c0-2.87-0.57-5.74-1.58-8.47c-1.87-4.74-5.6-8.47-10.19-10.19c-2.73-1-5.6-1.58-8.47-1.58
	C45.97,0.14,44.82,0,35.2,0s-10.76,0-14.5,0.14c-2.87,0-5.74,0.57-8.47,1.58c-2.3,0.86-4.45,2.3-6.17,4.02s-3.16,3.88-4.02,6.17
	c-1,2.73-1.58,5.6-1.58,8.47c-0.43,3.88-0.43,5.02-0.43,14.64s0,10.62,0.29,14.35c0,2.87,0.57,5.74,1.58,8.47
	c1.87,4.74,5.6,8.47,10.19,10.19c2.73,1,5.6,1.58,8.47,1.58c3.88,0.43,5.02,0.43,14.5,0.43s10.76,0,14.5-0.14
	c2.87,0,5.74-0.57,8.47-1.58c4.74-1.87,8.47-5.6,10.19-10.19c1-2.73,1.58-5.6,1.58-8.47c0.14-3.73,0.14-4.88,0.14-14.5
	S70.08,24.26,69.94,20.52z M63.62,49.23c0,2.15-0.43,4.45-1.15,6.46c-1.15,3.01-3.59,5.45-6.6,6.6c-2.15,0.72-4.31,1.15-6.46,1.15
	c-3.73,0.14-4.74,0.14-14.21,0.14s-10.48,0-14.21-0.14c-2.15,0-4.45-0.43-6.46-1.15c-1.58-0.57-2.87-1.44-4.02-2.58
	s-2.01-2.44-2.58-4.02c-0.72-2.15-1.15-4.31-1.15-6.46c-0.14-3.73-0.14-4.74-0.14-14.21s0-10.48,0.14-14.21
	c0-2.15,0.43-4.45,1.15-6.46c0.57-1.58,1.44-2.87,2.58-4.02s2.44-2.01,4.02-2.58c2.15-0.72,4.31-1.15,6.46-1.15
	c3.73-0.14,4.74-0.14,14.21-0.14s10.48,0,14.21,0.14c2.15,0,4.45,0.43,6.46,1.15c1.58,0.57,2.87,1.44,4.02,2.58
	c1.15,1.15,2.01,2.44,2.58,4.02c0.72,2.15,1.15,4.31,1.15,6.46c0.14,3.73,0.14,4.74,0.14,14.21S63.76,45.5,63.62,49.23z"/>
<path class="st0" d="M35.06,16.94c-9.9,0-17.94,8.04-17.94,17.94s8.04,17.94,17.94,17.94S53,44.78,53,34.88l0,0
	C53.14,25.12,45.11,16.94,35.06,16.94z M35.06,46.65c-6.46,0-11.63-5.17-11.63-11.63s5.17-11.63,11.63-11.63s11.63,5.17,11.63,11.63
	C46.83,41.48,41.52,46.65,35.06,46.65z"/>
<path class="st0" d="M58.02,16.22c0,2.3-1.87,4.16-4.16,4.16c-2.3,0-4.16-1.87-4.16-4.16s1.87-4.16,4.16-4.16l0,0
	C56.16,12.06,58.02,13.92,58.02,16.22z"/>
</svg>
