<?xml version="1.0" encoding="utf-8"?>
<!-- Generator: Adobe Illustrator 27.5.0, SVG Export Plug-In . SVG Version: 6.00 Build 0)  -->
<svg version="1.1" id="Layer_1" xmlns="http://www.w3.org/2000/svg" xmlns:xlink="http://www.w3.org/1999/xlink" x="0px" y="0px"
	 viewBox="0 0 400 245" style="enable-background:new 0 0 400 245;" xml:space="preserve">
<style type="text/css">
	.st0{enable-background:new    ;}
	.st1{fill:#F9F6E6;}
</style>
<g class="st0">
	<g>
		<path class="st1" d="M50.1,51H31.7l-2.9,8.7H16.3l17.8-49.1H48l17.8,49.1H53L50.1,51z M47,41.8l-6.1-18l-6,18H47z"/>
	</g>
	<g>
		<path class="st1" d="M126.7,10.5v49.1h-12V30.2l-11,29.5H94L83,30.1v29.5H71V10.5h14.1l13.8,34l13.6-34H126.7z"/>
	</g>
	<g>
		<path class="st1" d="M147.3,20.1V30h16v9.2h-16V50h18.1v9.6h-30.1V10.5h30.1v9.6H147.3z"/>
	</g>
	<g>
		<path class="st1" d="M198.3,59.7l-10.2-18.5h-2.9v18.5h-12V10.5h20.1c3.9,0,7.2,0.7,9.9,2c2.7,1.4,4.8,3.2,6.1,5.6
			c1.4,2.4,2,5,2,7.9c0,3.3-0.9,6.2-2.8,8.8c-1.8,2.6-4.6,4.4-8.2,5.5l11.3,19.5L198.3,59.7L198.3,59.7z M185.2,32.7h7.4
			c2.2,0,3.8-0.5,4.9-1.6c1.1-1.1,1.6-2.6,1.6-4.5s-0.5-3.3-1.6-4.4s-2.7-1.6-4.9-1.6h-7.4V32.7z"/>
	</g>
	<g>
		<path class="st1" d="M230.8,10.5v49.1h-12V10.5H230.8z"/>
	</g>
	<g>
		<path class="st1" d="M240.6,22c2.1-3.8,5-6.8,8.8-8.9s8-3.2,12.8-3.2c5.8,0,10.8,1.5,15,4.6s6.9,7.3,8.3,12.6h-13.2
			c-1-2.1-2.4-3.6-4.2-4.7c-1.8-1.1-3.8-1.6-6.1-1.6c-3.7,0-6.7,1.3-9,3.9s-3.4,6-3.4,10.3s1.1,7.7,3.4,10.3c2.3,2.6,5.3,3.8,9,3.8
			c2.3,0,4.3-0.5,6.1-1.6c1.8-1.1,3.2-2.6,4.2-4.7h13.2c-1.4,5.3-4.2,9.5-8.3,12.6c-4.2,3.1-9.1,4.6-15,4.6c-4.8,0-9-1.1-12.8-3.2
			c-3.8-2.1-6.7-5.1-8.8-8.9s-3.2-8.1-3.2-12.9S238.5,25.8,240.6,22z"/>
	</g>
	<g>
		<path class="st1" d="M323.4,51h-18.3l-2.9,8.7h-12.6l17.8-49.1h13.9l17.8,49.1h-12.7L323.4,51z M320.3,41.8l-6.1-18l-6,18H320.3z"
			/>
	</g>
	<g>
		<path class="st1" d="M388.4,59.7h-12l-20-30.3v30.3h-12V10.5h12l20,30.4V10.5h12V59.7z"/>
	</g>
</g>
<g class="st0">
	<g>
		<path class="st1" d="M126.7,97.6c3.9,2.1,6.9,4.9,9,8.6s3.2,8,3.2,12.8s-1.1,9.1-3.2,12.8c-2.1,3.7-5.1,6.6-9,8.7
			c-3.9,2.1-8.4,3.1-13.5,3.1H94.7V94.5h18.4C118.3,94.5,122.8,95.6,126.7,97.6z M122.9,129.6c2.5-2.5,3.8-6,3.8-10.5
			s-1.3-8-3.8-10.6c-2.5-2.5-6-3.8-10.6-3.8h-5.7v28.6h5.7C116.9,133.3,120.4,132.1,122.9,129.6z"/>
	</g>
	<g>
		<path class="st1" d="M157.6,104.1v9.9h16v9.2h-16V134h18.1v9.6h-30.1V94.5h30.1v9.6H157.6z"/>
	</g>
	<g>
		<path class="st1" d="M191.6,142.4c-2.8-1.2-5.1-2.9-6.8-5.2s-2.6-5-2.7-8.3h12.7c0.2,1.8,0.8,3.2,1.9,4.2c1.1,1,2.5,1.4,4.2,1.4
			c1.8,0,3.2-0.4,4.2-1.2s1.5-1.9,1.5-3.4c0-1.2-0.4-2.2-1.2-3s-1.8-1.4-3-2c-1.2-0.5-2.9-1.1-5.1-1.8c-3.2-1-5.8-2-7.8-2.9
			c-2-1-3.7-2.4-5.2-4.3c-1.4-1.9-2.2-4.4-2.2-7.5c0-4.6,1.7-8.2,5-10.7c3.3-2.6,7.6-3.9,13-3.9s9.8,1.3,13.1,3.9s5.1,6.2,5.3,10.8
			h-13c-0.1-1.6-0.7-2.8-1.8-3.7c-1.1-0.9-2.5-1.4-4.1-1.4c-1.4,0-2.6,0.4-3.5,1.2c-0.9,0.8-1.3,1.9-1.3,3.3c0,1.6,0.7,2.8,2.2,3.7
			c1.5,0.9,3.8,1.8,7,2.9s5.8,2.1,7.7,3.1c2,1,3.7,2.4,5.1,4.3c1.4,1.9,2.2,4.3,2.2,7.2c0,2.8-0.7,5.3-2.1,7.6
			c-1.4,2.3-3.5,4.1-6.2,5.5s-5.9,2-9.6,2C197.7,144.2,194.4,143.6,191.6,142.4z"/>
	</g>
	<g>
		<path class="st1" d="M234.7,142.4c-2.8-1.2-5.1-2.9-6.8-5.2s-2.6-5-2.7-8.3h12.7c0.2,1.8,0.8,3.2,1.9,4.2c1.1,1,2.5,1.4,4.2,1.4
			c1.8,0,3.2-0.4,4.2-1.2s1.5-1.9,1.5-3.4c0-1.2-0.4-2.2-1.2-3s-1.8-1.4-3-2c-1.2-0.5-2.9-1.1-5.1-1.8c-3.2-1-5.8-2-7.8-2.9
			c-2-1-3.7-2.4-5.2-4.3c-1.4-1.9-2.2-4.4-2.2-7.5c0-4.6,1.7-8.2,5-10.7s7.6-3.9,13-3.9s9.8,1.3,13.1,3.9c3.3,2.6,5.1,6.2,5.3,10.8
			h-13c-0.1-1.6-0.7-2.8-1.8-3.7s-2.4-1.4-4.1-1.4c-1.4,0-2.6,0.4-3.5,1.2c-0.9,0.8-1.3,1.9-1.3,3.3c0,1.6,0.7,2.8,2.2,3.7
			c1.5,0.9,3.8,1.8,7,2.9s5.8,2.1,7.7,3.1c2,1,3.7,2.4,5.1,4.3s2.2,4.3,2.2,7.2c0,2.8-0.7,5.3-2.1,7.6s-3.5,4.1-6.2,5.5
			s-5.9,2-9.6,2C240.7,144.2,237.5,143.6,234.7,142.4z"/>
	</g>
	<g>
		<path class="st1" d="M281.6,104.1v9.9h16v9.2h-16V134h18.1v9.6h-30.1V94.5h30.1v9.6H281.6z"/>
	</g>
	<g>
		<path class="st1" d="M332.5,143.7l-10.2-18.5h-2.9v18.5h-12V94.5h20.1c3.9,0,7.2,0.7,9.9,2c2.7,1.4,4.8,3.2,6.1,5.6
			c1.4,2.4,2,5,2,7.9c0,3.3-0.9,6.2-2.8,8.8c-1.8,2.6-4.6,4.4-8.2,5.5l11.3,19.5h-13.3V143.7z M319.4,116.7h7.4
			c2.2,0,3.8-0.5,4.9-1.6s1.6-2.6,1.6-4.5s-0.5-3.3-1.6-4.4s-2.7-1.6-4.9-1.6h-7.4V116.7z"/>
	</g>
	<g>
		<path class="st1" d="M388.4,94.5v9.6h-13v39.5h-12v-39.5h-13v-9.6C350.4,94.5,388.4,94.5,388.4,94.5z"/>
	</g>
</g>
<g class="st0">
	<g>
		<path class="st1" d="M160.6,178.5v49.1h-12v-29.5l-11,29.5h-9.7l-11.1-29.5v29.5h-12v-49.1h14.1l13.8,34l13.6-34H160.6z"/>
	</g>
	<g>
		<path class="st1" d="M199.8,219h-18.3l-2.9,8.7h-12.5l17.8-49.1h13.9l17.8,49.1h-12.7L199.8,219z M196.7,209.8l-6.1-18l-6,18
			H196.7z"/>
	</g>
	<g>
		<path class="st1" d="M245.8,227.7l-10.2-18.5h-2.9v18.5h-12v-49.1h20.1c3.9,0,7.2,0.7,9.9,2c2.7,1.4,4.8,3.2,6.1,5.6
			c1.4,2.4,2,5,2,7.9c0,3.3-0.9,6.2-2.8,8.8c-1.8,2.6-4.6,4.4-8.2,5.5l11.3,19.5h-13.3V227.7z M232.7,200.7h7.4
			c2.2,0,3.8-0.5,4.9-1.6c1.1-1.1,1.6-2.6,1.6-4.5s-0.5-3.3-1.6-4.4c-1.1-1.1-2.7-1.6-4.9-1.6h-7.4V200.7z"/>
	</g>
	<g>
		<path class="st1" d="M294.9,227.7L278.4,206v21.7h-12v-49.1h12v21.6l16.4-21.6h14l-19,24.1l19.7,25.1h-14.6V227.7z"/>
	</g>
	<g>
		<path class="st1" d="M327.2,188.1v9.9h16v9.2h-16V218h18.1v9.6h-30.1v-49.1h30.1v9.6H327.2z"/>
	</g>
	<g>
		<path class="st1" d="M388.4,178.5v9.6h-13v39.5h-12v-39.5h-13v-9.6H388.4z"/>
	</g>
</g>
<g class="st0">
	<g>
		<path class="st1" d="M70.7,65.8H56.9L54,57.1H36.4l-2.9,8.7H19.8l18.1-50.1h14.6L70.7,65.8z M57.6,64.8h11.6L51.8,16.6H38.7
			L21.2,64.8h11.5l2.9-8.7h19.1L57.6,64.8z M52,47.8H38.5l6.7-20.1L52,47.8z M39.8,46.8h10.7l-5.4-15.9L39.8,46.8z"/>
	</g>
	<g>
		<path class="st1" d="M131.5,65.8h-13V38.6l-10.1,27.2H98L87.8,38.5v27.3h-13V15.6h15l13.5,33.2l13.3-33.2h14.9V65.8z M119.5,64.8
			h11V16.6h-13.2l-14,34.9L89.1,16.6H75.8v48.1h11V33l11.9,31.8h9L119.5,33V64.8z"/>
	</g>
	<g>
		<path class="st1" d="M170.2,65.8h-31.1V15.6h31.1v10.6h-18.1v8.9h16v10.2h-16v9.8h18.1V65.8z M140.1,64.8h29.1v-8.6h-18.1V44.4h16
			v-8.2h-16v-11h18.1v-8.6h-29.1V64.8z"/>
	</g>
	<g>
		<path class="st1" d="M216.9,65.8h-14.7L192,47.3h-2.1v18.5h-13V15.6h20.6c3.9,0,7.3,0.7,10.1,2.1s4.9,3.3,6.3,5.8
			c1.4,2.4,2.1,5.2,2.1,8.1c0,3.4-1,6.4-2.9,9c-1.8,2.5-4.4,4.3-7.8,5.5L216.9,65.8z M202.8,64.8h12.3l-11.2-19.3l0.6-0.2
			c3.5-1,6.1-2.8,7.9-5.3c1.8-2.5,2.7-5.3,2.7-8.5c0-2.8-0.7-5.4-2-7.6c-1.3-2.3-3.3-4.1-5.9-5.4c-2.6-1.3-5.9-2-9.7-2h-19.6v48.1
			h11V46.2h3.7L202.8,64.8z M196.9,38.7H189V25.6h7.9c2.3,0,4.1,0.6,5.3,1.8c1.2,1.2,1.8,2.8,1.8,4.8c0,2.1-0.6,3.7-1.8,4.9
			C201,38.2,199.2,38.7,196.9,38.7z M189.9,37.7h6.9c2,0,3.6-0.5,4.6-1.5s1.5-2.4,1.5-4.2c0-1.7-0.5-3.1-1.5-4.1s-2.5-1.5-4.6-1.5
			h-6.9V37.7z"/>
	</g>
	<g>
		<path class="st1" d="M235.6,65.8h-13V15.6h13V65.8z M223.6,64.8h11V16.6h-11V64.8z"/>
	</g>
	<g>
		<path class="st1" d="M266.4,66.1c-4.8,0-9.2-1.1-13-3.2c-3.8-2.2-6.8-5.2-9-9c-2.1-3.8-3.2-8.3-3.2-13.2s1.1-9.4,3.2-13.2l0,0
			c2.1-3.9,5.2-6.9,9-9.1c3.8-2.2,8.2-3.3,13-3.3c5.9,0,11.1,1.6,15.3,4.7c4.2,3.1,7.1,7.5,8.5,12.9l0.2,0.6h-14.1l-0.1-0.3
			c-0.9-2-2.3-3.5-4-4.5s-3.7-1.5-5.9-1.5c-3.5,0-6.4,1.2-8.6,3.7c-2.2,2.5-3.3,5.8-3.3,10s1.1,7.5,3.3,10c2.2,2.4,5.1,3.7,8.6,3.7
			c2.2,0,4.2-0.5,5.9-1.5c1.7-1,3-2.5,4-4.5l0.1-0.3h14.1l-0.2,0.6c-1.4,5.4-4.3,9.7-8.5,12.8C277.5,64.5,272.4,66.1,266.4,66.1z
			 M245.3,27.9c-2,3.7-3.1,8-3.1,12.7s1,9,3.1,12.7c2,3.7,4.9,6.6,8.6,8.7c3.7,2.1,7.9,3.1,12.5,3.1c5.7,0,10.6-1.5,14.7-4.5
			c3.9-2.9,6.6-6.8,8-11.7h-12.2c-1,2-2.4,3.6-4.2,4.6c-1.9,1.1-4,1.7-6.4,1.7c-3.8,0-7-1.4-9.3-4c-2.4-2.6-3.6-6.2-3.6-10.6
			s1.2-8,3.6-10.6c2.4-2.7,5.5-4,9.3-4c2.4,0,4.5,0.6,6.4,1.7c1.8,1.1,3.2,2.6,4.2,4.6h12.2c-1.4-4.9-4.1-8.8-8-11.7
			c-4-3-9-4.5-14.7-4.5c-4.6,0-8.9,1-12.5,3.1S247.4,24.2,245.3,27.9L245.3,27.9z"/>
	</g>
	<g>
		<path class="st1" d="M344,65.8h-13.7l-2.9-8.7h-17.7l-2.9,8.7h-13.6l0.2-0.7l17.9-49.5h14.6L344,65.8z M331,64.8h11.6l-17.4-48.1
			H312l-17.4,48.1h11.5l2.9-8.7h19.1L331,64.8z M325.3,47.8h-13.5l6.7-20.1L325.3,47.8z M313.2,46.8h10.7l-5.4-15.9L313.2,46.8z"/>
	</g>
	<g>
		<path class="st1" d="M393.1,65.8h-12.7l-19.3-29.1v29.1h-13V15.6h12.7l19.3,29.3V15.6h13V65.8z M380.9,64.8h11.2V16.6h-11v31.6
			l-20.8-31.6h-11.2v48.1h11V33.3L380.9,64.8z"/>
	</g>
</g>
<g class="st0">
	<g>
		<path class="st1" d="M117.3,149.8H98.4V99.6h18.9c5.2,0,9.9,1.1,13.8,3.1l0,0c3.9,2.1,7,5.1,9.2,8.8c2.2,3.8,3.3,8.2,3.3,13.1
			s-1.1,9.3-3.3,13.1s-5.3,6.8-9.2,8.9C127.1,148.7,122.5,149.8,117.3,149.8z M99.4,148.8h17.9c5,0,9.5-1,13.3-3s6.8-4.9,8.8-8.5
			c2.1-3.6,3.1-7.9,3.1-12.6c0-4.7-1-9-3.1-12.6s-5-6.5-8.8-8.5l0,0c-3.8-2-8.3-3-13.3-3H99.4V148.8z M116.5,139.4h-6.2v-29.6h6.2
			c4.6,0,8.3,1.3,10.9,3.9s3.9,6.3,3.9,10.9s-1.3,8.3-3.9,10.9S121.2,139.4,116.5,139.4z M111.4,138.4h5.2c4.4,0,7.8-1.2,10.2-3.6
			l0,0c2.4-2.4,3.6-5.8,3.6-10.1c0-4.4-1.2-7.8-3.6-10.2c-2.4-2.4-5.8-3.6-10.2-3.6h-5.2V138.4z"/>
	</g>
	<g>
		<path class="st1" d="M180.4,149.8h-31.1V99.6h31.1v10.6h-18.1v8.9h16v10.2h-16v9.8h18.1V149.8z M150.3,148.8h29.1v-8.6h-18.1
			v-11.8h16v-8.2h-16v-10.9h18.1v-8.6h-29.1V148.8z"/>
	</g>
	<g>
		<path class="st1" d="M205.4,150.3c-3.6,0-7-0.6-9.8-1.8l0,0c-2.9-1.2-5.3-3-7-5.3c-1.8-2.4-2.7-5.2-2.8-8.5v-0.5h13.7v0.4
			c0.2,1.7,0.8,3,1.7,3.8c1,0.9,2.3,1.3,3.9,1.3c1.6,0,3-0.4,3.9-1.1c0.9-0.7,1.4-1.7,1.4-3c0-1.1-0.4-1.9-1.1-2.7
			c-0.8-0.7-1.7-1.4-2.9-1.9s-2.9-1.1-5-1.7c-3.2-1-5.8-2-7.8-3c-2.1-1-3.9-2.5-5.4-4.5s-2.3-4.6-2.3-7.8c0-4.7,1.7-8.5,5.2-11.1
			c3.4-2.6,7.8-4,13.3-4s10,1.3,13.4,4s5.3,6.4,5.5,11.2v0.5h-13.9v-0.5c-0.1-1.5-0.6-2.6-1.6-3.4s-2.3-1.2-3.8-1.2
			c-1.3,0-2.4,0.3-3.2,1s-1.2,1.6-1.2,2.9c0,1.4,0.7,2.5,2,3.3c1.5,0.9,3.8,1.8,6.9,2.8c3.2,1.1,5.8,2.1,7.8,3.1s3.8,2.5,5.3,4.4
			s2.3,4.5,2.3,7.5c0,2.9-0.7,5.5-2.2,7.9s-3.6,4.3-6.4,5.6C212.5,149.6,209.2,150.3,205.4,150.3z M186.8,135.1
			c0.2,2.9,1,5.4,2.6,7.5c1.6,2.2,3.9,3.9,6.6,5l0,0c2.8,1.1,6,1.7,9.5,1.7c3.6,0,6.7-0.7,9.4-2c2.6-1.3,4.6-3.1,6-5.3
			s2.1-4.7,2.1-7.4c0-2.8-0.7-5.1-2.1-6.9c-1.4-1.8-3.1-3.2-5-4.1c-2-1-4.5-2-7.7-3.1c-3.2-1-5.6-2-7.1-2.9c-1.6-1-2.5-2.4-2.5-4.1
			c0-1.6,0.5-2.8,1.5-3.7c1-0.8,2.3-1.3,3.8-1.3c1.8,0,3.3,0.5,4.5,1.5c1.1,0.9,1.7,2.1,1.9,3.6h12c-0.3-4.2-2-7.5-5.1-9.9
			c-3.2-2.5-7.5-3.8-12.8-3.8c-5.2,0-9.4,1.3-12.6,3.8c-3.2,2.5-4.8,6-4.8,10.4c0,3,0.7,5.4,2.1,7.2c1.4,1.8,3.1,3.3,5,4.2
			c2,1,4.6,1.9,7.7,2.9c2.2,0.7,3.9,1.3,5.1,1.8c1.2,0.5,2.3,1.2,3.2,2.1c0.9,0.9,1.4,2,1.4,3.4c0,1.6-0.6,2.9-1.7,3.8
			c-1.1,0.9-2.6,1.3-4.5,1.3c-1.8,0-3.4-0.5-4.5-1.6c-1.1-1-1.7-2.3-2-4L186.8,135.1L186.8,135.1z"/>
	</g>
	<g>
		<path class="st1" d="M248.5,150.3c-3.6,0-7-0.6-9.8-1.8c-2.9-1.2-5.3-3-7-5.3c-1.8-2.4-2.7-5.2-2.8-8.5v-0.5h13.7v0.4
			c0.2,1.7,0.8,3,1.7,3.8c1,0.9,2.3,1.3,3.9,1.3c1.6,0,3-0.4,3.9-1.1c0.9-0.7,1.4-1.7,1.4-3c0-1.1-0.4-1.9-1.1-2.7
			c-0.8-0.7-1.7-1.4-2.9-1.9s-2.8-1.1-5-1.7c-3.2-1-5.8-2-7.8-3c-2.1-1-3.9-2.5-5.4-4.5s-2.3-4.6-2.3-7.8c0-4.7,1.7-8.5,5.2-11.1
			c3.4-2.6,7.8-4,13.3-4s10,1.3,13.4,4s5.3,6.4,5.5,11.2v0.5h-13.9v-0.5c-0.1-1.5-0.6-2.6-1.6-3.4s-2.3-1.2-3.8-1.2
			c-1.3,0-2.4,0.3-3.2,1s-1.2,1.6-1.2,2.9c0,1.4,0.7,2.5,2,3.3c1.5,0.9,3.8,1.8,6.9,2.8c3.2,1.1,5.8,2.1,7.8,3.1s3.8,2.5,5.3,4.4
			c1.5,2,2.3,4.5,2.3,7.5c0,2.9-0.7,5.5-2.2,7.9s-3.6,4.3-6.4,5.6C255.5,149.6,252.2,150.3,248.5,150.3z M229.8,135.1
			c0.2,2.9,1,5.4,2.6,7.5c1.6,2.2,3.9,3.9,6.6,5l0,0c2.8,1.1,6,1.7,9.5,1.7c3.6,0,6.7-0.7,9.4-2c2.6-1.3,4.6-3.1,6-5.3
			s2.1-4.7,2.1-7.4c0-2.8-0.7-5.1-2.1-6.9c-1.4-1.8-3.1-3.2-5-4.1c-2-1-4.5-2-7.7-3.1c-3.2-1-5.6-2-7.1-2.9c-1.6-1-2.5-2.4-2.5-4.1
			c0-1.6,0.5-2.8,1.5-3.7c1-0.8,2.3-1.3,3.8-1.3c1.8,0,3.3,0.5,4.5,1.5c1.1,0.9,1.7,2.1,1.9,3.6h12c-0.3-4.2-2-7.5-5.1-9.9
			c-3.2-2.5-7.5-3.8-12.8-3.8c-5.2,0-9.4,1.3-12.6,3.8c-3.2,2.5-4.8,6-4.8,10.4c0,3,0.7,5.4,2.1,7.2c1.4,1.8,3.1,3.3,5,4.2
			c2,1,4.6,1.9,7.7,2.9c2.2,0.7,3.9,1.3,5.1,1.8c1.2,0.5,2.3,1.2,3.2,2.1c0.9,0.9,1.4,2,1.4,3.4c0,1.6-0.6,2.9-1.7,3.8
			c-1.1,0.9-2.6,1.3-4.5,1.3c-1.8,0-3.4-0.5-4.5-1.6c-1.1-1-1.7-2.3-2-4L229.8,135.1L229.8,135.1z"/>
	</g>
	<g>
		<path class="st1" d="M304.3,149.8h-31.1V99.6h31.1v10.6h-18.1v8.9h16v10.2h-16v9.8h18.1V149.8z M274.2,148.8h29.1v-8.6h-18.1
			v-11.8h16v-8.2h-16v-10.9h18.1v-8.6h-29.1V148.8z"/>
	</g>
	<g>
		<path class="st1" d="M351.1,149.8h-14.7l-10.2-18.5h-2.1v18.5h-13V99.6h20.6c3.9,0,7.3,0.7,10.1,2.1c2.8,1.4,4.9,3.3,6.3,5.8
			c1.4,2.4,2.1,5.2,2.1,8.1c0,3.4-1,6.4-2.9,9c-1.8,2.5-4.4,4.3-7.8,5.5L351.1,149.8z M337,148.8h12.3l-11.2-19.3l0.6-0.2
			c3.5-1,6.1-2.8,7.9-5.3s2.7-5.3,2.7-8.5c0-2.8-0.7-5.4-2-7.6c-1.3-2.3-3.3-4.1-5.9-5.4s-5.9-2-9.7-2h-19.6v48.1h11v-18.5h3.7
			L337,148.8z M331,122.7h-7.9v-13.2h7.9c2.3,0,4.1,0.6,5.3,1.8c1.2,1.2,1.8,2.8,1.8,4.8c0,2.1-0.6,3.7-1.8,4.9
			C335.1,122.2,333.3,122.7,331,122.7z M324.1,121.7h6.9c2,0,3.6-0.5,4.6-1.5s1.5-2.4,1.5-4.2c0-1.7-0.5-3.1-1.5-4.1
			s-2.5-1.5-4.6-1.5h-6.9V121.7z"/>
	</g>
	<g>
		<path class="st1" d="M380.1,149.8h-13v-39.6h-13V99.6h39v10.6h-13V149.8z M368.1,148.8h11v-39.6h13v-8.6h-37v8.6h13V148.8z"/>
	</g>
</g>
<g class="st0">
	<g>
		<path class="st1" d="M165.3,233.8h-13v-27.2l-10.1,27.2h-10.3l-10.2-27.3v27.3h-13v-50.1h15l13.5,33.2l13.3-33.2h14.9v50.1H165.3z
			 M153.3,232.8h11v-48.1h-13.2l-14,34.9L123,184.7h-13.3v48.1h11V201l11.9,31.8h9l11.8-31.7v31.7H153.3z"/>
	</g>
	<g>
		<path class="st1" d="M220.3,233.8h-13.7l-2.9-8.7h-17.6l-2.9,8.7h-13.6l18.1-50.1h14.6L220.3,233.8z M207.3,232.8h11.6l-17.4-48.1
			h-13.2l-17.4,48.1h11.5l2.9-8.7h19.1L207.3,232.8z M201.6,215.8h-13.5l6.7-20.1L201.6,215.8z M189.5,214.8h10.7l-5.4-15.9
			L189.5,214.8z"/>
	</g>
	<g>
		<path class="st1" d="M264.5,233.8h-14.7l-10.2-18.5h-2.1v18.5h-13v-50.1h20.6c3.9,0,7.3,0.7,10.1,2.1c2.8,1.4,4.9,3.3,6.3,5.8
			c1.4,2.4,2.1,5.2,2.1,8.1c0,3.4-1,6.4-2.9,9c-1.8,2.5-4.4,4.3-7.8,5.5L264.5,233.8z M250.4,232.8h12.3l-11.2-19.3l0.6-0.2
			c3.5-1,6.1-2.8,7.9-5.3s2.7-5.3,2.7-8.5c0-2.8-0.7-5.4-2-7.6c-1.3-2.3-3.3-4.1-5.9-5.4c-2.6-1.3-5.9-2-9.7-2h-19.6v48.1h11v-18.5
			h3.7L250.4,232.8z M244.4,206.7h-7.9v-13.2h7.9c2.3,0,4.1,0.6,5.3,1.8s1.8,2.8,1.8,4.8c0,2.1-0.6,3.7-1.8,4.9
			S246.7,206.7,244.4,206.7z M237.5,205.7h6.9c2,0,3.6-0.5,4.6-1.5s1.5-2.4,1.5-4.2c0-1.7-0.5-3.1-1.5-4.1s-2.5-1.5-4.6-1.5h-6.9
			V205.7z"/>
	</g>
	<g>
		<path class="st1" d="M314.8,233.8h-15.9l-0.1-0.2L283.1,213v20.7h-13v-50.1h13v20.6l15.6-20.6h15.4l-19.4,24.6L314.8,233.8z
			 M299.4,232.8h13.4l-19.3-24.6l18.6-23.6h-12.8l-17.1,22.5v-22.5h-11v48.1h11V210L299.4,232.8z"/>
	</g>
	<g>
		<path class="st1" d="M350,233.8h-31.1v-50.1H350v10.6h-18.1v8.9h16v10.2h-16v9.8H350V233.8z M319.9,232.8H349v-8.6h-18.1v-11.8h16
			v-8.2h-16v-10.9H349v-8.6h-29.1V232.8z"/>
	</g>
	<g>
		<path class="st1" d="M380.1,233.8h-13v-39.5h-13v-10.6h39v10.6h-13V233.8z M368.2,232.8h11v-39.5h13v-8.6h-37v8.6h13V232.8z"/>
	</g>
</g>
</svg>
