<?xml version="1.0" encoding="utf-8"?>
<!-- Generator: Adobe Illustrator 27.5.0, SVG Export Plug-In . SVG Version: 6.00 Build 0)  -->
<svg version="1.1" id="Layer_1" xmlns="http://www.w3.org/2000/svg" xmlns:xlink="http://www.w3.org/1999/xlink" x="0px" y="0px"
	 viewBox="0 0 400 245" style="enable-background:new 0 0 400 245;" xml:space="preserve">
<style type="text/css">
	.st0{enable-background:new    ;}
	.st1{fill:#F9F6E6;}
</style>
<g class="st0">
	<g>
		<path class="st1" d="M233.2,41.8c1.7,2.2,2.6,4.7,2.6,7.6c0,4.1-1.4,7.4-4.3,9.8c-2.9,2.4-6.9,3.6-12,3.6h-22.9V13.6h22.1
			c5,0,8.9,1.1,11.7,3.4s4.2,5.4,4.2,9.3c0,2.9-0.8,5.3-2.3,7.2s-3.5,3.2-6.1,4C229.2,38.1,231.5,39.5,233.2,41.8z M208.6,33.5h7.8
			c2,0,3.5-0.4,4.5-1.3s1.6-2.1,1.6-3.8s-0.5-3-1.6-3.8c-1-0.9-2.6-1.3-4.5-1.3h-7.8V33.5z M222,51.7c1.1-0.9,1.6-2.2,1.6-4
			c0-1.7-0.6-3.1-1.7-4.1c-1.1-1-2.7-1.5-4.7-1.5h-8.7v10.8h8.8C219.4,53.1,220.9,52.6,222,51.7z"/>
	</g>
	<g>
		<path class="st1" d="M273.3,54H255l-2.9,8.7h-12.5l17.8-49.1h13.9l17.8,49.1h-12.7L273.3,54z M270.2,44.8l-6.1-18l-6,18H270.2z"/>
	</g>
	<g>
		<path class="st1" d="M302.4,61.5c-2.8-1.2-5.1-2.9-6.8-5.2c-1.7-2.3-2.6-5-2.7-8.3h12.7c0.2,1.8,0.8,3.2,1.9,4.2s2.5,1.4,4.2,1.4
			c1.8,0,3.2-0.4,4.2-1.2s1.5-1.9,1.5-3.4c0-1.2-0.4-2.2-1.2-3c-0.8-0.8-1.8-1.4-3-2c-1.2-0.5-2.9-1.1-5.1-1.8c-3.2-1-5.8-2-7.8-2.9
			c-2-1-3.7-2.4-5.2-4.3c-1.4-1.9-2.2-4.4-2.2-7.5c0-4.6,1.7-8.2,5-10.7s7.6-3.9,13-3.9s9.8,1.3,13.1,3.9s5.1,6.2,5.3,10.8h-13
			c-0.1-1.6-0.7-2.8-1.8-3.7c-1.1-0.9-2.5-1.4-4.1-1.4c-1.4,0-2.6,0.4-3.5,1.2c-0.9,0.8-1.3,1.9-1.3,3.3c0,1.6,0.7,2.8,2.2,3.7
			c1.5,0.9,3.8,1.8,7,2.9s5.8,2.1,7.7,3.1c2,1,3.7,2.4,5.1,4.3c1.4,1.9,2.2,4.3,2.2,7.2c0,2.8-0.7,5.3-2.1,7.6s-3.5,4.1-6.2,5.5
			s-5.9,2-9.6,2C308.5,63.2,305.3,62.6,302.4,61.5z"/>
	</g>
	<g>
		<path class="st1" d="M349.3,13.6v49.1h-12V13.6H349.3z"/>
	</g>
	<g>
		<path class="st1" d="M370,53.5h15.7v9.2H358V13.6h12V53.5z"/>
	</g>
</g>
<g class="st0">
	<g>
		<path class="st1" d="M121.1,97.6v9.6h-13v39.5h-12v-39.5h-13v-9.6H121.1z"/>
	</g>
	<g>
		<path class="st1" d="M137.7,144c-3.9-2.1-6.9-5.1-9.2-9c-2.3-3.9-3.4-8.2-3.4-13s1.1-9.1,3.4-13c2.3-3.8,5.3-6.8,9.2-9
			c3.8-2.1,8.1-3.2,12.7-3.2s8.9,1.1,12.7,3.2s6.9,5.1,9.1,9c2.2,3.8,3.3,8.1,3.3,13c0,4.8-1.1,9.1-3.4,13c-2.2,3.8-5.3,6.8-9.1,9
			c-3.8,2.1-8,3.2-12.7,3.2S141.5,146.1,137.7,144z M159.8,132.4c2.4-2.6,3.5-6.1,3.5-10.4s-1.2-7.8-3.5-10.4
			c-2.4-2.6-5.5-3.9-9.4-3.9c-4,0-7.1,1.3-9.5,3.9s-3.5,6-3.5,10.4c0,4.3,1.2,7.8,3.5,10.4c2.4,2.6,5.5,3.9,9.5,3.9
			C154.3,136.3,157.4,135,159.8,132.4z"/>
	</g>
	<g>
		<path class="st1" d="M237.8,97.6v49.1h-12v-29.5l-11,29.5h-9.7L194,117.2v29.5h-12V97.6h14.1l13.8,34l13.7-34
			C223.6,97.6,237.8,97.6,237.8,97.6z"/>
	</g>
	<g>
		<path class="st1" d="M277,138h-18.3l-2.9,8.7h-12.5L261,97.6h13.9l17.8,49.1H280L277,138z M273.9,128.8l-6.1-18l-6,18H273.9z"/>
	</g>
	<g>
		<path class="st1" d="M333.4,97.6v9.6h-13v39.5h-12v-39.5h-13v-9.6H333.4z"/>
	</g>
	<g>
		<path class="st1" d="M349.9,144c-3.8-2.1-6.9-5.1-9.2-9c-2.3-3.9-3.4-8.2-3.4-13s1.1-9.1,3.4-13c2.3-3.8,5.3-6.8,9.2-9
			c3.9-2.1,8.1-3.2,12.7-3.2s8.9,1.1,12.7,3.2c3.8,2.1,6.9,5.1,9.1,9c2.2,3.8,3.3,8.1,3.3,13c0,4.8-1.1,9.1-3.4,13
			c-2.2,3.8-5.3,6.8-9.1,9c-3.8,2.1-8,3.2-12.7,3.2S353.8,146.1,349.9,144z M372,132.4c2.4-2.6,3.5-6.1,3.5-10.4s-1.2-7.8-3.5-10.4
			c-2.4-2.6-5.5-3.9-9.4-3.9c-4,0-7.1,1.3-9.5,3.9s-3.5,6-3.5,10.4c0,4.3,1.2,7.8,3.5,10.4c2.4,2.6,5.5,3.9,9.5,3.9
			C366.5,136.3,369.7,135,372,132.4z"/>
	</g>
</g>
<g class="st0">
	<g>
		<path class="st1" d="M325.7,205.2c-1.3,2.4-3.3,4.3-6,5.7s-6.1,2.2-10.1,2.2h-7.4v17.6h-12v-49.1h19.4c3.9,0,7.2,0.7,9.9,2
			c2.7,1.4,4.7,3.2,6.1,5.6c1.4,2.4,2,5.1,2,8.2C327.7,200.3,327.1,202.9,325.7,205.2z M313.8,202c1.1-1.1,1.7-2.6,1.7-4.6
			s-0.6-3.5-1.7-4.5c-1.1-1.1-2.8-1.6-5.1-1.6h-6.5v12.3h6.5C311,203.6,312.7,203,313.8,202z"/>
	</g>
	<g>
		<path class="st1" d="M345.9,181.6v49.1h-12v-49.1H345.9z"/>
	</g>
	<g>
		<path class="st1" d="M366.6,191.2v9.9h16v9.2h-16v10.8h18.1v9.6h-30.1v-49.1h30.1v9.6L366.6,191.2L366.6,191.2z"/>
	</g>
</g>
<g class="st0">
	<g>
		<path class="st1" d="M224.9,67.5h-23.4V17.3h22.6c5.1,0,9.1,1.2,12,3.5c2.9,2.4,4.4,5.6,4.4,9.7c0,3-0.8,5.5-2.4,7.5
			c-1.3,1.6-2.9,2.8-4.8,3.6c2.3,0.8,4.1,2.1,5.6,4l0,0c1.8,2.3,2.7,5,2.7,7.9c0,4.2-1.5,7.7-4.5,10.1
			C234.2,66.2,230.1,67.5,224.9,67.5z M202.5,66.5h22.4c5,0,8.9-1.2,11.7-3.5c2.7-2.3,4.1-5.4,4.1-9.4c0-2.7-0.8-5.2-2.5-7.3
			c-1.6-2.1-3.9-3.5-6.6-4.1l-1.9-0.4l1.9-0.6c2.4-0.7,4.4-2,5.8-3.8c1.4-1.8,2.2-4.1,2.2-6.9c0-3.7-1.4-6.7-4-8.9
			c-2.7-2.2-6.6-3.3-11.4-3.3h-21.6L202.5,66.5L202.5,66.5z M222.8,57.8h-9.3V45.9h9.2c2.1,0,3.8,0.5,5,1.6c1.3,1.1,1.9,2.6,1.9,4.4
			c0,1.9-0.6,3.3-1.8,4.3C226.5,57.3,224.9,57.8,222.8,57.8z M214.4,56.8h8.3c1.9,0,3.3-0.4,4.3-1.3l0,0c1-0.8,1.5-2,1.5-3.6
			s-0.5-2.8-1.5-3.7s-2.5-1.3-4.4-1.3h-8.2L214.4,56.8L214.4,56.8z M221.8,38.2h-8.3V26.9h8.3c2.1,0,3.7,0.5,4.8,1.4
			c1.2,1,1.8,2.4,1.8,4.2c0,1.8-0.6,3.2-1.8,4.2C225.5,37.7,223.8,38.2,221.8,38.2z M214.4,37.2h7.3c1.8,0,3.2-0.4,4.2-1.2
			c0.9-0.8,1.4-1.9,1.4-3.4s-0.5-2.7-1.4-3.5c-1-0.8-2.4-1.2-4.2-1.2h-7.3V37.2z"/>
	</g>
	<g>
		<path class="st1" d="M295,67.5h-13.7l-2.9-8.7h-17.6l-2.9,8.7h-13.6l0.2-0.7l17.9-49.5H277L295,67.5z M282,66.5h11.6l-17.4-48.1
			H263l-17.4,48.1H257l2.9-8.7H279L282,66.5z M276.3,49.5h-13.5l6.7-20.1L276.3,49.5z M264.2,48.5h10.7l-5.4-15.9L264.2,48.5z"/>
	</g>
	<g>
		<path class="st1" d="M317.5,67.9c-3.6,0-7-0.6-9.8-1.8l0,0c-2.9-1.2-5.3-3-7-5.3c-1.8-2.4-2.7-5.2-2.8-8.5v-0.5h13.7v0.4
			c0.2,1.7,0.8,3,1.7,3.8c1,0.9,2.3,1.3,3.9,1.3s3-0.4,3.9-1.1c0.9-0.7,1.4-1.7,1.4-3c0-1.1-0.4-1.9-1.1-2.7
			c-0.8-0.7-1.7-1.4-2.9-1.9c-1.2-0.5-2.9-1.1-5-1.7c-3.2-1-5.8-2-7.8-3c-2.1-1-3.9-2.5-5.4-4.5s-2.3-4.6-2.3-7.8
			c0-4.7,1.7-8.5,5.2-11.1c3.4-2.6,7.8-4,13.3-4s10,1.3,13.4,4s5.3,6.4,5.5,11.2v0.5h-13.9v-0.5c-0.1-1.5-0.6-2.6-1.6-3.4
			s-2.3-1.2-3.8-1.2c-1.3,0-2.4,0.3-3.2,1c-0.8,0.7-1.2,1.6-1.2,2.9c0,1.4,0.7,2.5,2,3.3c1.5,0.9,3.8,1.8,6.9,2.8
			c3.2,1.1,5.8,2.1,7.8,3.1s3.8,2.5,5.3,4.4s2.3,4.5,2.3,7.5c0,2.9-0.7,5.5-2.2,7.9s-3.6,4.3-6.4,5.6
			C324.5,67.2,321.2,67.9,317.5,67.9z M298.8,52.8c0.2,2.9,1,5.4,2.6,7.5c1.6,2.2,3.9,3.9,6.6,5l0,0c2.8,1.1,6,1.7,9.5,1.7
			c3.6,0,6.7-0.7,9.4-2c2.6-1.3,4.6-3.1,6-5.3s2.1-4.7,2.1-7.4c0-2.8-0.7-5.1-2.1-6.9c-1.4-1.8-3.1-3.2-5-4.1c-2-1-4.5-2-7.7-3.1
			c-3.2-1-5.6-2-7.1-2.9c-1.6-1-2.5-2.4-2.5-4.1c0-1.6,0.5-2.8,1.5-3.7c1-0.8,2.3-1.3,3.8-1.3c1.8,0,3.3,0.5,4.5,1.5
			c1.1,0.9,1.7,2.1,1.9,3.6h12c-0.3-4.2-2-7.5-5.1-9.9c-3.2-2.5-7.5-3.8-12.8-3.8c-5.2,0-9.4,1.3-12.6,3.8s-4.8,6-4.8,10.4
			c0,3,0.7,5.4,2.1,7.2s3.1,3.3,5,4.2c2,1,4.6,1.9,7.7,2.9c2.2,0.7,3.9,1.3,5.1,1.8s2.3,1.2,3.2,2.1c0.9,0.9,1.4,2,1.4,3.4
			c0,1.6-0.6,2.9-1.7,3.8c-1.1,0.9-2.6,1.3-4.5,1.3c-1.8,0-3.4-0.5-4.5-1.6c-1.1-1-1.7-2.3-2-4h-12V52.8z"/>
	</g>
	<g>
		<path class="st1" d="M355.2,67.5h-13V17.3h13V67.5z M343.2,66.5h11V18.3h-11V66.5z"/>
	</g>
	<g>
		<path class="st1" d="M391.5,67.5h-28.7V17.3h13v39.9h15.7V67.5z M363.9,66.5h26.7v-8.2h-15.7v-40h-11V66.5z"/>
	</g>
</g>
<g class="st0">
	<g>
		<path class="st1" d="M113.9,151.5h-13v-39.6h-13v-10.6h39v10.6h-13V151.5z M101.9,150.5h11v-39.6h13v-8.6h-37v8.6h13V150.5z"/>
	</g>
	<g>
		<path class="st1" d="M155.7,151.9c-4.7,0-9-1.1-12.9-3.3l0,0c-3.9-2.2-7.1-5.3-9.4-9.2c-2.3-3.9-3.5-8.4-3.5-13.2
			c0-4.9,1.2-9.3,3.5-13.2c2.3-3.9,5.4-7,9.4-9.1c3.9-2.2,8.3-3.3,12.9-3.3s9,1.1,12.9,3.3c3.9,2.2,7,5.3,9.3,9.1
			c2.3,3.9,3.4,8.3,3.4,13.2s-1.2,9.3-3.4,13.2c-2.3,3.9-5.4,7-9.3,9.2C164.7,150.8,160.3,151.9,155.7,151.9z M155.7,101.6
			c-4.5,0-8.7,1.1-12.5,3.2s-6.8,5-9,8.8c-2.2,3.7-3.3,8-3.3,12.7c0,4.7,1.1,9,3.3,12.7c2.2,3.8,5.2,6.7,9,8.8l0,0
			c3.8,2.1,7.9,3.2,12.5,3.2c4.5,0,8.7-1.1,12.4-3.2c3.7-2.1,6.7-5.1,8.9-8.8c2.2-3.8,3.3-8,3.3-12.7s-1.1-9-3.3-12.7
			s-5.2-6.7-8.9-8.8S160.2,101.6,155.7,101.6z M155.7,141c-4.1,0-7.4-1.4-9.9-4c-2.4-2.7-3.7-6.3-3.7-10.7c0-4.5,1.2-8.1,3.7-10.8
			c2.4-2.7,5.8-4,9.9-4c4,0,7.3,1.4,9.8,4c2.4,2.7,3.7,6.3,3.7,10.7s-1.2,8-3.7,10.7l0,0C163,139.7,159.7,141,155.7,141z
			 M155.7,112.5c-3.8,0-6.9,1.2-9.1,3.7c-2.3,2.5-3.4,5.9-3.4,10.1c0,4.2,1.1,7.6,3.4,10.1c2.2,2.5,5.3,3.7,9.1,3.7s6.8-1.3,9-3.8
			c2.3-2.5,3.4-5.9,3.4-10c0-4.2-1.1-7.6-3.4-10.1C162.4,113.7,159.4,112.5,155.7,112.5z"/>
	</g>
	<g>
		<path class="st1" d="M243.6,151.5h-13v-27.2l-10.1,27.2h-10.4l-10.2-27.3v27.3h-13v-50.1h15l13.5,33.2l13.3-33.2h14.9V151.5z
			 M231.6,150.5h11v-48.1h-13.2l-14,34.9l-14.1-34.9h-13.4v48.1h11v-31.8l11.9,31.8h9l11.8-31.7V150.5z"/>
	</g>
	<g>
		<path class="st1" d="M298.6,151.5h-13.7l-2.9-8.7h-17.6l-2.9,8.7h-13.6l0.2-0.7l17.9-49.5h14.6L298.6,151.5z M285.6,150.5h11.6
			l-17.4-48.1h-13.2l-17.4,48.1h11.5l2.9-8.7h19.1L285.6,150.5z M279.9,133.5h-13.5l6.7-20.1L279.9,133.5z M267.8,132.5h10.7
			l-5.4-15.9L267.8,132.5z"/>
	</g>
	<g>
		<path class="st1" d="M326.1,151.5h-13v-39.6h-13v-10.6h39v10.6h-13V151.5z M314.1,150.5h11v-39.6h13v-8.6h-37v8.6h13V150.5z"/>
	</g>
	<g>
		<path class="st1" d="M367.9,151.9c-4.7,0-9-1.1-12.9-3.3s-7.1-5.3-9.4-9.2s-3.5-8.4-3.5-13.2c0-4.9,1.2-9.3,3.5-13.2
			c2.3-3.9,5.4-7,9.4-9.1c3.9-2.2,8.3-3.3,12.9-3.3c4.7,0,9,1.1,12.9,3.3c3.9,2.2,7,5.3,9.3,9.1c2.3,3.9,3.4,8.3,3.4,13.2
			s-1.2,9.3-3.4,13.2c-2.3,3.9-5.4,7-9.3,9.2C376.9,150.8,372.6,151.9,367.9,151.9z M367.9,101.6c-4.5,0-8.7,1.1-12.5,3.2
			s-6.8,5-9,8.8c-2.2,3.7-3.3,8-3.3,12.7c0,4.7,1.1,9,3.3,12.7c2.2,3.8,5.2,6.7,9,8.8l0,0c3.8,2.1,8,3.2,12.5,3.2s8.7-1.1,12.4-3.2
			c3.7-2.1,6.7-5.1,8.9-8.8s3.3-8,3.3-12.7s-1.1-9-3.3-12.7c-2.2-3.7-5.2-6.7-8.9-8.8S372.4,101.6,367.9,101.6z M367.9,141
			c-4.1,0-7.4-1.4-9.9-4c-2.4-2.7-3.7-6.3-3.7-10.7c0-4.5,1.2-8.1,3.7-10.8c2.4-2.7,5.8-4,9.9-4c4,0,7.3,1.4,9.8,4
			c2.4,2.7,3.7,6.3,3.7,10.7s-1.2,8-3.7,10.7C375.2,139.7,371.9,141,367.9,141z M367.9,112.5c-3.8,0-6.9,1.2-9.1,3.7
			c-2.3,2.5-3.4,5.9-3.4,10.1c0,4.2,1.1,7.6,3.4,10.1c2.2,2.5,5.3,3.7,9.1,3.7c3.8,0,6.8-1.3,9-3.8c2.3-2.5,3.4-5.9,3.4-10
			c0-4.2-1.1-7.6-3.4-10.1C374.7,113.7,371.6,112.5,367.9,112.5z"/>
	</g>
</g>
<g class="st0">
	<g>
		<path class="st1" d="M308,235.5h-13v-50.1h19.9c4,0,7.4,0.7,10.2,2.1c2.8,1.4,4.9,3.3,6.3,5.8c1.4,2.4,2.1,5.3,2.1,8.4
			c0,2.9-0.7,5.6-2,8l0,0c-1.3,2.4-3.4,4.4-6.2,5.9c-2.8,1.5-6.2,2.2-10.3,2.2h-6.9v17.7H308z M296,234.5h11v-17.6h7.9
			c3.9,0,7.2-0.7,9.8-2.1c2.6-1.4,4.6-3.2,5.8-5.5l0,0c1.3-2.3,1.9-4.8,1.9-7.6c0-3-0.7-5.6-2-7.9c-1.3-2.3-3.3-4.1-5.9-5.4
			c-2.6-1.3-5.9-2-9.7-2h-18.9v48.1H296z M314,208.3h-7V195h7c2.4,0,4.2,0.6,5.5,1.7c1.2,1.2,1.8,2.8,1.8,4.9c0,2.1-0.6,3.7-1.8,4.9
			C318.3,207.7,316.4,208.3,314,208.3z M308,207.3h6c2.1,0,3.7-0.5,4.8-1.5c1-1,1.5-2.4,1.5-4.2s-0.5-3.2-1.5-4.2s-2.6-1.5-4.8-1.5
			h-6V207.3z"/>
	</g>
	<g>
		<path class="st1" d="M351.7,235.5h-13v-50.1h13V235.5z M339.7,234.5h11v-48.1h-11V234.5z"/>
	</g>
	<g>
		<path class="st1" d="M390.5,235.5h-31.1v-50.1h31.1V196h-18.1v8.9h16v10.2h-16v9.8h18.1V235.5z M360.4,234.5h29.1v-8.6h-18.1
			v-11.8h16v-8.2h-16V195h18.1v-8.6h-29.1V234.5z"/>
	</g>
</g>
</svg>
