<?xml version="1.0" encoding="utf-8"?>
<!-- Generator: Adobe Illustrator 27.5.0, SVG Export Plug-In . SVG Version: 6.00 Build 0)  -->
<svg version="1.1" id="Layer_1" xmlns="http://www.w3.org/2000/svg" xmlns:xlink="http://www.w3.org/1999/xlink" x="0px" y="0px"
	 viewBox="0 0 400 245" style="enable-background:new 0 0 400 245;" xml:space="preserve">
<style type="text/css">
	.st0{enable-background:new    ;}
	.st1{fill:#F9F6E6;}
</style>
<g class="st0">
	<g>
		<path class="st1" d="M148.3,12.2v9.6h-20v10.4h15v9.3h-15v19.9h-12V12.2H148.3z"/>
	</g>
	<g>
		<path class="st1" d="M179.6,61.4l-10.2-18.5h-2.9v18.5h-12V12.2h20.1c3.9,0,7.2,0.7,9.9,2c2.7,1.4,4.8,3.2,6.1,5.6
			c1.4,2.4,2,5,2,7.9c0,3.3-0.9,6.2-2.8,8.8c-1.8,2.6-4.6,4.4-8.2,5.5l11.3,19.5L179.6,61.4L179.6,61.4z M166.5,34.3h7.4
			c2.2,0,3.8-0.5,4.9-1.6c1.1-1.1,1.6-2.6,1.6-4.5s-0.5-3.3-1.6-4.4s-2.7-1.6-4.9-1.6h-7.4V34.3z"/>
	</g>
	<g>
		<path class="st1" d="M212.2,21.8v9.9h16V41h-16v10.8h18.1v9.6h-30.1V12.2h30.1v9.6H212.2z"/>
	</g>
	<g>
		<path class="st1" d="M282,61.4h-12l-20-30.3v30.3h-12V12.2h12l20,30.4V12.2h12V61.4z"/>
	</g>
	<g>
		<path class="st1" d="M291.8,23.7c2.1-3.8,5-6.8,8.8-8.9s8-3.2,12.8-3.2c5.8,0,10.8,1.5,15,4.6s6.9,7.3,8.3,12.6h-13.2
			c-1-2.1-2.4-3.6-4.2-4.7c-1.8-1.1-3.8-1.6-6.1-1.6c-3.7,0-6.7,1.3-9,3.9s-3.4,6-3.4,10.3s1.1,7.7,3.4,10.3s5.3,3.8,9,3.8
			c2.3,0,4.3-0.5,6.1-1.6c1.8-1.1,3.2-2.6,4.2-4.7h13.2c-1.4,5.3-4.2,9.5-8.3,12.6c-4.2,3.1-9.1,4.6-15,4.6c-4.8,0-9-1.1-12.8-3.2
			c-3.8-2.1-6.7-5.1-8.8-8.9c-2.1-3.8-3.1-8.1-3.1-12.9S289.7,27.5,291.8,23.7z"/>
	</g>
	<g>
		<path class="st1" d="M386.6,12.2v49.1h-12V41.1H356v20.2h-12V12.2h12v19.3h18.6V12.2H386.6z"/>
	</g>
</g>
<g class="st0">
	<g>
		<path class="st1" d="M156.6,119.8c-1.3,2.4-3.3,4.3-6,5.7c-2.7,1.4-6.1,2.2-10.1,2.2h-7.4v17.6h-12V96.2h19.4c3.9,0,7.2,0.7,9.9,2
			c2.7,1.4,4.7,3.2,6.1,5.6s2,5.1,2,8.2C158.6,114.9,157.9,117.5,156.6,119.8z M144.7,116.6c1.1-1.1,1.7-2.6,1.7-4.6
			s-0.6-3.5-1.7-4.5c-1.1-1.1-2.8-1.6-5.1-1.6h-6.5v12.3h6.5C141.9,118.2,143.6,117.7,144.7,116.6z"/>
	</g>
	<g>
		<path class="st1" d="M195.4,136.7h-18.3l-2.9,8.7h-12.5l17.8-49.1h13.9l17.8,49.1h-12.7L195.4,136.7z M192.3,127.4l-6.1-18l-6,18
			H192.3z"/>
	</g>
	<g>
		<path class="st1" d="M224.5,144.1c-2.8-1.2-5.1-2.9-6.8-5.2s-2.6-5-2.7-8.3h12.7c0.2,1.8,0.8,3.2,1.9,4.2c1.1,1,2.5,1.4,4.2,1.4
			c1.8,0,3.2-0.4,4.2-1.2s1.5-1.9,1.5-3.4c0-1.2-0.4-2.2-1.2-3s-1.8-1.4-3-2c-1.2-0.5-2.9-1.1-5.1-1.8c-3.2-1-5.8-2-7.8-2.9
			c-2-1-3.7-2.4-5.2-4.3c-1.4-1.9-2.2-4.4-2.2-7.5c0-4.6,1.7-8.2,5-10.7s7.6-3.9,13-3.9s9.8,1.3,13.1,3.9s5.1,6.2,5.3,10.8h-13
			c-0.1-1.6-0.7-2.8-1.8-3.7c-1.1-0.9-2.5-1.4-4.1-1.4c-1.4,0-2.6,0.4-3.5,1.2c-0.9,0.8-1.3,1.9-1.3,3.3c0,1.6,0.7,2.8,2.2,3.7
			c1.5,0.9,3.8,1.8,7,2.9s5.8,2.1,7.7,3.1c2,1,3.7,2.4,5.1,4.3c1.4,1.9,2.2,4.3,2.2,7.2c0,2.8-0.7,5.3-2.1,7.6
			c-1.4,2.3-3.5,4.1-6.2,5.5s-5.9,2-9.6,2C230.6,145.8,227.4,145.3,224.5,144.1z"/>
	</g>
	<g>
		<path class="st1" d="M294.8,96.2v9.6h-13v39.5h-12v-39.5h-13v-9.6C256.8,96.2,294.8,96.2,294.8,96.2z"/>
	</g>
	<g>
		<path class="st1" d="M325.9,145.4l-10.2-18.5h-2.9v18.5h-12V96.2h20.1c3.9,0,7.2,0.7,9.9,2c2.7,1.4,4.8,3.2,6.1,5.6
			c1.4,2.4,2,5,2,7.9c0,3.3-0.9,6.2-2.8,8.8c-1.8,2.6-4.6,4.4-8.2,5.5l11.3,19.5h-13.3V145.4z M312.8,118.3h7.4
			c2.2,0,3.8-0.5,4.9-1.6s1.6-2.6,1.6-4.5s-0.5-3.3-1.6-4.4s-2.7-1.6-4.9-1.6h-7.4V118.3z"/>
	</g>
	<g>
		<path class="st1" d="M388.6,96.2l-17,32.9v16.2h-12v-16.2l-17-32.9h13.6l9.5,20.6l9.5-20.6C375.2,96.2,388.6,96.2,388.6,96.2z"/>
	</g>
</g>
<g class="st0">
	<g>
		<path class="st1" d="M174.3,183.3c3.9,2.1,6.9,4.9,9,8.6c2.1,3.7,3.2,8,3.2,12.8s-1.1,9.1-3.2,12.8c-2.1,3.7-5.1,6.6-9,8.7
			c-3.9,2.1-8.4,3.1-13.5,3.1h-18.4v-49.1h18.4C165.9,180.2,170.4,181.2,174.3,183.3z M170.5,215.3c2.5-2.5,3.8-6,3.8-10.5
			s-1.3-8-3.8-10.6c-2.5-2.5-6-3.8-10.6-3.8h-5.7V219h5.7C164.5,219,168,217.8,170.5,215.3z"/>
	</g>
	<g>
		<path class="st1" d="M203.7,226.6c-3.9-2.1-6.9-5.1-9.2-9s-3.4-8.2-3.4-13s1.1-9.1,3.4-13c2.3-3.8,5.3-6.8,9.2-9
			c3.9-2.1,8.1-3.2,12.7-3.2c4.6,0,8.9,1.1,12.7,3.2c3.8,2.1,6.9,5.1,9.1,9c2.2,3.8,3.3,8.1,3.3,13c0,4.8-1.1,9.1-3.4,13
			c-2.2,3.8-5.3,6.8-9.1,9c-3.8,2.1-8,3.2-12.7,3.2C211.8,229.8,207.6,228.8,203.7,226.6z M225.9,215c2.4-2.6,3.5-6.1,3.5-10.4
			c0-4.3-1.2-7.8-3.5-10.4c-2.4-2.6-5.5-3.9-9.4-3.9c-4,0-7.1,1.3-9.5,3.9c-2.4,2.6-3.5,6-3.5,10.4c0,4.3,1.2,7.8,3.5,10.4
			c2.4,2.6,5.5,3.9,9.5,3.9C220.4,218.9,223.5,217.6,225.9,215z"/>
	</g>
	<g>
		<path class="st1" d="M292.2,229.4h-12l-20-30.3v30.3h-12v-49.1h12l20,30.4v-30.4h12V229.4z"/>
	</g>
	<g>
		<path class="st1" d="M312.6,180.2v29.4c0,2.9,0.7,5.2,2.2,6.8c1.4,1.6,3.6,2.4,6.4,2.4s4.9-0.8,6.4-2.4c1.5-1.6,2.2-3.8,2.2-6.8
			v-29.4h12v29.3c0,4.4-0.9,8.1-2.8,11.1s-4.4,5.3-7.5,6.9s-6.7,2.3-10.5,2.3c-3.9,0-7.3-0.8-10.4-2.3s-5.5-3.8-7.2-6.9
			c-1.8-3.1-2.7-6.8-2.7-11.2v-29.3L312.6,180.2L312.6,180.2z"/>
	</g>
	<g>
		<path class="st1" d="M385.6,180.2v9.6h-13v39.5h-12v-39.5h-13v-9.6H385.6z"/>
	</g>
</g>
<g class="st0">
	<g>
		<path class="st1" d="M134.8,67.5h-13V17.3h33v10.6h-20v9.4h15v10.3h-15V67.5z M122.9,66.5h11V46.6h15v-8.3h-15V26.9h20v-8.6h-31
			V66.5z"/>
	</g>
	<g>
		<path class="st1" d="M200.1,67.5h-14.7L175.2,49h-2.1v18.5h-13V17.3h20.6c3.9,0,7.3,0.7,10.1,2.1s4.9,3.3,6.3,5.8
			c1.4,2.4,2.1,5.2,2.1,8.1c0,3.4-1,6.4-2.9,9c-1.8,2.5-4.4,4.3-7.8,5.5L200.1,67.5z M186,66.5h12.3l-11.2-19.3l0.6-0.2
			c3.5-1,6.1-2.8,7.9-5.3c1.8-2.5,2.7-5.3,2.7-8.5c0-2.8-0.7-5.4-2-7.6c-1.3-2.3-3.3-4.1-5.9-5.4c-2.6-1.3-5.9-2-9.7-2h-19.6v48.1
			h11V47.9h3.7L186,66.5z M180.1,40.4h-8V27.3h7.9c2.3,0,4.1,0.6,5.3,1.8c1.2,1.2,1.8,2.8,1.8,4.8c0,2.1-0.6,3.7-1.8,4.9
			C184.1,39.8,182.4,40.4,180.1,40.4z M173.1,39.4h6.9c2,0,3.6-0.5,4.6-1.5s1.5-2.4,1.5-4.2c0-1.7-0.5-3.1-1.5-4.1s-2.5-1.5-4.6-1.5
			h-6.9V39.4z"/>
	</g>
	<g>
		<path class="st1" d="M236.9,67.5h-31.1V17.3h31.1v10.6h-18.1v8.9h16V47h-16v9.8h18.1V67.5z M206.8,66.5h29.1v-8.6h-18.1V46.1h16
			v-8.2h-16v-11h18.1v-8.6h-29.1V66.5z"/>
	</g>
	<g>
		<path class="st1" d="M288.6,67.5h-12.7l-19.3-29.1v29.1h-13V17.3h12.7l19.3,29.3V17.3h13L288.6,67.5L288.6,67.5z M276.4,66.5h11.2
			V18.3h-11v31.6l-20.8-31.6h-11.2v48.1h11V35L276.4,66.5z"/>
	</g>
	<g>
		<path class="st1" d="M319.5,67.8c-4.8,0-9.2-1.1-13-3.2c-3.8-2.2-6.8-5.2-9-9c-2.1-3.8-3.2-8.3-3.2-13.2s1.1-9.4,3.2-13.2l0,0
			c2.1-3.9,5.2-6.9,9-9.1s8.2-3.3,13-3.3c5.9,0,11.1,1.6,15.3,4.7c4.2,3.1,7.1,7.5,8.5,12.9l0.2,0.6h-14.1l-0.1-0.3
			c-0.9-2-2.3-3.5-4-4.5s-3.7-1.5-5.9-1.5c-3.5,0-6.4,1.2-8.6,3.7s-3.3,5.8-3.3,10s1.1,7.5,3.3,10c2.2,2.4,5.1,3.7,8.6,3.7
			c2.2,0,4.2-0.5,5.9-1.5c1.7-1,3-2.5,4-4.5l0.1-0.3h14.1l-0.2,0.6c-1.4,5.4-4.3,9.7-8.5,12.8C330.5,66.2,325.4,67.8,319.5,67.8z
			 M298.4,29.6c-2,3.7-3.1,8-3.1,12.7s1,9,3.1,12.7c2,3.7,4.9,6.6,8.6,8.7s7.9,3.1,12.5,3.1c5.7,0,10.6-1.5,14.7-4.5
			c3.9-2.9,6.6-6.8,8-11.7H330c-1,2-2.4,3.5-4.2,4.6c-1.9,1.1-4,1.7-6.4,1.7c-3.8,0-7-1.4-9.3-4c-2.4-2.6-3.6-6.2-3.6-10.6
			s1.2-8,3.6-10.6c2.4-2.7,5.5-4,9.3-4c2.4,0,4.5,0.6,6.4,1.7c1.8,1.1,3.2,2.6,4.2,4.6h12.1c-1.4-4.9-4.1-8.8-8-11.7
			c-4-3-9-4.5-14.7-4.5c-4.7,0-8.9,1-12.5,3.1C303.3,22.9,300.4,25.9,298.4,29.6L298.4,29.6z"/>
	</g>
	<g>
		<path class="st1" d="M393.2,67.5h-13V47.2h-17.6v20.2h-13V17.3h13v19.3h17.6V17.3h13V67.5z M381.2,66.5h11V18.3h-11v19.3h-19.6
			V18.3h-11v48.1h11V46.2h19.6V66.5z"/>
	</g>
</g>
<g class="st0">
	<g>
		<path class="st1" d="M139.4,151.5h-13v-50.1h19.9c4,0,7.4,0.7,10.2,2.1s4.9,3.3,6.3,5.8c1.4,2.4,2.1,5.3,2.1,8.4
			c0,2.9-0.7,5.6-2,8l0,0c-1.3,2.4-3.4,4.4-6.2,5.9s-6.2,2.2-10.3,2.2h-6.9v17.7H139.4z M127.4,150.5h11v-17.6h7.9
			c3.9,0,7.2-0.7,9.8-2.1c2.6-1.4,4.6-3.2,5.8-5.5l0,0c1.3-2.3,1.9-4.8,1.9-7.6c0-3-0.7-5.6-2-7.9s-3.3-4.1-5.9-5.4
			c-2.6-1.3-5.9-2-9.7-2h-18.9v48.1H127.4z M145.4,124.3h-7V111h7c2.4,0,4.2,0.6,5.5,1.7c1.2,1.2,1.8,2.8,1.8,4.9s-0.6,3.7-1.8,4.9
			l0,0C149.6,123.7,147.8,124.3,145.4,124.3z M139.4,123.3h6c2.1,0,3.7-0.5,4.8-1.5l0,0c1-1,1.5-2.4,1.5-4.2c0-1.8-0.5-3.2-1.5-4.2
			s-2.6-1.5-4.8-1.5h-6V123.3z"/>
	</g>
	<g>
		<path class="st1" d="M217.5,151.5h-13.7l-2.9-8.7h-17.6l-2.9,8.7h-13.6l18.1-50.1h14.6L217.5,151.5z M204.5,150.5h11.6l-17.4-48.1
			h-13.2l-17.4,48.1h11.5l2.9-8.7h19.1L204.5,150.5z M198.8,133.5h-13.5l6.7-20.1L198.8,133.5z M186.7,132.5h10.7l-5.4-15.9
			L186.7,132.5z"/>
	</g>
	<g>
		<path class="st1" d="M240,151.9c-3.6,0-7-0.6-9.8-1.8l0,0c-2.9-1.2-5.3-3-7-5.3c-1.8-2.4-2.7-5.2-2.8-8.5v-0.5H234v0.4
			c0.2,1.7,0.8,3,1.7,3.8c1,0.9,2.3,1.3,3.9,1.3c1.6,0,3-0.4,3.9-1.1c0.9-0.7,1.4-1.7,1.4-3c0-1.1-0.4-1.9-1.1-2.7
			c-0.8-0.7-1.7-1.4-2.9-1.9s-2.9-1.1-5-1.7c-3.2-1-5.8-2-7.8-3c-2.1-1-3.9-2.5-5.4-4.5s-2.3-4.6-2.3-7.8c0-4.7,1.7-8.5,5.2-11.1
			c3.4-2.6,7.8-4,13.3-4s10,1.3,13.4,4s5.3,6.4,5.5,11.2v0.5h-13.9v-0.5c-0.1-1.5-0.6-2.6-1.6-3.4s-2.3-1.2-3.8-1.2
			c-1.3,0-2.4,0.3-3.2,1s-1.2,1.6-1.2,2.9c0,1.4,0.7,2.5,2,3.3c1.5,0.9,3.8,1.8,6.9,2.8c3.2,1.1,5.8,2.1,7.8,3.1s3.8,2.5,5.3,4.4
			s2.3,4.5,2.3,7.5c0,2.9-0.7,5.5-2.2,7.9c-1.5,2.4-3.6,4.3-6.4,5.6C247,151.2,243.7,151.9,240,151.9z M221.3,136.8
			c0.2,2.9,1,5.4,2.6,7.5c1.6,2.2,3.9,3.9,6.6,5l0,0c2.8,1.1,6,1.7,9.5,1.7c3.6,0,6.7-0.7,9.4-2c2.6-1.3,4.6-3.1,6-5.3
			c1.4-2.2,2.1-4.7,2.1-7.4c0-2.8-0.7-5.1-2.1-6.9c-1.4-1.8-3.1-3.2-5-4.1c-2-1-4.5-2-7.7-3.1c-3.2-1-5.6-2-7.1-2.9
			c-1.6-1-2.5-2.4-2.5-4.1c0-1.6,0.5-2.8,1.5-3.7c1-0.8,2.3-1.3,3.8-1.3c1.8,0,3.3,0.5,4.5,1.5c1.1,0.9,1.7,2.1,1.9,3.6h12
			c-0.3-4.2-2-7.5-5.1-9.9c-3.2-2.5-7.5-3.8-12.8-3.8c-5.2,0-9.4,1.3-12.6,3.8c-3.2,2.5-4.8,6-4.8,10.4c0,3,0.7,5.4,2.1,7.2
			c1.4,1.8,3.1,3.3,5,4.2c2,1,4.6,1.9,7.7,2.9c2.2,0.7,3.9,1.3,5.1,1.8c1.2,0.5,2.3,1.2,3.2,2.1c0.9,0.9,1.4,2,1.4,3.4
			c0,1.6-0.6,2.9-1.7,3.8c-1.1,0.9-2.6,1.3-4.5,1.3c-1.8,0-3.4-0.5-4.5-1.6c-1.1-1-1.7-2.3-2-4h-12V136.8z"/>
	</g>
	<g>
		<path class="st1" d="M288.1,151.5h-13V112h-13v-10.6h39V112h-13V151.5z M276.1,150.5h11V111h13v-8.6h-37v8.6h13V150.5z"/>
	</g>
	<g>
		<path class="st1" d="M346.1,151.5h-14.7L321.2,133h-2.1v18.5h-13v-50.1h20.6c3.9,0,7.3,0.7,10.1,2.1c2.8,1.4,4.9,3.3,6.3,5.8
			c1.4,2.4,2.1,5.2,2.1,8.1c0,3.4-1,6.4-2.9,9c-1.8,2.5-4.4,4.3-7.8,5.5L346.1,151.5z M332,150.5h12.3l-11.2-19.3l0.6-0.2
			c3.5-1,6.1-2.8,7.9-5.3s2.7-5.3,2.7-8.5c0-2.8-0.7-5.4-2-7.6c-1.3-2.3-3.3-4.1-5.9-5.4s-5.9-2-9.7-2h-19.6v48.1h11v-18.5h3.7
			L332,150.5z M326,124.4h-7.9v-13.2h7.9c2.3,0,4.1,0.6,5.3,1.8c1.2,1.2,1.8,2.8,1.8,4.8c0,2.1-0.6,3.7-1.8,4.9
			C330.1,123.8,328.3,124.4,326,124.4z M319.1,123.4h6.9c2,0,3.6-0.5,4.6-1.5s1.5-2.4,1.5-4.2c0-1.7-0.5-3.1-1.5-4.1
			s-2.5-1.5-4.6-1.5h-6.9V123.4z"/>
	</g>
	<g>
		<path class="st1" d="M377.9,151.5h-13v-16.6l-17.3-33.5h14.7l9.2,19.9l9.1-19.9h14.6l-17.3,33.5L377.9,151.5L377.9,151.5z
			 M365.9,150.5h11v-15.9l16.7-32.3h-12.3l-9.8,21.3l-9.8-21.3h-12.4l16.7,32.3v15.9H365.9z"/>
	</g>
</g>
<g class="st0">
	<g>
		<path class="st1" d="M166.9,235.5H148v-50.1h18.9c5.2,0,9.9,1.1,13.8,3.1l0,0c3.9,2.1,7,5.1,9.2,8.8c2.2,3.8,3.3,8.2,3.3,13.1
			c0,4.9-1.1,9.3-3.3,13.1s-5.3,6.8-9.2,8.9C176.7,234.4,172.1,235.5,166.9,235.5z M149,234.5h17.9c5,0,9.5-1,13.3-3
			s6.8-4.9,8.8-8.5c2.1-3.6,3.1-7.9,3.1-12.6c0-4.7-1-9-3.1-12.6s-5-6.5-8.8-8.5l0,0c-3.8-2-8.3-3-13.3-3H149V234.5z M166.2,225.1
			H160v-29.6h6.2c4.6,0,8.3,1.3,10.9,3.9s3.9,6.3,3.9,10.9c0,4.6-1.3,8.3-3.9,10.9C174.5,223.8,170.8,225.1,166.2,225.1z M161,224.1
			h5.2c4.4,0,7.8-1.2,10.2-3.6l0,0c2.4-2.4,3.6-5.8,3.6-10.1c0-4.4-1.2-7.8-3.6-10.2s-5.8-3.6-10.2-3.6H161V224.1z"/>
	</g>
	<g>
		<path class="st1" d="M222.6,235.9c-4.7,0-9-1.1-12.9-3.3s-7.1-5.3-9.4-9.2c-2.3-3.9-3.5-8.4-3.5-13.2c0-4.9,1.2-9.3,3.5-13.2
			s5.4-7,9.4-9.1c3.9-2.2,8.3-3.3,12.9-3.3c4.7,0,9,1.1,12.9,3.3s7,5.3,9.3,9.1c2.3,3.9,3.4,8.3,3.4,13.2s-1.2,9.3-3.4,13.2
			c-2.3,3.9-5.4,7-9.3,9.2C231.7,234.8,227.3,235.9,222.6,235.9z M222.6,185.6c-4.5,0-8.7,1.1-12.5,3.2c-3.8,2.1-6.8,5-9,8.8
			c-2.2,3.7-3.3,8-3.3,12.7s1.1,9,3.3,12.7c2.2,3.8,5.2,6.7,9,8.8l0,0c3.8,2.1,7.9,3.2,12.5,3.2s8.7-1.1,12.4-3.2
			c3.7-2.1,6.7-5.1,8.9-8.8s3.3-8,3.3-12.7s-1.1-9-3.3-12.7s-5.2-6.7-8.9-8.8S227.2,185.6,222.6,185.6z M222.6,225
			c-4.1,0-7.4-1.4-9.9-4c-2.4-2.7-3.7-6.3-3.7-10.7c0-4.5,1.2-8.1,3.7-10.8c2.4-2.7,5.8-4,9.9-4c4,0,7.3,1.4,9.8,4
			c2.4,2.7,3.7,6.3,3.7,10.7s-1.2,8-3.7,10.7C230,223.7,226.7,225,222.6,225z M222.6,196.5c-3.8,0-6.9,1.2-9.1,3.7
			c-2.3,2.5-3.4,5.9-3.4,10.1c0,4.2,1.1,7.6,3.4,10.1c2.2,2.5,5.3,3.7,9.1,3.7s6.8-1.3,9-3.8c2.3-2.5,3.4-5.9,3.4-10
			c0-4.2-1.1-7.6-3.4-10.1C229.4,197.7,226.4,196.5,222.6,196.5z"/>
	</g>
	<g>
		<path class="st1" d="M298.9,235.5h-12.7l-19.3-29.1v29.1h-13v-50.1h12.7l19.3,29.3v-29.3h13L298.9,235.5L298.9,235.5z
			 M286.7,234.5h11.2v-48.1h-11V218l-20.8-31.6h-11.2v48.1h11V203L286.7,234.5z"/>
	</g>
	<g>
		<path class="st1" d="M327.2,235.9c-3.9,0-7.5-0.8-10.6-2.3c-3.1-1.6-5.6-3.9-7.5-7.1c-1.8-3.1-2.7-7-2.7-11.4v-29.8h13v29.9
			c0,2.8,0.7,5,2,6.5s3.4,2.2,6,2.2s4.7-0.7,6.1-2.2s2.1-3.7,2.1-6.4v-29.9h13v29.8c0,4.5-1,8.3-2.9,11.4c-1.9,3.1-4.5,5.5-7.7,7
			C334.7,235.2,331.1,235.9,327.2,235.9z M307.4,186.3v28.8c0,4.3,0.9,8,2.6,10.9c1.7,3,4.1,5.2,7,6.7c3,1.5,6.4,2.2,10.2,2.2
			c3.8,0,7.2-0.8,10.3-2.3c3-1.5,5.5-3.7,7.3-6.7c1.8-2.9,2.7-6.6,2.7-10.9v-28.8h-11v28.9c0,3.1-0.8,5.5-2.4,7.1
			c-1.6,1.7-3.9,2.5-6.8,2.5s-5.2-0.9-6.7-2.5c-1.5-1.7-2.3-4.1-2.3-7.1v-28.9h-10.9V186.3z"/>
	</g>
	<g>
		<path class="st1" d="M379.2,235.5h-13V196h-13v-10.6h39V196h-13V235.5z M367.3,234.5h11V195h13v-8.6h-37v8.6h13V234.5z"/>
	</g>
</g>
</svg>
