<?xml version="1.0" encoding="utf-8"?>
<!-- Generator: Adobe Illustrator 27.3.1, SVG Export Plug-In . SVG Version: 6.00 Build 0)  -->
<svg version="1.1" id="Layer_1" xmlns="http://www.w3.org/2000/svg" xmlns:xlink="http://www.w3.org/1999/xlink" x="0px" y="0px"
	 viewBox="0 0 222 222" style="enable-background:new 0 0 222 222;" xml:space="preserve">
<style type="text/css">
	.st0{fill:#F9F6E6;}
	.st1{fill:none;stroke:#F9F6E6;stroke-width:0.25;stroke-miterlimit:10;}
</style>
<g>
	<g>
		<g>
			<g>
				<path class="st0" d="M115.13,86.74c-9.63,12.03-14.28,28.04-11.91,43.06c0.09,0.94,0.34,1.87,0.51,2.8
					c0.19,0.93,0.36,1.86,0.64,2.77l0.76,2.74l0.95,2.69c0.16,0.45,0.3,0.9,0.48,1.34l0.57,1.31l1.13,2.62l1.3,2.54l0.65,1.27
					c0.22,0.42,0.49,0.82,0.73,1.23c3.83,6.6,8.65,12.63,14.01,18.15c5.37,5.49,11.23,10.61,17.43,15.14
					c6.2,4.51,12.84,8.36,19.86,10.93l1.31,0.49l1.33,0.39c0.89,0.26,1.78,0.54,2.67,0.77c1.8,0.37,3.6,0.82,5.41,0.98
					c3.62,0.44,7.27,0.44,10.8-0.18c7.07-1.22,13.61-4.81,18.74-9.93c2.4-2.37,4.51-5.07,6.28-7.96c1.75-2.88,3.24-6.02,3.98-9.09
					c0.18-0.79,0.28-1.38,0.42-2.4l0.4-2.77c0.28-1.82,0.54-3.61,0.78-5.39c0.13-0.89,0.2-1.77,0.31-2.66
					c0.1-0.89,0.2-1.77,0.24-2.65l0.18-2.65l0.03-2.64c0.09-7.04-1.22-13.99-3.72-20.56c-0.68-1.62-1.22-3.3-2.09-4.85l-1.2-2.37
					l-0.6-1.19c-0.22-0.39-0.47-0.76-0.7-1.14c-0.95-1.5-1.85-3.04-2.84-4.52l-3.2-4.32c-0.51-0.74-1.12-1.4-1.71-2.08l-1.77-2.04
					l-1.77-2.04c-0.61-0.67-1.27-1.28-1.9-1.93l-3.84-3.84c-0.65-0.63-1.34-1.2-2-1.81c-0.67-0.59-1.33-1.21-2.04-1.76
					c-2.75-2.32-5.68-4.38-8.7-6.31c-3.05-1.87-6.23-3.52-9.51-4.91c-6.58-2.78-13.64-4.37-20.78-4.68
					c-7.14-0.31-14.36,0.63-21.19,2.8c0,0-2.78,0.84-5.43,2.01c-1.33,0.57-2.62,1.23-3.56,1.76c-0.94,0.53-1.52,0.94-1.52,0.94
					l-0.3-0.4c3.1-2.41,6.69-4.16,10.35-5.64c3.68-1.45,7.52-2.55,11.44-3.26c7.83-1.46,16.01-1.33,23.89,0.38
					c7.9,1.67,15.4,5.01,22.22,9.32c3.38,2.21,6.63,4.61,9.67,7.25c1.52,1.31,2.94,2.72,4.41,4.08l2.19,2.06
					c0.7,0.72,1.37,1.48,2.05,2.21c0.66,0.72,1.32,1.43,1.98,2.15c0.65,0.73,1.36,1.42,1.94,2.22c1.22,1.56,2.44,3.13,3.67,4.71
					c1.15,1.65,2.22,3.36,3.33,5.06c0.59,0.83,1.02,1.76,1.51,2.66l1.45,2.72c0.52,0.89,0.87,1.87,1.29,2.81l1.21,2.87
					c0.41,0.95,0.66,1.97,1,2.96c0.31,1,0.65,1.99,0.93,2.99c0.97,4.07,1.79,8.22,1.95,12.41c0.2,2.1,0.09,4.18,0.1,6.27
					c-0.12,2.07-0.2,4.15-0.45,6.18c-0.18,2.05-0.49,4.05-0.75,6.04c-0.28,1.98-0.57,3.95-0.85,5.92c-0.39,2.31-1.05,4.38-1.87,6.35
					c-0.82,1.97-1.75,3.85-2.83,5.64c-2.12,3.58-4.66,6.84-7.55,9.71c-2.96,2.93-6.37,5.48-10.12,7.47
					c-3.75,1.99-7.85,3.4-12.07,4.11c-4.22,0.7-8.53,0.68-12.71,0.12c-2.11-0.22-4.14-0.74-6.19-1.2c-1-0.29-2-0.61-3-0.91
					c-0.5-0.16-1-0.3-1.49-0.47l-1.45-0.56c-7.76-2.97-14.79-7.27-21.19-12.14c-6.39-4.9-12.24-10.29-17.6-16.1
					c-5.42-5.9-10.28-12.39-14.08-19.51l-0.72-1.33l-0.64-1.37l-1.28-2.75c-0.39-0.93-0.73-1.88-1.1-2.82
					c-0.37-0.94-0.73-1.88-1-2.86l-0.88-2.9l-0.69-2.95c-0.25-0.98-0.41-1.98-0.56-2.98c-0.13-1-0.36-1.99-0.41-3
					c-0.87-8.03,0.13-16.21,2.75-23.73c1.31-3.77,3.01-7.37,5.03-10.77c2.03-3.39,4.37-6.61,7.09-9.43L115.13,86.74z"/>
			</g>
		</g>
	</g>
</g>
<g>
	<g>
		<g>
			<g>
				<path class="st0" d="M118.15,90.37c-9.16,11.09-13.74,26.04-11.66,40.24c0.08,0.89,0.3,1.76,0.46,2.64
					c0.17,0.88,0.32,1.76,0.58,2.62l0.69,2.59l0.87,2.54c0.27,0.86,0.61,1.68,0.97,2.51l1.05,2.47l1.21,2.4
					c0.39,0.81,0.8,1.6,1.28,2.37c3.56,6.24,8.05,11.94,13.04,17.14c5.01,5.18,10.46,10,16.26,14.28
					c5.8,4.26,12.05,7.92,18.71,10.39l1.24,0.47l1.27,0.38c0.85,0.25,1.69,0.52,2.54,0.75c1.72,0.36,3.44,0.79,5.18,0.95
					c3.47,0.43,7,0.44,10.42-0.15c6.86-1.17,13.2-4.65,18.14-9.58c2.31-2.29,4.34-4.87,6.04-7.65c1.69-2.78,3.11-5.78,3.85-8.85
					c0.33-1.43,0.52-3.24,0.78-4.91c0.26-1.69,0.5-3.36,0.72-5.03c0.12-0.84,0.19-1.67,0.29-2.51c0.1-0.84,0.18-1.67,0.22-2.5
					l0.16-2.5l0.02-2.5c0.07-6.68-1.2-13.32-3.6-19.55c-0.65-1.54-1.18-3.13-2.01-4.6l-1.15-2.24l-0.57-1.12
					c-0.21-0.36-0.44-0.71-0.66-1.07c-0.91-1.42-1.76-2.87-2.7-4.26l-3.03-4.05c-0.48-0.69-1.06-1.31-1.62-1.95l-1.68-1.91
					l-1.67-1.91c-0.57-0.62-1.2-1.2-1.8-1.8l-3.63-3.57c-1.26-1.13-2.51-2.27-3.83-3.33c-2.6-2.16-5.38-4.08-8.23-5.87
					c-2.89-1.74-5.9-3.26-9-4.55c-6.22-2.55-12.89-3.98-19.6-4.2c-6.71-0.22-13.46,0.76-19.82,2.87c0,0-2.58,0.83-5.05,1.96
					c-1.24,0.56-2.43,1.19-3.31,1.7c-0.87,0.51-1.42,0.91-1.42,0.91l-0.15-0.2c2.93-2.18,6.28-3.73,9.69-5.04
					c3.43-1.28,6.99-2.23,10.61-2.83c7.24-1.23,14.75-1,21.96,0.65c7.23,1.62,14.06,4.75,20.27,8.75c3.08,2.05,6.04,4.28,8.82,6.72
					c1.39,1.22,2.68,2.52,4.03,3.78l2,1.91c0.64,0.67,1.25,1.36,1.87,2.04c0.6,0.66,1.2,1.32,1.8,1.99
					c0.59,0.67,1.24,1.31,1.76,2.04c1.11,1.43,2.22,2.88,3.33,4.33c1.04,1.51,2.01,3.08,3.02,4.64c0.53,0.76,0.92,1.61,1.37,2.43
					l1.3,2.48c0.47,0.81,0.79,1.7,1.16,2.57l1.09,2.61c0.37,0.87,0.6,1.79,0.9,2.69c0.28,0.91,0.59,1.8,0.84,2.72
					c0.87,3.69,1.6,7.46,1.73,11.27c0.17,1.9,0.07,3.8,0.08,5.7c-0.12,1.89-0.2,3.78-0.42,5.64c-0.17,1.87-0.45,3.72-0.7,5.55
					c-0.26,1.83-0.53,3.66-0.79,5.48c-0.34,1.98-0.92,3.83-1.66,5.59c-0.73,1.76-1.57,3.45-2.54,5.05c-1.91,3.22-4.2,6.15-6.79,8.73
					c-5.3,5.28-12.28,9.14-19.85,10.4c-3.78,0.63-7.64,0.62-11.4,0.13c-1.9-0.19-3.74-0.66-5.59-1.06l-2.71-0.82
					c-0.45-0.14-0.91-0.27-1.35-0.42l-1.32-0.51c-7.05-2.68-13.51-6.58-19.41-11.01c-5.89-4.46-11.32-9.41-16.28-14.71
					c-5.02-5.39-9.53-11.31-13.07-17.81l-0.67-1.21l-0.6-1.25l-1.19-2.51c-0.36-0.85-0.69-1.72-1.03-2.58
					c-0.34-0.86-0.69-1.72-0.95-2.61l-0.84-2.65l-0.66-2.7c-0.24-0.89-0.4-1.81-0.54-2.72c-0.13-0.92-0.35-1.82-0.41-2.74
					c-0.88-7.35-0.06-14.86,2.25-21.84c2.34-6.95,5.99-13.49,10.89-18.87L118.15,90.37z"/>
			</g>
		</g>
	</g>
</g>
<g>
	<g>
		<g>
			<g>
				<path class="st0" d="M112.53,110.78c-0.01-1.33,0.15-2.6,0.38-3.89c0.24-1.28,0.56-2.55,1-3.79c0.87-2.47,2.17-4.86,4-6.87
					c0.45-0.51,0.98-0.94,1.47-1.41c0.51-0.45,1.1-0.81,1.65-1.22c0.57-0.39,1.2-0.66,1.8-1c0.3-0.18,0.62-0.29,0.94-0.41l1.27-0.46
					l0.78-0.28l0.2-0.07c0.03-0.01,0.07-0.03,0.1-0.03l0.06,0.08l0.26,0.32l0.99,1.23l1.22,1.49l2.43,2.99
					c6.47,7.99,12.84,16.05,19.13,24.1c3.96,5.11,7.94,10.24,11.94,15.42c-3.33-1.67-6.66-3.33-9.99-5
					c-2.09-1.06-4.18-2.12-6.27-3.18c-3.34-1.73-6.69-3.47-10.04-5.21c-6.68-3.5-13.31-7.06-19.81-10.66l-3.35-1.89l0.11-0.22
					c9.5,3.92,18.85,8.14,28.15,12.47c2.65,1.25,5.38,2.53,8.14,3.83l1.9,0.9l0.14,0.03c0.07,0.01,0.09,0.01,0.09-0.01
					c-0.1-0.11-0.15-0.14-0.17-0.16c-1.15-1.47-2.28-2.91-3.39-4.33c-6.19-8.02-12.6-16.37-18.59-24.51l-2.28-3.09l-1.14-1.55
					c-0.13-0.17-0.1-0.14-0.14-0.21l-0.09-0.14c-0.05-0.15-0.17-0.06-0.28-0.05l-0.17,0.04l-0.41,0.12
					c-0.29,0.09-0.58,0.16-0.85,0.3c-0.54,0.26-1.11,0.47-1.63,0.77c-0.5,0.33-1.04,0.62-1.53,0.98c-0.46,0.39-0.96,0.74-1.4,1.17
					c-1.79,1.67-3.19,3.79-4.24,6.07c-0.54,1.14-0.97,2.34-1.33,3.56c-0.36,1.22-0.66,2.47-0.79,3.75H112.53z"/>
			</g>
		</g>
	</g>
</g>
<g>
	<g>
		<g>
			<g>
				<path class="st0" d="M129.37,90.44c2.15-1.33,4.46-2.36,6.86-3.16c2.4-0.8,4.9-1.36,7.46-1.62c2.56-0.26,5.16-0.15,7.73,0.27
					l1.92,0.38l2.14,0.64l0.79,0.24c0.12,0.05,0.3,0.05,0.36,0.15l0.05,0.41l0.17,1.55l0.22,1.86c1.17,9.92,2.23,19.86,3.22,29.74
					c0.49,5.08,0.98,10.19,1.48,15.34c-2.28-3.06-4.57-6.13-6.87-9.21c-1.14-1.56-2.29-3.12-3.44-4.68
					c-2.27-3.14-4.54-6.28-6.82-9.42c-4.52-6.3-8.96-12.64-13.27-18.96l-2.08-3.11l0.2-0.15c6.55,7.54,12.84,15.29,19.02,23.12
					c2.01,2.56,4.08,5.21,6.18,7.88c0.9,1.17,1.81,2.33,2.71,3.5c0.06,0.05,0.08,0.05,0.09,0.04c-0.02-0.07-0.03-0.1-0.04-0.11
					c-0.13-1.33-0.26-2.63-0.39-3.91c-0.92-9.8-1.85-20-2.54-29.8l-0.13-1.86c-0.02-0.21-0.01-0.17-0.01-0.23l0-0.13
					c0.03-0.12-0.1-0.1-0.17-0.15l-0.17-0.07l-0.42-0.15l-0.84-0.3l-1.74-0.45c-2.34-0.52-4.75-0.81-7.19-0.74
					c-4.86,0.15-9.78,1.24-14.33,3.32L129.37,90.44z"/>
			</g>
		</g>
	</g>
</g>
<g>
	<g>
		<g>
			<g>
				<path class="st0" d="M158.87,88.78c4.62,0.48,9.17,1.6,13.58,3.21c4.38,1.67,8.65,3.91,12.32,7.06l1.32,1.25
					c0.45,0.41,0.88,0.84,1.26,1.32l1.72,2.06l0.26,0.32l0.13,0.16c0.06,0.05-0.06,0.1-0.08,0.15l-0.53,0.61l-1.07,1.23
					c-1.51,1.75-3.03,3.5-4.54,5.25c-3.05,3.48-6.09,6.95-9.12,10.4c-3.72,4.16-7.48,8.36-11.25,12.58
					c-0.32-2.74-0.64-5.48-0.96-8.23c-0.17-1.6-0.35-3.2-0.52-4.8c-0.32-3.2-0.65-6.41-0.98-9.62c-0.62-6.41-1.17-12.81-1.64-19.15
					l-0.22-3.46l0.25-0.03c1.84,9.08,3.34,18.2,4.71,27.33c0.34,2.28,0.68,4.61,1.03,6.98c0.17,1.19,0.33,2.38,0.5,3.57
					c0.04,0.16,0.05,0.16,0.07,0.2c0.04-0.07,0.07-0.11,0.08-0.14c0.71-0.81,1.42-1.62,2.12-2.42c1.49-1.68,2.95-3.34,4.38-4.96
					c3.05-3.39,6.17-6.84,9.28-10.3c1.56-1.7,3.12-3.41,4.68-5.11l0.09-0.08c0.04-0.03,0.07-0.06,0.03-0.1l-0.07-0.11l-0.44-0.57
					c-0.31-0.45-0.69-0.84-1.07-1.23l-1.13-1.18c-3.22-3.05-7.12-5.44-11.23-7.4c-4.14-1.9-8.49-3.47-13-4.53L158.87,88.78z"/>
			</g>
		</g>
	</g>
</g>
<g>
	<g>
		<g>
			<g>
				<path class="st0" d="M190.47,108.38c4.03,2.3,7.51,5.5,10.39,9.21c2.83,3.75,4.97,8.1,6.09,12.74c0.18,0.57,0.27,1.16,0.36,1.75
					l0.29,1.77c0.12,0.59,0.15,1.18,0.18,1.78l0.14,2.6l0.08,1.64c0.04,0.1-0.08,0.05-0.13,0.06l-0.2-0.02l-0.41-0.03l-0.81-0.06
					l-2.64-0.19l-3.43-0.24c-4.57-0.35-9.14-0.7-13.69-1.05c-3.26-0.28-6.53-0.56-9.82-0.84c-4.26-0.39-8.54-0.78-12.83-1.17
					l4.62-5.17l2.69-2.94l5.41-5.85c3.62-3.88,7.26-7.72,10.91-11.48l2.42-2.45l0.19,0.16c-5.51,7.35-11.28,14.49-17.14,21.53
					c-0.79,0.95-1.6,1.92-2.42,2.9l-0.31,0.37l-0.14,0.17l-0.02,0.03l-0.06,0.1l-0.09,0.16l0.28-0.02l0.05-0.01l0.5,0.03l1.24,0.09
					c1.66,0.12,3.33,0.24,4.99,0.36c3.32,0.26,6.62,0.52,9.79,0.77c4.51,0.41,9.1,0.82,13.7,1.24l3.44,0.33l0.43,0.04l0.21,0.02
					c0.04,0,0.02,0,0.04,0.01l0.1,0.02c0.03,0,0.08,0.03,0.1,0.01l0.01-0.09l0.01-0.11l-0.02-0.79c0-0.55-0.01-1.1-0.1-1.64
					l-0.19-1.63c-0.06-0.54-0.12-1.09-0.25-1.61c-1.65-8.68-6.84-16.69-14.1-22.3L190.47,108.38z"/>
			</g>
		</g>
	</g>
</g>
<g>
	<g>
		<g>
			<g>
				<path class="st0" d="M167.13,139.3c9.88,0.09,19.81,0.38,29.74,0.79c2.48,0.11,4.96,0.22,7.44,0.33l2.01,0.1
					c0.15,0,0.3,0.02,0.44,0.04c0.14,0.03,0.3,0,0.41,0.12c0.24,0.16,0.46,0.36,0.68,0.55c0.24,0.22,0.33,0.34,0.47,0.48l0.36,0.43
					c0.9,1.16,1.51,2.42,1.97,3.71c0.91,2.59,1.16,5.25,1.14,7.85c-0.04,2.59-0.29,5.16-0.91,7.72c-0.59,2.37-1.55,4.74-3.06,6.84
					c-0.77,1.04-1.67,2.02-2.76,2.83c-0.13,0.1-0.27,0.2-0.42,0.3c-0.15,0.09-0.26,0.18-0.54,0.33l-0.76,0.39
					c-0.26,0.1-0.51,0.2-0.77,0.29l-0.39,0.13c-0.12-0.03-0.22-0.14-0.33-0.21c-0.22-0.17-0.44-0.29-0.65-0.49l-0.98-0.88
					c-3.44-3.13-6.9-6.27-10.36-9.41c-6.88-6.32-13.7-12.72-20.3-19.13l-2.65-2.62l0.17-0.19c7.9,6.04,15.57,12.33,23.16,18.71
					c3.67,3.07,7.5,6.35,11.32,9.65l0.72,0.62l0.34,0.3l0.02,0.01c0.03,0.01,0.02,0.01,0.08-0.04c0.86-0.56,1.65-1.32,2.3-2.2
					c1.31-1.76,2.19-3.88,2.73-6.04c0.56-2.22,0.82-4.6,0.88-6.96c0.05-2.35-0.16-4.72-0.86-6.85c-0.35-1.06-0.83-2.07-1.44-2.89
					l-0.23-0.29l-0.12-0.13l-0.03-0.04c-0.02-0.03-0.04-0.05-0.08-0.05l-1.76-0.14c-2.47-0.21-4.93-0.42-7.37-0.62
					c-9.88-0.86-19.75-1.82-29.61-3.1L167.13,139.3z"/>
			</g>
		</g>
	</g>
</g>
<g>
	<g>
		<g>
			<g>
				<path class="st0" d="M164.32,140.71c8.25,6.99,16.42,14.17,24.51,21.44l6.05,5.47c2.13,1.95,4.27,3.9,6.39,5.84l0.71,0.68
					c-0.05,0.3-0.19,0.62-0.28,0.93l-0.32,0.94l-0.21,0.57c-0.25,0.66-0.52,1.31-0.8,1.96c-0.57,1.29-1.21,2.56-1.93,3.79
					c-1.47,2.43-3.24,4.86-6,6.51c-2.66,1.46-5.43,1.75-8.11,1.81c-2.69,0.01-5.31-0.3-7.9-0.84c-0.35-0.08-0.53-0.11-1.25-0.29
					l-0.9-0.23c-0.14-0.04-0.31-0.07-0.44-0.13l-0.11-0.45l-0.22-0.9l-0.17-0.73l-0.21-0.93l-0.83-3.74
					c-0.55-2.49-1.09-4.99-1.64-7.49c-2.16-10-4.22-20.02-6.09-29.92l-0.73-4.01l0.24-0.06c3.16,10.4,5.99,20.89,8.7,31.4
					c0.65,2.54,1.31,5.15,1.99,7.78c0.33,1.32,0.66,2.65,0.99,3.99l0.5,2.01l0.11,0.46l0.01,0.03c0,0.02,0.02,0.02,0.04,0.02l0.01,0
					c0.02,0-0.03-0.01,0.08,0.02l0.49,0.1l0.98,0.18c0.65,0.11,1.31,0.2,1.97,0.28c1.31,0.16,2.62,0.25,3.91,0.24
					c2.54,0,5.12-0.38,6.96-1.41c1.92-1.11,3.54-3.13,4.87-5.31c0.66-1.1,1.27-2.26,1.81-3.45c0.27-0.6,0.53-1.2,0.77-1.81
					l0.15-0.37l0.01-0.03c0.02-0.02,0.01-0.04,0-0.05c-1.85-1.78-3.71-3.56-5.56-5.33c-1.95-1.89-3.88-3.77-5.8-5.64
					c-7.77-7.58-15.46-15.24-22.94-23.14L164.32,140.71z"/>
			</g>
		</g>
	</g>
</g>
<g>
	<g>
		<g>
			<g>
				<path class="st0" d="M160.7,140.86c2.7,10.12,5.22,20.35,7.62,30.61c1.18,5.14,2.35,10.27,3.52,15.4l0.41,1.87l0.16,0.91
					l0.08,0.45c0.01,0.14,0.13,0.36-0.1,0.32c-1.23,0.16-2.47,0.25-3.66,0.31c-1.38,0.02-2.75,0-4.11-0.13
					c-2.72-0.25-5.43-0.72-8.04-1.57c-4.89-1.46-9.47-4.18-13.19-7.76l-1.39-1.36c-0.45-0.47-0.83-0.99-1.25-1.48l-1.22-1.51
					c-0.4-0.51-0.71-1.07-1.07-1.61l-1.25-1.96c-0.25-0.48-0.91-0.99-0.27-1.46l0.95-1.33l2.18-3.01
					c5.83-8.01,11.75-15.96,17.7-23.7l2.43-3.11l0.2,0.14c-5.46,9.01-11.19,17.83-17.03,26.58c-0.7,1.06-1.42,2.12-2.14,3.2
					c-0.36,0.54-0.73,1.08-1.09,1.62c-0.07,0.12-0.1,0.14,0.01,0.24l0.96,1.41c0.35,0.53,0.7,1.07,1.14,1.53l1.24,1.46l0.62,0.73
					l0.7,0.65c3.63,3.56,8.1,6.24,12.74,7.61c2.35,0.79,4.84,1.24,7.34,1.5c1.25,0.14,2.52,0.17,3.78,0.17l0.2,0.01
					c0.01-0.04,0.01-0.03,0-0.13c-1.05-5.19-2.08-10.37-3.03-15.46c-1.96-10.33-3.82-20.68-5.36-31.1L160.7,140.86z"/>
			</g>
		</g>
	</g>
</g>
<g>
	<g>
		<g>
			<g>
				<path class="st0" d="M159.06,138.51c-5.6,8.11-11.39,16.16-17.27,24.13c-1.48,1.99-2.96,3.98-4.43,5.97l-1.11,1.49l-0.9,1.19
					c-0.36,0.48-0.72,0.92-1.09,1.39l-0.14,0.17c-0.02,0.05-0.05,0.02-0.08-0.01l-0.09-0.07l-0.35-0.27l-0.69-0.54
					c-0.46-0.35-0.93-0.75-1.37-1.12l-1.44-1.24c-1.89-1.68-3.69-3.45-5.39-5.32c-0.87-0.92-1.66-1.91-2.49-2.87
					c-0.77-1.01-1.58-1.98-2.29-3.04l-1.01-1.46l-0.93-1.53c-0.65-1-1.15-2.11-1.71-3.17c-0.29-0.53-0.48-1.12-0.72-1.67
					c-0.22-0.57-0.49-1.11-0.66-1.71l-0.52-1.77c-0.08-0.3-0.2-0.58-0.24-0.89l-0.18-1.02l-0.3-1.7l-0.15-0.84l-0.07-0.42
					c0-0.06-0.06-0.16,0-0.18l0.21-0.02l3.26-0.36l3.47-0.36c2.32-0.23,4.63-0.46,6.95-0.69c9.28-0.89,18.57-1.68,27.73-2.3
					l3.71-0.22l0.03,0.25c-9.74,1.83-19.53,3.33-29.32,4.7c-2.37,0.33-4.8,0.66-7.25,1c-1.23,0.16-2.47,0.32-3.71,0.49l-0.93,0.12
					l-0.46,0.06l-0.03,0.01c-0.03,0.01-0.08,0.01-0.05,0.06c0.01,0.02,0.01,0.02,0.02,0.02l0.14,0.73c0.14,0.57,0.34,1.13,0.51,1.69
					l0.26,0.84c0.1,0.28,0.23,0.55,0.34,0.82c0.23,0.55,0.46,1.09,0.68,1.63c1.07,2.11,2.21,4.18,3.58,6.04
					c0.64,0.99,1.41,1.91,2.12,2.87c0.77,0.92,1.52,1.87,2.34,2.76c1.61,1.81,3.32,3.55,5.11,5.21l1.34,1.21
					c0.02,0.02,0.07,0.1,0.11,0.1l0.06-0.06l0.03-0.03l0.24-0.29l1.16-1.45c1.55-1.92,3.1-3.84,4.63-5.74
					c6.23-7.69,12.54-15.3,19.11-22.73L159.06,138.51z"/>
			</g>
		</g>
	</g>
</g>
<g>
	<g>
		<g>
			<g>
				<path class="st0" d="M156.68,136.45c-9.74,1-19.55,1.82-29.37,2.51c-2.46,0.17-4.91,0.33-7.36,0.5l-3.68,0.23l-1.84,0.11
					c-0.53,0.03-1.17,0.07-1.74,0.07c-0.18,0.06-0.21-0.16-0.31-0.25l-0.25-0.36c-0.17-0.24-0.33-0.49-0.48-0.74l-0.32-0.54
					l-0.24-0.43c-0.16-0.29-0.31-0.58-0.45-0.87c-0.3-0.58-0.55-1.18-0.8-1.78c-0.48-1.21-0.89-2.45-1.2-3.72
					c-0.62-2.53-0.85-5.17-0.67-7.79c0.21-2.44,0.82-4.83,1.69-7.13l1.07-2.28l0.73-1.55c0.03-0.22,0.21-0.02,0.32,0.01l0.38,0.19
					l0.77,0.38l3.85,1.91c4.11,2.08,8.24,4.17,12.37,6.26c8.24,4.23,16.42,8.55,24.42,12.94l3.22,1.8l-0.11,0.22
					c-9.13-3.68-18.12-7.67-27.04-11.77c-4.31-1.97-8.84-4.09-13.35-6.24c-1.08-0.51-2.15-1.03-3.23-1.54
					c-0.02,0-0.03-0.01-0.03,0.01c0,0.01,0,0.01,0,0.01l0,0c0,0,0.01-0.01,0,0.01l-0.05,0.1l-0.18,0.39
					c-0.85,2.14-1.42,4.34-1.6,6.53c-0.17,2.24,0.01,4.54,0.52,6.79c0.25,1.12,0.6,2.23,1.02,3.32c0.22,0.54,0.43,1.08,0.69,1.6
					c0.12,0.27,0.25,0.52,0.38,0.78l0.2,0.38c0.07,0.12,0.16,0.28,0.14,0.24c0.04,0.05-0.02,0.07,0.16,0.06l1.85-0.07
					c1.23-0.04,2.46-0.08,3.69-0.12c2.45-0.07,4.9-0.13,7.32-0.2c9.82-0.24,19.65-0.38,29.49-0.2L156.68,136.45z"/>
			</g>
		</g>
	</g>
</g>
<g>
	<g>
		<g>
			<g>
				<path class="st0" d="M115.05,86.81c-1.77,1.51-3.46,3.19-5.07,4.91c-1.61,1.72-3.15,3.51-4.61,5.37
					c-2.94,3.68-5.53,7.62-7.81,11.71c-4.55,8.18-7.63,17.12-8.78,26.29c-0.58,4.58-0.69,9.21-0.39,13.8
					c0.11,1.15,0.13,2.3,0.31,3.44l0.46,3.43c0.44,2.26,0.8,4.54,1.43,6.77c0.51,2.25,1.25,4.45,1.94,6.65
					c0.34,1.11,0.8,2.15,1.2,3.23c0.41,1.07,0.8,2.15,1.31,3.17c1.79,4.21,4.15,8.11,6.83,11.71c4.95,6.76,11.72,12.09,19.43,15.65
					c7.72,3.57,16.34,5.35,25.06,5.83c8.75,0.51,17.57-0.31,26.28-1.95c8.51-1.61,16.7-5.19,23.97-10.08c0,0,1.49-0.97,2.91-2.03
					c0.71-0.53,1.41-1.08,1.92-1.5c0.52-0.42,0.84-0.71,0.84-0.71l0.36,0.35c-3.21,3.57-6.95,6.68-10.96,9.41
					c-4.03,2.7-8.38,5-13,6.71c-1.15,0.45-2.34,0.78-3.51,1.17c-1.18,0.36-2.39,0.62-3.59,0.94c-2.28,0.55-4.71,1.1-7.1,1.53
					c-4.81,0.87-9.69,1.4-14.61,1.54c-9.46,0.27-19.72-0.91-29.29-4.73c-4.77-1.9-9.31-4.44-13.37-7.55
					c-4.06-3.1-7.59-6.78-10.51-10.68c-2.96-4.02-5.54-8.39-7.45-13.03c-0.54-1.14-0.96-2.31-1.39-3.49
					c-0.41-1.18-0.9-2.34-1.25-3.54c-0.71-2.39-1.45-4.77-1.96-7.22c-2.31-9.72-2.62-19.95-0.93-29.57
					c1.69-9.78,5.54-19.1,10.94-27.23c2.7-4.07,5.73-7.89,9.12-11.36c3.37-3.47,7.02-6.68,11.01-9.34L115.05,86.81z"/>
			</g>
		</g>
	</g>
</g>
<g>
	<g>
		<g>
			<g>
				<path class="st0" d="M130.38,79.32c0.06-0.5-0.31-1.34-0.73-2.04c-0.43-0.73-0.93-1.44-1.44-2.16
					c-0.51-0.72-1.03-1.44-1.54-2.19c-0.5-0.76-1.01-1.53-1.39-2.49l-0.23-0.74c-0.05-0.16-0.1-0.33-0.18-0.48
					c-0.13-0.32-0.34-0.62-0.57-0.92c-0.47-0.6-1.09-1.17-1.74-1.8c-0.65-0.63-1.33-1.32-1.91-2.17c-0.28-0.41-0.55-0.92-0.74-1.33
					l-0.57-1.24c-0.38-0.84-0.71-1.85-0.89-2.77c-0.2-0.92-0.34-1.79-0.5-2.66c-0.08-0.47-0.14-0.69-0.25-0.94
					c-0.09-0.21-0.37-0.62-0.61-1.14c-0.24-0.5-0.41-1.01-0.55-1.49l-0.33-1.31c-0.44-1.58-1.07-3.21-1.74-4.79
					c-0.34-0.79-0.69-1.57-1.07-2.31c-0.11-0.21-0.15-0.29-0.2-0.37c-0.04-0.09-0.12-0.16-0.19-0.22c-0.09-0.06-0.15-0.1-0.25-0.16
					l-0.49-0.29c-1.42-0.77-3.04-1.47-4.64-2.14c-1.61-0.66-3.25-1.29-4.88-1.87c-0.82-0.29-1.64-0.57-2.45-0.83
					c-0.4-0.12-0.81-0.25-1.19-0.35c-0.2-0.06-0.38-0.1-0.55-0.14l-0.23-0.05l-0.08-0.01c-0.01,0-0.03,0-0.03,0l0.01,0
					c0,0.05,0.02-0.09,0.03-0.21c0.02-0.24,0.04-0.48,0.04-0.72c0-0.11-0.01-0.26,0-0.35c0.01-0.07,0.02-0.14,0.02-0.22
					c0-0.15-0.02-0.3-0.08-0.44c-0.16-0.52,1.14,3.58,0.54,1.87l-0.1,0.03c-0.27,0.08-0.57,0.12-0.87,0.14
					c-0.62,0.01-1.09-0.13-1.45-0.25c-0.68-0.25-1.04-0.45-1.44-0.62c-0.76-0.35-1.46-0.63-2.23-0.87
					c-0.17-0.05-0.43-0.14-0.52-0.15c-0.1,0-0.18-0.05-0.28-0.04c-0.2-0.01-0.42,0-0.67,0.05c-0.51,0.1-1.12,0.36-1.75,0.72
					c-0.64,0.36-1.29,0.81-1.98,1.33c-0.36,0.26-0.7,0.52-1.16,0.83c-0.1,0.07-0.24,0.16-0.37,0.24c-0.14,0.08-0.25,0.16-0.48,0.27
					l-0.31,0.14c-0.3-0.73,0.56,1.68-0.69-1.62l0.12,0.35c0.08,0.23,0.18,0.45,0.29,0.67c0.1,0.2,0.25,0.47,0.34,0.6l0.04-0.02
					c0.05-0.04-0.02,0.02-0.04,0.03c-0.11,0.08-0.22,0.16-0.39,0.31l-0.48,0.4l-1.02,0.86c-0.7,0.59-1.42,1.18-2.19,1.75
					c-1.52,1.14-3.15,2.22-4.99,3.09c-1.83,0.86-3.92,1.53-6.22,1.59c-1.52,0.03-2.89,0.3-4.14,0.85l-4.69,2.25
					c-1.55,0.81-3.13,1.56-4.65,2.41c-6.13,3.31-11.89,7.06-16.82,11.72c-2.49,2.32-4.83,4.88-7.27,7.5
					c-1.22,1.31-2.46,2.62-3.74,3.91c-0.34,0.34-0.57,0.62-0.83,0.92l-0.78,0.88c-0.54,0.55-0.98,1.28-1.47,1.92
					c-1.9,2.66-3.55,5.63-5,8.72c-1.5,3.06-2.73,6.29-3.94,9.51c-2.78,7.85-4.96,16.02-6.33,24.31c-0.69,4.14-1.22,8.32-1.37,12.46
					c-0.02,0.51-0.08,1.05-0.06,1.54l0.06,1.46c0.03,0.97,0.03,1.95,0.24,2.92l0.22,1.46c0.07,0.49,0.14,0.98,0.29,1.46l0.76,2.9
					c2.5,7.68,7.15,14.8,12.55,21.26c1.35,1.63,2.76,3.21,4.21,4.79l2.24,2.45c0.41,0.47,0.98,1.13,1.36,1.99
					c0.15,0.35,0.26,0.65,0.38,0.99c0.11,0.31,0.18,0.6,0.27,0.89c0.64,2.32,1.01,4.47,1.37,6.67l0.48,3.27l0.22,1.63l0.09,0.73
					l0.02,0.26c0.01,0.16,0.16,0.27,0.27,0.37c0.08,0.06,0.1,0.07,0.26,0.15c0.16,0.07,0.32,0.14,0.51,0.18
					c0.36,0.1,0.78,0.18,1.22,0.19c0.45,0.03,0.89,0,1.46-0.04c2.14-0.15,4.23-0.73,6.68-1.24c1.21-0.24,2.46-0.43,3.69-0.55
					l1.79-0.16c0.59-0.05,1.32-0.09,1.97-0.06c2.38,0.12,4.64,0.17,6.99,0.2c4.6,0.12,9.16-0.27,13.75-0.84
					c4.57-0.61,9.13-1.39,13.56-2.54c0,0,0.63-0.17,1.59-0.42c0.94-0.29,2.21-0.64,3.41-1.12c1.22-0.44,2.39-1,3.18-1.5
					c0.44-0.22,0.67-0.5,0.88-0.65c0.2-0.17,0.32-0.26,0.32-0.26l0.38,0.32l-0.73,0.74c-0.24,0.25-0.55,0.42-0.83,0.63
					c-0.55,0.44-1.18,0.74-1.79,1.09c-1.24,0.65-2.53,1.21-3.83,1.72c-2.62,1.01-5.3,1.83-8.01,2.57
					c-5.42,1.43-10.93,2.53-16.56,3.14c-1.4,0.16-2.85,0.25-4.24,0.33l-4.2,0.17c-1.38,0.05-2.88,0.05-4.16,0.07
					c-1.12,0.06-2.65,0.31-3.91,0.51c-1.3,0.22-2.56,0.54-3.89,0.91c-1.32,0.37-2.75,0.77-4.23,1.03c-0.75,0.13-1.46,0.23-2.25,0.3
					c-0.82,0.08-1.68,0.06-2.56-0.06c-0.44-0.06-0.89-0.16-1.34-0.3c-0.45-0.15-0.88-0.3-1.42-0.61c-1-0.56-1.91-1.38-2.37-2.4
					l-0.26-1.72l-0.19-1.12l-0.4-2.24c-0.27-1.49-0.57-2.97-0.9-4.42c-0.33-1.44-0.69-2.92-1.14-4.11
					c-0.11-0.25-0.23-0.58-0.29-0.63c-0.01-0.05-0.09-0.14-0.17-0.22l-0.24-0.27l-1.56-1.6c-4.87-4.9-9.72-10.38-13.67-16.68
					l-0.75-1.18l-0.69-1.23c-0.45-0.82-0.94-1.63-1.36-2.47c-0.81-1.71-1.67-3.41-2.3-5.23c-0.75-1.77-1.2-3.67-1.73-5.54
					c-0.22-0.95-0.35-1.93-0.53-2.9l-0.24-1.46l-0.09-1.49c-0.05-0.99-0.11-1.99-0.13-2.97l0.11-2.81c0.05-1.88,0.28-3.72,0.42-5.57
					c0.44-3.68,0.95-7.33,1.68-10.9c1.41-7.16,3.32-14.11,5.68-20.72c1.27-3.37,2.59-6.75,4.22-10.05c1.57-3.31,3.4-6.57,5.65-9.68
					c0.6-0.77,1.09-1.57,1.79-2.3c0.65-0.72,1.36-1.54,1.97-2.16c1.23-1.23,2.45-2.49,3.68-3.78c2.45-2.57,4.96-5.24,7.73-7.75
					c5.52-5.07,11.93-9.02,18.37-12.31c1.61-0.85,3.25-1.59,4.88-2.38l2.46-1.1l1.23-0.55c0.43-0.19,0.76-0.35,1.3-0.57
					c2-0.81,4.2-1.11,6.15-1.08c1.28,0.01,2.69-0.35,4.08-0.94c1.41-0.61,2.81-1.45,4.17-2.41c0.68-0.47,1.36-0.99,2.04-1.52
					c0.71-0.55,1.31-1.06,2.26-1.73l0.19-0.13c0.12-0.07,0.24-0.14,0.36-0.2c0.12-0.06,0.25-0.12,0.37-0.18
					c-0.03-0.15,0.54,1.37,0.27,0.65l-0.05-0.14l-0.1-0.28l-0.1-0.24l0,0l0.01,0l0.08-0.05c0.06-0.04,0.11-0.05,0.19-0.11
					c0.3-0.19,0.66-0.43,1.04-0.69c0.75-0.51,1.57-1.05,2.48-1.52c0.92-0.47,1.94-0.91,3.14-1.12c0.6-0.1,1.25-0.14,1.91-0.06
					c0.33,0.01,0.66,0.12,0.99,0.19c0.18,0.04,0.32,0.09,0.42,0.13l0.34,0.12c0.91,0.32,1.83,0.73,2.67,1.16
					c0.41,0.21,0.83,0.43,1.04,0.52c0.06,0.03,0.07,0.03,0.09,0.04c-0.02,0.05-0.07,0.24-0.08,0.36l-0.01,0.1l-0.01,0.04l-0.01,0.09
					l0,0.08l0-0.01c0,0,0,0.01-0.02-0.09l-0.03-0.1l-0.02-0.05c-0.05-0.17,0.1,0.36-0.11-0.39l0.11-0.03
					c0.26-0.07,0.72-0.09,0.75-0.07l0.36,0.04l0.24,0.05c0.17,0.03,0.29,0.06,0.43,0.1c0.27,0.07,0.5,0.14,0.73,0.21
					c0.46,0.15,0.9,0.3,1.34,0.46c0.87,0.31,1.71,0.65,2.55,0.99c1.68,0.69,3.33,1.41,4.96,2.18c1.64,0.78,3.25,1.56,4.88,2.55
					c0.2,0.12,0.41,0.26,0.62,0.4c0.21,0.14,0.52,0.37,0.75,0.57c0.24,0.21,0.45,0.46,0.61,0.74c0.15,0.26,0.32,0.62,0.4,0.8
					c0.39,0.86,0.71,1.71,1.03,2.57c0.62,1.72,1.18,3.44,1.58,5.27l0.25,1.31c0.08,0.39,0.18,0.76,0.31,1.1
					c0.12,0.34,0.32,0.66,0.55,1.21c0.22,0.53,0.31,1.12,0.36,1.56c0.1,0.88,0.2,1.77,0.32,2.62c0.12,0.85,0.3,1.6,0.6,2.42
					l0.46,1.22c0.16,0.42,0.31,0.74,0.51,1.11c0.39,0.7,0.94,1.35,1.53,2c0.58,0.65,1.22,1.31,1.76,2.1
					c0.27,0.39,0.51,0.82,0.67,1.28c0.09,0.23,0.15,0.47,0.2,0.71l0.14,0.61c0.52,1.59,1.55,3.11,2.43,4.63
					c0.45,0.77,0.91,1.54,1.3,2.34c0.37,0.79,0.77,1.68,0.59,2.52L130.38,79.32z"/>
			</g>
		</g>
	</g>
</g>
<g>
	<g>
		<g>
			<g>
				<path class="st0" d="M98.29,35.2c1.32,0.15,2.79-0.16,3.67-0.93c0.22-0.19,0.41-0.41,0.58-0.65c0.19-0.28,0.37-0.57,0.56-0.89
					c0.37-0.62,0.73-1.28,1.08-1.93c1.41-2.64,2.77-5.34,4.11-8.04l0.99-2.02c0.13-0.26,0.26-0.6,0.41-0.95l0.44-1.04l1.77-4.18
					l1.75-4.18l0.84-2.07l0.39-1.01c0.07-0.17,0.11-0.31,0.16-0.46c0.07-0.18,0.05-0.19,0.06-0.22l0.05-0.79
					c0.03-0.39,0.06-0.81,0.12-1.3c0.03-0.24,0.08-0.52,0.16-0.83c0.1-0.34,0.16-0.67,0.5-1.25c0.06-0.11,0.2-0.31,0.34-0.47
					c0.07-0.09,0.13-0.15,0.23-0.25c0.11-0.1,0.22-0.2,0.34-0.28c0.26-0.19,0.46-0.3,0.66-0.38c0.1-0.04,0.22-0.09,0.31-0.12
					l0.24-0.07c0.65-0.16,1.08-0.14,1.38-0.13c1.41,0.07,2.81,0.62,3.88,1.57c0.53,0.45,0.98,1.1,1.26,1.63
					c0.12,0.22,0.24,0.44,0.37,0.73c0.12,0.26,0.26,0.65,0.35,0.98c0.41,1.38,0.22,2.9-0.41,4.2c-0.15,0.29-0.3,0.58-0.45,0.81
					l-0.06,0.09l-0.03,0.05l-0.01,0.02c-0.87-0.59,1.92,1.34-1.95-1.31c0.02,0.02,0.04,0.03,0.06,0.03c0-0.01,0.08,0.03,0.15,0.04
					c0.08,0.02,0.1,0,0.22,0.01c0.41,0.02,0.94-0.1,1.66-0.34l0.22-0.08l0,0c0-0.01,0,0.01,0.01,0.02l0.04,0.08
					c0.18,0.32,0.56,0.84,0.98,1.33c0.42,0.5,0.89,1.01,1.38,1.52c0.98,1.01,2.04,2.01,3.12,2.99c0.54,0.48,1.09,0.97,1.63,1.42
					l0.39,0.32l0.23,0.15l0.87,0.54c2.59,1.53,5.17,3.07,7.75,4.6c2.42,1.45,4.85,2.92,7.27,4.46c1.21,0.77,2.43,1.56,3.65,2.41
					c0.62,0.43,1.23,0.86,1.9,1.4c0.16,0.12,0.35,0.29,0.54,0.45c0.09,0.08,0.19,0.16,0.32,0.3l0.18,0.19l0.09,0.09l0.04,0.05
					l0.08,0.1c0.11,0.14,0.22,0.29,0.32,0.44l0.14,0.23c1.7-0.87-2.29,1.26-1.79,1l0.2-0.09l0.39-0.19
					c0.26-0.13,0.51-0.27,0.76-0.41l0.37-0.22c0.07-0.04,0.13-0.08,0.1-0.06l0,0l0-0.01c0.01,0.01-0.03-0.03,0,0.02l0.14,0.17
					c0.74,0.9,1.76,2,2.7,3.06c0.96,1.06,1.92,2.15,2.87,3.25c1.89,2.21,3.74,4.51,5.44,6.97c1.68,2.48,3.29,5.07,4.32,8.22
					l0.36,1.2l0.23,1.1c0.16,0.74,0.28,1.46,0.4,2.18c0.24,1.45,0.44,2.88,0.62,4.31c0.7,5.72,1.11,11.4,1.36,17.04l0.12,4.57
					l-0.5,0.05c-1.36-5.98-2.7-11.89-4.03-17.77c-0.69-2.93-1.38-5.87-2.19-8.69l-0.32-1.04l-0.16-0.52l-0.19-0.45l-0.36-0.89
					l-0.47-0.89c-0.62-1.19-1.42-2.37-2.25-3.53c-1.63-2.22-3.54-4.42-5.55-6.61c-2.02-2.2-4.13-4.31-6.33-6.63l-0.42-0.45
					L151,36.45l-0.23-0.26c-0.07-0.08-0.22-0.29-0.32-0.44l-0.32-0.49l-0.02-0.03l-0.01-0.02c4.63-2.43,1.25-0.66,2.27-1.2l-0.2,0.1
					c-0.13,0.07-0.26,0.15-0.38,0.24c-0.27,0.18-0.4,0.36-0.69,0.64l-0.52,0.45l-0.21,0.19l0,0l-0.01-0.01l-0.11-0.09
					c-0.07-0.07-0.21-0.16-0.33-0.26c-0.25-0.19-0.53-0.39-0.82-0.59c-1.17-0.8-2.46-1.6-3.72-2.39c-2.55-1.57-5.12-3.1-7.62-4.6
					c-2.56-1.56-5.13-3.09-7.77-4.76l-1.04-0.69l-0.3-0.21l-0.4-0.31l-0.49-0.42c-0.61-0.54-1.19-1.07-1.77-1.62
					c-1.15-1.09-2.27-2.22-3.37-3.43c-0.55-0.61-1.09-1.24-1.62-1.92c-0.53-0.7-1.06-1.41-1.58-2.45l-0.19-0.44
					c-0.06-0.16-0.13-0.36-0.19-0.53c-0.06-0.19-0.12-0.46-0.16-0.69c-0.04-0.3-0.06-0.6-0.03-0.98c0.05-0.43,0.12-0.83,0.38-1.34
					c0.06-0.12,0.12-0.23,0.19-0.34l0.06-0.09l0.04-0.06c0.06-0.08,0.08-0.13,0.11-0.17c0.06-0.06,0.09-0.16,0.09-0.26
					c0.01-0.01-0.04-0.18-0.17-0.44c-0.04-0.1-0.04-0.12-0.09-0.18c-0.07-0.09-0.18-0.16-0.31-0.2c0,0-0.01,0-0.02,0l-0.01,0
					l-0.01,0c0,0.36,0-0.48,0-0.41l0-0.03l-0.02-0.41c-0.02-0.28-0.06-0.56-0.13-0.8c-0.06-0.14-0.06-0.22-0.12-0.32l-0.04-0.07
					l-0.07-0.11l0.01,0.01l0.01,0.02c0.02,0.03,0.03,0.05,0.05,0.07c0.03,0.02,0.12,0.13,0.2,0.18c0.07,0.04,0.2,0.14,0.33,0.21
					c0.23,0.11,0.64,0.33,1.01,0.43c0.34,0.13,0.22,0.09,0.24,0.1c0,0-0.01,0.01-0.01,0.03c-0.02,0.06-0.05,0.17-0.08,0.3
					c-0.06,0.26-0.11,0.6-0.16,0.96c-0.07,0.4-0.06,0.67-0.25,1.41c-0.19,0.73-0.38,1.05-0.54,1.44l-0.51,1.08L118,12.35
					c-0.7,1.36-1.41,2.71-2.14,4.05l-2.2,4l-0.56,1c-0.19,0.33-0.36,0.65-0.61,1.06l-1.26,1.93c-1.69,2.54-3.42,5.06-5.27,7.5
					c-0.47,0.61-0.94,1.22-1.44,1.81c-0.48,0.57-1.04,1.24-1.78,1.66c-1.47,0.83-3.16,0.78-4.58,0.32L98.29,35.2z"/>
			</g>
		</g>
	</g>
</g>
<g>
	<g>
		<g>
			<g>
				<path class="st0" d="M106.39,38.56c0.46-2.15,1.09-4.24,1.98-6.3c0.44-1.02,0.99-2.07,1.63-3.03c0.48-0.77,0.9-1.69,1.3-2.62
					c0.79-1.87,1.46-3.86,2.14-5.86c0.35-1.03,0.64-1.98,1.11-3.15c0.81-1.66,0.81-1.73,1.68-3.44l1.34-2.58l1.43-2.56
					c0.38-1.52,1.24-0.05,1.93,0.4c0.73,0.63,1.46,1.25,2.2,1.92c0.72,0.65,1.53,1.4,2.16,2.01l1.26,1.22
					c0.8,0.8,1.58,1.62,2.35,2.54c0.39,0.46,0.77,0.94,1.15,1.49c0.15,0.2,0.47,0.73,0.72,1.18c0.23,0.46,0.46,0.94,0.58,1.44
					c0.13,0.49,0.19,1,0.16,1.51c-0.01,0.13-0.07,0.25-0.04,0.38l-0.1,0.37c-0.08,0.24-0.11,0.49-0.24,0.72
					c-0.22,0.46-0.44,0.98-0.7,1.38c-0.15,0.27-0.3,0.53-0.45,0.76c-1.18,1.93-2.32,3.64-3.26,5.35c-0.45,0.78-0.83,1.56-1.09,2.24
					c-0.07,0.17-0.13,0.34-0.16,0.47c-0.04,0.14-0.09,0.29-0.09,0.35c-0.01,0.04-0.02,0.08-0.03,0.12l-0.04,0.37l-0.08,0.78
					c-0.22,2.03-0.44,3.9-0.49,5.71c-0.02,0.9-0.01,1.78,0.07,2.62c0.04,0.42,0.09,0.84,0.16,1.24c0.08,0.42,0.14,0.75,0.28,1.26
					c0.48,1.91,0.99,3.83,1.53,5.74c0.54,1.91,1.09,3.81,1.69,5.66l1.95,5.67c1.29,3.81,2.52,7.64,3.67,11.46l0.87,3.12l-0.46,0.19
					c-2.32-3.67-4.48-7.4-6.53-11.18c-1.03-1.89-2.03-3.79-3.01-5.7c-1.01-1.95-1.9-3.99-2.72-6.01c-0.8-1.95-1.55-3.97-2.26-6.05
					l-0.52-1.57c-0.18-0.57-0.36-1.23-0.48-1.84c-0.26-1.25-0.4-2.49-0.46-3.71c-0.11-2.43,0.09-4.76,0.27-6.88l0.06-0.78l0.03-0.38
					c0.01-0.12,0.01-0.23,0.05-0.49c0.11-0.92,0.32-1.64,0.55-2.28c0.47-1.29,1.01-2.34,1.56-3.32c1.14-1.99,2.41-3.81,3.51-5.51
					l0.38-0.61c0.04-0.06,0.03-0.03,0.04-0.04c0.02-0.01,0.03-0.03,0.04-0.05l0-0.04c0-0.02,0.03,0.03-0.12-0.21
					c-0.22-0.35-0.48-0.72-0.77-1.1c-0.58-0.76-1.23-1.53-1.91-2.3l-0.96-1.07l-0.07-0.09l-0.02-0.05l-0.06-0.1l-0.15-0.24
					c-0.06-0.08-0.14-0.25-0.18-0.15c-0.1,0.07-0.25,0.21-0.45,0.43l-0.07,0.08c-0.03,0.03-0.13,0.21-0.2,0.31l-0.44,0.7l-0.73,1.14
					c-0.43,0.79-0.91,1.83-1.39,2.78c-0.97,1.94-1.98,3.9-3.2,5.78c-0.61,0.94-1.26,1.87-2.09,2.75c-0.72,0.73-1.36,1.5-1.99,2.35
					c-1.24,1.69-2.35,3.53-3.36,5.45L106.39,38.56z"/>
			</g>
		</g>
	</g>
</g>
<g>
	<g>
		<g>
			<g>
				<path class="st0" d="M131.2,23.17c3.7,3.73,7.14,7.72,10.35,11.92c3.19,4.21,6.19,8.59,8.71,13.3c0.54,1.13,1.16,2.21,1.63,3.4
					c0.25,0.59,0.5,1.17,0.74,1.76l0.61,1.85c0.7,2.42,1.26,4.78,1.87,7.19c1.17,4.8,2.24,9.62,3.15,14.41l0.33,1.94l-0.24,0.07
					c-2.1-4.85-3.88-9.78-5.54-14.75c-0.81-2.39-1.61-4.93-2.39-7.48c-0.78-2.36-1.9-4.7-3.03-6.88c-2.34-4.48-5.22-8.98-7.94-13.32
					c-2.8-4.39-5.67-8.76-8.45-13.24L131.2,23.17z"/>
			</g>
		</g>
	</g>
</g>
<g>
	<g>
		<g>
			<g>
				<path class="st0" d="M135.73,29.42c-1.74,2.39-3.8,4.3-5.44,6.24c-0.39,0.44-0.73,0.89-1.02,1.31c-0.37,0.56-0.81,1.21-1.3,1.73
					c-0.99,1.08-2.2,1.97-3.56,2.48c0,0-0.14,0.04-0.29,0.08c-0.15,0.04-0.3,0.08-0.3,0.08l-0.13-0.21
					c0.76-1.38,1.37-2.58,1.96-3.77c0.29-0.63,0.56-1.21,0.81-1.77c0.38-0.77,0.86-1.49,1.36-2.05c1.04-1.16,2.24-2.12,3.53-2.82
					c1.29-0.73,2.68-1.3,4.24-1.51L135.73,29.42z"/>
			</g>
		</g>
	</g>
</g>
<g>
	<g>
		<g>
			<g>
				<path class="st0" d="M140.38,35.66c-1.04,1.6-2.23,3.06-3.52,4.42c-0.65,0.68-1.32,1.33-2.02,1.96
					c-0.35,0.31-0.71,0.62-1.08,0.93l-0.56,0.45c-0.1,0.11-0.2,0.16-0.32,0.31c-0.43,0.45-0.89,1.08-1.31,1.74
					c-0.42,0.67-0.85,1.36-1.24,2.09c-0.78,1.44-1.61,2.94-2.14,4.45c-0.02,0-0.18,0.61-0.17,0.62l-0.24,0.05
					c-0.49-0.87-0.54-1.96-0.51-2.92c0.04-0.99,0.21-1.96,0.47-2.9c0.51-1.83,1.3-3.76,2.82-5.4c0.18-0.2,0.47-0.41,0.71-0.61
					l0.55-0.39c0.36-0.26,0.73-0.52,1.1-0.79c0.74-0.53,1.5-1.06,2.28-1.54c1.56-1,3.18-1.94,5.01-2.65L140.38,35.66z"/>
			</g>
		</g>
	</g>
</g>
<g>
	<g>
		<g>
			<g>
				<path class="st0" d="M144.87,42.91c-1.17,2.14-2.39,4.22-3.61,6.26c-1.21,2.04-2.43,4.07-3.35,6.09c-0.22,0.48-0.4,0.9-0.6,1.43
					c-0.2,0.52-0.4,1.04-0.6,1.56c-0.4,1.05-0.82,2.09-1.24,3.14c-0.86,2.1-1.79,4.18-2.82,6.2l-0.45,0.81l-0.24-0.07
					c-0.02-2.51,0.33-4.94,0.84-7.33c0.24-1.15,0.54-2.36,0.9-3.55c0.36-1.18,0.73-2.37,1.27-3.56c1.12-2.31,2.59-4.4,4.21-6.22
					c1.63-1.85,3.42-3.55,5.52-4.94L144.87,42.91z"/>
			</g>
		</g>
	</g>
</g>
<g>
	<g>
		<g>
			<g>
				<path class="st0" d="M139.32,67.72c-0.04-1.67,0.29-3.29,0.82-4.83c0.26-0.77,0.58-1.52,0.94-2.25
					c0.35-0.73,0.75-1.42,1.27-2.18c1.99-2.65,4.98-4.28,8.03-4.68l0.64-0.03l0.08,0.24c-1.19,1.22-2.29,2.26-3.35,3.29
					c-1,1-2.03,2.09-2.8,3.12c-0.37,0.5-0.8,1.13-1.22,1.76c-0.42,0.62-0.85,1.25-1.29,1.86c-0.88,1.25-1.79,2.48-2.88,3.77
					L139.32,67.72z"/>
			</g>
		</g>
	</g>
</g>
<g>
	<g>
		<g>
			<g>
				<path class="st0" d="M153.9,63.3c-0.94,0.89-1.71,1.84-2.29,2.76c-0.58,0.95-0.98,1.83-1.26,2.92
					c-0.69,2.34-1.77,4.64-3.44,6.58l-0.37,0.38l-0.23-0.09c-0.18-1.46-0.09-2.78,0.1-4.06c0.16-1.24,0.49-2.56,0.83-3.72
					c0.4-1.37,1.29-2.86,2.48-3.74c1.18-0.92,2.65-1.46,4.1-1.26L153.9,63.3z"/>
			</g>
		</g>
	</g>
</g>
<g>
	<g>
		<g>
			<g>
				<path class="st0" d="M155.49,68.57c-0.27,1.51-0.88,2.44-1.51,3.27c-0.31,0.37-0.65,0.71-1.02,1.01
					c-0.38,0.31-0.82,0.57-1.33,0.95l-0.25,0.16l-0.25-0.03c-0.62-0.7-0.68-1.58-0.55-2.3c0.11-0.73,0.49-1.38,0.9-1.88
					c0.45-0.49,0.97-0.92,1.62-1.16c0.63-0.25,1.34-0.4,2.23-0.23L155.49,68.57z"/>
			</g>
		</g>
	</g>
</g>
<g>
	<g>
		<g>
			<g>
				<path class="st0" d="M133.56,26.22c2.18-0.55,4.24-0.26,6.2,0.34c1.78,0.61,3.68,1.57,4.87,3.42l0.2,0.39l-0.16,0.2
					c-1.21-0.05-2.17-0.08-3.14-0.25c-0.93-0.13-1.91-0.4-2.79-0.68c-0.89-0.33-1.82-0.69-2.68-1.2c-0.88-0.5-1.74-1.09-2.56-1.97
					L133.56,26.22z"/>
			</g>
		</g>
	</g>
</g>
<g>
	<g>
		<g>
			<g>
				<path class="st0" d="M137.57,31.45c3.07-0.19,5.98,0.51,8.73,1.57c1.28,0.51,2.54,1.15,3.73,1.95c1.18,0.8,2.3,1.8,3.1,3.04
					l0.29,0.52l-0.18,0.18c-1.52-0.48-2.86-0.81-4.2-1.26c-1.3-0.4-2.69-0.93-3.95-1.43c-1.28-0.55-2.61-1.13-3.86-1.83
					c-1.27-0.69-2.52-1.46-3.73-2.51L137.57,31.45z"/>
			</g>
		</g>
	</g>
</g>
<g>
	<g>
		<g>
			<g>
				<path class="st0" d="M144.14,40.82c2.73,0.42,5.4,1.15,7.99,2.16c2.59,1.02,5.11,2.26,7.44,4.14c0.53,0.47,1.06,0.96,1.54,1.59
					c0.27,0.32,0.42,0.55,0.6,0.81l0.54,0.77c0.71,1.02,1.43,2.05,2.17,3.1c1.44,2.09,2.85,4.23,4.14,6.42l0.5,0.91l-0.19,0.16
					c-2.3-1.6-4.32-3.46-6.21-5.44c-0.92-0.95-1.85-1.99-2.73-3.08c-0.44-0.52-0.89-1.15-1.28-1.6c-0.19-0.2-0.34-0.4-0.54-0.6
					c-0.21-0.19-0.43-0.39-0.63-0.58c-1.83-1.56-4.19-2.93-6.43-4.29c-2.3-1.36-4.64-2.7-6.97-4.24L144.14,40.82z"/>
			</g>
		</g>
	</g>
</g>
<g>
	<g>
		<g>
			<g>
				<path class="st0" d="M150.66,50.98c3.92,2.27,7.32,5.11,10.56,8.09c1.49,1.4,2.96,2.87,4.36,4.43c0.9,0.92,1.43,1.78,2.01,2.7
					c0.56,0.91,1.07,1.84,1.52,2.8l0.33,0.82l-0.21,0.13c-0.92-0.71-1.82-1.39-2.67-2.12c-0.85-0.7-1.69-1.48-2.46-2.07
					c-0.15-0.09-0.38-0.27-0.59-0.44l-0.65-0.51c-0.44-0.36-0.87-0.72-1.3-1.08c-0.86-0.73-1.7-1.49-2.48-2.22
					c-1.58-1.53-3.19-3.15-4.61-4.85c-1.45-1.7-2.83-3.49-3.98-5.49L150.66,50.98z"/>
			</g>
		</g>
	</g>
</g>
<g>
	<g>
		<g>
			<g>
				<path class="st0" d="M154,61.23c3.72,1.6,6.98,3.82,10.09,6.19c0.72,0.56,1.43,1.14,2.13,1.74c1.02,0.84,1.51,1.66,2.05,2.48
					c1.02,1.65,1.8,3.38,2.41,5.16l0.21,0.74l-0.21,0.13c-1.63-1.31-3-2.75-4.32-4.15c-0.33-0.33-0.65-0.66-0.97-0.99
					c-0.31-0.29-0.68-0.65-0.87-0.76c-0.77-0.54-1.62-1.17-2.36-1.74c-1.52-1.23-3.08-2.54-4.45-3.96
					c-1.41-1.41-2.74-2.91-3.87-4.66L154,61.23z"/>
			</g>
		</g>
	</g>
</g>
<g>
	<g>
		<g>
			<g>
				<path class="st0" d="M156.54,72.03c2.5-0.09,4.77,0.7,6.82,2.21c0.23,0.19,0.46,0.39,0.69,0.61c0.22,0.23,0.46,0.49,0.6,0.68
					c0.33,0.41,0.65,0.84,0.94,1.28c0.59,0.89,1.11,1.86,1.5,2.92l0.14,0.45l-0.18,0.17c-1.28-0.34-2.32-0.91-3.26-1.57
					c-0.46-0.31-0.92-0.68-1.35-1.06c-0.11-0.1-0.21-0.19-0.31-0.28l-0.25-0.22c-0.18-0.15-0.36-0.29-0.53-0.43
					c-0.73-0.62-1.61-1.24-2.42-1.97c-0.84-0.72-1.68-1.5-2.47-2.54L156.54,72.03z"/>
			</g>
		</g>
	</g>
</g>
<g>
	<g>
		<path class="st1" d="M33.81,94.49"/>
	</g>
</g>
<g>
	<g>
		<g>
			<g>
				<path class="st0" d="M39.44,104.06c0.82-0.64,1.09-0.73,1.22-0.67c0.09,0.08-0.02,0.36-0.54,1.05c0,0-0.13,0.16-0.13,0.16
					l-0.18,0.18c-0.54,0.45-0.85,0.67-1.07,0.79c-0.22,0.13-0.33,0.15-0.38,0.11c-0.02-0.07-0.01-0.17,0.13-0.4
					c0.13-0.22,0.34-0.52,0.77-1.04L39.44,104.06z"/>
			</g>
		</g>
	</g>
</g>
<g>
	<g>
		<g>
			<g>
				<path class="st0" d="M39.27,112.19c1-0.38,1.38-0.3,1.59-0.1c0.16,0.21,0.11,0.6-0.42,1.33c0,0-0.13,0.17-0.13,0.17l-0.2,0.15
					c-0.65,0.3-1.04,0.41-1.32,0.43c-0.29,0.04-0.45-0.04-0.54-0.14c-0.06-0.14-0.09-0.3,0.05-0.57c0.11-0.26,0.31-0.59,0.77-1.11
					L39.27,112.19z"/>
			</g>
		</g>
	</g>
</g>
<g>
	<g>
		<g>
			<g>
				<path class="st0" d="M43.83,118.62c1.07,0.27,1.4,0.46,1.55,0.76c0.1,0.28-0.04,0.63-0.59,1.39l-0.14,0.17l-0.21,0.13
					c-0.72,0.19-1.17,0.13-1.5,0c-0.34-0.12-0.53-0.36-0.62-0.61c-0.05-0.27-0.07-0.56,0.14-0.87c0.18-0.31,0.49-0.63,1.13-0.93
					L43.83,118.62z"/>
			</g>
		</g>
	</g>
</g>
<g>
	<g>
		<g>
			<g>
				<path class="st0" d="M36.51,121.52c1.07-0.17,1.49,0.25,1.6,0.65c0.07,0.39-0.2,0.88-1.09,1.1l-0.21,0.04l-0.25-0.03
					c-0.68-0.22-1.05-0.32-1.29-0.39c-0.25-0.07-0.35-0.12-0.36-0.18c0.03-0.07,0.08-0.14,0.32-0.3c0.21-0.15,0.52-0.36,1.06-0.78
					L36.51,121.52z"/>
			</g>
		</g>
	</g>
</g>
<g>
	<g>
		<g>
			<g>
				<path class="st0" d="M26.22,123.25c1.07,0.42,1.3,1.14,1.22,1.73c-0.1,0.55-0.58,1.09-1.57,1.14l-0.23-0.01L25.42,126
					c-0.52-0.53-0.8-0.83-0.97-1.08c-0.18-0.24-0.22-0.42-0.2-0.58c0.07-0.15,0.16-0.3,0.44-0.45c0.26-0.16,0.62-0.34,1.27-0.63
					L26.22,123.25z"/>
			</g>
		</g>
	</g>
</g>
<g>
	<g>
		<path class="st1" d="M24.03,109.42"/>
	</g>
</g>
<g>
	<g>
		<g>
			<g>
				<path class="st0" d="M29.16,102.7c0.95,0.43,1.16,0.68,1.16,0.87c-0.04,0.17-0.35,0.27-1.22,0.23c0,0-0.21-0.02-0.21-0.02
					l-0.24-0.06c-0.66-0.26-1-0.45-1.21-0.6c-0.22-0.15-0.28-0.27-0.26-0.36c0.06-0.08,0.15-0.16,0.44-0.18
					c0.26-0.03,0.63-0.03,1.31,0.04L29.16,102.7z"/>
			</g>
		</g>
	</g>
</g>
<g>
	<g>
		<g>
			<g>
				<path class="st0" d="M27.86,88.59c0.95,0.43,1.16,0.68,1.16,0.87c-0.04,0.17-0.35,0.28-1.22,0.24c0,0-0.21-0.02-0.21-0.02
					l-0.24-0.06c-0.66-0.26-1-0.44-1.21-0.59c-0.22-0.15-0.28-0.27-0.27-0.36c0.06-0.08,0.15-0.16,0.44-0.18
					c0.26-0.03,0.63-0.03,1.31,0.04L27.86,88.59z"/>
			</g>
		</g>
	</g>
</g>
<g>
	<g>
		<g>
			<g>
				<path class="st0" d="M22.97,102.93c0.99,0.65,1.09,1.46,0.9,2.11c-0.21,0.59-0.79,1.11-1.81,1.07l-0.23-0.03l-0.2-0.15
					c-0.42-0.63-0.62-1-0.73-1.3c-0.13-0.3-0.13-0.51-0.07-0.69c0.1-0.17,0.22-0.33,0.53-0.48c0.29-0.16,0.67-0.31,1.37-0.53
					L22.97,102.93z"/>
			</g>
		</g>
	</g>
</g>
<g>
	<g>
		<g>
			<g>
				<path class="st0" d="M45.98,90.3c0.96-0.38,1.24-0.4,1.33-0.34c0.04,0.08-0.15,0.29-0.88,0.77c0,0-0.18,0.11-0.18,0.11
					l-0.22,0.11c-0.65,0.28-1,0.4-1.24,0.46c-0.25,0.07-0.35,0.06-0.38,0.02c0.01-0.06,0.05-0.14,0.27-0.31
					c0.2-0.16,0.49-0.36,1.07-0.72L45.98,90.3z"/>
			</g>
		</g>
	</g>
</g>
<g>
	<g>
		<g>
			<g>
				<path class="st0" d="M41.14,79.02c0.91,0.16,1.18,0.02,1.22,0.02c0,0-0.28,0.08-0.87,0.71l-0.14,0.15l-0.19,0.17
					c-0.6,0.39-1,0.46-1.29,0.44c-0.3-0.02-0.47-0.18-0.53-0.36c-0.02-0.2,0.01-0.42,0.26-0.64c0.23-0.21,0.61-0.42,1.31-0.5
					L41.14,79.02z"/>
			</g>
		</g>
	</g>
</g>
<g>
	<g>
		<g>
			<g>
				<path class="st0" d="M50.07,85.25c1.09-0.43,1.79-0.03,2.16,0.5c0.33,0.51,0.35,1.28-0.34,2.01l-0.17,0.15l-0.24,0.06
					c-0.75-0.07-1.16-0.12-1.45-0.2c-0.3-0.07-0.46-0.18-0.55-0.31c-0.06-0.16-0.1-0.34-0.01-0.65c0.07-0.3,0.19-0.69,0.44-1.37
					L50.07,85.25z"/>
			</g>
		</g>
	</g>
</g>
<g>
	<g>
		<g>
			<g>
				<path class="st0" d="M58.56,98.77c1.16,0.47,1.53,1.25,1.61,2.01c0.04,0.71-0.25,1.48-1.17,2.05l-0.22,0.11l-0.25-0.03
					c-0.67-0.42-1.01-0.75-1.25-1.06c-0.24-0.3-0.33-0.62-0.36-0.9c0.02-0.3,0.07-0.61,0.29-0.94c0.2-0.34,0.5-0.71,1.09-1.18
					L58.56,98.77z"/>
			</g>
		</g>
	</g>
</g>
<g>
	<g>
		<g>
			<g>
				<path class="st0" d="M52.56,107.25c1.03,0.68,1.29,1.36,1.34,2.04c0,0.63-0.27,1.28-1.13,1.91c0,0-0.21,0.13-0.21,0.13h-0.25
					c-0.71-0.34-1.07-0.68-1.32-1.02c-0.25-0.33-0.34-0.69-0.34-1.02c0.04-0.34,0.11-0.68,0.38-1.02c0.25-0.34,0.6-0.68,1.28-1.02
					H52.56z"/>
			</g>
		</g>
	</g>
</g>
<g>
	<g>
		<path class="st1" d="M49.55,99.38"/>
	</g>
</g>
<g>
	<g>
		<g>
			<g>
				<path class="st0" d="M16.98,125.3c0.96-0.37,1.24-0.4,1.33-0.33c0.04,0.08-0.16,0.29-0.88,0.76c0,0-0.18,0.11-0.18,0.11
					l-0.22,0.11c-0.65,0.27-1.01,0.39-1.24,0.46c-0.25,0.07-0.35,0.06-0.38,0.02c0.01-0.06,0.05-0.14,0.27-0.31
					c0.2-0.16,0.49-0.36,1.08-0.71L16.98,125.3z"/>
			</g>
		</g>
	</g>
</g>
<g>
	<g>
		<g>
			<g>
				<path class="st0" d="M20,139.41c1.06-0.17,1.42-0.01,1.6,0.25c0.12,0.25,0,0.63-0.65,1.26c0,0-0.16,0.14-0.16,0.14l-0.23,0.11
					c-0.7,0.17-1.1,0.19-1.38,0.16c-0.29-0.02-0.44-0.13-0.51-0.26c-0.03-0.15-0.03-0.32,0.15-0.57c0.16-0.24,0.41-0.53,0.96-0.96
					L20,139.41z"/>
			</g>
		</g>
	</g>
</g>
<g>
	<g>
		<g>
			<g>
				<path class="st0" d="M29.78,137.56c1.02-0.18,1.31-0.12,1.4,0c0.04,0.13-0.17,0.34-0.95,0.73c0,0-0.19,0.09-0.19,0.09
					l-0.24,0.08c-0.69,0.15-1.07,0.2-1.32,0.2c-0.26,0.01-0.37-0.03-0.39-0.1c0.01-0.08,0.06-0.17,0.29-0.32
					c0.21-0.14,0.53-0.32,1.15-0.6L29.78,137.56z"/>
			</g>
		</g>
	</g>
</g>
<g>
	<g>
		<g>
			<g>
				<path class="st0" d="M31.67,144.63c1.16,0.29,1.59,0.82,1.81,1.39c0.16,0.55,0.07,1.19-0.59,1.98c0,0-0.17,0.17-0.17,0.17
					l-0.24,0.07c-0.76-0.09-1.21-0.28-1.52-0.51c-0.33-0.21-0.5-0.5-0.59-0.79c-0.05-0.3-0.07-0.63,0.1-0.99
					c0.15-0.37,0.4-0.76,0.97-1.25L31.67,144.63z"/>
			</g>
		</g>
	</g>
</g>
<g>
	<g>
		<path class="st1" d="M37.88,144.18"/>
	</g>
</g>
<g>
	<g>
		<path class="st1" d="M39.24,138.2"/>
	</g>
</g>
<g>
	<g>
		<g>
			<g>
				<path class="st0" d="M43.78,129.31c0.82-0.64,1.09-0.73,1.22-0.67c0.09,0.08-0.02,0.36-0.54,1.05c0,0-0.13,0.16-0.13,0.16
					l-0.18,0.18c-0.54,0.45-0.85,0.67-1.07,0.79c-0.22,0.13-0.33,0.15-0.38,0.11c-0.02-0.07-0.01-0.17,0.13-0.4
					c0.13-0.22,0.34-0.52,0.77-1.04L43.78,129.31z"/>
			</g>
		</g>
	</g>
</g>
<g>
	<g>
		<path class="st1" d="M46.3,136.57"/>
	</g>
</g>
<g>
	<g>
		<g>
			<g>
				<path class="st0" d="M39.51,140.83c1.27,0.61,1.86,1.27,2.34,2.02c0.42,0.71,0.66,1.53,0.61,2.76l-0.03,0.27l-0.18,0.17
					c-0.86,0.11-1.49-0.09-2.01-0.38c-0.52-0.28-0.92-0.74-1.19-1.2c-0.24-0.5-0.44-1.05-0.41-1.65c0.01-0.6,0.15-1.24,0.65-1.92
					L39.51,140.83z"/>
			</g>
		</g>
	</g>
</g>
<g>
	<g>
		<path class="st1" d="M52.27,140.92"/>
	</g>
</g>
<g>
	<g>
		<g>
			<g>
				<path class="st0" d="M52.07,135.01c-0.68-0.77-0.82-1-0.81-1.08c0.04-0.04,0.28,0.11,0.93,0.67c0,0,0.15,0.14,0.15,0.14
					l0.18,0.18c0.48,0.52,0.71,0.81,0.86,1c0.16,0.2,0.19,0.29,0.18,0.31c-0.05,0-0.12-0.03-0.34-0.2c-0.2-0.15-0.47-0.38-0.97-0.84
					L52.07,135.01z"/>
			</g>
		</g>
	</g>
</g>
<g>
	<g>
		<path class="st1" d="M56.88,125.98"/>
	</g>
</g>
<g>
	<g>
		<g>
			<g>
				<path class="st0" d="M59.98,117.79c1.14-0.71,2.23-0.48,3.05,0.03c0.75,0.51,1.31,1.39,1.18,2.58l-0.05,0.26l-0.19,0.16
					c-0.81,0.13-1.32,0.13-1.75,0.06c-0.42-0.04-0.75-0.2-1.03-0.38c-0.26-0.22-0.51-0.46-0.71-0.85c-0.21-0.38-0.4-0.85-0.59-1.62
					L59.98,117.79z"/>
			</g>
		</g>
	</g>
</g>
<g>
	<g>
		<g>
			<g>
				<path class="st0" d="M63.42,127.61c1.03,0.18,1.29,0.36,1.34,0.54c0,0.17-0.27,0.34-1.13,0.51c0,0-0.21,0.03-0.21,0.03h-0.25
					c-0.71-0.09-1.07-0.18-1.32-0.27c-0.25-0.09-0.34-0.18-0.34-0.27c0.04-0.09,0.11-0.18,0.38-0.27c0.25-0.09,0.6-0.18,1.28-0.27
					H63.42z"/>
			</g>
		</g>
	</g>
</g>
<g>
	<g>
		<g>
			<g>
				<path class="st0" d="M62.89,146.24c1.12,0.07,1.52,0.63,1.62,1.16c0.05,0.5-0.24,1.09-1.16,1.39l-0.22,0.05l-0.25-0.04
					c-0.66-0.32-1.02-0.51-1.25-0.67c-0.25-0.16-0.34-0.29-0.36-0.43c0.02-0.14,0.08-0.29,0.31-0.49c0.21-0.21,0.51-0.45,1.08-0.88
					L62.89,146.24z"/>
			</g>
		</g>
	</g>
</g>
<g>
	<g>
		<g>
			<g>
				<path class="st0" d="M50.11,157.48c1.03,0.72,1.29,1.45,1.34,2.17c0,0.67-0.27,1.36-1.13,2.04c0,0-0.21,0.14-0.21,0.14h-0.25
					c-0.71-0.36-1.07-0.72-1.32-1.09c-0.25-0.35-0.34-0.74-0.34-1.09c0.04-0.36,0.11-0.73,0.38-1.09c0.25-0.36,0.6-0.72,1.28-1.09
					H50.11z"/>
			</g>
		</g>
	</g>
</g>
<g>
	<g>
		<g>
			<g>
				<path class="st0" d="M39.49,162.24c0.97-0.37,1.24-0.39,1.33-0.33c0.04,0.08-0.16,0.29-0.88,0.76c0,0-0.18,0.11-0.18,0.11
					l-0.22,0.11c-0.65,0.27-1.01,0.39-1.24,0.45c-0.25,0.07-0.35,0.06-0.38,0.02c0.01-0.06,0.05-0.14,0.27-0.31
					c0.2-0.16,0.49-0.36,1.08-0.71L39.49,162.24z"/>
			</g>
		</g>
	</g>
</g>
<g>
	<g>
		<g>
			<g>
				<path class="st0" d="M21.41,155.77c0.79-0.66,1.02-0.8,1.1-0.78c0.04,0.04-0.11,0.27-0.69,0.91c0,0-0.14,0.15-0.14,0.15
					l-0.18,0.17c-0.53,0.46-0.82,0.69-1.02,0.84c-0.2,0.15-0.29,0.19-0.32,0.17c0.01-0.05,0.03-0.12,0.21-0.33
					c0.16-0.19,0.39-0.46,0.86-0.95L21.41,155.77z"/>
			</g>
		</g>
	</g>
</g>
<g>
	<g>
		<g>
			<g>
				<path class="st0" d="M27.58,156.58c1.15-0.21,1.5,0.04,1.59,0.28c0.04,0.23-0.24,0.5-1.12,0.55l-0.21,0l-0.24-0.05
					c-0.68-0.19-1.05-0.24-1.29-0.26c-0.25-0.03-0.34-0.02-0.34-0.02c0.04,0,0.11-0.01,0.34-0.06c0.22-0.06,0.51-0.14,1.02-0.35
					L27.58,156.58z"/>
			</g>
		</g>
	</g>
</g>
<g>
	<g>
		<g>
			<g>
				<path class="st0" d="M27.01,163.55c0.95-0.44,1.25-0.44,1.38-0.33c0.09,0.12-0.05,0.41-0.69,1.01c0,0-0.15,0.14-0.15,0.14
					l-0.21,0.14c-0.63,0.32-0.98,0.46-1.23,0.53c-0.25,0.07-0.37,0.05-0.42-0.01c-0.01-0.09,0-0.2,0.18-0.41
					c0.16-0.21,0.41-0.47,0.93-0.91L27.01,163.55z"/>
			</g>
		</g>
	</g>
</g>
<g>
	<g>
		<path class="st1" d="M30.68,154.49"/>
	</g>
</g>
<g>
	<g>
		<path class="st1" d="M37.88,154.09"/>
	</g>
</g>
<g>
	<g>
		<g>
			<g>
				<path class="st0" d="M35.45,155.62c1.12-0.31,1.43-0.2,1.52-0.06c0.04,0.15-0.2,0.36-1.05,0.54l-0.21,0.03l-0.25-0.01
					c-0.71-0.02-1.08,0-1.32,0.02c-0.25,0.02-0.34,0.04-0.34,0.04c0.03-0.01,0.11-0.02,0.34-0.09c0.22-0.07,0.51-0.17,1.05-0.38
					L35.45,155.62z"/>
			</g>
		</g>
	</g>
</g>
<g>
	<g>
		<g>
			<g>
				<path class="st0" d="M34.5,170.14c1.08-0.31,1.65,0.1,1.91,0.58c0.21,0.47,0.11,1.12-0.68,1.68l-0.19,0.11l-0.25,0.03
					c-0.73-0.11-1.12-0.17-1.39-0.25c-0.28-0.07-0.41-0.16-0.46-0.28c-0.02-0.14-0.01-0.28,0.14-0.55c0.13-0.26,0.34-0.59,0.73-1.17
					L34.5,170.14z"/>
			</g>
		</g>
	</g>
</g>
<g>
	<g>
		<g>
			<g>
				<path class="st0" d="M41.96,173.93c1-0.27,1.29-0.25,1.38-0.15c0.04,0.1-0.17,0.31-0.92,0.74c0,0-0.18,0.1-0.18,0.1l-0.23,0.09
					c-0.68,0.2-1.04,0.28-1.29,0.32c-0.26,0.04-0.36,0.01-0.39-0.04c0.01-0.07,0.06-0.15,0.28-0.31c0.21-0.15,0.52-0.34,1.12-0.64
					L41.96,173.93z"/>
			</g>
		</g>
	</g>
</g>
<g>
	<g>
		<g>
			<g>
				<path class="st0" d="M43.46,174.99c1.03,0.09,1.29,0.18,1.34,0.27c0,0.08-0.27,0.17-1.13,0.25c0,0-0.21,0.02-0.21,0.02h-0.25
					c-0.71-0.05-1.07-0.09-1.32-0.14c-0.25-0.04-0.34-0.09-0.34-0.14c0.04-0.04,0.11-0.09,0.38-0.14c0.25-0.05,0.6-0.09,1.28-0.14
					H43.46z"/>
			</g>
		</g>
	</g>
</g>
<g>
	<g>
		<g>
			<g>
				<path class="st0" d="M40.07,179.61c1.03,0.07,1.29,0.14,1.34,0.2c0,0.06-0.27,0.13-1.13,0.19c0,0-0.21,0.01-0.21,0.01h-0.25
					c-0.71-0.03-1.07-0.07-1.32-0.1c-0.25-0.03-0.34-0.07-0.34-0.1c0.04-0.03,0.11-0.07,0.38-0.1c0.25-0.03,0.6-0.07,1.28-0.1H40.07
					z"/>
			</g>
		</g>
	</g>
</g>
<g>
	<g>
		<path class="st1" d="M44.94,172.14"/>
	</g>
</g>
<g>
	<g>
		<g>
			<g>
				<path class="st0" d="M46.45,166.71c1.03,0.02,1.29,0.05,1.34,0.07c0,0.02-0.27,0.04-1.13,0.06c0,0-0.21,0-0.21,0H46.2
					c-0.71-0.01-1.07-0.02-1.32-0.03c-0.25-0.01-0.34-0.02-0.34-0.03c0.04-0.01,0.11-0.02,0.38-0.03c0.25-0.01,0.6-0.02,1.28-0.03
					H46.45z"/>
			</g>
		</g>
	</g>
</g>
<g>
	<g>
		<g>
			<g>
				<path class="st0" d="M51.06,180.15c1.03,0.11,1.29,0.23,1.34,0.34c0,0.1-0.27,0.21-1.13,0.32c0,0-0.21,0.02-0.21,0.02h-0.25
					c-0.71-0.06-1.07-0.11-1.32-0.17c-0.25-0.05-0.34-0.12-0.34-0.17c0.04-0.06,0.11-0.11,0.38-0.17c0.25-0.06,0.6-0.11,1.28-0.17
					H51.06z"/>
			</g>
		</g>
	</g>
</g>
<g>
	<g>
		<path class="st1" d="M52.95,181.64"/>
	</g>
</g>
<g>
	<g>
		<path class="st1" d="M55.53,171.19"/>
	</g>
</g>
<g>
	<g>
		<g>
			<g>
				<path class="st0" d="M53.15,168.54c0.75-0.71,0.96-0.87,1.01-0.88c0.02,0.02-0.15,0.23-0.73,0.86c0,0-0.14,0.15-0.14,0.15
					l-0.18,0.18c-0.51,0.49-0.78,0.74-0.96,0.9c-0.19,0.17-0.26,0.22-0.28,0.21c0.02-0.04,0.05-0.1,0.23-0.3
					c0.16-0.19,0.4-0.45,0.87-0.94L53.15,168.54z"/>
			</g>
		</g>
	</g>
</g>
<g>
	<g>
		<g>
			<g>
				<path class="st0" d="M57.38,175.12c0.95-0.43,1.26-0.43,1.39-0.32c0.08,0.13-0.06,0.41-0.69,1c0,0-0.16,0.14-0.16,0.14
					l-0.21,0.14c-0.64,0.32-0.99,0.45-1.24,0.52c-0.25,0.07-0.37,0.05-0.42-0.02c-0.01-0.09,0-0.2,0.18-0.41
					c0.16-0.2,0.42-0.47,0.94-0.91L57.38,175.12z"/>
			</g>
		</g>
	</g>
</g>
<g>
	<g>
		<g>
			<g>
				<path class="st0" d="M61.76,177.31c0.51-0.9,0.67-1.11,0.73-1.13c0.04,0.02-0.04,0.28-0.38,1.07c0,0-0.08,0.19-0.08,0.19
					l-0.11,0.22c-0.34,0.62-0.53,0.94-0.66,1.14c-0.13,0.21-0.2,0.28-0.22,0.27c-0.01-0.04,0-0.12,0.1-0.37
					c0.09-0.23,0.22-0.56,0.51-1.18L61.76,177.31z"/>
			</g>
		</g>
	</g>
</g>
<g>
	<g>
		<path class="st1" d="M61.23,164.13"/>
	</g>
</g>
<g>
	<g>
		<g>
			<g>
				<path class="st0" d="M61.42,162.01c0.83-0.65,1.16-0.71,1.34-0.61c0.15,0.12,0.12,0.46-0.29,1.24c0,0-0.1,0.18-0.1,0.18
					l-0.16,0.19c-0.54,0.47-0.86,0.68-1.09,0.8c-0.24,0.13-0.38,0.12-0.46,0.06c-0.05-0.1-0.09-0.22,0.01-0.49
					c0.08-0.26,0.23-0.59,0.6-1.18L61.42,162.01z"/>
			</g>
		</g>
	</g>
</g>
<g>
	<g>
		<path class="st1" d="M69.1,169.02"/>
	</g>
</g>
<g>
	<g>
		<g>
			<g>
				<path class="st0" d="M37.8,92.77c1.03,0.06,1.29,0.12,1.34,0.18c0,0.06-0.27,0.11-1.13,0.17c0,0-0.21,0.01-0.21,0.01h-0.25
					c-0.71-0.03-1.07-0.06-1.32-0.09c-0.25-0.03-0.34-0.06-0.34-0.09c0.04-0.03,0.11-0.06,0.38-0.09c0.25-0.03,0.6-0.06,1.28-0.09
					H37.8z"/>
			</g>
		</g>
	</g>
</g>
<g>
	<g>
		<path class="st1" d="M31.18,94.58"/>
	</g>
</g>
<g>
	<g>
		<path class="st1" d="M42.59,85.35"/>
	</g>
</g>
<g>
	<g>
		<g>
			<g>
				<path class="st0" d="M35.63,86.98c1.03,0.09,1.29,0.18,1.34,0.27c0,0.08-0.27,0.17-1.13,0.25c0,0-0.21,0.02-0.21,0.02h-0.25
					c-0.71-0.05-1.07-0.09-1.32-0.14c-0.25-0.04-0.34-0.09-0.34-0.14c0.04-0.04,0.11-0.09,0.38-0.14c0.25-0.05,0.6-0.09,1.28-0.14
					H35.63z"/>
			</g>
		</g>
	</g>
</g>
<g>
	<g>
		<g>
			<g>
				<path class="st0" d="M31.83,91.32c1.03,0.09,1.29,0.18,1.34,0.27c0,0.08-0.27,0.17-1.13,0.25c0,0-0.21,0.02-0.21,0.02h-0.25
					c-0.71-0.05-1.07-0.09-1.32-0.14c-0.25-0.04-0.34-0.09-0.34-0.14c0.04-0.04,0.11-0.09,0.38-0.14c0.25-0.05,0.6-0.09,1.28-0.14
					H31.83z"/>
			</g>
		</g>
	</g>
</g>
<g>
	<g>
		<path class="st1" d="M38.24,98.02"/>
	</g>
</g>
<g>
	<g>
		<path class="st1" d="M42.4,82.45"/>
	</g>
</g>
<g>
	<g>
		<path class="st1" d="M47.11,78.29"/>
	</g>
</g>
<g>
	<g>
		<path class="st1" d="M42.77,69.97"/>
	</g>
</g>
<g>
	<g>
		<path class="st1" d="M49.46,74.67"/>
	</g>
</g>
<g>
	<g>
		<g>
			<g>
				<path class="st0" d="M52.92,76.28c0.76-0.7,0.97-0.85,1.03-0.85c0.03,0.03-0.13,0.25-0.71,0.88c0,0-0.14,0.15-0.14,0.15
					l-0.18,0.18c-0.51,0.48-0.79,0.73-0.98,0.89c-0.19,0.16-0.27,0.21-0.29,0.2c0.01-0.04,0.05-0.11,0.22-0.31
					c0.16-0.19,0.4-0.46,0.86-0.95L52.92,76.28z"/>
			</g>
		</g>
	</g>
</g>
<g>
	<g>
		<path class="st1" d="M55.62,65.08"/>
	</g>
</g>
<g>
	<g>
		<path class="st1" d="M59.06,73.59"/>
	</g>
</g>
<g>
	<g>
		<g>
			<g>
				<path class="st0" d="M58.62,77.9c1.06,0.19,1.32,0.65,1.33,1.03c-0.04,0.36-0.4,0.72-1.31,0.73l-0.21-0.01l-0.24-0.08
					c-0.62-0.36-0.96-0.55-1.17-0.69c-0.23-0.14-0.3-0.23-0.3-0.31c0.05-0.07,0.12-0.15,0.39-0.23c0.25-0.09,0.6-0.2,1.26-0.41
					L58.62,77.9z"/>
			</g>
		</g>
	</g>
</g>
<g>
	<g>
		<g>
			<g>
				<path class="st0" d="M53.34,80.77c0.87-0.11,1.12-0.25,1.15-0.27c0,0-0.25,0.12-0.88,0.71l-0.15,0.15l-0.18,0.17
					c-0.58,0.41-0.95,0.54-1.21,0.57c-0.27,0.04-0.41-0.04-0.46-0.16c-0.01-0.13,0.01-0.29,0.25-0.5c0.22-0.19,0.56-0.41,1.26-0.63
					L53.34,80.77z"/>
			</g>
		</g>
	</g>
</g>
<g>
	<g>
		<g>
			<g>
				<path class="st0" d="M60.35,82.79c0.79-0.67,1.03-0.79,1.13-0.76c0.06,0.05-0.08,0.3-0.63,0.97c0,0-0.13,0.16-0.13,0.16
					l-0.18,0.18c-0.53,0.47-0.82,0.7-1.02,0.84c-0.21,0.15-0.3,0.18-0.33,0.15c0-0.06,0.02-0.14,0.18-0.36
					c0.15-0.21,0.37-0.49,0.82-1L60.35,82.79z"/>
			</g>
		</g>
	</g>
</g>
<g>
	<g>
		<path class="st1" d="M63.04,71.78"/>
	</g>
</g>
<g>
	<g>
		<path class="st1" d="M62.68,67.61"/>
	</g>
</g>
<g>
	<g>
		<g>
			<g>
				<path class="st0" d="M63.69,78.83c1.03,0.12,1.29,0.24,1.34,0.36c0,0.11-0.27,0.23-1.13,0.34c0,0-0.21,0.02-0.21,0.02h-0.25
					c-0.71-0.06-1.07-0.12-1.32-0.18c-0.25-0.06-0.34-0.12-0.34-0.18c0.04-0.06,0.11-0.12,0.38-0.18c0.25-0.06,0.6-0.12,1.28-0.18
					H63.69z"/>
			</g>
		</g>
	</g>
</g>
<g>
	<g>
		<path class="st1" d="M44.76,98.56"/>
	</g>
</g>
<g>
	<g>
		<path class="st1" d="M55.98,96.21"/>
	</g>
</g>
<g>
	<g>
		<path class="st1" d="M63.4,94.58"/>
	</g>
</g>
<g>
	<g>
		<g>
			<g>
				<path class="st0" d="M47.58,96.57c1.03,0.06,1.29,0.12,1.34,0.18c0,0.06-0.27,0.11-1.13,0.17c0,0-0.21,0.01-0.21,0.01h-0.25
					c-0.71-0.03-1.07-0.06-1.32-0.09c-0.25-0.03-0.34-0.06-0.34-0.09c0.04-0.03,0.11-0.06,0.38-0.09c0.25-0.03,0.6-0.06,1.28-0.09
					H47.58z"/>
			</g>
		</g>
	</g>
</g>
<g>
	<g>
		<g>
			<g>
				<path class="st0" d="M50.46,98.83c1.01-0.24,1.28-0.23,1.36-0.15c0.03,0.08-0.2,0.26-0.99,0.61c0,0-0.19,0.08-0.19,0.08
					l-0.24,0.08c-0.69,0.18-1.05,0.25-1.29,0.28c-0.25,0.04-0.35,0.01-0.37-0.03c0.02-0.06,0.07-0.13,0.31-0.26
					c0.22-0.12,0.54-0.28,1.17-0.54L50.46,98.83z"/>
			</g>
		</g>
	</g>
</g>
<g>
	<g>
		<path class="st1" d="M55.8,95.31"/>
	</g>
</g>
<g>
	<g>
		<g>
			<g>
				<path class="st0" d="M59.86,92.1c1.08-0.15,1.43-0.1,1.64,0.1c0.17,0.2,0.13,0.56-0.19,1.42l-0.08,0.2l-0.16,0.19
					c-0.6,0.42-1.03,0.53-1.37,0.53c-0.34,0.01-0.59-0.13-0.74-0.32c-0.12-0.21-0.22-0.47-0.12-0.81c0.08-0.33,0.27-0.72,0.79-1.2
					L59.86,92.1z"/>
			</g>
		</g>
	</g>
</g>
<g>
	<g>
		<g>
			<g>
				<path class="st0" d="M126.02,147.4c1.14-1.39,2.51-2.04,3.92-2.48c1.32-0.37,2.76-0.49,4.32-0.03c0,0,0.32,0.12,0.32,0.12
					l0.07,0.24c-0.52,0.88-1.14,1.43-1.79,1.87c-0.62,0.44-1.36,0.73-2.05,0.93c-0.72,0.16-1.47,0.3-2.24,0.23
					c-0.78-0.04-1.59-0.18-2.49-0.64L126.02,147.4z"/>
			</g>
		</g>
	</g>
</g>
<g>
	<g>
		<g>
			<g>
				<path class="st0" d="M128.1,152.18c3.29-2.19,6.74-3.81,10.19-5.39c3.22-1.43,6.58-2.79,10.11-3.75l0.73-0.17l0.12,0.22
					c-1.33,1.55-2.88,2.79-4.51,3.87c-1.56,1.06-3.42,2.03-5.13,2.8c-1.77,0.75-3.65,1.45-5.53,1.89c-1.9,0.47-3.85,0.8-5.89,0.77
					L128.1,152.18z"/>
			</g>
		</g>
	</g>
</g>
<g>
	<g>
		<g>
			<g>
				<path class="st0" d="M131.65,158.47c1.01-1.9,2.47-3.16,4.02-4.23c1.47-0.97,3.14-1.73,5.08-1.98c0,0,0.41-0.02,0.41-0.02
					l0.14,0.21c-0.41,1.11-1,1.94-1.66,2.66c-0.63,0.71-1.43,1.34-2.19,1.85c-0.8,0.48-1.66,0.96-2.58,1.24
					c-0.93,0.31-1.92,0.53-3.08,0.49L131.65,158.47z"/>
			</g>
		</g>
	</g>
</g>
<g>
	<g>
		<g>
			<g>
				<path class="st0" d="M118.43,127.87c1.57-0.75,3.09-0.63,4.48-0.21c1.28,0.42,2.5,1.21,3.32,2.54l0.15,0.3l-0.11,0.22
					c-0.93,0.33-1.69,0.4-2.4,0.37c-0.69-0.01-1.38-0.17-1.98-0.36c-0.61-0.24-1.23-0.5-1.8-0.92c-0.58-0.41-1.15-0.9-1.71-1.7
					L118.43,127.87z"/>
			</g>
		</g>
	</g>
</g>
<g>
	<g>
		<g>
			<g>
				<path class="st0" d="M125.99,126.35c2-0.25,3.74,0.31,5.32,1.09c1.45,0.77,2.8,1.86,3.72,3.45l0.17,0.35l-0.13,0.21
					c-1.11,0.13-2.03,0.01-2.88-0.21c-0.84-0.19-1.67-0.56-2.39-0.93c-0.72-0.43-1.46-0.88-2.1-1.49c-0.66-0.59-1.28-1.27-1.8-2.24
					L125.99,126.35z"/>
			</g>
		</g>
	</g>
</g>
<g>
	<g>
		<g>
			<g>
				<path class="st0" d="M122.24,108.86c1.75,0.42,2.93,1.2,4.05,2.06c1.02,0.83,1.94,1.82,2.67,3.26l0.13,0.32l-0.13,0.22
					c-1,0.23-1.87,0.12-2.65-0.13c-0.77-0.23-1.5-0.67-2.1-1.16c-0.58-0.53-1.15-1.13-1.51-1.86c-0.39-0.72-0.68-1.54-0.66-2.55
					L122.24,108.86z"/>
			</g>
		</g>
	</g>
</g>
<g>
	<g>
		<g>
			<g>
				<path class="st0" d="M124.11,102.37c1.53,0.28,2.84,1.23,3.91,2.12c1.1,0.93,2.06,1.99,2.94,3.09c1.6,2.08,2.89,4.44,3.62,7.04
					l0.12,0.54l-0.21,0.14c-1.36-0.75-2.44-1.68-3.42-2.66c-0.96-0.94-1.89-2.06-2.68-3.09c-0.78-1.08-1.6-2.19-2.28-3.35
					c-0.74-1.18-1.28-2.34-2.12-3.62L124.11,102.37z"/>
			</g>
		</g>
	</g>
</g>
<g>
	<g>
		<g>
			<g>
				<path class="st0" d="M141.82,95.85c1.4,0.23,2.16,0.86,2.78,1.59c0.54,0.71,0.89,1.59,0.8,2.84l-0.04,0.27l-0.19,0.16
					c-0.86,0.07-1.46-0.08-1.97-0.33c-0.5-0.22-0.9-0.6-1.2-0.99c-0.27-0.42-0.52-0.89-0.59-1.45c-0.09-0.55-0.09-1.17,0.2-1.96
					L141.82,95.85z"/>
			</g>
		</g>
	</g>
</g>
<g>
	<g>
		<g>
			<g>
				<path class="st0" d="M145.99,91c1.78,1.93,2.76,4.26,3.41,6.62c0.56,2.22,0.77,4.6,0.27,6.97l-0.13,0.48l-0.25,0.04
					c-0.88-1.09-1.45-2.19-1.92-3.3c-0.47-1.07-0.84-2.28-1.12-3.38c-0.25-1.14-0.5-2.33-0.59-3.52c-0.11-1.21-0.14-2.45,0.09-3.81
					L145.99,91z"/>
			</g>
		</g>
	</g>
</g>
<g>
	<g>
		<g>
			<g>
				<path class="st0" d="M151.7,95.76c1.59,1.64,2.33,3.69,2.69,5.75c0.3,1.93,0.2,3.99-0.63,5.91l-0.2,0.39l-0.25,0
					c-0.71-1.01-1.12-1.97-1.44-2.93c-0.33-0.92-0.53-1.94-0.68-2.87c-0.11-0.96-0.23-1.95-0.18-2.95c0.02-1.01,0.11-2.06,0.46-3.22
					L151.7,95.76z"/>
			</g>
		</g>
	</g>
</g>
<g>
	<g>
		<g>
			<g>
				<path class="st0" d="M168.76,103.5c0.9,1.36,1.03,2.66,0.96,3.93c-0.11,1.18-0.5,2.36-1.47,3.45c0,0-0.23,0.22-0.23,0.22
					l-0.25-0.02c-0.64-0.7-0.95-1.37-1.12-2.03c-0.19-0.64-0.21-1.32-0.16-1.93c0.1-0.62,0.23-1.26,0.56-1.86
					c0.31-0.61,0.72-1.21,1.46-1.77L168.76,103.5z"/>
			</g>
		</g>
	</g>
</g>
<g>
	<g>
		<g>
			<g>
				<path class="st0" d="M175.03,103.55c0.26,2.14-0.18,3.98-0.82,5.72c-0.63,1.61-1.54,3.16-2.98,4.49l-0.32,0.26l-0.24-0.08
					c-0.32-1.11-0.32-2.12-0.2-3.08c0.1-0.94,0.39-1.91,0.72-2.77c0.38-0.86,0.8-1.74,1.39-2.5c0.58-0.78,1.25-1.53,2.22-2.13
					L175.03,103.55z"/>
			</g>
		</g>
	</g>
</g>
<g>
	<g>
		<g>
			<g>
				<path class="st0" d="M183.16,123.99c0.12-1.79,0.83-3.09,1.7-4.24c0.84-1.05,1.92-1.96,3.45-2.48l0.33-0.09l0.2,0.15
					c0.1,1-0.07,1.8-0.34,2.52c-0.25,0.71-0.67,1.37-1.11,1.93c-0.48,0.54-1.01,1.08-1.67,1.47c-0.65,0.41-1.39,0.76-2.36,0.89
					L183.16,123.99z"/>
			</g>
		</g>
	</g>
</g>
<g>
	<g>
		<g>
			<g>
				<path class="st0" d="M184.01,126.37c1.84-1.78,3.97-2.85,6.15-3.71c2.05-0.76,4.25-1.29,6.6-1.25c0,0,0.49,0.04,0.49,0.04
					l0.09,0.23c-0.86,1.07-1.83,1.83-2.85,2.46c-0.98,0.63-2.13,1.15-3.19,1.55c-1.1,0.37-2.26,0.72-3.44,0.88
					c-1.19,0.18-2.42,0.26-3.76,0.03L184.01,126.37z"/>
			</g>
		</g>
	</g>
</g>
<g>
	<g>
		<g>
			<g>
				<path class="st0" d="M188.29,129.52c1.73-1.03,3.49-1.29,5.23-1.34c1.62,0,3.28,0.27,4.9,1.13c0,0,0.33,0.21,0.33,0.21v0.25
					c-0.87,0.71-1.74,1.07-2.61,1.32c-0.84,0.25-1.77,0.34-2.61,0.34c-0.86-0.04-1.76-0.11-2.61-0.38c-0.87-0.25-1.74-0.6-2.61-1.28
					V129.52z"/>
			</g>
		</g>
	</g>
</g>
<g>
	<g>
		<g>
			<g>
				<path class="st0" d="M183.98,148.76c3.04,0.48,5.73,1.94,8.09,3.72c2.18,1.69,4.13,3.84,5.36,6.4l0.22,0.54l-0.18,0.17
					c-1.5-0.58-2.76-1.31-3.96-2.09c-1.17-0.74-2.37-1.64-3.44-2.46c-1.07-0.88-2.19-1.77-3.2-2.76c-1.04-0.98-2.07-2.01-3.01-3.3
					L183.98,148.76z"/>
			</g>
		</g>
	</g>
</g>
<g>
	<g>
		<g>
			<g>
				<path class="st0" d="M193.44,149.14c1.85-0.04,3.32,0.59,4.66,1.39c1.23,0.78,2.34,1.81,3.09,3.31l0.13,0.33l-0.14,0.21
					c-1.05,0.17-1.9,0.06-2.69-0.15c-0.77-0.19-1.51-0.56-2.14-0.96c-0.62-0.44-1.26-0.93-1.76-1.57c-0.52-0.63-0.99-1.35-1.29-2.34
					L193.44,149.14z"/>
			</g>
		</g>
	</g>
</g>
<g>
	<g>
		<g>
			<g>
				<path class="st0" d="M188.89,144.76c2.88-0.38,5.64,0.08,8.28,0.81c2.45,0.72,4.89,1.78,6.99,3.43l0.41,0.36l-0.08,0.24
					c-1.52,0.21-2.91,0.13-4.27-0.05c-1.32-0.16-2.72-0.5-3.97-0.86c-1.27-0.41-2.58-0.85-3.79-1.45c-1.24-0.58-2.47-1.26-3.64-2.23
					L188.89,144.76z"/>
			</g>
		</g>
	</g>
</g>
<g>
	<g>
		<g>
			<g>
				<path class="st0" d="M174.84,159.99c1.72,2.08,2.73,4.46,3.53,6.87c0.7,2.26,1.16,4.67,1.03,7.15l-0.06,0.51l-0.24,0.07
					c-1.06-1.02-1.78-2.12-2.39-3.26c-0.6-1.09-1.08-2.35-1.45-3.51c-0.33-1.2-0.65-2.46-0.76-3.73c-0.14-1.28-0.17-2.6,0.09-4.03
					L174.84,159.99z"/>
			</g>
		</g>
	</g>
</g>
<g>
	<g>
		<g>
			<g>
				<path class="st0" d="M178.66,162.77c0.62,0.03,1.24,0.31,1.74,0.64c0.51,0.34,0.91,0.69,1.3,1.06c0.78,0.76,1.43,1.62,1.99,2.53
					c1.01,1.71,1.67,3.72,1.56,5.83l-0.05,0.44l-0.23,0.09c-1.02-0.71-1.75-1.48-2.39-2.27c-0.64-0.75-1.2-1.63-1.68-2.44
					c-0.46-0.85-0.94-1.73-1.28-2.68c-0.19-0.47-0.36-0.98-0.49-1.45c-0.14-0.48-0.26-0.97-0.57-1.51L178.66,162.77z"/>
			</g>
		</g>
	</g>
</g>
<g>
	<g>
		<g>
			<g>
				<path class="st0" d="M154.71,156.66c0.05,3.18-1.17,6.13-2.48,8.75c-1.27,2.46-2.77,4.73-4.5,6.97l-0.38,0.45l-0.24-0.08
					c-0.18-1.63,0.09-3.2,0.52-4.66c0.4-1.43,1.07-2.9,1.72-4.16c0.71-1.28,1.45-2.58,2.3-3.75c0.84-1.21,1.72-2.39,2.82-3.58
					L154.71,156.66z"/>
			</g>
		</g>
	</g>
</g>
<g>
	<g>
		<g>
			<g>
				<path class="st0" d="M155.88,165.47c0.64,1.48,0.53,2.76,0.22,3.96c-0.33,1.11-0.92,2.18-2.08,3.04c0,0-0.26,0.17-0.26,0.17
					l-0.24-0.07c-0.5-0.8-0.68-1.5-0.73-2.17c-0.07-0.65,0.04-1.31,0.2-1.89c0.21-0.58,0.46-1.17,0.89-1.69
					c0.41-0.53,0.93-1.02,1.76-1.43L155.88,165.47z"/>
			</g>
		</g>
	</g>
</g>
<g>
	<g>
		<g>
			<g>
				<path class="st0" d="M160.79,156.72c0.71,3.35,0.7,6.65,0.53,9.91c-0.2,3.03-0.64,6.14-1.62,9.14l-0.23,0.61l-0.25-0.01
					c-0.64-1.67-0.94-3.33-1.09-4.99c-0.17-1.6-0.15-3.37-0.05-4.96c0.15-1.63,0.34-3.31,0.74-4.91c0.38-1.62,0.88-3.24,1.71-4.81
					L160.79,156.72z"/>
			</g>
		</g>
	</g>
</g>
<g>
	<g>
		<g>
			<g>
				<path class="st0" d="M96.13,160.76c1.03,0.14,1.29,0.27,1.34,0.41c0,0.13-0.27,0.26-1.13,0.38c0,0-0.21,0.03-0.21,0.03h-0.25
					c-0.71-0.07-1.07-0.14-1.32-0.2c-0.25-0.07-0.34-0.14-0.34-0.2c0.04-0.07,0.11-0.14,0.38-0.2c0.25-0.07,0.6-0.14,1.28-0.2H96.13
					z"/>
			</g>
		</g>
	</g>
</g>
<g>
	<g>
		<g>
			<g>
				<path class="st0" d="M99.38,171.35c1.03,0.18,1.29,0.36,1.34,0.54c0,0.17-0.27,0.34-1.13,0.51c0,0-0.21,0.03-0.21,0.03h-0.25
					c-0.71-0.09-1.07-0.18-1.32-0.27c-0.25-0.09-0.34-0.18-0.34-0.27c0.04-0.09,0.11-0.18,0.38-0.27c0.25-0.09,0.6-0.18,1.28-0.27
					H99.38z"/>
			</g>
		</g>
	</g>
</g>
<g>
	<g>
		<g>
			<g>
				<path class="st0" d="M105.12,174.37c0.98,0.52,1.19,0.96,1.19,1.37c-0.04,0.38-0.35,0.74-1.25,1.02c0,0-0.21,0.05-0.21,0.05
					l-0.25-0.03c-0.68-0.28-1.02-0.53-1.24-0.76c-0.23-0.22-0.29-0.45-0.27-0.65c0.06-0.2,0.16-0.4,0.45-0.57
					c0.27-0.18,0.65-0.34,1.34-0.47L105.12,174.37z"/>
			</g>
		</g>
	</g>
</g>
<g>
	<g>
		<g>
			<g>
				<path class="st0" d="M102.07,187.51c0.97-0.37,1.24-0.39,1.33-0.33c0.04,0.08-0.16,0.29-0.88,0.76c0,0-0.18,0.11-0.18,0.11
					l-0.22,0.11c-0.65,0.27-1.01,0.39-1.24,0.45c-0.25,0.07-0.35,0.06-0.38,0.02c0.01-0.06,0.05-0.14,0.27-0.31
					c0.2-0.16,0.49-0.36,1.08-0.71L102.07,187.51z"/>
			</g>
		</g>
	</g>
</g>
<g>
	<g>
		<g>
			<g>
				<path class="st0" d="M110.49,188.69c1.07,0.27,1.39,0.64,1.49,1.04c0.05,0.38-0.16,0.8-0.96,1.29c0,0-0.19,0.1-0.19,0.1
					l-0.25,0.03c-0.73-0.11-1.12-0.26-1.39-0.43c-0.28-0.16-0.39-0.37-0.42-0.56c0.01-0.21,0.05-0.42,0.29-0.66
					c0.22-0.24,0.54-0.49,1.19-0.78L110.49,188.69z"/>
			</g>
		</g>
	</g>
</g>
<g>
	<g>
		<g>
			<g>
				<path class="st0" d="M115.12,187.29c1.14,0.29,1.52,0.93,1.61,1.55c0.05,0.59-0.22,1.24-1.12,1.71l-0.21,0.09l-0.25-0.02
					c-0.68-0.33-1.04-0.59-1.28-0.83c-0.25-0.23-0.35-0.46-0.37-0.68c0.02-0.23,0.06-0.47,0.29-0.74c0.2-0.28,0.5-0.59,1.09-1.02
					L115.12,187.29z"/>
			</g>
		</g>
	</g>
</g>
<g>
	<g>
		<path class="st1" d="M117.02,180.85"/>
	</g>
</g>
<g>
	<g>
		<path class="st1" d="M124.62,193.07"/>
	</g>
</g>
<g>
	<g>
		<path class="st1" d="M125.43,204.47"/>
	</g>
</g>
<g>
	<g>
		<path class="st1" d="M125.98,187.64"/>
	</g>
</g>
<g>
	<g>
		<g>
			<g>
				<path class="st0" d="M126.45,194.49c0.86-0.59,1.18-0.64,1.35-0.54c0.13,0.12,0.07,0.45-0.42,1.18c0,0-0.12,0.17-0.12,0.17
					l-0.18,0.18c-0.57,0.43-0.9,0.62-1.13,0.73c-0.24,0.11-0.38,0.1-0.45,0.04c-0.04-0.09-0.06-0.21,0.06-0.47
					c0.11-0.24,0.29-0.56,0.7-1.11L126.45,194.49z"/>
			</g>
		</g>
	</g>
</g>
<g>
	<g>
		<path class="st1" d="M117.56,180.85"/>
	</g>
</g>
<g>
	<g>
		<path class="st1" d="M117.02,180.85"/>
	</g>
</g>
<g>
	<g>
		<g>
			<g>
				<path class="st0" d="M123.22,183.93c0.96-0.44,1.3-0.41,1.48-0.26c0.13,0.17,0.04,0.5-0.52,1.19c0,0-0.14,0.16-0.14,0.16
					l-0.2,0.15c-0.63,0.33-1,0.46-1.26,0.52c-0.27,0.06-0.41,0.02-0.48-0.06c-0.04-0.11-0.05-0.25,0.1-0.5
					c0.13-0.24,0.35-0.54,0.82-1.04L123.22,183.93z"/>
			</g>
		</g>
	</g>
</g>
<g>
	<g>
		<path class="st1" d="M111.04,175.69"/>
	</g>
</g>
<g>
	<g>
		<g>
			<g>
				<path class="st0" d="M95.01,148.95c1.01-0.28,1.33-0.21,1.47-0.05c0.09,0.17-0.07,0.46-0.76,1.01c0,0-0.17,0.13-0.17,0.13
					l-0.22,0.11c-0.68,0.23-1.05,0.3-1.31,0.32c-0.27,0.03-0.39-0.03-0.44-0.12c-0.01-0.11,0.01-0.23,0.2-0.44
					c0.18-0.2,0.45-0.45,1.01-0.84L95.01,148.95z"/>
			</g>
		</g>
	</g>
</g>
<g>
	<g>
		<g>
			<g>
				<path class="st0" d="M100.44,153.57c1.01-0.28,1.33-0.21,1.47-0.05c0.09,0.17-0.07,0.46-0.76,1.01c0,0-0.17,0.13-0.17,0.13
					l-0.22,0.11c-0.68,0.23-1.05,0.3-1.31,0.32c-0.27,0.03-0.39-0.03-0.44-0.12c-0.01-0.11,0.01-0.23,0.2-0.44
					c0.18-0.2,0.45-0.45,1.01-0.84L100.44,153.57z"/>
			</g>
		</g>
	</g>
</g>
<g>
	<g>
		<g>
			<g>
				<path class="st0" d="M107.77,163.62c1.1-0.09,1.54,0.34,1.7,0.79c0.11,0.43-0.09,0.98-0.93,1.41l-0.2,0.08l-0.25,0.01
					c-0.71-0.16-1.09-0.27-1.35-0.38c-0.27-0.1-0.38-0.22-0.42-0.34c0-0.14,0.04-0.28,0.24-0.51c0.18-0.22,0.46-0.49,0.98-0.96
					L107.77,163.62z"/>
			</g>
		</g>
	</g>
</g>
<g>
	<g>
		<g>
			<g>
				<path class="st0" d="M116.59,176c0.55-0.87,0.76-1.06,0.87-1.06c0.08,0.04,0.05,0.33-0.25,1.14c0,0-0.08,0.19-0.08,0.19
					l-0.11,0.22c-0.36,0.61-0.57,0.91-0.73,1.11c-0.16,0.2-0.24,0.26-0.29,0.24c-0.03-0.06-0.04-0.14,0.03-0.41
					c0.07-0.24,0.18-0.58,0.44-1.21L116.59,176z"/>
			</g>
		</g>
	</g>
</g>
<g>
	<g>
		<g>
			<g>
				<path class="st0" d="M133.56,198.47c0.28-1.06,0.94-1.25,1.42-1.13c0.44,0.14,0.8,0.68,0.51,1.56l-0.09,0.2l-0.17,0.19
					c-0.58,0.43-0.85,0.7-1.02,0.87c-0.18,0.19-0.24,0.25-0.28,0.25c-0.03-0.05-0.04-0.13-0.07-0.4c-0.03-0.25-0.08-0.62-0.27-1.29
					L133.56,198.47z"/>
			</g>
		</g>
	</g>
</g>
<g>
	<g>
		<g>
			<g>
				<path class="st0" d="M126.25,201.2c0.05-1.03,0.09-1.29,0.14-1.34c0.04,0,0.09,0.27,0.13,1.13c0,0,0.01,0.21,0.01,0.21v0.25
					c-0.02,0.71-0.05,1.07-0.07,1.32c-0.02,0.25-0.05,0.34-0.07,0.34c-0.02-0.04-0.05-0.11-0.07-0.38c-0.02-0.25-0.05-0.6-0.07-1.28
					V201.2z"/>
			</g>
		</g>
	</g>
</g>
<g>
	<g>
		<g>
			<g>
				<path class="st0" d="M116.04,196.26c0.87-0.79,1.5-0.85,2.06-0.71c0.5,0.17,0.93,0.6,1.16,1.59c0,0,0.03,0.23,0.03,0.23
					l-0.08,0.24c-0.5,0.58-0.89,0.83-1.24,0.97c-0.34,0.15-0.66,0.13-0.92,0.05c-0.26-0.13-0.51-0.29-0.69-0.64
					c-0.19-0.33-0.35-0.76-0.4-1.49L116.04,196.26z"/>
			</g>
		</g>
	</g>
</g>
<g>
	<g>
		<path class="st1" d="M137.38,206.37"/>
	</g>
</g>
<g>
	<g>
		<g>
			<g>
				<path class="st0" d="M138.19,205.81c0.27-1.03,0.54-1.29,0.81-1.34c0.25,0,0.51,0.27,0.76,1.13c0,0,0.05,0.21,0.05,0.21v0.25
					c-0.14,0.71-0.27,1.07-0.41,1.32c-0.13,0.25-0.28,0.34-0.41,0.34c-0.13-0.04-0.27-0.11-0.41-0.38c-0.14-0.25-0.27-0.6-0.41-1.28
					V205.81z"/>
			</g>
		</g>
	</g>
</g>
<g>
	<g>
		<g>
			<g>
				<path class="st0" d="M91.87,139.67c1.03,0.06,1.29,0.12,1.34,0.18c0,0.06-0.27,0.11-1.13,0.17c0,0-0.21,0.01-0.21,0.01h-0.25
					c-0.71-0.03-1.07-0.06-1.32-0.09c-0.25-0.03-0.34-0.06-0.34-0.09c0.04-0.03,0.11-0.06,0.38-0.09c0.25-0.03,0.6-0.06,1.28-0.09
					H91.87z"/>
			</g>
		</g>
	</g>
</g>
<g>
	<g>
		<g>
			<g>
				<path class="st0" d="M91.86,129.99c1.08,0.01,1.44,0.43,1.52,0.83c0.04,0.38-0.24,0.83-1.13,1.06l-0.21,0.04l-0.25-0.03
					c-0.68-0.23-1.05-0.36-1.29-0.47c-0.25-0.11-0.34-0.2-0.36-0.29c0.03-0.1,0.09-0.2,0.33-0.36c0.22-0.16,0.54-0.35,1.14-0.7
					L91.86,129.99z"/>
			</g>
		</g>
	</g>
</g>
<g>
	<g>
		<g>
			<g>
				<path class="st0" d="M150.21,205.85c0.66-0.8,0.89-0.96,1.01-0.94c0.09,0.05,0.02,0.34-0.37,1.11c0,0-0.1,0.18-0.1,0.18
					l-0.14,0.21c-0.43,0.56-0.68,0.84-0.86,1.01c-0.18,0.18-0.28,0.22-0.33,0.2c-0.02-0.06-0.03-0.15,0.07-0.41
					c0.09-0.24,0.24-0.56,0.57-1.16L150.21,205.85z"/>
			</g>
		</g>
	</g>
</g>
<g>
	<g>
		<g>
			<g>
				<path class="st0" d="M156.09,205.97c0.49-0.95,0.82-1.14,1.1-1.13c0.25,0.05,0.45,0.38,0.52,1.27c0,0,0.01,0.21,0.01,0.21
					l-0.05,0.24c-0.29,0.66-0.5,0.99-0.69,1.2c-0.19,0.22-0.35,0.27-0.48,0.25c-0.13-0.07-0.25-0.17-0.33-0.46
					c-0.08-0.27-0.14-0.65-0.13-1.34L156.09,205.97z"/>
			</g>
		</g>
	</g>
</g>
</svg>
