<?xml version="1.0" encoding="utf-8"?>
<!-- Generator: Adobe Illustrator 27.5.0, SVG Export Plug-In . SVG Version: 6.00 Build 0)  -->
<svg version="1.1" id="Layer_1" xmlns="http://www.w3.org/2000/svg" xmlns:xlink="http://www.w3.org/1999/xlink" x="0px" y="0px"
	 viewBox="0 0 170 225" style="enable-background:new 0 0 170 225;" xml:space="preserve">
<style type="text/css">
	.st0{fill:#F9F6E6;}
</style>
<g>
	<g>
		<g>
			<g>
				<path class="st0" d="M3747.3,2131.7c10.1-13.8,20.3-27.6,30.4-41.5c5.1-6.9,10.2-13.8,15.3-20.8l7.7-10.4l3.8-5.2l1.4-1.9
					l0.3-0.5l0.2-0.2l0.1-0.1l0-0.1c0,0,0,0-0.1,0c-0.4-0.1-0.8-0.2-1.2-0.4l-0.7-0.3l-0.9-0.5c-0.3-0.2-0.6-0.4-0.9-0.6
					s-0.6-0.4-0.8-0.7c-1.1-0.9-2-2.1-2.7-3.5c-0.7-1.3-1-2.8-1.2-4.2c-0.2-2.9,0.4-5.5,1.3-7.9c0.4-1.2,1-2.4,1.5-3.5l0.6-1.1
					c0.1-0.1,0.1-0.3,0.2-0.4c-0.1-0.1-0.2-0.2-0.3-0.2c-0.1,0-0.1-0.1-0.1-0.1l-0.3-0.2c-0.8-0.7-1.6-1.5-2.4-2.4
					c-1.4-1.8-2.7-4-3.1-6.5c-0.4-2.5,0.2-5.2,1.3-7.3c0.5-1.1,1.2-2.1,1.9-2.9c0.4-0.4,0.7-0.9,1.1-1.3l0.5-0.5l0.1-0.1
					c0.1-0.1,0.1-0.1,0.2-0.2c0-0.1-0.1-0.2-0.1-0.2l-0.2-0.4l-0.5-1.3c-0.1-0.4-0.3-0.9-0.4-1.3l-0.3-1.5l-0.1-0.7l0-0.8
					c0-0.5,0-1,0-1.6c0.1-0.5,0.2-1.1,0.3-1.6c0.1-0.5,0.3-1,0.5-1.5c0.8-2,2.2-3.6,3.7-4.8l0.8-0.6l0.1-0.1
					c0.1-0.1,0.2-0.1,0.3-0.2c-26.5-19.9-53.1-39.8-79.5-59.7c-7.2,9.3-14.5,18.6-21.7,27.9c-14.2,18.1-28.4,36.3-42.8,54.6
					l-1.8-0.8l-0.9-0.4c0,0-0.1-0.1-0.2-0.1l-0.3-0.2l-0.5-0.3c-0.6-0.3-1.3-0.7-1.9-1l-0.4-1.2l-0.2-0.6l-0.1-0.3
					c0-0.1,0-0.1-0.1-0.2l-0.1-0.2c-0.1-0.1-0.1-0.1-0.1-0.1l0,0l-0.1-0.1l-0.1-0.2l-0.2-0.3c-0.3-0.4-0.8-0.8-1.1-1.2l-1.4-1.1
					l-1.6-1c-0.6-0.3-1.2-0.6-1.7-0.9c-0.6-0.3-1.2-0.6-1.8-0.8c-0.6-0.2-1.2-0.5-1.9-0.8l-2-0.6c-1.3-0.5-2.7-0.8-4-1.1
					c-1.4-0.4-2.7-0.6-4.1-0.9l-2.1-0.4c-0.7-0.1-1.4-0.1-2.1-0.2c-1.4-0.1-2.8-0.3-4.2-0.3c-5.6-0.3-11.3,0-16.6,1.4l-2,0.5
					l-1.9,0.7c-0.6,0.2-1.2,0.5-1.9,0.8l-0.9,0.4l-0.9,0.5l-0.9,0.5l-0.8,0.5c-0.6,0.3-1,0.7-1.5,1.1c-0.3,0.2-0.5,0.4-0.7,0.6
					l-0.3,0.3c-0.1,0.1-0.2,0.1-0.2,0.2l4.2,7.1c1.7,2.9,3.3,5.8,5,8.8c3.2,5.9,6.4,11.8,9.3,17.9c1.5,3,2.9,6.1,4.3,9.1l2,4.6
					c0.7,1.5,1.4,3.1,2,4.6l1.9,4.7c0.6,1.6,1.2,3.2,1.8,4.7c1.2,3.1,2.1,6.4,3.2,9.6c0.5,1.6,0.9,3.3,1.3,4.9l0.6,2.5
					c0.2,0.8,0.3,1.7,0.5,2.5c0.3,1.7,0.6,3.4,0.9,5l0.7,4.9c0.9,6.6,1.8,13.2,2.7,19.7c1.8,13.1,3.5,26.2,5.1,39.3
					c0,0,0.6,5,1.1,10.1c0.2,2.5,0.5,5.1,0.6,7c0,1,0.1,1.7,0.1,2.4c-0.1,0.6-0.1,1-0.1,1l-0.5-0.1c0-0.4,0-0.9,0-1.3l-0.1-1.3
					c-0.1-0.8-0.2-1.7-0.3-2.5c-0.2-1.7-0.4-3.3-0.7-5l-1.5-10l-3.2-20c-2.2-13.3-4.5-26.6-6.7-39.9c-1.9-13.3-6.6-25.7-12-38
					c-2.8-6.1-5.7-12.1-8.8-18.1c-3.1-5.9-6.3-11.8-9.7-17.6c-1.4-2.5-2.9-5-4.5-7.6c-0.8-1.3-1.6-2.5-2.3-3.8
					c-1.1-1.8-2.2-3.6-3.4-5.4c0.3-0.5,0.6-1.1,0.9-1.6l0.5-0.8c0.2-0.2,0.4-0.5,0.6-0.7c0.4-0.5,0.9-1.1,1.2-1.2
					c0.3-0.3,0.6-0.6,0.9-0.8c1.2-1,2.6-2,3.9-2.7c2.8-1.6,5.7-2.7,8.7-3.5c6-1.6,12.1-2,18.2-1.8c1.5,0,3.1,0.2,4.6,0.3l2.3,0.2
					c0.8,0.1,1.5,0.3,2.3,0.4c1.5,0.3,3.1,0.5,4.5,0.9c1.5,0.4,3,0.7,4.5,1.2l2.2,0.7c0.7,0.2,1.5,0.6,2.2,0.9
					c1.5,0.5,2.9,1.3,4.4,2.1l2.1,1.3c0.7,0.5,1.4,1.1,2,1.6c0.6,0.7,1.3,1.2,1.8,2l0.8,1.1c-0.2-0.2-0.1-0.1-0.1-0.1l0,0l0,0
					c0,0,0,0.1,0,0.1v0l0,0l0.1-0.1c13.3-17.1,26.3-33.8,38.8-49.9c8.5-10.8,17-21.7,25.7-32.8c15.1,11.4,30.2,23,45.4,34.5
					c7.1,5.5,14.3,10.9,21.4,16.4c3.6,2.7,7.1,5.4,10.6,8.2c1.8,1.4,3.5,2.7,5.3,4.1l4.2,3.2l2.4,1.8l1.2,0.9l0.3,0.2
					c0.1,0.1,0.1,0.1,0.2,0.2l0.4,0.4c-1.5,0.5-2.9,1-4.4,1.5l-1.1,0.4c-0.4,0.1-0.6,0.3-0.9,0.4c-0.6,0.3-1.1,0.5-1.7,0.9l-0.7,0.5
					l-0.6,0.5c-0.2,0.2-0.4,0.3-0.5,0.5c-0.1,0.2-0.4,0.3-0.4,0.6c-1,1.5-1.4,3.3-0.8,5.4c0.4,1,0.4,1.6,1.5,3.6
					c-0.1,0.6-0.1,1.3-0.2,1.9c-0.2,0.5-0.4,1.1-0.6,1.8c-0.4,0.3-0.7,0.6-1,0.9l-0.3,0.3l-0.2,0.2c-0.3,0.3-0.6,0.6-0.9,1
					c-0.5,0.7-1,1.4-1.4,2.1c-0.8,1.4-1.1,2.9-0.9,4.4c0.2,1.5,0.9,2.9,1.9,4.3c0.5,0.7,1.1,1.3,1.8,1.9l0.4,0.3
					c0.2,0.1,0.3,0.3,0.5,0.4l1,0.8c0.6,0.5,1.4,1,2,1.5c-0.6,0.8-1.2,1.7-1.8,2.5c-0.3,0.4-0.5,0.8-0.8,1.3l-0.4,0.7
					c-0.5,1-1,2-1.4,3c-0.8,2-1.3,4.1-1.1,6.1c0.1,1.9,0.9,3.6,2.3,4.9c0.2,0.2,0.4,0.3,0.6,0.5c0.2,0.2,0.4,0.3,0.6,0.4l0.6,0.4
					l0.9,0.4c0.9,0.4,1.8,0.7,2.8,1c0.9,0.3,1.8,0.6,2.8,0.8c0,0.1,0,0.1-0.1,0.2l-0.2,0.2l-0.4,0.5l-0.8,1l-1.5,2l-2.4,3.1l-4,5.1
					l-7.9,10.1l-15.9,20.3c-10.6,13.5-21.3,26.9-32.1,40.4L3747.3,2131.7z"/>
			</g>
		</g>
	</g>
</g>
<g>
	<g>
		<g>
			<g>
				<path class="st0" d="M3622.9,2058.6c-22.5,31.1-45.4,62.1-68.5,92.9l-16.7,22.2c-0.1,0.1-0.2,0.2,0,0.3l0.2,0.1l0,0l0.3,0.2
					l0.8,0.4c2.1,1.2,4.1,2.4,6.2,3.5c4.2,2.2,8.4,4.4,12.8,6.5c8.6,4.1,17.4,7.9,26.3,11.2c8.9,3.3,17.9,6.4,27.1,9
					c2.1,0.7,4.3,1.2,6.4,1.8c2.1,0.6,4.3,1.2,6.4,1.7c2.2,0.5,4.3,1,6.5,1.5l1.1,0.2l0,0c0,0,0,0,0,0c2.2-8.5,4.4-17,6.5-25.5
					c4.4-17.5,8.8-35.1,12.8-52.7c2-8.8,3.9-17.7,5.5-26.5l0.6-3.3c0.2-1.1,0.4-2.2,0.5-3.3l0.4-3.3c0.1-1.1,0.2-2.2,0.2-3.3
					c0.3-4.4,0.4-8.9,0.5-13.4c0.2-18-0.2-36-0.8-53.8l-0.4-14.4l0.5,0c1.9,19.2,3.4,38.4,4.2,57.6c0.2,4.8,0.4,9.6,0.4,14.5
					c0,4.8,0.1,9.7-0.3,14.6l-0.3,3.7l-0.5,3.6c-0.3,2.4-0.7,4.8-1.1,7.2c-0.4,2.4-0.8,4.8-1.3,7.1c-0.4,2.4-0.9,4.8-1.4,7.1
					c-3.6,18.3-8,37.4-12.6,56.5c-2.3,9.5-4.7,19.1-7.1,28.4c-0.5,2-1.1,4.1-1.6,6.1l-0.2,0.9c-0.3,0-0.6-0.1-0.9-0.2l-1.8-0.4
					l-3.5-0.8c-2.4-0.6-4.7-1.1-7.1-1.6c-2.3-0.5-4.6-1.2-6.9-1.8c-2.3-0.6-4.6-1.2-6.8-1.9c-9.2-2.7-18.4-5.8-27.5-9.3
					c-9.1-3.5-18.1-7.4-26.8-11.7c-4.4-2.1-8.7-4.4-13-6.8l-3.2-1.8l-3.2-1.9l-2.1-1.3c-1-0.6-1.9-1.2-2.8-1.8l-1.4-0.9l-0.2-0.1
					l-0.1-0.1l0,0l0,0l0.2-0.3l0.5-0.7c0.7-0.9,1.3-1.8,2-2.7c6.1-7.8,12.2-15.6,18.3-23.3c23.8-30.3,47.8-60.4,72.2-90.2
					L3622.9,2058.6z"/>
			</g>
		</g>
	</g>
</g>
<g>
	<g>
		<g>
			<g>
				<path class="st0" d="M3533.8,2174.7c1,4.4,3.2,8.4,5.8,12.1c2.6,3.7,5.6,7.1,8.9,10.3c6.4,6.5,13.6,12.3,20.9,17.8
					c14.8,11,30.4,20.9,46.2,30.3c7.4,4.4,14.9,8.6,22.4,12.8l0.2,0.1c0.1,0,0.1,0,0.1,0.1l0.2,0.1c0.1,0.1,0.3,0.2,0.6,0.4
					c0-0.1-0.1-0.4-0.4-1c-9.5-14.6-18.9-29.4-27.9-44.1l-3.6-6l0.4-0.3c11.6,14.5,22.7,29.4,33.5,44.5c0.6,0.9,1.3,1.8,2,2.7
					c1.2,1.7,2.4,3.4,3.6,5.1c1.2,1.8,2.5,3.5,3.7,5.3c1.2,1.7,2.4,3.5,3.5,5.2l1.8,2.7l0.9,1.3c0,0,0.1,0.1,0.1,0.1l-0.1,0
					l-0.2-0.1l-0.4-0.2l-0.7-0.3c-1.9-0.9-3.7-1.8-5.6-2.8c-3.7-1.8-7.7-3.8-11.8-6c-2.5-1.4-5.1-2.7-7.6-4
					c-2.1-1.1-4.1-2.3-6.2-3.4c-4.1-2.3-8.1-4.6-12-6.9c-15.8-9.4-31.9-20-46.1-31.8c-7.2-6-14.1-12.4-20.2-19.5
					c-3-3.6-5.9-7.4-8.2-11.5c-2.3-4.1-4.1-8.6-4.6-13.2L3533.8,2174.7z"/>
			</g>
		</g>
	</g>
</g>
<g>
	<g>
		<g>
			<g>
				<path class="st0" d="M3655,2125.3c8.4-4,17.6-6.6,27-7.8c4.7-0.6,9.5-0.8,14.4-0.4c5,0.4,9.7,1.9,14.1,3.5
					c8.2,3,15.9,6.7,23.9,8.6c2,0.5,4,0.8,6.1,1.1c2,0.2,4.1,0.4,6.2,0.3c4.1-0.1,8.3-0.7,12.4-1.8c0,0,0.2-0.1,0.5-0.1
					c0.3-0.1,0.7-0.2,1.1-0.3c0.8-0.2,1.7-0.5,1.7-0.5l0.2,0.5c-3.9,2.5-8.3,4.5-12.9,5.6c-2.3,0.6-4.7,0.9-7.1,1
					c-2.4,0.1-4.9,0-7.3-0.2c-4.6-0.5-9.4-1.7-14-3.2c-4.6-1.5-8.9-3.3-13-4.8c-4.2-1.6-8.4-2.9-12.6-3.5c-4.3-0.5-8.9-0.7-13.3-0.6
					c-9,0.2-18.1,1.4-27.2,3.1L3655,2125.3z"/>
			</g>
		</g>
	</g>
</g>
<g>
	<g>
		<g>
			<g>
				<path class="st0" d="M3765.1,2109.2c1.9,1.6,3.7,3.4,5.3,5.3c1.6,1.9,3.1,4,4.3,6.4c1.1,2.4,1.9,5.1,1.4,8.1
					c-0.3,1.5-0.9,2.9-1.8,4.1c-0.9,1.2-1.9,2-3,2.9c-2.1,1.7-4.4,2.9-6.8,4.1c-2.4,1.1-4.8,2-7.2,2.7s-4.9,1.4-7.4,1.9
					c-1.2,0.2-2.5,0.5-3.8,0.7l-1.9,0.3l-0.5,0.1l-0.1,0l-0.1,0l-0.1,0.1l0,0.1l0,0c0,0,0,0-0.1,0.1l-0.9,1.2l-1.8,2.4l-3.6,4.9
					c-2.4,3.2-4.8,6.4-7.1,9.7c-4.8,6.4-9.6,12.8-14.4,19.2c-20,26.4-41.1,53.4-62.6,78.8l-4.4,5.1l-0.4-0.3
					c9.7-15.1,19.9-29.8,30.3-44.3c10-14.1,21.4-29.4,31.9-43.2c4.8-6.3,9.7-12.6,14.6-19c2.5-3.2,5-6.4,7.4-9.5
					c2.7-3.4,5.4-6.9,8.1-10.3c0.9-0.1,1.8-0.1,2.5-0.2c0.4,0,0.9-0.1,1.4-0.1c0.9-0.1,1.8-0.2,2.7-0.3c4.3-0.6,8.6-1.4,12.7-2.7
					c1-0.3,2-0.7,3.1-1l1.5-0.6c0.5-0.2,1-0.4,1.4-0.7c1.9-0.9,3.6-2.1,5.2-3.4c1.4-1.3,2.2-3,2.3-5c0.1-2-0.5-4.1-1.3-6.1
					c-1.7-4-4.4-7.6-7.4-11L3765.1,2109.2z"/>
			</g>
		</g>
	</g>
</g>
<g>
	<g>
		<g>
			<g>
				<path class="st0" d="M3755.8,1955.1c-5.8,8.3-11.7,16.6-17.6,24.9c-3,4.1-6,8.3-8.9,12.4c-3.2,4.4-6.4,8.8-9.5,13.1
					c-5.2-3.8-10.3-7.6-15.5-11.4c-4.9-3.7-9.9-7.3-14.8-11c3.1-4,6.2-8,9.3-12.1c2.9-3.8,5.8-7.5,8.8-11.3
					c5.8-7.5,11.7-15,17.5-22.3l3.1-3.9l0.1,0.1c-7.7,10.8-15.5,21.4-23.4,32c-4.1,5.5-8.4,11.3-12.7,17c4.6,3.4,9,6.7,13.3,9.8
					c4.6,3.4,9.2,6.9,13.9,10.4c4.1-5.5,8.2-11,12.3-16.4c7.9-10.6,16-21.1,24.1-31.5L3755.8,1955.1z"/>
			</g>
		</g>
	</g>
</g>
<g>
	<g>
		<g>
			<g>
				<path class="st0" d="M3762,1960.7c-5.7,8.1-11.5,16.2-17.4,24.3c-3,4-5.9,8-8.9,12.1c-2.7,3.6-5.3,7.2-8,10.8
					c4.7,3.6,9.4,7.2,14,10.7c2.6,2,5.2,4.1,7.9,6.1c1.3,1,2.6,2.1,3.9,3.1l2,1.6l0.5,0.4l0.1,0.1l0,0l0,0c2.3-3.2,4.6-6.4,6.9-9.7
					c2.6-3.7,5.3-7.3,8-11c5.3-7.3,10.7-14.5,16.1-21.6l3-3.9l0.2,0.1c-7,11.2-14.2,22.2-21.6,33.1c-1.8,2.6-3.6,5.2-5.4,7.9
					c-2.1,3.1-4.3,6.3-6.5,9.4c-5.8-4.5-11.6-8.9-17.2-13.2c-5.4-4.2-10.8-8.5-16.3-12.7c2.4-3.1,4.8-6.2,7.2-9.2
					c2.1-2.7,4.2-5.3,6.2-7.9c8.2-10.3,16.4-20.6,24.9-30.6L3762,1960.7z"/>
			</g>
		</g>
	</g>
</g>
<g>
	<g>
		<g>
			<g>
				<path class="st0" d="M3796.6,1986.2c-11.1,16.7-22.9,33.3-34.4,49.6c5,4.1,10,8.3,15.1,12.5c2.6,2.2,5.3,4.4,7.9,6.6l3.9,3.3
					l2,1.7l1,0.8l0.3,0.3l0.2,0.2c2.9-3.7,5.8-7.4,8.7-11.1l2.4-2.9l0.1,0.1c-1.8,2.6-3.5,5.1-5.3,7.6c-0.9,1.3-1.8,2.5-2.7,3.8
					l-1.3,1.9l-1.7,2.4c-3.2-2.6-6.4-5.1-9.6-7.6c-3.7-3-7.6-6.1-11.4-9.2c-4.1-3.3-8.2-6.7-12.1-9.9c0.4-0.5,0.7-0.9,1-1.4
					c5.9-8.2,11.9-16.5,17.8-24.5c6-8.1,12-16.2,18.2-24.1L3796.6,1986.2z"/>
			</g>
		</g>
	</g>
</g>
<g>
	<g>
		<g>
			<g>
				<path class="st0" d="M3658.5,2020.4c4.5-5.9,8.9-11.8,13.4-17.7c4.7-6.1,9.4-12.2,14.1-18.3c10,8,20,16,29.9,24
					c-0.6,0.8-1.2,1.7-1.8,2.5c-5.8,8-11.6,16.2-17.5,24.3c-6,8.3-12.1,16.6-18.1,24.9c-4.6-4.2-9.3-8.3-13.9-12.5l-3.8-3.5l0.1-0.1
					c3,2.5,6,4.9,8.9,7.4c2.8,2.4,5.6,4.7,8.5,7.1c1.6-2.4,3.3-4.8,4.9-7.1c1.8-2.5,3.5-5,5.3-7.6c7.7-11,16.2-23.1,24-34
					c0.2-0.3,0.4-0.6,0.6-0.9c0.1-0.2,0.1-0.2,0.1-0.2l0,0c-4.4-3.6-9-7.3-13.5-11c-4.5-3.7-9.1-7.4-13.5-11.1
					c0.1-0.1-0.8,0.9-1.3,1.6c-8.7,10.8-17.4,21.6-26.3,32.3L3658.5,2020.4z"/>
			</g>
		</g>
	</g>
</g>
<g>
	<g>
		<g>
			<g>
				<path class="st0" d="M3685.4,2064.8c5.9-8.6,11.8-17.2,17.8-25.8l9-12.9c3.3-4.7,6.6-9.4,10-14.1c5.6,4.3,11.1,8.6,16.7,12.9
					c5.4,4.2,10.7,8.3,16.1,12.5c0.4,0.3,0.8,0.6,1.2,0.9c-6.5,8.6-13,17.3-19.6,26.1c-6.6,8.6-13.1,17.2-19.7,25.8l-4.1-3.2
					l-3.2-2.5c-2.1-1.7-4.2-3.4-6.4-5.1c-4.2-3.4-8.4-6.8-12.6-10.1l-4.9-4l0.1-0.2c5.3,3.7,10.6,7.5,15.9,11.2
					c5,3.6,9.9,7.2,14.9,10.8l0.3-0.4l0.8-1.2l1.8-2.5l3.6-4.9c4.7-6.5,9.8-13.4,14.8-20.3c4.8-6.4,9.5-12.8,14-18.9l0,0
					c-4.8-3.8-9.7-7.7-14.7-11.5c-2.6-2-5.1-4.1-7.7-6.1c-1.3-1-2.6-2-3.8-3l-1.9-1.5l-0.5-0.4l-0.1-0.1l0,0l-0.1-0.1
					c-2.1,2.8-4.2,5.6-6.2,8.3c-10.1,13.6-20.4,27.2-30.9,40.5L3685.4,2064.8z"/>
			</g>
		</g>
	</g>
</g>
<g>
	<g>
		<g>
			<g>
				<path class="st0" d="M3722.3,2092.9c5.8-8.4,11.7-16.8,17.6-25.1c6.1-8.6,12.2-17.2,18.4-25.8c10.3,7.9,20.5,15.7,30.7,23.5
					c0.6,0.5,1.2,0.9,1.8,1.4c-6.2,8.2-12.6,16.4-18.9,24.7c-6.3,8.2-12.6,16.4-18.9,24.5c-4.4-3.3-8.8-6.6-13.2-9.8
					c-4.2-3.1-8.3-6.3-12.5-9.4l-4.9-3.8l0.1-0.1c5.2,3.6,10.3,7.2,15.4,10.7c4.9,3.5,9.9,7,14.8,10.5c2.3-3.1,4.6-6.1,6.9-9.2
					c4.7-6.2,9.6-12.8,14.5-19.3c4.8-6.3,9.5-12.5,14-18.5l0,0l-0.3-0.2c-9.6-7.4-19.5-15.1-29.2-22.6c-2.2,3-4.4,5.9-6.5,8.8
					c-9.8,13.3-19.7,26.6-29.7,39.8L3722.3,2092.9z"/>
			</g>
		</g>
	</g>
</g>
<g>
	<g>
		<g>
			<g>
				<path class="st0" d="M3660.3,2051.3c2.6,2.1,5.1,4.2,7.6,6.4c1.2,1.1,2.5,2.2,3.7,3.3c0.6,0.6,1.2,1.1,1.8,1.7
					c0.8,0.7,1.6,1.5,2.4,2.2c-0.7,1.1-1.3,2.1-2,3.2c-3.8,6-7.8,12-11.9,17.7l-0.9,1.1l-0.1-0.1c1.7-3.4,3.5-6.8,5.4-10.1
					c1.8-3.2,3.9-6.6,5.9-9.8c0.3-0.4,0.5-0.8,0.8-1.2l0.4-0.6l0,0v0v0l-0.2-0.2l-0.8-0.7l-1.5-1.5c-1-1-2-2-2.9-3
					c-2.6-2.7-5.2-5.5-7.7-8.4L3660.3,2051.3z"/>
			</g>
		</g>
	</g>
</g>
<g>
	<g>
		<g>
			<g>
				<path class="st0" d="M3660.3,2095.1c3.3-4.3,6.7-8.6,10.1-12.9c1.7-2.1,3.4-4.3,5.1-6.4c1.9-2.4,3.8-4.7,5.7-7
					c5.4,4,10.8,8,16.1,12c5.3,4,10.7,8.1,16.1,12.2c-1.6,2.2-3.2,4.5-4.8,6.7c-1.4,2-2.9,4-4.3,6c-2.9,4-5.8,8-8.7,11.9l-2,2.6
					l-0.1-0.1c4.6-7.4,9.4-14.6,14.2-21.9c1.1-1.6,2.1-3.2,3.3-4.9l-0.1,0l0,0l-0.2-0.2l-1-0.7c-0.6-0.5-1.3-1-2-1.4
					c-1.3-1-2.6-1.9-3.9-2.9c-2.6-2-5.2-3.9-7.7-5.8c-2.5-1.9-5.1-3.9-7.7-5.8l-3.8-2.9l-1.9-1.5l-0.9-0.7l-0.2-0.2l0,0l-0.1-0.1
					c-1.3,1.5-2.6,3.1-3.9,4.5c-5.7,6.6-11.4,13.1-17.2,19.6L3660.3,2095.1z"/>
			</g>
		</g>
	</g>
</g>
<g>
	<g>
		<g>
			<g>
				<path class="st0" d="M3701,2120c2.8-3.9,5.7-7.8,8.6-11.7c1.5-1.9,2.9-3.9,4.4-5.8c1.7-2.2,3.3-4.3,5-6.4
					c3.6,2.6,7.1,5.1,10.7,7.6c3.5,2.5,7,5.1,10.5,7.7c3.7,2.8,7.4,5.5,11.1,8.3l-2.4,3l-2,2.4c-1.3,1.6-2.7,3.2-4,4.8l-1.7,2
					l-0.1-0.1c1.4-2.1,2.9-4.2,4.4-6.2c1.4-1.9,2.7-3.8,4.1-5.6l-0.2-0.1l-0.1-0.1l-0.3-0.2l-1.1-0.8l-2.2-1.6
					c-5.5-3.8-11.5-8.1-16.8-12c-1.6-1.2-3.3-2.4-4.9-3.6l-2.5-1.8l-1.2-0.9l-0.5-0.4l-0.1-0.1c-1.6,2-3.2,3.9-4.8,5.8
					c-4.4,5.3-8.8,10.6-13.4,15.7L3701,2120z"/>
			</g>
		</g>
	</g>
</g>
<g>
	<g>
		<g>
			<g>
				<path class="st0" d="M127.5,133.6c5.9-8.4,11.9-16.7,17.9-25c3-4.2,6-8.3,9-12.5l4.5-6.2l2.1-2.8l0.4-0.6l0.2-0.3
					c0-0.1,0.2-0.2,0-0.2c-0.2-0.1-0.5-0.1-0.7-0.2c-0.3-0.1-0.2,0-1-0.7c-0.7-0.5-1.3-1.2-1.8-2c-0.5-0.8-0.8-1.6-1-2.5
					c-0.3-1.7-0.1-3.4,0.3-4.8c0.2-0.7,0.4-1.4,0.7-2.1c0.1-0.3,0.3-0.7,0.4-1l0.1-0.2c0.1-0.1,0.1-0.2,0.2-0.3l-0.3-0.2
					c-0.1,0-0.1-0.1-0.1-0.1c0,0,0,0,0,0l0,0l0,0l-0.2-0.2l-0.3-0.3c-0.4-0.4-0.8-0.9-1.1-1.5c-0.7-1-1.2-2.4-1.4-3.8
					c-0.1-1.4,0.2-2.9,0.7-4.1c0.3-0.6,0.6-1.2,0.9-1.7c0.2-0.3,0.4-0.5,0.5-0.7l0.3-0.4L158,59c0.1-0.2,0.4-0.3,0.2-0.4
					c0,0-0.1-0.1-0.1-0.1l0,0c0,0,0,0.1,0,0l-0.2-0.4c-0.2-0.6-0.3-1.3-0.5-1.9c-0.1-1.4,0-2.9,0.7-4.3c0.3-0.7,0.7-1.3,1.2-1.8
					c0.3-0.4,0.3-0.3,0.4-0.4c0.1-0.1,0.1-0.1,0.1-0.1c0.1-0.1,0.2-0.1,0.3-0.2c0.1,0,0-0.1-0.1-0.1l-0.2-0.1l-0.2-0.2l-0.1-0.1
					l-0.4-0.3l-0.8-0.6l-3.1-2.3l-6.2-4.6l-12.3-9.2c-7.4-5.5-14.7-11-22.1-16.5c-4.1,5.2-8.1,10.4-12.2,15.6
					c-8.4,10.8-16.9,21.6-25.5,32.5l-1.9-0.9l-0.5-0.2l-0.2-0.1c-0.1,0,0,0,0,0c0,0-0.1-0.1-0.2-0.1c-0.4-0.2-1.2-0.7-2.8-1.4
					c-0.1-0.2-0.3-0.3-0.4-0.5c-0.1-0.2-0.2-0.4-0.4-0.5l-0.3-0.3c-0.2-0.2-0.5-0.4-0.7-0.6L69,58.3c-0.3-0.2-0.6-0.3-0.9-0.5
					c-0.6-0.4-1.3-0.6-2-0.9l-2.2-0.7l-2.3-0.6l-2.3-0.4C58.6,55,57.8,55,57,54.9l-1.2-0.1l-1.2,0c-3.2-0.1-6.3,0.1-9.2,0.9
					c-1.5,0.4-2.8,0.9-4,1.6c-0.3,0.2-0.6,0.4-0.9,0.5c-0.1,0.1-0.3,0.2-0.4,0.3c0,0,0,0,0,0c-0.1,0.1-0.2,0.1-0.2,0.2l0.1,0.2
					l0.1,0.1l0.4,0.6l1.5,2.6c1,1.7,2,3.5,2.9,5.3c1.9,3.5,3.8,7.1,5.5,10.7c3.5,7.2,6.6,14.7,8.9,22.4c0.3,1,0.5,2,0.8,3l0.4,1.5
					c0.1,0.5,0.2,1,0.3,1.5c0.2,1,0.4,2,0.5,3l0.4,2.9c0.5,3.9,1,7.8,1.5,11.7c1,7.8,1.9,15.6,2.8,23.4c0,0,0.3,3,0.6,6
					c0.1,1.5,0.2,3,0.3,4.2c0,0.6,0,1,0,1.4c0,0.4-0.1,0.6-0.1,0.6l-0.5-0.1c0-1-0.2-2-0.3-3c-0.1-1-0.3-2-0.5-3l-1-5.9l-2.1-11.9
					c-1.4-7.9-2.9-15.8-4.3-23.7c-0.2-1-0.3-2-0.5-2.9l-0.6-2.8c-0.2-0.9-0.5-1.9-0.8-2.8c-0.3-0.9-0.5-1.9-0.9-2.8l-1-2.8l-1.1-2.8
					c-0.7-1.8-1.6-3.6-2.3-5.5c-3.3-7.2-7.1-14.2-11.1-21.1c-0.9-1.5-1.7-2.9-2.6-4.4c-0.5-0.7-0.9-1.5-1.4-2.2
					c-0.8-1.3-1.6-2.5-2.4-3.8c0.6-1.2,1.3-2.4,2.4-3.4c1.3-1.2,1.9-1.6,2.8-2.1c1.7-1,3.5-1.7,5.3-2.2c3.6-1,7.3-1.3,10.9-1.3
					c0.9,0,1.8,0,2.7,0.1c0.9,0.1,1.8,0.1,2.7,0.2l2.7,0.5c0.9,0.2,1.8,0.4,2.7,0.6c0.9,0.2,1.8,0.5,2.7,0.8
					c0.9,0.4,1.8,0.7,2.7,1.1c0.4,0.2,0.9,0.4,1.3,0.7l1.3,0.8c0.4,0.3,0.9,0.7,1.3,1l0.6,0.6c0,0,0,0,0,0c0,0,0,0.1,0.1,0.1
					c0,0.1,0,0,0.1-0.1c7.6-9.8,15-19.3,22.1-28.5c5.3-6.8,10.7-13.6,16.1-20.5c8.9,6.8,17.9,13.7,26.9,20.6
					c8.6,6.7,17.3,13.3,25.8,19.9c0,0.5,0,1-0.1,1.4l0,0.7c0,0.1,0,0.3,0,0.3l-0.1,0.2c-0.2,0.5-0.5,1.2-0.9,2.5l-0.8,0.4l-0.6,0.4
					l-0.3,0.2l-0.1,0.1c0,0,0,0-0.1,0.1l-0.2,0.2c-0.2,0.2-0.4,0.5-0.4,0.7c-0.2,0.5-0.2,1.1-0.1,1.8c0,0.1,0.1,0.2,0.1,0.3l0.2,0.5
					c0.3,0.6,0.5,1.1,0.7,1.6l0.3,0.8l0.2,0.4l0.1,0.2c0,0.1-0.1,0.1-0.1,0.1l-1.2,1.2c-0.2,0.2-0.4,0.4-0.6,0.6
					c-0.2,0.2-0.5,0.5-0.5,0.6c-0.2,0.2-0.3,0.4-0.5,0.6c-0.3,0.4-0.5,0.8-0.7,1.2c-0.3,0.8-0.3,1.5,0,2.4c0.1,0.4,0.4,0.8,0.7,1.2
					c0.2,0.2,0.4,0.4,0.5,0.6l0.2,0.2c0.1,0.1,0.2,0.2,0.3,0.3l0.7,0.6l0.6,1.9c0,0.5-0.1,1.1,0,1.9c-0.3,0.5-0.6,0.9-0.8,1.4
					c-0.1,0.3-0.3,0.5-0.4,0.8c-0.2,0.5-0.4,1-0.6,1.5c-0.3,1-0.4,2-0.3,2.8c0.1,0.8,0.5,1.5,1.1,2.1c0.2,0.2,0.2,0.3,0.8,0.5
					c0.2,0.1,0.5,0.2,0.7,0.4l0.8,0.3c1.1,0.4,2.2,0.7,3.1,1c0,0.3-0.4,0.7-0.7,1.1l-0.9,1.2l-1.9,2.4l-2.6,3.3l-4.8,6l-9.7,12
					c-6.5,8-13,15.9-19.5,23.9L127.5,133.6z"/>
			</g>
		</g>
	</g>
</g>
<g>
	<g>
		<g>
			<g>
				<path class="st0" d="M56,90.1c-12.4,17.9-25.2,35.7-38.2,53.3L13,150l-2.4,3.3l-1.1,1.5L9.3,155c-0.2,0.1,0.1,0.2,0.2,0.2l0,0
					l0,0l0.1,0.1l0.9,0.5l1.8,1c2.4,1.3,4.8,2.5,7.2,3.6c4.9,2.3,9.8,4.4,14.8,6.3c5,1.9,10.1,3.6,15.3,5.1c2.4,0.7,4.8,1.3,7.2,2
					l2.9,0.7c0,0,0,0,0,0c1.1-4.4,2.3-8.7,3.4-13.1c2.5-9.9,5.1-19.9,7.4-29.9c1.2-5,2.3-10,3.3-15c0.2-1.2,0.5-2.5,0.6-3.7
					c0.2-1.2,0.3-2.4,0.4-3.7c0.2-2.5,0.3-5,0.4-7.6c0.2-10.2,0.1-20.4,0-30.5l-0.1-8.2l0.5,0c1.4,10.9,2.4,21.8,3.1,32.7
					c0.2,2.7,0.3,5.5,0.4,8.2c0.1,2.8,0.1,5.5-0.1,8.4c-0.5,5.7-1.5,11-2.4,16.5c-1.9,10.4-4.4,21.3-6.9,32.1
					c-0.7,2.7-1.3,5.4-2,8.1c-0.7,3-1.5,5.9-2.2,8.9c-0.3,1.3-0.7,2.6-1,4l-0.1,0.5c-0.2,0-0.3-0.1-0.5-0.1l-1-0.2l-2-0.5
					c-1.8-0.4-3.6-0.8-5.3-1.2c-2.7-0.7-5.3-1.4-7.9-2.1c-5.3-1.5-10.5-3.4-15.7-5.3c-5.2-2-10.3-4.3-15.3-6.8
					c-2.5-1.2-5-2.6-7.4-3.9l-1.8-1l-0.9-0.5c-0.5-0.3-1.1-0.7-1.6-1l-3.2-2.1l-0.8-0.5c0,0-0.2-0.1-0.2-0.1l0.1-0.2l0.3-0.4
					l1.1-1.5c0.7-1,1.6-2,2.3-3l1.3-1.7c0.8-1.1,1.7-2.1,2.5-3.2c1.7-2.1,3.4-4.2,5.1-6.3c13.7-17.1,27.5-34,41.9-50.5L56,90.1z"/>
			</g>
		</g>
	</g>
</g>
<g>
	<g>
		<g>
			<g>
				<path class="st0" d="M5.5,155.8c0.7,2.4,2,4.6,3.5,6.6c1.5,2,3.3,3.9,5.1,5.6c3.7,3.5,7.8,6.7,12,9.8
					c8.4,6.1,17.3,11.6,26.2,16.9c2.1,1.2,4.2,2.4,6.3,3.7l0.8,0.5l0.3,0.2l0.1,0l0.2,0.1c0.1,0.1,0.1,0.1,0.1,0.1
					c0.1,0.1,0.3,0.3,0.7,0.5c0.1,0,0.1-0.1,0.1-0.3c0-0.1-0.1-0.3-0.1-0.5l-0.1-0.3c0,0-0.2-0.4-0.4-0.6l-0.5-0.8l-3.9-6.4
					c-2.5-4.2-5-8.5-7.4-12.8l-1.9-3.5l0.4-0.3c3.5,4,7,8,10.3,12.1c1.7,2.1,3.3,4.1,4.9,6.2l2.4,3.1l4.1,5.7c0.7,1,1.4,1.9,2.1,2.9
					L72,206l1,1.4c1.3,1.9,2.6,3.9,4,5.9l1,1.5l0.5,0.8l0,0l0,0l-0.1,0l-0.2-0.1l-0.4-0.2c-1-0.5-2-1-3-1.5c-2.1-1-4.2-2-6.2-3
					l-3.3-1.7l-3.4-1.8c-1.2-0.6-2.2-1.2-3.3-1.8c-0.9-0.5-1.7-0.9-2.6-1.4c-2.3-1.3-4.6-2.6-6.8-3.9c-9-5.4-18.1-11.5-26.1-18.4
					c-4.1-3.5-7.9-7.3-11.3-11.5c-0.9-1-1.6-2.2-2.4-3.3c-0.7-1.2-1.5-2.3-2-3.5c-1.2-2.4-2.2-5-2.3-7.7L5.5,155.8z"/>
			</g>
		</g>
	</g>
</g>
<g>
	<g>
		<g>
			<g>
				<path class="st0" d="M73.1,129.2c4.7-2.6,10-4.2,15.4-4.9c2.7-0.3,5.5-0.4,8.4-0.2c3,0.3,5.8,1.2,8.3,2.2c2.3,0.9,4.6,2,6.7,2.9
					c2.2,0.9,4.3,1.8,6.5,2.5c2.2,0.6,4.4,1.1,6.6,1.2c2.3,0.1,4.6,0,6.9-0.4l1.9-0.3l0.2,0.5c-2.2,1.6-4.6,3-7.3,3.7l-1,0.3
					c-0.3,0.1-0.7,0.1-1,0.2c-0.7,0.1-1.4,0.2-2.1,0.3c-0.7,0-1.4,0-2.1,0.1c-0.7,0-1.4-0.1-2.1-0.1c-2.7-0.2-5.6-0.9-8.2-1.9
					c-2.6-0.9-5.1-2-7.3-2.8c-2.3-1-4.5-1.8-6.7-2.2c-2.3-0.4-4.8-0.6-7.3-0.8c-5-0.2-10.2,0-15.6,0.3L73.1,129.2z"/>
			</g>
		</g>
	</g>
</g>
<g>
	<g>
		<g>
			<g>
				<path class="st0" d="M138.2,125c1.2,0.8,2.4,1.6,3.4,2.6c1.1,1,2.1,2.1,3,3.5c0.4,0.7,0.8,1.5,1.1,2.3c0.3,0.9,0.4,1.9,0.3,3
					c-0.1,1-0.4,2.1-1,3c-0.6,1-1.2,1.5-1.8,2.2c-2.5,2.3-5.3,3.7-8.1,4.8c-1.4,0.5-2.8,1-4.2,1.4c-0.7,0.2-1.4,0.4-2.1,0.6
					c-0.2,0.1-0.2,0.1-0.2,0.1l-0.1,0l-0.1,0.1c0,0.1-0.1,0.2-0.1,0.3l0,0.1l-0.2,0.3l-0.4,0.7l-1.8,2.8c-1.2,1.9-2.4,3.7-3.6,5.6
					c-2.4,3.7-4.9,7.4-7.4,11.1c-10.5,15.1-22,30.3-34.6,44l-2.6,2.7l-0.6-0.4c3.9-9.4,8.7-18.1,13.7-26.7
					c4.8-8.3,10.7-17.2,16.1-25.1c2.5-3.6,5.2-7.2,7.8-10.8c1.3-1.8,2.7-3.6,4-5.4c0.7-0.9,1.4-1.8,2-2.6l0.5-0.7l0.3-0.4l0.5-0.6
					l1.8-2.4c1-0.1,1.9-0.2,2.8-0.3c0.6-0.1,1.2-0.1,1.7-0.2c2.3-0.3,4.6-0.7,6.7-1.3c1.1-0.3,2.1-0.7,3.1-1.1
					c1-0.4,1.8-0.9,2.6-1.5c0.6-0.4,1-1,1.1-1.8c0.1-0.8,0-1.9-0.4-3c-0.8-2.2-2.1-4.3-3.6-6.3L138.2,125z"/>
			</g>
		</g>
	</g>
</g>
<g>
	<g>
		<g>
			<g>
				<path class="st0" d="M130.5,32c-2.7,4.3-5.4,8.5-8.3,12.7c-1.4,2.1-2.9,4.2-4.3,6.3l-2.2,3.1l-1.1,1.5l-2,2.8
					c-2.9-2.1-5.7-4.2-8.6-6.3c-2.7-2-5.5-4.1-8.2-6.2c1-1.3,2.1-2.7,3.1-4l2.2-2.8c1.5-1.8,3-3.7,4.5-5.5c3-3.6,6-7.2,9.1-10.7
					l1.7-1.8l0.2,0.2c-3.4,5.6-7.1,11.1-10.9,16.5c-1,1.4-2.1,2.9-3.2,4.4c-0.5,0.7-1.1,1.5-1.6,2.2l-0.4,0.6
					c-0.1,0.2-0.3,0.4-0.3,0.4c0,0,0,0,0,0.1l0,0c0,0,0,0,0,0l0.4,0.3c0.6,0.4,1.2,0.9,1.8,1.3c1.2,0.9,2.3,1.7,3.4,2.5
					c1.2,0.9,2.4,1.8,3.6,2.7l1.8,1.4l0.5,0.3c0.1,0.1,0.1,0,0.1,0.1l0,0l0,0.1l0.1,0c0,0,0,0,0,0l0.2-0.3l0.4-0.5l1.6-2.1
					c1.1-1.4,2.2-2.8,3.3-4.1c4.1-5.1,8.3-10.2,12.7-15.1L130.5,32z"/>
			</g>
		</g>
	</g>
</g>
<g>
	<g>
		<g>
			<g>
				<path class="st0" d="M134.1,36.6c-2.7,4.2-5.4,8.3-8.3,12.3c-1.4,2-2.9,4-4.3,6.1l-2.2,3l-1.1,1.5l-0.1,0.2c0,0,0,0,0,0l0,0l0,0
					l0.1,0c-0.1-0.1,0.3,0.2,0.6,0.5l1.9,1.4c1.3,1,2.5,1.9,3.8,2.9c1.3,1,2.6,2,3.9,3l2,1.5l0.5,0.4l0.1,0.1c0,0,0,0,0,0l0,0l0,0
					c0,0,0,0,0.1,0l1-1.3l2-2.7c1.3-1.8,2.7-3.6,4-5.4c2.7-3.6,5.5-7.1,8.3-10.5l1.6-1.9l0.2,0.1c-3.2,5.7-6.6,11.3-10.2,16.8
					c-0.9,1.3-1.7,2.6-2.6,4c-0.4,0.7-0.9,1.4-1.4,2c-0.8,1.1-1.5,2.2-2.3,3.4c-3.1-2.4-6.2-4.7-9.2-7c-2.9-2.2-5.8-4.5-8.7-6.8
					l2.5-3.2l1.6-2c1.1-1.3,2.1-2.6,3.2-3.9c4.1-5,8.4-10,12.9-14.8L134.1,36.6z"/>
			</g>
		</g>
	</g>
</g>
<g>
	<g>
		<g>
			<g>
				<path class="st0" d="M154.3,50.8c-2.5,4.3-5.1,8.6-7.9,12.8c-1.4,2.1-2.8,4.2-4.2,6.2c-1.2,1.8-2.4,3.5-3.7,5.3l0,0l0,0l0.8,0.6
					l1.9,1.6c1.3,1.1,2.6,2.2,3.9,3.3c1.3,1.1,2.6,2.2,3.8,3.4c0.6,0.6,1.3,1.1,1.9,1.7c0.8,0.7,0.7,0.7,1,1l0.2-0.2l0.1-0.1
					c0.1-0.1,0.1,0,0.2-0.2l1.2-1.4c0.8-0.9,1.6-1.8,2.4-2.7l1.3-1.4l0.2,0.1c-0.7,1.4-1.5,2.7-2.3,4c-0.4,0.7-0.8,1.3-1.2,2
					l-0.3,0.5l-0.5,0.7c-0.3,0.5-0.7,1-1,1.5c-0.6-0.5-1.2-0.9-1.8-1.4l-1.3-1c-0.8-0.6-1.6-1.2-2.3-1.7c-1.9-1.4-3.8-2.9-5.8-4.4
					c-1-0.8-1.9-1.5-2.9-2.3c-1.3-1.1-2.7-2.2-4-3.2c0.2-0.2,0.3-0.5,0.5-0.7c0.9-1.3,1.9-2.6,2.8-3.9c0.7-1,1.5-2,2.2-3
					c1.5-2,3-4,4.6-5.9c3.1-3.9,6.3-7.8,9.8-11.4L154.3,50.8z"/>
			</g>
		</g>
	</g>
</g>
<g>
	<g>
		<g>
			<g>
				<path class="st0" d="M78.6,69c2-3.1,4.1-6.1,6.3-9.1c1.1-1.5,2.2-3,3.2-4.5l1.6-2.2l1-1.3l1.5-2c2.8,2.2,5.5,4.3,8.3,6.4
					l3.6,2.8c1.6,1.3,3.2,2.5,4.7,3.8l-1.3,1.8c-1.5,2.1-3,4.2-4.6,6.4c-1.5,2-2.9,4-4.4,6c-1.5,2-3,4-4.5,6l-2.3,3l-1.1,1.5
					l-1.8,2.4l-1.3-1.2l-1.1-1L84.7,86c-1.1-1-2.1-2.1-3.2-3.1L79.7,81l0.2-0.2c1.6,1.1,3.1,2.2,4.7,3.4c0.8,0.6,1.5,1.2,2.3,1.7
					l0.6,0.4l0.3,0.2l0.2,0.1l0.5,0.4l0.3-0.5l0.1-0.2l0.3-0.4l1.2-1.9c0.8-1.3,1.7-2.6,2.5-3.8c1.8-2.8,3.8-5.7,5.8-8.6
					c1-1.4,2-2.9,3-4.3c0.9-1.3,1.8-2.6,2.7-3.8l0,0c-1.9-1.6-3.9-3.2-5.8-4.8c-1.2-1-2.3-2-3.5-2.9l-1.7-1.5l-0.4-0.4
					c-0.1-0.1-0.1-0.1-0.1-0.1l-0.2-0.2c-0.1,0.1-0.1,0.1-0.2,0.2c-1.1,1.3-2.2,2.5-3.2,3.8c-1.1,1.3-2.3,2.6-3.4,3.9
					c-2.3,2.6-4.6,5.1-7,7.6L78.6,69z"/>
			</g>
		</g>
	</g>
</g>
<g>
	<g>
		<g>
			<g>
				<path class="st0" d="M92.9,92.5c2.8-4.4,5.6-8.7,8.5-13c1.5-2.2,2.9-4.3,4.4-6.5l2.2-3.2l1.1-1.6l2-2.8c3,2.3,5.9,4.5,8.9,6.8
					c2.9,2.2,5.8,4.5,8.6,6.7c0.2,0.1,0.4,0.3,0.6,0.5c-1.8,2.5-3.7,4.9-5.6,7.4c-1.6,2-3.1,4.1-4.7,6.1c-1.6,2-3.2,4.1-4.8,6.1
					c-1.8,2.3-3.7,4.7-5.5,7l-2.5-2l-1.6-1.3l-3.1-2.6L95.3,95l-2.4-2.1l0.2-0.2c2.7,1.7,5.4,3.5,8.1,5.3c1.3,0.9,2.7,1.8,4,2.7
					l2,1.4c0.8,0.6,0.8,0.6,1.1,0.7l0.3-0.4l0.8-1.2l1.7-2.5c2.3-3.3,4.8-6.7,7.2-10.1c2.2-3,4.4-5.9,6.4-8.8l0,0
					c-2.2-1.7-4.4-3.5-6.6-5.3l-3.8-3l-1.9-1.5l-0.5-0.4l-0.1-0.1l0,0l0,0l-0.1-0.1l-0.1,0.1l-0.8,1c-0.6,0.8-1.2,1.5-1.8,2.3
					c-5.1,6.7-10.4,13.3-15.9,19.7L92.9,92.5z"/>
			</g>
		</g>
	</g>
</g>
<g>
	<g>
		<g>
			<g>
				<path class="st0" d="M113.9,108c2.7-4.3,5.5-8.6,8.3-12.8c1.4-2.1,2.9-4.2,4.3-6.3l2.2-3.2l1.1-1.6l2-2.8
					c2.9,2.2,5.8,4.4,8.7,6.5c2.7,2.1,5.5,4.2,8.2,6.3c0.3,0.3,0.7,0.5,1,0.8c-1.8,2.4-3.7,4.8-5.5,7.2c-1.5,2-3.1,3.9-4.6,5.9
					c-1.6,2-3.1,3.9-4.7,5.9c-1.8,2.3-3.6,4.5-5.4,6.8l-2.5-1.9l-1.5-1.2l-3.1-2.4l-6-4.9l-2.4-2l0.1-0.2c2.7,1.6,5.3,3.3,7.9,4.9
					c1.3,0.9,2.6,1.7,3.9,2.5c1.2,0.8,3,2,3,2l0.3-0.4l0.8-1.2l1.7-2.4c2.2-3.1,4.6-6.4,7.1-9.7c2.1-2.8,4.2-5.6,6.2-8.3l0,0
					c-2.2-1.7-4.4-3.4-6.6-5.2l-3.7-2.9L133,86l-0.5-0.4c-0.1-0.1-0.1,0-0.1-0.1l0,0l-0.1-0.1l-0.1,0.1l-0.8,1
					c-0.6,0.8-1.2,1.5-1.8,2.3c-5,6.5-10.1,13-15.5,19.2L113.9,108z"/>
			</g>
		</g>
	</g>
</g>
<g>
	<g>
		<g>
			<g>
				<path class="st0" d="M77.6,86c1.5,0.8,3,1.8,4.3,2.8c0.7,0.5,1.3,1,2,1.6c0.3,0.3,0.7,0.6,1,0.9c0.6,0.6,1.2,1.1,1.8,1.7
					c-0.5,0.8-1,1.6-1.5,2.4c-1.9,3-4.1,6-6.8,8.6l-0.6,0.5l-0.2-0.1c0.4-2,1.2-3.9,2-5.6c0.8-1.7,1.8-3.5,2.8-5.1l0.1-0.1l0,0l0,0
					c0,0,0,0,0,0c0,0,0,0,0,0c0,0,0,0,0,0l-0.2-0.2l-0.4-0.4c-0.5-0.5-1-1.1-1.4-1.6c-1.2-1.5-2.4-3.1-3.3-4.9L77.6,86z"/>
			</g>
		</g>
	</g>
</g>
<g>
	<g>
		<g>
			<g>
				<path class="st0" d="M78,111.5c1.5-2.3,3.1-4.7,4.8-6.9c0.8-1.1,1.7-2.3,2.5-3.4c0.4-0.6,0.8-1.1,1.3-1.7l0.3-0.4l0.6-0.8
					l1.3-1.6c1.7,1.2,3.4,2.5,5.1,3.7c1.3,1,2.6,1.9,4,2.9c1.3,1,2.6,2,3.9,3c1.7,1.3,3.3,2.6,5,3.9c-0.6,0.9-1.3,1.8-1.9,2.7
					l-1.1,1.5c-0.8,1-1.5,2-2.3,3c-1.6,2-3.2,3.9-4.8,5.8l-1.1,1.2l-0.2-0.1c1.9-4,4.2-7.9,6.5-11.7c0.3-0.5,0.6-0.9,0.9-1.4
					l0.1-0.2l0,0l0-0.1l0-0.1l-0.1-0.1l0,0l-0.2-0.2l-0.5-0.4l-2-1.5c-1.3-1-2.7-2-3.9-2.9c-1.3-1-2.6-2-3.9-3l-1.9-1.5l-0.5-0.4
					l-0.2-0.2l0,0l-0.1-0.1l-0.1,0.1l-0.1,0l0,0l-0.1,0.1l-1.2,1.3c-3,3.3-6.1,6.4-9.5,9.4L78,111.5z"/>
			</g>
		</g>
	</g>
</g>
<g>
	<g>
		<g>
			<g>
				<path class="st0" d="M102.2,126.9c1.2-2.2,2.6-4.3,3.9-6.3c0.7-1,1.4-2.1,2.1-3.1c0.4-0.5,0.7-1,1.1-1.5c0.7-0.9,1.3-1.8,2-2.6
					c2.1,1.5,4.2,3,6.3,4.4c1.8,1.3,3.6,2.6,5.3,4c0.9,0.7,1.7,1.4,2.6,2.1c0.4,0.4,0.9,0.7,1.3,1.1c0.7,0.6,1.5,1.2,2.2,1.8
					c-0.6,0.7-1.2,1.4-1.8,2.1c-0.4,0.4-0.8,0.8-1.1,1.2c-0.7,0.8-1.5,1.5-2.3,2.3l-1,0.9l-0.2-0.2c0.6-1.2,1.2-2.3,1.9-3.5
					c0.3-0.6,0.7-1.1,1-1.7l0.1-0.2c0,0,0-0.1,0.1-0.1l0.1-0.2c0-0.1,0.1-0.2,0.1-0.3c-0.2-0.1-0.3-0.2-0.5-0.2c0,0,0,0-0.1-0.1
					l-0.3-0.2l-0.6-0.4c-2.9-1.8-6-3.9-8.7-5.9c-0.8-0.6-1.7-1.2-2.5-1.9l-1.2-1l-0.1-0.1c0,0,0,0-0.1,0c0,0,0,0-0.1,0.1l-0.4,0.4
					c-0.5,0.5-1,1.1-1.4,1.6c-2.4,2.6-4.8,5.1-7.5,7.5L102.2,126.9z"/>
			</g>
		</g>
	</g>
</g>
</svg>
