<?xml version="1.0" encoding="utf-8"?>
<!-- Generator: Adobe Illustrator 27.3.1, SVG Export Plug-In . SVG Version: 6.00 Build 0)  -->
<svg version="1.1" id="Layer_1" xmlns="http://www.w3.org/2000/svg" xmlns:xlink="http://www.w3.org/1999/xlink" x="0px" y="0px"
	 viewBox="0 0 190 120" style="enable-background:new 0 0 190 120;" xml:space="preserve">
<style type="text/css">
	.st0{fill:#F9F6E6;}
</style>
<g>
	<g>
		<g>
			<g>
				<path class="st0" d="M53.77,73.52c-4.84-0.69-9.67-0.94-14.53-0.87c-1.21,0.01-2.43,0.05-3.64,0.1c-0.61,0.02-1.33-0.02-2-0.03
					c-0.68-0.03-1.36-0.19-2.04-0.29c-2.73-0.57-5.25-2.16-7.14-4.14c-1.91-1.99-3.24-4.33-4.37-6.65
					c-0.55-1.16-1.06-2.33-1.53-3.47c-0.48-1.14-0.94-2.18-1.46-3.28c-1.04-2.19-2.2-4.59-2.89-7.24c-0.74-2.63-0.94-5.42-0.82-8.1
					c0.07-1.34,0.22-2.67,0.43-3.97c0.2-1.26,0.42-2.45,0.65-3.7c0.24-1.25,0.46-2.48,0.91-3.94c0.24-0.73,0.63-1.67,1.23-2.46
					c0.58-0.77,1.05-1.21,1.43-1.64c0.38-0.42,0.74-0.82,1.08-1.26c0.28-0.36,0.87-1.07,1.36-1.58c1.02-1.08,2.12-1.94,3.24-2.74
					c2.23-1.59,4.55-2.81,6.96-3.9l1.72-0.72l1.6-0.73l3.27-1.57c2.18-1.06,4.35-2.16,6.43-3.28c0.51-0.28,1.02-0.57,1.49-0.85
					c0.45-0.27,0.86-0.54,1.38-0.9c1.01-0.7,2.34-1.55,3.73-2.12c2.82-1.19,5.65-1.52,8.29-1.65c2.47-0.11,4.89,0.02,7.24,0.2
					c2.29,0.2,4.58,0.4,6.87,0.61c2.27,0.2,4.46,0.4,6.53,0.35c2.07-0.03,4.21-0.31,6.42-0.67c2.26-0.39,4.53-0.79,6.79-1.18
					c2.3-0.39,4.64-0.76,7.07-1.01c2.42-0.24,4.98-0.36,7.62,0.02c1.28,0.16,2.79,0.59,3.59,0.78c0.98,0.22,2.07,0.37,3.23,0.55
					c2.29,0.33,5.01,0.78,7.51,2.11c1.25,0.63,2.39,1.47,3.38,2.41c0.51,0.46,0.96,0.96,1.39,1.46c0.46,0.51,0.77,0.96,1.16,1.45
					c2.9,3.83,5.41,7.81,7.6,12.05c1.08,2.13,2.08,4.3,2.8,6.71c0.35,1.21,0.66,2.47,0.56,4.04c-0.03,0.4-0.07,0.8-0.18,1.12
					c-0.1,0.34-0.18,0.7-0.32,0.99c-0.24,0.62-0.51,1.19-0.8,1.74c-1.16,2.17-2.52,4.06-3.85,5.94c-1.33,1.86-2.75,3.69-3.83,5.53
					c0,0-0.05,0.09-0.15,0.25c-0.09,0.16-0.18,0.38-0.32,0.65c-0.03,0.11-0.07,0.23-0.12,0.36c-0.05,0.18-0.09,0.48-0.17,0.71
					c-0.15,0.5-0.39,0.99-0.68,1.44c-0.59,0.88-1.37,1.54-1.98,1.97c-0.31,0.21-0.57,0.37-0.76,0.48c-0.2,0.11-0.32,0.17-0.32,0.17
					l-0.23-0.44c1.03-0.7,1.92-1.6,2.46-2.66c0.27-0.53,0.44-1.1,0.46-1.67c0.07-0.66,0.28-1.32,0.54-1.88
					c1.04-2.31,2.37-4.39,3.57-6.52c1.21-2.11,2.43-4.26,3.21-6.4l0.24-0.79l0.15-0.74c0.02-0.23-0.01-0.44,0-0.65
					c-0.01-0.22-0.08-0.49-0.12-0.73c-0.22-1.01-0.62-2.09-1.11-3.15c-1.97-4.23-4.73-8.27-7.61-12.1c-0.72-0.95-1.47-1.9-2.23-2.81
					c-0.38-0.46-0.77-0.9-1.15-1.34c-0.39-0.45-0.74-0.78-1.12-1.16c-1.54-1.4-3.25-2.27-5.34-2.68c-2-0.44-4.36-0.47-7.05-0.95
					l-1.82-0.38c-0.51-0.09-1.01-0.17-1.54-0.22c-1.05-0.1-2.13-0.1-3.25-0.04c-2.25,0.14-4.61,0.51-7.01,0.95
					c-2.4,0.44-4.84,0.94-7.3,1.42c-2.5,0.49-5.06,0.95-7.78,1.15c-2.73,0.22-5.43,0.04-7.9-0.15c-2.46-0.2-4.9-0.4-7.31-0.6
					c-2.37-0.18-4.62-0.3-6.79-0.2c-2.21,0.08-4.33,0.38-6.04,1.09c-0.88,0.36-1.65,0.81-2.65,1.49c-0.49,0.33-1.1,0.73-1.71,1.09
					c-0.59,0.34-1.16,0.66-1.73,0.96c-2.26,1.19-4.51,2.28-6.78,3.34l-3.43,1.57l-1.79,0.77l-1.69,0.67
					c-2.11,0.9-4.2,1.95-6.01,3.18c-0.9,0.62-1.76,1.27-2.45,1.96c-0.55,0.54-1.56,1.81-2.47,2.71c-0.46,0.47-0.86,0.86-1.01,1.06
					c-0.15,0.18-0.28,0.44-0.44,0.88c-0.31,0.9-0.59,2.09-0.86,3.24c-0.26,1.18-0.51,2.35-0.77,3.52c-0.23,1.11-0.41,2.22-0.52,3.32
					c-0.2,2.23-0.16,4.44,0.33,6.6c0.43,2.17,1.31,4.31,2.24,6.61c0.47,1.15,0.93,2.38,1.33,3.54c0.4,1.16,0.81,2.28,1.24,3.38
					c0.88,2.17,1.9,4.26,3.3,5.99c1.4,1.71,3.18,3.06,5.3,3.73c0.54,0.12,1.08,0.29,1.63,0.38c0.57,0.06,1.11,0.14,1.72,0.19
					c1.24,0.07,2.47,0.15,3.71,0.25c4.94,0.41,9.85,1.2,14.6,2.48L53.77,73.52z"/>
			</g>
		</g>
	</g>
</g>
<g>
	<g>
		<g>
			<g>
				<path class="st0" d="M75.9,43.73c2.85-2.16,6.5-2.33,9.75-1.65c1.63,0.35,3.24,0.91,4.71,1.59c1.49,0.66,2.97,1.43,4.36,2.29
					c1.41,0.86,2.62,1.71,3.93,2.12c1.31,0.45,2.78,0.65,4.3,0.76c0.76,0.07,1.52,0.08,2.31,0.11l2.42,0.1
					c1.61,0.07,3.23,0.2,4.86,0.36c3.25,0.34,6.52,0.89,9.75,1.89c3.22,1,6.4,2.49,9.18,4.65l0.92,0.68
					c0.29,0.22,0.57,0.43,0.87,0.61c0.59,0.4,1.2,0.73,1.82,1.05c1.25,0.62,2.58,1.08,4,1.42c1.42,0.35,2.94,0.58,4.64,0.96
					c0.85,0.19,1.74,0.42,2.66,0.79c0.46,0.17,0.92,0.39,1.38,0.64c0.25,0.13,0.41,0.22,0.58,0.32l0.5,0.29l8.36,4.65
					c2.8,1.59,5.59,3.16,8.4,5.01c0.71,0.48,1.41,0.95,2.22,1.63l0.66,0.62c0.2,0.23,0.39,0.47,0.58,0.71
					c0.35,0.46,0.56,0.82,0.83,1.23c0.94,1.53,1.66,3,2.39,4.51c1.42,3,2.67,6.05,3.69,9.26c0.51,1.62,0.97,3.25,1.26,5.09
					l0.11,0.69l0.06,0.76l0.05,0.76c0,0.28-0.02,0.59-0.04,0.89c-0.02,0.62-0.13,1.15-0.26,1.67c-0.1,0.55-0.3,0.99-0.45,1.49
					c-0.69,1.88-1.64,3.46-2.71,4.94c-1.08,1.47-2.29,2.81-3.65,4.03c-1.37,1.22-2.89,2.32-4.71,3.18c-0.92,0.42-1.9,0.79-3.03,0.99
					l-0.84,0.14l-0.56,0.06l-1.12,0.14c-2.97,0.39-5.89,1.08-9,1.84c-5.75,1.34-11.77,2.75-18.04,3.14
					c-3.13,0.2-6.34,0.18-9.61-0.33c-0.41-0.07-0.82-0.12-1.23-0.2l-1.23-0.29c-0.82-0.17-1.64-0.44-2.46-0.73
					c-0.82-0.24-1.62-0.65-2.42-1.03l-0.6-0.29l-0.5-0.27l-0.97-0.53c-1.29-0.69-2.59-1.39-3.81-1.96c-0.62-0.29-1.15-0.51-1.74-0.7
					l-2.12-0.65c-3.07-0.99-5.85-2.12-8.72-3.45c-5.63-2.66-10.86-5.8-15.97-9.13c-2.55-1.68-5.05-3.41-7.51-5.25l-1.84-1.4
					c-0.51-0.4-1.04-0.77-1.65-1.16l-3.79-2.41c-2.58-1.68-5.16-3.54-7.45-5.79c-2.3-2.23-4.31-4.88-5.7-7.86
					c-1.39-2.98-2.08-6.25-2.14-9.46c-0.04-3.23,0.48-6.32,1.36-9.35c0.13-0.38,0.18-0.76,0.37-1.14l0.55-1.15
					c0.33-0.8,0.84-1.44,1.31-2.11c0.96-1.32,2.15-2.43,3.38-3.41c2.5-1.93,5.3-3.27,8.15-4.28c0,0,2.32-0.81,4.69-1.34
					c1.18-0.28,2.38-0.5,3.28-0.64c0.9-0.14,1.51-0.21,1.51-0.21l0.07,0.5c-3.12,0.69-6.15,1.71-9.03,3
					c-2.87,1.3-5.59,2.95-7.78,5.06c-0.27,0.27-0.56,0.51-0.81,0.8l-0.71,0.87c-0.52,0.55-0.83,1.23-1.23,1.85
					c-0.22,0.3-0.32,0.65-0.46,0.98l-0.4,0.99c-0.2,0.71-0.33,1.48-0.49,2.21c-0.53,3.02-0.68,6.09-0.2,9.02
					c0.48,2.92,1.57,5.69,3.25,8.08c1.66,2.41,3.82,4.48,6.24,6.27c2.43,1.81,5.08,3.31,7.89,4.92c0.7,0.41,1.42,0.84,2.16,1.33
					l1.99,1.4c1.27,0.89,2.58,1.76,3.89,2.62c5.09,3.27,10.47,6.45,16.06,9.21c1.39,0.69,2.81,1.34,4.22,1.95
					c1.4,0.58,2.87,1.16,4.34,1.68c0.73,0.27,1.46,0.51,2.18,0.74c0.73,0.23,1.42,0.42,2.24,0.65c0.83,0.23,1.82,0.57,2.66,0.92
					c0.83,0.36,1.62,0.73,2.37,1.11l2.22,1.14c0.7,0.36,1.52,0.83,2.07,1.05l0.9,0.41c0.31,0.13,0.65,0.21,0.97,0.33
					c0.33,0.1,0.64,0.23,0.98,0.31l1.03,0.23c2.77,0.59,5.77,0.69,8.77,0.54c6.04-0.32,11.99-1.71,17.97-3.11
					c3.03-0.72,6.29-1.48,9.62-1.9l1.25-0.15l0.62-0.07l0.36-0.07c0.22-0.01,0.46-0.1,0.72-0.18c0.25-0.05,0.51-0.19,0.78-0.3
					c1.06-0.48,2.17-1.24,3.19-2.12c2.02-1.77,3.86-4.14,4.74-6.41c0.08-0.27,0.22-0.56,0.25-0.8l0.09-0.37
					c0.03-0.12,0.01-0.21,0.02-0.31c0-0.11,0.03-0.19,0.03-0.32l-0.03-0.44l-0.02-0.44l-0.08-0.5c-0.18-1.32-0.56-2.79-0.99-4.22
					c-0.87-2.89-2-5.8-3.26-8.6c-0.63-1.38-1.31-2.79-2.01-3.99l-0.26-0.41l-0.13-0.21l-0.09-0.12c-0.1-0.17-0.25-0.29-0.4-0.44
					c-0.48-0.4-1.06-0.83-1.68-1.26c-2.49-1.72-5.21-3.37-7.89-5c-2.72-1.63-5.42-3.26-8.12-4.87l-0.52-0.32
					c-0.17-0.11-0.37-0.23-0.47-0.28c-0.25-0.14-0.5-0.29-0.79-0.4c-0.55-0.26-1.21-0.46-1.91-0.65c-1.42-0.37-3.03-0.69-4.68-1.16
					c-1.65-0.47-3.32-1.11-4.88-1.96c-1.55-0.83-3.01-1.95-4.25-3c-4.41-3.8-10.47-5.63-16.59-6.61c-1.54-0.25-3.09-0.46-4.66-0.63
					c-1.56-0.18-3.14-0.3-4.78-0.52c-1.62-0.22-3.29-0.54-4.9-1.22c-1.64-0.66-2.96-1.75-4.22-2.64c-1.27-0.92-2.58-1.75-3.96-2.49
					c-1.38-0.77-2.79-1.39-4.28-1.85c-1.49-0.45-3.05-0.7-4.62-0.62c-1.56,0.07-3.15,0.45-4.52,1.34L75.9,43.73z"/>
			</g>
		</g>
	</g>
</g>
<g>
	<g>
		<g>
			<g>
				<path class="st0" d="M42.82,23.78c2.52,0.75,5.02,1.44,7.5,2.08c2.47,0.61,4.98,1.21,7.28,1.29c0.52,0.02,1.03,0,1.46-0.08
					c0.43-0.07,0.74-0.21,0.87-0.3c0.01-0.01,0.02-0.03,0.03-0.04l0.02-0.01l0.06-0.08l0.24-0.32c0.15-0.22,0.31-0.44,0.45-0.68
					c0.3-0.46,0.58-0.99,0.89-1.53c0.6-1.09,1.36-2.28,2.34-3.23c0.97-0.96,2.12-1.65,3.28-2.16l0.96-0.35l0.13,0.22
					c-0.95,0.97-1.84,1.93-2.51,2.96c-0.69,1.02-1.15,2.08-1.58,3.27c-0.43,1.16-0.88,2.48-1.83,3.84
					c-0.36,0.49-0.83,0.81-1.28,1.07c-0.45,0.22-0.89,0.38-1.31,0.47c-0.84,0.19-1.6,0.21-2.32,0.19c-2.9-0.18-5.56-1.02-8-2.1
					c-2.45-1.1-4.8-2.46-6.8-4.29L42.82,23.78z"/>
			</g>
		</g>
	</g>
</g>
<g>
	<g>
		<g>
			<g>
				<path class="st0" d="M71.51,26.6c2.26,1.16,4.72,2.13,7.14,2.91c1.22,0.38,2.44,0.71,3.66,0.9c1.2,0.2,2.42,0.25,3.4,0.01
					c0.48-0.12,0.88-0.32,1.16-0.58c0.08-0.06,0.14-0.13,0.2-0.21l0.1-0.11l0.15-0.2l0.6-0.79c0.8-1.05,1.63-2.1,2.55-3.13
					c0.92-1.03,1.98-2.02,3.18-2.85c1.2-0.84,2.51-1.47,3.83-1.95L99.21,20l1.68-0.63c1.13-0.43,2.28-0.88,3.47-1.3
					c1.19-0.42,2.42-0.82,3.75-1.08c0.66-0.14,1.37-0.22,2.12-0.23c0.75,0.02,1.59,0.09,2.43,0.53c0.79,0.42,1.2,0.82,1.73,1.23
					c0.49,0.42,0.97,0.84,1.43,1.27c0.92,0.87,1.8,1.75,2.65,2.67c1.68,1.84,3.31,3.74,4.6,5.91c0,0,0.25,0.45,0.45,0.94
					c0.08,0.27,0.2,0.48,0.21,0.73c0.02,0.22,0.04,0.37,0.04,0.37h-0.25c-0.15-0.67-0.64-1.14-1.03-1.64
					c-0.44-0.48-0.89-0.94-1.36-1.39c-0.94-0.89-1.92-1.75-2.9-2.59c-1.98-1.66-4.01-3.34-6.07-4.7l-0.36-0.21l-0.18-0.1
					c-0.05-0.02-0.09-0.03-0.13-0.04c-0.14-0.07-0.35-0.09-0.54-0.13c-0.45-0.02-0.95-0.01-1.52,0.12
					c-1.11,0.21-2.32,0.63-3.52,1.09c-1.2,0.46-2.42,0.98-3.65,1.47c-0.62,0.24-1.24,0.48-1.86,0.72c-0.61,0.22-1.21,0.43-1.81,0.65
					c-2.27,0.78-4.18,2.04-5.9,3.85c-0.87,0.89-1.71,1.87-2.57,2.85l-0.64,0.74l-0.16,0.19l-0.24,0.25
					c-0.16,0.17-0.33,0.32-0.51,0.45c-0.73,0.55-1.57,0.83-2.35,0.96c-1.59,0.23-3.02-0.03-4.36-0.39c-1.34-0.37-2.6-0.88-3.81-1.46
					c-2.4-1.18-4.68-2.58-6.69-4.29L71.51,26.6z"/>
			</g>
		</g>
	</g>
</g>
<g>
	<g>
		<g>
			<g>
				<path class="st0" d="M105.32,11.9c0.02,1.73-0.28,2.99-0.52,4.16c-0.22,1.1-0.54,2-0.79,3.47l-0.08,0.33l-0.22,0.12
					c-0.95-0.32-1.62-1.1-1.93-1.98c-0.32-0.84-0.32-1.85-0.14-2.68c0.24-0.83,0.61-1.64,1.2-2.25c0.57-0.62,1.29-1.15,2.28-1.34
					L105.32,11.9z"/>
			</g>
		</g>
	</g>
</g>
<g>
	<g>
		<g>
			<g>
				<path class="st0" d="M42.95,38.94c0.43,0.91,0.7,1.7,1.03,2.5c0.32,0.79,0.65,1.55,1.02,2.2c0.37,0.65,0.8,1.17,1.17,1.38
					c0.37,0.19,0.64,0.23,1.2,0.09c1.57-0.4,3.47-0.72,5.35-0.39c0.94,0.16,1.88,0.5,2.69,1.02c0.81,0.51,1.47,1.19,1.95,1.93
					l0.34,0.63l-0.18,0.17c-1.74-0.81-3.25-1.15-4.74-1.07c-1.46,0.07-3.03,0.45-4.65,0.87c-0.3,0.05-0.61,0.09-0.92,0.13
					c-0.31,0.03-0.67-0.03-1-0.07c-0.67-0.11-1.36-0.42-1.86-0.84c-1.04-0.86-1.48-1.92-1.74-2.87c-0.53-1.95-0.31-3.78,0.08-5.59
					L42.95,38.94z"/>
			</g>
		</g>
	</g>
</g>
<g>
	<g>
		<g>
			<g>
				<path class="st0" d="M27.85,46.38c0.23,0.02,0.28,0.05,0.39,0.08l0.27,0.09l0.51,0.19c0.33,0.13,0.66,0.27,0.99,0.41
					c0.65,0.29,1.29,0.61,1.92,0.94c1.26,0.67,2.47,1.42,3.64,2.27c1.17,0.85,2.3,1.77,3.34,2.92c0.52,0.58,1.02,1.21,1.43,2.07
					c0.2,0.42,0.38,0.95,0.41,1.6l-0.01,0.63c0,0.11-0.02,0.22,0.01,0.33c0.05,1.57,1.87,2.85,3.45,2.09
					c0.1-0.02,0.66-0.33,1.04-0.47c0.42-0.13,0.83-0.23,1.23-0.26c0.8-0.08,1.56-0.01,2.26,0.13c1.42,0.28,2.68,0.82,3.85,1.46
					c0,0,0.23,0.14,0.46,0.28c0.23,0.15,0.46,0.3,0.46,0.3l-0.1,0.23c-1.42-0.22-2.81-0.36-4.13-0.36c-1.29,0-2.63,0.18-3.3,0.74
					l-0.43,0.29c-0.19,0.13-0.38,0.25-0.6,0.34c-0.42,0.21-0.88,0.34-1.36,0.42c-0.96,0.15-1.98,0.01-2.88-0.39
					c-1.82-0.77-3.1-2.69-3.19-4.56c-0.03-0.24-0.01-0.47,0-0.71l0.02-0.35l0-0.04l0,0c-0.06-0.01,0.09,0.01,0.07,0.01l-0.01,0
					l-0.01,0l-0.02,0c-0.04-0.01-0.04-0.01-0.04-0.01l0-0.01c0.01-0.04-0.01-0.19-0.1-0.4c-0.16-0.41-0.49-0.92-0.87-1.4
					c-0.76-0.99-1.7-1.96-2.63-2.91c-0.96-0.96-1.96-1.9-2.96-2.85c-0.49-0.46-0.99-0.94-1.52-1.44c-0.52-0.47-0.98-0.99-1.59-1.4
					V46.38z"/>
			</g>
		</g>
	</g>
</g>
<g>
	<g>
		<g>
			<g>
				<path class="st0" d="M71.2,71.07c2.63-2.77,6.49-4.43,10.36-4.79c1.8-0.17,3.64-0.08,5.43,0.24c1.78,0.36,3.5,0.9,5.08,1.72
					l0.63,0.35l-0.06,0.24c-1.96,0.29-3.77,0.29-5.55,0.38c-1.72,0.09-3.57,0.15-5.22,0.31c-1.7,0.12-3.43,0.4-5.13,0.69
					c-1.73,0.31-3.48,0.76-5.41,1.08L71.2,71.07z"/>
			</g>
		</g>
	</g>
</g>
<g>
	<g>
		<g>
			<g>
				<path class="st0" d="M101.5,79.52c2.23,0.71,4.64,1.01,7,1.32c2.37,0.29,4.75,0.48,7.11,0.55c2.35,0.06,4.72,0.02,6.92-0.35
					c1.09-0.19,2.14-0.48,2.99-0.9c0.43-0.25,0.68-0.4,1.11-0.82c0.41-0.36,0.77-0.74,1.12-1.15c0.33-0.38,0.63-0.77,0.96-1.22
					c0.32-0.43,0.69-0.97,1.26-1.52l0.47-0.41c0.18-0.12,0.38-0.23,0.57-0.34c0.38-0.2,0.81-0.34,1.19-0.42
					c0.78-0.16,1.47-0.16,2.11-0.12c1.3,0.07,2.43,0.33,3.59,0.57c1.1,0.27,2.21,0.54,3.32,0.81c4.29,1.01,8.75,1.52,13.14,1.06
					c0,0,0.44-0.04,0.88-0.11c0.44-0.06,0.87-0.15,0.87-0.15l0.09,0.23c-2.19,1.08-4.66,1.61-7.12,1.87
					c-2.47,0.24-4.98,0.18-7.45-0.13c-2.42-0.3-4.79-0.88-7.04-1.03c-0.55-0.03-1.08-0.03-1.48,0.04c-0.45,0.05-0.61,0.18-0.85,0.37
					c-0.23,0.19-0.54,0.61-0.89,1.11c-0.34,0.48-0.74,1.02-1.17,1.5c-0.44,0.49-0.91,0.98-1.42,1.41c-0.44,0.43-1.18,0.95-1.83,1.27
					c-1.34,0.63-2.67,0.92-3.98,1.09c-2.61,0.33-5.13,0.19-7.55-0.11c-2.46-0.3-4.88-0.79-7.24-1.45c-2.35-0.69-4.72-1.46-6.8-2.76
					L101.5,79.52z"/>
			</g>
		</g>
	</g>
</g>
<g>
	<g>
		<g>
			<g>
				<path class="st0" d="M136.64,93.96c2.56-0.49,5.16-0.65,7.76-0.58c2.61,0.09,5.21,0.36,7.84,1.09c1.22,0.36,2.46,0.8,3.71,1.67
					c0.6,0.43,1.3,1.09,1.66,2.04c0.17,0.45,0.37,0.9,0.64,1.35c1.07,1.8,2.74,3.48,4.5,5.03c0,0,0.18,0.16,0.35,0.32
					c0.18,0.16,0.36,0.31,0.36,0.31l-0.11,0.22c-2.57-0.6-5.01-1.85-6.96-3.92c-0.46-0.51-0.92-1.08-1.28-1.75
					c-0.09-0.15-0.2-0.38-0.26-0.46c-0.05-0.04-0.04-0.08-0.11-0.13c-0.09-0.1-0.23-0.22-0.42-0.34c-0.74-0.5-1.9-0.91-2.98-1.22
					c-2.24-0.69-4.78-1.12-7.19-1.65c-2.47-0.5-4.96-1.02-7.5-1.72V93.96z"/>
			</g>
		</g>
	</g>
</g>
<g>
	<g>
		<g>
			<g>
				<path class="st0" d="M78.37,53.97c1.15,0.72,2.43,1.17,3.73,1.55c1.3,0.37,2.63,0.65,3.96,0.89c2.67,0.45,5.38,0.73,8.04,0.73
					c2.77,0.02,5.48,0.48,8.09,1.15c2.62,0.67,5.16,1.56,7.58,2.65l0.97,0.48l-0.07,0.24c-2.9-0.08-5.69-0.37-8.45-0.67
					c-2.67-0.26-5.58-0.61-8.13-0.61c-2.92-0.05-5.91-0.53-8.64-1.48c-1.38-0.47-2.74-1.06-4-1.82c-1.25-0.76-2.45-1.72-3.24-2.93
					L78.37,53.97z"/>
			</g>
		</g>
	</g>
</g>
<g>
	<g>
		<g>
			<g>
				<path class="st0" d="M84.25,48.43c1.32,1.41,1.92,2.97,2.36,4.53c0.18,0.73,0.31,1.48,0.36,2.24c0.05,0.74,0.01,1.58-0.05,2.24
					c0,0-0.01,0.07-0.03,0.12c0,0.04-0.02,0.03-0.05,0.1c-0.02,0.05-0.02,0.1-0.02,0.1l-0.03,0.15c-0.25,0.1-0.57-0.08-0.79-0.21
					c-0.23-0.14-0.44-0.31-0.62-0.48c-0.36-0.34-0.65-0.71-0.89-1.09c-0.49-0.73-0.81-1.6-1.01-2.39c-0.17-0.82-0.29-1.68-0.2-2.55
					c0.06-0.87,0.24-1.76,0.75-2.71L84.25,48.43z"/>
			</g>
		</g>
	</g>
</g>
<g>
	<g>
		<g>
			<g>
				<path class="st0" d="M86.36,82.77c1.81,2.44,3.01,5.2,3.85,8.04c0.73,2.64,1.25,5.54,0.68,8.45l-0.16,0.58l-0.25,0.01
					c-0.79-1.42-1.42-2.7-1.97-4.05c-0.55-1.29-1.03-2.75-1.42-4.1c-0.35-1.39-0.72-2.83-0.89-4.29c-0.19-1.47-0.33-2.97-0.08-4.58
					L86.36,82.77z"/>
			</g>
		</g>
	</g>
</g>
</svg>
