<?xml version="1.0" encoding="utf-8"?>
<!-- Generator: Adobe Illustrator 27.5.0, SVG Export Plug-In . SVG Version: 6.00 Build 0)  -->
<svg version="1.1" id="Layer_1" xmlns="http://www.w3.org/2000/svg" xmlns:xlink="http://www.w3.org/1999/xlink" x="0px" y="0px"
	 viewBox="0 0 200 140" style="enable-background:new 0 0 200 140;" xml:space="preserve">
<style type="text/css">
	.st0{fill:#F9F6E6;}
</style>
<g>
	<g>
		<path class="st0" d="M192.7,80.8c-0.3,5.4-0.5,10.8-0.8,16.2c-9.9,3.6-19.9,7.3-29.9,10.9c-4.9,1.8-9.8,3.6-14.7,5.3l-15.9,5.7
			l-20.3-20.1c-6.4-6.4-12.9-12.8-19.3-19.3C79,66.8,66.2,53.9,53.4,41c-0.7-0.7-1.4-1.5-2.2-2.2c0.3-7.2,0.7-14.4,1-21.7
			c7.9,7.6,15.8,15.1,23.8,22.7c6.6,6.3,13.1,12.6,19.7,19c6.6,6.4,13.1,12.7,19.7,19.1c6.3,6.2,12.6,12.3,18.9,18.4
			c7.6-2.1,15.2-4.3,22.8-6.4c7.9-2.2,15.8-4.4,23.6-6.6l11.3-3.1l0.1,0.4c-9.6,3.3-19.2,6.5-28.9,9.7l-14.5,4.7l-15.3,4.9
			c-8.2-7.6-16.5-15.2-24.7-22.8c-9.1-8.4-18.5-17.2-27.9-26c-8.1-7.6-16.1-15.2-24-22.6l0,0l0,0l0,0l0,0l0,0.1
			c0,0.6-0.1,1.2-0.1,1.9c-0.1,2.1-0.2,4.1-0.3,6.2l0,0c0.2,0.2,0.4,0.4,0.6,0.6c21.6,22,44.1,44.8,65.4,67l5.4,5.6l2.7,2.8l1.3,1.4
			l0.3,0.4l0.2,0.2c9.6-3.1,19.1-6.2,28.7-9.3l14.9-4.8c4.9-1.5,9.8-3.1,14.6-4.6c0.5-5.1,1.1-10.2,1.6-15.3L192.7,80.8z"/>
	</g>
</g>
<g>
	<g>
		<path class="st0" d="M134.5,98.4c1.7,3.3,1.9,6.4,1.7,9.5c-0.3,2.8-1.1,5.7-3.2,8.4c0,0-0.5,0.5-0.5,0.5l-0.5-0.1
			c-1.2-1.7-1.8-3.3-2.1-4.9c-0.3-1.5-0.3-3.2-0.2-4.7c0.2-1.5,0.5-3.1,1.2-4.5c0.7-1.5,1.5-2.9,3-4.3L134.5,98.4z"/>
	</g>
</g>
<g>
	<g>
		<path class="st0" d="M53.2,18c0.6-0.1,1.1-0.5,1.6-1c0.5-0.5,0.9-1,1.3-1.6c0.3-0.4,0.8-0.7,1.2-0.9c0.4-0.2,0.8-0.4,1.2-0.6
			c0.8-0.3,1.6-0.6,2.4-0.9c1.6-0.6,3.2-1.1,4.9-1.6c3.3-1,6.6-1.9,9.9-2.7c6.6-1.7,13.3-3.2,20-4.6c1.7-0.3,3.4-0.6,5.1-0.9
			l1.3-0.2l0.7-0.1c0.2,0,0.4-0.1,0.8-0.1c1.3,0,2.2,0.3,3.1,0.6c1.8,0.7,3.3,1.5,4.9,2.4c1.5,0.9,3,1.8,4.4,2.8
			c5.7,3.9,11,8.3,16.1,13c2.5,2.3,4.9,4.7,7.2,7.2c1.1,1.3,2.3,2.6,3.3,4l0.8,1.1l0.7,1.2c0.2,0.4,0.5,0.8,0.7,1.3l0.3,0.7
			c0.1,0.2,0.1,0.1,0.1,0.2l0,0.1c0,0.1,0,0.1,0,0.1c0,0,0,0,0,0l0.2,0.2c0.3,0.2,0.6,0.5,1,0.7c0.6,0.5,1.3,0.9,2,1.3
			c1.3,0.8,2.7,1.5,4,1.8c0.3,0.1,0.7,0.1,1.1,0.2c0.2,0,0.5,0.1,0.8,0.1c0.3,0.1,0.7,0.2,1.1,0.4c0.6,0.3,1,0.7,1.3,1l1,0.8
			l3.8,3.4c5,4.5,10,9.1,14.8,13.8c2.4,2.3,4.8,4.7,7.2,7.1l1.8,1.8l0.9,0.9c0.3,0.3,0.6,0.8,0.9,1.1c0.8,1.5,1.5,3,2.2,4.6
			c0,0,0.1,0.2,0.5,1c0.1,0.1,0.1,0.1,0.2,0.2c0.1,0.1,0.3,0.2,0.4,0.4c0.3,0.3,0.7,0.6,1,0.9c0.7,0.6,1.3,1.1,1.3,1.1l-0.2,0.2
			c-1.2-0.8-2.3-1.6-3.5-2.4c-0.8-1.5-1.6-2.9-2.4-4.2l-0.6-1c-0.1-0.2-0.2-0.3-0.3-0.4l-0.4-0.4c-0.6-0.5-1.2-1.1-1.8-1.6
			c-2.4-2.1-4.9-4.2-7.3-6.3c-4.9-4.2-9.9-8.4-14.8-12.6c-1.3-1.1-2.7-2.2-4-3.4c-0.7-0.6-1.4-1.1-2-1.7c-0.6-0.5-1.5-1.3-1.6-1.2
			c-0.1,0-0.5-0.1-1-0.1c-0.5-0.1-1-0.1-1.6-0.3c-1-0.3-2-0.6-2.9-1.1c-1.8-0.9-3.4-1.9-4.9-3.1l-0.7-0.5l-0.5-0.4
			c-0.1-0.1-0.2-0.1-0.2-0.2l-0.1-0.3l-0.1-0.5c0-0.2-0.1-0.4-0.1-0.4l-0.2-0.5c-0.3-0.7-0.8-1.4-1.2-2.1c-1-1.4-2.1-2.7-3.3-4
			c-2.3-2.6-4.8-5.1-7.3-7.4c-5.1-4.8-10.6-9.4-16.4-13.4c-1.5-1-2.9-2-4.4-2.8c-1.5-0.8-3.1-1.6-4.4-1.9l-0.2-0.1l-0.2,0
			c-0.1,0-0.2,0-0.5,0c-0.4,0-0.8,0.1-1.3,0.1c-0.9,0.1-1.7,0.2-2.6,0.3c-1.7,0.3-3.5,0.5-5.2,0.8c-6.3,1.1-12.7,2.2-19,3.5
			c-3.2,0.6-6.3,1.3-9.5,2c-1.6,0.4-3.1,0.7-4.7,1.1c-0.8,0.2-1.5,0.4-2.3,0.7c-0.4,0.1-0.8,0.3-1.1,0.4c-0.4,0.2-0.7,0.3-0.9,0.6
			c-0.8,1.1-2,2.2-3.4,2.4L53.2,18z"/>
	</g>
</g>
<g>
	<g>
		<path class="st0" d="M58.2,20.3c6.1,4.9,12,9.9,17.9,15.1c2.9,2.6,5.8,5.2,8.7,7.8c2.6,2.4,5.2,4.8,7.8,7.2c0,0,0,0,0,0
			c14.4-3.6,29.2-7,43.8-9.6l3-0.5l0.1,0.3c-7.5,2.8-15.2,5.1-22.8,7.4c-7.4,2.2-15.6,4.3-23.1,6.2c-0.7,0.2-1.4,0.3-2.1,0.5
			c-1.6-1.5-3.3-3.1-4.9-4.7c-1.4-1.3-2.8-2.7-4.1-4c-2.7-2.7-5.5-5.4-8.1-8C68.8,32.3,63.3,26.6,58,20.5L58.2,20.3z"/>
	</g>
</g>
<g>
	<g>
		<path class="st0" d="M142.5,44c-3,0.4-6,1.3-8.9,2.3c-2.9,0.9-5.9,2-8.8,3.1c-5.8,2.1-11.7,4.4-17.5,6.7l-4.3,1.7l-0.5,0.2
			l-0.3,0.1l-0.1,0l-0.1,0.1c-0.1,0-0.2,0.1-0.1,0.1l0.1,0.1l0,0l0,0l0.2,0.2l1.7,1.7l3.3,3.3c4.4,4.4,8.8,8.9,13.1,13.3
			c4,4.2,8.1,8.3,12.2,12.6L134,91l0.4,0.4l0,0c0,0,0,0,0,0l3.6-1c2.8-0.8,5.7-1.5,8.5-2.3c11.3-3.1,22.7-6,33.9-8.9
			c0,0,1.1-0.3,2.3-0.6c0.6-0.2,1.1-0.3,1.5-0.4c0.2-0.1,0.3-0.1,0.4-0.1c0.1,0,0.1,0,0.1,0c0,0,0,0,0,0l0,0l0.1,0.1l0.1,0.1
			l0.1,0.1c-1.4,0.7-2.9,1.2-4.3,1.8c-1.5,0.5-2.9,1.1-4.4,1.6c-2.9,1.1-5.9,2.1-8.8,3.1c-5.9,2-11.9,3.9-17.8,5.8
			c-2.9,0.9-5.8,1.8-8.8,2.8c-1.5,0.5-3,0.9-4.5,1.4l-1.4,0.4l-1.1,0.3l-0.6,0.2c-0.1-0.1-0.3-0.3-0.4-0.4l-2.3-2.3
			c-4.5-4.5-8.9-9-13.1-13.3c-4.3-4.4-8.6-9-13-13.5c-2.6-2.7-5.2-5.5-7.8-8.2L96,57.2L95.8,57c0,0,0,0,0,0l0.1,0l0.1,0l0.5-0.2
			l2-0.8c1.1-0.4,2.2-0.8,3.3-1.2c1.5-0.5,2.9-1,4.4-1.5c5.9-2,11.9-4,17.9-5.7c3-0.9,6-1.7,9.1-2.4c3.1-0.7,6.2-1.3,9.3-1.4
			L142.5,44z"/>
	</g>
</g>
<g>
	<g>
		<path class="st0" d="M135,88.6c7.2-4.4,15-7.8,23-10.5c3.7-1.2,7.6-2.3,11.5-3.1c3.9-0.7,8-1.2,12-0.8l1.6,0.2l0,0.3
			c-4.2,0.7-8.1,1.9-12.1,3.2c-3.8,1.2-8,2.6-11.8,3.8c-3.9,1.2-7.9,2.6-11.9,3.8c-4,1.2-8,2.4-12.2,3.3L135,88.6z"/>
	</g>
</g>
<g>
	<g>
		<path class="st0" d="M104.2,59c6,2.8,11.4,6.8,16.3,11.2c2.3,2.1,4.5,4.3,6.4,6.8c1,1.2,1.9,2.6,2.7,3.9c0.8,1.4,1.6,2.7,2.2,4.2
			l0.5,1.2l-0.3,0.2c-2.4-2.4-4.7-4.6-7.1-6.8c-2.4-2.2-4.8-4.5-7.1-6.6c-2.3-2.2-4.8-4.4-7-6.7c-2.3-2.3-4.6-4.6-6.8-7.2L104.2,59z
			"/>
	</g>
</g>
<g>
	<g>
		<path class="st0" d="M61.7,19.4C68,22.7,73.7,27,79,31.5c2.5,2.1,4.9,4.4,7.2,6.8c1.2,1.2,2.2,2.5,3.3,3.8c0.5,0.7,1,1.4,1.5,2
			c0.4,0.7,0.9,1.4,1.3,2.2l0.5,1.3l-0.3,0.1c-0.6-0.7-1.2-1.3-1.9-1.8c-0.6-0.6-1.3-1.1-2-1.6c-1.4-1.1-2.7-2.2-4.1-3.2
			c-2.6-2.1-5.5-4.4-8-6.6c-2.6-2.3-5.3-4.6-7.7-7c-2.5-2.4-5-4.9-7.2-7.7L61.7,19.4z"/>
	</g>
</g>
<g>
	<g>
		<path class="st0" d="M95.7,47.4c6.6-3.8,13.8-6.5,21.1-8.4c3.4-0.8,7-1.6,10.5-1.9c3.6-0.4,7.2-0.5,10.8,0l1.4,0.2l0,0.3
			c-3.8,0.8-7.4,1.6-11,2.5c-3.5,0.8-7.3,1.8-10.8,2.7c-3.6,0.8-7.3,1.8-10.9,2.6c-3.6,0.9-7.3,1.7-11.1,2.3L95.7,47.4z"/>
	</g>
</g>
<g>
	<g>
		<path class="st0" d="M98.9,86.9c-5,2.2-10.1,4.5-15.2,6.7l-7.6,3.3l-3.8,1.6l-1.9,0.8l-2.5,1l-14.9-5.1c-4.8-1.6-9.5-3.3-14.3-4.9
			c-4.7-1.7-9.5-3.3-14.2-5c-5.3-1.9-10.6-3.8-15.9-5.7c0-1.4,0-2.7,0-4.1c0-6.6,0-13.1,0-19.8c3.5,1.2,6.9,2.4,10.4,3.7
			c2.3,0.8,4.7,1.7,7,2.5c4.7,1.7,9.4,3.4,14,5.1c4.7,1.7,9.3,3.5,14,5.2c2.3,0.9,4.6,1.8,7,2.7l3.5,1.3l1.7,0.7l0.9,0.3l0.4,0.2
			c4.4-1.2,8.7-2.3,13-3.5l5.8-1.5l0.1,0.4c-3.1,1.2-6.2,2.4-9.3,3.6l-4.7,1.7L70.2,79c-0.8,0.3-1.4,0.5-2.7,1
			c-4.6-1.4-9.2-2.8-13.7-4.2c-4.5-1.4-8.9-2.8-13.3-4.2c-4.9-1.5-9.9-3.2-14.9-4.8c-2.5-0.8-5.1-1.7-7.6-2.5
			c-1.3-0.4-2.5-0.8-3.8-1.3c-0.5-0.2-0.3-0.1-0.3-0.1l0,0l0,0l0,0.1l0,0l0,0l0,0.5c0,1.4,0,2.7,0,4.1c0,2.7,0,5.4,0,8l0,0.5l0,0
			l0,0c6.5,2.4,13.1,4.9,19.7,7.4c7.2,2.7,14.3,5.4,21.2,8.2l6.8,2.7l3.4,1.4l1.7,0.7l0.8,0.3l0.3,0.2c5-1.7,10.1-3.4,15.2-5.1
			c5.3-1.7,10.5-3.4,15.8-5.1L98.9,86.9z"/>
	</g>
</g>
<g>
	<g>
		<path class="st0" d="M67.9,78.8c1.3,3.2,1.6,6.5,1.7,9.8c0,3-0.2,6.1-1.2,9.2c0,0-0.2,0.6-0.2,0.6l-0.3,0
			c-0.9-1.6-1.3-3.2-1.6-4.9c-0.3-1.6-0.5-3.3-0.5-4.9c0-1.6,0.1-3.3,0.4-4.9c0.3-1.6,0.7-3.3,1.5-4.9L67.9,78.8z"/>
	</g>
</g>
<g>
	<g>
		<path class="st0" d="M9.2,56.3c1.5-0.5,3-1,4.5-1.4c0.8-0.2,1.5-0.4,2.3-0.6l0.6-0.2c0.1,0,0.2-0.1,0.3-0.1l0.1,0
			c0.1-0.1,0.2-0.1,0.3-0.2l0-0.3l0-0.1c0,0,0,0,0-0.2l0.2-0.5c0.2-0.7,0.5-1.3,0.8-2c0.6-1.3,1.3-2.6,2.1-3.9
			c0.9-1.3,1.9-2.5,3.3-3.6c0.4-0.2,0.8-0.5,1.2-0.7l1.1-0.5c0.7-0.3,1.4-0.5,2.1-0.7c4-1.2,7.9-2,11.9-2.7c4-0.6,8.1-1.1,12.1-1.2
			l1.6,0l0.1,0.4c-4,2-8,3.4-12.1,4.8c-3.9,1.3-8.3,2.5-12.1,3.7c-1,0.3-1.9,0.6-2.6,0.9c-0.6,0.3-1.2,0.8-1.9,1.4
			c-1.3,1.3-2.5,2.9-3.5,4.6c-0.3,0.5-0.6,0.9-0.9,1.4l-0.1,0.2l-0.1,0.1l-0.1,0.2l-0.3,0.6l-0.6,1.3C19,56.9,18.3,57,17.7,57
			l-0.5,0c-0.2,0-0.2,0-0.3,0l-0.6,0c-0.8,0-1.6,0-2.4,0c-1.6-0.1-3.2-0.2-4.8-0.3L9.2,56.3z"/>
	</g>
</g>
<g>
	<g>
		<path class="st0" d="M126.8,20.1c5,0.6,9.9,1.5,14.8,2.5c2.4,0.5,4.9,1.1,7.3,1.8c1.2,0.3,2.4,0.7,3.6,1c0.6,0.2,1.2,0.4,1.8,0.6
			l1,0.4c0.2,0.1,0.5,0.3,0.8,0.4l0.8,0.5c0.2,0.3,0.5,0.5,0.7,0.8c0.2,0.3,0.3,0.4,0.4,0.6c0.2,0.3,0.4,0.7,0.6,1
			c0.9,1.6,1.6,3.1,2.4,4.6c0.4,0.8,0.8,1.5,1.1,2.3l0.6,1.1c0.1,0.2,0.2,0.4,0.3,0.5c0.1,0.1,0,0.1,0,0.1c0,0,0,0,0,0
			c0,0,0.2,0.1,0.3,0.2c0.3,0.2,0.5,0.3,0.8,0.5c0.6,0.3,1.2,0.6,1.8,0.9l1.9,0.9c0.2,0.1,0.9,0.4,1.4,0.7l1.7,0.8l-0.1,2.5l0,0.6
			l0,0.4l-0.1,0.7c-0.1,0.9-0.2,1.8-0.3,2.8c-0.2,1.8-0.4,3.7-0.7,5.5l-0.3,2h-0.4c-0.5-2.2-0.8-4.4-1.1-6.5
			c-0.2-1.1-0.3-2.2-0.4-3.3c-0.1-0.5-0.1-1-0.2-1.6c-0.1-0.2-0.1-0.4-0.2-0.5l-0.5-0.1c-0.1,0,0,0-0.1,0l-0.3-0.1l-0.7-0.2
			c-0.9-0.3-1.8-0.6-2.7-1c-0.5-0.2-0.9-0.4-1.4-0.6c-0.2-0.1-0.5-0.2-0.8-0.4c-0.1-0.1-0.4-0.2-0.6-0.3l-0.6-0.4
			c-0.3-0.3-0.6-0.7-0.7-0.9c-0.2-0.2-0.3-0.4-0.4-0.6l-0.7-1.2c-0.4-0.8-0.9-1.5-1.3-2.3c-0.8-1.5-1.6-3-2.4-4.4
			c-0.2-0.3-0.3-0.6-0.5-0.8l-0.2-0.3c0,0,0,0,0,0c0,0,0,0,0,0l-0.6-0.3l-1.5-0.6c-1.1-0.4-2.2-0.8-3.2-1.1
			c-2.2-0.8-4.3-1.5-6.5-2.4c-5-1.9-10-3.9-14.8-6.3L126.8,20.1z"/>
	</g>
</g>
<g>
	<g>
		<path class="st0" d="M158.8,47.4c1.2-1.8,2.8-2.8,4.5-3.5c1.6-0.6,3.3-1,5.3-0.7c0,0,0.4,0.1,0.4,0.1l0.1,0.3
			c-0.5,1.1-1.2,1.9-1.9,2.5c-0.7,0.6-1.6,1.1-2.4,1.4c-0.9,0.3-1.8,0.6-2.7,0.6c-1,0.1-2,0-3.1-0.4L158.8,47.4z"/>
	</g>
</g>
<g>
	<g>
		<path class="st0" d="M154.2,43.7c0.5-1.7,1.5-2.6,2.6-3.3c1.1-0.6,2.3-0.9,3.9-0.7c0,0,0.3,0.1,0.3,0.1l0.1,0.3
			c-0.1,1.1-0.5,1.8-0.9,2.3c-0.4,0.6-1,1-1.5,1.3c-0.6,0.3-1.2,0.5-1.9,0.6c-0.7,0.1-1.5,0-2.5-0.4L154.2,43.7z"/>
	</g>
</g>
<g>
	<g>
		<path class="st0" d="M155.2,29.5c-1.8,1.9-3.9,3-6,3.8c-2,0.7-4.2,1.1-6.6,0.8c0,0-0.5-0.1-0.5-0.1l-0.1-0.3
			c0.8-1.2,1.8-2,2.8-2.6c1-0.7,2.1-1.2,3.2-1.5c1.1-0.3,2.2-0.6,3.4-0.7c1.2-0.1,2.4-0.1,3.8,0.3L155.2,29.5z"/>
	</g>
</g>
<g>
	<g>
		<path class="st0" d="M67.9,59.2c0.8,2.2,1.5,4.4,1.9,6.6c0.2,1.1,0.4,2.2,0.6,3.4l0.1,0.8l0,0.2l0,0l0,0c0,0,0,0,0,0l0,0
			c0,0,0,0,0,0c0,0,0,0,0,0l0.7-0.2c1-0.3,2-0.6,3.1-0.8c2.1-0.5,4.2-0.8,6.3-1l0.9,0l0.1,0.3c-1.9,1.5-3.9,2.6-6,3.6
			c-1,0.5-2,0.9-3.1,1.4l-0.8,0.3c-0.5,0.2-1,0.4-1.5,0.5c-1.1,0.4-2.1,0.7-3.1,1.1c0-0.1,0-0.1,0-0.2c-0.1-1.1-0.2-2.2-0.3-3.4
			c0-0.5-0.1-1-0.1-1.5l0-0.9c0-1.1-0.1-2.3,0-3.4c0.1-2.3,0.3-4.6,0.8-6.9L67.9,59.2z"/>
	</g>
</g>
<g>
	<g>
		<path class="st0" d="M21.1,56.4c8.4,1.5,16.5,3.9,24.5,6.5c7.4,2.5,15,5.4,22.1,8.8c0,0,1.4,0.7,1.4,0.7l-0.1,0.3
			c-4.3-0.5-8.4-1.5-12.5-2.5c-4-1-8.3-2.3-12.1-3.6c-3.9-1.4-8-2.8-11.8-4.5c-3.9-1.6-7.8-3.4-11.5-5.5L21.1,56.4z"/>
	</g>
</g>
<g>
	<g>
		<path class="st0" d="M27.8,47.4c6.4,1.1,12.5,2.9,18.6,4.8c5.6,1.8,11.3,3.9,16.8,6.2l1.1,0.5l-0.1,0.3c-3.3,0.2-6.6-0.2-9.7-0.8
			c-3.1-0.6-6.4-1.5-9.3-2.4c-3-1-6.1-2.2-9-3.5c-2.9-1.3-5.8-2.8-8.5-4.7L27.8,47.4z"/>
	</g>
</g>
<g>
	<g>
		<path class="st0" d="M71.1,123.6c0.7-2.2,1.6-4.3,2.6-6.5c0.5-1.1,1-2.1,1.7-3.1c0.6-1,1.3-2,2.3-2.9c0.8-0.7,1.6-1.5,2-2.3
			c0.2-0.4,0.6-1.1,1-1.7l0.3-0.4c0-0.1,0.1-0.1,0.1-0.2c0.1-0.1,0.1-0.2,0.1-0.4l0-0.2c0-0.1,0-0.2,0.1-0.4
			c0.1-0.2,0.1-0.5,0.3-0.7c0.2-0.4,0.7-0.7,1.1-0.9c0.2-0.1,0.4-0.2,0.7-0.2l0.5-0.1c0.3-0.1,0.6-0.1,0.9-0.2
			c1.2-0.2,2.4-0.3,3.6-0.3c1.2,0,2.5,0,3.7,0.3c1.2,0.2,2.4,0.6,3.5,0.9l0.4,0.1c0.1,0,0.3,0.1,0.5,0.2c0.5,0.2,0.8,0.4,1.1,0.6
			c0.6,0.4,1,0.9,1.5,1.3c0.9,0.9,1.6,1.8,2.3,2.8c2.8,3.8,5.2,7.8,7.5,11.8c0.8,1.3,1.5,2.7,2.2,4l1.1,2c0.6,1.2,1.2,2.3,1.8,3.5
			c-0.8,0.4-1.6,0.8-2.4,1.2l-0.8,0.4l-0.5,0.3c-0.3,0.2-0.7,0.4-0.9,0.6c0,0,0,0,0,0l0,0c0,0,0,0-0.1-0.1c-0.2-0.2-0.6-0.5-0.7-0.6
			c-0.1-0.1-0.2-0.1-0.3-0.1c0.5,0.2-1.3-0.4,1.2,0.4c0,0.1-0.1,0.2-0.1,0.2c-0.1,0.2-0.2,0.3-0.4,0.4c-0.1,0.1-0.1,0.1-0.2,0.2l0,0
			l-0.1,0.1c-0.1,0-0.1,0.1-0.2,0.1l-0.1,0l-0.2,0c-0.3,0.1-0.6,0.1-0.8,0.1c-1.9,0.2-3.6,0.3-5.4,0.4c-3.6,0.2-7.2,0.3-10.7,0.4
			L86,135l-5.6,0.1c-0.2,0-0.3,0-0.5-0.1c-0.2-0.1-0.3-0.1-0.4-0.3c-0.1-0.1-0.3-0.2-0.4-0.4l-0.3-0.3c-0.3-0.3-0.6-0.7-0.9-1
			c-0.6-0.7-1.1-1.4-1.7-2.1c-1.1-1.4-2.1-2.8-3.2-4.2l-2-2.8l0.2-0.2c1.6,1.7,3.2,3.4,4.7,5.1c0.8,0.8,1.6,1.7,2.4,2.5l1.2,1.2
			c0.2,0.2,0.4,0.4,0.6,0.6c0.2,0.1,0.2,0.2,0.4,0.3c2.2-0.2,4.4-0.4,6.6-0.6c2.3-0.2,4.6-0.4,6.9-0.6c3-0.3,6-0.5,9.1-0.8l2.3-0.2
			l1.1-0.1c0.3,0,0.8-0.1,0.9-0.2c0,0,0,0,0,0c0,0.1,0.1,0.2,0.1,0.4l0.1,0.4c0,0.1,0,0.2,0.1,0.3c0,0.1,0.1,0.2,0.1,0.2
			c0,0.1,0,0.1,0.1,0.1l0,0c0.3,0.1-2.7-0.9-1.4-0.5l0,0l0-0.1l0.1-0.2c0.1-0.1,0.1-0.2,0.2-0.3c0.1-0.1,0.1-0.1,0.1-0.2l0.2-0.2
			c0.2-0.2,0.4-0.4,0.6-0.5c0.4-0.3,0.7-0.5,1.1-0.7l0.5-0.3l0.1-0.1l0,0l0,0l0,0l0,0l0-0.1l-0.3-0.5c-0.4-0.7-0.7-1.3-1.1-2
			c-0.7-1.3-1.5-2.6-2.2-3.9c-2.2-3.9-4.6-7.9-7.2-11.6c-0.7-0.9-1.3-1.8-2-2.6c-0.4-0.4-0.7-0.7-1.1-1c-0.2-0.1-0.3-0.2-0.4-0.2
			c0,0-0.2-0.1-0.3-0.1l-0.4-0.1c-1.1-0.3-2.2-0.7-3.2-0.9c-1-0.2-2.1-0.4-3.1-0.4c-1.1,0-2.2,0-3.3,0.1c-0.3,0-0.5,0.1-0.8,0.1
			l-0.4,0.1l-0.2,0c-0.1,0-0.2,0.1-0.2,0.1c0,0,0,0.1-0.1,0.1l-0.1,0.3c-0.1,0.4-0.2,0.8-0.5,1.1c-0.1,0.2-0.2,0.3-0.4,0.5l-0.3,0.3
			c-0.3,0.4-0.5,0.7-0.9,1.3c-0.7,1.2-1.7,1.9-2.7,2.7c-0.9,0.6-1.6,1.4-2.2,2.3c-0.7,0.9-1.3,1.9-1.9,2.8c-1.2,2-2.3,4-3.3,6.1
			L71.1,123.6z"/>
	</g>
</g>
<g>
	<g>
		<path class="st0" d="M81.9,113.8c0.6,3,0.8,6,0.8,9c0,2.8-0.2,5.7-0.7,8.4c0,0-0.1,0.6-0.1,0.6h-0.2c-0.4-1.5-0.6-3-0.8-4.5
			c-0.2-1.4-0.2-3.1-0.2-4.5c0-1.5,0.1-3,0.2-4.5c0.1-1.5,0.4-3,0.8-4.5H81.9z"/>
	</g>
</g>
<g>
	<g>
		<path class="st0" d="M85.3,110.1c1.2,0.3,2.6,0.5,3.9,0.9c0.7,0.2,1.3,0.4,2,0.7c0.3,0.2,0.7,0.3,1.1,0.9c0.4,0.5,0.4,1.2,0.1,1.7
			c-0.8,1.6-1.4,3.2-2.2,4.9c-1.7,3.8-3.6,7.6-5.7,11.2l-0.4,0.7l-0.1-0.1c0.5-2.2,1.2-4.3,2-6.4c0.7-2,1.6-4.2,2.5-6.2
			c0.8-1.6,1.5-3.3,2.4-4.8c0.1,0,0.1-0.1,0-0.2c-0.3-0.3-0.7-0.6-1.2-0.8c-0.5-0.3-1-0.5-1.5-0.7c-1-0.5-2.1-0.9-3-1.5L85.3,110.1z
			"/>
	</g>
</g>
<g>
	<g>
		<path class="st0" d="M96,113.7c2.4,1.9,4.6,4.2,6.6,6.5c1.8,2.2,3.6,4.5,5.1,7c0,0,0.3,0.5,0.3,0.5l-0.1,0.1
			c-1.3-0.9-2.5-1.9-3.6-3c-1.1-1-2.2-2.2-3.1-3.4c-1-1.2-2-2.4-2.8-3.7c-0.9-1.3-1.7-2.6-2.4-4L96,113.7z"/>
	</g>
</g>
<g>
	<g>
		<path class="st0" d="M141.9,130.7c3-1.5,6-2.9,9.1-4.3c1.5-0.7,3.1-1.4,4.6-2.1l2.3-1l1.2-0.5l1.8-0.8l4,3.3l0.8,0.6l0.2,0.1
			l0.2,0.1l-0.1-0.4c0,0,0,0,0-0.1l0-0.4l0-0.8l0-0.8c0-0.1,0-0.1,0-0.1c-2-1.7-3.9-3.4-5.9-5.1c-1.6,0.3-3.2,0.5-4.8,0.8
			c-0.8,0.1-1.6,0.2-2.4,0.4c-2,2.1-4,4.1-6,6.2c-1.1,1.1-2.2,2.2-3.2,3.3l-0.8,0.8l-0.4,0.4l0,0l-0.2,0.2l0.3,0.1c0,0,0,0,0.1,0
			l0.6,0.1l1.2,0.3l4.7,1.1l4.6,1.1l2.3,0.6l0.6,0.1l0.3,0.1l0.6,0.2l0.2-0.8l0.3-1.6l0.6-3.2l0.6-3.1l0.2,0
			c-0.1,1.6-0.1,3.2-0.2,4.9c0,0.8-0.1,1.6-0.1,2.4l-0.1,1.4l-0.1,1.7c-2.8-0.4-5.5-0.9-8.3-1.3c-2.5-0.4-5.1-0.8-7.6-1.3
			c-0.9-0.2-1.8-0.3-2.6-0.5c-1.1-0.2-2.3-0.4-3.5-0.7c2.6-2.8,5.3-5.7,8-8.6c2.3-2.4,4.5-4.8,6.7-7.1c1.2-0.2,2.3-0.4,3.4-0.6
			c2.1-0.3,4.2-0.7,6.3-1c2.6,2.4,5.3,4.7,7.9,7.1c0,3.3-0.1,6.6-0.1,9.9c-1.8-1.5-3.5-3-5.2-4.5l-1.8-1.7l-0.9-0.8l-0.2-0.2
			l-0.1-0.1l-0.1-0.2c-2.9,1-5.9,2.1-8.9,3.2c-3.2,1.1-6.4,2.2-9.6,3.2L141.9,130.7z"/>
	</g>
</g>
<g>
	<g>
		<path class="st0" d="M168.2,130.7c-1.2,1.7-2.8,2.8-4.5,3.6c-1.6,0.7-3.3,1.3-5.2,1.2c0,0-0.4,0-0.4,0l-0.1-0.2
			c0.5-1,1.2-1.8,2-2.4c0.7-0.6,1.6-1.1,2.4-1.5c0.8-0.4,1.7-0.7,2.7-0.8c0.9-0.2,1.9-0.2,3.1,0L168.2,130.7z"/>
	</g>
</g>
<g>
	<polygon class="st0" points="160.5,123.3 160.4,116.8 160.6,116.8 160.7,123.3 	"/>
</g>
</svg>
