<?xml version="1.0" encoding="utf-8"?>
<!-- Generator: Adobe Illustrator 22.0.1, SVG Export Plug-In . SVG Version: 6.00 Build 0)  -->
<svg version="1.1" id="Layer_1" xmlns="http://www.w3.org/2000/svg" xmlns:xlink="http://www.w3.org/1999/xlink" x="0px" y="0px"
	 viewBox="0 0 810 240" style="enable-background:new 0 0 810 240;" xml:space="preserve">
<style type="text/css">
	.st0{enable-background:new    ;}
	.st1{fill:#F9F6E6;}
</style>
<g class="st0">
	<path class="st1" d="M73.9,65.5c0,13.4-11.4,21.8-28.6,21.8H14.5c-3.6,0-5.6-2-5.6-5.6V14.9c0-3.6,2-5.6,5.6-5.6h28.4
		c16,0,26.2,8.2,26.2,20.5c0,7.2-3.8,12.7-9.8,15.8C66.7,48.4,73.9,54.7,73.9,65.5z M53.1,63.1c0-5.4-4.3-9-10.8-9H30.1l-0.1,18h12
		C48.9,72.1,53.1,68.6,53.1,63.1z M30.2,24.5L30.1,41h9.6c5.8,0,9.4-3.1,9.4-8.2c0-5.2-3.6-8.3-9.4-8.3H30.2z"/>
	<path class="st1" d="M150.9,86.5c-3.7,1.8-7.6,2.4-10.3,2.4c-7,0-12.2-3.6-14.3-10.2c-3.4,6-9,10.2-18,10.2
		c-14.9,0-24.8-9.8-24.8-24.5V32.2c0-3.5,2-5.5,5.5-5.5h9.8c3.5,0,5.5,2,5.5,5.5v29.2c0,5.8,3.4,9.8,8.9,9.8c5.6,0,9-4.1,9-10v-29
		c0-3.5,1.9-5.5,5.4-5.5h10c3.5,0,5.4,2,5.4,5.5v37c0,1.2,0.1,2.3,1.4,2.3c0.8,0,1.8-0.6,2.9-0.6c1.8-0.2,2.9,1,3.7,3.4l1.9,6.6
		C154,84.3,152.8,85.5,150.9,86.5z"/>
	<path class="st1" d="M203,84.7c-3.7,2.6-9.4,4.2-15.2,4.2c-12,0-23.5-6.8-23.5-23.3V41.8h-5.3c-3.6,0-5.5-2-5.5-5.5v-4.1
		c0-3.6,1.9-5.5,5.5-5.5h5.3V12.8c0-3.5,2-4.8,5.5-5.5l9.6-1.7c3.6-0.7,5.5,1.8,5.5,5.4v15.7h11.9c3.5,0,5.5,1.9,5.5,5.5v4.1
		c0,3.5-2,5.5-5.5,5.5h-11.9v21.6c0,5.9,3,7.8,6.7,7.8c1.8,0,3.6-0.8,4.9-1.7c3-1.9,4.4-0.5,5.5,1.8l3.4,7.8
		C206.7,82,204.5,83.5,203,84.7z"/>
	<path class="st1" d="M256.4,84.7c-3.7,2.6-9.4,4.2-15.2,4.2c-12,0-23.5-6.8-23.5-23.3V41.8h-5.3c-3.6,0-5.5-2-5.5-5.5v-4.1
		c0-3.6,1.9-5.5,5.5-5.5h5.3V12.8c0-3.5,2-4.8,5.5-5.5l9.6-1.7c3.6-0.7,5.5,1.8,5.5,5.4v15.7h11.9c3.5,0,5.5,1.9,5.5,5.5v4.1
		c0,3.5-2,5.5-5.5,5.5h-11.9v21.6c0,5.9,3,7.8,6.7,7.8c1.8,0,3.6-0.8,4.9-1.7c3-1.9,4.4-0.5,5.5,1.8l3.4,7.8
		C260.1,82,257.9,83.5,256.4,84.7z"/>
	<path class="st1" d="M297.8,74.1c4.3,0,8.5-1.3,12.8-4.3c2.2-1.7,4-2.5,6.2-0.1l4.1,4.2c2.6,2.5,1.7,4.6,0.2,6.1
		c-5.4,5.8-16.3,8.9-25.8,8.9c-19.2,0-33.2-13-33.2-31.7c0-18.1,13.4-31.4,32.3-31.4c9.6,0,17.5,3.4,22.7,8.5
		c5.5,5.5,8.8,13.4,8.8,21.7c0,4.2-1.1,5.8-5.5,5.8h-38.2C283.1,69.8,289.9,74.1,297.8,74.1z M282.3,50.3h23.4
		c-0.5-2.9-1.7-5.3-3.4-7c-2.2-2.2-4.9-3.4-8.4-3.4C287.6,40,283.1,44,282.3,50.3z"/>
	<path class="st1" d="M386.1,32.2l-2.3,9c-1,3.4-3,4.1-5.2,3.2c-1.8-0.6-4.2-1.2-6.1-1.2c-7.1,0-10.9,4.7-10.9,11.8v26.8
		c0,3.5-1.9,5.5-5.5,5.5h-9.8c-3.5,0-5.5-2-5.5-5.5V45.7c0-1.1-0.5-1.7-1.2-1.7c-1.2,0-2.6,1-4,1.1c-1,0.1-2.4-0.4-3.1-3.4l-1.7-7.9
		c-0.8-3.1-0.2-4.7,2.4-6c2.5-1.3,6.2-2,9-2c6.2,0,12.2,2.4,14.9,8.8c3.8-5.5,9.5-8.8,17.4-8.8c3.1,0,6,0.5,8.6,1.3
		C385.1,27.8,387.1,28.7,386.1,32.2z"/>
	<path class="st1" d="M412.5,48.3c0-23.2,18.6-40.4,42.8-40.4c11.6,0,22.1,4.3,29.4,11.6c2.6,2.5,2.6,5.6,0,7.9l-6.1,5.2
		c-2.6,2.3-5.2,2.2-7.9-0.1c-4.2-3.5-9.5-5.6-15.4-5.6c-12,0-21.4,9-21.4,21.5s9.4,21.5,21.4,21.5c5.9,0,11.3-2.2,15.4-5.6
		c2.8-2.3,5.3-2.4,7.9-0.1l6.1,5.2c2.6,2.3,2.6,5.4,0,7.9c-7.3,7.3-17.8,11.6-29.6,11.6C431.1,88.7,412.5,71.5,412.5,48.3z"/>
	<path class="st1" d="M546.3,32.2l-2.3,9c-1,3.4-3,4.1-5.2,3.2c-1.8-0.6-4.2-1.2-6.1-1.2c-7.1,0-10.9,4.7-10.9,11.8v26.8
		c0,3.5-1.9,5.5-5.5,5.5h-9.8c-3.5,0-5.5-2-5.5-5.5V45.7c0-1.1-0.5-1.7-1.2-1.7c-1.2,0-2.6,1-4,1.1c-1,0.1-2.4-0.4-3.1-3.4l-1.7-7.9
		c-0.8-3.1-0.2-4.7,2.4-6c2.5-1.3,6.2-2,9-2c6.2,0,12.2,2.4,14.9,8.8c3.8-5.5,9.5-8.8,17.4-8.8c3.1,0,6,0.5,8.6,1.3
		C545.3,27.8,547.3,28.7,546.3,32.2z"/>
	<path class="st1" d="M584,74.1c4.3,0,8.5-1.3,12.8-4.3c2.2-1.7,4-2.5,6.2-0.1l4.1,4.2c2.6,2.5,1.7,4.6,0.2,6.1
		c-5.4,5.8-16.3,8.9-25.8,8.9c-19.2,0-33.2-13-33.2-31.7c0-18.1,13.4-31.4,32.3-31.4c9.6,0,17.5,3.4,22.7,8.5
		c5.5,5.5,8.8,13.4,8.8,21.7c0,4.2-1.1,5.8-5.5,5.8h-38.2C569.3,69.8,576.1,74.1,584,74.1z M568.5,50.3h23.4c-0.5-2.9-1.7-5.3-3.4-7
		c-2.2-2.2-4.9-3.4-8.4-3.4C573.8,40,569.3,44,568.5,50.3z"/>
	<path class="st1" d="M684.7,31.6v50.2c0,3.5-2,5.5-5.5,5.5h-5.9c-3.5,0-5.4-2-5.4-5.5v-1.1c-4.7,4.9-11.2,8.2-19.2,8.2
		c-17.3,0-30-13.8-30-31.6c0-17.8,12.6-31.6,30-31.6c7.6,0,14,2.8,19.2,7.2v-1.3c0-3.5,1.9-5.5,5.4-5.5h5.9
		C682.6,26.1,684.7,28.1,684.7,31.6z M664.9,57.3c0-8.4-5.5-13.8-12.8-13.8c-7.6,0-12.8,6-12.8,13.8s5.3,13.8,12.8,13.8
		C659.1,71.1,664.9,65.6,664.9,57.3z"/>
	<path class="st1" d="M801.9,51.9v29.9c0,3.5-1.9,5.5-5.4,5.5h-10c-3.5,0-5.4-2-5.4-5.5V53.5c0-6.1-3.4-10.1-9.1-10.1
		c-5.5,0-9.4,4-9.4,10.1v28.3c0,3.5-1.9,5.5-5.4,5.5h-10c-3.5,0-5.4-2-5.4-5.5V53.5c0-6.1-3.4-10.1-9.1-10.1c-5.6,0-9.4,4-9.4,10.1
		v28.3c0,3.5-1.9,5.5-5.4,5.5h-10c-3.5,0-5.4-2-5.4-5.5V45.7c0-1.1-0.5-1.7-1.3-1.7c-1.1,0-2.6,1-3.8,1.1c-1.1,0.1-2.5-0.4-3.2-3.4
		l-1.7-7.9c-0.7-3.1-0.2-4.7,2.4-6c2.5-1.3,6.2-2,9-2c6.6,0,13,2.8,15.2,10c4.1-5.8,10.3-10,19.2-10c7.9,0,14.3,2.9,18.6,8
		c4.7-4.8,11.3-8,19.7-8C791.6,25.7,801.9,35.9,801.9,51.9z"/>
</g>
<g class="st0">
	<path class="st1" d="M230.3,225.7v-66.7c0-3.6,2-5.6,5.6-5.6h29.6c25.3,0,41,15.6,41,38.9c0,23.5-15.7,39.1-41,39.1h-29.6
		C232.3,231.3,230.3,229.3,230.3,225.7z M264.7,214.1c12,0,20.5-8,20.5-21.8c0-13.8-8.5-21.8-20.5-21.8h-13.3v43.7H264.7z"/>
	<path class="st1" d="M314.4,201.3c0-18.1,14-31.6,33.5-31.6s33.5,13.4,33.5,31.6s-14,31.6-33.5,31.6S314.4,219.4,314.4,201.3z
		 M360.9,201.3c0-7.9-5.4-13.8-13-13.8s-13.1,5.9-13.1,13.8c0,7.9,5.5,13.8,13.1,13.8S360.9,209.2,360.9,201.3z"/>
	<path class="st1" d="M457.5,195.9v29.9c0,3.5-1.9,5.5-5.4,5.5h-9.8c-3.6,0-5.5-2-5.5-5.5v-28.3c0-5.9-3.4-10.1-9.6-10.1
		c-5.6,0-9.6,4-9.6,10.1v28.3c0,3.5-1.9,5.5-5.5,5.5h-9.8c-3.5,0-5.5-2-5.5-5.5v-36.1c0-1.1-0.5-1.7-1.2-1.7c-1.2,0-2.6,1-4,1.1
		c-1,0.1-2.4-0.4-3.1-3.4l-1.7-7.9c-0.8-3.1-0.2-4.7,2.4-6c2.5-1.3,6.2-2,9-2c6.7,0,13.2,2.8,15.4,10.3c3.8-6,10-10.3,19.1-10.3
		C447.4,169.7,457.5,180.4,457.5,195.9z"/>
	<path class="st1" d="M537.7,230.5c-3.7,1.8-7.6,2.4-10.3,2.4c-7,0-12.2-3.6-14.3-10.2c-3.4,6-9,10.2-18,10.2
		c-14.9,0-24.8-9.8-24.8-24.5v-32.2c0-3.5,2-5.5,5.5-5.5h9.8c3.5,0,5.5,2,5.5,5.5v29.2c0,5.8,3.4,9.8,8.9,9.8c5.6,0,9-4.1,9-10v-29
		c0-3.5,1.9-5.5,5.4-5.5h10c3.5,0,5.4,2,5.4,5.5v37c0,1.2,0.1,2.3,1.4,2.3c0.8,0,1.8-0.6,2.9-0.6c1.8-0.2,2.9,1,3.7,3.4l1.9,6.6
		C540.9,228.3,539.7,229.5,537.7,230.5z"/>
	<path class="st1" d="M589.8,228.7c-3.7,2.6-9.4,4.2-15.2,4.2c-12,0-23.5-6.8-23.5-23.3v-23.8h-5.3c-3.6,0-5.5-2-5.5-5.5v-4.1
		c0-3.6,1.9-5.5,5.5-5.5h5.3v-13.9c0-3.5,2-4.8,5.5-5.5l9.6-1.7c3.6-0.7,5.5,1.8,5.5,5.4v15.7h11.9c3.5,0,5.5,1.9,5.5,5.5v4.1
		c0,3.5-2,5.5-5.5,5.5h-11.9v21.6c0,5.9,3,7.8,6.7,7.8c1.8,0,3.6-0.8,4.9-1.7c3-1.9,4.4-0.5,5.5,1.8l3.4,7.8
		C593.5,226,591.4,227.5,589.8,228.7z"/>
</g>
</svg>
