<?xml version="1.0" encoding="utf-8"?>
<!-- Generator: Adobe Illustrator 27.3.1, SVG Export Plug-In . SVG Version: 6.00 Build 0)  -->
<svg version="1.1" id="Layer_1" xmlns="http://www.w3.org/2000/svg" xmlns:xlink="http://www.w3.org/1999/xlink" x="0px" y="0px"
	 viewBox="0 0 250 200" style="enable-background:new 0 0 250 200;" xml:space="preserve">
<style type="text/css">
	.st0{fill:#F9F6E6;}
</style>
<g>
	<g>
		<g>
			<g>
				<g>
					<path class="st0" d="M39.68,153.41c0.03-3.77,0.16-7.54,0.52-11.32c0.09-0.95,0.2-1.89,0.35-2.84
						c0.07-0.48,0.16-0.95,0.25-1.43c0.13-0.49,0.24-0.99,0.44-1.46c0.72-1.9,1.89-3.5,3.07-5c2.38-2.99,4.98-5.72,6.53-8.95
						c0.39-0.77,0.89-1.78,1.37-2.57c0.5-0.82,0.98-1.66,1.5-2.45c1.02-1.61,2.06-3.2,3.11-4.78c4.21-6.31,8.56-12.51,12.93-18.68
						c2.2-3.08,4.4-6.15,6.61-9.22l1.66-2.3l0.4-0.56l0.02-0.04l0.04-0.07c0.06-0.09,0.05-0.1,0.06-0.12l-0.11,0.08l-0.03,0.02
						l-0.01,0.01l0,0l-0.13,0.08l-0.46,0.26c-2.43,1.41-4.86,2.82-7.28,4.23c-3.6,2.07-7.21,4.16-10.83,6.25
						c-0.47,0.26-0.85,0.51-1.5,0.82l-1.44,0.68l-2.81,1.34c-1.86,0.91-3.71,1.86-5.53,2.86c-7.26,3.99-14.23,8.7-20.03,14.56
						c-2.87,2.94-5.48,6.17-7.31,9.78c-1.81,3.59-2.92,7.59-2.48,11.54c0.21,1.96,0.82,3.89,1.79,5.57c0.12,0.21,0.25,0.41,0.38,0.6
						c0.05,0.07,0.22,0.31,0.27,0.41l0.19,0.34l0.78,1.34c0.53,0.88,1.09,1.76,1.67,2.6c0.58,0.84,1.2,1.66,1.86,2.37
						c0.33,0.37,0.69,0.67,1.03,0.89c0.18,0.13,0.87,0.28,1.37,0.47c2.02,0.78,3.82,1.82,5.71,2.57c0,0,0.38,0.16,0.94,0.32
						c0.29,0.08,0.53,0.1,1,0.14c0.42,0.05,0.85,0.14,1.27,0.25c1.67,0.44,3.22,1.15,3.22,1.15l-0.1,0.23
						c-1.06-0.38-2.13-0.7-3.23-0.91c-0.55-0.1-1.09-0.18-1.64-0.16c-0.6-0.01-1.15-0.18-1.69-0.35c-2.15-0.7-4.18-1.76-6.26-2.35
						c-0.26-0.07-0.47-0.08-0.85-0.23c-0.35-0.11-0.58-0.31-0.84-0.48c-0.48-0.37-0.91-0.77-1.3-1.2c-0.79-0.85-1.49-1.74-2.16-2.66
						c-0.67-0.92-1.31-1.85-1.92-2.81l-0.45-0.72c-0.07-0.13-0.31-0.4-0.47-0.64c-0.34-0.5-0.64-1.01-0.9-1.54
						c-2.17-4.24-2.2-9.33-0.82-13.77c1.35-4.49,3.84-8.5,6.75-12.04c5.66-6.86,13.22-12.47,21.18-17.11
						c1.99-1.17,4.03-2.26,6.07-3.31c1.02-0.52,2.05-1.03,3.08-1.52l1.54-0.73l0.75-0.36c0.19-0.1,0.35-0.17,0.62-0.33
						c3.89-2.26,7.74-4.49,11.48-6.66c6.97-4.01,14.02-8.07,21.17-12.18c-5.15,6.96-10.34,13.96-15.5,20.95
						c-3.65,4.96-7.28,9.91-10.86,14.79c-2.63,3.62-5.24,7.25-7.76,10.92c-0.64,0.92-1.24,1.84-1.84,2.77
						c-0.32,0.46-0.58,0.92-0.84,1.38l-0.4,0.7l-0.42,0.78c-1.13,2.07-2.62,3.83-4.11,5.53c-2.95,3.36-6.39,6.43-6.84,10.95
						c-0.8,4.38-1.21,8.85-1.56,13.32L39.68,153.41z"/>
				</g>
			</g>
		</g>
	</g>
	<g>
		<g>
			<g>
				<g>
					<path class="st0" d="M16.94,132.08c-0.91-1.34-1.63-2.74-2.27-4.21c-0.64-1.47-1.15-3.01-1.47-4.62
						c-0.72-3.19-0.61-6.73,0.62-10.03l0.55-1.2c0.18-0.41,0.38-0.8,0.58-1.13c0.4-0.7,0.8-1.41,1.24-2.08
						c0.85-1.37,1.78-2.68,2.73-3.96c1.9-2.56,3.94-5,6.07-7.34c2.13-2.34,4.34-4.61,6.65-6.79c0.59-0.55,1.16-1.09,1.81-1.64
						c0.68-0.58,1.29-1.06,1.92-1.55c1.26-0.98,2.51-1.92,3.78-2.85c2.54-1.85,5.1-3.65,7.74-5.39c1.32-0.87,2.65-1.72,4.03-2.55
						c1.37-0.83,2.77-1.63,4.39-2.39c0.42-0.17,0.75-0.34,1.24-0.51l0.79-0.24l0.4-0.11l0.22-0.06c0.54-0.12,1.2-0.31,1.84-0.51
						c1.3-0.4,2.66-0.86,4.01-1.32c2.74-0.94,5.48-1.88,8.24-2.82c1.39-0.47,2.8-0.92,4.24-1.35c0.73-0.21,1.45-0.43,2.21-0.62
						c0.72-0.19,1.65-0.39,2.28-0.52c2.81-0.57,5.7-1.2,8.65-1.7c2.96-0.49,5.99-0.92,9.22-0.81c1.48,0.06,3.02,0.14,4.65,0.4
						c1.62,0.28,3.37,0.81,4.87,1.78c1.51,0.95,2.7,2.21,3.63,3.51c0.94,1.31,1.67,2.62,2.35,3.99c1.34,2.73,2.27,5.56,2.99,8.39
						c0,0,0.28,1.15,0.51,2.3c0.23,1.15,0.46,2.3,0.46,2.3l-0.48,0.14c-1.19-2.88-2.4-5.75-3.87-8.42
						c-0.73-1.34-1.52-2.63-2.38-3.85c-0.86-1.21-1.8-2.4-2.79-3.34c-1-0.97-2.1-1.64-3.27-2.04c-1.18-0.39-2.5-0.51-3.94-0.51
						c-1.42,0.01-3.01,0.07-4.37,0.22c-1.42,0.16-2.87,0.43-4.33,0.73c-2.82,0.61-5.73,1.4-8.75,2.19c-0.76,0.19-1.53,0.39-2.3,0.58
						l-1.02,0.27l-1.04,0.32c-1.42,0.45-2.87,0.97-4.33,1.5c-2.95,1.08-5.91,2.17-8.82,3.24c-1.48,0.53-2.96,1.05-4.49,1.54
						c-0.38,0.12-0.77,0.24-1.17,0.36c-0.39,0.12-0.8,0.23-1.25,0.33c-0.56,0.12-0.53,0.17-0.75,0.22c-0.06,0-0.23,0.09-0.36,0.14
						l-0.41,0.18c-1.17,0.54-2.47,1.24-3.75,1.99c-1.28,0.74-2.57,1.54-3.86,2.35c-2.57,1.63-5.15,3.33-7.69,5.07
						c-1.27,0.87-2.54,1.74-3.77,2.63c-0.61,0.44-1.24,0.89-1.76,1.3c-0.56,0.44-1.14,0.93-1.71,1.41c-2.3,1.96-4.56,4-6.74,6.05
						c-2.2,2.1-4.34,4.26-6.36,6.51c-1.01,1.13-2,2.26-2.92,3.45c-0.95,1.17-1.82,2.4-2.5,3.55c-1.28,2.44-1.85,5.38-1.65,8.36
						c0.07,1.49,0.31,3,0.66,4.49c0.36,1.49,0.81,2.97,1.43,4.41L16.94,132.08z"/>
				</g>
			</g>
		</g>
	</g>
	<g>
		<g>
			<g>
				<g>
					<path class="st0" d="M40.63,151.42c0.03,3.46,0.32,6.97,0.86,10.39c0.55,3.41,1.38,6.8,2.77,9.85c0.7,1.51,1.54,2.95,2.61,4.09
						c0.53,0.58,1.11,1.08,1.73,1.48c0.31,0.22,0.63,0.35,0.97,0.55l1.22,0.62c1.62,0.86,3.22,1.8,4.71,2.91
						c1.5,1.09,2.91,2.35,4.19,3.53c0.65,0.6,1.26,1.13,1.87,1.59c0.6,0.45,1.2,0.76,1.82,0.99c0.33,0.09,0.63,0.21,0.99,0.25
						l0.55,0.1l0.71,0.11c0.94,0.16,1.83,0.35,2.71,0.55c3.52,0.8,6.93,1.73,10.34,2.58c1.7,0.43,3.4,0.84,5.09,1.21
						c1.68,0.37,3.38,0.69,4.93,0.85c0.41,0.06,0.72,0.03,1.08,0.06l1.32-0.01c0.87,0,1.71-0.03,2.54-0.06
						c1.66-0.1,3.27-0.28,4.82-0.62c3.1-0.69,5.89-2.04,8.07-4.07c2.19-2.02,3.71-4.75,4.62-7.79c0.3-0.72,0.41-1.54,0.6-2.32
						c0.18-0.78,0.38-1.56,0.43-2.37l0.27-2.39l0-2.41c-0.11-3.21-0.63-6.43-1.66-9.54c-1.03-3.1-2.44-6.1-4.16-8.92
						c-1.72-2.81-3.76-5.48-6.01-7.72c-0.28-0.3-0.56-0.53-0.84-0.78l-0.42-0.37c-0.14-0.11-0.26-0.19-0.39-0.29l-0.37-0.28
						c-0.02,0-0.03,0-0.04-0.01l-0.02-0.01l-0.01-0.01c-0.01,0.02,0-0.01,0.05-0.12l0.1-0.25l0.18-0.51l0.08-0.26
						c-0.2,0.52,0.55-1.54-0.42,1.1l-0.22-0.09l-0.45-0.19c-0.32-0.13-0.54-0.26-0.77-0.38c-1.84-0.99-3.25-1.96-4.75-2.91
						c-2.94-1.89-5.83-3.69-8.77-5.07c-1.36-0.66-2.72-1.18-4.06-1.57l-1-0.26l-1.12-0.23c-0.74-0.14-1.47-0.26-2.17-0.35
						c-0.69-0.07-1.36-0.13-1.95-0.09c-0.6,0.03-1.12,0.1-1.82,0.27c-0.69,0.16-1.62,0.42-2.6,0.58c-0.48,0.08-0.98,0.15-1.46,0.19
						l-0.36,0.03c-0.1,0.01-0.29,0.02-0.29,0.03c-0.08,0.02-0.15,0.04-0.23,0.05c-0.38,0.07-1.02,0.3-1.65,0.58
						c-0.31,0.12-0.64,0.3-0.97,0.46c-0.33,0.16-0.66,0.33-0.99,0.52c-1.33,0.71-2.67,1.56-4,2.42c-2.65,1.74-5.3,3.65-7.81,5.59
						l-11.7,9.04l6.96-12.93c1.29-2.39,2.63-4.54,4.16-6.71c1.53-2.14,3.18-4.24,5.23-6.17c1.06-0.95,2.14-1.89,3.54-2.67
						c0.64-0.42,1.45-0.74,2.25-1.04c0.75-0.26,1.39-0.41,2.07-0.57c2.65-0.61,5.19-0.92,7.75-1.2c2.55-0.26,5.09-0.45,7.65-0.56
						c1.28-0.06,2.56-0.09,3.89-0.08c1.39,0.01,2.72,0.13,4.01,0.26c2.58,0.28,5.1,0.68,7.62,1.14c1.26,0.24,2.52,0.5,3.78,0.79
						c1.28,0.31,2.52,0.62,3.91,1.12c2.14,0.78,4.62,1.48,6.98,2.19l7.18,2.16c2.39,0.73,4.78,1.48,7.17,2.28
						c2.4,0.81,4.75,1.58,7.19,2.68l0.94,0.47c0.14,0.06,0.36,0.2,0.55,0.33l0.57,0.41c0.44,0.39,0.84,0.73,1.33,1.1
						c0.94,0.73,1.95,1.46,2.95,2.19c2,1.46,4.03,2.91,6.01,4.54c0.49,0.41,0.98,0.83,1.47,1.3c0.25,0.25,0.46,0.44,0.76,0.79
						c0.29,0.33,0.55,0.68,0.74,1.07c0.22,0.38,0.24,0.83,0.27,1.25c0.03,0.47,0.02,0.76,0.03,1.08l-0.02,1.88
						c-0.05,2.49-0.14,4.95-0.23,7.42l-0.53,10.6l-0.5-0.01c-0.13-3.53-0.26-7.07-0.38-10.6l-0.21-5.29l-0.13-2.64l-0.08-1.31
						l-0.05-0.62c-0.01-0.17-0.04-0.32-0.06-0.48c-0.05-0.32-0.3-0.57-0.52-0.8c-0.2-0.2-0.56-0.52-0.87-0.77
						c-0.65-0.53-1.35-1.04-2.06-1.53c-1.43-0.99-2.91-1.93-4.39-2.88c-1.49-0.96-2.98-1.88-4.49-2.94
						c-0.37-0.26-0.78-0.58-1.13-0.86c-0.12-0.06-0.23-0.11-0.34-0.18c-0.1-0.07-0.34-0.15-0.5-0.23c-0.69-0.32-1.54-0.59-2.34-0.86
						c-6.61-2.08-13.51-3.7-20.34-5.47c-1.72-0.44-3.42-0.87-5.19-1.38l-1.36-0.42c-0.34-0.11-0.72-0.22-1.11-0.32
						c-0.79-0.2-1.61-0.38-2.45-0.54c-3.35-0.64-6.82-1.11-10.22-1.4c-0.88-0.07-1.76-0.13-2.6-0.15c-0.83-0.02-1.66,0-2.57,0.04
						c-1.78,0.08-3.61,0.22-5.43,0.39c-3.63,0.36-7.35,0.82-10.8,1.61c-0.41,0.11-0.86,0.2-1.24,0.33l-0.6,0.18l-0.43,0.19
						l-0.43,0.18l-0.45,0.28l-0.46,0.27l-0.46,0.36c-1.23,0.95-2.43,2.2-3.55,3.56c-2.21,2.73-4.24,5.94-5.89,9.07l-4.7-3.85
						c2.73-2.16,5.44-4.16,8.32-6.08c1.45-0.95,2.9-1.88,4.48-2.74c0.38-0.22,0.8-0.42,1.21-0.63c0.4-0.21,0.82-0.41,1.28-0.6
						c0.45-0.19,0.87-0.39,1.41-0.55l0.77-0.25c0.25-0.08,0.63-0.13,0.94-0.19l0.49-0.08l0.25-0.03l0.14-0.01l0.5-0.04
						c0.33-0.04,0.65-0.08,0.97-0.15c0.65-0.12,1.33-0.31,2.27-0.53c0.93-0.22,2.04-0.38,3.05-0.4c1.03-0.03,1.99,0.04,2.9,0.15
						c0.91,0.11,1.78,0.26,2.63,0.43l1.27,0.27l1.35,0.35c1.75,0.53,3.4,1.17,4.93,1.91c3.39,1.62,6.47,3.57,9.44,5.51
						c1.47,0.95,2.97,1.96,4.25,2.66c0.14,0.07,0.34,0.19,0.42,0.22l0.46,0.21c0.37,0.18,0.74,0.37,1.09,0.57
						c0.31,0.19,0.48,0.34,0.73,0.52l0.68,0.51l0.57,0.51c0.37,0.34,0.77,0.68,1.1,1.03c2.74,2.77,4.99,5.8,6.93,9.05
						c1.93,3.25,3.51,6.72,4.66,10.37c1.16,3.65,1.71,7.51,1.75,11.36c-0.02,0.97-0.03,1.93-0.08,2.9l-0.38,2.87
						c-0.09,0.96-0.37,1.89-0.59,2.83c-0.24,0.93-0.43,1.87-0.81,2.78c-1.23,3.67-3.33,7.29-6.41,9.95
						c-3.06,2.68-6.87,4.3-10.6,4.99c-1.9,0.35-3.81,0.51-5.68,0.55c-0.93,0.01-1.85,0.01-2.75-0.02l-1.32-0.04
						c-0.51-0.04-1.08-0.05-1.55-0.13c-1.95-0.26-3.71-0.68-5.46-1.13c-1.75-0.45-3.47-0.94-5.17-1.45c-3.41-1-6.78-2.08-10.12-3.01
						c-0.83-0.23-1.67-0.45-2.48-0.63c-0.71-0.17-1.86-0.35-2.83-0.75c-0.98-0.41-1.92-0.96-2.68-1.6
						c-0.77-0.63-1.45-1.29-2.06-1.92c-1.25-1.28-2.43-2.46-3.74-3.54c-1.3-1.09-2.71-2.04-4.17-2.94l-1.11-0.65
						c-0.38-0.24-0.85-0.51-1.23-0.79c-0.78-0.6-1.5-1.27-2.09-2.02c-1.22-1.48-2.06-3.16-2.72-4.86
						c-1.29-3.42-1.88-6.98-2.19-10.52c-0.29-3.55-0.31-7.1-0.03-10.62L40.63,151.42z"/>
				</g>
			</g>
		</g>
	</g>
	<g>
		<g>
			<g>
				<g>
					<path class="st0" d="M141.58,151.48c-0.57-1.33-1.41-2.51-2.36-3.6c-0.95-1.09-2.02-2.08-3.13-3.01
						c-1.12-0.9-2.29-1.86-3.45-2.34c-1.26-0.56-2.69-1-4.11-1.52c-1.43-0.52-2.88-1.06-4.33-1.92c-0.36-0.21-0.72-0.46-1.08-0.73
						c-0.3-0.19-0.44-0.32-0.75-0.47c-0.53-0.3-1.18-0.55-1.83-0.79c-2.65-0.93-5.56-1.57-8.44-2.25c-1.35-0.32-2.7-0.64-4.06-0.97
						l-2.05-0.52c-0.66-0.15-1.25-0.31-1.94-0.43c-2.66-0.5-5.44-0.85-8.21-1.2c-5.49-0.68-11.02-1.36-16.64-2.05l-2.22-0.32
						l0.01-0.25c6-0.42,11.99-0.42,17.98-0.14c2.9,0.14,5.94,0.34,9.03,0.79c0.77,0.1,1.56,0.25,2.35,0.42
						c0.74,0.17,1.47,0.34,2.2,0.51c1.46,0.34,2.89,0.67,4.29,0.99c2.88,0.72,5.83,1.4,8.79,2.56c0.75,0.31,1.49,0.62,2.24,1.09
						c0.35,0.18,0.8,0.56,1.09,0.78c0.23,0.2,0.48,0.39,0.75,0.57c1.1,0.73,2.41,1.34,3.73,1.94c1.35,0.61,2.74,1.17,4.14,1.95
						c0.7,0.38,1.43,0.93,1.97,1.44c0.58,0.52,1.13,1.05,1.65,1.61c1.04,1.12,2.01,2.31,2.82,3.61c0.81,1.29,1.47,2.7,1.77,4.17
						L141.58,151.48z"/>
				</g>
			</g>
		</g>
	</g>
	<g>
		<g>
			<g>
				<g>
					<path class="st0" d="M99.7,139.85c1.97,0.36,3.98,0.65,5.97,0.85c1.99,0.2,4,0.3,5.9,0.11c0.46-0.07,0.92-0.14,1.33-0.26
						c0.42-0.11,0.89-0.3,1.32-0.48c0.88-0.36,1.67-0.85,2.7-1.34c0.51-0.24,1.16-0.47,1.86-0.51c0.69-0.04,1.36,0.08,1.95,0.26
						c0.58,0.18,1.11,0.42,1.6,0.67l1.38,0.7c1.82,0.94,3.57,1.93,5.33,2.63c0.44,0.18,0.88,0.33,1.33,0.48l1.42,0.4
						c1.14,0.34,2.13,0.77,3.09,1.27c1.93,0.98,3.7,2.19,5.34,3.62c1.62,1.44,3.12,3.11,4.17,5.18l0.51,1.2
						c0.16,0.4,0.25,0.85,0.38,1.27c0.14,0.42,0.15,0.88,0.22,1.32c0.02,0.22,0.06,0.46,0.07,0.65l0.03,0.55
						c0.07,1.48,0.18,2.96,0.31,4.46c0.12,1.51,0.28,3,0.31,4.66c0,0.42,0,0.84-0.05,1.31c-0.02,0.22-0.05,0.47-0.11,0.74
						c-0.04,0.25-0.14,0.53-0.27,0.86c-0.17,0.31-0.34,0.66-0.63,0.88c-0.14,0.12-0.25,0.26-0.41,0.36l-0.25,0.17l-0.47,0.32
						l-0.24,0.16c-0.03,0.02-0.02,0.01-0.03,0.02c-0.01,0-0.02,0.01-0.03,0.01l-0.01,0.02c0.02-0.05-0.07,0.18-0.14,0.33
						c-0.07,0.16-0.15,0.32-0.23,0.47c-0.17,0.31-0.36,0.62-0.58,0.91c-0.45,0.59-1.05,1.15-1.83,1.5
						c-0.77,0.36-1.67,0.44-2.41,0.31l-0.29-0.04l-0.21-0.05l-0.42-0.09l-0.82-0.19c-1.08-0.25-2.07-0.47-2.83-0.34
						c-0.39,0.06-0.75,0.2-1.13,0.43c-0.19,0.12-0.37,0.25-0.55,0.4l-0.67,0.55c-0.92,0.78-2.16,1.44-3.4,1.7
						c-1.23,0.26-2.41,0.28-3.56,0.25c-2.29-0.09-4.51-0.29-6.74-0.7c0,0-0.76-0.14-1.52-0.38c-0.38-0.12-0.76-0.27-1.05-0.45
						c-0.28-0.15-0.5-0.48-0.45-0.65l0.25,0.04c0.11,0.3,0.4,0.34,0.62,0.43c0.24,0.08,0.49,0.12,0.74,0.16
						c0.5,0.08,1,0.12,1.5,0.15c1.01,0.05,2.02,0.06,3.03,0.04c2.01-0.04,4.07-0.08,5.93-0.46c0.93-0.19,1.74-0.52,2.45-1.04
						c0.36-0.25,0.7-0.57,1.04-0.9c0.3-0.31,0.79-0.78,1.27-1.11c1-0.74,2.44-1.02,3.59-0.92c1.17,0.08,2.16,0.31,3.14,0.46
						l0.31,0.05l0.22,0.01c0.15,0.03,0.26-0.02,0.4-0.02c0.24-0.06,0.44-0.15,0.65-0.3c0.2-0.16,0.4-0.4,0.58-0.69
						c0.09-0.14,0.17-0.3,0.24-0.47c0.04-0.08,0.07-0.17,0.1-0.25l0.05-0.13c0.01-0.03,0.07-0.19,0.09-0.29
						c0.09-0.15,0.19-0.3,0.29-0.46c0.1-0.14,0.2-0.29,0.31-0.45c1-0.72,1.5-1.07,1.37-1.04c0.01-0.07,0.09-0.32,0.09-0.62
						c0.03-0.28,0.02-0.63,0.01-0.97c-0.06-1.4-0.25-2.94-0.4-4.46c-0.16-1.53-0.29-3.08-0.38-4.61l-0.03-0.58l-0.06-0.46
						c-0.05-0.3-0.05-0.6-0.16-0.89c-0.1-0.29-0.14-0.59-0.26-0.88l-0.36-0.86c-1.58-3.09-4.72-5.7-8.05-7.54
						c-0.83-0.46-1.72-0.87-2.52-1.13c-0.17-0.06-0.48-0.15-0.73-0.23l-0.78-0.26c-0.51-0.19-1.02-0.39-1.51-0.61
						c-1.98-0.89-3.71-1.99-5.42-3l-1.3-0.76c-0.41-0.24-0.8-0.44-1.19-0.59c-0.8-0.29-1.35-0.34-2.19-0.01
						c-0.84,0.32-1.83,0.82-2.85,1.15c-0.52,0.17-1.01,0.32-1.57,0.43c-0.57,0.12-1.11,0.15-1.65,0.18
						c-2.14,0.02-4.18-0.31-6.18-0.75c-2-0.44-3.97-0.99-5.89-1.65L99.7,139.85z"/>
				</g>
			</g>
		</g>
	</g>
	<g>
		<g>
			<g>
				<g>
					<path class="st0" d="M107.59,190.9c3.74-0.21,7.52-0.59,10.99-1.53c1.74-0.49,3.32-1.1,4.53-2.17
						c0.74-0.59,1.48-1.19,2.21-1.78l2.41-1.89l0.94-0.38l0.72-0.31c1.68-0.72,3.4-1.48,4.93-2.33c1.46-0.83,2.92-2.01,4.24-3.23
						c2.63-2.47,4.87-5.44,5.79-8.97c0,0,0.04-0.09,0.06-0.22c0.03-0.14,0.07-0.32,0.1-0.5c0.08-0.37,0.15-0.73,0.15-0.73l0.25,0
						c0.33,2.03,0.03,4.2-0.69,6.2c-0.72,2.01-1.87,3.86-3.22,5.5c-1.31,1.61-2.84,3.1-4.72,4.39c-1.89,1.23-3.8,2.09-5.64,2.88
						l-0.76,0.31l-0.39,0.15l-0.17,0.07l-0.01,0c-1.34,0.99-2.71,1.99-4.08,2.99l-0.54,0.39l-0.66,0.41
						c-0.44,0.29-0.9,0.49-1.36,0.68c-0.91,0.39-1.83,0.63-2.74,0.81c-2.12,0.42-4.22,0.5-6.29,0.4c-2.07-0.11-4.12-0.39-6.11-0.89
						L107.59,190.9z"/>
				</g>
			</g>
		</g>
	</g>
	<g>
		<g>
			<g>
				<g>
					<path class="st0" d="M116.94,147.56c0.49-1,1.24-1.78,2.28-2.32c1.03-0.55,2.34-0.67,3.51-0.4c1.18,0.25,2.23,0.91,3.01,1.42
						c0.84,0.55,1.65,1.16,2.41,1.8c1.43,1.25,2.54,2.45,3.86,3.5c0.67,0.54,1.42,1.13,2.11,1.8c0.35,0.34,0.69,0.7,1,1.15
						c0.31,0.44,0.56,1.02,0.58,1.56c0.03,0.02-0.06,0.83-0.08,0.82l-0.25,0.02c-0.4-1.02-1.1-1.4-1.93-1.76
						c-0.82-0.37-1.71-0.74-2.58-1.15c-0.89-0.41-1.81-0.98-2.63-1.62c-0.82-0.64-1.54-1.29-2.21-1.86
						c-0.67-0.61-1.37-1.2-2.09-1.78c-0.77-0.63-1.31-1.09-1.97-1.44c-0.66-0.33-1.39-0.53-2.22-0.46
						c-0.83,0.06-1.74,0.33-2.61,0.86L116.94,147.56z"/>
				</g>
			</g>
		</g>
	</g>
	<g>
		<g>
			<g>
				<g>
					<path class="st0" d="M121.73,156c1.01,0.77,1.81,1.66,2.56,2.41c0.73,0.77,1.46,1.3,1.84,1.33c0.18,0.04,0.37,0.04,0.79-0.03
						c0.37-0.07,0.75-0.19,1.23-0.37c0.48-0.17,1.03-0.44,1.82-0.56c0.81-0.14,1.7,0.2,2.11,0.69l0.31,0.42l-0.14,0.21
						c-0.69-0.06-1.25,0.09-1.51,0.36c-0.28,0.26-0.57,0.62-1.03,1.04c-0.42,0.41-1.02,0.84-1.73,1.13
						c-0.37,0.15-0.69,0.25-1.16,0.32c-0.45,0.07-0.93,0.05-1.38-0.05c-0.92-0.22-1.67-0.76-2.18-1.31
						c-0.52-0.56-0.86-1.16-1.1-1.75c-0.5-1.2-0.69-2.39-0.65-3.72L121.73,156z"/>
				</g>
			</g>
		</g>
	</g>
	<g>
		<g>
			<g>
				<g>
					<path class="st0" d="M123.36,175.47c0.38-1.81,1.45-3.76,3.15-5.09c0.43-0.34,0.9-0.63,1.39-0.88
						c0.25-0.13,0.51-0.22,0.77-0.33l0.64-0.25c0.8-0.31,1.59-0.66,2.36-1.04c0.73-0.35,1.44-0.73,2.12-1.14
						c0.33-0.21,0.66-0.42,0.93-0.62c0.13-0.1,0.26-0.21,0.33-0.27c0.07-0.05,0.08-0.03,0.11-0.07c0.24-0.62,0.48-0.95,0.73-1.36
						c0.25-0.38,0.51-0.75,0.78-1.1c0.54-0.71,1.11-1.38,1.71-2.03l0.53-0.51l0.22,0.12c-0.15,0.99-0.37,1.93-0.62,2.84
						c-0.24,0.9-0.56,1.83-0.73,2.59c-0.02,0.08-0.03,0.13-0.02,0.17c-0.03,0.18-0.12,0.38-0.17,0.57
						c-0.08,0.17-0.19,0.38-0.29,0.51c-0.19,0.28-0.38,0.49-0.57,0.7c-0.38,0.4-0.77,0.72-1.17,1.04c-0.8,0.6-1.64,1.09-2.47,1.5
						c-0.9,0.41-1.85,0.77-2.83,1.03c-0.41,0.1-0.82,0.21-1.25,0.31c-0.37,0.11-0.74,0.24-1.1,0.39c-1.48,0.65-2.86,1.8-4.37,3.08
						L123.36,175.47z"/>
				</g>
			</g>
		</g>
	</g>
	<g>
		<g>
			<g>
				<g>
					<path class="st0" d="M204.86,139.73c0.25,0.2,0.53,0.18,0.89,0.2c0.34,0.01,0.7-0.01,1.07-0.04c0.73-0.06,1.46-0.17,2.2-0.29
						c1.4-0.24,3.15-0.63,3.85-0.96c0.12-0.06,0.26-0.11,0.36-0.2c0.1-0.1,0.12-0.26,0.15-0.39c0.04-0.28,0.06-0.56,0.06-0.83
						l-0.01-1.09l-0.05-1.27c-0.09-1.71-0.25-3.44-0.43-5.17c-0.37-3.46-0.83-6.92-1.39-10.34c-0.14-0.85-0.29-1.7-0.45-2.53
						c-0.08-0.42-0.17-0.83-0.26-1.22c-0.04-0.22-0.1-0.33-0.15-0.47l-0.14-0.41c-0.54-1.25-1.51-2.64-2.48-3.96
						c-2.02-2.66-4.34-5.23-6.72-7.72c-2.39-2.5-4.87-4.92-7.41-7.28c-1.27-1.18-2.55-2.34-3.85-3.46c-0.34-0.32-0.61-0.49-0.89-0.7
						c-0.29-0.2-0.53-0.44-0.86-0.61c-0.64-0.36-1.24-0.75-1.96-1.04c-2.75-1.27-5.96-1.99-9.24-2.4
						c-3.29-0.42-6.66-0.57-10.06-0.56c-3.51,0-7.05,0.21-10.73,0.38c-3.63,0.16-7.22,0.33-10.76,0.68
						c-3.54,0.34-7.04,0.83-10.39,1.65c-0.84,0.2-1.67,0.43-2.48,0.69l-2.65,0.82c-1.79,0.54-3.57,1.05-5.34,1.55
						c-3.54,1-7.08,1.95-10.53,3c-1.71,0.53-3.43,1.08-4.96,1.71c-0.19,0.08-0.37,0.16-0.55,0.24l-0.26,0.12l-0.12,0.06l-0.06,0.03
						c-0.13,0.06-0.27,0.13-0.39,0.23c-0.11,0.11-0.15,0.26-0.18,0.42c-0.01,0.04-0.02,0.08-0.02,0.12l-0.01,0.06l-0.01,0.14
						c-0.02,0.18-0.02,0.41-0.03,0.61c-0.04,3.42,0.31,7.11,0.63,10.7c0.34,3.61,0.73,7.22,1.13,10.81l0.62,5.82l-0.49,0.09
						c-2.09-7.55-3.96-15.14-5.24-22.94c-0.15-0.98-0.3-1.97-0.4-2.98c-0.05-0.51-0.11-1.01-0.13-1.54
						c-0.02-0.26-0.03-0.53-0.03-0.81c-0.02-0.35,0.02-0.75,0.07-1.13c0.1-0.74,0.31-1.52,0.86-2.06c0.24-0.3,0.54-0.54,0.86-0.77
						l0.48-0.34l0.43-0.26c0.98-0.58,1.9-1.01,2.84-1.43c3.73-1.62,7.44-2.87,11.14-4.14c1.78-0.61,3.58-1.22,5.4-1.84
						c1.81-0.64,3.64-1.28,5.48-1.93c3.96-1.38,8.05-2.16,12.11-2.72c4.06-0.55,8.1-0.83,12.03-1.05c1.96-0.11,3.91-0.22,5.83-0.32
						c1.96-0.1,3.92-0.15,5.85-0.16c3.97,0.03,8.02,0.23,12.12,0.91c4.08,0.72,8.29,1.78,12.2,4.28c0.5,0.28,0.96,0.65,1.42,1.02
						c0.45,0.36,0.97,0.75,1.29,1.08c0.74,0.68,1.47,1.37,2.19,2.06c1.44,1.39,2.84,2.8,4.21,4.24c2.74,2.87,5.36,5.82,7.81,8.91
						c1.99,2.54,3.92,5.12,5.51,8.2c0.21,0.36,0.38,0.81,0.55,1.23l0.26,0.63c0.08,0.24,0.14,0.49,0.21,0.73l0.19,0.74l0.1,0.63
						l0.15,1.22c0.18,1.61,0.3,3.19,0.4,4.78c0.19,3.17,0.29,6.33,0.27,9.51c-0.01,1.59-0.06,3.18-0.18,4.78
						c-0.07,0.82-0.13,1.53-0.31,2.57c-0.09,0.48-0.2,0.94-0.4,1.35c-0.09,0.21-0.23,0.4-0.42,0.53c-0.18,0.14-0.41,0.2-0.63,0.28
						c-1.88,0.5-3.29,0.52-4.86,0.6c-0.77,0.02-1.54,0.02-2.31-0.03c-0.38-0.03-0.77-0.06-1.15-0.13c-0.37-0.08-0.78-0.13-1.03-0.43
						L204.86,139.73z"/>
				</g>
			</g>
		</g>
	</g>
	<g>
		<g>
			<g>
				<g>
					<path class="st0" d="M204.03,138.16c2.28,0.44,4.74-0.04,6.84-1.03c0.47-0.26,0.92-0.56,1.05-0.96c0.14-0.39,0.02-0.9-0.18-1.4
						c-0.45-1.02-1.17-2-1.85-3c-0.69-1.01-1.39-2.04-1.95-3.19c-0.14-0.29-0.26-0.59-0.39-0.89c-0.12-0.26-0.2-0.44-0.36-0.67
						c-0.3-0.43-0.67-0.85-1.1-1.24c-1.7-1.57-3.77-2.86-5.82-4.1c-2.07-1.24-4.2-2.39-6.35-3.53c-2.15-1.16-4.3-2.21-6.5-3.52
						c-0.14-0.08-0.28-0.18-0.43-0.29c-0.15-0.11-0.22-0.12-0.33-0.18l-0.3-0.16l-0.39-0.16c-0.51-0.22-1.07-0.41-1.64-0.6
						c-1.12-0.37-2.28-0.71-3.45-1.03c-2.33-0.64-4.68-1.22-7.05-1.76c-2.36-0.54-4.74-1.04-7.12-1.47
						c-2.37-0.44-4.77-0.84-7.11-1.05l-0.85-0.04c-0.28-0.01-0.58-0.04-0.8-0.01l-0.83,0.03c-0.39,0.01-0.78,0.01-1.17,0l-1.94-0.25
						l-1.84-0.35c-2.44-0.49-4.83-1.07-7.2-1.67c-4.75-1.21-9.46-2.51-14.16-3.84l-7.03-2.01l-3.51-1l-1.74-0.48l-0.85-0.22
						c-0.14-0.04-0.31-0.08-0.33-0.08c-0.03-0.01-0.06-0.01-0.08-0.03l-0.04-0.02l-0.02-0.01c-0.01,0.11,0-0.18-0.01-0.51
						l-0.02-0.87l0.97-1.5c4.36,3.32,8.66,6.66,12.91,10.07c2.02,1.62,4.02,3.26,6.02,4.94c1.98,1.69,3.99,3.37,5.86,5.37
						c3.66,3.95,6.61,8.21,10.02,12.04c1.69,1.93,3.46,3.76,5.33,5.48c1.88,1.73,3.88,3.25,5.98,4.77
						c4.33,3.09,8.38,6.51,12.23,10.14c3.82,3.67,7.53,7.42,10.68,11.84c0.75,1.18,1.56,2.18,1.98,3.95
						c0.22,1.42,0.24,2.9-0.12,4.35c-0.34,1.45-1.11,2.84-2.19,3.89c-1.07,1.07-2.39,1.77-3.73,2.23c-1.36,0.46-2.59,0.71-3.88,1.02
						c-1.28,0.29-2.56,0.57-3.84,0.83c-2.56,0.52-5.13,1-7.7,1.42c-2.58,0.41-5.15,0.78-7.77,0.97c-1.32,0.05-2.6,0.22-4.07-0.17
						c-1.28-0.43-2.46-0.97-3.63-1.52c0,0-1.89-0.91-3.73-1.9c-1.85-0.98-3.66-2.01-3.66-2.01l0.12-0.22
						c2.49,1.22,5.01,2.41,7.56,3.48c1.27,0.51,2.58,1.08,3.87,1.36c1.27,0.17,2.68,0,4.03-0.16c5.46-0.74,10.89-1.99,16.26-3.3
						c1.34-0.33,2.68-0.69,4-1.06c1.34-0.38,2.54-0.76,3.57-1.48c1.03-0.69,1.84-1.6,2.31-2.7c0.47-1.09,0.63-2.34,0.52-3.58
						c-0.02-0.31-0.07-0.62-0.12-0.94c-0.06-0.3-0.16-0.48-0.23-0.74l-0.43-0.81c-0.15-0.27-0.35-0.55-0.52-0.82
						c-0.72-1.09-1.59-2.15-2.45-3.19c-1.77-2.07-3.69-4.04-5.66-5.96c-3.81-3.68-7.94-7.27-12.36-10.56
						c-1.1-0.84-2.23-1.6-3.36-2.42l-1.76-1.26c-0.58-0.43-1.14-0.89-1.71-1.33c-2.25-1.82-4.37-3.81-6.34-5.91
						c-3.98-4.18-7.3-8.88-10.92-12.9c-1.79-1.98-3.85-3.73-5.93-5.5c-2.08-1.75-4.18-3.46-6.26-5.14
						c-4.17-3.36-8.44-6.7-12.81-10.07l-4.6-3.54l5.56,0.69c0.21,0.03,0.42,0.06,0.62,0.1c0.22,0.04,0.42,0.09,0.53,0.12l0.78,0.21
						l1.53,0.43l3.03,0.88c2.02,0.59,4.03,1.19,6.05,1.78c4.04,1.18,8.08,2.36,12.13,3.48c4.04,1.11,8.1,2.23,12.11,3.04
						c0.51,0.12,0.99,0.17,1.47,0.25l0.73,0.11c0.19,0,0.38,0,0.57,0.01l0.29,0.02l0.47-0.02c0.31-0.01,0.64-0.04,0.92-0.02
						c0.55,0.04,1.12,0.06,1.65,0.13c2.15,0.23,4.2,0.63,6.25,1.02c5.49,1.12,10.9,2.46,16.27,4.12c1.34,0.44,2.67,0.86,4.02,1.45
						c0.6,0.21,1.56,0.81,1.95,1.1c0.54,0.36,1.14,0.71,1.73,1.05c2.39,1.38,4.83,2.73,7.23,4.15c2.4,1.43,4.78,2.9,7.03,4.61
						c1.12,0.86,2.22,1.77,3.16,2.9c0.23,0.29,0.45,0.6,0.63,0.94c0.1,0.16,0.16,0.36,0.24,0.54l0.18,0.47
						c0.22,0.62,0.54,1.23,0.86,1.82c0.66,1.2,1.45,2.34,2.15,3.56c0.35,0.61,0.69,1.25,0.86,1.98c0.06,0.18,0.08,0.36,0.08,0.56
						l0.01,0.29l-0.06,0.29c-0.02,0.1-0.04,0.19-0.07,0.29l-0.15,0.25l-0.16,0.25l-0.21,0.19c-0.57,0.51-1.27,0.72-1.92,0.95
						c-0.66,0.23-1.35,0.38-2.04,0.49c-1.38,0.21-2.81,0.2-4.14-0.15L204.03,138.16z"/>
				</g>
			</g>
		</g>
	</g>
	<g>
		<g>
			<g>
				<g>
					<path class="st0" d="M189.51,165.83c2.3-0.5,4.59-1.14,6.76-1.98c1.08-0.42,2.14-0.91,3.09-1.5c0.93-0.58,1.79-1.34,2.03-2.09
						c0.04-0.09,0.04-0.18,0.06-0.27c0.02-0.06,0.05-0.31,0.07-0.45c0.04-0.34,0.13-0.67,0.23-1.02c0.11-0.34,0.25-0.68,0.43-1
						c0.09-0.16,0.18-0.32,0.29-0.46l0.23-0.32c0.38-0.45,0.03-0.55-0.93-1.51l-1.31-1.17l-1.34-1.33
						c-0.91-0.89-1.65-1.84-2.43-2.78c-3.02-3.75-5.77-7.65-9.14-10.66c-1.69-1.48-3.5-2.69-5.5-3.29
						c-2.54-0.76-4.82-2.18-6.74-3.78c-1.79-1.51-3.33-3.17-4.89-4.6c-0.78-0.71-1.57-1.33-2.38-1.82c-0.41-0.2-0.81-0.43-1.23-0.54
						c-0.2-0.08-0.41-0.15-0.62-0.16l-0.7-0.12c-0.37-0.05-0.75-0.11-1.04-0.21c-0.32-0.08-0.63-0.17-0.9-0.27
						c-0.59-0.19-1.12-0.41-1.67-0.62c-1.07-0.45-2.12-0.92-3.15-1.41c-2.06-0.99-4.06-2.04-6.05-3.11
						c-7.93-4.33-15.59-9.05-23.01-13.9l-2.97-2l0.13-0.21c8.71,4.42,17.11,8.68,25.51,12.93c2.05,1.01,4.17,2.04,6.32,3.02
						c2.13,0.96,4.39,1.98,6.46,2.55l0.37,0.09l0.3,0.04l1.02,0.15c0.38,0.04,0.73,0.16,1.08,0.28c0.36,0.11,0.7,0.23,1.02,0.4
						c1.32,0.6,2.39,1.43,3.34,2.26c1.92,1.68,3.47,3.38,5.15,4.78c1.69,1.42,3.53,2.58,5.57,3.22c2.58,0.8,4.81,2.38,6.66,4.08
						c3.7,3.48,6.36,7.59,9.1,11.33c0.7,0.93,1.39,1.9,2.15,2.73l1.13,1.26c0.41,0.43,0.86,0.84,1.28,1.29
						c0.43,0.45,0.83,0.85,1.36,1.66c0.22,0.41,0.4,0.84,0.34,1.3c-0.06,0.45-0.35,0.84-0.62,1.17l-0.33,0.39
						c-0.08,0.1-0.16,0.19-0.22,0.29c-0.14,0.19-0.24,0.41-0.34,0.64c-0.09,0.23-0.18,0.47-0.23,0.73l-0.1,0.42
						c-0.05,0.19-0.08,0.39-0.17,0.56c-0.29,0.72-0.79,1.25-1.29,1.68c-0.51,0.43-1.06,0.76-1.62,1.04
						c-1.12,0.57-2.28,0.96-3.44,1.29c-2.33,0.64-4.71,1.03-7.09,1.24L189.51,165.83z"/>
				</g>
			</g>
		</g>
	</g>
	<g>
		<g>
			<g>
				<g>
					<path class="st0" d="M200.35,120.45c1.36,2.82,2.46,5.75,3.36,8.75c0.9,3,1.6,6.06,1.98,9.25c0.12,1.5,0.26,3.05-0.12,4.8
						c-0.33,1.39-0.65,2.81-1.02,4.23c-0.19,0.72-0.39,1.43-0.63,2.16c-0.11,0.36-0.25,0.73-0.4,1.1c-0.07,0.14-0.19,0.51-0.33,0.75
						c-0.15,0.25-0.25,0.54-0.44,0.73l-0.25,0.31l-0.3,0.23c-0.21,0.14-0.44,0.25-0.7,0.27c-0.51,0.03-0.96-0.23-1.4-0.55
						c-0.22-0.16-0.42-0.34-0.61-0.51c-0.21-0.2-0.29-0.3-0.43-0.46c-0.25-0.29-0.48-0.59-0.7-0.89c0,0-0.16-0.25-0.33-0.51
						c-0.16-0.26-0.31-0.52-0.31-0.52l0.19-0.16c0.63,0.48,1.27,0.93,1.92,1.32c0.36,0.23,0.55,0.28,0.77,0.36
						c0.2,0.05,0.41,0.15,0.58-0.04c0.15-0.18,0.18-0.4,0.21-0.58c0.01-0.09,0.02-0.17,0.02-0.25l0.09-0.51
						c0.12-0.72,0.21-1.47,0.31-2.22c0.17-1.46,0.37-3.03,0.64-4.6c0.09-0.43,0.09-0.72,0.12-1.02c0.05-0.29,0.02-0.66,0.02-1
						c0.01-0.68-0.09-1.42-0.14-2.12c-0.28-2.91-0.83-6-1.25-9c-0.46-3.04-0.89-6.1-1.1-9.26L200.35,120.45z"/>
				</g>
			</g>
		</g>
	</g>
	<g>
		<g>
			<g>
				<g>
					<path class="st0" d="M178.31,118.61c2.1,0.75,3.94,1.68,5.8,2.67c1.84,0.98,3.63,2.06,5.38,3c0.4,0.23,0.8,0.43,1.19,0.63
						c0.37,0.18,0.73,0.34,1.14,0.47c0.81,0.28,1.75,0.5,2.75,0.82c0.98,0.32,2.11,0.75,3.02,1.64c0.46,0.42,0.79,1,1.01,1.56
						c0.07,0.29,0.16,0.58,0.19,0.86c0.01,0.28,0.04,0.56,0.03,0.83l-0.13,0.85l-0.25,0.01c-0.38-1.05-0.93-1.93-1.65-2.35
						c-0.68-0.44-1.53-0.58-2.49-0.71c-0.92-0.11-1.99-0.19-3.15-0.45c-0.57-0.12-1.19-0.33-1.74-0.56
						c-0.55-0.24-1.04-0.49-1.5-0.74c-1.88-1.08-3.64-2.33-5.23-3.7c-1.62-1.37-3.12-2.87-4.49-4.58L178.31,118.61z"/>
				</g>
			</g>
		</g>
	</g>
	<g>
		<g>
			<g>
				<g>
					<path class="st0" d="M179.44,141.72c3.89,1.65,8,2.56,11.92,5.13c0.89,0.65,1.85,1.36,2.56,2.69c0.17,0.33,0.3,0.72,0.38,1.12
						c0.04,0.2,0.05,0.42,0.06,0.63l0.01,0.29c0,0.39,0.06,0.82,0.13,1.26c0.08,0.44,0.18,0.91,0.29,1.4
						c0.09,0.45,0.27,1.11,0.3,1.96c0,0.76-0.39,1.51-1.1,1.74c-0.31,0.17-0.72,0.14-1.04,0.19c-0.32-0.04-0.66-0.06-0.93-0.12
						l-0.81-0.26l0.02-0.25c1.15-0.26,2.1-0.5,1.99-1.21c-0.04-0.16-0.11-0.29-0.18-0.4c-0.04-0.06-0.06-0.08-0.11-0.17l-0.16-0.29
						c-0.23-0.44-0.49-0.94-0.71-1.47c-0.23-0.51-0.42-1.09-0.56-1.71l-0.08-0.48l-0.04-0.24l-0.02-0.12l-0.01-0.03
						c-0.03-0.08-0.06-0.17-0.13-0.28c-0.24-0.45-0.97-1.08-1.71-1.58c-1.54-1.1-3.49-2.1-5.25-3.27c-1.79-1.17-3.69-2.46-4.97-4.33
						L179.44,141.72z"/>
				</g>
			</g>
		</g>
	</g>
	<g>
		<g>
			<g>
				<g>
					<path class="st0" d="M169.16,131.27c1.63,1.9,2.47,4.01,3.36,5.9c0.4,0.89,0.78,1.77,1.19,2.61c0.42,0.84,0.83,1.66,1.5,2.46
						l0.27,0.36l-0.09,0.23c-1.33,0.25-2.7-0.4-3.66-1.27c-0.97-0.83-1.7-2.01-2.18-3.08c-0.45-1.12-0.79-2.31-0.88-3.48
						c-0.12-1.19-0.08-2.38,0.25-3.66L169.16,131.27z"/>
				</g>
			</g>
		</g>
	</g>
	<g>
		<g>
			<g>
				<g>
					<path class="st0" d="M190.65,134.42c1.74,0.24,2.89,0.76,4.04,1.26c1.06,0.49,2,1.08,3.21,1.88l0.27,0.18l0.04,0.25
						c-0.64,0.8-1.59,1.08-2.45,1.13c-0.85,0.07-1.74-0.17-2.46-0.51c-0.72-0.39-1.42-0.89-1.9-1.57c-0.5-0.66-0.86-1.45-0.92-2.44
						L190.65,134.42z"/>
				</g>
			</g>
		</g>
	</g>
	<g>
		<g>
			<g>
				<g>
					<path class="st0" d="M157.76,67.9c2.68-2.41,5.06-5.21,7.12-8.16c0.24-0.37,0.52-0.75,0.74-1.12l0.54-1.05
						c0.3-0.8,0.61-1.57,0.83-2.43c0.49-1.68,0.83-3.46,1.14-5.23c0.59-3.57,0.97-7.2,1.23-10.83c0.13-1.82,0.23-3.64,0.28-5.44
						c0.05-1.8,0.07-3.63-0.03-5.32c-0.01-0.44-0.06-0.83-0.11-1.19c-0.03-0.31-0.12-0.92-0.19-1.4c-0.12-1.01-0.2-2-0.24-2.99
						c-0.08-1.98-0.03-3.95,0.17-5.94c0.2-1.99,0.53-3.99,1.18-6.05c0.15-0.51,0.37-1.04,0.56-1.55l0.37-0.79l0.19-0.39
						c0.06-0.12,0.05-0.09,0.08-0.14l0.11-0.19l0.02-0.04c0.01-0.02,0.02-0.04,0.03-0.06c0.05-0.1-0.14-0.1-0.19-0.07l-0.02,0.01
						l-0.01,0l-0.12,0.01l-0.94,0.08l-1.3,0.13c-0.39,0.06-0.76,0.1-1.17,0.18c-3.33,0.62-6.88,1.65-10.32,2.69
						c-3.22,0.98-6.44,2.05-9.57,3.23c-1.53,0.59-3.13,1.24-4.34,1.88c-0.27,0.12-0.68,0.4-1.04,0.62l-1.1,0.69l-2.2,1.38
						c-5.86,3.67-11.77,7.32-17.71,10.93l-4.46,2.7l-1.12,0.67l-0.56,0.34c-0.17,0.1-0.42,0.24-0.47,0.3
						c-0.37,0.21-0.92,0.78-1.4,1.33c-1.99,2.38-3.76,5.39-5.43,8.34c-3.33,5.98-6.35,12.21-9.29,18.4c0,0-0.6,1.25-1.21,2.5
						c-0.59,1.26-1.18,2.51-1.18,2.51l-0.47-0.17c1.97-7.17,4.29-14.24,7.08-21.18c1.42-3.47,2.91-6.9,4.81-10.27
						c0.49-0.84,0.99-1.68,1.57-2.51c0.58-0.83,1.23-1.67,2.11-2.51c0.25-0.21,0.51-0.42,0.76-0.62l0.57-0.4l1.14-0.79l2.29-1.58
						c5.89-4.08,12.17-8.32,18.48-12.5c1.58-1.04,3.16-2.08,4.74-3.12c0.21-0.13,0.37-0.25,0.61-0.39l0.75-0.42
						c0.51-0.29,0.94-0.47,1.42-0.71c0.92-0.42,1.82-0.81,2.72-1.17c3.59-1.45,7.11-2.61,10.6-3.69c1.79-0.53,3.59-1.04,5.43-1.51
						c1.85-0.47,3.69-0.91,5.7-1.24c0.5-0.09,1.05-0.14,1.58-0.21l1.47-0.12l0.74-0.05l1.09-0.04c0.33-0.02,0.79-0.01,1.25,0
						c0.44,0.02,0.91,0,1.32,0.07c1.76,0.14,3.19,0.67,4.08,1.59c0.45,0.44,0.89,1.07,1.05,1.77c0.15,0.67,0.16,1.26,0.01,1.88
						c-0.02,0.3-0.2,0.64-0.33,0.96l-0.2,0.48c-0.11,0.17-0.25,0.36-0.38,0.53l-0.76,1.06l-0.74,0.95
						c-0.32,0.39-0.31,0.46-0.41,0.63c-0.08,0.16-0.16,0.3-0.24,0.47c-0.13,0.36-0.3,0.67-0.42,1.06c-0.52,1.48-0.88,3.15-1.12,4.84
						c-0.24,1.7-0.37,3.43-0.39,5.15c-0.01,0.86,0.01,1.71,0.06,2.54l0.1,1.35c0.04,0.55,0.06,1.08,0.05,1.55
						c0,2-0.15,3.88-0.33,5.77c-0.18,1.89-0.42,3.75-0.7,5.62c-0.56,3.72-1.28,7.42-2.27,11.07c-0.52,1.82-1.06,3.64-1.81,5.42
						c-0.34,0.89-0.8,1.77-1.27,2.64c-0.27,0.43-0.58,0.85-0.87,1.27c-0.3,0.39-0.62,0.72-0.93,1.08c-2.54,2.79-5.38,5.29-8.5,7.29
						L157.76,67.9z"/>
				</g>
			</g>
		</g>
	</g>
	<g>
		<g>
			<g>
				<g>
					<path class="st0" d="M210.21,106.17c3.35-5.28,6.93-10.4,11.09-15.23c1.05-1.2,2.14-2.39,3.34-3.52
						c0.61-0.57,1.23-1.13,1.92-1.66l0.72-0.55c0.14-0.1,0.19-0.15,0.29-0.21c0.36-0.19,0.67-0.21,0.89-0.33
						c0.05-0.03,0.1-0.05,0.14-0.1c0.07-0.05-0.07-0.16-0.17-0.18c-0.21-0.08-0.42-0.12-0.6-0.16l-0.9-0.17l-0.08-0.02l-0.5-0.23
						c-0.38-0.18-0.75-0.34-1.13-0.55c-0.77-0.4-1.5-0.83-2.21-1.27c-2.82-1.79-5.14-3.51-7.65-4.65c-1.24-0.58-2.54-1.01-3.86-1.38
						l-2.13-0.48c-0.8-0.17-1.6-0.35-2.38-0.56c-3.14-0.79-6.13-1.75-9.06-2.6c-5.44-1.64-10.78-2.91-16.21-2.99
						c-0.68-0.01-1.35,0.01-2.03,0.01l-2.18,0.07l-4.4,0.13c-2.92,0.08-5.78,0.16-8.53,0.45c-2.75,0.29-5.46,0.86-8.22,1.59
						c-0.68,0.19-1.39,0.38-2.05,0.57c-0.6,0.23-1.22,0.38-1.83,0.65c-1.22,0.52-2.44,1.14-3.65,1.84
						c-4.82,2.83-9.31,6.54-13.59,10.33c0,0-0.87,0.77-1.74,1.55c-0.86,0.78-1.7,1.58-1.7,1.58l-0.38-0.33
						c3.61-5.12,7.71-9.92,12.52-14.14c2.43-2.08,5.03-4.05,8.2-5.47c0.81-0.39,1.54-0.63,2.29-0.92c0.75-0.28,1.51-0.54,2.27-0.8
						c1.53-0.51,3.1-0.95,4.7-1.33c3.1-0.74,6.33-1.08,9.48-1.34c1.57-0.12,3.14-0.23,4.72-0.35l2.36-0.17l1.18-0.08l1.27-0.06
						c3.4-0.14,6.8,0.13,10.06,0.69c3.26,0.56,6.36,1.41,9.29,2.27c2.99,0.91,5.91,1.88,8.8,2.67c0.72,0.2,1.44,0.38,2.16,0.55
						l2.42,0.62c1.67,0.51,3.33,1.12,4.89,1.92c3.15,1.58,5.77,3.72,8.13,5.39c0.6,0.41,1.19,0.8,1.78,1.16
						c0.29,0.19,0.63,0.35,0.94,0.53l0.24,0.13l0.12,0.07l0.23,0.1l1.01,0.4c1.31,0.55,2.7,1,3.92,1.49
						c1.22,0.48,2.03,1.05,2.52,1.56c0.52,0.53,0.78,0.99,1.02,1.51c0.05,0.14,0.1,0.27,0.13,0.47c0.04,0.21-0.02,0.5-0.1,0.61
						c-0.15,0.27-0.31,0.43-0.5,0.61c-0.4,0.33-0.82,0.66-1.53,1.04c-0.19,0.09-0.35,0.19-0.59,0.28l-0.33,0.14l-0.4,0.13
						c-0.15,0.04-0.25,0.09-0.43,0.13l-0.53,0.13c-0.33,0.09-0.76,0.17-1.17,0.25l-1.2,0.24l-0.58,0.11
						c-0.09,0.02-0.2,0.04-0.28,0.06l-0.2,0.1l-0.8,0.38c-0.22,0.11-0.31,0.19-0.48,0.28c-0.59,0.36-1.18,0.79-1.77,1.23
						c-1.17,0.9-2.33,1.89-3.46,2.92c-4.53,4.13-8.85,8.66-13.14,13.21L210.21,106.17z"/>
				</g>
			</g>
		</g>
	</g>
	<g>
		<g>
			<g>
				<g>
					<path class="st0" d="M118.18,90.5c1.99-7.64,4.94-15.04,8.29-22.23c3.41-7.17,7.27-14.14,11.66-20.74
						c4.08-6.13,8.62-12.06,13.39-17.79c4.77-5.72,9.78-11.23,14.98-16.39c0,0,0.54-0.51,1.07-1.03c0.27-0.25,0.54-0.51,0.74-0.7
						c0.22-0.2,0.37-0.33,0.37-0.33l0.16,0.19c-4.84,6.26-9.59,12.51-14.33,18.77c-4.52,6.07-9.53,12.81-13.69,19.08
						c-4.32,6.37-8.35,13.33-12.07,20.08c-3.71,6.9-7.23,13.9-10.35,21.16L118.18,90.5z"/>
				</g>
			</g>
		</g>
	</g>
	<g>
		<g>
			<g>
				<g>
					<path class="st0" d="M194.27,90.31c3.79-1.86,7.8-2.94,11.83-3.75c1.88-0.36,3.8-0.64,5.76-0.79c1.95-0.14,3.92-0.19,5.92,0.1
						l0.8,0.17l0,0.25c-2.01,0.77-3.92,1.48-5.9,2.04c-1.9,0.56-4.03,1.05-5.97,1.41c-1.99,0.34-4.07,0.68-6.1,0.81
						c-2.06,0.16-4.13,0.23-6.28-0.01L194.27,90.31z"/>
				</g>
			</g>
		</g>
	</g>
	<g>
		<g>
			<g>
				<g>
					<path class="st0" d="M151.14,16.46c0.43,2.63,0.51,5.03,0.71,7.39c0.12,1.83,0.24,3.59,0.46,6.82l0,0.51l-0.23,0.11
						c-1.15-0.85-2.01-2.01-2.54-3.27c-0.55-1.21-0.87-2.66-0.94-3.96c-0.05-1.34,0.04-2.73,0.42-4.01c0.36-1.3,0.91-2.57,1.87-3.65
						L151.14,16.46z"/>
				</g>
			</g>
		</g>
	</g>
	<g>
		<g>
			<g>
				<g>
					<path class="st0" d="M142.58,20.87c0.48,3.71,0.46,7.31,0.59,10.83c0.04,1.64,0.08,3.29,0.19,4.93
						c0.08,1.65,0.19,3.29,0.48,4.94l0.08,0.7l-0.22,0.11c-1.46-1.32-2.34-3.15-2.91-4.98c-0.59-1.78-0.8-3.81-0.86-5.63
						c-0.02-1.86,0.12-3.79,0.52-5.6c0.38-1.83,0.93-3.65,1.89-5.35L142.58,20.87z"/>
				</g>
			</g>
		</g>
	</g>
	<g>
		<g>
			<g>
				<g>
					<path class="st0" d="M134.32,29.13c0.49,4.03,0.45,7.97,0.54,11.82c0.03,1.79,0.07,3.59,0.2,5.35c0.14,1.76,0.3,3.51,1.08,4.99
						c-0.03,0.02,0.37,0.58,0.37,0.59l-0.14,0.21c-1.02-0.28-1.9-1.12-2.5-2.02c-0.62-0.91-1.04-1.92-1.36-2.93
						c-0.63-1.96-0.86-4.18-0.89-6.15c0.01-2.02,0.16-4.11,0.57-6.07c0.39-1.99,0.95-3.96,1.89-5.84L134.32,29.13z"/>
				</g>
			</g>
		</g>
	</g>
	<g>
		<g>
			<g>
				<g>
					<path class="st0" d="M124.28,31.62c0.75,5.79,1.08,11.57,1.67,17.22c0.26,2.63,0.58,5.28,1.02,7.89
						c0.49,2.59,0.99,5.2,2.18,7.51c0,0,0.12,0.24,0.25,0.46c0.13,0.23,0.27,0.47,0.27,0.47l-0.18,0.17
						c-1.26-0.8-2.28-2.02-3.07-3.31c-0.81-1.3-1.4-2.7-1.89-4.13c-0.97-2.75-1.52-5.91-1.8-8.74c-0.25-2.91-0.32-5.94-0.11-8.83
						c0.2-2.93,0.59-5.86,1.42-8.72L124.28,31.62z"/>
				</g>
			</g>
		</g>
	</g>
	<g>
		<g>
			<g>
				<g>
					<path class="st0" d="M114.24,40.58c1.57,6.21,2.68,12.49,3.97,18.62c0.6,2.85,1.22,5.74,1.98,8.56
						c0.38,1.41,0.78,2.82,1.27,4.17c0.49,1.35,1.05,2.67,1.84,3.84c0,0,0.14,0.25,0.33,0.47c0.18,0.23,0.36,0.45,0.36,0.45
						l-0.15,0.2c-1.48-0.71-2.67-2.01-3.62-3.35c-0.96-1.37-1.71-2.85-2.37-4.35c-1.27-2.91-2.19-6.28-2.83-9.33
						c-0.61-3.13-1.08-6.41-1.25-9.58c-0.2-3.21-0.21-6.44,0.2-9.67L114.24,40.58z"/>
				</g>
			</g>
		</g>
	</g>
	<g>
		<g>
			<g>
				<g>
					<path class="st0" d="M151.81,31.32c2.97-1.02,5.97-1.32,8.88-1.54c0.66-0.04,1.32-0.08,2.01-0.11c0.67-0.05,1.17-0.07,1.75-0.2
						c1.16-0.25,2.42-0.76,3.7-1.32l0.53-0.22l0.18,0.17c-0.58,1.55-1.68,2.83-3.16,3.74c-0.36,0.22-0.76,0.41-1.19,0.57
						c-0.22,0.07-0.45,0.14-0.66,0.2c-0.21,0.05-0.41,0.09-0.62,0.13c-0.81,0.15-1.59,0.24-2.33,0.28
						c-1.52,0.06-3.07,0.03-4.57-0.21c-1.51-0.22-3.02-0.56-4.52-1.25L151.81,31.32z"/>
				</g>
			</g>
		</g>
	</g>
	<g>
		<g>
			<g>
				<g>
					<path class="st0" d="M145.74,39.28c4.02-0.92,8.08-1.08,12.01-1.2c0.92-0.03,1.81-0.04,2.62-0.12
						c0.84-0.09,1.75-0.23,2.67-0.37c1.83-0.28,3.71-0.55,5.61-0.72l0.78-0.04l0.08,0.24c-1.69,1.31-3.52,2.25-5.44,3
						c-0.93,0.37-1.93,0.7-3.02,0.93c-1.14,0.24-2.23,0.28-3.21,0.32c-2.03,0.01-4.1-0.08-6.09-0.37c-2.01-0.28-4.02-0.68-6.01-1.42
						L145.74,39.28z"/>
				</g>
			</g>
		</g>
	</g>
	<g>
		<g>
			<g>
				<g>
					<path class="st0" d="M137.83,50.77c2.85,0.08,5.3,0.14,7.64,0.2c2.51,0.05,4.99,0.04,7.33-0.26c2.14-0.3,4.37-0.92,6.58-1.65
						c2.22-0.74,4.44-1.57,6.66-2.45l0.91-0.34l0.14,0.21c-1.75,2.01-3.9,3.58-6.23,4.85c-2.25,1.24-4.96,2.24-7.65,2.6
						c-2.71,0.28-5.46,0.12-8-0.4c-2.58-0.5-5.1-1.28-7.45-2.51L137.83,50.77z"/>
				</g>
			</g>
		</g>
	</g>
	<g>
		<g>
			<g>
				<g>
					<path class="st0" d="M131.52,62.22c2.68,0.88,5.49,1.23,8.25,1.37c2.76,0.14,5.53-0.02,8.26-0.41c2.55-0.35,5.16-0.83,7.7-1.46
						c2.53-0.66,5.06-1.41,7.36-2.64c0,0,0.23-0.12,0.47-0.25c0.23-0.13,0.44-0.27,0.44-0.27l0.19,0.17
						c-0.78,1.27-1.95,2.29-3.16,3.16c-1.23,0.86-2.56,1.59-3.94,2.18c-2.65,1.18-5.77,1.93-8.62,2.32
						c-2.94,0.35-6.08,0.37-8.99-0.26c-2.93-0.61-5.85-1.72-8.07-3.71L131.52,62.22z"/>
				</g>
			</g>
		</g>
	</g>
	<g>
		<g>
			<g>
				<g>
					<path class="st0" d="M125.67,73.09c2.56,0.53,4.87,0.95,7.24,1.37c1.1,0.19,2.22,0.39,3.36,0.62c1.1,0.24,2.2,0.46,3.39,0.61
						l0.48,0.08l0.09,0.23c-1.03,1.07-2.45,1.56-3.84,1.75c-1.31,0.19-2.76,0.13-4.06-0.1c-1.32-0.28-2.68-0.71-3.85-1.43
						c-1.18-0.7-2.31-1.63-2.96-2.94L125.67,73.09z"/>
				</g>
			</g>
		</g>
	</g>
	<g>
		<g>
			<g>
				<g>
					<path class="st0" d="M214.91,78.78c-1.4,1.8-2.82,3.13-4.15,4.51c-0.99,0.99-1.94,1.95-3.93,3.94l-0.33,0.29l-0.24-0.08
						c-0.31-1.21-0.17-2.47,0.28-3.56c0.4-1.07,1.13-2.13,1.94-2.91c0.84-0.78,1.81-1.48,2.87-1.9c1.06-0.43,2.22-0.71,3.47-0.54
						L214.91,78.78z"/>
				</g>
			</g>
		</g>
	</g>
	<g>
		<g>
			<g>
				<g>
					<path class="st0" d="M205.96,76.67c-2.08,2.24-4.29,4.03-6.39,5.86c-1.95,1.71-3.92,3.35-5.79,5.33l-0.42,0.4l-0.23-0.1
						c-0.07-1.63,0.5-3.2,1.29-4.56c0.77-1.33,1.92-2.57,3.04-3.54c1.18-0.97,2.5-1.84,3.89-2.45c1.4-0.63,2.88-1.11,4.5-1.17
						L205.96,76.67z"/>
				</g>
			</g>
		</g>
	</g>
	<g>
		<g>
			<g>
				<g>
					<path class="st0" d="M195.39,73.54c-1.09,2.29-2.61,4.05-4.17,5.7c-1.45,1.55-3.13,2.87-4.7,4.25l-0.34,0.31l-0.24-0.06
						c-0.16-0.65-0.1-1.38,0.06-2.01c0.16-0.64,0.42-1.23,0.71-1.8c0.56-1.08,1.38-2.11,2.18-2.95c0.86-0.82,1.8-1.63,2.84-2.23
						c1.04-0.63,2.16-1.15,3.5-1.4L195.39,73.54z"/>
				</g>
			</g>
		</g>
	</g>
	<g>
		<g>
			<g>
				<g>
					<path class="st0" d="M184.75,71.88c-1.1,2.17-2.61,3.79-4.15,5.31c-0.72,0.69-1.49,1.35-2.26,1.98
						c-0.76,0.63-1.61,1.2-2.27,1.84c0.01-0.01-0.28,0.28-0.29,0.29l-0.25-0.02c-0.26-0.58-0.22-1.36-0.05-1.96
						c0.15-0.64,0.42-1.2,0.71-1.74c0.55-1.05,1.38-1.98,2.18-2.76c0.85-0.76,1.78-1.48,2.81-2.01c1.02-0.55,2.13-0.99,3.43-1.15
						L184.75,71.88z"/>
				</g>
			</g>
		</g>
	</g>
	<g>
		<g>
			<g>
				<g>
					<path class="st0" d="M174.34,71.88c-1.25,2.32-2.83,4.15-4.37,5.94c-0.73,0.82-1.48,1.62-2.22,2.43
						c-0.76,0.8-1.54,1.58-2.29,2.46l-0.35,0.36l-0.24-0.07c-0.32-1.4,0.02-2.81,0.54-4.03c0.48-1.22,1.32-2.36,2.14-3.3
						c0.88-0.94,1.86-1.82,2.96-2.48c1.1-0.68,2.28-1.26,3.68-1.49L174.34,71.88z"/>
				</g>
			</g>
		</g>
	</g>
	<g>
		<g>
			<g>
				<g>
					<path class="st0" d="M161.68,72.68c-1.29,2.01-2.66,3.57-3.87,5.17c-0.57,0.74-1.1,1.48-1.66,2.25c-0.5,0.78-1.1,1.58-1.6,2.51
						l-0.26,0.38l-0.25-0.02c-0.59-1.16-0.69-2.51-0.41-3.75c0.25-1.2,0.88-2.43,1.61-3.37c0.78-0.94,1.71-1.8,2.77-2.37
						c1.05-0.59,2.22-1.03,3.54-1.03L161.68,72.68z"/>
				</g>
			</g>
		</g>
	</g>
	<g>
		<g>
			<g>
				<g>
					<path class="st0" d="M207.56,89.14c0.61,0.67,1.29,1.11,1.91,1.52c0.64,0.41,1.27,0.81,1.97,1.18
						c1.25,0.75,2.65,1.54,4.04,2.77l0.27,0.29l-0.06,0.24c-1.05,0.46-2.07,0.56-3.06,0.45c-0.48-0.04-0.98-0.17-1.47-0.32
						c-0.48-0.19-0.96-0.37-1.39-0.65c-0.86-0.53-1.71-1.29-2.22-2.26c-0.52-0.94-0.82-2.21-0.25-3.23L207.56,89.14z"/>
				</g>
			</g>
		</g>
	</g>
	<g>
		<g>
			<g>
				<g>
					<path class="st0" d="M200.74,96.11c1.98,0.1,3.55,0.69,5.05,1.28c0.69,0.3,1.36,0.62,2.01,0.96c0.66,0.36,1.3,0.75,2.05,1.12
						l0.32,0.19l0.03,0.25c-0.79,0.81-1.9,1.05-2.89,1.06c-0.98,0.03-1.98-0.25-2.81-0.6c-0.84-0.4-1.66-0.89-2.31-1.57
						c-0.67-0.66-1.26-1.43-1.6-2.49L200.74,96.11z"/>
				</g>
			</g>
		</g>
	</g>
</g>
</svg>
