<?xml version="1.0" encoding="utf-8"?>
<!-- Generator: Adobe Illustrator 27.3.1, SVG Export Plug-In . SVG Version: 6.00 Build 0)  -->
<svg version="1.1" id="Layer_1" xmlns="http://www.w3.org/2000/svg" xmlns:xlink="http://www.w3.org/1999/xlink" x="0px" y="0px"
	 viewBox="0 0 220 210" style="enable-background:new 0 0 220 210;" xml:space="preserve">
<style type="text/css">
	.st0{fill:#F9F6E6;}
</style>
<g>
	<g>
		<g>
			<g>
				<path class="st0" d="M119.31,93.14c6.72-1.48,13.63-1.76,20.51-1.32c6.87,0.47,13.73,1.82,20.27,4.18
					c6.56,2.33,12.7,5.73,18.35,9.88c5.57,4.27,10.33,9.77,13.5,16.14c3.17,6.37,4.76,13.49,4.77,20.59
					c-0.01,3.55-0.38,7.11-1.21,10.6c-0.42,1.75-0.95,3.47-1.69,5.18c-0.4,0.85-0.79,1.7-1.38,2.55c-0.54,0.78-1.06,1.46-1.61,2.16
					c-4.41,5.5-9.56,10.31-15.32,14.35c-2.89,2-5.94,3.79-9.14,5.29c-3.21,1.48-6.57,2.67-10.02,3.48
					c-3.22,0.75-6.54,1.16-9.86,1.19c-3.31,0.05-6.69-0.34-9.89-0.96c-6.34-1.22-12.65-2.76-18.84-4.82
					c-6.18-2.07-12.27-4.62-17.93-8.05c-5.63-3.42-10.94-7.75-14.76-13.35c-1.93-2.77-3.43-5.86-4.42-9.1
					c-0.52-1.61-0.85-3.28-1.1-4.91c-0.12-0.82-0.32-1.63-0.36-2.47l-0.2-2.48c-0.1-0.83-0.06-1.66-0.07-2.49
					c0.01-0.83-0.03-1.66,0.03-2.49c0.13-1.65,0.22-3.31,0.51-4.94c0.2-1.64,0.62-3.25,0.98-4.86c0.45-1.59,0.9-3.17,1.5-4.71
					c1.15-3.08,2.58-6.06,4.37-8.83c0.91-1.39,1.85-2.72,3.16-3.95c0.14-0.15,0.4-0.32,0.6-0.47l0.52-0.35
					c0.26-0.15,0.58-0.4,0.88-0.64c0.61-0.47,1.23-0.98,1.85-1.48c4.94-4.05,10.09-8.04,15.98-10.7c0,0,0.15-0.07,0.41-0.19
					c0.25-0.13,0.64-0.27,1.1-0.44c0.46-0.17,1-0.37,1.57-0.58c0.59-0.16,1.22-0.33,1.86-0.5c0.62-0.2,1.29-0.24,1.89-0.35
					c0.61-0.1,1.17-0.18,1.67-0.16c0.98-0.01,1.64-0.02,1.64-0.02l-0.01,0.3c-3.45,0.01-6.74,1.18-9.76,2.7
					c-3.03,1.54-5.84,3.47-8.53,5.54c-2.7,2.08-5.23,4.33-7.81,6.6c-0.65,0.56-1.31,1.13-2.12,1.67c-0.12,0.11-0.25,0.2-0.37,0.3
					c-0.13,0.12-0.27,0.28-0.4,0.42c-0.27,0.27-0.52,0.6-0.77,0.92c-0.99,1.3-1.87,2.73-2.65,4.2c-1.56,2.95-2.77,6.09-3.66,9.31
					c-0.91,3.21-1.43,6.53-1.6,9.85c-0.14,1.66-0.06,3.32-0.02,4.98c0.03,0.83,0.16,1.65,0.23,2.48c0.08,0.82,0.15,1.65,0.34,2.46
					l0.46,2.44c0.17,0.81,0.4,1.58,0.62,2.37c0.5,1.55,1.08,3.07,1.82,4.52c1.38,2.82,3.3,5.41,5.49,7.79
					c2.21,2.36,4.77,4.47,7.51,6.36c5.51,3.76,11.76,6.6,18.21,8.87c6.46,2.26,13.15,3.93,19.81,5.23c0.83,0.15,1.68,0.33,2.49,0.46
					c0.81,0.11,1.61,0.26,2.42,0.35c0.81,0.07,1.62,0.17,2.43,0.21c0.81,0.02,1.62,0.08,2.42,0.07c3.22-0.01,6.41-0.4,9.49-1.11
					c6.32-1.44,12.36-4.32,17.84-8.08c5.47-3.78,10.49-8.4,14.7-13.58c0.51-0.64,1.05-1.33,1.47-1.94c0.4-0.56,0.74-1.28,1.07-1.98
					c0.63-1.45,1.13-3.01,1.53-4.59c0.78-3.19,1.17-6.49,1.21-9.79c0.07-6.6-1.32-13.18-4.09-19.06
					c-2.82-5.98-7.13-11.22-12.31-15.42c-5.28-4.09-11.14-7.58-17.42-10.05c-6.27-2.5-12.92-4.09-19.67-4.84
					c-6.75-0.73-13.63-0.78-20.39,0.35L119.31,93.14z"/>
			</g>
		</g>
	</g>
</g>
<g>
	<g>
		<g>
			<g>
				<path class="st0" d="M120.79,96.82c6.18-1.37,12.53-1.65,18.86-1.24c6.32,0.42,12.63,1.66,18.65,3.82
					c6.04,2.14,11.69,5.26,16.91,9.07c5.14,3.93,9.53,8.99,12.45,14.86c2.93,5.87,4.4,12.43,4.41,18.98
					c-0.01,3.28-0.35,6.55-1.11,9.77c-0.39,1.61-0.88,3.21-1.56,4.78c-0.37,0.79-0.73,1.57-1.28,2.37c-0.5,0.73-0.98,1.35-1.49,2
					c-4.06,5.07-8.8,9.5-14.11,13.22c-5.31,3.69-11.27,6.6-17.66,8.08c-5.92,1.41-12.27,1.45-18.22,0.21
					c-5.83-1.12-11.64-2.53-17.34-4.44c-5.69-1.91-11.29-4.25-16.51-7.42c-5.19-3.16-10.03-7.19-13.6-12.32
					c-0.49-0.6-0.84-1.31-1.23-1.98c-0.38-0.68-0.79-1.35-1.14-2.04l-0.91-2.16l-0.45-1.08c-0.12-0.37-0.21-0.75-0.32-1.13
					l-0.62-2.26c-0.2-0.75-0.27-1.51-0.42-2.27c-0.11-0.76-0.29-1.51-0.33-2.27l-0.18-2.29c-0.09-0.76-0.05-1.53-0.06-2.29
					c0.01-0.76-0.03-1.53,0.03-2.29c0.12-1.52,0.2-3.05,0.48-4.55c0.45-3.01,1.21-5.97,2.29-8.81c1.06-2.84,2.38-5.58,4.04-8.13
					c0.84-1.28,1.71-2.51,2.92-3.65c0.13-0.14,0.38-0.3,0.56-0.44l0.48-0.32c0.23-0.13,0.53-0.37,0.8-0.58
					c0.56-0.43,1.13-0.9,1.7-1.36c4.55-3.71,9.29-7.38,14.72-9.81c0,0,0.14-0.06,0.38-0.17c0.23-0.12,0.59-0.25,1.01-0.4
					c0.42-0.15,0.92-0.34,1.45-0.53c0.55-0.15,1.13-0.3,1.71-0.46c0.57-0.18,1.19-0.22,1.74-0.32c0.56-0.09,1.08-0.16,1.54-0.14
					c0.91-0.01,1.51-0.01,1.51-0.01l-0.01,0.3c-3.17,0.02-6.19,1.1-8.96,2.5c-2.78,1.42-5.36,3.2-7.82,5.11
					c-2.47,1.91-4.79,3.99-7.16,6.08c-0.59,0.52-1.2,1.05-1.95,1.55c-0.11,0.1-0.22,0.18-0.33,0.27c-0.12,0.11-0.24,0.26-0.36,0.38
					c-0.25,0.25-0.47,0.55-0.7,0.84c-0.91,1.19-1.71,2.5-2.42,3.86c-2.82,5.44-4.52,11.49-4.8,17.57c-0.13,1.52-0.05,3.04-0.01,4.56
					c0.03,0.76,0.15,1.51,0.21,2.27c0.08,0.76,0.14,1.51,0.31,2.25l0.43,2.24c0.16,0.74,0.42,1.43,0.62,2.15
					c0.35,1.46,1.06,2.78,1.64,4.15c2.57,5.15,6.91,9.48,11.9,12.94c5.05,3.44,10.8,6.02,16.71,8.1c5.93,2.07,12.06,3.61,18.18,4.8
					c0.76,0.14,1.54,0.32,2.28,0.44c0.74,0.1,1.48,0.24,2.22,0.32c0.74,0.06,1.48,0.15,2.22,0.19c0.74,0.02,1.48,0.07,2.22,0.06
					c2.95-0.01,5.87-0.37,8.68-1.02c5.78-1.32,11.32-3.95,16.35-7.4c5.02-3.46,9.62-7.7,13.48-12.44c0.47-0.58,0.97-1.22,1.34-1.77
					c0.36-0.51,0.67-1.16,0.97-1.8c0.58-1.32,1.04-2.74,1.4-4.19c0.71-2.91,1.07-5.94,1.11-8.96c0.07-6.04-1.2-12.07-3.73-17.46
					c-2.58-5.48-6.52-10.29-11.27-14.14c-4.84-3.75-10.21-6.96-15.97-9.25c-5.75-2.31-11.86-3.77-18.06-4.48
					c-6.2-0.68-12.52-0.74-18.74,0.27L120.79,96.82z"/>
			</g>
		</g>
	</g>
</g>
<g>
	<g>
		<g>
			<g>
				<path class="st0" d="M124.35,105.69c4.88-1.09,9.89-1.31,14.88-1c4.99,0.33,9.97,1.3,14.72,3c4.75,1.71,9.26,4.1,13.32,7.19
					c4.06,3.09,7.53,7.08,9.84,11.72c2.33,4.62,3.54,9.81,3.5,14.98c0.03,2.59-0.26,5.18-0.87,7.72l-0.23,0.96l-0.3,0.95l-0.31,0.95
					l-0.4,0.94c-0.23,0.62-0.62,1.26-1,1.88c-0.39,0.56-0.77,1.07-1.17,1.58c-3.21,4.01-6.95,7.51-11.15,10.43
					c-2.08,1.49-4.34,2.73-6.64,3.86c-1.2,0.48-2.36,1.04-3.59,1.44l-1.85,0.58c-0.31,0.09-0.61,0.2-0.93,0.28l-0.95,0.2
					c-1.18,0.23-2.35,0.55-3.57,0.63c-1.21,0.11-2.41,0.3-3.62,0.24c-2.42,0.07-4.88-0.28-7.21-0.68c-4.6-0.89-9.19-2-13.68-3.5
					c-4.49-1.51-8.91-3.36-13.03-5.86c-4.1-2.5-7.93-5.68-10.74-9.75c-0.39-0.48-0.66-1.04-0.97-1.57c-0.3-0.54-0.63-1.06-0.9-1.62
					l-0.72-1.71l-0.36-0.86l-0.25-0.89l-0.49-1.78c-0.16-0.59-0.22-1.19-0.33-1.79c-0.24-1.19-0.31-2.4-0.41-3.61
					c-0.12-2.41-0.04-4.84,0.36-7.22c0.36-2.38,0.96-4.72,1.81-6.96c0.84-2.24,1.89-4.4,3.2-6.42c0.67-1.01,1.35-1.98,2.32-2.88
					c0.23-0.21,0.71-0.53,0.83-0.6c0.18-0.1,0.41-0.29,0.63-0.45c0.44-0.34,0.89-0.71,1.34-1.07c3.59-2.92,7.34-5.81,11.62-7.73
					c0,0,0.11-0.05,0.3-0.13c0.19-0.09,0.46-0.2,0.8-0.32c0.33-0.12,0.72-0.26,1.14-0.42c0.43-0.12,0.89-0.24,1.35-0.36
					c0.45-0.14,0.94-0.17,1.38-0.25c0.44-0.07,0.85-0.13,1.22-0.11c0.72-0.01,1.19-0.01,1.19-0.01l-0.01,0.25
					c-2.5,0.02-4.88,0.88-7.06,1.99c-2.19,1.12-4.22,2.53-6.16,4.04c-1.95,1.51-3.77,3.15-5.64,4.8c-0.47,0.41-0.94,0.83-1.55,1.23
					c-0.08,0.07-0.17,0.14-0.26,0.21c-0.09,0.09-0.19,0.2-0.28,0.3c-0.19,0.19-0.37,0.43-0.55,0.66c-0.71,0.93-1.34,1.97-1.9,3.04
					c-2.22,4.28-3.55,9.05-3.77,13.84c-0.1,1.2-0.04,2.4-0.01,3.59c0.02,0.6,0.12,1.19,0.17,1.79c0.06,0.59,0.11,1.19,0.25,1.77
					l0.34,1.76c0.12,0.58,0.33,1.13,0.49,1.69c0.27,1.14,0.83,2.19,1.29,3.26c2.02,4.05,5.44,7.45,9.37,10.17
					c3.98,2.7,8.5,4.74,13.16,6.38c4.67,1.63,9.5,2.84,14.33,3.78c0.6,0.11,1.21,0.25,1.8,0.34l1.75,0.21
					c0.58,0.06,1.16,0.17,1.74,0.19l1.74,0.01c0.58-0.01,1.16,0.05,1.73-0.02l1.72-0.18c1.15-0.06,2.26-0.36,3.37-0.58l0.86-0.18
					c0.28-0.07,0.56-0.17,0.84-0.25l1.68-0.52c1.12-0.35,2.19-0.87,3.29-1.3c1.05-0.54,2.13-1.04,3.16-1.64
					c1.02-0.62,2.07-1.2,3.04-1.92c3.96-2.71,7.58-6.05,10.62-9.78c0.37-0.46,0.76-0.95,1.06-1.4l0.4-0.66
					c0.14-0.22,0.23-0.5,0.35-0.75c0.25-0.5,0.44-1.04,0.61-1.6c0.2-0.54,0.35-1.11,0.49-1.69c0.56-2.28,0.88-4.67,0.87-7.04
					c0.1-4.76-0.94-9.49-2.94-13.73c-2.03-4.31-5.12-8.09-8.86-11.12c-3.74-3.04-8.02-5.52-12.54-7.34
					c-4.53-1.82-9.34-2.98-14.23-3.55c-4.89-0.55-9.87-0.6-14.78,0.19L124.35,105.69z"/>
			</g>
		</g>
	</g>
</g>
<g>
	<g>
		<g>
			<g>
				<path class="st0" d="M83.38,123.01c-1.17,5.77-2.2,11.59-2.93,17.41c-0.35,2.9-0.66,5.82-0.7,8.66c0,0.71,0.03,1.4,0.03,2.1
					c0.05,0.67,0.12,1.34,0.2,1.98c0.16,0.58,0.22,1.12,0.48,1.75c0.24,0.62,0.51,1.26,0.81,1.9c2.44,5.16,5.48,10.27,8.56,15.23
					c1.55,2.48,3.15,4.94,4.81,7.31c0.83,1.18,1.68,2.34,2.54,3.43c0.43,0.54,0.87,1.06,1.28,1.5l0.3,0.31l0.24,0.22
					c0.06,0.05,0.06,0.04,0.1,0.05c1.45,0.53,2.66,1.22,3.82,1.85c1.16,0.65,2.27,1.31,3.38,1.97c2.19,1.31,4.39,2.7,6.43,3.85
					c0.22,0.11,0.52,0.29,0.67,0.35c0.16,0.08,0.39,0.16,0.61,0.25c0.52,0.19,1.1,0.38,1.68,0.56c1.17,0.37,2.36,0.73,3.56,1.08
					c2.39,0.7,4.81,1.36,7.2,1.96c1.48,0.37,2.98,0.73,4.35,0.97c0.36,0.07,0.64,0.1,0.92,0.14c0.08,0.01,0.15,0.02,0.12,0.01l0,0
					l0,0l0.01,0.16c0.03,0.45,0.07,0.9,0.14,1.34l0.03,0.17c0.18,1.62-0.21-2.01-0.16-1.65l0.04,0l0.07-0.01l0.29-0.03l2.42-0.24
					c3.29-0.27,6.67-0.35,10.13,0.09c0.43,0.06,0.87,0.11,1.3,0.19l0.65,0.11l0.35,0.03l0.33,0.04c0.13,0.01,0.3-0.01,0.46-0.01
					c0.32-0.02,0.6,0.01,0.96-0.04c1.37-0.13,2.84-0.38,4.31-0.7c2.95-0.63,5.95-1.48,8.9-2.41c2.93-0.94,5.92-2.01,8.54-3.23
					l0.86-0.45c0.15-0.13,0.28-0.12,0.54-0.39c0.22-0.19,0.48-0.45,0.75-0.72c0.26-0.26,0.53-0.53,0.8-0.81
					c1.07-1.11,2.14-2.28,3.2-3.44c2.12-2.34,4.21-4.71,6.27-7.1c1.03-1.19,2.04-2.39,3.04-3.6c0.48-0.6,0.99-1.21,1.44-1.8
					c0.23-0.3,0.47-0.6,0.65-0.87c0.24-0.34,0.3-0.42,0.37-0.58c0.02-0.06,0.08-0.24,0.12-0.44l0.15-0.57l0.29-1.15l0.58-2.32
					c0.38-1.55,0.76-3.1,1.14-4.64c0.74-3.09,1.48-6.18,2.22-9.25c0,0,0.37-1.54,0.74-3.08c0.17-0.77,0.35-1.54,0.46-2.11
					c0.12-0.59,0.14-0.89,0.15-0.9l0.5-0.01c0,2.12-0.26,4.25-0.46,6.37c-0.22,2.12-0.46,4.23-0.72,6.35
					c-0.28,2.11-0.56,4.22-0.83,6.33l-0.46,3.16l-0.24,1.58l-0.13,0.8c-0.05,0.28-0.08,0.49-0.17,0.91
					c-0.13,0.36-0.29,0.76-0.44,1.07l-0.45,0.78l-0.89,1.39c-0.6,0.9-1.22,1.78-1.83,2.65c-1.24,1.74-2.51,3.45-3.8,5.14
					c-2.61,3.39-5.17,6.69-8.12,10c-0.17,0.2-0.37,0.41-0.6,0.63c-0.22,0.22-0.42,0.44-0.76,0.68c-0.67,0.53-1.15,0.77-1.68,1.09
					c-1.02,0.56-2,1.03-3,1.49c-1.99,0.89-4.01,1.69-6.05,2.45c-4.12,1.47-8.3,2.81-12.87,3.64c-1.16,0.19-2.36,0.35-3.7,0.38
					c-0.3,0.03-0.74-0.03-1.11-0.05l-0.58-0.05l-0.29-0.03l-0.18-0.03c-0.47-0.08-0.94-0.14-1.42-0.19
					c-1.92-0.21-3.91-0.23-5.91-0.15c-1,0.04-2,0.12-3.01,0.21l-1.51,0.15l-0.77,0.09l-0.2,0.02c-0.07,0.01-0.11,0.02-0.26,0.02
					c-0.26,0.01-0.52,0.01-0.78,0.01c-0.3,0-0.42-0.03-0.6-0.04l-0.5-0.06c-0.35-0.04-0.6-0.09-0.9-0.14
					c-0.59-0.09-1.11-0.21-1.66-0.32c-1.07-0.23-2.1-0.48-3.11-0.73c-2.49-0.64-4.94-1.34-7.4-2.08c-1.23-0.37-2.46-0.76-3.71-1.17
					c-0.62-0.21-1.25-0.42-1.91-0.67c-0.72-0.26-1.6-0.7-2.17-1.03c-2.38-1.38-4.45-2.76-6.6-4.11c-1.06-0.67-2.13-1.34-3.17-1.95
					c-1.06-0.62-2.06-1.2-3-1.58l-0.28-0.12c-0.08-0.08-0.18-0.1-0.27-0.15c-0.18-0.1-0.38-0.16-0.53-0.3
					c-0.33-0.24-0.69-0.5-0.88-0.7c-0.46-0.42-0.77-0.79-1.11-1.17c-0.65-0.75-1.18-1.48-1.72-2.21c-1.05-1.46-2-2.92-2.93-4.39
					c-1.84-2.94-3.53-5.91-5.13-8.89c-2.03-3.78-3.96-7.6-5.67-11.59c-0.43-1-0.83-2.01-1.21-3.06c-0.36-1.06-0.77-2.1-0.92-3.39
					c-0.33-2.45-0.14-4.64,0.14-6.8c0.55-4.32,1.54-8.48,2.65-12.59c1.12-4.11,2.39-8.17,3.82-12.17L83.38,123.01z"/>
			</g>
		</g>
	</g>
</g>
<g>
	<g>
		<g>
			<g>
				<path class="st0" d="M192.86,155.25c2.82-2.77,5.3-5.97,7.53-9.24c0.54-0.84,1.12-1.64,1.62-2.5l1.51-2.56
					c0.47-0.87,0.91-1.76,1.37-2.64c0.22-0.44,0.46-0.87,0.67-1.32l0.59-1.36c1.68-3.57,2.8-7.36,3.8-11.13
					c0.22-0.95,0.37-1.92,0.55-2.88c0.15-0.96,0.42-1.91,0.49-2.88l0.28-2.91l0.15-1.45c0.06-0.48,0.02-0.97,0.03-1.46
					c0.2-7.73-0.89-15.66-3.6-22.74c-1.36-3.53-3.19-6.83-5.48-9.74c-2.29-2.9-5.05-5.4-8.17-7.4c-2.89-1.89-6.09-3.39-9.47-4.58
					c-3.38-1.19-6.92-2.08-10.59-2.86c-0.91-0.19-1.87-0.41-2.76-0.57c-0.83-0.1-1.61-0.29-2.47-0.34c-0.87-0.03-1.71-0.12-2.6-0.1
					c-0.89,0.03-1.77,0.03-2.67,0.08c-3.59,0.22-7.24,0.86-10.86,1.65c-3.62,0.81-7.23,1.81-10.77,2.98
					c-1.77,0.59-3.53,1.21-5.22,1.91c-0.87,0.33-1.68,0.71-2.5,1.08c-0.79,0.38-1.58,0.8-2.1,1.15c-2.82,2.26-5.62,4.88-8.25,7.5
					c-2.62,2.65-5.17,5.39-7.28,8.39c0,0-0.21,0.3-0.53,0.76c-0.33,0.45-0.67,1.09-1.06,1.72c-0.29,0.65-0.69,1.3-0.82,1.81
					c-0.17,0.51-0.29,0.85-0.29,0.85l-0.49-0.09c0.21-2.02,1.05-3.96,1.99-5.78c0.95-1.82,2.04-3.58,3.23-5.26
					c2.36-3.38,4.99-6.54,7.78-9.56c0.7-0.76,1.41-1.5,2.14-2.24c0.38-0.37,0.71-0.73,1.17-1.11c0.49-0.4,1.01-0.8,1.46-1.06
					c1.87-1.19,3.73-2.1,5.63-2.98c3.79-1.73,7.67-3.19,11.64-4.43c3.83-1.2,7.85-2.22,12.07-2.85c1.07-0.13,2.13-0.28,3.21-0.38
					c1.1-0.06,2.18-0.16,3.3-0.16l1.69,0.04c0.56,0.01,1.12,0.01,1.71,0.11c1.14,0.14,2.38,0.28,3.33,0.48
					c4.08,0.75,8.29,1.63,12.37,2.98c4.07,1.35,8.04,3.11,11.58,5.45c3.63,2.37,6.93,5.4,9.62,8.91c2.69,3.51,4.76,7.47,6.22,11.57
					c2.88,8.23,3.66,16.82,2.98,25.13c-0.04,0.53-0.04,1.06-0.12,1.58l-0.25,1.57l-0.5,3.12c-0.14,1.04-0.49,2.05-0.72,3.07
					c-0.27,1.02-0.51,2.04-0.81,3.05c-1.35,3.97-2.87,7.89-4.98,11.48c-0.49,0.91-1,1.82-1.58,2.68c-0.57,0.87-1.12,1.75-1.7,2.6
					c-1.23,1.67-2.44,3.33-3.81,4.88c-2.69,3.1-5.62,6.01-8.92,8.4L192.86,155.25z"/>
			</g>
		</g>
	</g>
</g>
<g>
	<g>
		<g>
			<g>
				<path class="st0" d="M164.47,61.97c-6.48-5.34-13.47-10.18-20.86-13.42c-1.85-0.79-3.72-1.49-5.6-1.99
					c-0.94-0.23-1.88-0.52-2.82-0.63l-1.41-0.23c-0.46-0.09-0.99-0.09-1.48-0.15c-3.99-0.35-8.04-0.28-12.06,0.11
					c-3.74,0.35-7.51,0.97-11.25,1.84c-3.72,0.87-7.47,1.95-10.96,3.32c-1.73,0.7-3.51,1.52-5.08,2.39
					c-0.78,0.44-1.52,0.92-2.08,1.38c-0.27,0.22-0.48,0.46-0.57,0.55c-0.04,0.02,0.01,0.04-0.08,0.02
					c-0.09-0.03-0.18-0.06-0.28-0.07l-0.04-0.01c0.68,0.13,0.18,0.07,0.32,0.12l-0.02,0.06c-0.02,0.09-0.05,0.17-0.08,0.25
					c-0.03,0.08-0.07,0.17-0.11,0.25l-0.06,0.12l-0.03,0.05c-0.43,0.65-0.64,0.75-0.9,1c-0.94,0.77-1.76,1.29-2.62,1.85l-2.52,1.61
					c-1.66,1.06-3.32,2.1-4.84,3.25c0,0-0.63,0.45-1.2,0.94c-0.58,0.49-0.99,1.04-0.99,1.04l-0.45-0.22c0.34-1.01,1-1.92,1.66-2.78
					c0.67-0.86,1.4-1.67,2.15-2.46c1.49-1.57,3.08-3.04,4.6-4.49c0.38-0.36,0.75-0.72,1.09-1.07c0.17-0.18,0.33-0.35,0.46-0.51
					c0.04-0.06,0.13-0.16,0.13-0.19l0.01-0.03c0.02,0.01-0.03-0.04,0.04,0.02c0.07,0.07,0.15,0.13,0.23,0.19
					c0.31,0.23,0.71,0.44,0.87,0.53c0.06,0.02,0.12,0.04,0.18,0.05l0.05,0.01c0.36,0.07-3-0.61-1.58-0.32l0-0.01l0.01-0.05
					l0.04-0.19c0.03-0.13,0.06-0.26,0.1-0.36c0.07-0.24,0.16-0.44,0.26-0.63c0.19-0.39,0.4-0.7,0.61-1
					c0.43-0.58,0.88-1.03,1.33-1.47c1.82-1.65,3.72-2.83,5.65-3.94c1.88-1.09,3.92-2.03,5.97-2.85c2.06-0.83,4.19-1.56,6.35-2.17
					c4.31-1.25,8.74-2.1,13.01-2.49c4.37-0.37,8.89-0.34,13.37,0.28c1.1,0.11,2.27,0.38,3.42,0.64c1.17,0.22,2.24,0.63,3.34,0.99
					c2.17,0.76,4.2,1.74,6.12,2.83c3.89,2.2,7.4,4.88,10.56,7.86c3.14,3,6.01,6.27,8.4,9.84L164.47,61.97z"/>
			</g>
		</g>
	</g>
</g>
<g>
	<g>
		<g>
			<g>
				<path class="st0" d="M110.3,95.47c-0.98-2.46-2.13-4.9-3.45-7.18c-1.32-2.28-2.83-4.49-4.68-6.09
					c-0.22-0.22-0.47-0.37-0.71-0.54c-0.24-0.16-0.47-0.36-0.72-0.45l-0.76-0.37l-0.99-0.42c-1.29-0.58-2.52-1.2-3.74-1.85
					c-2.42-1.3-4.78-2.66-7.13-4.05l-6.97-4.19c-1.15-0.69-2.32-1.39-3.43-2l-0.41-0.22l-0.33-0.15c-0.22-0.1-0.44-0.17-0.71-0.25
					c-0.51-0.15-1.08-0.26-1.68-0.35c-2.42-0.34-5.05-0.34-7.72-0.29c-2.89,0-5.52-0.12-8.23-0.17c-2.68-0.05-5.37-0.09-7.93,0.04
					c-1.26,0.07-2.57,0.17-3.37,0.43c-1.16,0.35-2.38,0.8-3.59,1.27c-2.41,0.96-4.81,2.05-7.06,3.26c-1.12,0.6-2.21,1.25-3.14,1.92
					l-1.62,1.22l-1.71,1.2c-2.22,1.54-4.34,3.06-6.38,4.68c-2.01,1.64-3.97,3.33-5.73,5.17c-3.57,3.63-6.44,7.79-8.09,12.26
					l-0.45,1.59c-0.13,0.53-0.36,1.05-0.4,1.6l-0.24,1.62c-0.04,0.27-0.09,0.53-0.12,0.82l-0.06,0.91
					c-0.08,1.21-0.16,2.41-0.17,3.63l-0.04,1.83l0.02,1.84c0.07,4.9,0.47,9.83,1.18,14.73c0.74,4.87,1.72,9.78,3.23,14.34
					c0.37,1.14,0.8,2.24,1.26,3.28c0.25,0.47,0.47,1.04,0.73,1.43c0.25,0.41,0.49,0.83,0.85,1.24c1.35,1.68,3.19,3.34,5.07,4.88
					c1.9,1.55,3.9,3.02,5.94,4.41c2.04,1.38,4.17,2.73,6.26,3.8c0.52,0.27,1.04,0.5,1.47,0.68c0.21,0.06,0.25,0.11,0.71,0.23
					l0.55,0.15l0.49,0.16c1.3,0.43,2.5,0.89,3.7,1.35c2.37,0.94,4.74,1.88,7.11,2.82c1.17,0.46,2.35,0.93,3.51,1.36
					c0.58,0.22,1.16,0.42,1.73,0.62c0.54,0.19,1.19,0.39,1.52,0.45c0.16,0.09,0.95,0.02,1.51,0l1.86-0.12
					c1.25-0.09,2.5-0.2,3.74-0.32c4.99-0.49,9.97-1.15,14.84-2.13c0,0,1.97-0.38,3.91-0.88c1.94-0.5,3.8-1.21,3.8-1.21l0.21,0.45
					c-2.4,1.26-4.98,2.2-7.58,3.01c-2.6,0.81-5.25,1.49-7.9,2.11c-2.66,0.61-5.33,1.15-8.03,1.61c-1.35,0.23-2.69,0.45-4.06,0.63
					c-0.7,0.09-1.34,0.18-2.15,0.23c-0.24-0.01-0.51-0.03-0.76-0.06c-0.24-0.03-0.39-0.07-0.59-0.11c-0.39-0.07-0.73-0.16-1.07-0.25
					c-2.73-0.72-5.29-1.58-7.88-2.42c-2.57-0.84-5.15-1.72-7.67-2.48c-0.62-0.19-1.27-0.37-1.8-0.49l-0.46-0.11l-0.68-0.18
					c-0.45-0.13-0.76-0.27-1.14-0.41c-1.39-0.58-2.66-1.2-3.89-1.87c-2.47-1.33-4.84-2.78-7.15-4.34c-2.23-1.51-4.44-3.12-6.58-5.01
					c-1.06-0.97-2.13-1.93-3.13-3.17l-0.38-0.45l-0.35-0.52l-0.69-1.05c-0.35-0.68-0.74-1.36-1.06-2.04
					c-1.26-2.71-2.13-5.43-2.9-8.18c-0.77-2.75-1.38-5.52-1.89-8.31c-1-5.58-1.65-11.2-1.8-16.81c-0.02-1.4-0.08-2.8-0.03-4.2
					l0.04-2.09c0.04-0.7,0.08-1.39,0.12-2.09c0.03-1.34,0.29-2.88,0.51-4.35c0.08-0.75,0.32-1.45,0.51-2.17
					c0.2-0.71,0.4-1.42,0.61-2.12c2.09-5.62,5.6-10.49,9.66-14.54c2.02-2.05,4.2-3.89,6.42-5.65c2.23-1.73,4.56-3.34,6.84-4.85
					l1.64-1.11l1.68-1.21c1.3-0.88,2.57-1.58,3.86-2.24c2.57-1.29,5.16-2.38,7.81-3.34c1.33-0.48,2.67-0.92,4.12-1.3
					c1.82-0.43,3.21-0.43,4.65-0.47c2.83-0.03,5.54,0.12,8.23,0.28c2.71,0.16,5.48,0.4,8.03,0.52c2.73,0.08,5.54,0.19,8.44,0.75
					c0.73,0.15,1.47,0.33,2.23,0.59c0.38,0.13,0.77,0.29,1.16,0.48c0.38,0.2,0.76,0.41,1.04,0.59c1.23,0.76,2.34,1.52,3.47,2.3
					l6.68,4.63c2.22,1.53,4.45,3.05,6.71,4.5c1.13,0.72,2.27,1.42,3.42,2.06l0.86,0.45c0.29,0.16,0.65,0.38,0.97,0.57
					c0.34,0.18,0.62,0.43,0.9,0.67c0.28,0.24,0.58,0.46,0.81,0.74c2.01,2.08,3.34,4.53,4.47,7.02c1.13,2.49,2.03,5.07,2.74,7.68
					L110.3,95.47z"/>
			</g>
		</g>
	</g>
</g>
<g>
	<g>
		<g>
			<g>
				<path class="st0" d="M43.66,65.39c-0.88-6.71-1.41-13.46-1.65-20.23c-0.11-3.39-0.16-6.78-0.11-10.19
					c0.03-1.7,0.09-3.42,0.18-5.14l0.09-1.31l0.05-0.65l0.01-0.16c0.01-0.06,0.01-0.12,0-0.06l0-0.01l0,0l0-0.08l-0.04-2.52
					l-0.08-4.89l4.56,1.98c1.82,0.79,3.55,1.6,5.3,2.47c1.64,0.84,3.27,1.71,4.92,2.75c0.84,0.56,1.65,1.06,2.57,1.87
					c0.21,0.16,0.48,0.44,0.73,0.71l0.34,0.37l0.17,0.2c0.22,0.27,0.48,0.56,0.76,0.84c2.27,2.31,5.08,4.59,7.82,6.82l2.09,1.67
					c0.35,0.27,0.78,0.65,1.16,0.97c0.37,0.34,0.71,0.68,1.07,1.01c1.36,1.36,2.57,2.76,3.74,4.18c2.33,2.84,4.46,5.78,6.47,8.77
					l1.55,2.47L85,57.57c-3.01-2.49-5.93-5.01-8.83-7.5c-1.45-1.24-2.89-2.48-4.34-3.64c-0.73-0.58-1.45-1.13-2.17-1.64
					c-0.36-0.25-0.69-0.45-1.06-0.69l-1.24-0.77c-3.2-2-6.48-4.19-9.65-6.97c-0.4-0.36-0.79-0.72-1.19-1.13
					c-0.2-0.2-0.4-0.4-0.6-0.63c-0.09-0.09-0.23-0.26-0.27-0.29c-0.04-0.03-0.07-0.06-0.1-0.09c-0.34-0.3-1.07-0.83-1.8-1.26
					c-1.47-0.91-3.12-1.77-4.71-2.57c-1.6-0.83-3.28-1.66-4.94-2.44l4.46-2.9l-0.04,2.17l-0.01,0.65c0,0.09-0.01,0.18-0.02,0.27
					l-0.02,0.22l-0.03,0.26l-0.12,1.04c-0.16,1.39-0.3,2.82-0.43,4.24c-0.27,2.86-0.54,5.72-0.81,8.55
					c-0.72,7.62-1.53,15.28-2.91,22.95L43.66,65.39z"/>
			</g>
		</g>
	</g>
</g>
<g>
	<g>
		<g>
			<g>
				<path class="st0" d="M112.84,43.51c-3.12-6.44-5.92-13.03-8.56-19.65c-0.65-1.66-1.3-3.31-1.95-4.96l-0.97-2.47l-0.49-1.22
					l-0.24-0.61c-0.06-0.15-0.04-0.07-0.06-0.1c-0.08-0.05-0.1-0.08-0.14,0c-0.01,0.03-0.02,0.05-0.01,0.07c0,0.01,0,0.02,0,0.02
					l-0.65,0.91c-3.66,5.19-7.22,10.88-10.73,16.47c-0.86,1.4-1.74,2.82-2.51,4.18c-0.74,1.3-1.34,2.71-1.91,4.23
					c-1.13,3.02-2.07,6.2-2.99,9.37c0,0-0.2,0.64-0.39,1.28c-0.19,0.64-0.37,1.28-0.37,1.28l-0.5-0.06
					c-0.26-3.62-0.19-7.25,0.23-10.89c0.22-1.82,0.53-3.65,1.07-5.52c0.57-1.93,1.33-3.57,2.07-5.24
					c2.91-6.39,6.66-13.06,10.77-18.9l0.91-1.22c0.54-0.69,1.09-1.39,1.67-2.02c1.14-1.31,2.4-2.25,3.55-2.46
					c0.29-0.05,0.57-0.09,0.88-0.08c0.29,0.01,0.69,0.08,0.96,0.17l0.71,0.37l0.18,0.09c0.06,0.04,0.11,0.12,0.16,0.19l0.32,0.4
					c0.21,0.27,0.42,0.55,0.63,0.84c0.1,0.15,0.21,0.28,0.3,0.44l0.24,0.6l0.95,2.39l0.23,0.6l0.18,0.52l0.21,0.65l0.41,1.3
					l0.78,2.59c0.5,1.73,0.97,3.45,1.4,5.16c1.79,6.93,3.3,13.93,4.17,21.13L112.84,43.51z"/>
			</g>
		</g>
	</g>
</g>
<g>
	<g>
		<g>
			<g>
				<path class="st0" d="M59.53,75.71c-0.95-0.04-1.86,0.45-2.34,1.13c-0.48,0.68-0.57,1.6-0.62,2.62c-0.03,1.05-0.06,2.08-0.1,3.11
					c-0.06,1.05-0.05,2.06,0.18,2.69c0.37,1.18,2.25,2.09,4.05,2.74c1.79,0.62,3.67,0.89,5.27,0.48c0.74-0.17,1.48-0.5,1.98-0.91
					c0.51-0.41,0.77-0.85,1-1.65c0.23-0.77,0.33-1.79,0.47-2.71c0.12-0.9,0.35-2,0.3-2.63c-0.02-0.34-0.06-0.49-0.19-0.7
					c-0.14-0.21-0.42-0.47-0.78-0.72c-0.76-0.53-1.57-1.04-2.4-1.49c-1.66-0.91-3.44-1.65-5.29-2.2c0,0-0.37-0.12-0.75-0.23
					c-0.38-0.1-0.76-0.2-0.76-0.2l0.03-0.25c2.13-0.12,4.31,0.14,6.41,0.74c1.05,0.3,2.08,0.69,3.09,1.15
					c0.5,0.24,0.98,0.46,1.53,0.82c0.53,0.35,1.14,0.89,1.48,1.66c0.32,0.72,0.39,1.43,0.4,2.03c0.02,0.61-0.05,1.11-0.08,1.67
					l-0.13,1.66c-0.04,0.56-0.08,1.1-0.21,1.7c-0.11,0.6-0.28,1.24-0.59,1.89c-0.3,0.66-0.79,1.29-1.31,1.76
					c-1.07,0.96-2.27,1.46-3.46,1.75c-2.49,0.57-4.97,0.07-7.11-0.78c-1.08-0.46-2.08-0.94-3.09-1.67c-0.98-0.7-2.01-1.8-2.33-3.22
					c-0.16-0.69-0.16-1.34-0.12-1.92c0.04-0.59,0.13-1.11,0.23-1.64c0.19-1.06,0.39-2.12,0.6-3.17c0.25-1.03,0.58-2.26,1.51-3.1
					c0.9-0.81,2.17-1.03,3.17-0.68L59.53,75.71z"/>
			</g>
		</g>
	</g>
</g>
<g>
	<g>
		<g>
			<g>
				<path class="st0" d="M77.67,74.84c-0.23,0.55-0.19,1.14-0.01,1.66c0.18,0.53,0.5,0.97,0.91,1.39c0.8,0.8,1.96,1.64,2.96,2.45
					c1.02,0.8,2.05,1.52,3.09,2.02c0.51,0.25,1.06,0.46,1.55,0.58c0.02-0.01,0.02-0.02,0.01-0.03l0,0l0,0l0,0l0,0l-0.02-0.11
					c-0.13-0.62-0.25-1.23-0.38-1.85c-0.26-1.21-0.44-2.6-0.69-3.55c-0.14-0.49-0.3-0.85-0.58-1.22c-0.28-0.36-0.67-0.7-1.12-0.98
					c-0.9-0.57-2.07-0.9-3.28-1.17l-0.99-0.24l0.01-0.25c1.35-0.31,2.74-0.55,4.24-0.3c0.75,0.13,1.5,0.39,2.2,0.82
					c0.7,0.42,1.35,1.08,1.77,1.84c0.42,0.71,0.66,1.46,0.86,2.13c0.19,0.66,0.38,1.32,0.56,1.98c0.17,0.67,0.35,1.33,0.52,1.98
					l0.18,0.76c0.07,0.33,0.11,0.65,0.09,0.96c-0.02,0.61-0.27,1.18-0.66,1.62c-0.82,0.91-2.25,1.08-3.53,0.7
					c-0.81-0.24-1.51-0.57-2.19-0.96c-1.34-0.79-2.43-1.79-3.36-2.81c-0.48-0.52-0.92-1.04-1.35-1.57
					c-0.43-0.53-0.89-1.12-1.25-1.79c-0.36-0.66-0.62-1.46-0.58-2.23c0.01-0.76,0.32-1.53,0.85-1.97L77.67,74.84z"/>
			</g>
		</g>
	</g>
</g>
<g>
	<g>
		<g>
			<g>
				<path class="st0" d="M78.65,90.86c-0.96,0.26-1.91,0.51-2.74,0.9c-0.82,0.39-1.51,0.95-2.03,1.61
					c-0.52,0.66-0.84,1.44-0.93,2.19c-0.08,0.75,0.07,1.53,0.41,2.16c0.34,0.64,0.82,1.07,1.47,1.35c0.64,0.29,1.44,0.4,2.25,0.39
					c1.65-0.02,3.53-0.65,5.7-0.9c1.01-0.11,2.05-0.15,3.13-0.04c0.47,0.04,1.31,0.2,1.16,0.19l0.05,0.04
					c0.04,0.04,0.05,0,0.07-0.03c0.01-0.02,0.02-0.04,0.02-0.08c-0.06-0.27-0.14-0.56-0.23-0.83c-0.38-1.11-1.02-2.14-1.88-3.02
					c-1.7-1.77-4.21-2.89-6.83-2.95c0,0-0.36,0-0.72,0c-0.36,0.03-0.72,0.06-0.72,0.06l-0.07-0.24c3.68-1.77,8.77-0.56,11.59,3.03
					c0.73,0.91,1.31,1.97,1.67,3.17c0.61,1.9,0.26,3.87,0.13,5.5c-0.97-0.45-2.04-0.99-2.96-1.33l-0.65-0.16
					c-0.13-0.04-0.18-0.04-0.22-0.05l-0.15-0.02c-0.19-0.03-0.39-0.05-0.59-0.06c-0.8-0.06-1.62-0.02-2.44,0.07
					c-1.75,0.15-3.73,0.78-6.09,0.73c-1.17-0.04-2.39-0.28-3.52-0.9c-1.13-0.6-2.09-1.68-2.51-2.85c-0.46-1.18-0.52-2.45-0.21-3.62
					c0.31-1.18,0.99-2.18,1.84-2.93c0.85-0.74,1.87-1.24,2.91-1.45c1.04-0.21,2.05-0.19,3.06-0.16L78.65,90.86z"/>
			</g>
		</g>
	</g>
</g>
<g>
	<g>
		<g>
			<g>
				<path class="st0" d="M193.89,81.04c-1.83-2.34-5.03-2.11-7.66-1.89c-0.15,0.03-0.17,0.2-0.13,0.28c-0.01,0.4,0.12,1,0.34,1.57
					c0.48,1.22,1.17,2.46,2,3.4c0.77,0.9,1.68,1.59,2.72,1.98c0.52,0.19,1.06,0.31,1.59,0.33c0.07,0,0.13,0.01,0.2,0
					c0.07,0,0.14,0,0.14,0l0.06,0.02c0.05,0.02,0.11,0,0.13-0.04c0.02-0.02,0.03-0.04,0.05-0.07c0,0.01,0.02-0.07,0.04-0.14
					l0.03-0.21c0.04-0.28,0.06-0.57,0.05-0.87c-0.01-0.6-0.1-1.22-0.26-1.84c-0.32-1.24-0.93-2.5-1.59-3.75l-0.52-1.03l0.2-0.15
					c1.19,1,2.35,2.07,3.25,3.45c0.89,1.39,1.53,3.03,1.38,4.99c-0.1,0.64-0.18,1.35-0.64,1.82c-0.23,0.24-0.51,0.39-0.85,0.48
					c-0.31,0.13-0.68,0.17-1.02,0.24c-1,0.14-1.95,0.07-2.88-0.16c-1.85-0.46-3.46-1.63-4.56-2.93c-1.13-1.37-1.9-2.88-2.43-4.54
					c-0.25-0.87-0.44-1.8-0.28-2.93c0.1-0.71,0.36-1.37,0.84-1.83c0.48-0.47,1.15-0.65,1.82-0.63c0.4,0.01,0.53,0.03,0.73,0.05
					l0.58,0.06c0.39,0.04,0.79,0.09,1.19,0.16c0.8,0.13,1.62,0.33,2.39,0.66c1.54,0.63,2.94,1.88,3.31,3.43L193.89,81.04z"/>
			</g>
		</g>
	</g>
</g>
<g>
	<g>
		<g>
			<g>
				<path class="st0" d="M194.59,71.83c-0.37,0.1-0.76,0.34-0.67,0.45c0,0-0.01-0.01,0,0c-0.01,0,0.06,0.03-0.02-0.01l0.1,0.03
					c0.02,0.01,0.04,0.05,0.06,0.13c0.04,0.2,0.08,0.4,0.12,0.59c0.15,0.78,0.31,1.51,0.55,2.11c0.23,0.61,0.53,1.04,0.89,1.33
					c0.19,0.15,0.4,0.29,0.66,0.42c0.11,0.06,0.31,0.15,0.36,0.17l0-0.01c0-0.01,0.01,0.04,0.05,0.04c0.02,0,0.05,0,0.08-0.03
					c0.01-0.03,0.02,0.03,0.02-0.05l0-0.22c0-0.15,0-0.3-0.02-0.44c-0.08-1.19-0.53-2.46-1.35-3.68c0,0-0.08-0.13-0.16-0.26
					c-0.09-0.13-0.17-0.25-0.17-0.25l0.14-0.21c1.73,0.32,3.31,1.64,4.05,3.47c0.18,0.44,0.32,0.91,0.4,1.41
					c0.09,0.76,0.07,1.57-0.09,2.3c-0.17,0.74-0.5,1.23-1.1,1.49c-0.24,0.1-0.54,0.15-0.88,0.13c-0.35-0.04-0.72-0.16-1.08-0.27
					c-0.37-0.12-0.74-0.27-1.11-0.43c-0.32-0.15-0.47-0.23-0.72-0.38c-0.44-0.27-0.89-0.61-1.27-1.04
					c-0.79-0.87-1.16-1.98-1.22-2.93c-0.08-0.98,0.05-1.86,0.27-2.69c0.06-0.2,0.12-0.4,0.18-0.62c0.05-0.21,0.19-0.63,0.49-0.82
					c0.59-0.36,1.05-0.13,1.44,0.02L194.59,71.83z"/>
			</g>
		</g>
	</g>
</g>
<g>
	<g>
		<g>
			<g>
				<path class="st0" d="M204.31,85.5c-1.99,1.91-1.59,4.78-1.3,7.4c0.2,1.27,0.59,2.42,1.24,3.12c0.61,0.7,1.59,1.1,2.76,1.25
					l0.3,0.04c0.02,0,0.03,0,0.03,0l0.01,0.01c0,0,0.01,0,0.01,0c0,0,0.01,0,0.01-0.01c0,0,0,0.01,0-0.01l0.02-0.1l0.04-0.2
					c0.11-0.53,0.18-1.04,0.21-1.53c0.05-0.99-0.08-1.77-0.57-2.41c-0.27-0.36-0.73-0.77-1.2-1.36c-0.23-0.29-0.47-0.65-0.63-1.07
					c-0.17-0.42-0.22-0.85-0.22-1.22c0-0.74,0.14-1.3,0.14-1.78c0-0.49-0.06-0.84-0.37-1.09c0,0-0.14-0.12-0.31-0.17
					c-0.17-0.06-0.34,0.01-0.34,0.01l-0.15-0.2c0.5-0.6,1.67-0.31,2.12,0.47c0.49,0.75,0.53,1.63,0.66,2.26
					c0.14,0.68,0.32,0.91,0.74,1.26c0.42,0.36,1.07,0.71,1.73,1.41c1.05,1.11,1.43,2.72,1.43,4.06c0.01,0.68-0.06,1.34-0.15,1.96
					c-0.04,0.19-0.13,0.94-0.31,1.41c-0.13,0.56-0.43,0.93-0.86,1.23c-0.43,0.29-0.95,0.35-1.51,0.33c-0.28,0-0.53-0.03-0.79-0.05
					c-0.24-0.02-0.34-0.04-0.51-0.06c-0.82-0.13-1.66-0.36-2.49-0.76c-0.82-0.4-1.62-1.01-2.19-1.78c-1.17-1.55-1.43-3.33-1.42-4.85
					c0-0.78,0.07-1.54,0.18-2.27c0.11-0.74,0.26-1.51,0.53-2.25c0.51-1.47,1.6-2.86,3.02-3.3L204.31,85.5z"/>
			</g>
		</g>
	</g>
</g>
<g>
	<g>
		<g>
			<g>
				<path class="st0" d="M108.81,47.48c0.66,0.24,1.28,0.15,1.99,0.08c0.73-0.09,1.49-0.21,2.22-0.25c0.74-0.06,1.47-0.08,2.2-0.09
					l0.54,0c0.16,0,0.41,0.01,0.46,0c0.02,0,0.03-0.01,0.04-0.01l0.01,0l0.04,0.22c0.06,0.29,0.13,0.49,0.2,0.62
					c0.07,0.13,0.13,0.17,0.12,0.17c0.06,0.03,0.02,0-0.03,0c-0.12-0.01-0.29,0.09-0.25,0.06c0.01-0.01,0.02-0.02,0.04-0.04
					l-0.18,0.22l-0.04,0.06c-0.03,0.05-0.07,0.12-0.11,0.2l-0.11,0.25c0-0.02-0.45-0.13-0.73-0.2c-0.63-0.15-1.26-0.3-1.91-0.43
					c-1.3-0.27-2.63-0.49-4.03-0.71l-0.58-0.11l-0.05-0.25c1.35-0.97,2.93-1.45,4.54-1.6c0.78-0.09,1.61-0.08,2.43,0.01
					c0.21,0.02,0.41,0.05,0.62,0.08c0.19,0.03,0.42,0.06,0.75,0.17c0.33,0.11,0.73,0.27,1.14,0.71c0.37,0.41,0.64,0.92,0.63,1.64
					c0.01,0.78-0.59,1.56-1.15,1.81c-0.54,0.27-0.92,0.28-1.23,0.29c-0.33,0.01-0.45-0.03-0.66-0.04c-0.19-0.02-0.39-0.05-0.58-0.07
					c-0.78-0.1-1.55-0.23-2.29-0.41c-0.76-0.18-1.5-0.34-2.26-0.63c-0.75-0.29-1.62-0.79-1.95-1.57L108.81,47.48z"/>
			</g>
		</g>
	</g>
</g>
<g>
	<g>
		<g>
			<g>
				<path class="st0" d="M45.91,28.45c1.62,5.4,3.48,10.64,4.68,16.25c1.08,5.19,1.49,10.71,0.89,16l-0.16,1.07l-0.25,0.01
					c-0.81-2.79-1.4-5.53-1.98-8.26c-0.57-2.75-1.15-5.58-1.68-8.16c-0.51-2.69-1.15-5.5-1.51-8.28c-0.39-2.81-0.61-5.71-0.24-8.59
					L45.91,28.45z"/>
			</g>
		</g>
	</g>
</g>
<g>
	<g>
		<g>
			<g>
				<path class="st0" d="M52.8,37.32c2.27,3.83,3.73,8.01,4.86,12.21c1.01,3.93,1.7,8.07,1.68,12.2l-0.04,0.84l-0.24,0.05
					c-1.13-1.99-1.95-4.02-2.67-6.07c-0.71-1.97-1.35-4.2-1.87-6.21c-0.5-2.07-1-4.23-1.33-6.35c-0.35-2.15-0.63-4.32-0.63-6.59
					L52.8,37.32z"/>
			</g>
		</g>
	</g>
</g>
<g>
	<g>
		<g>
			<g>
				<path class="st0" d="M53.32,30.46c2.76,1.51,5.14,3.78,7.07,6.29c1.94,2.52,3.5,5.26,4.95,7.96c2.62,5.05,5.26,10.19,7.64,15.43
					l0.46,1.07l-0.21,0.14c-2.28-2.18-4.23-4.61-5.99-7.16c-1.73-2.44-3.39-5.34-4.77-7.96c-1.38-2.7-2.79-5.45-4.2-8.03
					c-1.47-2.61-3.1-5.1-5.1-7.53L53.32,30.46z"/>
			</g>
		</g>
	</g>
</g>
<g>
	<g>
		<g>
			<g>
				<path class="st0" d="M90.27,28.45c-0.48,3.97-1.35,7.69-2.13,11.42c-0.76,3.46-1.55,7.01-2.65,10.54l-0.25,0.71l-0.25-0.01
					c-0.6-1.99-0.77-4-0.74-6c0.01-1.93,0.31-4.06,0.72-5.94c0.46-1.92,1.06-3.88,1.89-5.67c0.82-1.82,1.82-3.58,3.17-5.14
					L90.27,28.45z"/>
			</g>
		</g>
	</g>
</g>
<g>
	<g>
		<g>
			<g>
				<path class="st0" d="M95.53,19.14c0.23,5.24-0.39,10.43-1.27,15.52c-0.86,4.73-2.08,9.54-3.89,14.06l-0.4,0.91l-0.24-0.05
					c-0.16-2.67-0.01-5.27,0.25-7.84c0.23-2.49,0.66-5.21,1.1-7.65c0.49-2.49,1.02-5.09,1.71-7.54c0.67-2.5,1.44-4.98,2.51-7.43
					L95.53,19.14z"/>
			</g>
		</g>
	</g>
</g>
<g>
	<g>
		<g>
			<g>
				<path class="st0" d="M100.77,17.35c0.04,4.59,0.04,9.02-0.21,13.56c-0.27,4.19-0.86,8.67-2.63,12.67l-0.39,0.79l-0.24-0.06
					c-0.16-2.37-0.19-4.61-0.18-6.86c-0.01-2.17,0.06-4.57,0.2-6.75c0.18-2.23,0.4-4.58,0.9-6.81c0.48-2.26,1.15-4.52,2.3-6.6
					L100.77,17.35z"/>
			</g>
		</g>
	</g>
</g>
<g>
	<g>
		<g>
			<g>
				<path class="st0" d="M104.7,27.93c1.74,2.21,2.6,4.84,3.04,7.47c0.37,2.46,0.31,5.08-0.51,7.54l-0.2,0.49l-0.25,0
					c-0.71-1.3-1.14-2.56-1.48-3.81c-0.35-1.21-0.58-2.54-0.77-3.75c-0.15-1.24-0.32-2.53-0.33-3.82c-0.04-1.3-0.01-2.62,0.26-4.07
					L104.7,27.93z"/>
			</g>
		</g>
	</g>
</g>
<g>
	<g>
		<g>
			<g>
				<path class="st0" d="M132.27,96.67c0.55,1.35,0.5,2.33,0.3,3.29c-0.22,0.88-0.66,1.72-1.62,2.58l-0.23,0.17l-0.25-0.03
					c-0.65-0.6-0.93-1.21-1.07-1.8c-0.15-0.58-0.11-1.19,0.02-1.72c0.17-0.53,0.41-1.08,0.84-1.51c0.41-0.45,0.94-0.85,1.77-1.07
					L132.27,96.67z"/>
			</g>
		</g>
	</g>
</g>
<g>
	<g>
		<g>
			<g>
				<path class="st0" d="M139,96.93c0.32,1.53,0.07,2.64-0.31,3.7c-0.39,0.97-0.99,1.88-2.11,2.7l-0.26,0.16l-0.24-0.06
					c-0.53-0.76-0.7-1.47-0.73-2.14c-0.05-0.65,0.11-1.32,0.34-1.89c0.27-0.56,0.6-1.13,1.11-1.57c0.5-0.45,1.1-0.84,1.99-1.03
					L139,96.93z"/>
			</g>
		</g>
	</g>
</g>
<g>
	<g>
		<g>
			<g>
				<path class="st0" d="M141.61,98.39c0.52,1.19,0.31,2.06-0.09,2.77c-0.41,0.65-1.08,1.16-2.21,1.27l-0.25,0l-0.2-0.15
					c-0.34-0.73-0.43-1.26-0.41-1.71c0-0.45,0.15-0.83,0.34-1.15c0.23-0.3,0.5-0.59,0.92-0.78c0.41-0.2,0.91-0.36,1.69-0.38
					L141.61,98.39z"/>
			</g>
		</g>
	</g>
</g>
<g>
	<g>
		<g>
			<g>
				<path class="st0" d="M157.43,106.04c-0.15-1.33,0.41-2.18,1.12-2.77c0.69-0.52,1.62-0.78,2.73-0.4l0.24,0.11l0.11,0.22
					c-0.05,0.82-0.2,1.33-0.4,1.74c-0.18,0.41-0.46,0.71-0.74,0.93c-0.32,0.19-0.66,0.38-1.12,0.43c-0.45,0.07-0.98,0.08-1.76-0.08
					L157.43,106.04z"/>
			</g>
		</g>
	</g>
</g>
<g>
	<g>
		<g>
			<g>
				<path class="st0" d="M159.19,108.06c0.5-1.64,1.52-2.7,2.79-3.49c1.18-0.69,2.74-1.09,4.26-0.57l0.31,0.14l0.05,0.24
					c-0.52,0.84-0.98,1.38-1.47,1.85c-0.46,0.46-1,0.84-1.53,1.15c-0.56,0.28-1.16,0.58-1.86,0.74c-0.69,0.17-1.45,0.29-2.41,0.15
					L159.19,108.06z"/>
			</g>
		</g>
	</g>
</g>
<g>
	<g>
		<g>
			<g>
				<path class="st0" d="M174.51,116.77c0.02-1.21,0.57-1.78,1.2-2.08c0.6-0.24,1.36-0.19,2.14,0.5l0.16,0.17l0.06,0.24
					c-0.14,0.76-0.31,1.18-0.5,1.5c-0.18,0.32-0.41,0.49-0.65,0.6c-0.26,0.06-0.53,0.11-0.9-0.01c-0.36-0.1-0.77-0.28-1.38-0.71
					L174.51,116.77z"/>
			</g>
		</g>
	</g>
</g>
<g>
	<g>
		<g>
			<g>
				<path class="st0" d="M175.26,120.14c0.96-1.23,2.08-1.71,3.22-1.97c1.07-0.21,2.23-0.15,3.46,0.49c0,0,0.26,0.16,0.26,0.16
					l0.05,0.25c-0.45,0.8-0.96,1.27-1.49,1.62c-0.51,0.35-1.11,0.56-1.67,0.67c-0.58,0.07-1.19,0.11-1.8-0.04
					c-0.62-0.13-1.27-0.37-1.97-0.93L175.26,120.14z"/>
			</g>
		</g>
	</g>
</g>
<g>
	<g>
		<g>
			<g>
				<path class="st0" d="M180.31,123.38c0.64-1.05,1.19-1.36,1.79-1.5c0.56-0.09,1.17,0.05,1.99,0.71l0.18,0.16l0.07,0.24
					c-0.13,0.77-0.39,1.23-0.7,1.54c-0.29,0.33-0.68,0.49-1.03,0.55c-0.37,0.02-0.77,0-1.16-0.24c-0.39-0.21-0.78-0.55-1.14-1.22
					L180.31,123.38z"/>
			</g>
		</g>
	</g>
</g>
<g>
	<g>
		<g>
			<g>
				<path class="st0" d="M186.14,139.19c0.51-1.01,0.92-1.27,1.35-1.34c0.4-0.03,0.82,0.21,1.38,0.99l0.12,0.19l0.04,0.25
					c-0.13,0.74-0.34,1.14-0.58,1.4c-0.23,0.28-0.51,0.39-0.77,0.41c-0.27-0.02-0.55-0.09-0.81-0.35c-0.26-0.25-0.52-0.61-0.74-1.29
					L186.14,139.19z"/>
			</g>
		</g>
	</g>
</g>
<g>
	<g>
		<g>
			<g>
				<path class="st0" d="M182.76,142.9c1.29-0.94,2.52-1.14,3.73-1.16c1.13,0.02,2.28,0.3,3.43,1.13l0.24,0.2l0.01,0.25
					c-0.6,0.72-1.23,1.1-1.85,1.34c-0.61,0.25-1.29,0.33-1.89,0.32c-0.62-0.05-1.27-0.15-1.88-0.44c-0.62-0.28-1.22-0.67-1.79-1.39
					L182.76,142.9z"/>
			</g>
		</g>
	</g>
</g>
<g>
	<g>
		<g>
			<g>
				<path class="st0" d="M184.53,146.14c0.66-1,1.3-1.23,1.91-1.25c0.57,0.02,1.15,0.32,1.69,1.2c0,0,0.11,0.21,0.11,0.21
					l-0.01,0.25c-0.34,0.69-0.67,1.05-0.98,1.27c-0.31,0.24-0.64,0.31-0.94,0.3c-0.3-0.05-0.62-0.14-0.91-0.42
					c-0.3-0.26-0.59-0.63-0.87-1.32L184.53,146.14z"/>
			</g>
		</g>
	</g>
</g>
<g>
	<g>
		<g>
			<g>
				<path class="st0" d="M112.84,99.81c1.22,0.27,1.73,0.85,2.05,1.49c0.25,0.62,0.26,1.35-0.29,2.29c0,0-0.14,0.2-0.14,0.2
					l-0.23,0.09c-0.79-0.07-1.27-0.26-1.62-0.5c-0.36-0.23-0.59-0.55-0.72-0.87c-0.1-0.34-0.17-0.71-0.05-1.14
					c0.09-0.43,0.29-0.89,0.78-1.48L112.84,99.81z"/>
			</g>
		</g>
	</g>
</g>
<g>
	<g>
		<g>
			<g>
				<path class="st0" d="M115.31,99.62c1.01,0.57,1.31,0.93,1.44,1.36c0.09,0.4-0.07,0.84-0.65,1.63l-0.15,0.18l-0.23,0.11
					c-0.76,0.04-1.23-0.13-1.56-0.37c-0.34-0.23-0.52-0.57-0.6-0.9c-0.03-0.34-0.01-0.71,0.23-1.06c0.22-0.35,0.57-0.69,1.26-0.95
					L115.31,99.62z"/>
			</g>
		</g>
	</g>
</g>
<g>
	<g>
		<g>
			<g>
				<path class="st0" d="M122.84,97.31c0.45,0.01,0.84,0.39,1.09,0.63c0.25,0.23,0.46,0.47,0.64,0.73c0.36,0.52,0.59,1.08,0.74,1.66
					c0.25,1.08,0.18,2.29-0.55,3.46l-0.18,0.24l-0.25,0.03c-0.76-0.49-1.2-0.98-1.53-1.47c-0.34-0.47-0.53-1.02-0.65-1.52
					c-0.08-0.53-0.15-1.07-0.04-1.66c0.04-0.3,0.11-0.6,0.22-0.93c0.11-0.3,0.32-0.56,0.33-0.99L122.84,97.31z"/>
			</g>
		</g>
	</g>
</g>
<g>
	<g>
		<g>
			<g>
				<path class="st0" d="M105.33,104.95c1.21,0.12,1.74,0.67,2.03,1.29c0.23,0.59,0.19,1.32-0.47,2.15l-0.16,0.17l-0.24,0.07
					c-0.77-0.11-1.21-0.29-1.53-0.5c-0.33-0.19-0.52-0.46-0.62-0.72c-0.07-0.28-0.12-0.59,0.01-0.97c0.11-0.37,0.3-0.8,0.77-1.38
					L105.33,104.95z"/>
			</g>
		</g>
	</g>
</g>
<g>
	<g>
		<g>
			<g>
				<path class="st0" d="M103.72,106.88c1.33,0.37,1.98,1.09,2.43,1.9c0.38,0.77,0.53,1.69,0.15,2.84l-0.11,0.25l-0.22,0.11
					c-0.84-0.1-1.37-0.35-1.8-0.66c-0.42-0.29-0.72-0.7-0.93-1.09c-0.17-0.43-0.32-0.89-0.28-1.41c0.02-0.53,0.13-1.1,0.53-1.82
					L103.72,106.88z"/>
			</g>
		</g>
	</g>
</g>
<g>
	<g>
		<g>
			<g>
				<path class="st0" d="M94.44,114.88c1.31-0.22,2.12,0.15,2.78,0.68c0.59,0.52,1.01,1.26,1.03,2.42c0,0-0.02,0.26-0.02,0.26
					l-0.17,0.19c-0.78,0.25-1.34,0.25-1.82,0.15c-0.47-0.08-0.87-0.32-1.18-0.58c-0.29-0.3-0.57-0.65-0.7-1.12
					c-0.15-0.47-0.23-1.01-0.1-1.8L94.44,114.88z"/>
			</g>
		</g>
	</g>
</g>
<g>
	<g>
		<g>
			<g>
				<path class="st0" d="M91.69,118.85c1.25-0.53,2.17-0.37,2.99-0.02c0.75,0.36,1.39,0.98,1.76,2.12c0,0,0.06,0.26,0.06,0.26
					l-0.11,0.22c-0.71,0.44-1.27,0.57-1.78,0.59c-0.5,0.04-0.97-0.1-1.35-0.28c-0.38-0.23-0.76-0.49-1.04-0.93
					c-0.29-0.42-0.54-0.93-0.64-1.74L91.69,118.85z"/>
			</g>
		</g>
	</g>
</g>
<g>
	<g>
		<g>
			<g>
				<path class="st0" d="M88.91,124.23c1.48-0.29,2.5-0.07,3.48,0.27c0.9,0.35,1.74,0.89,2.56,1.94l0.16,0.24l-0.05,0.25
					c-0.69,0.59-1.37,0.8-2.02,0.86c-0.63,0.08-1.29-0.06-1.85-0.27c-0.55-0.26-1.11-0.59-1.52-1.1c-0.43-0.49-0.78-1.1-0.9-1.98
					L88.91,124.23z"/>
			</g>
		</g>
	</g>
</g>
<g>
	<g>
		<g>
			<g>
				<path class="st0" d="M88.05,128.31c1.26-0.54,2.2-0.38,3.04-0.03c0.76,0.36,1.44,0.98,1.83,2.12c0,0,0.07,0.26,0.07,0.26
					l-0.11,0.23c-0.72,0.44-1.28,0.58-1.8,0.6c-0.51,0.04-0.98-0.09-1.38-0.28c-0.39-0.23-0.78-0.49-1.07-0.93
					c-0.31-0.42-0.56-0.94-0.68-1.74L88.05,128.31z"/>
			</g>
		</g>
	</g>
</g>
<g>
	<g>
		<g>
			<g>
				<path class="st0" d="M87.09,131.79c0.64-0.98,1.23-1.19,1.8-1.19c0.52,0.04,1.04,0.36,1.5,1.25c0,0,0.09,0.21,0.09,0.21
					l-0.02,0.25c-0.34,0.68-0.65,1.03-0.95,1.24c-0.29,0.23-0.6,0.29-0.87,0.27c-0.28-0.06-0.56-0.16-0.82-0.45
					c-0.26-0.27-0.52-0.65-0.74-1.35L87.09,131.79z"/>
			</g>
		</g>
	</g>
</g>
<g>
	<g>
		<g>
			<g>
				<path class="st0" d="M87.49,149.2c0.06-1.43,0.64-2.3,1.35-3c0.69-0.62,1.59-1.05,2.85-1.03c0,0,0.28,0.03,0.28,0.03l0.17,0.19
					c0.1,0.86-0.03,1.47-0.24,1.98c-0.19,0.51-0.53,0.93-0.89,1.26c-0.39,0.3-0.82,0.59-1.37,0.72c-0.54,0.15-1.15,0.22-1.97,0.04
					L87.49,149.2z"/>
			</g>
		</g>
	</g>
</g>
<g>
	<g>
		<g>
			<g>
				<path class="st0" d="M89.68,151.9c-0.34-1.13-0.12-1.72,0.24-2.16c0.37-0.38,0.95-0.58,1.93-0.36c0,0,0.22,0.07,0.22,0.07
					l0.18,0.17c0.31,0.7,0.37,1.16,0.34,1.53c-0.01,0.37-0.16,0.65-0.35,0.85c-0.22,0.18-0.48,0.33-0.87,0.35
					c-0.38,0.03-0.83-0.01-1.51-0.28L89.68,151.9z"/>
			</g>
		</g>
	</g>
</g>
<g>
	<g>
		<g>
			<g>
				<path class="st0" d="M96.48,161.55c-0.43-1.15-0.23-1.84,0.13-2.4c0.37-0.5,0.97-0.84,2.03-0.82c0,0,0.24,0.02,0.24,0.02
					l0.2,0.15c0.37,0.69,0.46,1.18,0.45,1.59c0.01,0.41-0.14,0.75-0.32,1.01c-0.23,0.24-0.49,0.47-0.9,0.57
					c-0.4,0.12-0.88,0.17-1.62,0.03L96.48,161.55z"/>
			</g>
		</g>
	</g>
</g>
<g>
	<g>
		<g>
			<g>
				<path class="st0" d="M97.32,163.48c-0.18-1.15,0-1.66,0.32-2.05c0.33-0.33,0.83-0.49,1.82-0.37l0.23,0.04l0.2,0.15
					c0.39,0.66,0.48,1.13,0.45,1.53c-0.01,0.4-0.19,0.71-0.4,0.94c-0.25,0.2-0.55,0.38-0.96,0.38c-0.4,0.02-0.87-0.06-1.51-0.42
					L97.32,163.48z"/>
			</g>
		</g>
	</g>
</g>
<g>
	<g>
		<g>
			<g>
				<path class="st0" d="M98.89,164.4c0.16-0.23,0.22-0.5,0.19-0.69c0-0.2,0.01-0.39,0.08-0.6c0.16-0.48,0.41-0.87,0.69-1.22
					c0.56-0.63,1.33-1.08,2.57-1.17l0.27,0l0.19,0.16c0.23,0.8,0.19,1.39,0.06,1.91c-0.12,0.51-0.4,0.95-0.7,1.3
					c-0.34,0.33-0.73,0.65-1.24,0.81c-0.27,0.1-0.61,0.22-1,0.23c-0.41,0.02-0.8-0.13-1.08-0.48L98.89,164.4z"/>
			</g>
		</g>
	</g>
</g>
<g>
	<g>
		<g>
			<g>
				<path class="st0" d="M124.16,169.95c0.82,0.88,0.8,1.69,0.54,2.33c-0.28,0.59-0.87,1.06-1.92,1.06l-0.24-0.02l-0.2-0.15
					c-0.4-0.66-0.56-1.08-0.63-1.44c-0.09-0.35-0.04-0.63,0.07-0.86c0.14-0.21,0.31-0.43,0.66-0.58c0.33-0.17,0.75-0.31,1.48-0.42
					L124.16,169.95z"/>
			</g>
		</g>
	</g>
</g>
<g>
	<g>
		<g>
			<g>
				<path class="st0" d="M127.99,172.05c0.61,1.08,0.58,1.75,0.39,2.37c-0.22,0.56-0.67,1.03-1.67,1.4l-0.23,0.07l-0.24-0.07
					c-0.58-0.53-0.82-0.99-0.93-1.42c-0.12-0.42-0.07-0.83,0.06-1.17c0.17-0.33,0.39-0.66,0.78-0.88c0.38-0.23,0.86-0.41,1.62-0.41
					L127.99,172.05z"/>
			</g>
		</g>
	</g>
</g>
<g>
	<g>
		<g>
			<g>
				<path class="st0" d="M130.47,172.39c0.63,1.4,0.52,2.57,0.22,3.67c-0.32,1.01-0.92,1.97-2.06,2.71c0,0-0.26,0.14-0.26,0.14
					l-0.24-0.08c-0.5-0.76-0.67-1.42-0.72-2.03c-0.07-0.6,0.04-1.21,0.2-1.74c0.21-0.53,0.46-1.06,0.89-1.51
					c0.41-0.47,0.93-0.9,1.75-1.24L130.47,172.39z"/>
			</g>
		</g>
	</g>
</g>
<g>
	<g>
		<g>
			<g>
				<path class="st0" d="M146.07,175.31c1.03,0.56,1.29,1.13,1.34,1.69c0,0.52-0.27,1.06-1.13,1.59c0,0-0.21,0.11-0.21,0.11h-0.25
					c-0.71-0.28-1.07-0.56-1.32-0.85c-0.25-0.27-0.34-0.57-0.34-0.85c0.04-0.28,0.11-0.57,0.38-0.85c0.25-0.28,0.6-0.56,1.28-0.85
					H146.07z"/>
			</g>
		</g>
	</g>
</g>
<g>
	<g>
		<g>
			<g>
				<path class="st0" d="M148.46,172.31c1.43,0.88,2.16,1.96,2.75,3.11c0.51,1.09,0.83,2.3,0.68,3.79l-0.06,0.32l-0.22,0.12
					c-0.95-0.23-1.6-0.66-2.13-1.15c-0.53-0.47-0.93-1.1-1.22-1.7c-0.26-0.63-0.48-1.31-0.49-2.04c-0.04-0.73,0.04-1.5,0.44-2.36
					L148.46,172.31z"/>
			</g>
		</g>
	</g>
</g>
<g>
	<g>
		<g>
			<g>
				<path class="st0" d="M164.26,171.97c1.22-0.2,1.88,0.13,2.38,0.6c0.43,0.46,0.68,1.13,0.49,2.18c0,0-0.06,0.23-0.06,0.23
					l-0.18,0.17c-0.75,0.23-1.25,0.23-1.66,0.14c-0.41-0.07-0.72-0.28-0.95-0.52c-0.2-0.27-0.39-0.58-0.42-1.01
					c-0.05-0.42-0.02-0.91,0.24-1.63L164.26,171.97z"/>
			</g>
		</g>
	</g>
</g>
<g>
	<g>
		<g>
			<g>
				<path class="st0" d="M165.8,166.76c1.6,0.48,2.57,1.52,3.27,2.68c0.62,1.1,0.96,2.41,0.67,3.88l-0.09,0.31l-0.23,0.1
					c-0.91-0.32-1.5-0.74-2-1.2c-0.49-0.43-0.88-0.98-1.18-1.5c-0.27-0.56-0.53-1.14-0.64-1.81c-0.13-0.67-0.18-1.39,0-2.31
					L165.8,166.76z"/>
			</g>
		</g>
	</g>
</g>
<g>
	<g>
		<g>
			<g>
				<path class="st0" d="M168.84,167.95c1.21-0.04,1.84,0.44,2.27,1.01c0.37,0.56,0.53,1.29,0.15,2.27l-0.11,0.21l-0.22,0.13
					c-0.8,0.07-1.3-0.02-1.69-0.17c-0.39-0.14-0.66-0.38-0.84-0.65c-0.15-0.29-0.28-0.62-0.24-1.05c0.02-0.42,0.12-0.91,0.47-1.61
					L168.84,167.95z"/>
			</g>
		</g>
	</g>
</g>
<g>
	<g>
		<g>
			<g>
				<path class="st0" d="M170.23,165.44c1.3-0.01,1.99,0.47,2.51,1.06c0.45,0.58,0.7,1.34,0.47,2.45c0,0-0.07,0.24-0.07,0.24
					l-0.2,0.15c-0.8,0.12-1.33,0.03-1.77-0.13c-0.43-0.15-0.76-0.43-1-0.73c-0.21-0.33-0.4-0.7-0.43-1.17
					c-0.05-0.46-0.01-0.99,0.29-1.72L170.23,165.44z"/>
			</g>
		</g>
	</g>
</g>
<g>
	<g>
		<g>
			<g>
				<path class="st0" d="M26.87,111.9c-1.97,6.58-3.49,13.17-4.13,19.82c-0.63,6.19-0.59,12.6-0.09,18.95l0.07,1.3l-0.24,0.06
					c-1.49-3.18-2.37-6.61-2.84-10.09c-0.48-3.36-0.48-7.16-0.13-10.54c0.39-3.46,1.14-7.03,2.32-10.28
					c1.17-3.31,2.73-6.49,4.81-9.31L26.87,111.9z"/>
			</g>
		</g>
	</g>
</g>
<g>
	<g>
		<g>
			<g>
				<path class="st0" d="M35.44,117.54c-2.73,6.1-2.96,12.69-3.62,19.34c-0.54,6.1-1.06,12.35,1.41,17.97l0.53,1.13l-0.2,0.15
					c-2.62-2.27-4.12-5.75-4.74-9.19c-0.65-3.35-0.55-7.11-0.23-10.37c0.37-3.33,0.79-6.8,1.76-10.1c0.94-3.32,2.46-6.62,4.89-9.07
					L35.44,117.54z"/>
			</g>
		</g>
	</g>
</g>
<g>
	<g>
		<g>
			<g>
				<path class="st0" d="M41.21,129.82c-0.93,5.26-1.73,10.37-1.95,15.5c-0.25,4.77-0.08,9.67,0.27,14.61l0.04,1.01L39.32,161
					c-1.37-2.38-2.24-5-2.76-7.68c-0.53-2.59-0.69-5.53-0.55-8.17c0.18-2.7,0.62-5.49,1.44-8.06c0.81-2.61,1.93-5.12,3.52-7.35
					L41.21,129.82z"/>
			</g>
		</g>
	</g>
</g>
<g>
	<g>
		<g>
			<g>
				<path class="st0" d="M41.81,133.86c1.36,4.75,1.88,9.64,2.09,14.48c0.16,4.51-0.03,9.18-0.89,13.68l-0.21,0.91l-0.25,0
					c-0.7-2.42-1.09-4.84-1.37-7.25c-0.29-2.33-0.44-4.91-0.53-7.23c-0.04-2.38-0.08-4.86,0.07-7.25c0.12-2.43,0.33-4.86,0.84-7.32
					L41.81,133.86z"/>
			</g>
		</g>
	</g>
</g>
<g>
	<g>
		<g>
			<g>
				<path class="st0" d="M51.26,125.57c1.96,6.2,2.87,12.72,3.25,19.18c0.31,6.02,0.07,12.26-1.03,18.21l-0.25,1.2l-0.25-0.01
					c-0.56-3.25-0.86-6.46-1.11-9.66c-0.26-3.09-0.44-6.5-0.6-9.58c-0.12-3.15-0.3-6.43-0.34-9.59c-0.07-3.21-0.11-6.43,0.09-9.71
					L51.26,125.57z"/>
			</g>
		</g>
	</g>
</g>
<g>
	<g>
		<g>
			<g>
				<path class="st0" d="M60.87,121.47c3.25,7.29,4.22,15.67,3.35,23.68c-0.83,7.46-3.41,15-7.65,21.13l-0.88,1.22l-0.22-0.12
					c1.32-3.78,2.51-7.49,3.45-11.24c0.9-3.62,1.67-7.66,2.07-11.35c0.46-3.77,0.6-7.71,0.54-11.52c-0.08-3.87-0.43-7.75-0.9-11.72
					L60.87,121.47z"/>
			</g>
		</g>
	</g>
</g>
<g>
	<g>
		<g>
			<g>
				<path class="st0" d="M69.62,129.97c1.73,5.42,1.85,11.35,0.89,16.98c-0.92,5.24-2.93,10.49-6.02,14.79l-0.65,0.85l-0.22-0.11
					c0.65-2.8,1.37-5.46,2.01-8.12c0.6-2.57,1.24-5.4,1.68-7.97c0.51-2.63,0.86-5.39,1.2-8.06c0.26-2.49,0.52-5.04,0.86-8.32
					L69.62,129.97z"/>
			</g>
		</g>
	</g>
</g>
<g>
	<g>
		<g>
			<g>
				<path class="st0" d="M73.06,142.9c0.71,0.65,1.13,1.64,1.3,2.58c0.18,0.95,0.17,1.9,0.13,2.76c-0.08,1.75-0.36,3.48-0.73,5.17
					c-0.74,3.14-1.93,6.22-3.65,9l-0.38,0.55l-0.24-0.07c-0.19-1.83-0.06-3.57,0.17-5.26c0.2-1.64,0.58-3.4,0.94-4.97
					c0.42-1.6,0.83-3.25,1.36-4.83c0.26-0.81,0.52-1.56,0.72-2.33c0.19-0.77,0.34-1.55,0.18-2.47L73.06,142.9z"/>
			</g>
		</g>
	</g>
</g>
<g>
	<g>
		<g>
			<g>
				<path class="st0" d="M15.97,122.06c0.45,4.49,0.77,8.8,1.45,13.04c0.6,3.96,1.45,7.97,2.3,12.05l0.14,0.84l-0.23,0.1
					c-1.57-1.73-2.72-3.75-3.6-5.88c-0.87-2.04-1.49-4.45-1.82-6.64c-0.3-2.25-0.42-4.63-0.17-6.88c0.22-2.29,0.72-4.55,1.68-6.67
					L15.97,122.06z"/>
			</g>
		</g>
	</g>
</g>
<g>
	<g>
		<g>
			<g>
				<path class="st0" d="M123.75,160.08c1.58-4.1,4.43-7.8,8.03-10.57c3.58-2.8,7.97-4.64,12.49-5.29
					c4.21-0.59,8.38-0.38,12.52,0.14c4.13,0.56,8.38,1.79,11.73,4.29c0,0,0.34,0.25,0.65,0.53c0.31,0.27,0.63,0.55,0.63,0.55
					l-0.15,0.2c-3.95-1.96-8.12-2.59-12.33-2.84c-4.06-0.16-8.68-0.23-12.58,0.34c-4.01,0.52-7.99,2.03-11.47,4.18
					c-3.53,2.19-6.66,5.09-9.29,8.59L123.75,160.08z"/>
			</g>
		</g>
	</g>
</g>
<g>
	<g>
		<g>
			<g>
				<path class="st0" d="M112.4,128.78c4.36,0.44,8.51,2.37,12.02,4.97c3.26,2.45,6.1,5.72,7.76,9.44l0.31,0.77l-0.2,0.14
					c-1.8-1.32-3.4-2.66-5-3.97c-1.56-1.25-3.24-2.62-4.82-3.8c-1.58-1.24-3.3-2.43-4.95-3.63c-1.69-1.19-3.43-2.36-5.2-3.7
					L112.4,128.78z"/>
			</g>
		</g>
	</g>
</g>
<g>
	<g>
		<g>
			<g>
				<path class="st0" d="M151.87,113.68c-0.05,3.95-0.48,7.7-0.8,11.45c-0.34,3.48-0.67,7.05-1.28,10.65l-0.16,0.73l-0.25,0.02
					c-0.86-1.87-1.29-3.83-1.52-5.8c-0.24-1.9-0.21-4.03-0.03-5.93c0.23-1.94,0.59-3.95,1.21-5.8c0.61-1.89,1.4-3.72,2.58-5.4
					L151.87,113.68z"/>
			</g>
		</g>
	</g>
</g>
<g>
	<g>
		<g>
			<g>
				<path class="st0" d="M194.58,116.83c2.35,1.08,3.98,3.22,4.92,5.53c0.85,2.17,1.09,4.69,0.3,6.95l-0.19,0.45l-0.25,0
					c-0.72-1.15-1.21-2.2-1.65-3.22c-0.45-0.98-0.85-2.05-1.23-3.01c-0.35-1-0.77-2.01-1.09-3.07c-0.36-1.06-0.72-2.15-0.98-3.47
					L194.58,116.83z"/>
			</g>
		</g>
	</g>
</g>
<g>
	<g>
		<g>
			<g>
				<path class="st0" d="M199.57,109.44c3.03,4.36,4.43,9.84,4.5,15.18c0.04,4.99-1.18,10.18-3.77,14.4l-0.55,0.84l-0.23-0.1
					c0.35-2.66,0.71-5.16,0.95-7.67c0.22-2.41,0.37-5.06,0.35-7.45c0.02-2.45-0.17-4.99-0.4-7.46c-0.27-2.5-0.67-5.01-1.08-7.65
					L199.57,109.44z"/>
			</g>
		</g>
	</g>
</g>
<g>
	<g>
		<g>
			<g>
				<path class="st0" d="M206.83,113.72c1.68,3.63,2.13,7.73,1.85,11.68c-0.3,3.68-1.34,7.44-3.29,10.6l-0.42,0.62l-0.24-0.08
					c-0.04-2.05,0.11-3.95,0.25-5.83c0.16-1.97,0.32-3.84,0.46-5.58c0.15-1.77,0.31-3.55,0.48-5.58c0.16-1.88,0.32-3.78,0.66-5.79
					L206.83,113.72z"/>
			</g>
		</g>
	</g>
</g>
<g>
	<g>
		<g>
			<g>
				<path class="st0" d="M109.96,77.18c1.92,0.6,3.18,2.27,3.77,4.04c0.53,1.67,0.45,3.63-0.57,5.17l-0.24,0.3l-0.25-0.03
					c-0.6-0.91-0.97-1.66-1.28-2.38c-0.32-0.69-0.55-1.42-0.77-2.09c-0.18-0.7-0.4-1.4-0.52-2.17c-0.15-0.78-0.29-1.6-0.33-2.67
					L109.96,77.18z"/>
			</g>
		</g>
	</g>
</g>
<g>
	<g>
		<g>
			<g>
				<path class="st0" d="M115.06,67.45c1.39,1.17,2.39,2.8,2.99,4.54c0.6,1.75,0.82,3.6,0.77,5.41c-0.12,3.38-1.18,6.64-2.82,9.45
					l-0.37,0.56l-0.24-0.07c-0.24-1.82-0.17-3.54-0.08-5.21c0.07-1.61,0.22-3.33,0.27-4.85c0.09-1.56,0.05-3.16-0.03-4.73
					c-0.11-1.59-0.33-3.18-0.69-4.98L115.06,67.45z"/>
			</g>
		</g>
	</g>
</g>
<g>
	<g>
		<g>
			<g>
				<path class="st0" d="M121.9,75.21c1,1.53,1.06,3.21,0.77,4.77c-0.31,1.44-1.04,2.86-2.38,3.84L120,84l-0.23-0.1
					c-0.36-0.96-0.46-1.75-0.48-2.5c-0.03-0.72,0.07-1.46,0.21-2.11c0.18-0.66,0.37-1.35,0.72-2.01c0.33-0.67,0.74-1.35,1.43-2.08
					L121.9,75.21z"/>
			</g>
		</g>
	</g>
</g>
<g>
	<g>
		<g>
			<g>
				<path class="st0" d="M123.38,143.43c1.41-0.92,2.9-0.94,4.26-0.65c1.26,0.31,2.49,1.01,3.31,2.29l0.15,0.29l-0.1,0.23
					c-0.88,0.39-1.6,0.51-2.27,0.53c-0.65,0.04-1.3-0.06-1.88-0.19c-0.58-0.18-1.18-0.38-1.74-0.75c-0.58-0.35-1.15-0.78-1.75-1.5
					L123.38,143.43z"/>
			</g>
		</g>
	</g>
</g>
<g>
	<g>
		<g>
			<g>
				<path class="st0" d="M133.86,134.52c0.81-0.31,1.72-0.19,2.47,0.16c0.75,0.35,1.36,0.91,1.82,1.54c0.83,1.2,1.1,2.6,0.74,4.02
					l-0.1,0.3l-0.23,0.09c-0.9-0.35-1.48-0.81-1.95-1.25c-0.47-0.42-0.83-0.9-1.13-1.32c-0.26-0.44-0.54-0.87-0.76-1.39
					c-0.25-0.51-0.48-1.08-0.92-1.92L133.86,134.52z"/>
			</g>
		</g>
	</g>
</g>
<g>
	<g>
		<g>
			<g>
				<path class="st0" d="M153.33,127.02c0.3,1.65,0.12,2.87-0.16,4.09c-0.3,1.12-0.76,2.21-1.69,3.39l-0.22,0.24l-0.25-0.01
					c-0.67-0.71-0.97-1.48-1.1-2.23c-0.14-0.73-0.06-1.53,0.12-2.22c0.22-0.7,0.53-1.4,1.04-1.97c0.49-0.59,1.12-1.1,2.03-1.4
					L153.33,127.02z"/>
			</g>
		</g>
	</g>
</g>
<g>
	<g>
		<g>
			<g>
				<path class="st0" d="M157.8,133.02c-0.44,1.67-0.94,2.74-1.47,3.86c-0.52,1.02-1.11,1.99-2.07,3.18l-0.23,0.25l-0.25-0.01
					c-0.67-0.76-0.91-1.64-0.92-2.48c-0.04-0.83,0.22-1.71,0.58-2.43c0.41-0.72,0.95-1.41,1.67-1.86c0.7-0.47,1.54-0.79,2.53-0.7
					L157.8,133.02z"/>
			</g>
		</g>
	</g>
</g>
</svg>
