<?xml version="1.0" encoding="utf-8"?>
<!-- Generator: Adobe Illustrator 27.3.1, SVG Export Plug-In . SVG Version: 6.00 Build 0)  -->
<svg version="1.1" id="Layer_1" xmlns="http://www.w3.org/2000/svg" xmlns:xlink="http://www.w3.org/1999/xlink" x="0px" y="0px"
	 viewBox="0 0 1824.4 292.7" style="enable-background:new 0 0 1824.4 292.7;" xml:space="preserve">
<style type="text/css">
	.st0{fill:#E70012;}
</style>
<polygon class="st0" points="36.5,73.4 36.5,73.4 73,36.9 72.9,36.8 73,36.7 36.5,0.2 0,36.7 0.1,36.8 0,36.9 "/>
<polygon class="st0" points="72.9,109.9 73,109.8 36.5,73.4 36.5,73.4 36.5,73.4 0,109.8 0.1,109.9 0,110 36.5,146.5 36.5,146.4 
	36.5,146.5 73,110 "/>
<polygon class="st0" points="72.9,183 73,182.9 36.5,146.5 36.5,146.5 36.5,146.5 0,182.9 0.1,183 0,183.1 36.5,219.6 36.5,219.6 
	36.5,219.6 73,183.1 "/>
<polygon class="st0" points="109.5,73.4 109.5,73.4 146,36.9 145.9,36.8 146,36.7 109.5,0.2 73,36.7 73.1,36.8 73,36.9 "/>
<polygon class="st0" points="145.9,109.9 146,109.8 109.5,73.4 109.5,73.4 109.5,73.4 73,109.8 73.1,109.9 73,110 109.5,146.5 
	109.5,146.4 109.5,146.5 146,110 "/>
<polygon class="st0" points="145.9,183 146,182.9 109.5,146.5 109.5,146.5 109.5,146.5 73,182.9 73.1,183 73,183.1 109.5,219.6 
	109.5,219.6 109.5,219.6 146,183.1 "/>
<polygon class="st0" points="182.4,73.4 182.4,73.4 218.9,36.9 218.9,36.8 218.9,36.7 182.4,0.2 146,36.7 146,36.8 146,36.9 "/>
<polygon class="st0" points="218.9,109.9 218.9,109.8 182.4,73.4 182.4,73.4 182.4,73.4 146,109.8 146,109.9 146,110 182.4,146.5 
	182.4,146.4 182.5,146.5 218.9,110 "/>
<polygon class="st0" points="218.9,183 218.9,182.9 182.5,146.5 182.4,146.5 182.4,146.5 146,182.9 146,183 146,183.1 182.4,219.6 
	182.4,219.6 182.4,219.6 218.9,183.1 "/>
<polygon class="st0" points="255.4,73.4 255.4,73.4 291.9,36.9 291.8,36.8 291.9,36.7 255.4,0.2 218.9,36.7 219,36.8 218.9,36.9 "/>
<polygon class="st0" points="291.8,109.9 291.9,109.8 255.4,73.4 255.4,73.4 255.4,73.4 218.9,109.8 219,109.9 218.9,110 
	255.4,146.5 255.4,146.4 255.4,146.5 291.9,110 "/>
<polygon class="st0" points="291.8,183 291.9,182.9 255.4,146.5 255.4,146.5 255.4,146.5 218.9,182.9 219,183 218.9,183.1 
	255.4,219.6 255.4,219.6 255.4,219.6 291.9,183.1 "/>
<polygon class="st0" points="328.4,73.4 328.4,73.4 364.9,36.9 364.8,36.8 364.9,36.7 328.4,0.2 291.9,36.7 292,36.8 291.9,36.9 "/>
<polygon class="st0" points="364.8,109.9 364.9,109.8 328.4,73.4 328.4,73.4 328.4,73.4 291.9,109.8 292,109.9 291.9,110 
	328.4,146.5 328.4,146.4 328.4,146.5 364.9,110 "/>
<polygon class="st0" points="364.8,183 364.9,182.9 328.4,146.5 328.4,146.5 328.4,146.5 291.9,182.9 292,183 291.9,183.1 
	328.4,219.6 328.4,219.6 328.4,219.6 364.9,183.1 "/>
<polygon class="st0" points="401.4,73.4 401.4,73.4 437.9,36.9 437.8,36.8 437.9,36.7 401.4,0.2 364.9,36.7 365,36.8 364.9,36.9 "/>
<polygon class="st0" points="437.8,109.9 437.9,109.8 401.4,73.4 401.4,73.4 401.4,73.4 364.9,109.8 365,109.9 364.9,110 
	401.4,146.5 401.4,146.4 401.4,146.5 437.9,110 "/>
<polygon class="st0" points="437.8,183 437.9,182.9 401.4,146.5 401.4,146.5 401.4,146.5 364.9,182.9 365,183 364.9,183.1 
	401.4,219.6 401.4,219.6 401.4,219.6 437.9,183.1 "/>
<polygon class="st0" points="474.4,73.4 474.4,73.4 510.9,36.9 510.8,36.8 510.9,36.7 474.4,0.2 437.9,36.7 437.9,36.8 437.9,36.9 
	"/>
<polygon class="st0" points="510.8,109.9 510.9,109.8 474.4,73.4 474.4,73.4 474.4,73.4 437.9,109.8 437.9,109.9 437.9,110 
	474.3,146.5 474.4,146.4 474.4,146.5 510.9,110 "/>
<polygon class="st0" points="510.8,183 510.9,182.9 474.4,146.5 474.4,146.5 474.3,146.5 437.9,182.9 437.9,183 437.9,183.1 
	474.4,219.6 474.4,219.6 474.4,219.6 510.9,183.1 "/>
<polygon class="st0" points="547.3,73.4 547.3,73.4 583.8,36.9 583.8,36.8 583.8,36.7 547.3,0.2 510.9,36.7 510.9,36.8 510.9,36.9 
	"/>
<polygon class="st0" points="583.8,109.9 583.8,109.8 547.3,73.4 547.3,73.4 547.3,73.4 510.9,109.8 510.9,109.9 510.9,110 
	547.3,146.5 547.3,146.4 547.4,146.5 583.8,110 "/>
<polygon class="st0" points="583.8,183 583.8,182.9 547.4,146.5 547.3,146.5 547.3,146.5 510.9,182.9 510.9,183 510.9,183.1 
	547.3,219.6 547.3,219.6 547.3,219.6 583.8,183.1 "/>
<polygon class="st0" points="620.3,73.4 620.3,73.4 656.8,36.9 656.7,36.8 656.8,36.7 620.3,0.2 583.8,36.7 583.9,36.8 583.8,36.9 
	620.3,73.4 "/>
<polygon class="st0" points="656.7,109.9 656.8,109.8 620.3,73.4 620.3,73.4 620.3,73.4 583.8,109.8 583.9,109.9 583.8,110 
	620.3,146.5 620.3,146.4 620.3,146.5 656.8,110 "/>
<polygon class="st0" points="656.7,183 656.8,182.9 620.3,146.5 620.3,146.5 620.3,146.5 583.8,182.9 583.9,183 583.8,183.1 
	620.3,219.6 620.3,219.6 620.3,219.6 656.8,183.1 "/>
<polygon class="st0" points="693.3,73.4 693.3,73.4 729.8,36.9 729.7,36.8 729.8,36.7 693.3,0.2 656.8,36.7 656.9,36.8 656.8,36.9 
	"/>
<polygon class="st0" points="729.7,109.9 729.8,109.8 693.3,73.4 693.3,73.4 693.3,73.4 656.8,109.8 656.9,109.9 656.8,110 
	693.3,146.5 693.3,146.4 693.3,146.5 729.8,110 "/>
<polygon class="st0" points="729.7,183 729.8,182.9 693.3,146.5 693.3,146.5 693.3,146.5 656.8,182.9 656.9,183 656.8,183.1 
	693.3,219.6 693.3,219.6 693.3,219.6 729.8,183.1 "/>
<polygon class="st0" points="766.3,73.4 766.3,73.4 802.8,36.9 802.7,36.8 802.8,36.7 766.3,0.2 729.8,36.7 729.9,36.8 729.8,36.9 
	"/>
<polygon class="st0" points="802.7,109.9 802.8,109.8 766.3,73.4 766.3,73.4 766.3,73.4 729.8,109.8 729.9,109.9 729.8,110 
	766.3,146.5 766.3,146.4 766.3,146.5 802.8,110 "/>
<polygon class="st0" points="802.7,183 802.8,182.9 766.3,146.5 766.3,146.5 766.3,146.5 729.8,182.9 729.9,183 729.8,183.1 
	766.3,219.6 766.3,219.6 766.3,219.6 802.8,183.1 "/>
<polygon class="st0" points="839.2,73.4 839.2,73.4 875.7,36.9 875.7,36.8 875.7,36.7 839.2,0.2 802.8,36.7 802.8,36.8 802.8,36.9 
	"/>
<polygon class="st0" points="875.7,109.9 875.7,109.8 839.2,73.4 839.2,73.4 839.2,73.4 802.8,109.8 802.8,109.9 802.8,110 
	839.2,146.5 839.2,146.4 839.3,146.5 875.7,110 "/>
<polygon class="st0" points="875.7,183 875.7,182.9 839.3,146.5 839.2,146.5 839.2,146.5 802.8,182.9 802.8,183 802.8,183.1 
	839.2,219.6 839.2,219.6 839.2,219.6 875.7,183.1 "/>
<polygon class="st0" points="912.2,73.4 912.2,73.4 948.7,36.9 948.6,36.8 948.7,36.7 912.2,0.2 875.7,36.7 875.8,36.8 875.7,36.9 
	"/>
<polygon class="st0" points="948.6,109.9 948.7,109.8 912.2,73.4 912.2,73.4 912.2,73.4 875.7,109.8 875.8,109.9 875.7,110 
	912.2,146.5 912.2,146.4 912.2,146.5 948.7,110 "/>
<polygon class="st0" points="948.6,183 948.7,182.9 912.2,146.5 912.2,146.5 912.2,146.5 875.7,182.9 875.8,183 875.7,183.1 
	912.2,219.6 912.2,219.6 912.2,219.6 948.7,183.1 "/>
<polygon class="st0" points="985.2,73.4 985.2,73.4 1021.7,36.9 1021.6,36.8 1021.7,36.7 985.2,0.2 948.7,36.7 948.8,36.8 
	948.7,36.9 "/>
<polygon class="st0" points="1021.6,109.9 1021.7,109.8 985.2,73.4 985.2,73.4 985.2,73.4 948.7,109.8 948.8,109.9 948.7,110 
	985.2,146.5 985.2,146.4 985.2,146.5 1021.7,110 "/>
<polygon class="st0" points="1021.6,183 1021.7,182.9 985.2,146.5 985.2,146.5 985.2,146.5 948.7,182.9 948.8,183 948.7,183.1 
	985.2,219.6 985.2,219.6 985.2,219.6 1021.7,183.1 "/>
<polygon class="st0" points="1058.2,73.4 1058.2,73.4 1094.7,36.9 1094.6,36.8 1094.7,36.7 1058.2,0.2 1021.7,36.7 1021.8,36.8 
	1021.7,36.9 "/>
<polygon class="st0" points="1094.6,109.9 1094.7,109.8 1058.2,73.4 1058.2,73.4 1058.2,73.4 1021.7,109.8 1021.8,109.9 1021.7,110 
	1058.2,146.5 1058.2,146.4 1058.2,146.5 1094.7,110 "/>
<polygon class="st0" points="1094.6,183 1094.7,182.9 1058.2,146.5 1058.2,146.5 1058.2,146.5 1021.7,182.9 1021.8,183 
	1021.7,183.1 1058.2,219.6 1058.2,219.6 1058.2,219.6 1094.7,183.1 "/>
<polygon class="st0" points="1131.2,73.4 1131.2,73.4 1167.6,36.9 1167.6,36.8 1167.6,36.7 1131.2,0.2 1094.7,36.7 1094.7,36.8 
	1094.7,36.9 "/>
<polygon class="st0" points="1167.6,109.9 1167.6,109.8 1131.2,73.4 1131.2,73.4 1131.2,73.4 1094.7,109.8 1094.7,109.9 1094.7,110 
	1131.1,146.5 1131.2,146.4 1131.2,146.5 1167.6,110 "/>
<polygon class="st0" points="1167.6,183 1167.6,182.9 1131.2,146.5 1131.2,146.5 1131.1,146.5 1094.7,182.9 1094.7,183 
	1094.7,183.1 1131.2,219.6 1131.2,219.6 1131.2,219.6 1167.6,183.1 "/>
<polygon class="st0" points="1204.1,73.4 1204.1,73.4 1240.6,36.9 1240.6,36.8 1240.6,36.7 1204.1,0.2 1167.6,36.7 1167.7,36.8 
	1167.6,36.9 "/>
<polygon class="st0" points="1240.6,109.9 1240.6,109.8 1204.1,73.4 1204.1,73.4 1204.1,73.4 1167.6,109.8 1167.7,109.9 1167.6,110 
	1204.1,146.5 1204.1,146.4 1204.2,146.5 1240.6,110 "/>
<polygon class="st0" points="1240.6,183 1240.6,182.9 1204.2,146.5 1204.1,146.5 1204.1,146.5 1167.6,182.9 1167.7,183 
	1167.6,183.1 1204.1,219.6 1204.1,219.6 1204.1,219.6 1240.6,183.1 "/>
<polygon class="st0" points="1277.1,73.4 1277.1,73.4 1313.6,36.9 1313.5,36.8 1313.6,36.7 1277.1,0.2 1240.6,36.7 1240.7,36.8 
	1240.6,36.9 "/>
<polygon class="st0" points="1313.5,109.9 1313.6,109.8 1277.1,73.4 1277.1,73.4 1277.1,73.4 1240.6,109.8 1240.7,109.9 1240.6,110 
	1277.1,146.5 1277.1,146.4 1277.1,146.5 1313.6,110 "/>
<polygon class="st0" points="1313.5,183 1313.6,182.9 1277.1,146.5 1277.1,146.5 1277.1,146.5 1240.6,182.9 1240.7,183 
	1240.6,183.1 1277.1,219.6 1277.1,219.6 1277.1,219.6 1313.6,183.1 "/>
<polygon class="st0" points="1350.1,73.4 1350.1,73.4 1386.6,36.9 1386.5,36.8 1386.6,36.7 1350.1,0.2 1313.6,36.7 1313.7,36.8 
	1313.6,36.9 "/>
<polygon class="st0" points="1386.5,109.9 1386.6,109.8 1350.1,73.4 1350.1,73.4 1350.1,73.4 1313.6,109.8 1313.7,109.9 1313.6,110 
	1350.1,146.5 1350.1,146.4 1350.1,146.5 1386.6,110 "/>
<polygon class="st0" points="1386.5,183 1386.6,182.9 1350.1,146.5 1350.1,146.5 1350.1,146.5 1313.6,182.9 1313.7,183 
	1313.6,183.1 1350.1,219.6 1350.1,219.6 1350.1,219.6 1386.6,183.1 "/>
<polygon class="st0" points="1423.1,73.4 1423.1,73.4 1459.6,36.9 1459.5,36.8 1459.6,36.7 1423.1,0.2 1386.6,36.7 1386.7,36.8 
	1386.6,36.9 "/>
<polygon class="st0" points="1459.5,109.9 1459.6,109.8 1423.1,73.4 1423.1,73.4 1423.1,73.4 1386.6,109.8 1386.7,109.9 1386.6,110 
	1423.1,146.5 1423.1,146.4 1423.1,146.5 1459.6,110 "/>
<polygon class="st0" points="1459.5,183 1459.6,182.9 1423.1,146.5 1423.1,146.5 1423.1,146.5 1386.6,182.9 1386.7,183 
	1386.6,183.1 1423.1,219.6 1423.1,219.6 1423.1,219.6 1459.6,183.1 "/>
<polygon class="st0" points="1496,73.4 1496,73.4 1532.5,36.9 1532.5,36.8 1532.5,36.7 1496,0.2 1459.6,36.7 1459.6,36.8 
	1459.6,36.9 "/>
<polygon class="st0" points="1532.5,109.9 1532.5,109.8 1496,73.4 1496,73.4 1496,73.4 1459.6,109.8 1459.6,109.9 1459.6,110 
	1496,146.5 1496,146.4 1496.1,146.5 1532.5,110 "/>
<polygon class="st0" points="1532.5,183 1532.5,182.9 1496.1,146.5 1496,146.5 1496,146.5 1459.6,182.9 1459.6,183 1459.6,183.1 
	1496,219.6 1496,219.6 1496,219.6 1532.5,183.1 "/>
<polygon class="st0" points="1569,73.4 1569,73.4 1605.5,36.9 1605.4,36.8 1605.5,36.7 1569,0.2 1532.5,36.7 1532.6,36.8 
	1532.5,36.9 "/>
<polygon class="st0" points="1605.4,109.9 1605.5,109.8 1569,73.4 1569,73.4 1569,73.4 1532.5,109.8 1532.6,109.9 1532.5,110 
	1569,146.5 1569,146.4 1569,146.5 1605.5,110 "/>
<polygon class="st0" points="1605.4,183 1605.5,182.9 1569,146.5 1569,146.5 1569,146.5 1532.5,182.9 1532.6,183 1532.5,183.1 
	1569,219.6 1569,219.6 1569,219.6 1605.5,183.1 "/>
<polygon class="st0" points="1642,73.4 1642,73.4 1678.5,36.9 1678.4,36.8 1678.5,36.7 1642,0.2 1605.5,36.7 1605.6,36.8 
	1605.5,36.9 "/>
<polygon class="st0" points="1678.4,109.9 1678.5,109.8 1642,73.4 1642,73.4 1642,73.4 1605.5,109.8 1605.6,109.9 1605.5,110 
	1642,146.5 1642,146.4 1642,146.5 1678.5,110 "/>
<polygon class="st0" points="1678.4,183 1678.5,182.9 1642,146.5 1642,146.5 1642,146.5 1605.5,182.9 1605.6,183 1605.5,183.1 
	1642,219.6 1642,219.6 1642,219.6 1678.5,183.1 "/>
<polygon class="st0" points="1715,73.4 1715,73.4 1751.5,36.9 1751.4,36.8 1751.5,36.7 1715,0.2 1678.5,36.7 1678.6,36.8 
	1678.5,36.9 "/>
<polygon class="st0" points="1751.4,109.9 1751.5,109.8 1715,73.4 1715,73.4 1715,73.4 1678.5,109.8 1678.6,109.9 1678.5,110 
	1715,146.5 1715,146.4 1715,146.5 1751.5,110 "/>
<polygon class="st0" points="1751.4,183 1751.5,182.9 1715,146.5 1715,146.5 1715,146.5 1678.5,182.9 1678.6,183 1678.5,183.1 
	1715,219.6 1715,219.6 1715,219.6 1751.5,183.1 "/>
<polygon class="st0" points="1788,73.4 1788,73.4 1824.4,36.9 1824.4,36.8 1824.4,36.7 1788,0.2 1751.5,36.7 1751.5,36.8 
	1751.5,36.9 "/>
<polygon class="st0" points="1824.4,109.9 1824.4,109.8 1788,73.4 1788,73.4 1788,73.4 1751.5,109.8 1751.5,109.9 1751.5,110 
	1787.9,146.5 1788,146.4 1788,146.5 1824.4,110 "/>
<polygon class="st0" points="1824.4,183 1824.4,182.9 1788,146.5 1788,146.5 1787.9,146.5 1751.5,182.9 1751.5,183 1751.5,183.1 
	1788,219.6 1788,219.6 1788,219.6 1824.4,183.1 "/>
<polygon class="st0" points="72.9,256.1 73,256 36.5,219.6 36.5,219.6 36.5,219.6 0,256 0.1,256.1 0,256.2 36.5,292.7 36.5,292.7 
	36.5,292.7 73,256.2 "/>
<polygon class="st0" points="145.9,256.1 146,256 109.5,219.6 109.5,219.6 109.5,219.6 73,256 73.1,256.1 73,256.2 109.5,292.7 
	109.5,292.7 109.5,292.7 146,256.2 "/>
<polygon class="st0" points="218.9,256.1 218.9,256 182.5,219.6 182.4,219.6 182.4,219.6 146,256 146,256.1 146,256.2 182.4,292.7 
	182.4,292.7 182.4,292.7 218.9,256.2 "/>
<polygon class="st0" points="291.8,256.1 291.9,256 255.4,219.6 255.4,219.6 255.4,219.6 218.9,256 219,256.1 218.9,256.2 
	255.4,292.7 255.4,292.7 255.4,292.7 291.9,256.2 "/>
<polygon class="st0" points="364.8,256.1 364.9,256 328.4,219.6 328.4,219.6 328.4,219.6 291.9,256 292,256.1 291.9,256.2 
	328.4,292.7 328.4,292.7 328.4,292.7 364.9,256.2 "/>
<polygon class="st0" points="437.8,256.1 437.9,256 401.4,219.6 401.4,219.6 401.4,219.6 364.9,256 365,256.1 364.9,256.2 
	401.4,292.7 401.4,292.7 401.4,292.7 437.9,256.2 "/>
<polygon class="st0" points="510.8,256.1 510.9,256 474.4,219.6 474.4,219.6 474.3,219.6 437.9,256 437.9,256.1 437.9,256.2 
	474.4,292.7 474.4,292.7 474.4,292.7 510.9,256.2 "/>
<polygon class="st0" points="583.8,256.1 583.8,256 547.4,219.6 547.3,219.6 547.3,219.6 510.9,256 510.9,256.1 510.9,256.2 
	547.3,292.7 547.3,292.7 547.3,292.7 583.8,256.2 "/>
<polygon class="st0" points="656.7,256.1 656.8,256 620.3,219.6 620.3,219.6 620.3,219.6 583.8,256 583.9,256.1 583.8,256.2 
	620.3,292.7 620.3,292.7 620.3,292.7 656.8,256.2 "/>
<polygon class="st0" points="729.7,256.1 729.8,256 693.3,219.6 693.3,219.6 693.3,219.6 656.8,256 656.9,256.1 656.8,256.2 
	693.3,292.7 693.3,292.7 693.3,292.7 729.8,256.2 "/>
<polygon class="st0" points="802.7,256.1 802.8,256 766.3,219.6 766.3,219.6 766.3,219.6 729.8,256 729.9,256.1 729.8,256.2 
	766.3,292.7 766.3,292.7 766.3,292.7 802.8,256.2 "/>
<polygon class="st0" points="875.7,256.1 875.7,256 839.3,219.6 839.2,219.6 839.2,219.6 802.8,256 802.8,256.1 802.8,256.2 
	839.2,292.7 839.2,292.7 839.2,292.7 875.7,256.2 "/>
<polygon class="st0" points="948.6,256.1 948.7,256 912.2,219.6 912.2,219.6 912.2,219.6 875.7,256 875.8,256.1 875.7,256.2 
	912.2,292.7 912.2,292.7 912.2,292.7 948.7,256.2 "/>
<polygon class="st0" points="1021.6,256.1 1021.7,256 985.2,219.6 985.2,219.6 985.2,219.6 948.7,256 948.8,256.1 948.7,256.2 
	985.2,292.7 985.2,292.7 985.2,292.7 1021.7,256.2 "/>
<polygon class="st0" points="1094.6,256.1 1094.7,256 1058.2,219.6 1058.2,219.6 1058.2,219.6 1021.7,256 1021.8,256.1 
	1021.7,256.2 1058.2,292.7 1058.2,292.7 1058.2,292.7 1094.7,256.2 "/>
<polygon class="st0" points="1167.6,256.1 1167.6,256 1131.2,219.6 1131.2,219.6 1131.1,219.6 1094.7,256 1094.7,256.1 
	1094.7,256.2 1131.2,292.7 1131.2,292.7 1131.2,292.7 1167.6,256.2 "/>
<polygon class="st0" points="1240.6,256.1 1240.6,256 1204.2,219.6 1204.1,219.6 1204.1,219.6 1167.6,256 1167.7,256.1 
	1167.6,256.2 1204.1,292.7 1204.1,292.7 1204.1,292.7 1240.6,256.2 "/>
<polygon class="st0" points="1313.5,256.1 1313.6,256 1277.1,219.6 1277.1,219.6 1277.1,219.6 1240.6,256 1240.7,256.1 
	1240.6,256.2 1277.1,292.7 1277.1,292.7 1277.1,292.7 1313.6,256.2 "/>
<polygon class="st0" points="1386.5,256.1 1386.6,256 1350.1,219.6 1350.1,219.6 1350.1,219.6 1313.6,256 1313.7,256.1 
	1313.6,256.2 1350.1,292.7 1350.1,292.7 1350.1,292.7 1386.6,256.2 "/>
<polygon class="st0" points="1459.5,256.1 1459.6,256 1423.1,219.6 1423.1,219.6 1423.1,219.6 1386.6,256 1386.7,256.1 
	1386.6,256.2 1423.1,292.7 1423.1,292.7 1423.1,292.7 1459.6,256.2 "/>
<polygon class="st0" points="1532.5,256.1 1532.5,256 1496.1,219.6 1496,219.6 1496,219.6 1459.6,256 1459.6,256.1 1459.6,256.2 
	1496,292.7 1496,292.7 1496,292.7 1532.5,256.2 "/>
<polygon class="st0" points="1605.4,256.1 1605.5,256 1569,219.6 1569,219.6 1569,219.6 1532.5,256 1532.6,256.1 1532.5,256.2 
	1569,292.7 1569,292.7 1569,292.7 1605.5,256.2 "/>
<polygon class="st0" points="1678.4,256.1 1678.5,256 1642,219.6 1642,219.6 1642,219.6 1605.5,256 1605.6,256.1 1605.5,256.2 
	1642,292.7 1642,292.7 1642,292.7 1678.5,256.2 "/>
<polygon class="st0" points="1751.4,256.1 1751.5,256 1715,219.6 1715,219.6 1715,219.6 1678.5,256 1678.6,256.1 1678.5,256.2 
	1715,292.7 1715,292.7 1715,292.7 1751.5,256.2 "/>
<polygon class="st0" points="1824.4,256.1 1824.4,256 1788,219.6 1788,219.6 1787.9,219.6 1751.5,256 1751.5,256.1 1751.5,256.2 
	1788,292.7 1788,292.7 1788,292.7 1824.4,256.2 "/>
</svg>
