<?xml version="1.0" encoding="utf-8"?>
<!-- Generator: Adobe Illustrator 27.3.1, SVG Export Plug-In . SVG Version: 6.00 Build 0)  -->
<svg version="1.1" id="Layer_1" xmlns="http://www.w3.org/2000/svg" xmlns:xlink="http://www.w3.org/1999/xlink" x="0px" y="0px"
	 viewBox="0 0 4876.1 142" style="enable-background:new 0 0 4876.1 142;" xml:space="preserve">
<style type="text/css">
	.st0{fill:none;stroke:#E50416;stroke-width:2;stroke-miterlimit:10;}
</style>
<g>
	<path class="st0" d="M52.3,46.9c3.9-7.1,9.3-12.6,16.3-16.5c7-3.9,14.9-5.9,23.7-5.9c10.8,0,20.1,2.9,27.8,8.6
		c7.7,5.7,12.9,13.5,15.5,23.4h-24.4c-1.8-3.8-4.4-6.7-7.7-8.7c-3.3-2-7.1-3-11.4-3c-6.8,0-12.4,2.4-16.6,7.1
		c-4.2,4.8-6.4,11.1-6.4,19.1c0,8,2.1,14.3,6.4,19.1c4.2,4.8,9.8,7.1,16.6,7.1c4.2,0,8-1,11.4-3c3.3-2,5.9-4.9,7.7-8.7h24.4
		c-2.6,9.9-7.8,17.7-15.5,23.3c-7.7,5.7-17,8.5-27.8,8.5c-8.8,0-16.8-2-23.7-5.9c-7-3.9-12.4-9.4-16.3-16.4s-5.9-15-5.9-24
		C46.5,62,48.4,54,52.3,46.9z"/>
	<path class="st0" d="M195.9,116.8l-19-34.5h-5.3v34.5h-22.2V25.6h37.3c7.2,0,13.3,1.3,18.4,3.8c5.1,2.5,8.9,6,11.4,10.3
		c2.5,4.4,3.8,9.3,3.8,14.6c0,6.1-1.7,11.5-5.1,16.2c-3.4,4.8-8.5,8.1-15.1,10.1l21.1,36.1H195.9z M171.5,66.6h13.8
		c4.1,0,7.1-1,9.2-3c2-2,3.1-4.8,3.1-8.5c0-3.5-1-6.2-3.1-8.2c-2-2-5.1-3-9.2-3h-13.8V66.6z"/>
	<path class="st0" d="M256.3,43.4v18.5h29.8V79h-29.8v20H290v17.8h-55.9V25.6H290v17.8H256.3z"/>
	<path class="st0" d="M361.2,100.7h-34.1l-5.5,16.1h-23.3l33-91.3h25.7l33,91.3h-23.5L361.2,100.7z M355.5,83.5l-11.3-33.4L333,83.5
		H355.5z"/>
	<path class="st0" d="M503.6,25.6v91.3h-22.2V62.1l-20.4,54.7H443L422.4,62v54.9h-22.2V25.6h26.3l25.6,63.2l25.4-63.2H503.6z"/>
	<path class="st0" d="M615.1,77.9c3.2,4.1,4.8,8.8,4.8,14.1c0,7.6-2.7,13.7-8,18.1c-5.3,4.5-12.8,6.7-22.3,6.7h-42.5V25.6h41.1
		c9.3,0,16.5,2.1,21.8,6.4c5.2,4.2,7.9,10,7.9,17.3c0,5.4-1.4,9.8-4.2,13.4c-2.8,3.6-6.6,6-11.2,7.4
		C607.6,71.1,611.9,73.8,615.1,77.9z M569.3,62.5h14.6c3.6,0,6.4-0.8,8.4-2.4c1.9-1.6,2.9-4,2.9-7.1s-1-5.5-2.9-7.1
		c-2-1.6-4.7-2.5-8.4-2.5h-14.6V62.5z M594.4,96.3c2-1.7,3.1-4.1,3.1-7.3c0-3.2-1.1-5.7-3.2-7.5c-2.1-1.8-5-2.7-8.8-2.7h-16.1v20.1
		h16.4C589.4,98.9,592.3,98,594.4,96.3z"/>
	<path class="st0" d="M679.3,116.8l-19-34.5H655v34.5h-22.2V25.6h37.3c7.2,0,13.3,1.3,18.4,3.8c5.1,2.5,8.9,6,11.4,10.3
		c2.5,4.4,3.8,9.3,3.8,14.6c0,6.1-1.7,11.5-5.1,16.2c-3.4,4.8-8.5,8.1-15.1,10.1l21.1,36.1H679.3z M655,66.6h13.8c4.1,0,7.1-1,9.2-3
		c2-2,3.1-4.8,3.1-8.5c0-3.5-1-6.2-3.1-8.2c-2-2-5.1-3-9.2-3H655V66.6z"/>
	<path class="st0" d="M739.8,43.4v18.5h29.8V79h-29.8v20h33.7v17.8h-55.9V25.6h55.9v17.8H739.8z"/>
	<path class="st0" d="M810.1,99.7h29.1v17.2h-51.4V25.6h22.2V99.7z"/>
	<path class="st0" d="M872.1,99.7h29.1v17.2h-51.4V25.6h22.2V99.7z"/>
	<path class="st0" d="M934.1,43.4v18.5h29.8V79h-29.8v20h33.7v17.8h-55.9V25.6h55.9v17.8H934.1z"/>
	<path class="st0" d="M1011.8,46.9c3.9-7.1,9.3-12.6,16.3-16.5c7-3.9,14.9-5.9,23.7-5.9c10.8,0,20.1,2.9,27.8,8.6
		c7.7,5.7,12.9,13.5,15.5,23.4h-24.4c-1.8-3.8-4.4-6.7-7.7-8.7c-3.3-2-7.1-3-11.4-3c-6.8,0-12.4,2.4-16.6,7.1
		c-4.2,4.8-6.4,11.1-6.4,19.1c0,8,2.1,14.3,6.4,19.1c4.2,4.8,9.8,7.1,16.6,7.1c4.2,0,8-1,11.4-3c3.3-2,5.9-4.9,7.7-8.7h24.4
		c-2.6,9.9-7.8,17.7-15.5,23.3c-7.7,5.7-17,8.5-27.8,8.5c-8.8,0-16.7-2-23.7-5.9c-7-3.9-12.4-9.4-16.3-16.4c-3.9-7-5.8-15-5.8-24
		C1006,62,1007.9,54,1011.8,46.9z"/>
	<path class="st0" d="M1155.4,116.8l-19-34.5h-5.3v34.5h-22.2V25.6h37.3c7.2,0,13.3,1.3,18.4,3.8c5.1,2.5,8.9,6,11.4,10.3
		c2.5,4.4,3.8,9.3,3.8,14.6c0,6.1-1.7,11.5-5.1,16.2c-3.4,4.8-8.5,8.1-15.1,10.1l21.1,36.1H1155.4z M1131.1,66.6h13.8
		c4.1,0,7.1-1,9.2-3c2-2,3.1-4.8,3.1-8.5c0-3.5-1-6.2-3.1-8.2c-2-2-5.1-3-9.2-3h-13.8V66.6z"/>
	<path class="st0" d="M1215.8,43.4v18.5h29.8V79h-29.8v20h33.7v17.8h-55.9V25.6h55.9v17.8H1215.8z"/>
	<path class="st0" d="M1320.7,100.7h-34.1l-5.5,16.1h-23.3l33-91.3h25.7l33,91.3h-23.5L1320.7,100.7z M1315,83.5l-11.3-33.4
		l-11.2,33.4H1315z"/>
	<path class="st0" d="M1463.1,25.6v91.3h-22.2V62.1l-20.4,54.7h-17.9L1382,62v54.9h-22.2V25.6h26.3l25.6,63.2l25.4-63.2H1463.1z"/>
	<path class="st0" d="M1574.6,77.9c3.2,4.1,4.8,8.8,4.8,14.1c0,7.6-2.7,13.7-8,18.1c-5.3,4.5-12.8,6.7-22.3,6.7h-42.5V25.6h41.1
		c9.3,0,16.5,2.1,21.8,6.4c5.2,4.2,7.9,10,7.9,17.3c0,5.4-1.4,9.8-4.2,13.4c-2.8,3.6-6.6,6-11.2,7.4
		C1567.2,71.1,1571.4,73.8,1574.6,77.9z M1528.9,62.5h14.6c3.6,0,6.4-0.8,8.4-2.4c1.9-1.6,2.9-4,2.9-7.1s-1-5.5-2.9-7.1
		c-2-1.6-4.7-2.5-8.4-2.5h-14.6V62.5z M1553.9,96.3c2-1.7,3.1-4.1,3.1-7.3c0-3.2-1.1-5.7-3.2-7.5c-2.1-1.8-5-2.7-8.8-2.7h-16.1v20.1
		h16.4C1549,98.9,1551.8,98,1553.9,96.3z"/>
	<path class="st0" d="M1638.8,116.8l-19-34.5h-5.3v34.5h-22.2V25.6h37.3c7.2,0,13.3,1.3,18.4,3.8c5.1,2.5,8.9,6,11.4,10.3
		c2.5,4.4,3.8,9.3,3.8,14.6c0,6.1-1.7,11.5-5.1,16.2c-3.4,4.8-8.5,8.1-15.1,10.1l21.1,36.1H1638.8z M1614.5,66.6h13.8
		c4.1,0,7.1-1,9.2-3c2-2,3.1-4.8,3.1-8.5c0-3.5-1-6.2-3.1-8.2c-2-2-5.1-3-9.2-3h-13.8V66.6z"/>
	<path class="st0" d="M1699.3,43.4v18.5h29.8V79h-29.8v20h33.7v17.8h-55.9V25.6h55.9v17.8H1699.3z"/>
	<path class="st0" d="M1769.6,99.7h29.1v17.2h-51.4V25.6h22.2V99.7z"/>
	<path class="st0" d="M1831.6,99.7h29.1v17.2h-51.4V25.6h22.2V99.7z"/>
	<path class="st0" d="M1893.6,43.4v18.5h29.8V79h-29.8v20h33.7v17.8h-55.9V25.6h55.9v17.8H1893.6z"/>
	<path class="st0" d="M1971.4,46.9c3.9-7.1,9.3-12.6,16.3-16.5c7-3.9,14.9-5.9,23.7-5.9c10.8,0,20.1,2.9,27.8,8.6
		c7.7,5.7,12.9,13.5,15.5,23.4h-24.4c-1.8-3.8-4.4-6.7-7.7-8.7c-3.3-2-7.1-3-11.4-3c-6.8,0-12.4,2.4-16.6,7.1
		c-4.2,4.8-6.4,11.1-6.4,19.1c0,8,2.1,14.3,6.4,19.1c4.2,4.8,9.8,7.1,16.6,7.1c4.2,0,8-1,11.4-3c3.3-2,5.9-4.9,7.7-8.7h24.4
		c-2.6,9.9-7.8,17.7-15.5,23.3c-7.7,5.7-17,8.5-27.8,8.5c-8.8,0-16.7-2-23.7-5.9c-7-3.9-12.4-9.4-16.3-16.4c-3.9-7-5.8-15-5.8-24
		C1965.5,62,1967.5,54,1971.4,46.9z"/>
	<path class="st0" d="M2114.9,116.8l-19-34.5h-5.3v34.5h-22.2V25.6h37.3c7.2,0,13.3,1.3,18.4,3.8c5.1,2.5,8.9,6,11.4,10.3
		c2.5,4.4,3.8,9.3,3.8,14.6c0,6.1-1.7,11.5-5.1,16.2c-3.4,4.8-8.5,8.1-15.1,10.1l21.1,36.1H2114.9z M2090.6,66.6h13.8
		c4.1,0,7.1-1,9.2-3c2-2,3.1-4.8,3.1-8.5c0-3.5-1-6.2-3.1-8.2c-2-2-5.1-3-9.2-3h-13.8V66.6z"/>
	<path class="st0" d="M2175.3,43.4v18.5h29.8V79h-29.8v20h33.7v17.8h-55.9V25.6h55.9v17.8H2175.3z"/>
	<path class="st0" d="M2280.2,100.7h-34.1l-5.5,16.1h-23.3l33-91.3h25.7l33,91.3h-23.5L2280.2,100.7z M2274.5,83.5l-11.3-33.4
		L2252,83.5H2274.5z"/>
	<path class="st0" d="M2422.6,25.6v91.3h-22.2V62.1l-20.4,54.7H2362L2341.5,62v54.9h-22.2V25.6h26.3l25.6,63.2l25.4-63.2H2422.6z"/>
	<path class="st0" d="M2534.1,77.9c3.2,4.1,4.8,8.8,4.8,14.1c0,7.6-2.7,13.7-8,18.1c-5.3,4.5-12.8,6.7-22.3,6.7h-42.5V25.6h41.1
		c9.3,0,16.5,2.1,21.8,6.4c5.2,4.2,7.9,10,7.9,17.3c0,5.4-1.4,9.8-4.2,13.4c-2.8,3.6-6.6,6-11.2,7.4
		C2526.7,71.1,2530.9,73.8,2534.1,77.9z M2488.4,62.5h14.6c3.6,0,6.4-0.8,8.4-2.4c1.9-1.6,2.9-4,2.9-7.1s-1-5.5-2.9-7.1
		c-2-1.6-4.7-2.5-8.4-2.5h-14.6V62.5z M2513.4,96.3c2-1.7,3.1-4.1,3.1-7.3c0-3.2-1.1-5.7-3.2-7.5c-2.1-1.8-5-2.7-8.8-2.7h-16.1v20.1
		h16.4C2508.5,98.9,2511.4,98,2513.4,96.3z"/>
	<path class="st0" d="M2598.3,116.8l-19-34.5h-5.3v34.5h-22.2V25.6h37.3c7.2,0,13.3,1.3,18.4,3.8c5.1,2.5,8.9,6,11.4,10.3
		c2.5,4.4,3.8,9.3,3.8,14.6c0,6.1-1.7,11.5-5.1,16.2c-3.4,4.8-8.5,8.1-15.1,10.1l21.1,36.1H2598.3z M2574,66.6h13.8
		c4.1,0,7.1-1,9.2-3c2-2,3.1-4.8,3.1-8.5c0-3.5-1-6.2-3.1-8.2c-2-2-5.1-3-9.2-3H2574V66.6z"/>
	<path class="st0" d="M2658.8,43.4v18.5h29.8V79h-29.8v20h33.7v17.8h-55.9V25.6h55.9v17.8H2658.8z"/>
	<path class="st0" d="M2729.1,99.7h29.1v17.2h-51.4V25.6h22.2V99.7z"/>
	<path class="st0" d="M2791.1,99.7h29.1v17.2h-51.4V25.6h22.2V99.7z"/>
	<path class="st0" d="M2853.1,43.4v18.5h29.8V79h-29.8v20h33.7v17.8h-55.9V25.6h55.9v17.8H2853.1z"/>
	<path class="st0" d="M2930.9,46.9c3.9-7.1,9.3-12.6,16.3-16.5c7-3.9,14.9-5.9,23.7-5.9c10.8,0,20.1,2.9,27.8,8.6
		c7.7,5.7,12.9,13.5,15.5,23.4h-24.4c-1.8-3.8-4.4-6.7-7.7-8.7c-3.3-2-7.1-3-11.4-3c-6.8,0-12.4,2.4-16.6,7.1
		c-4.2,4.8-6.4,11.1-6.4,19.1c0,8,2.1,14.3,6.4,19.1c4.2,4.8,9.8,7.1,16.6,7.1c4.2,0,8-1,11.4-3c3.3-2,5.9-4.9,7.7-8.7h24.4
		c-2.6,9.9-7.8,17.7-15.5,23.3c-7.7,5.7-17,8.5-27.8,8.5c-8.8,0-16.7-2-23.7-5.9c-7-3.9-12.4-9.4-16.3-16.4c-3.9-7-5.8-15-5.8-24
		C2925,62,2927,54,2930.9,46.9z"/>
	<path class="st0" d="M3074.4,116.8l-19-34.5h-5.3v34.5h-22.2V25.6h37.3c7.2,0,13.3,1.3,18.4,3.8c5.1,2.5,8.9,6,11.4,10.3
		c2.5,4.4,3.8,9.3,3.8,14.6c0,6.1-1.7,11.5-5.1,16.2c-3.4,4.8-8.5,8.1-15.1,10.1l21.1,36.1H3074.4z M3050.1,66.6h13.8
		c4.1,0,7.1-1,9.2-3c2-2,3.1-4.8,3.1-8.5c0-3.5-1-6.2-3.1-8.2c-2-2-5.1-3-9.2-3h-13.8V66.6z"/>
	<path class="st0" d="M3134.8,43.4v18.5h29.8V79h-29.8v20h33.7v17.8h-55.9V25.6h55.9v17.8H3134.8z"/>
	<path class="st0" d="M3239.8,100.7h-34.1l-5.5,16.1H3177l33-91.3h25.7l33,91.3h-23.5L3239.8,100.7z M3234,83.5l-11.3-33.4
		l-11.2,33.4H3234z"/>
	<path class="st0" d="M3382.1,25.6v91.3h-22.2V62.1l-20.4,54.7h-17.9L3301,62v54.9h-22.2V25.6h26.3l25.6,63.2l25.4-63.2H3382.1z"/>
	<path class="st0" d="M3493.6,77.9c3.2,4.1,4.8,8.8,4.8,14.1c0,7.6-2.7,13.7-8,18.1c-5.3,4.5-12.8,6.7-22.3,6.7h-42.5V25.6h41.1
		c9.3,0,16.5,2.1,21.8,6.4c5.2,4.2,7.9,10,7.9,17.3c0,5.4-1.4,9.8-4.2,13.4c-2.8,3.6-6.6,6-11.2,7.4
		C3486.2,71.1,3490.4,73.8,3493.6,77.9z M3447.9,62.5h14.6c3.6,0,6.4-0.8,8.4-2.4c1.9-1.6,2.9-4,2.9-7.1s-1-5.5-2.9-7.1
		c-2-1.6-4.7-2.5-8.4-2.5h-14.6V62.5z M3472.9,96.3c2-1.7,3.1-4.1,3.1-7.3c0-3.2-1.1-5.7-3.2-7.5c-2.1-1.8-5-2.7-8.8-2.7h-16.1v20.1
		h16.4C3468,98.9,3470.9,98,3472.9,96.3z"/>
	<path class="st0" d="M3557.9,116.8l-19-34.5h-5.3v34.5h-22.2V25.6h37.3c7.2,0,13.3,1.3,18.4,3.8c5.1,2.5,8.9,6,11.4,10.3
		c2.5,4.4,3.8,9.3,3.8,14.6c0,6.1-1.7,11.5-5.1,16.2c-3.4,4.8-8.5,8.1-15.1,10.1l21.1,36.1H3557.9z M3533.6,66.6h13.8
		c4.1,0,7.1-1,9.2-3c2-2,3.1-4.8,3.1-8.5c0-3.5-1-6.2-3.1-8.2c-2-2-5.1-3-9.2-3h-13.8V66.6z"/>
	<path class="st0" d="M3618.3,43.4v18.5h29.8V79h-29.8v20h33.7v17.8h-55.9V25.6h55.9v17.8H3618.3z"/>
	<path class="st0" d="M3688.6,99.7h29.1v17.2h-51.4V25.6h22.2V99.7z"/>
	<path class="st0" d="M3750.7,99.7h29.1v17.2h-51.4V25.6h22.2V99.7z"/>
	<path class="st0" d="M3812.7,43.4v18.5h29.8V79h-29.8v20h33.7v17.8h-55.9V25.6h55.9v17.8H3812.7z"/>
	<path class="st0" d="M3890.4,46.9c3.9-7.1,9.3-12.6,16.3-16.5c7-3.9,14.9-5.9,23.7-5.9c10.8,0,20.1,2.9,27.8,8.6
		c7.7,5.7,12.9,13.5,15.5,23.4h-24.4c-1.8-3.8-4.4-6.7-7.7-8.7c-3.3-2-7.1-3-11.4-3c-6.8,0-12.4,2.4-16.6,7.1
		c-4.2,4.8-6.4,11.1-6.4,19.1c0,8,2.1,14.3,6.4,19.1c4.2,4.8,9.8,7.1,16.6,7.1c4.2,0,8-1,11.4-3c3.3-2,5.9-4.9,7.7-8.7h24.4
		c-2.6,9.9-7.8,17.7-15.5,23.3c-7.7,5.7-17,8.5-27.8,8.5c-8.8,0-16.7-2-23.7-5.9c-7-3.9-12.4-9.4-16.3-16.4c-3.9-7-5.8-15-5.8-24
		C3884.5,62,3886.5,54,3890.4,46.9z"/>
	<path class="st0" d="M4033.9,116.8l-19-34.5h-5.3v34.5h-22.2V25.6h37.3c7.2,0,13.3,1.3,18.4,3.8c5.1,2.5,8.9,6,11.4,10.3
		c2.5,4.4,3.8,9.3,3.8,14.6c0,6.1-1.7,11.5-5.1,16.2c-3.4,4.8-8.5,8.1-15.1,10.1l21.1,36.1H4033.9z M4009.6,66.6h13.8
		c4.1,0,7.1-1,9.2-3c2-2,3.1-4.8,3.1-8.5c0-3.5-1-6.2-3.1-8.2c-2-2-5.1-3-9.2-3h-13.8V66.6z"/>
	<path class="st0" d="M4094.4,43.4v18.5h29.8V79h-29.8v20h33.7v17.8h-55.9V25.6h55.9v17.8H4094.4z"/>
	<path class="st0" d="M4199.3,100.7h-34.1l-5.5,16.1h-23.3l33-91.3h25.7l33,91.3h-23.5L4199.3,100.7z M4193.6,83.5l-11.3-33.4
		l-11.2,33.4H4193.6z"/>
	<path class="st0" d="M4341.6,25.6v91.3h-22.2V62.1l-20.4,54.7H4281L4260.5,62v54.9h-22.2V25.6h26.3l25.6,63.2l25.4-63.2H4341.6z"/>
	<path class="st0" d="M4453.2,77.9c3.2,4.1,4.8,8.8,4.8,14.1c0,7.6-2.7,13.7-8,18.1c-5.3,4.5-12.8,6.7-22.3,6.7h-42.5V25.6h41.1
		c9.3,0,16.5,2.1,21.8,6.4c5.2,4.2,7.9,10,7.9,17.3c0,5.4-1.4,9.8-4.2,13.4c-2.8,3.6-6.6,6-11.2,7.4
		C4445.7,71.1,4450,73.8,4453.2,77.9z M4407.4,62.5h14.6c3.6,0,6.4-0.8,8.4-2.4c1.9-1.6,2.9-4,2.9-7.1s-1-5.5-2.9-7.1
		c-2-1.6-4.7-2.5-8.4-2.5h-14.6V62.5z M4432.4,96.3c2-1.7,3.1-4.1,3.1-7.3c0-3.2-1.1-5.7-3.2-7.5c-2.1-1.8-5-2.7-8.8-2.7h-16.1v20.1
		h16.4C4427.5,98.9,4430.4,98,4432.4,96.3z"/>
	<path class="st0" d="M4517.4,116.8l-19-34.5h-5.3v34.5h-22.2V25.6h37.3c7.2,0,13.3,1.3,18.4,3.8c5.1,2.5,8.9,6,11.4,10.3
		c2.5,4.4,3.8,9.3,3.8,14.6c0,6.1-1.7,11.5-5.1,16.2c-3.4,4.8-8.5,8.1-15.1,10.1l21.1,36.1H4517.4z M4493.1,66.6h13.8
		c4.1,0,7.1-1,9.2-3c2-2,3.1-4.8,3.1-8.5c0-3.5-1-6.2-3.1-8.2c-2-2-5.1-3-9.2-3h-13.8V66.6z"/>
	<path class="st0" d="M4577.8,43.4v18.5h29.8V79h-29.8v20h33.7v17.8h-55.9V25.6h55.9v17.8H4577.8z"/>
	<path class="st0" d="M4648.2,99.7h29.1v17.2h-51.4V25.6h22.2V99.7z"/>
	<path class="st0" d="M4710.2,99.7h29.1v17.2h-51.4V25.6h22.2V99.7z"/>
	<path class="st0" d="M4772.2,43.4v18.5h29.8V79h-29.8v20h33.7v17.8h-55.9V25.6h55.9v17.8H4772.2z"/>
</g>
</svg>
