<?xml version="1.0" encoding="utf-8"?>
<!-- Generator: Adobe Illustrator 27.3.1, SVG Export Plug-In . SVG Version: 6.00 Build 0)  -->
<svg version="1.1" id="Layer_1" xmlns="http://www.w3.org/2000/svg" xmlns:xlink="http://www.w3.org/1999/xlink" x="0px" y="0px"
	 viewBox="0 0 4876.1 142" style="enable-background:new 0 0 4876.1 142;" xml:space="preserve">
<style type="text/css">
	.st0{fill:#E50416;}
</style>
<g>
	<path class="st0" d="M85,78.4c3.5,4.4,5.2,9.5,5.2,15.2c0,8.2-2.9,14.7-8.6,19.5c-5.7,4.8-13.7,7.2-24,7.2H11.8V22.1H56
		c10,0,17.8,2.3,23.5,6.9c5.6,4.6,8.5,10.8,8.5,18.6c0,5.8-1.5,10.6-4.5,14.4c-3,3.8-7.1,6.5-12.1,8C77,71.2,81.5,74,85,78.4z
		 M35.7,61.8h15.7c3.9,0,6.9-0.9,9-2.6c2.1-1.7,3.2-4.3,3.2-7.6c0-3.4-1-5.9-3.2-7.7c-2.1-1.8-5.1-2.7-9-2.7H35.7V61.8z M62.7,98.3
		c2.2-1.8,3.3-4.5,3.3-7.9c0-3.5-1.1-6.2-3.4-8.1c-2.3-2-5.4-2.9-9.5-2.9H35.7V101h17.6C57.4,101,60.5,100.1,62.7,98.3z"/>
	<path class="st0" d="M127.5,22.1v58.8c0,5.9,1.4,10.4,4.3,13.6c2.9,3.2,7.1,4.8,12.7,4.8c5.6,0,9.9-1.6,12.9-4.8
		c3-3.2,4.5-7.7,4.5-13.6V22.1h23.9v58.7c0,8.8-1.9,16.2-5.6,22.3c-3.7,6.1-8.8,10.6-15.1,13.7c-6.3,3.1-13.3,4.6-21.1,4.6
		c-7.7,0-14.7-1.5-20.8-4.5c-6.1-3-10.9-7.6-14.5-13.7c-3.5-6.1-5.3-13.6-5.3-22.3V22.1H127.5z"/>
	<path class="st0" d="M273.4,22.1v19.2h-26v79.1h-23.9V41.2h-26V22.1H273.4z"/>
	<path class="st0" d="M356.2,22.1v19.2h-26v79.1h-23.9V41.2h-26V22.1H356.2z"/>
	<path class="st0" d="M392.1,41.2v19.9h32.1v18.5h-32.1v21.6h36.3v19.2h-60.2V22.1h60.2v19.2H392.1z"/>
	<path class="st0" d="M494.1,120.3l-20.4-37.1h-5.7v37.1h-23.9V22.1h40.2c7.7,0,14.3,1.4,19.8,4.1c5.5,2.7,9.5,6.4,12.3,11.1
		c2.7,4.7,4.1,10,4.1,15.8c0,6.5-1.8,12.4-5.5,17.5c-3.7,5.1-9.1,8.8-16.3,10.9l22.7,38.9H494.1z M467.9,66.3h14.8
		c4.4,0,7.7-1.1,9.9-3.2c2.2-2.1,3.3-5.2,3.3-9.1c0-3.7-1.1-6.7-3.3-8.8c-2.2-2.1-5.5-3.2-9.9-3.2h-14.8V66.3z"/>
	<path class="st0" d="M581.1,117.8c-5.7-2.3-10.2-5.8-13.7-10.4c-3.4-4.6-5.2-10.1-5.4-16.5h25.5c0.4,3.6,1.6,6.4,3.8,8.3
		c2.1,1.9,4.9,2.9,8.4,2.9c3.5,0,6.3-0.8,8.4-2.4c2.1-1.6,3.1-3.9,3.1-6.8c0-2.4-0.8-4.4-2.4-6c-1.6-1.6-3.6-2.9-6-3.9
		c-2.4-1-5.8-2.2-10.1-3.5c-6.3-2-11.5-3.9-15.5-5.9c-4-2-7.5-4.9-10.4-8.7c-2.9-3.8-4.3-8.8-4.3-15c0-9.1,3.3-16.3,9.9-21.5
		c6.6-5.2,15.3-7.8,25.9-7.8c10.8,0,19.6,2.6,26.2,7.8c6.6,5.2,10.2,12.4,10.6,21.6h-25.9c-0.2-3.2-1.4-5.7-3.5-7.5
		c-2.1-1.8-4.9-2.7-8.3-2.7c-2.9,0-5.2,0.8-7,2.3c-1.8,1.5-2.7,3.8-2.7,6.6c0,3.2,1.5,5.6,4.5,7.4c3,1.8,7.7,3.7,14,5.7
		c6.3,2.1,11.5,4.2,15.5,6.2c4,2,7.4,4.8,10.3,8.5c2.9,3.7,4.3,8.5,4.3,14.4c0,5.6-1.4,10.7-4.3,15.3c-2.8,4.6-7,8.2-12.4,10.9
		c-5.4,2.7-11.8,4.1-19.2,4.1C593.3,121.3,586.8,120.2,581.1,117.8z"/>
	<path class="st0" d="M712.2,103h-36.7l-5.9,17.4h-25.1l35.6-98.3h27.7l35.6,98.3h-25.3L712.2,103z M706,84.5l-12.2-36l-12,36H706z"
		/>
	<path class="st0" d="M842.1,120.3h-23.9l-40-60.6v60.6h-23.9V22.1h23.9l40,60.9V22.1h23.9V120.3z"/>
	<path class="st0" d="M923.4,28.2c7.7,4.1,13.7,9.9,18,17.3c4.2,7.4,6.4,16,6.4,25.7c0,9.6-2.1,18.2-6.4,25.6
		c-4.2,7.5-10.3,13.3-18.1,17.4c-7.8,4.1-16.8,6.2-27.1,6.2h-36.8V22.1h36.8C906.6,22.1,915.7,24.1,923.4,28.2z M915.9,92.2
		c5-4.9,7.6-11.9,7.6-21c0-9.1-2.5-16.1-7.6-21.1c-5-5-12.1-7.6-21.1-7.6h-11.3v57.1h11.3C903.8,99.6,910.8,97.1,915.9,92.2z"/>
	<path class="st0" d="M1064.1,78.4c3.5,4.4,5.2,9.5,5.2,15.2c0,8.2-2.9,14.7-8.6,19.5c-5.7,4.8-13.7,7.2-24,7.2h-45.8V22.1h44.2
		c10,0,17.8,2.3,23.5,6.9c5.6,4.6,8.5,10.8,8.5,18.6c0,5.8-1.5,10.6-4.5,14.4c-3,3.8-7.1,6.5-12.1,8
		C1056.1,71.2,1060.7,74,1064.1,78.4z M1014.9,61.8h15.7c3.9,0,6.9-0.9,9-2.6c2.1-1.7,3.2-4.3,3.2-7.6c0-3.4-1.1-5.9-3.2-7.7
		c-2.1-1.8-5.1-2.7-9-2.7h-15.7V61.8z M1041.8,98.3c2.2-1.8,3.3-4.5,3.3-7.9c0-3.5-1.1-6.2-3.4-8.1c-2.3-2-5.4-2.9-9.4-2.9h-17.4
		V101h17.6C1036.5,101,1039.6,100.1,1041.8,98.3z"/>
	<path class="st0" d="M1106.7,22.1v58.8c0,5.9,1.4,10.4,4.3,13.6c2.9,3.2,7.1,4.8,12.7,4.8c5.6,0,9.9-1.6,12.9-4.8
		c3-3.2,4.5-7.7,4.5-13.6V22.1h23.9v58.7c0,8.8-1.9,16.2-5.6,22.3c-3.7,6.1-8.8,10.6-15.1,13.7c-6.3,3.1-13.3,4.6-21.1,4.6
		c-7.7,0-14.7-1.5-20.8-4.5c-6.1-3-10.9-7.6-14.5-13.7c-3.5-6.1-5.3-13.6-5.3-22.3V22.1H1106.7z"/>
	<path class="st0" d="M1252.6,22.1v19.2h-26v79.1h-23.9V41.2h-26V22.1H1252.6z"/>
	<path class="st0" d="M1335.3,22.1v19.2h-26v79.1h-23.9V41.2h-26V22.1H1335.3z"/>
	<path class="st0" d="M1371.3,41.2v19.9h32.1v18.5h-32.1v21.6h36.3v19.2h-60.2V22.1h60.2v19.2H1371.3z"/>
	<path class="st0" d="M1473.2,120.3l-20.4-37.1h-5.7v37.1h-23.9V22.1h40.2c7.7,0,14.3,1.4,19.8,4.1c5.5,2.7,9.5,6.4,12.2,11.1
		c2.7,4.7,4.1,10,4.1,15.8c0,6.5-1.8,12.4-5.5,17.5c-3.7,5.1-9.1,8.8-16.3,10.9l22.7,38.9H1473.2z M1447,66.3h14.8
		c4.4,0,7.7-1.1,9.9-3.2c2.2-2.1,3.3-5.2,3.3-9.1c0-3.7-1.1-6.7-3.3-8.8c-2.2-2.1-5.5-3.2-9.9-3.2H1447V66.3z"/>
	<path class="st0" d="M1560.3,117.8c-5.7-2.3-10.2-5.8-13.7-10.4c-3.4-4.6-5.2-10.1-5.4-16.5h25.5c0.4,3.6,1.6,6.4,3.8,8.3
		c2.1,1.9,4.9,2.9,8.4,2.9c3.5,0,6.3-0.8,8.4-2.4c2.1-1.6,3.1-3.9,3.1-6.8c0-2.4-0.8-4.4-2.4-6c-1.6-1.6-3.6-2.9-6-3.9
		c-2.4-1-5.8-2.2-10.1-3.5c-6.3-2-11.5-3.9-15.5-5.9c-4-2-7.5-4.9-10.4-8.7c-2.9-3.8-4.3-8.8-4.3-15c0-9.1,3.3-16.3,9.9-21.5
		c6.6-5.2,15.3-7.8,25.9-7.8c10.8,0,19.6,2.6,26.2,7.8c6.6,5.2,10.2,12.4,10.6,21.6h-25.9c-0.2-3.2-1.4-5.7-3.5-7.5
		c-2.1-1.8-4.9-2.7-8.3-2.7c-2.9,0-5.2,0.8-7,2.3c-1.8,1.5-2.7,3.8-2.7,6.6c0,3.2,1.5,5.6,4.5,7.4c3,1.8,7.7,3.7,14,5.7
		c6.3,2.1,11.5,4.2,15.5,6.2c4,2,7.4,4.8,10.3,8.5c2.9,3.7,4.3,8.5,4.3,14.4c0,5.6-1.4,10.7-4.3,15.3c-2.8,4.6-7,8.2-12.4,10.9
		c-5.4,2.7-11.8,4.1-19.2,4.1C1572.4,121.3,1566,120.2,1560.3,117.8z"/>
	<path class="st0" d="M1691.3,103h-36.7l-5.9,17.4h-25.1l35.6-98.3h27.7l35.6,98.3h-25.3L1691.3,103z M1685.2,84.5l-12.2-36l-12,36
		H1685.2z"/>
	<path class="st0" d="M1821.2,120.3h-23.9l-40-60.6v60.6h-23.9V22.1h23.9l40,60.9V22.1h23.9V120.3z"/>
	<path class="st0" d="M1902.6,28.2c7.7,4.1,13.7,9.9,18,17.3c4.2,7.4,6.4,16,6.4,25.7c0,9.6-2.1,18.2-6.4,25.6
		c-4.2,7.5-10.3,13.3-18.1,17.4c-7.8,4.1-16.8,6.2-27.1,6.2h-36.8V22.1h36.8C1885.8,22.1,1894.8,24.1,1902.6,28.2z M1895,92.2
		c5-4.9,7.6-11.9,7.6-21c0-9.1-2.5-16.1-7.6-21.1c-5-5-12.1-7.6-21.1-7.6h-11.3v57.1h11.3C1882.9,99.6,1890,97.1,1895,92.2z"/>
	<path class="st0" d="M2043.3,78.4c3.5,4.4,5.2,9.5,5.2,15.2c0,8.2-2.9,14.7-8.6,19.5c-5.7,4.8-13.7,7.2-24,7.2h-45.8V22.1h44.2
		c10,0,17.8,2.3,23.5,6.9c5.6,4.6,8.5,10.8,8.5,18.6c0,5.8-1.5,10.6-4.5,14.4c-3,3.8-7.1,6.5-12.1,8
		C2035.3,71.2,2039.8,74,2043.3,78.4z M1994,61.8h15.7c3.9,0,6.9-0.9,9-2.6c2.1-1.7,3.2-4.3,3.2-7.6c0-3.4-1.1-5.9-3.2-7.7
		c-2.1-1.8-5.1-2.7-9-2.7H1994V61.8z M2020.9,98.3c2.2-1.8,3.3-4.5,3.3-7.9c0-3.5-1.1-6.2-3.4-8.1c-2.3-2-5.4-2.9-9.4-2.9H1994V101
		h17.6C2015.7,101,2018.8,100.1,2020.9,98.3z"/>
	<path class="st0" d="M2085.8,22.1v58.8c0,5.9,1.4,10.4,4.3,13.6c2.9,3.2,7.1,4.8,12.7,4.8c5.6,0,9.9-1.6,12.9-4.8
		c3-3.2,4.5-7.7,4.5-13.6V22.1h23.9v58.7c0,8.8-1.9,16.2-5.6,22.3c-3.7,6.1-8.8,10.6-15.1,13.7c-6.3,3.1-13.3,4.6-21.1,4.6
		c-7.7,0-14.7-1.5-20.8-4.5c-6.1-3-10.9-7.6-14.5-13.7c-3.5-6.1-5.3-13.6-5.3-22.3V22.1H2085.8z"/>
	<path class="st0" d="M2231.7,22.1v19.2h-26v79.1h-23.9V41.2h-26V22.1H2231.7z"/>
	<path class="st0" d="M2314.5,22.1v19.2h-26v79.1h-23.9V41.2h-26V22.1H2314.5z"/>
	<path class="st0" d="M2350.4,41.2v19.9h32.1v18.5h-32.1v21.6h36.3v19.2h-60.2V22.1h60.2v19.2H2350.4z"/>
	<path class="st0" d="M2452.4,120.3l-20.4-37.1h-5.7v37.1h-23.9V22.1h40.2c7.7,0,14.3,1.4,19.8,4.1c5.5,2.7,9.5,6.4,12.2,11.1
		c2.7,4.7,4.1,10,4.1,15.8c0,6.5-1.8,12.4-5.5,17.5c-3.7,5.1-9.1,8.8-16.3,10.9l22.7,38.9H2452.4z M2426.2,66.3h14.8
		c4.4,0,7.7-1.1,9.9-3.2c2.2-2.1,3.3-5.2,3.3-9.1c0-3.7-1.1-6.7-3.3-8.8c-2.2-2.1-5.5-3.2-9.9-3.2h-14.8V66.3z"/>
	<path class="st0" d="M2539.4,117.8c-5.7-2.3-10.2-5.8-13.7-10.4c-3.4-4.6-5.2-10.1-5.4-16.5h25.5c0.4,3.6,1.6,6.4,3.8,8.3
		c2.1,1.9,4.9,2.9,8.4,2.9c3.5,0,6.3-0.8,8.4-2.4c2.1-1.6,3.1-3.9,3.1-6.8c0-2.4-0.8-4.4-2.4-6c-1.6-1.6-3.6-2.9-6-3.9
		c-2.4-1-5.8-2.2-10.1-3.5c-6.3-2-11.5-3.9-15.5-5.9c-4-2-7.5-4.9-10.4-8.7c-2.9-3.8-4.3-8.8-4.3-15c0-9.1,3.3-16.3,9.9-21.5
		c6.6-5.2,15.3-7.8,25.9-7.8c10.8,0,19.6,2.6,26.2,7.8c6.6,5.2,10.2,12.4,10.6,21.6h-25.9c-0.2-3.2-1.4-5.7-3.5-7.5
		c-2.1-1.8-4.9-2.7-8.3-2.7c-2.9,0-5.2,0.8-7,2.3c-1.8,1.5-2.7,3.8-2.7,6.6c0,3.2,1.5,5.6,4.5,7.4c3,1.8,7.7,3.7,14,5.7
		c6.3,2.1,11.5,4.2,15.5,6.2c4,2,7.4,4.8,10.3,8.5c2.9,3.7,4.3,8.5,4.3,14.4c0,5.6-1.4,10.7-4.3,15.3c-2.8,4.6-7,8.2-12.4,10.9
		c-5.4,2.7-11.8,4.1-19.2,4.1C2551.6,121.3,2545.1,120.2,2539.4,117.8z"/>
	<path class="st0" d="M2670.5,103h-36.7l-5.9,17.4h-25.1l35.6-98.3h27.7l35.6,98.3h-25.3L2670.5,103z M2664.3,84.5l-12.2-36l-12,36
		H2664.3z"/>
	<path class="st0" d="M2800.4,120.3h-23.9l-40-60.6v60.6h-23.9V22.1h23.9l40,60.9V22.1h23.9V120.3z"/>
	<path class="st0" d="M2881.7,28.2c7.7,4.1,13.7,9.9,18,17.3c4.2,7.4,6.4,16,6.4,25.7c0,9.6-2.1,18.2-6.4,25.6
		c-4.2,7.5-10.3,13.3-18.1,17.4c-7.8,4.1-16.8,6.2-27.1,6.2h-36.8V22.1h36.8C2864.9,22.1,2874,24.1,2881.7,28.2z M2874.2,92.2
		c5-4.9,7.6-11.9,7.6-21c0-9.1-2.5-16.1-7.6-21.1c-5-5-12.1-7.6-21.1-7.6h-11.3v57.1h11.3C2862.1,99.6,2869.1,97.1,2874.2,92.2z"/>
	<path class="st0" d="M3022.4,78.4c3.5,4.4,5.2,9.5,5.2,15.2c0,8.2-2.9,14.7-8.6,19.5c-5.7,4.8-13.7,7.2-24,7.2h-45.8V22.1h44.2
		c10,0,17.8,2.3,23.5,6.9c5.6,4.6,8.5,10.8,8.5,18.6c0,5.8-1.5,10.6-4.5,14.4c-3,3.8-7.1,6.5-12.1,8
		C3014.4,71.2,3019,74,3022.4,78.4z M2973.1,61.8h15.7c3.9,0,6.9-0.9,9-2.6c2.1-1.7,3.2-4.3,3.2-7.6c0-3.4-1.1-5.9-3.2-7.7
		c-2.1-1.8-5.1-2.7-9-2.7h-15.7V61.8z M3000.1,98.3c2.2-1.8,3.3-4.5,3.3-7.9c0-3.5-1.1-6.2-3.4-8.1c-2.3-2-5.4-2.9-9.4-2.9h-17.4
		V101h17.6C2994.8,101,2997.9,100.1,3000.1,98.3z"/>
	<path class="st0" d="M3065,22.1v58.8c0,5.9,1.4,10.4,4.3,13.6c2.9,3.2,7.1,4.8,12.7,4.8c5.6,0,9.9-1.6,12.9-4.8
		c3-3.2,4.5-7.7,4.5-13.6V22.1h23.9v58.7c0,8.8-1.9,16.2-5.6,22.3c-3.7,6.1-8.8,10.6-15.1,13.7c-6.3,3.1-13.3,4.6-21.1,4.6
		c-7.7,0-14.7-1.5-20.8-4.5c-6.1-3-10.9-7.6-14.5-13.7c-3.5-6.1-5.3-13.6-5.3-22.3V22.1H3065z"/>
	<path class="st0" d="M3210.9,22.1v19.2h-26v79.1h-23.9V41.2h-26V22.1H3210.9z"/>
	<path class="st0" d="M3293.6,22.1v19.2h-26v79.1h-23.9V41.2h-26V22.1H3293.6z"/>
	<path class="st0" d="M3329.6,41.2v19.9h32.1v18.5h-32.1v21.6h36.3v19.2h-60.2V22.1h60.2v19.2H3329.6z"/>
	<path class="st0" d="M3431.5,120.3l-20.4-37.1h-5.7v37.1h-23.9V22.1h40.2c7.7,0,14.3,1.4,19.8,4.1c5.5,2.7,9.5,6.4,12.2,11.1
		c2.7,4.7,4.1,10,4.1,15.8c0,6.5-1.8,12.4-5.5,17.5c-3.7,5.1-9.1,8.8-16.3,10.9l22.7,38.9H3431.5z M3405.3,66.3h14.8
		c4.4,0,7.7-1.1,9.9-3.2c2.2-2.1,3.3-5.2,3.3-9.1c0-3.7-1.1-6.7-3.3-8.8c-2.2-2.1-5.5-3.2-9.9-3.2h-14.8V66.3z"/>
	<path class="st0" d="M3518.6,117.8c-5.7-2.3-10.2-5.8-13.7-10.4c-3.4-4.6-5.2-10.1-5.4-16.5h25.5c0.4,3.6,1.6,6.4,3.8,8.3
		c2.1,1.9,4.9,2.9,8.4,2.9c3.5,0,6.3-0.8,8.4-2.4c2.1-1.6,3.1-3.9,3.1-6.8c0-2.4-0.8-4.4-2.4-6c-1.6-1.6-3.6-2.9-6-3.9
		c-2.4-1-5.8-2.2-10.1-3.5c-6.3-2-11.5-3.9-15.5-5.9c-4-2-7.5-4.9-10.4-8.7c-2.9-3.8-4.3-8.8-4.3-15c0-9.1,3.3-16.3,9.9-21.5
		c6.6-5.2,15.3-7.8,25.9-7.8c10.8,0,19.6,2.6,26.2,7.8c6.6,5.2,10.2,12.4,10.6,21.6h-25.9c-0.2-3.2-1.4-5.7-3.5-7.5
		c-2.1-1.8-4.9-2.7-8.3-2.7c-2.9,0-5.2,0.8-7,2.3c-1.8,1.5-2.7,3.8-2.7,6.6c0,3.2,1.5,5.6,4.5,7.4c3,1.8,7.7,3.7,14,5.7
		c6.3,2.1,11.5,4.2,15.5,6.2c4,2,7.4,4.8,10.3,8.5c2.9,3.7,4.3,8.5,4.3,14.4c0,5.6-1.4,10.7-4.3,15.3c-2.8,4.6-7,8.2-12.4,10.9
		c-5.4,2.7-11.8,4.1-19.2,4.1C3530.7,121.3,3524.3,120.2,3518.6,117.8z"/>
	<path class="st0" d="M3649.6,103h-36.7l-5.9,17.4H3582l35.6-98.3h27.7l35.6,98.3h-25.3L3649.6,103z M3643.5,84.5l-12.2-36l-12,36
		H3643.5z"/>
	<path class="st0" d="M3779.5,120.3h-23.9l-40-60.6v60.6h-23.9V22.1h23.9l40,60.9V22.1h23.9V120.3z"/>
	<path class="st0" d="M3860.9,28.2c7.7,4.1,13.7,9.9,18,17.3c4.2,7.4,6.4,16,6.4,25.7c0,9.6-2.1,18.2-6.4,25.6
		c-4.2,7.5-10.3,13.3-18.1,17.4c-7.8,4.1-16.8,6.2-27.1,6.2h-36.8V22.1h36.8C3844.1,22.1,3853.1,24.1,3860.9,28.2z M3853.3,92.2
		c5-4.9,7.6-11.9,7.6-21c0-9.1-2.5-16.1-7.6-21.1c-5-5-12.1-7.6-21.1-7.6h-11.3v57.1h11.3C3841.2,99.6,3848.3,97.1,3853.3,92.2z"/>
	<path class="st0" d="M4001.6,78.4c3.5,4.4,5.2,9.5,5.2,15.2c0,8.2-2.9,14.7-8.6,19.5c-5.7,4.8-13.7,7.2-24,7.2h-45.8V22.1h44.2
		c10,0,17.8,2.3,23.5,6.9c5.6,4.6,8.5,10.8,8.5,18.6c0,5.8-1.5,10.6-4.5,14.4c-3,3.8-7.1,6.5-12.1,8
		C3993.5,71.2,3998.1,74,4001.6,78.4z M3952.3,61.8h15.7c3.9,0,6.9-0.9,9-2.6c2.1-1.7,3.2-4.3,3.2-7.6c0-3.4-1.1-5.9-3.2-7.7
		c-2.1-1.8-5.1-2.7-9-2.7h-15.7V61.8z M3979.2,98.3c2.2-1.8,3.3-4.5,3.3-7.9c0-3.5-1.1-6.2-3.4-8.1c-2.3-2-5.4-2.9-9.4-2.9h-17.4
		V101h17.6C3973.9,101,3977,100.1,3979.2,98.3z"/>
	<path class="st0" d="M4044.1,22.1v58.8c0,5.9,1.4,10.4,4.3,13.6c2.9,3.2,7.1,4.8,12.7,4.8c5.6,0,9.9-1.6,12.9-4.8
		c3-3.2,4.5-7.7,4.5-13.6V22.1h23.9v58.7c0,8.8-1.9,16.2-5.6,22.3c-3.7,6.1-8.7,10.6-15.1,13.7c-6.3,3.1-13.3,4.6-21.1,4.6
		c-7.7,0-14.7-1.5-20.8-4.5c-6.1-3-10.9-7.6-14.5-13.7c-3.5-6.1-5.3-13.6-5.3-22.3V22.1H4044.1z"/>
	<path class="st0" d="M4190,22.1v19.2h-26v79.1H4140V41.2h-26V22.1H4190z"/>
	<path class="st0" d="M4272.7,22.1v19.2h-26v79.1h-23.9V41.2h-26V22.1H4272.7z"/>
	<path class="st0" d="M4308.7,41.2v19.9h32.1v18.5h-32.1v21.6h36.3v19.2h-60.2V22.1h60.2v19.2H4308.7z"/>
	<path class="st0" d="M4410.6,120.3l-20.4-37.1h-5.7v37.1h-23.9V22.1h40.2c7.7,0,14.3,1.4,19.8,4.1c5.5,2.7,9.5,6.4,12.2,11.1
		c2.7,4.7,4.1,10,4.1,15.8c0,6.5-1.8,12.4-5.5,17.5c-3.7,5.1-9.1,8.8-16.3,10.9l22.7,38.9H4410.6z M4384.5,66.3h14.8
		c4.4,0,7.7-1.1,9.9-3.2c2.2-2.1,3.3-5.2,3.3-9.1c0-3.7-1.1-6.7-3.3-8.8c-2.2-2.1-5.5-3.2-9.9-3.2h-14.8V66.3z"/>
	<path class="st0" d="M4497.7,117.8c-5.7-2.3-10.2-5.8-13.7-10.4c-3.4-4.6-5.2-10.1-5.4-16.5h25.5c0.4,3.6,1.6,6.4,3.8,8.3
		c2.1,1.9,4.9,2.9,8.4,2.9c3.5,0,6.3-0.8,8.4-2.4c2.1-1.6,3.1-3.9,3.1-6.8c0-2.4-0.8-4.4-2.4-6c-1.6-1.6-3.6-2.9-6-3.9
		c-2.4-1-5.8-2.2-10.1-3.5c-6.3-2-11.5-3.9-15.5-5.9c-4-2-7.5-4.9-10.4-8.7c-2.9-3.8-4.3-8.8-4.3-15c0-9.1,3.3-16.3,9.9-21.5
		c6.6-5.2,15.3-7.8,25.9-7.8c10.8,0,19.6,2.6,26.2,7.8c6.6,5.2,10.2,12.4,10.6,21.6h-25.9c-0.2-3.2-1.4-5.7-3.5-7.5
		c-2.1-1.8-4.9-2.7-8.3-2.7c-2.9,0-5.2,0.8-7,2.3c-1.8,1.5-2.7,3.8-2.7,6.6c0,3.2,1.5,5.6,4.5,7.4c3,1.8,7.7,3.7,14,5.7
		c6.3,2.1,11.5,4.2,15.5,6.2c4,2,7.4,4.8,10.3,8.5c2.9,3.7,4.3,8.5,4.3,14.4c0,5.6-1.4,10.7-4.3,15.3c-2.8,4.6-7,8.2-12.4,10.9
		c-5.4,2.7-11.8,4.1-19.2,4.1C4509.9,121.3,4503.4,120.2,4497.7,117.8z"/>
	<path class="st0" d="M4628.8,103h-36.7l-5.9,17.4h-25.1l35.6-98.3h27.7l35.6,98.3h-25.3L4628.8,103z M4622.6,84.5l-12.2-36l-12,36
		H4622.6z"/>
	<path class="st0" d="M4758.7,120.3h-23.9l-40-60.6v60.6h-23.9V22.1h23.9l40,60.9V22.1h23.9V120.3z"/>
	<path class="st0" d="M4840,28.2c7.7,4.1,13.7,9.9,18,17.3c4.2,7.4,6.4,16,6.4,25.7c0,9.6-2.1,18.2-6.4,25.6
		c-4.2,7.5-10.3,13.3-18.1,17.4c-7.8,4.1-16.8,6.2-27.1,6.2H4776V22.1h36.8C4823.2,22.1,4832.3,24.1,4840,28.2z M4832.5,92.2
		c5-4.9,7.6-11.9,7.6-21c0-9.1-2.5-16.1-7.6-21.1c-5-5-12.1-7.6-21.1-7.6H4800v57.1h11.3C4820.4,99.6,4827.4,97.1,4832.5,92.2z"/>
</g>
</svg>
