<?xml version="1.0" encoding="utf-8"?>
<!-- Generator: Adobe Illustrator 27.3.1, SVG Export Plug-In . SVG Version: 6.00 Build 0)  -->
<svg version="1.1" id="Layer_1" xmlns="http://www.w3.org/2000/svg" xmlns:xlink="http://www.w3.org/1999/xlink" x="0px" y="0px"
	 viewBox="0 0 156 193" style="enable-background:new 0 0 156 193;" xml:space="preserve">
<style type="text/css">
	.st0{fill:#FFFFFF;}
</style>
<g>
	<path class="st0" d="M126.14,74.06c0-0.16,0-0.41,0-0.74c-5.35,0-10.65,0-15.93,0c-0.11,0.92-0.09,0.87,0.7,1.08
		c1.3,0.35,2.61,0.68,3.85,1.19c1.66,0.69,2.42,2.03,2.42,3.86c-0.02,7.58-0.04,15.17,0,22.75c0.01,2.83-0.27,5.6-1.03,8.33
		c-1.48,5.37-4.93,8.32-10.09,9.11c-2.12,0.33-4.35,0.3-6.48,0.02c-3.89-0.5-6.91-2.53-8.9-5.96c-1.7-2.94-2.27-6.21-2.35-9.53
		c-0.11-4.54-0.01-9.08-0.02-13.62c0-3.67-0.01-7.33-0.05-11c-0.03-2.65,1.24-4.1,3.69-4.78c0.87-0.24,1.76-0.43,2.65-0.65
		c0-0.25,0-0.54,0-0.87c-1.15,0-2.25,0-3.34,0c-3.9,0-7.79-0.05-11.69,0.02c-2.57,0.05-4.46-1.11-5.98-3.03
		c-1.07-1.35-1.83-2.87-2.44-4.48c-1.03-2.72-2.04-5.45-3.08-8.16c-1.47-3.86-2.96-7.72-4.44-11.58c-1.21-3.18-2.41-6.38-3.62-9.56
		c-1.58-4.15-3.18-8.3-4.76-12.46c-0.39-1.03-0.35-1.03-1.44-0.84c-1.84,0.33-3.68,0.65-5.53,0.97c-1.53,0.26-3.06,0.5-4.59,0.76
		c0,0.25,0,0.53,0,0.8c1.48,0.2,2.91,0.46,4.11,1.28c0.53,0.37,1.15,0.96,1.25,1.53c0.15,0.88,0.1,1.91-0.22,2.75
		c-1.25,3.28-2.63,6.51-3.97,9.76c-2,4.86-4.01,9.72-6.02,14.57c-1.59,3.84-3.15,7.69-4.76,11.52c-1.16,2.73-2.75,5.09-5.69,6.2
		c-0.11,0.04-0.21,0.2-0.24,0.31c-0.13,0.57,0.06,0.74,0.8,0.74c2.94-0.01,5.87-0.01,8.81-0.04c2.1-0.02,4.11,0.37,5.9,1.48
		c0.56,0.35,1.09,0.95,1.34,1.56c0.32,0.76,0.41,1.65,0.48,2.49c0.07,0.87-0.03,1.75-0.03,2.62c0,10.19,0,20.37,0,30.56
		c0,0.92,0.05,1.83,0.03,2.75c-0.05,1.71-0.62,3.17-2.26,3.94c-1.34,0.63-2.75,1.05-4.26,1.11c-0.41,0.01-0.69-0.06-0.96-0.41
		c-2.42-3.19-5.7-5-9.57-5.74c-2.24-0.43-4.52-0.88-6.79-0.88c-6-0.01-11.99,0.21-17.99,0.35c-0.16,0-0.32,0.05-0.47,0.07
		c-0.16,1.02-0.14,0.99,0.75,1.18c1.07,0.23,2.17,0.42,3.18,0.83c1.68,0.68,2.66,1.94,2.65,3.84c-0.01,1.04,0.01,2.08,0.01,3.12
		c0,9.37,0,18.75-0.01,28.12c0,1.73-0.01,3.46-0.04,5.18c-0.02,1.01-0.27,1.91-1.1,2.6c-1.22,1-2.63,1.48-4.16,1.66
		c-0.87,0.1-0.93,0.14-0.78,1.02c0.19,0.02,0.4,0.05,0.6,0.05c3.94,0.01,7.87,0.02,11.81,0.02c1.54,0,3.08-0.01,4.62-0.04
		c0.18,0,0.35-0.19,0.52-0.29c-0.13-0.18-0.24-0.39-0.41-0.53c-0.12-0.09-0.32-0.06-0.48-0.11c-1.13-0.39-2.29-0.72-3.39-1.19
		c-0.7-0.3-1.25-0.89-1.43-1.65c-0.21-0.88-0.4-1.79-0.4-2.69c-0.03-9.65-0.02-19.29-0.02-28.94c0-3.33,0.01-6.67-0.01-10
		c0-0.52,0.15-0.67,0.67-0.67c2.68,0.03,5.37-0.07,8.02,0.51c2.16,0.48,4.19,1.22,6,2.5c2.43,1.73,3.26,4.31,3.7,7.09
		c0.23,1.45-0.09,2.85-0.35,4.26c-0.51,2.77-2.14,4.58-4.63,5.7c-2.79,1.25-5.8,1.56-8.79,1.93c-0.42,0.05-0.86,0.01-1.43,0.01
		c0.32,0.59,0.55,1.07,0.82,1.52c1.57,2.7,3.13,5.39,4.72,8.08c0.86,1.47,1.92,2.78,3.04,4.08c1.78,2.07,3.48,4.18,5.56,5.97
		c4.64,3.98,9.96,5.62,16.02,4.87c0.72-0.09,0.81-0.25,0.55-0.98c-0.37-0.03-0.74-0.04-1.11-0.1c-3-0.5-5.57-1.94-7.89-3.8
		c-2.16-1.74-4.01-3.82-5.83-5.9c-0.76-0.87-1.62-1.68-2.26-2.63c-1.92-2.87-3.76-5.79-5.61-8.7c-0.36-0.57-0.63-1.19-0.92-1.75
		c1.18-0.19,2.29-0.29,3.37-0.55c1.49-0.35,3.01-0.68,4.42-1.25c3.51-1.43,5.68-4.07,6.35-7.82c0.38-2.12,0.17-4.22-0.52-6.27
		c-0.23-0.68-0.15-0.77,0.56-0.76c3.1,0.05,6.21,0.11,9.31,0.15c3.29,0.04,6.57,0.12,9.86,0.07c2.81-0.04,5.59-0.42,8.26-1.35
		c1.94-0.67,3.78-1.51,5.37-2.84c1.75-1.47,3.07-3.24,3.71-5.44c0.68-2.31,0.78-4.66,0.13-7.02c-0.61-2.23-1.64-4.21-3.51-5.61
		c-2.96-2.21-6.38-3.23-10.04-3.5c-0.52-0.04-1.03-0.1-1.54-0.22c-0.15-0.03-0.25-0.27-0.37-0.41c0.14-0.11,0.26-0.28,0.42-0.31
		c0.73-0.16,1.47-0.25,2.2-0.43c1.43-0.36,2.88-0.65,4.26-1.16c2.22-0.83,4.04-2.23,5.26-4.3c1.27-2.15,1.55-4.49,1.25-6.93
		c-0.35-2.8-1.82-4.89-4.17-6.33c-3.58-2.19-7.64-2.67-11.69-2.84c-4.43-0.19-8.87-0.06-13.31-0.03c-1.65,0.01-3.19-0.44-4.58-1.24
		c-0.8-0.46-1.5-1.2-2.08-1.94c-0.64-0.81-0.81-1.81-0.43-2.84c0.26-0.68,0.49-1.37,0.75-2.04c1.08-2.74,2.18-5.48,3.26-8.23
		c0.14-0.36,0.37-0.53,0.75-0.52c0.67,0.01,1.33,0.02,2,0.02c5.44-0.01,10.87,0,16.31-0.04c0.72,0,1.08,0.22,1.32,0.9
		c1.39,3.89,2.87,7.75,4.23,11.66c1.07,3.05,3.06,4.78,6.34,5.04c2.05,0.16,4.09,0.41,6.12,0.73c2.22,0.35,3.99,1.51,4.08,4.33
		c0.04,1.23,0.01,2.46,0.01,3.68c0,6.71-0.02,13.42,0.02,20.12c0.01,2.05-0.04,4.1,0.39,6.15c0.4,1.86,0.88,3.67,1.7,5.39
		c1.75,3.65,4.65,5.99,8.42,7.25c2.41,0.81,4.92,1.17,7.48,1.17c2.21-0.01,4.4-0.08,6.53-0.73c3.94-1.19,7.28-3.22,9.61-6.72
		c1.04-1.55,1.84-3.22,2.36-5c0.8-2.76,1.04-5.61,1.06-8.46c0.04-7.71,0.02-15.42,0.01-23.12c0-1.55,0.59-2.78,2.03-3.44
		C123.79,74.88,124.96,74.51,126.14,74.06z M50.67,115.57c0-12.62,0-25.24,0-37.86c0-0.67,0.02-1.33,0.02-2
		c0-0.54,0.25-0.83,0.8-0.8c1.16,0.06,2.31,0.14,3.47,0.22c0.27,0.02,0.54,0.11,0.8,0.11c1.31,0.01,2.58,0.11,3.88,0.43
		c1.19,0.29,2.36,0.59,3.48,1.07c2.21,0.94,4,2.41,4.83,4.68c0.61,1.7,1.11,3.51,0.41,5.36c-0.32,0.85-0.59,1.72-0.94,2.55
		c-0.73,1.73-2.24,2.64-3.81,3.43c-0.96,0.49-2.07,0.68-3.04,1.09c-1.27,0.54-2.64,0.22-3.88,0.78c-0.54,0.25-1.27,0.1-1.91,0.12
		c-0.35,0.01-0.69,0-1.16,0c0.45,0.76,0.79,1.43,1.23,2.03c0.19,0.25,0.59,0.45,0.91,0.49c1.79,0.2,3.61,0.25,5.38,0.54
		c2.28,0.38,4.38,1.33,6.16,2.82c1.2,1.01,1.99,2.34,2.51,3.86c0.6,1.75,0.99,3.51,0.85,5.35c-0.11,1.52-0.46,3-1.19,4.35
		c-0.51,0.94-1.03,1.96-1.8,2.67c-1.04,0.95-2.31,1.66-3.52,2.42c-0.64,0.4-1.51,0.29-2.12,0.58c-1.22,0.59-2.44,0.36-3.65,0.37
		c-0.64,0.01-1.28-0.24-1.92-0.38c-0.06-0.01-0.12-0.05-0.18-0.04c-1.24,0.09-2.28-0.52-3.24-1.12c-0.84-0.53-1.52-1.33-2.19-2.09
		C50.64,116.37,50.67,115.91,50.67,115.57z M59.99,53.76c-5.25,0-10.5,0-15.74,0c-0.79,0-0.85-0.03-0.58-0.76
		c0.78-2.1,1.6-4.19,2.43-6.27c1.85-4.65,3.72-9.29,5.59-13.94c0.01-0.02,0.01-0.04,0.02-0.06c0.29-0.35,0.59-0.7,0.88-1.05
		c0.19,0.36,0.43,0.71,0.58,1.1c1.06,2.82,2.11,5.64,3.15,8.47c1.31,3.57,2.62,7.13,3.92,10.7c0.2,0.55,0.37,1.11,0.6,1.81
		C60.42,53.76,60.21,53.76,59.99,53.76z"/>
	<path class="st0" d="M70.63,8.01c0.93,0.23,1.87,0.42,2.76,0.75c1.92,0.7,3.32,2.11,3.29,4.73c-0.11,9.85-0.08,19.71-0.12,29.56
		c-0.01,2.27-0.09,4.54-0.15,6.81c-0.04,1.41-0.63,2.54-1.92,3.12c-1.19,0.53-2.45,0.89-3.7,1.26c-0.71,0.21-0.76,0.22-0.53,1
		c5.62,0,11.23,0,16.85,0c0.06-0.77-0.02-0.77-0.88-0.96c-1.3-0.27-2.61-0.55-3.84-1.01c-1.56-0.58-2.51-1.78-2.63-3.48
		c-0.08-1.06-0.03-2.12-0.03-3.18c0-10.21,0.01-20.42,0.01-30.62c0-0.96-0.04-1.92-0.01-2.87c0.01-0.25,0.22-0.5,0.34-0.74
		c0.19,0.18,0.46,0.33,0.57,0.55c0.7,1.46,1.36,2.94,2.03,4.42c1.55,3.43,3.09,6.86,4.65,10.28c2.11,4.61,4.24,9.21,6.35,13.82
		c1.67,3.65,3.32,7.3,5,10.94c0.08,0.18,0.34,0.37,0.53,0.38c0.14,0.01,0.37-0.22,0.45-0.39c0.26-0.54,0.48-1.11,0.71-1.66
		c2.35-5.53,4.7-11.06,7.04-16.59c3.13-7.39,6.25-14.78,9.38-22.17c0.11-0.25,0.21-0.51,0.38-0.71c0.12-0.14,0.35-0.17,0.53-0.26
		c0.08,0.17,0.22,0.34,0.22,0.52c0.02,0.5-0.04,1-0.04,1.5c0,11.04,0,22.08,0.01,33.12c0,1.19,0.02,2.37,0.02,3.56
		c0,1.81-0.87,3.04-2.53,3.7c-0.83,0.33-1.68,0.65-2.55,0.79c-0.7,0.12-0.74,0.44-0.62,1.03c5.83,0,11.63,0,17.46,0
		c-0.02-0.33-0.03-0.61-0.03-0.73c-1.17-0.3-2.25-0.5-3.28-0.86c-1.68-0.59-2.98-1.62-3.15-3.56c-0.06-0.7-0.01-1.42-0.01-2.12
		c-0.01-11.56-0.01-23.12-0.02-34.69c0-2.52,0.8-3.76,3.15-4.64c0.91-0.34,1.88-0.53,2.81-0.82c0.2-0.06,0.35-0.25,0.52-0.38
		c-0.2-0.12-0.4-0.35-0.6-0.35c-4.12-0.03-8.25-0.04-12.37-0.03c-0.19,0-0.43,0.18-0.57,0.34c-0.18,0.22-0.29,0.5-0.4,0.77
		c-1.29,3.15-2.56,6.32-3.85,9.47c-2.31,5.63-4.64,11.25-6.97,16.88c-1.14,2.76-2.28,5.53-3.42,8.3c-0.22,0.54-0.48,1.08-0.78,1.76
		c-0.25-0.39-0.43-0.61-0.54-0.87c-0.67-1.48-1.33-2.95-1.99-4.44c-1.71-3.88-3.4-7.76-5.12-11.64c-2.13-4.81-4.26-9.61-6.4-14.42
		c-0.86-1.94-1.72-3.87-2.61-5.8C83.96,7.17,83.7,6.9,83.52,6.9c-1.92-0.02-3.83,0-5.75,0.02c-2.35,0.03-4.7,0.08-7.06,0.12
		c-0.28,0-0.62-0.13-0.67,0.32C70,7.77,70.26,7.92,70.63,8.01z"/>
	<path class="st0" d="M104.66,139.26c0.06,0.59,0.47,0.68,0.84,0.77c0.99,0.24,1.99,0.44,2.97,0.71c2.41,0.65,3.74,2.33,3.72,4.91
		c-0.07,9.21-0.03,18.42-0.03,27.62c0,0.54,0.02,1.08-0.01,1.62c-0.01,0.18-0.13,0.39-0.27,0.49c-0.07,0.05-0.34-0.1-0.45-0.23
		c-0.37-0.45-0.69-0.94-1.06-1.39c-1.89-2.3-3.81-4.57-5.69-6.87c-1.79-2.19-3.53-4.42-5.31-6.62c-2.19-2.7-4.4-5.38-6.6-8.06
		c-0.3-0.37-0.65-0.7-0.97-1.06c-1.05-1.15-2.12-2.28-3.13-3.46c-1.13-1.31-2.21-2.65-3.3-3.99c-1.09-1.34-2.15-2.7-3.26-4.02
		c-0.19-0.23-0.57-0.44-0.86-0.44c-2.44-0.03-4.87-0.01-7.31-0.01c-0.74,0-1.48,0-2.22,0c0,0.37,0,0.64,0,0.76
		c1.41,0.44,2.79,0.69,3.99,1.29c1.44,0.72,2.51,1.81,2.51,3.69c-0.04,12.27-0.02,24.54-0.01,36.81c0,0.88-0.29,1.56-0.91,2.15
		c-1.14,1.08-2.58,1.47-4.04,1.81c-0.4,0.1-0.83,0.12-1.21,0.28c-0.16,0.07-0.26,0.38-0.3,0.6c-0.01,0.05,0.3,0.18,0.47,0.26
		c0.07,0.03,0.16,0.01,0.25,0.01c3.96,0.01,7.92,0.01,11.87,0.02c1.43,0,2.86,0,4.27,0c0.18-0.46,0.06-0.68-0.33-0.77
		c-0.63-0.14-1.26-0.26-1.89-0.41c-3.58-0.86-5-2.09-4.96-5.89c0.1-10.06,0.03-20.12,0.03-30.19c0-0.29,0.06-0.58,0.11-0.93
		c0.19,0.09,0.28,0.11,0.34,0.16c0.85,0.66,1.44,1.57,2.32,2.25c1.17,0.91,1.95,2.3,2.91,3.48c1.92,2.35,3.85,4.7,5.77,7.05
		c1.42,1.74,2.83,3.49,4.26,5.23c1.27,1.55,2.55,3.08,3.81,4.63c1.75,2.14,3.49,4.29,5.25,6.43c2.19,2.67,4.38,5.35,6.57,8.01
		c0.45,0.55,0.91,1.09,1.43,1.56c0.19,0.18,0.57,0.2,0.86,0.19c0.07,0,0.17-0.42,0.18-0.65c0.03-0.48,0.02-0.96,0.02-1.44
		c-0.01-13.58-0.03-27.16-0.04-40.75c0-1.33,0.52-2.38,1.6-3.15c1.23-0.88,2.65-1.28,4.12-1.48c0.81-0.11,0.84-0.09,0.7-1.01
		C115.98,139.26,110.34,139.26,104.66,139.26z"/>
	<path class="st0" d="M150.83,124.21c-1.89-2.35-4.33-3.98-7-5.33c-3.16-1.59-6.38-3.08-9.41-4.88c-3.29-1.95-5.36-4.79-5.27-8.87
		c0.08-3.36,2.35-6.7,5.52-7.86c2.5-0.91,5.04-0.79,7.41,0.33c3.72,1.75,5.61,4.87,6.08,8.89c0.08,0.72,0.09,1.45,0.14,2.42
		c0.39-0.18,0.73-0.24,0.93-0.45c2.7-2.78,3.22-6.68,0.48-9.84c-2.88-3.33-6.86-4.1-10.95-4.26c-1.79-0.07-3.64,0.38-5.4,0.83
		c-2.67,0.67-5.04,1.96-6.8,4.16c-1.49,1.86-2.33,3.99-2.63,6.37c-0.39,3.1,0.33,5.86,2.26,8.3c1.78,2.26,4.01,3.97,6.55,5.3
		c2.49,1.3,4.98,2.6,7.45,3.92c1.77,0.94,3.39,2.07,4.81,3.52c2.82,2.88,3.41,7.14,1.94,10.66c-1.24,2.98-3.68,4.62-6.74,5.17
		c-1.76,0.32-3.62,0.28-5.41,0.14c-2.32-0.18-4.29-1.22-5.73-3.14c-0.97-1.29-1.41-2.76-1.68-4.32c-0.44-2.61,0.06-5.13,0.66-7.65
		c0.17-0.73-0.05-1.04-0.79-0.92c-0.21,0.03-0.42,0.17-0.6,0.31c-0.38,0.29-0.75,0.6-1.12,0.9c-1.63,1.33-2.83,2.99-3.25,5.05
		c-0.67,3.34,0.43,6.16,2.97,8.39c3.06,2.67,6.79,3.6,10.71,3.89c2.45,0.18,4.85-0.23,7.2-0.94c3.24-0.99,5.98-2.7,8.02-5.44
		c1.34-1.8,1.96-3.86,2.16-6.09C153.63,129.58,152.85,126.71,150.83,124.21z"/>
	<path class="st0" d="M3.64,18.15c0.49-2.21,1.3-4.3,2.69-6.11c1.07-1.39,2.47-2.35,4.27-2.4c3.12-0.09,6.25-0.06,9.37-0.11
		c0.6-0.01,0.71,0.21,0.71,0.76c-0.02,7.56-0.02,15.12-0.01,22.68c0,5.58,0.01,11.16,0.04,16.75c0.01,1.33-0.56,2.31-1.64,3.04
		c-1.27,0.87-2.76,1.15-4.22,1.44c-0.71,0.14-0.78,0.44-0.63,1.03c6.31,0,12.6,0,18.91,0c0-0.32,0-0.61,0-0.76
		c-1.16-0.28-2.28-0.49-3.36-0.82c-2.47-0.75-3.61-2.22-3.61-4.68c-0.01-12.89,0-25.79-0.02-38.68c0-0.58,0.19-0.76,0.75-0.76
		c2.87,0.02,5.75,0.01,8.62,0c2.46-0.01,4.37,1.02,5.75,3.04c1.19,1.74,1.82,3.72,2.4,5.72c0.11,0.36,0.22,0.63,0.65,0.61
		c0.48-0.03,0.34-0.41,0.33-0.66c-0.09-2.54-0.19-5.07-0.3-7.61c-0.06-1.43-0.15-2.86-0.23-4.3c-0.49,0.11-0.96,0.28-1.45,0.31
		c-1.72,0.11-3.45,0.23-5.17,0.23c-6.52,0-13.03-0.06-19.55-0.06c-3.25,0-6.5,0.09-9.75,0.08c-1.25,0-2.49-0.12-3.74-0.24
		C4.01,6.6,3.57,6.4,2.98,6.23c-0.13,4.27-0.26,8.44-0.39,12.63C3.34,18.96,3.54,18.62,3.64,18.15z"/>
	<path class="st0" d="M66.16,186.09c-1.03-0.3-2.11-0.51-3.09-0.93c-1.58-0.68-2.43-1.84-2.43-3.69
		c0.04-12.33,0.03-24.66,0.01-36.99c0-1.56,0.71-2.67,2.08-3.26c1.07-0.46,2.24-0.69,3.39-0.96c0.41-0.1,0.66-0.23,0.66-0.66
		c0.01-0.5-0.39-0.34-0.64-0.34c-5.5-0.01-11,0-16.49,0c-0.16,0-0.31,0.03-0.46,0.04c0,0.32,0,0.59,0,0.85
		c0.71,0.14,1.34,0.23,1.96,0.4c0.64,0.17,1.27,0.39,1.88,0.64c1.4,0.57,2.13,1.7,2.13,3.2c0,12.37-0.03,24.74,0.03,37.11
		c0.01,2.04-1.14,3.27-2.8,3.77c-0.83,0.25-1.69,0.41-2.54,0.6c-0.38,0.08-0.69,0.22-0.68,0.67c0.02,0.52,0.43,0.35,0.71,0.35
		c4.08,0.02,8.16,0.04,12.24,0.05c1.39,0,2.79-0.01,4.18-0.05c0.16,0,0.32-0.17,0.48-0.26c-0.11-0.16-0.21-0.33-0.34-0.47
		C66.39,186.11,66.26,186.12,66.16,186.09z"/>
</g>
</svg>
