<?xml version="1.0" encoding="utf-8"?>
<!-- Generator: Adobe Illustrator 27.3.1, SVG Export Plug-In . SVG Version: 6.00 Build 0)  -->
<svg version="1.1" id="Layer_1" xmlns="http://www.w3.org/2000/svg" xmlns:xlink="http://www.w3.org/1999/xlink" x="0px" y="0px"
	 viewBox="0 0 736 114" style="enable-background:new 0 0 736 114;" xml:space="preserve">
<path d="M193.7,99.34c-7.64,0-14.96,0-22.5,0c0.26-0.63,0.43-1.16,0.68-1.65c0.88-1.75,1.79-3.47,2.67-5.22
	c1.3-2.59,1.27-5.41,1.27-8.19c0.01-18.71-0.06-37.41-0.01-56.12c0.01-3.81-1.11-7.18-2.98-10.41c-0.59-1.02-1.04-2.11-1.67-3.43
	c1.43-0.1,2.5-0.25,3.57-0.25c7.67-0.02,15.33-0.02,23-0.02c2.64,0,2.93,0.25,3.85,2.78c5.91,16.11,11.83,32.22,17.74,48.34
	c1.09,2.96,2.08,5.96,3.21,8.91c0.53,1.38,1.27,2.67,1.92,4.03c3.22-8.74,6.42-17.37,9.56-26.01c1.86-5.11,3.6-10.27,5.46-15.39
	c2.55-7.03,5.18-14.04,7.75-21.06c0.31-0.84,0.82-1.31,1.72-1.37c0.66-0.05,1.32-0.2,1.98-0.2c7.71-0.02,15.41-0.02,23.12,0
	c0.69,0,1.38,0.14,2.31,0.24c-0.54,1.12-0.87,2.11-1.43,2.95c-2.71,4.02-3.66,8.49-3.66,13.26c0.01,16.91-0.02,33.83-0.01,50.74
	c0,2-0.04,4.03,0.3,5.98c0.36,2.1,1,4.19,1.79,6.17c0.8,1.98,1.94,3.82,3.01,5.88c-9.17,0-18.15,0-27.36,0
	c0.59-1.16,1-2.25,1.64-3.18c2.73-4.01,3.34-8.52,3.35-13.21c0.01-12.08,0.04-24.16,0.05-36.24c0-3.71,0-7.41-0.02-11.12
	c0-0.6-0.09-1.2-0.42-1.84c-0.2,0.55-0.38,1.11-0.59,1.66c-1.97,5.2-4,10.39-5.9,15.62c-4.77,13.08-9.49,26.18-14.22,39.28
	c-0.96,2.66-1.93,5.32-2.82,8c-0.29,0.86-0.73,1.18-1.62,1.17c-4.17-0.04-8.33-0.01-12.5-0.02c-2.01-0.01-2.02-0.02-2.75-1.98
	c-2.67-7.25-5.33-14.51-8.01-21.76c-4.33-11.74-8.66-23.48-13-35.21c-0.95-2.56-1.94-5.09-2.99-7.85c-0.13,0.56-0.28,0.97-0.31,1.39
	c-0.15,2.37-0.36,4.74-0.37,7.1c-0.04,12.92-0.13,25.83,0.04,38.74c0.06,4.87,0,9.87,2.41,14.39c0.69,1.28,1.38,2.56,2.07,3.84
	C193.23,98.41,193.4,98.77,193.7,99.34z"/>
<path d="M577.45,99.37c0.31-0.72,0.47-1.29,0.78-1.75c3.02-4.59,3.95-9.75,3.99-15.11c0.12-15.91,0.22-31.82,0.22-47.74
	c0-3.36-0.37-6.74-0.77-10.08c-0.38-3.2-2.08-5.94-3.53-8.74c-0.6-1.17-0.53-1.45,0.75-1.62c1.11-0.15,2.23-0.26,3.35-0.27
	c6.29-0.03,12.58,0.06,18.87-0.05c2.59-0.05,4.29,0.75,5.62,3.12c4.6,8.2,9.38,16.29,14.13,24.41c4.2,7.18,8.41,14.36,12.67,21.51
	c2.4,4.03,4.92,8,7.38,12c0.13,0.2,0.27,0.4,0.6,0.9c0.09-0.78,0.19-1.25,0.19-1.71c0.01-15.46,0.03-30.91,0.01-46.37
	c0-2.9-0.55-5.7-2.08-8.25c-0.73-1.21-1.33-2.5-1.98-3.75c-0.64-1.25-0.53-1.49,0.82-1.7c0.45-0.07,0.91-0.1,1.37-0.1
	c5.67-0.02,11.33-0.03,17-0.02c0.86,0,1.73,0.17,2.82,0.29c-0.26,0.65-0.42,1.18-0.67,1.66c-0.96,1.89-2.05,3.72-2.9,5.66
	c-0.49,1.11-0.8,2.38-0.88,3.59c-1.6,24.14-0.37,48.31-0.75,72.46c-0.01,0.49,0,0.98,0,1.56c-0.59,0.03-1.07,0.09-1.56,0.09
	c-5.33,0.01-10.67,0-16,0.03c-0.83,0-1.34-0.24-1.79-1.01c-6.42-10.85-12.89-21.66-19.32-32.51c-5.32-8.98-10.58-18.01-15.91-26.99
	c-1.35-2.27-2.89-4.42-4.52-6.89c0,1.94,0,3.67,0,5.39c0.03,15.75,0.15,31.5,0.03,47.24c-0.04,4.68,1.5,8.7,3.68,12.64
	c0.28,0.51,0.55,1.03,0.8,1.55c0.05,0.1,0.02,0.24,0.03,0.54C592.49,99.37,585.07,99.37,577.45,99.37z"/>
<path d="M338.24,51.09c2.66,0.96,5.14,1.77,7.55,2.75c7.73,3.13,12.01,8.91,12.96,17.17c0.68,5.94-0.04,11.64-3.22,16.83
	c-3.03,4.93-7.63,7.76-13.01,9.53c-4.6,1.51-9.33,2.04-14.15,2.04c-12.79-0.01-25.58-0.02-38.37-0.02c-0.73,0-1.46,0-2.44,0
	c0.38-0.77,0.61-1.29,0.88-1.79c1.09-2.05,2.46-4.01,3.22-6.18c0.64-1.83,0.77-3.91,0.79-5.88c0.1-11.83,0.11-23.65,0.14-35.48
	c0.02-6.7-0.08-13.41,0.05-20.1c0.09-4.67-1.28-8.84-3.6-12.78c-0.34-0.57-0.6-1.19-0.92-1.77c-0.45-0.8-0.09-1.2,0.68-1.28
	c0.83-0.09,1.66-0.07,2.5-0.07c8.62,0,17.25-0.14,25.87,0.06c6.98,0.16,13.99,0.28,20.8,2.19c3.23,0.9,6.2,2.3,8.97,4.25
	c7.6,5.35,7.53,15.57,3.56,21.41c-1.8,2.65-4.17,4.62-6.91,6.2C341.89,49.12,340.16,50.04,338.24,51.09z M310.1,88.63
	c5.25,0.24,10.32,0.53,15.39,0.67c1.6,0.05,3.25-0.14,4.82-0.5c4.82-1.08,8.44-3.6,9.82-8.65c0.9-3.28,1-6.6,0.31-9.89
	c-0.96-4.59-3.63-7.82-8.25-9.1c-1.74-0.48-3.6-0.75-5.41-0.79c-4.87-0.11-9.74-0.04-14.61-0.04c-2.06,0-2.08,0-2.09,2.13
	c0,8.03,0.01,16.07,0.02,24.1C310.1,87.18,310.1,87.8,310.1,88.63z M310.08,37.51c0.01,0,0.01,0,0.01,0c0,3.91,0.03,7.83-0.02,11.74
	c-0.02,1.04,0.31,1.36,1.34,1.35c5.16-0.03,10.33-0.11,15.48,0.06c2.11,0.07,3.49-0.73,4.61-2.33c0.36-0.51,0.67-1.05,0.99-1.58
	c2.39-3.96,2.77-8.33,2.41-12.78c-0.43-5.33-3.09-8.23-8.35-9.24c-4.98-0.95-10.03-0.68-15.06-0.59c-1.19,0.02-1.43,0.61-1.42,1.64
	C310.1,29.69,310.08,33.6,310.08,37.51z"/>
<path d="M532.58,99.13c-0.19,0.11-0.22,0.15-0.26,0.15c-6.12,0.03-12.23,0.11-18.35,0.04c-0.69-0.01-1.58-0.76-2.01-1.41
	c-4.44-6.64-8.79-13.34-13.19-20.01c-2.91-4.41-5.83-8.82-8.8-13.19c-0.3-0.44-0.99-0.86-1.5-0.87c-3.28-0.08-6.56-0.04-9.91-0.04
	c-0.04,0.44-0.08,0.72-0.08,1c0,6.41,0.08,12.83-0.01,19.24c-0.07,4.94,1.5,9.31,4.08,13.4c0.34,0.54,0.64,1.11,1.12,1.95
	c-9.42,0-18.5,0-27.8,0c0.34-0.64,0.52-1.1,0.8-1.5c3.17-4.64,4.32-9.83,4.25-15.38c-0.04-3,0-6,0-9
	c0.01-13.54,0.05-27.08,0.01-40.61c-0.01-2.78,0.04-5.64-0.56-8.33c-0.57-2.54-1.92-4.92-2.98-7.35c-0.39-0.89-0.91-1.71-1.5-2.81
	c1.09-0.14,1.86-0.32,2.63-0.32c12.91-0.02,25.83-0.11,38.74,0.04c5.9,0.07,11.7,0.99,16.91,4.1c2.55,1.52,4.96,3.22,6.84,5.57
	c4.92,6.16,5.2,12.86,2.13,19.83c-2.26,5.12-5.91,9.13-10.63,12.13c-2.06,1.31-4.22,2.44-6.45,3.72c0.25,0.54,0.44,1.18,0.8,1.71
	c3.98,5.85,7.97,11.69,11.98,17.52c4.39,6.38,8.8,12.74,13.18,19.12C532.29,98.23,532.4,98.71,532.58,99.13z M478.58,53.26
	c2.36,0.17,4.64,0.41,6.92,0.47c4.75,0.11,9.49,0.14,14.24,0.15c0.49,0,1.15-0.18,1.45-0.52c1.93-2.14,3.65-4.41,4.58-7.22
	c1.21-3.64,1.37-7.37,0.93-11.11c-0.66-5.66-3.57-8.92-8.86-10.07c-1.7-0.37-3.46-0.56-5.2-0.6c-4.25-0.08-8.5-0.03-12.75-0.02
	c-0.4,0-0.81,0.04-1.3,0.07C478.58,34.05,478.58,43.61,478.58,53.26z"/>
<path d="M423.62,14.59c1.43-0.69,22.17-0.71,23.61-0.07c-0.28,0.64-0.46,1.35-0.85,1.9c-3.49,4.9-4.16,10.48-4.14,16.27
	c0.02,9.41-0.08,18.83-0.04,28.24c0.02,5.65-0.34,11.25-1.97,16.68c-3.85,12.85-12.42,20.62-25.64,22.93
	c-8.7,1.52-17.31,1.12-25.61-2.4c-7.32-3.11-12.55-8.25-15.82-15.5c-2.26-5-3.6-10.19-3.66-15.68c-0.12-11.12-0.17-22.24-0.27-33.36
	c-0.04-3.78,0.08-7.62-1.24-11.23c-0.72-1.98-1.84-3.81-2.76-5.71c-0.33-0.68-0.61-1.39-1.1-2.51c9.38-0.16,18.34-0.09,27.56-0.06
	c-0.26,0.76-0.37,1.18-0.56,1.56c-0.33,0.67-0.67,1.34-1.08,1.97c-2.75,4.21-3.5,8.96-3.53,13.83c-0.09,11.41-0.22,22.83,0.04,34.24
	c0.15,6.47,1.86,12.65,6.63,17.43c3.32,3.33,7.48,5.08,12.22,5.18c3.53,0.08,7.07,0.3,10.49-1.01c4.95-1.89,8.44-5.22,10.33-10.18
	c1.59-4.17,2.24-8.49,2.22-12.96c-0.05-10.58-0.04-21.16,0.01-31.74c0.03-5.63-0.75-11.03-3.92-15.87
	C424.15,15.99,423.94,15.31,423.62,14.59z"/>
<path d="M102.33,99.43c-7.7,0-15.1,0-22.75,0c0.3-0.65,0.43-1.08,0.66-1.44c4.1-6.27,6.94-13.14,9.64-20.09
	c3-7.71,6.05-15.39,9.06-23.1c2.87-7.36,5.69-14.73,8.54-22.09c1.92-4.96,3.86-9.91,5.77-14.87c1.32-3.44,1.78-3.78,5.5-3.79
	c3.5-0.01,7,0.06,10.5-0.02c1.59-0.04,2.46,0.67,3,2.07c2.76,7.13,5.52,14.26,8.33,21.37c2.69,6.8,5.44,13.57,8.16,20.36
	c3.5,8.76,6.86,17.57,10.53,26.26c1.92,4.55,4.37,8.87,6.57,13.3c0.29,0.57,0.53,1.17,0.89,1.98c-9.46,0-18.64,0-28.08,0
	c0.23-0.71,0.29-1.24,0.54-1.66c2.15-3.62,2.16-7.43,1.03-11.34c-0.72-2.48-1.54-4.92-2.24-7.4c-0.28-0.99-0.76-1.43-1.83-1.43
	c-3.04,0.01-6.08-0.11-9.12-0.11c-7.33,0.01-14.66,0.04-21.99,0.13c-0.54,0.01-1.35,0.44-1.56,0.89c-1.64,3.65-2.96,7.41-3.5,11.4
	c-0.33,2.42,0.42,4.6,1.29,6.78C101.59,97.45,101.88,98.26,102.33,99.43z M134.36,67.57c-4.43-11.66-8.74-22.99-13.19-34.7
	c-5.06,11.55-9.38,23-13.57,34.7C116.57,67.57,125.21,67.57,134.36,67.57z"/>
<path d="M667.91,84.33c0-2.33-0.04-4.67,0.03-7c0.01-0.52,0.37-1.03,0.57-1.54c0.4,0.25,0.88,0.43,1.2,0.77
	c3.19,3.3,6.45,6.47,10.5,8.77c6.24,3.54,12.86,5.26,20.01,4.27c7.21-1,11.04-6.39,9.93-13.63c-0.56-3.71-2.83-6.12-6.05-7.56
	c-4.13-1.85-8.36-3.48-12.61-5.04c-5.49-2.02-10.8-4.28-15.29-8.21c-4.81-4.2-7.38-9.36-7.76-15.74
	c-0.36-6.12,1.42-11.52,5.19-16.25c3.69-4.63,8.69-7.33,14.24-8.99c4.32-1.29,8.78-2.07,13.3-1.82c7.33,0.41,14.46,1.72,20.78,5.84
	c0.89,0.58,1.35,1.19,1.33,2.3c-0.06,4.2-0.02,8.41-0.06,12.61c0,0.45-0.3,0.89-0.46,1.34c-0.41-0.23-0.9-0.37-1.2-0.69
	c-3.51-3.69-7.39-6.85-12.28-8.55c-5.7-1.99-11.45-2.48-17.24-0.39c-3.91,1.41-6.48,4.1-7.03,8.3c-0.61,4.64,0.81,8.47,5.08,10.91
	c3.9,2.23,8.15,3.52,12.41,4.81c6.59,1.99,12.86,4.62,17.76,9.69c4.12,4.27,6.05,9.42,6.22,15.35c0.17,5.66-1.07,10.9-4.14,15.67
	c-4.08,6.34-10.19,9.59-17.33,10.96c-8.69,1.67-17.34,1.01-25.77-1.69c-3.61-1.16-7-2.87-10.04-5.2c-0.86-0.66-1.31-1.42-1.29-2.54
	c0.05-2.25,0.01-4.5,0.01-6.75C667.94,84.33,667.93,84.33,667.91,84.33z"/>
<path d="M61.47,99.41c-9.26,0-18.23,0-27.46,0c0.38-0.81,0.6-1.43,0.94-1.96c2.75-4.3,3.91-8.96,3.89-14.09
	c-0.07-18,0.03-35.99,0.07-53.99c0.01-3.03-0.01-3.03-3.07-3.03c-1.25,0-2.5,0.07-3.75-0.01c-7.86-0.53-14.9,2.01-21.66,5.68
	c-0.45,0.25-0.94,0.43-1.6,0.73c-0.12-1.52-0.31-2.83-0.32-4.14c-0.04-4.25,0-8.5-0.03-12.75c-0.01-1.01,0.26-1.56,1.38-1.56
	c1.08,0,2.15-0.21,3.23-0.21c23.46-0.02,46.91-0.04,70.37,0.01c4.11,0.01,3.28-0.02,3.34,3.3c0.09,4.66,0,9.33-0.02,14
	c0,0.47-0.11,0.94-0.2,1.72c-9.26-6.17-19.3-7.74-30.09-6.51c0,0.29,0,0.77,0,1.25c0,18.37,0,36.75,0,55.12
	c0,4.44,0.75,8.69,3.01,12.59C60.16,96.69,60.71,97.9,61.47,99.41z"/>
<path d="M566.5,14.32c-0.72,1.36-1.26,2.53-1.94,3.61c-2.32,3.65-3.07,7.69-3.07,11.92c-0.01,18.25,0.01,36.5-0.02,54.74
	c-0.01,4.44,1.44,8.4,3.63,12.16c0.46,0.78,0.86,1.59,1.41,2.62c-9.28,0-18.38,0-27.74,0c0.44-0.82,0.74-1.4,1.05-1.97
	c1.6-2.96,3.43-5.84,3.77-9.3c0.16-1.65,0.21-3.33,0.21-4.99c0.01-17.46-0.07-34.91,0.03-52.37c0.03-4.89-0.95-9.35-3.45-13.57
	c-1.71-2.88-1.53-3.08,1.8-3.1c7.17-0.04,14.33-0.03,21.5-0.01C564.54,14.08,565.4,14.22,566.5,14.32z"/>
</svg>
