<?xml version="1.0" encoding="utf-8"?>
<!-- Generator: Adobe Illustrator 27.3.1, SVG Export Plug-In . SVG Version: 6.00 Build 0)  -->
<svg version="1.1" id="Layer_1" xmlns="http://www.w3.org/2000/svg" xmlns:xlink="http://www.w3.org/1999/xlink" x="0px" y="0px"
	 viewBox="0 0 250 150" style="enable-background:new 0 0 250 150;" xml:space="preserve">
<style type="text/css">
	.st0{fill:#E70012;}
	.st1{fill:#F9F6E6;}
	.st2{fill:#F9F6E6;stroke:#F9F6E6;stroke-width:5;stroke-linecap:round;stroke-linejoin:round;stroke-miterlimit:10;}
</style>
<g>
	<g>
		<path class="st0" d="M128.6,51.69c-1.8,1.45-3.66,3.32-5.85,3.55c-3.81,0.4-7.68,0.9-11.57-0.04
			c-8.59-2.07-14.45-7.23-17.01-15.57c-2.24-7.3-1.45-14.44,3.34-20.79c4.93-6.54,11.59-9.66,19.68-9.61
			c3.12,0.02,6.23,0.6,8.95,2.37c0.81,0.53,1.72,0.74,2.65,0.94c0.89,1.49,2.53,2.18,3.67,3.42c2.42,2.64,3.76,5.85,5.11,9.08
			c0.32,0.76,0.55,1.33,1.65,0.96c4.27-1.41,7.18,0.28,8.16,4.72c0.52,2.34,0.23,4.66-1.73,6.17c-1.8,1.38-3.86,2.65-6.36,1.3
			c-1.15-0.62-1.59,0.11-1.91,1.1c-0.74,2.32-1.87,4.42-3.27,6.44C132.52,48.01,130.41,49.7,128.6,51.69z M113.57,46.14
			c-1.7-1.45-1.7-1.45,0.37-2.24c0.16-0.06,0.34-0.08,0.51-0.15c0.38-0.15,0.88-0.28,0.81-0.81c-0.06-0.39-0.52-0.43-0.85-0.56
			c-1.22-0.49-1.23-0.49-0.65-1.64c0.14-0.27,0.03-0.55-0.18-0.58c-2.05-0.34-3.08-2.06-4.47-3.28c-0.42-0.37-0.92-0.77-1.11,0.21
			c-0.19,0.95-0.69,0.59-1.15,0.26c-0.38-0.27-0.59-1.18-1.19-0.58c-0.39,0.38-0.19,1.08,0.05,1.68c0.15,0.38,0.98,0.92,0.18,1.31
			c-1.26,0.62-0.48,1.43-0.26,2.09c0.2,0.6,0.77,1.07,0.43,1.88c-2.47-1.1-3.73-3.41-5.47-5.62c-0.08,1.09-0.13,1.82-0.18,2.55
			c-0.14,0.2-0.28,0.39-0.42,0.59c-0.26-2.81-2.29-1.91-3.63-2.46c-0.13,0.21-0.15,0.4-0.07,0.66c1.1,3.89,3.68,6.75,6.56,9.36
			c3.61,3.28,8,4.72,12.8,5.03c0.65,0.04,1.49,0.23,1.69-0.79c-2.33-1.12-5.34-0.75-7.29-3.58c1.66,0.36,2.72,1.39,4.08,1.16
			c0.52-0.09,1.41,0.29,1.4-0.62c-0.01-0.65-0.78-0.66-1.34-0.83c-1.73-0.5-3.31-1.27-4.96-2.94
			C111.04,46.58,112.38,47.11,113.57,46.14z M115.79,39.12c3.24,0.01,6.71-3.26,6.58-6.47c-0.17-4.2-1.78-6.34-6.08-6.49
			c-4.62-0.15-7.22,2.2-7.18,6.15C109.14,35.52,112.67,39.11,115.79,39.12z M142.79,32.3c0.05-1.05-0.44-1.59-1.48-1.58
			c-1.12,0.01-1.62,0.69-1.61,1.71c0.01,1.04,0.72,1.44,1.66,1.46C142.44,33.9,142.83,33.27,142.79,32.3z"/>
		<path class="st1" d="M128.6,51.69c1.81-1.99,3.91-3.69,5.48-5.95c1.4-2.02,2.53-4.12,3.27-6.44c0.32-0.99,0.76-1.72,1.91-1.1
			c2.49,1.35,4.56,0.08,6.36-1.3c1.96-1.5,2.25-3.83,1.73-6.17c-0.98-4.44-3.89-6.13-8.16-4.72c-1.1,0.36-1.33-0.21-1.65-0.96
			c-1.35-3.22-2.68-6.44-5.11-9.08c-1.14-1.25-2.78-1.93-3.67-3.42c3.63-2.15,7.48-3.59,11.75-3.8c5.32-0.26,10.03,1.34,14.24,4.53
			c2.41,1.83,4.48,3.99,6.13,6.52c3.04,4.67,4.34,9.77,3.22,15.3c-0.61,3.03-1.01,6.15-2.5,8.95c-1.98,3.72-5.19,6.24-8.74,8.24
			c-6.1,3.43-12.58,4.51-19.39,2.3C131.64,54,130.22,52.67,128.6,51.69z M148.12,24.86c0.63,0.46,1.09,0.81,1.57,1.14
			c0.27,0.18,0.53,0.6,0.91,0.29c0.32-0.26,0.2-0.65,0.07-1c-0.06-0.17-0.15-0.33-0.21-0.5c-0.14-0.37-0.55-0.83-0.12-1.13
			c0.47-0.34,0.9,0.13,1.22,0.45c0.56,0.57,1.07,1.19,1.68,1.89c0.21-1.08,0.18-1.94-0.24-2.77c-0.11-0.23-0.36-0.5-0.02-0.78
			c0.34-0.27,0.56,0.03,0.77,0.16c0.97,0.6,1.61,1.54,2.52,2.76c-0.09-0.91-0.06-1.44-0.21-1.92c-0.14-0.43-0.3-0.79,0.16-1.09
			c0.42-0.27,0.62,0.15,0.91,0.31c1.21,0.67,2.49,1.24,3.25,2.92c-0.12-7.45-12.63-16.25-19.44-14.59c1.38,0.62,2.59,1.18,3.82,1.69
			c0.33,0.13,0.78,0.11,0.67,0.6c-0.11,0.49-0.58,0.22-0.89,0.3c-0.94,0.26-1.79-0.56-3.09-0.16c1.76,1.08,3.28,2.04,4.82,2.96
			c0.33,0.2,0.66,0.4,0.56,0.79c-0.12,0.48-0.58,0.37-0.87,0.24c-0.87-0.39-1.69-0.32-2.53,0.02c0.19,1.11,1.95,1.22,1.53,2.28
			c-0.32,0.78-1.51,0.16-2.29,0.35c-0.53,0.13-1.38-0.11-1.41,0.69c-0.03,0.66,0.68,0.69,1.24,0.69c0.51,0,1.02,0.16,1.12,0.69
			c0.09,0.47-0.34,0.7-0.78,0.8c-0.21,0.05-0.54,0.02-0.46,0.38c0.07,0.29,0.24,0.57,0.58,0.61c2.05,0.26,3.52,1.52,4.92,3.09
			C147.96,26.23,148.03,25.66,148.12,24.86z"/>
		<path class="st1" d="M113.57,46.14c-1.19,0.98-2.53,0.45-4.36,0.11c1.65,1.67,3.24,2.43,4.96,2.94c0.56,0.16,1.33,0.18,1.34,0.83
			c0.01,0.91-0.88,0.54-1.4,0.62c-1.36,0.22-2.42-0.8-4.08-1.16c1.95,2.83,4.97,2.47,7.29,3.58c-0.2,1.03-1.03,0.84-1.69,0.79
			c-4.8-0.31-9.18-1.75-12.8-5.03c-2.88-2.62-5.47-5.47-6.56-9.36c-0.07-0.26-0.06-0.45,0.07-0.66c1.34,0.55,3.37-0.35,3.63,2.46
			c0.14-0.2,0.28-0.39,0.42-0.59c0.05-0.73,0.11-1.46,0.18-2.55c1.75,2.21,3.01,4.52,5.47,5.62c0.34-0.81-0.23-1.29-0.43-1.88
			c-0.22-0.66-1-1.48,0.26-2.09c0.8-0.39-0.03-0.93-0.18-1.31c-0.24-0.6-0.44-1.3-0.05-1.68c0.6-0.6,0.81,0.31,1.19,0.58
			c0.46,0.33,0.96,0.69,1.15-0.26c0.19-0.98,0.69-0.59,1.11-0.21c1.39,1.23,2.41,2.94,4.47,3.28c0.2,0.03,0.32,0.31,0.18,0.58
			c-0.58,1.14-0.58,1.15,0.65,1.64c0.32,0.13,0.79,0.17,0.85,0.56c0.07,0.52-0.42,0.65-0.81,0.81c-0.16,0.07-0.34,0.09-0.51,0.15
			C111.87,44.68,111.87,44.68,113.57,46.14z"/>
		<path class="st1" d="M115.79,39.12c-3.12-0.01-6.64-3.6-6.68-6.81c-0.05-3.94,2.56-6.3,7.18-6.15c4.3,0.14,5.92,2.29,6.08,6.49
			C122.49,35.85,119.03,39.12,115.79,39.12z M115.96,30.84c-1.21-0.04-1.77,0.57-1.75,1.62c0.02,0.96,0.63,1.56,1.59,1.57
			c1.07,0.01,1.59-0.61,1.58-1.7C117.38,31.29,116.91,30.78,115.96,30.84z"/>
		<path class="st0" d="M148.12,24.86c-0.09,0.8-0.16,1.37-0.25,2.15c-1.4-1.57-2.87-2.83-4.92-3.09c-0.33-0.04-0.51-0.31-0.58-0.61
			c-0.08-0.36,0.25-0.33,0.46-0.38c0.44-0.1,0.86-0.33,0.78-0.8c-0.1-0.53-0.61-0.69-1.12-0.69c-0.56,0-1.26-0.03-1.24-0.69
			c0.03-0.8,0.88-0.56,1.41-0.69c0.78-0.19,1.98,0.43,2.29-0.35c0.43-1.06-1.34-1.17-1.53-2.28c0.83-0.34,1.65-0.41,2.53-0.02
			c0.3,0.13,0.75,0.24,0.87-0.24c0.1-0.4-0.22-0.6-0.56-0.79c-1.54-0.92-3.07-1.88-4.82-2.96c1.3-0.4,2.15,0.42,3.09,0.16
			c0.31-0.08,0.78,0.19,0.89-0.3c0.11-0.5-0.34-0.47-0.67-0.6c-1.23-0.51-2.44-1.07-3.82-1.69c6.81-1.66,19.32,7.15,19.44,14.59
			c-0.75-1.69-2.04-2.25-3.25-2.92c-0.29-0.16-0.49-0.58-0.91-0.31c-0.46,0.3-0.3,0.66-0.16,1.09c0.15,0.48,0.12,1.01,0.21,1.92
			c-0.91-1.22-1.55-2.16-2.52-2.76c-0.21-0.13-0.44-0.43-0.77-0.16c-0.34,0.28-0.1,0.56,0.02,0.78c0.42,0.84,0.45,1.7,0.24,2.77
			c-0.61-0.69-1.12-1.32-1.68-1.89c-0.32-0.33-0.74-0.79-1.22-0.45c-0.43,0.3-0.02,0.76,0.12,1.13c0.06,0.17,0.15,0.33,0.21,0.5
			c0.12,0.34,0.25,0.73-0.07,1c-0.39,0.31-0.64-0.11-0.91-0.29C149.21,25.67,148.75,25.32,148.12,24.86z"/>
	</g>
	<g>
		<path class="st2" d="M5.73,91.72c0.01-0.42,0.02-0.85,0.03-1.27c0.21-1.23-0.34-2.26-0.96-3.22c-0.68-1.05-0.37-1.89,0.21-2.84
			c1.41-2.3,3.69-3.07,6.11-3.32c2.61-0.26,5.14,0.08,6.54,2.83c0.36,0.71,0.88,0.47,1.38,0.17c0.7-0.43,1.4-0.77,2.27-0.86
			c3.34-0.35,6.3,2.59,6.7,5.4c0.12,0.88,0.3,1.87,1.26,2.42c0.11-1.19,0.11-1.19-0.62-3.22c-0.57-1.58,0.51-3.51,2.23-3.68
			c3.84-0.37,6.18,0.51,7.55,4.58c0.29,0.86,0.62,1.67,1.29,2.34c1.38,1.38,2.08,2.99,2.05,5.03c-0.02,1.45-0.68,2.88-0.22,4.33
			c0.33,1.02,0.35,2.05,0.39,3.1c0.11,2.43-0.27,4.84-0.21,7.26c0.03,1.5-0.48,2.68-1.42,3.73c-0.44,0.5-1.08,0.83-1.47,1.36
			c-2.19,2.98-7.42,2.11-8.7-1.67c-0.17-0.51-0.2-0.89-0.02-1.4c0.83-2.39,1.54-4.83,1.2-7.39c-0.34-2.5-0.26-5-0.34-7.51
			c-0.06-1.8-0.42-3.63-1.83-5c-0.24-0.23-0.47-0.53-0.79-0.23c-0.27,0.26,0.05,0.49,0.2,0.7c1.23,1.78,1.89,3.69,1.55,5.89
			c-0.05,0.35,0.04,0.73,0.04,1.09c-0.06,3.62,0.65,7.22-0.45,10.88c-1.02,3.38-2.71,5.44-6.32,6.22c-2.59,0.56-4.93-1.15-4.7-3.8
			c0.13-1.49,0.18-3.03-0.3-4.47c-0.56-1.71-0.24-3.32,0.33-4.92c0.37-1.04,0.52-2.09,0.51-3.19c-0.01-1.14-0.13-2.24-0.45-3.35
			c-0.31-1.06-0.21-2.15,0.34-3.18c0.18-0.34,0.31-0.91-0.14-1.08c-0.34-0.13-0.74,0.22-0.93,0.62c-0.09,0.2-0.24,0.41-0.25,0.61
			c-0.02,1.05-0.09,2.09,0.11,3.14c0.32,1.74,0.82,3.49,0.21,5.26c-0.82,2.39-1.09,4.73-0.45,7.27c0.39,1.53,0.65,3.34-0.42,4.84
			c-0.74,1.03-1.54,2.03-2.49,2.88c-1.79,1.59-4,1.97-6.23,1.91c-1.7-0.05-2.49-1.57-2.32-4.05c0.15-2.25,0.27-4.6-0.62-6.59
			c-0.84-1.89-0.64-3.58-0.3-5.38c0.32-1.68,0.39-3.38,0.02-4.99c-0.37-1.61-0.32-3.03,0.28-4.56C5.9,93.59,6.47,92.65,5.73,91.72z
			 M37.59,114.47c1.41-0.94,2.21-1.87,2.52-3.17c0.83-3.56,0.34-7.16,0.34-10.74c0-0.37-0.14-0.81-0.57-0.7
			c-0.4,0.11-0.29,0.55-0.26,0.93C39.97,105.36,40.49,109.96,37.59,114.47z M16.39,110.59c-0.46,0.88,0.11,1.85-0.35,2.46
			c-1.51,2-2.75,4.37-5.62,4.79c-0.28,0.04-0.6,0.06-0.6,0.4c0,0.42,0.37,0.45,0.69,0.47c1.03,0.08,1.97-0.14,2.81-0.77
			c1.48-1.12,2.54-2.63,3.44-4.2C17.31,112.81,17.31,111.63,16.39,110.59z M33.23,85.33c-0.59,0.04-1.18,0.06-1.77,0.13
			c-0.22,0.03-0.43,0.19-0.41,0.46c0.02,0.31,0.29,0.3,0.51,0.31c0.32,0.02,0.64,0.04,0.96,0.01c1.63-0.13,2.65,0.63,3.23,2.11
			c0.19,0.5,0.48,0.96,0.75,1.42c0.15,0.25,0.45,0.39,0.71,0.26c0.28-0.15,0.21-0.47,0.13-0.74c-0.14-0.47-0.45-0.85-0.59-1.35
			C36.17,85.87,35.41,85.35,33.23,85.33z M5.67,85.5c-0.14,0.51,0.19,1.05,0.47,1.54c0.4,0.69,0.62,2.18,1.34,1.82
			c0.79-0.39-0.02-1.63-0.4-2.39c-0.44-0.9-0.31-1.55,0.46-2.11c0.59-0.43,1.2-0.81,1.8-1.23c0.19-0.13,0.34-0.31,0.27-0.57
			c-0.07-0.3-0.32-0.26-0.54-0.26C7.47,82.25,5.7,83.85,5.67,85.5z M27.9,107.97c-0.21,2.72-0.69,5.3-2.84,7.21
			c-0.18,0.16-0.21,0.44,0.01,0.6c0.21,0.16,0.42-0.03,0.62-0.13C27.59,114.67,29.14,110.09,27.9,107.97z M23.82,85.42
			c-0.93-1.68-2.24-1.05-3.33-1.16c-0.32-0.03-0.72-0.05-0.76,0.35c-0.04,0.49,0.41,0.54,0.77,0.54
			C21.53,85.15,22.56,85.04,23.82,85.42z"/>
		<path class="st2" d="M113.32,105.07c1.44,0.72,3.36-0.74,3.56-2.62c0.12-1.12,0.24-2.24,0.43-3.35c0.38-2.28,1.8-4.16,2.53-6.33
			c0.66-1.96,0.73-4.05,1.68-5.94c1.13-2.24,3.55-3.43,5.97-2.73c1.49,0.43,2.43,2.48,2.18,4.26c-0.31,2.17-1.17,4.18-1.65,6.29
			c-0.07,0.31-0.17,0.62-0.16,0.93c0.08,3.67-1.02,7.03-2.77,10.2c-0.34,0.62-0.31,1.25-0.36,1.84c-0.45,4.75-2.92,8.33-6.47,11.26
			c-1.54,1.27-2.49,2.94-3.58,4.54c-0.98,1.46-2.49,2.18-4.13,2.73c-0.84,0.28-1.58,0.86-2.39,1.25c-2.28,1.1-4.79,1.31-7.2,1.94
			c-5.21,1.35-10.59,2.22-15.32,5.14c-1.95,1.21-4.3,1.48-6.65,1.54c-3.23,0.08-6.47-0.16-9.68,0.52c-1.69,0.36-3.19,1.2-4.89,1.57
			c-3.59,0.78-7.15,1.42-10.85,1.55c-2.65,0.09-5.15-0.43-7.68-0.91c-3.67-0.69-7.08,0.11-10.51,1.33
			c-2.79,0.99-5.67,1.86-8.54,0.12c-0.22-0.13-0.54-0.24-0.77-0.18c-2.29,0.63-4.69,0-7,0.81c-3.63,1.28-6.52-0.39-9.15-2.73
			c-0.86-0.77-1.6-1.52-1.44-2.88c0.1-0.85,0.65-1.29,1.09-1.81c1.72-2.04,3.95-2.73,6.63-2.67c3.38,0.08,6.67,0.91,10.04,0.94
			c0.73,0.01,1.44-0.04,2.16-0.26c3.03-0.9,6.1-0.9,9.21-0.41c2.1,0.33,4.07-0.22,5.78-1.45c2.46-1.77,5.09-2.94,8.17-2.53
			c1.65,0.22,3.31,0.56,4.88,1.09c3.26,1.09,6.12,0.05,8.93-1.41c2.45-1.27,4.98-2.21,7.78-1.92c2.78,0.29,5.26-0.56,7.7-1.7
			c1.46-0.68,3-0.97,4.59-1c1.19-0.02,2.38,0.04,3.57,0.08c1.94,0.06,3.74-0.21,5.41-1.42c1.56-1.13,3.55-1.22,5.41-1.47
			c0.6-0.08,1.16-0.15,1.67-0.47c2.28-1.46,4.85-2.47,6.63-4.71c1.07-1.34,1.42-2.19,0.68-3.81c-1.03-2.28-2.64-4.19-4.18-6.11
			c-1.21-1.52-1.46-3.16-1.33-4.98c0.11-1.46,0.1-2.87-0.4-4.32c-0.97-2.84,1.3-5.84,4.28-5.9c1.78-0.03,3.38,0.18,4.28,2.03
			c0.26,0.53,0.1,1.07,0.29,1.6c1.13,3.13,2.19,6.28,3.57,9.31c0.35,0.77,0.41,1.61-0.49,2.17
			C114.33,104.41,113.84,104.74,113.32,105.07z M41.56,131.36c0.67,0.35,1.17,0.41,1.51,0.12c1-0.84,2.22-0.97,3.4-1.22
			c3.51-0.74,7.03-1.37,10.64-0.6c0.88,0.19,1.83,0.05,2.74,0.02c0.29-0.01,0.54-0.24,0.56-0.51c0.04-0.41-0.34-0.35-0.59-0.34
			c-1.64,0.09-3.25-0.22-4.88-0.23c-2-0.01-4,0.14-6,0.24C46.33,128.97,43.97,129.91,41.56,131.36z M126.24,84.8
			c1.54,0.72,1.95,2,1.92,3.51c-0.02,1.05-0.59,1.9-1,2.81c-0.99,2.18-1.42,4.46-1.11,7.11c0.65-0.64,0.75-1.16,0.75-1.77
			c-0.01-1.72,0.09-3.4,1.04-4.95c0.88-1.43,1.02-3.06,0.84-4.71C128.51,85.24,127.76,84.6,126.24,84.8z M112.67,100.18
			c0.09-0.56,0.04-0.95-0.09-1.41c-0.59-2.07-1.7-3.96-2.02-6.11c-0.3-2.02-1.41-2.82-3.46-2.41c0.15,0.44,0.53,0.68,0.91,0.74
			c1.42,0.24,1.63,1.39,1.93,2.46C110.57,95.77,111.25,98.06,112.67,100.18z M122.38,109.69c-1.02,2.96-2.99,4.99-4.74,7.27
			C119.82,116.68,122.97,111.99,122.38,109.69z M26.33,139.62c-0.31-0.74-0.93-0.57-1.44-0.65c-2.3-0.35-4.5,0.44-6.75,0.61
			c-0.33,0.02-0.69,0.16-0.65,0.55c0.04,0.5,0.47,0.51,0.83,0.41C20.88,139.78,23.54,139.82,26.33,139.62z M86.7,132.14
			c-2.2,0.42-4.21,1.67-6.85,1.37C81.63,134.56,84.99,133.82,86.7,132.14z"/>
		<path class="st2" d="M87.04,101.47c-0.51,0.38-0.67,0.87-0.71,1.5c-0.16,2.45-0.01,4.95-0.6,7.35c-0.65,2.6-1.51,5.14-4.41,6.21
			c-1.46,0.54-2.63,0.14-3.7-0.85c-0.98-0.9-1.19-1.94-0.94-3.26c0.5-2.6,0.49-5.22,0.09-7.85c-0.19-1.25-0.15-2.54,0.36-3.75
			c1.34-3.18,1.06-6.4,0.1-9.58c-0.58-1.92-1-3.68-0.35-5.77c0.76-2.41,0.68-5-0.32-7.45c-1.07-2.63-0.16-3.9,2.08-5.11
			c1.84-0.99,3.73-0.95,5.5,0.36c1.47,1.09,1.74,2.6,1.68,4.3c-0.06,1.63-0.29,3.26,0.19,4.89c0.67,2.24,0.59,4.57,0.58,6.88
			c0,0.6-0.11,1.23,0.18,1.83c0.19-0.1,0.32-0.15,0.32-0.18c-0.56-2.92,1.48-4.92,2.59-7.24c1.22-2.54,2.64-4.96,4.05-7.39
			c1.67-2.89,4-2.91,6.06-0.24c2.33,3.02,1.27,7.04-0.9,9.83c-1.57,2.02-2.69,4.25-2.94,6.85c-0.05,0.53-0.15,1.13-0.45,1.53
			c-1.7,2.28-1.79,4.53,0.15,6.64c1.68,1.82,2.17,4.22,3.37,6.27c0.71,1.21,1.53,2.26,1.38,3.83c-0.19,2.09-2.97,4.14-5.01,3.6
			c-2.34-0.63-4.03-1.89-4.93-4.21c-0.6-1.55-1.49-2.96-2.66-4.14c-1.24-1.26-1.05-2.68-0.74-4.16
			C87.1,101.92,87.2,101.73,87.04,101.47z M96.64,86.97c0.09-0.12,0.18-0.24,0.28-0.36c0.07-0.1,0.15-0.19,0.22-0.29
			c-0.2-0.11-0.34-0.09-0.37,0.17c-0.18-0.01-0.28,0.07-0.31,0.24c-0.14,0.1-0.37,0.21-0.2,0.4C96.44,87.34,96.52,87.05,96.64,86.97
			z M81.61,73.69c2.27,0.74,2.41,2.62,2.29,4.46c-0.16,2.58,0.91,4.92,1.11,7.42c-0.09-3.03-0.37-6.04-0.57-9.06
			C84.33,74.73,83.53,73.83,81.61,73.69z M84.07,111.75c1.27-1.28,1.08-2.91,0.79-4.4c-0.32-1.61,0-3.16-0.06-4.74
			C82.74,105.49,84.6,108.72,84.07,111.75z M97.51,75.27c0.45,1.61,2.14,2.49,2.02,4.27c-0.02,0.26,0.16,0.42,0.44,0.36
			c0.27-0.06,0.32-0.28,0.34-0.52C100.4,78.36,98.59,75.66,97.51,75.27z M98.55,110.91c-0.83,1.32-2.01,1.97-3.65,2.3
			C97.23,113.72,98.81,112.69,98.55,110.91z M95.25,90.64c0-1.23,0.46-2.34,1.16-3.62C95,88.11,94.63,89.31,95.25,90.64z"/>
		<path class="st2" d="M184.33,98.63c-0.21,2.23,0.16,3.87,0.61,5.43c0.91,3.14,0.49,6.25-0.31,9.23c-0.53,1.97-2.32,3.12-4.39,3.92
			c-2.18,0.84-4.16,0.06-5.25-1.71c-0.62-1.01-0.71-2.15-0.72-3.41c-0.02-2.21,0.91-4.28,0.66-6.49c-0.12-1.09,0.44-2.14,0.28-3.26
			c-0.16-1.07-0.28-2.17-1.44-2.6c-1.23-0.45-2.3-0.18-3.25,0.84c-1.99,2.12-2.72,4.39-1.67,7.27c1.05,2.89,0.92,5.72-1.6,7.99
			c-2.59,2.34-6.91,1.48-8.17-1.74c-0.37-0.93-0.28-2.1,0.01-3.12c0.57-1.98,0.74-3.89-0.26-5.8c-0.52-0.99-0.33-1.95,0.02-3.09
			c0.81-2.63,0.95-5.35-0.16-8.02c-1.04-2.49-1.17-5.14-0.96-7.78c0.14-1.79,0.1-3.57,0.12-5.36c0.01-1.09-0.66-1.94-0.96-2.93
			c-0.84-2.83,1.08-6.19,4-6.9c1.08-0.26,2.16-0.31,3.24-0.25c1.44,0.08,2.53,1.07,2.18,2.41c-0.67,2.54,0.48,4.6,1.3,6.76
			c0.31,0.8,0.51,1.59,0.39,2.38c-0.39,2.56,0.15,5.12-0.14,7.68c-0.04,0.36-0.25,0.99,0.33,1.01c0.55,0.03,0.43-0.58,0.44-0.97
			c0.07-2.48,0.17-2.29,2.34-3.43c3.25-1.71,6.05-0.68,8.87,0.91c0.78,0.44,1.54,1.15,1.56,2c0.03,1.95,1.48,3.25,2.01,4.96
			C183.85,96.08,184.51,97.54,184.33,98.63z M172.14,88.49c4.53-1.41,6.88,0.98,8.51,4.68c-0.11-2.86-1.23-4.75-3.96-5.68
			C174.96,86.91,173.57,86.94,172.14,88.49z M165.79,82.05c0.17-1,0.18-1.95-0.28-2.94c-0.71-1.52-1.46-3.05-0.76-4.85
			c0.16-0.4,0.25-0.96,0.22-1.43c-0.03-0.53-0.38-0.99-0.98-0.9c-0.68,0.11-0.15,0.54-0.14,0.84c0.01,0.5,0.12,1.03-0.01,1.5
			c-0.79,2.91,1.25,5.17,1.73,7.78C165.57,82.05,165.65,82.05,165.79,82.05z M180.92,115.36c1.97-0.75,3.53-3.73,3.02-5.77
			C183.26,111.69,182.33,113.66,180.92,115.36z"/>
		<path class="st2" d="M232.83,85.45c1.38-0.21,2.63,0.35,3.81,1.39c1.33,1.18,2.96,1.97,4.35,3.09c1.66,1.33,3.1,2.68,3.31,4.98
			c0.23,2.51,1.55,4.95,1.24,7.43c-0.55,4.5-2.04,8.91-6.68,9.84c-0.64,0.13-1.28,0.24-1.87,0.14c-3.11-0.53-6.13-0.37-9.05,0.88
			c-0.65,0.28-1.33,0.24-2.01,0.27c-0.25,0.01-0.62-0.09-0.61,0.32c0,0.31,0.3,0.47,0.58,0.48c0.73,0.03,1.47,0.08,2.19,0
			c0.81-0.08,1.35,0.29,1.24,1.01c-0.55,3.57,0.42,7.03,0.56,10.54c0.11,2.64-3.17,4.87-5.72,4.2c-3.27-0.86-4.98-3.48-4.34-6.83
			c0.45-2.37,0.29-4.67-0.45-6.94c-0.52-1.58-0.77-3.17-0.66-4.82c0.13-1.93,0.11-3.85-0.89-5.59c-0.98-1.7-0.38-3.48-0.19-5.19
			c0.22-1.88-0.23-3.68-0.43-5.48c-0.34-3.05,2-6.17,5.05-6.19c1.86-0.01,3.37-0.95,4.85-1.9C228.79,86,230.61,85.39,232.83,85.45z
			 M227.74,102.3c-0.02,1.65,1.19,2.57,2.52,2.23c1.49-0.38,2.6-1.33,3.53-2.44c1.4-1.68,0.97-3.88-0.86-4.73
			c-0.45-0.21-0.88-0.44-1.32-0.66c-1.42-0.74-3.47,0.32-3.61,1.93C227.9,99.92,228.15,101.26,227.74,102.3z M232.29,86.77
			c-0.69-0.14-1.48,0.18-2.29,0.27c-0.28,0.03-0.59,0.04-0.59,0.41c-0.01,0.48,0.39,0.44,0.69,0.42c0.31-0.02,0.61-0.14,0.92-0.2
			c1.47-0.27,2.95-0.09,3.97,0.95c1.31,1.34,2.78,2.26,4.51,2.83c0.32,0.11,0.63,0.82,1,0.23c0.22-0.35-0.33-0.59-0.59-0.77
			c-1.74-1.25-3.54-2.42-5.26-3.7C233.95,86.69,233.2,86.79,232.29,86.77z M219.21,94.7c-0.05-0.27,0.18-0.67-0.32-0.75
			c-0.47-0.07-0.49,0.28-0.53,0.61c-0.01,0.09-0.02,0.18-0.02,0.27c0.05,3.03,1.19,6.06,0.07,9.11c-0.08,0.23,0.11,0.42,0.39,0.42
			c0.2,0,0.38-0.08,0.39-0.29c0.08-1.62,1.02-3.18,0.51-4.82C219.24,97.76,218.62,96.31,219.21,94.7z M225.86,128.92
			c1.75-0.32,2.69-1.29,2.95-2.93c0.22-1.43-0.36-2.53-1.66-3.62C227.58,124.85,228.08,127.1,225.86,128.92z M228.65,96
			c-0.95-0.32-1.46-0.07-1.86,0.64c-0.59,1.04-0.62,2,0.34,3.25C227.02,98.18,227.51,96.97,228.65,96z"/>
		<path class="st2" d="M143.43,96.46c2.84-0.41,4.52,1.11,6.06,2.89c0.73,0.84,1.59,1.5,2.46,2.17c2.88,2.23,2.71,3.56,2.49,6.9
			c-0.07,1-0.72,1.78-1.57,2.1c-1.69,0.64-2.82,1.99-4.21,3c-1.6,1.16-3.26,2.16-5.33,2.14c-0.5-0.01-0.95-0.11-1.43-0.33
			c-1.75-0.78-3.61-1.23-5.54-1.33c-2.85-0.14-5.08-3.17-5.41-5.21c-0.28-1.66,2.49-4.59,4.28-4.67c1-0.05,1.96,0,2.88,0.56
			c1.22,0.74,2.71,0.59,4.02,1.08c0.18,0.07,0.38,0,0.46-0.19c0.11-0.26-0.07-0.43-0.25-0.58c-0.66-0.56-1.5-0.7-2.31-0.81
			c-1.94-0.26-3.53-1.17-4.96-2.42c-1.24-1.08-1.94-2.08-0.94-4.2c0.66-1.38,0.63-2.79-0.27-4.16c-0.94-1.44-0.58-2.88,0.55-4.16
			c2.63-3,7.29-3.14,10.8-1.4c1.44,0.72,2.89,0.98,4.57,0.71c2.78-0.45,4.64,0.65,4.77,3.95c0.07,1.93-0.27,3.54-2.09,4.55
			c-1.06,0.59-2.11,0.78-3.28,0.3c-1.27-0.53-2.3-1.5-3.65-1.88C144.65,95.22,144.03,95.37,143.43,96.46z M152.45,90.39
			c0.68,1.86,1.17,3.64-1.03,4.8c-0.28,0.15-0.53,0.49-0.32,0.8c0.2,0.29,0.59,0.2,0.88,0.05c0.92-0.45,1.74-1.22,1.57-2.19
			C153.35,92.71,154.14,91.19,152.45,90.39z M136.94,112.39c-1.13-0.56-2.01-1-2.89-1.43c-0.18-0.09-0.39-0.29-0.61-0.04
			c-0.24,0.27-0.07,0.51,0.1,0.73C134.37,112.69,135.42,112.86,136.94,112.39z M135.16,93.96c0.41-1.65-0.94-3.13,0.5-4.42
			C133.89,90.34,133.8,91.22,135.16,93.96z"/>
		<path class="st2" d="M61.03,111.07c-0.19-0.97,0.32-2.02,0.27-3.12c-0.06-1.49,0.09-2.97-0.45-4.46c-0.4-1.09-0.07-2.35,0.31-3.47
			c0.62-1.82,0.72-3.64-0.11-5.38c-1.2-2.53-1.26-5.08-0.56-7.72c0.84-3.15,0.58-6.24-0.53-9.27c-0.78-2.13,0.79-5.61,4.36-4.87
			c3.14,0.65,4.99,2.88,5.53,6.07c0.42,2.48-0.32,5,0.48,7.45c0.39,1.19,0.76,2.37,0.87,3.67c0.27,3.22-1.17,6-1.96,8.96
			c-0.54,2.04-0.47,4.12,0.08,6.18c0.76,2.86,1.75,5.69-0.08,8.59c-0.77,1.23-1.64,2.31-3.02,2.6c-0.86,0.18-1.61,1.22-2.63,0.48
			c-1.47-1.07-2.25-2.56-2.54-4.32C60.97,112.05,61.03,111.63,61.03,111.07z M62.68,81.09c0-0.82,0.12-1.43-0.02-1.99
			c-0.49-1.94-0.39-3.58,1.77-4.47c0.34-0.14,0.18-0.46-0.11-0.59c-1.38-0.6-2.83,0.24-3.08,1.72c-0.13,0.75-0.22,1.53,0.03,2.2
			C61.64,78.96,61.5,80.21,62.68,81.09z M69.27,90.34c0.12,1.74-0.3,3.1-0.57,4.48c-0.23,1.15-0.89,2.2-0.83,3.41
			c0.01,0.26-0.1,0.58,0.3,0.63c0.28,0.03,0.41-0.18,0.46-0.41c0.52-2.03,1.52-3.95,1.54-6.11C70.19,91.7,70.14,91.09,69.27,90.34z"
			/>
		<path class="st2" d="M189.08,104.9c0.22-1.88-0.04-4.06-0.62-6.24c-0.26-0.98-0.09-2.05,0.5-3c1.37-2.22,2.69-4.47,3.75-6.86
			c0.58-1.3,1.85-1.83,3.11-1.94c2.95-0.25,5.93-0.02,8.83,0.53c2.67,0.51,4.68,2.12,6.15,4.52c0.9,1.47,2.13,2.71,2.74,4.4
			c0.43,1.21,0.67,2.43,0.3,3.59c-0.56,1.75-0.61,3.52-0.53,5.28c0.13,2.84-1.13,5.09-2.72,7.24c-0.3,0.41-0.7,0.72-1.19,0.9
			c-2.57,0.9-4.97,2.19-7.43,3.33c-1.91,0.88-4,0.54-5.8-0.34c-3.12-1.54-5.39-4.06-6.72-7.26
			C188.97,107.93,189.19,106.53,189.08,104.9z M199.35,99.1c-0.09,0.09-0.19,0.18-0.28,0.28c-1.4,1.37-0.82,5.16,0.92,6
			c0.9,0.44,2.48-0.12,2.42-0.94c-0.11-1.36,0.49-2.31,1.24-3.32c0.94-1.25,0.2-2.89-1.36-3.04C201.2,97.96,200.1,98.1,199.35,99.1z
			 M208.96,91.62c-1.29-2.3-3.34-3.19-5.74-3.46c-0.26-0.03-0.72-0.17-0.72,0.34c0,0.27,0.27,0.42,0.58,0.48
			c1.92,0.38,3.72,1.03,5.06,2.57C208.34,91.79,208.61,91.78,208.96,91.62z M203,106.41c-1.73-0.32-3.57,0.52-4.86-1.11
			c-0.14-0.18-0.44-0.16-0.59,0.07c-0.13,0.21-0.06,0.43,0.06,0.64C198.26,107.2,201.8,107.56,203,106.41z"/>
		<path class="st2" d="M56.02,94.58c0.38,2.22-0.45,4.42-1.16,6.62c-0.32,0.99-0.3,1.97-0.06,2.95c0.58,2.46,1.2,4.91,1.24,7.45
			c0.04,2.35-2.02,4.81-4.19,5.5c-2.19,0.7-3.77-0.49-3.66-2.66c0.16-3.04-0.99-5.56-1.99-8.2c-0.36-0.96-0.25-1.89-0.11-2.91
			c0.45-3.17,1.39-6.31,0.44-9.59c-0.39-1.34,0.09-2.76,1.05-3.91c0.9-1.08,2.02-1.87,3.26-2.48c2.1-1.04,4.47,0.44,4.91,2.98
			C56,91.69,56.08,93.04,56.02,94.58z M54.71,92.27c0-0.48,0.05-0.85-0.01-1.21c-0.26-1.71-1.33-3.18-3.13-2.43
			c-0.35,0.15-0.94,0.11-0.89,0.55c0.06,0.49,0.65,0.38,1.05,0.37c0.88-0.02,1.86,0.05,1.77,1.17c-0.15,1.68,0.72,3.18,0.62,4.82
			c-0.03,0.46,0.11,1.08,0.57,1.08c0.7,0,0.48-0.7,0.57-1.16C55.5,94.28,54.33,93.35,54.71,92.27z"/>
		<path class="st2" d="M50.89,74.16c0.99-0.07,1.91,0.21,2.72,0.73c1.29,0.82,2.11,2.05,1.83,3.55c-0.33,1.74-1.54,2.97-3.27,3.45
			c-1.39,0.39-2.7,0.89-3.87,1.7c-1.12,0.77-1.95,0.26-2.77-0.45c-0.85-0.74-1.72-1.67-1.17-2.81c1.14-2.31,2.53-4.47,4.82-5.89
			C49.74,74.09,50.31,74.2,50.89,74.16z M48.25,76.81c-0.02-0.44,0.48-0.54,0.6-0.89c0.09-0.12,0.37-0.2,0.15-0.39
			c-0.2-0.17-0.29,0.06-0.38,0.21C48.14,75.98,47.92,76.3,48.25,76.81c-0.13,0.05-0.15-0.36-0.33-0.09
			C48.03,76.76,48.14,76.79,48.25,76.81z M48.97,75.46c0.63,0.23,1.02-0.2,1.8-0.43C49.9,74.92,49.34,74.76,48.97,75.46z"/>
	</g>
	<g>
		<path class="st0" d="M5.73,91.72c0.01-0.42,0.02-0.85,0.03-1.27c0.21-1.23-0.34-2.26-0.96-3.22c-0.68-1.05-0.37-1.89,0.21-2.84
			c1.41-2.3,3.69-3.07,6.11-3.32c2.61-0.26,5.14,0.08,6.54,2.83c0.36,0.71,0.88,0.47,1.38,0.17c0.7-0.43,1.4-0.77,2.27-0.86
			c3.34-0.35,6.3,2.59,6.7,5.4c0.12,0.88,0.3,1.87,1.26,2.42c0.11-1.19,0.11-1.19-0.62-3.22c-0.57-1.58,0.51-3.51,2.23-3.68
			c3.84-0.37,6.18,0.51,7.55,4.58c0.29,0.86,0.62,1.67,1.29,2.34c1.38,1.38,2.08,2.99,2.05,5.03c-0.02,1.45-0.68,2.88-0.22,4.33
			c0.33,1.02,0.35,2.05,0.39,3.1c0.11,2.43-0.27,4.84-0.21,7.26c0.03,1.5-0.48,2.68-1.42,3.73c-0.44,0.5-1.08,0.83-1.47,1.36
			c-2.19,2.98-7.42,2.11-8.7-1.67c-0.17-0.51-0.2-0.89-0.02-1.4c0.83-2.39,1.54-4.83,1.2-7.39c-0.34-2.5-0.31-4.9-0.07-7.47
			c0.18-1.86-0.73-3.37-2.11-5.04c0,0-0.32-0.5-0.64-0.2c-0.27,0.26-0.02,1.04,0.12,1.24c1.23,1.78,1.64,2.28,1.31,4.47
			c-0.05,0.35-0.14,2.57-0.09,2.93c0.49,3.44,0.51,6.06-0.15,9.88c-1.02,3.38-2.71,5.44-6.32,6.22c-2.59,0.56-4.93-1.15-4.7-3.8
			c0.13-1.49,0.18-3.03-0.3-4.47c-0.56-1.71-0.24-3.32,0.33-4.92c0.37-1.04,0.52-2.09,0.51-3.19c-0.01-1.14-0.13-2.24-0.45-3.35
			c-0.31-1.06-0.21-2.15,0.34-3.18c0.18-0.34,0.31-0.91-0.14-1.08c-0.34-0.13-0.74,0.22-0.93,0.62c-0.09,0.2-0.2,0.41-0.25,0.61
			c-0.15,0.68-0.49,2.06-0.3,3.11c0.32,1.74,0.79,3.26,0.18,5.02c-0.82,2.39-1.2,4.85-0.55,7.4c0.39,1.53,1.19,3.49,0.12,4.98
			c-0.74,1.03-1.54,2.03-2.49,2.88c-1.79,1.59-4,1.97-6.23,1.91c-1.7-0.05-2.49-1.57-2.32-4.05c0.15-2.25,0.27-4.6-0.62-6.59
			c-0.84-1.89-0.64-3.58-0.3-5.38c0.32-1.68,0.39-3.38,0.02-4.99c-0.37-1.61-0.32-3.03,0.28-4.56C5.9,93.59,6.47,92.65,5.73,91.72z
			 M37.59,114.47c1.41-0.94,2.21-1.87,2.52-3.17c0.83-3.56,0.34-7.16,0.34-10.74c0-0.37-0.14-0.81-0.57-0.7
			c-0.4,0.11-0.29,0.55-0.26,0.93C39.97,105.36,40.49,109.96,37.59,114.47z M16.39,110.59c-0.46,0.88,0.11,1.85-0.35,2.46
			c-1.51,2-2.75,4.37-5.62,4.79c-0.28,0.04-0.6,0.06-0.6,0.4c0,0.42,0.37,0.45,0.69,0.47c1.03,0.08,1.97-0.14,2.81-0.77
			c1.48-1.12,2.54-2.63,3.44-4.2C17.31,112.81,17.31,111.63,16.39,110.59z M33.23,85.33c-0.59,0.04-1.18,0.06-1.77,0.13
			c-0.22,0.03-0.43,0.19-0.41,0.46c0.02,0.31,0.29,0.3,0.51,0.31c0.32,0.02,0.64,0.04,0.96,0.01c1.63-0.13,2.65,0.63,3.23,2.11
			c0.19,0.5,0.48,0.96,0.75,1.42c0.15,0.25,0.45,0.39,0.71,0.26c0.28-0.15,0.21-0.47,0.13-0.74c-0.14-0.47-0.45-0.85-0.59-1.35
			C36.17,85.87,35.41,85.35,33.23,85.33z M5.67,85.5c-0.14,0.51,0.19,1.05,0.47,1.54c0.4,0.69,0.62,2.18,1.34,1.82
			c0.79-0.39-0.02-1.63-0.4-2.39c-0.44-0.9-0.31-1.55,0.46-2.11c0.59-0.43,1.2-0.81,1.8-1.23c0.19-0.13,0.34-0.31,0.27-0.57
			c-0.07-0.3-0.32-0.26-0.54-0.26C7.47,82.25,5.7,83.85,5.67,85.5z M27.9,107.97c-0.21,2.72-0.69,5.3-2.84,7.21
			c-0.18,0.16-0.21,0.44,0.01,0.6c0.21,0.16,0.42-0.03,0.62-0.13C27.59,114.67,29.14,110.09,27.9,107.97z M23.82,85.42
			c-0.93-1.68-2.24-1.05-3.33-1.16c-0.32-0.03-0.72-0.05-0.76,0.35c-0.04,0.49,0.41,0.54,0.77,0.54
			C21.53,85.15,22.56,85.04,23.82,85.42z"/>
		<path class="st0" d="M113.32,105.07c1.44,0.72,3.36-0.74,3.56-2.62c0.12-1.12,0.24-2.24,0.43-3.35c0.38-2.28,1.8-4.16,2.53-6.33
			c0.66-1.96,0.73-4.05,1.68-5.94c1.13-2.24,3.55-3.43,5.97-2.73c1.49,0.43,2.43,2.48,2.18,4.26c-0.31,2.17-1.17,4.18-1.65,6.29
			c-0.07,0.31-0.17,0.62-0.16,0.93c0.08,3.67-1.02,7.03-2.77,10.2c-0.34,0.62-0.31,1.25-0.36,1.84c-0.45,4.75-2.92,8.33-6.47,11.26
			c-1.54,1.27-2.49,2.94-3.58,4.54c-0.98,1.46-2.49,2.18-4.13,2.73c-0.84,0.28-1.58,0.86-2.39,1.25c-2.28,1.1-4.79,1.31-7.2,1.94
			c-5.21,1.35-10.59,2.22-15.32,5.14c-1.95,1.21-4.3,1.48-6.65,1.54c-3.23,0.08-6.47-0.16-9.68,0.52c-1.69,0.36-3.19,1.2-4.89,1.57
			c-3.59,0.78-7.15,1.42-10.85,1.55c-2.65,0.09-5.15-0.43-7.68-0.91c-3.67-0.69-7.08,0.11-10.51,1.33
			c-2.79,0.99-5.67,1.86-8.54,0.12c-0.22-0.13-0.54-0.24-0.77-0.18c-2.29,0.63-4.69,0-7,0.81c-3.63,1.28-6.52-0.39-9.15-2.73
			c-0.86-0.77-1.6-1.52-1.44-2.88c0.1-0.85,0.65-1.29,1.09-1.81c1.72-2.04,3.95-2.73,6.63-2.67c3.38,0.08,6.67,0.91,10.04,0.94
			c0.73,0.01,1.44-0.04,2.16-0.26c3.03-0.9,6.1-0.9,9.21-0.41c2.1,0.33,4.07-0.22,5.78-1.45c2.46-1.77,5.09-2.94,8.17-2.53
			c1.65,0.22,3.31,0.56,4.88,1.09c3.26,1.09,6.12,0.05,8.93-1.41c2.45-1.27,4.98-2.21,7.78-1.92c2.78,0.29,5.26-0.56,7.7-1.7
			c1.46-0.68,3-0.97,4.59-1c1.19-0.02,2.38,0.04,3.57,0.08c1.94,0.06,3.74-0.21,5.41-1.42c1.56-1.13,3.55-1.22,5.41-1.47
			c0.6-0.08,1.16-0.15,1.67-0.47c2.28-1.46,4.85-2.47,6.63-4.71c1.07-1.34,1.42-2.19,0.68-3.81c-1.03-2.28-2.64-4.19-4.18-6.11
			c-1.21-1.52-1.46-3.16-1.33-4.98c0.11-1.46,0.1-2.87-0.4-4.32c-0.97-2.84,1.3-5.84,4.28-5.9c1.78-0.03,3.38,0.18,4.28,2.03
			c0.26,0.53,0.1,1.07,0.29,1.6c1.13,3.13,2.19,6.28,3.57,9.31c0.35,0.77,0.41,1.61-0.49,2.17
			C114.33,104.41,113.84,104.74,113.32,105.07z M41.56,131.36c0.67,0.35,1.17,0.41,1.51,0.12c1-0.84,2.22-0.97,3.4-1.22
			c3.51-0.74,7.03-1.37,10.64-0.6c0.88,0.19,1.83,0.05,2.74,0.02c0.29-0.01,0.54-0.24,0.56-0.51c0.04-0.41-0.34-0.35-0.59-0.34
			c-1.64,0.09-3.25-0.22-4.88-0.23c-2-0.01-4,0.14-6,0.24C46.33,128.97,43.97,129.91,41.56,131.36z M126.24,84.8
			c1.54,0.72,1.95,2,1.92,3.51c-0.02,1.05-0.59,1.9-1,2.81c-0.99,2.18-1.42,4.46-1.11,7.11c0.65-0.64,0.75-1.16,0.75-1.77
			c-0.01-1.72,0.09-3.4,1.04-4.95c0.88-1.43,1.02-3.06,0.84-4.71C128.51,85.24,127.76,84.6,126.24,84.8z M112.67,100.18
			c0.09-0.56,0.04-0.95-0.09-1.41c-0.59-2.07-1.7-3.96-2.02-6.11c-0.3-2.02-1.41-2.82-3.46-2.41c0.15,0.44,0.53,0.68,0.91,0.74
			c1.42,0.24,1.63,1.39,1.93,2.46C110.57,95.77,111.25,98.06,112.67,100.18z M122.38,109.69c-1.02,2.96-2.99,4.99-4.74,7.27
			C119.82,116.68,122.97,111.99,122.38,109.69z M26.33,139.62c-0.31-0.74-0.93-0.57-1.44-0.65c-2.3-0.35-4.5,0.44-6.75,0.61
			c-0.33,0.02-0.69,0.16-0.65,0.55c0.04,0.5,0.47,0.51,0.83,0.41C20.88,139.78,23.54,139.82,26.33,139.62z M86.7,132.14
			c-2.2,0.42-4.21,1.67-6.85,1.37C81.63,134.56,84.99,133.82,86.7,132.14z"/>
		<path class="st0" d="M87.04,101.47c-0.51,0.38-0.67,0.87-0.71,1.5c-0.16,2.45-0.01,4.95-0.6,7.35c-0.65,2.6-1.51,5.14-4.41,6.21
			c-1.46,0.54-2.63,0.14-3.7-0.85c-0.98-0.9-1.19-1.94-0.94-3.26c0.5-2.6,0.49-5.22,0.09-7.85c-0.19-1.25-0.15-2.54,0.36-3.75
			c1.34-3.18,1.06-6.4,0.1-9.58c-0.58-1.92-1-3.68-0.35-5.77c0.76-2.41,0.68-5-0.32-7.45c-1.07-2.63-0.16-3.9,2.08-5.11
			c1.84-0.99,3.73-0.95,5.5,0.36c1.47,1.09,1.74,2.6,1.68,4.3c-0.06,1.63-0.29,3.26,0.19,4.89c0.67,2.24,0.59,4.57,0.58,6.88
			c0,0.6-0.11,1.23,0.18,1.83c0.19-0.1,0.32-0.15,0.32-0.18c-0.56-2.92,1.48-4.92,2.59-7.24c1.22-2.54,2.64-4.96,4.05-7.39
			c1.67-2.89,4-2.91,6.06-0.24c2.33,3.02,1.27,7.04-0.9,9.83c-1.57,2.02-2.69,4.25-2.94,6.85c-0.05,0.53-0.15,1.13-0.45,1.53
			c-1.7,2.28-1.79,4.53,0.15,6.64c1.68,1.82,2.17,4.22,3.37,6.27c0.71,1.21,1.53,2.26,1.38,3.83c-0.19,2.09-2.97,4.14-5.01,3.6
			c-2.34-0.63-4.03-1.89-4.93-4.21c-0.6-1.55-1.49-2.96-2.66-4.14c-1.24-1.26-1.05-2.68-0.74-4.16
			C87.1,101.92,87.2,101.73,87.04,101.47z M96.64,86.97c0.09-0.12,0.18-0.24,0.28-0.36c0.07-0.1,0.15-0.19,0.22-0.29
			c-0.2-0.11-0.34-0.09-0.37,0.17c-0.18-0.01-0.28,0.07-0.31,0.24c-0.14,0.1-0.37,0.21-0.2,0.4C96.44,87.34,96.52,87.05,96.64,86.97
			z M81.61,73.69c2.27,0.74,2.41,2.62,2.29,4.46c-0.16,2.58,0.91,4.92,1.11,7.42c-0.09-3.03-0.37-6.04-0.57-9.06
			C84.33,74.73,83.53,73.83,81.61,73.69z M84.07,111.75c1.27-1.28,1.08-2.91,0.79-4.4c-0.32-1.61,0-3.16-0.06-4.74
			C82.74,105.49,84.6,108.72,84.07,111.75z M97.51,75.27c0.45,1.61,2.14,2.49,2.02,4.27c-0.02,0.26,0.16,0.42,0.44,0.36
			c0.27-0.06,0.32-0.28,0.34-0.52C100.4,78.36,98.59,75.66,97.51,75.27z M98.55,110.91c-0.83,1.32-2.01,1.97-3.65,2.3
			C97.23,113.72,98.81,112.69,98.55,110.91z M95.25,90.64c0-1.23,0.46-2.34,1.16-3.62C95,88.11,94.63,89.31,95.25,90.64z"/>
		<path class="st0" d="M184.33,98.63c-0.21,2.23,0.16,3.87,0.61,5.43c0.91,3.14,0.49,6.25-0.31,9.23c-0.53,1.97-2.32,3.12-4.39,3.92
			c-2.18,0.84-4.16,0.06-5.25-1.71c-0.62-1.01-0.71-2.15-0.72-3.41c-0.02-2.21,0.91-4.28,0.66-6.49c-0.12-1.09,0.44-2.14,0.28-3.26
			c-0.16-1.07-0.28-2.17-1.44-2.6c-1.23-0.45-2.3-0.18-3.25,0.84c-1.99,2.12-2.72,4.39-1.67,7.27c1.05,2.89,0.92,5.72-1.6,7.99
			c-2.59,2.34-6.91,1.48-8.17-1.74c-0.37-0.93-0.28-2.1,0.01-3.12c0.57-1.98,0.74-3.89-0.26-5.8c-0.52-0.99-0.33-1.95,0.02-3.09
			c0.81-2.63,0.95-5.35-0.16-8.02c-1.04-2.49-1.17-5.14-0.96-7.78c0.14-1.79,0.1-3.57,0.12-5.36c0.01-1.09-0.66-1.94-0.96-2.93
			c-0.84-2.83,1.08-6.19,4-6.9c1.08-0.26,2.16-0.31,3.24-0.25c1.44,0.08,2.53,1.07,2.18,2.41c-0.67,2.54,0.48,4.6,1.3,6.76
			c0.31,0.8,0.51,1.59,0.39,2.38c-0.39,2.56,0.15,5.12-0.14,7.68c-0.04,0.36-0.25,0.99,0.33,1.01c0.55,0.03,0.43-0.58,0.44-0.97
			c0.07-2.48,0.17-2.29,2.34-3.43c3.25-1.71,6.05-0.68,8.87,0.91c0.78,0.44,1.54,1.15,1.56,2c0.03,1.95,1.48,3.25,2.01,4.96
			C183.85,96.08,184.51,97.54,184.33,98.63z M172.14,88.49c4.53-1.41,6.88,0.98,8.51,4.68c-0.11-2.86-1.23-4.75-3.96-5.68
			C174.96,86.91,173.57,86.94,172.14,88.49z M165.79,82.05c0.17-1,0.18-1.95-0.28-2.94c-0.71-1.52-1.46-3.05-0.76-4.85
			c0.16-0.4,0.25-0.96,0.22-1.43c-0.03-0.53-0.38-0.99-0.98-0.9c-0.68,0.11-0.15,0.54-0.14,0.84c0.01,0.5,0.12,1.03-0.01,1.5
			c-0.79,2.91,1.25,5.17,1.73,7.78C165.57,82.05,165.65,82.05,165.79,82.05z M180.92,115.36c1.97-0.75,3.53-3.73,3.02-5.77
			C183.26,111.69,182.33,113.66,180.92,115.36z"/>
		<path class="st0" d="M232.83,85.45c1.38-0.21,2.63,0.35,3.81,1.39c1.33,1.18,2.96,1.97,4.35,3.09c1.66,1.33,3.1,2.68,3.31,4.98
			c0.23,2.51,1.55,4.95,1.24,7.43c-0.55,4.5-2.04,8.91-6.68,9.84c-0.64,0.13-1.28,0.24-1.87,0.14c-3.11-0.53-6.13-0.37-9.05,0.88
			c-0.65,0.28-1.33,0.24-2.01,0.27c-0.25,0.01-0.62-0.09-0.61,0.32c0,0.31,0.3,0.47,0.58,0.48c0.73,0.03,1.47,0.08,2.19,0
			c0.81-0.08,1.35,0.29,1.24,1.01c-0.55,3.57,0.42,7.03,0.56,10.54c0.11,2.64-3.17,4.87-5.72,4.2c-3.27-0.86-4.98-3.48-4.34-6.83
			c0.45-2.37,0.29-4.67-0.45-6.94c-0.52-1.58-0.77-3.17-0.66-4.82c0.13-1.93,0.11-3.85-0.89-5.59c-0.98-1.7-0.38-3.48-0.19-5.19
			c0.22-1.88-0.23-3.68-0.43-5.48c-0.34-3.05,2-6.17,5.05-6.19c1.86-0.01,3.37-0.95,4.85-1.9C228.79,86,230.61,85.39,232.83,85.45z
			 M227.74,102.3c-0.02,1.65,1.19,2.57,2.52,2.23c1.49-0.38,2.6-1.33,3.53-2.44c1.4-1.68,0.97-3.88-0.86-4.73
			c-0.45-0.21-0.88-0.44-1.32-0.66c-1.42-0.74-3.47,0.32-3.61,1.93C227.9,99.92,228.15,101.26,227.74,102.3z M232.29,86.77
			c-0.69-0.14-1.48,0.18-2.29,0.27c-0.28,0.03-0.59,0.04-0.59,0.41c-0.01,0.48,0.39,0.44,0.69,0.42c0.31-0.02,0.61-0.14,0.92-0.2
			c1.47-0.27,2.95-0.09,3.97,0.95c1.31,1.34,2.78,2.26,4.51,2.83c0.32,0.11,0.63,0.82,1,0.23c0.22-0.35-0.33-0.59-0.59-0.77
			c-1.74-1.25-3.54-2.42-5.26-3.7C233.95,86.69,233.2,86.79,232.29,86.77z M219.21,94.7c-0.05-0.27,0.18-0.67-0.32-0.75
			c-0.47-0.07-0.49,0.28-0.53,0.61c-0.01,0.09-0.02,0.18-0.02,0.27c0.05,3.03,1.19,6.06,0.07,9.11c-0.08,0.23,0.11,0.42,0.39,0.42
			c0.2,0,0.38-0.08,0.39-0.29c0.08-1.62,1.02-3.18,0.51-4.82C219.24,97.76,218.62,96.31,219.21,94.7z M225.86,128.92
			c1.75-0.32,2.69-1.29,2.95-2.93c0.22-1.43-0.36-2.53-1.66-3.62C227.58,124.85,228.08,127.1,225.86,128.92z M228.65,96
			c-0.95-0.32-1.46-0.07-1.86,0.64c-0.59,1.04-0.62,2,0.34,3.25C227.02,98.18,227.51,96.97,228.65,96z"/>
		<path class="st0" d="M143.43,96.46c2.84-0.41,4.52,1.11,6.06,2.89c0.73,0.84,1.59,1.5,2.46,2.17c2.88,2.23,2.71,3.56,2.49,6.9
			c-0.07,1-0.72,1.78-1.57,2.1c-1.69,0.64-2.82,1.99-4.21,3c-1.6,1.16-3.26,2.16-5.33,2.14c-0.5-0.01-0.95-0.11-1.43-0.33
			c-1.75-0.78-3.61-1.23-5.54-1.33c-2.85-0.14-5.08-3.17-5.41-5.21c-0.28-1.66,2.49-4.59,4.28-4.67c1-0.05,1.96,0,2.88,0.56
			c1.22,0.74,2.71,0.59,4.02,1.08c0.18,0.07,0.38,0,0.46-0.19c0.11-0.26-0.07-0.43-0.25-0.58c-0.66-0.56-1.5-0.7-2.31-0.81
			c-1.94-0.26-3.53-1.17-4.96-2.42c-1.24-1.08-1.94-2.08-0.94-4.2c0.66-1.38,0.63-2.79-0.27-4.16c-0.94-1.44-0.58-2.88,0.55-4.16
			c2.63-3,7.29-3.14,10.8-1.4c1.44,0.72,2.89,0.98,4.57,0.71c2.78-0.45,4.64,0.65,4.77,3.95c0.07,1.93-0.27,3.54-2.09,4.55
			c-1.06,0.59-2.11,0.78-3.28,0.3c-1.27-0.53-2.3-1.5-3.65-1.88C144.65,95.22,144.03,95.37,143.43,96.46z M152.45,90.39
			c0.68,1.86,1.17,3.64-1.03,4.8c-0.28,0.15-0.53,0.49-0.32,0.8c0.2,0.29,0.59,0.2,0.88,0.05c0.92-0.45,1.74-1.22,1.57-2.19
			C153.35,92.71,154.14,91.19,152.45,90.39z M136.94,112.39c-1.13-0.56-2.01-1-2.89-1.43c-0.18-0.09-0.39-0.29-0.61-0.04
			c-0.24,0.27-0.07,0.51,0.1,0.73C134.37,112.69,135.42,112.86,136.94,112.39z M135.16,93.96c0.41-1.65-0.94-3.13,0.5-4.42
			C133.89,90.34,133.8,91.22,135.16,93.96z"/>
		<path class="st0" d="M61.03,111.07c-0.19-0.97,0.32-2.02,0.27-3.12c-0.06-1.49,0.09-2.97-0.45-4.46c-0.4-1.09-0.07-2.35,0.31-3.47
			c0.62-1.82,0.72-3.64-0.11-5.38c-1.2-2.53-1.26-5.08-0.56-7.72c0.84-3.15,0.58-6.24-0.53-9.27c-0.78-2.13,0.79-5.61,4.36-4.87
			c3.14,0.65,4.99,2.88,5.53,6.07c0.42,2.48-0.32,5,0.48,7.45c0.39,1.19,0.76,2.37,0.87,3.67c0.27,3.22-1.17,6-1.96,8.96
			c-0.54,2.04-0.47,4.12,0.08,6.18c0.76,2.86,1.75,5.69-0.08,8.59c-0.77,1.23-1.64,2.31-3.02,2.6c-0.86,0.18-1.61,1.22-2.63,0.48
			c-1.47-1.07-2.25-2.56-2.54-4.32C60.97,112.05,61.03,111.63,61.03,111.07z M62.68,81.09c0-0.82,0.12-1.43-0.02-1.99
			c-0.49-1.94-0.39-3.58,1.77-4.47c0.34-0.14,0.18-0.46-0.11-0.59c-1.38-0.6-2.83,0.24-3.08,1.72c-0.13,0.75-0.22,1.53,0.03,2.2
			C61.64,78.96,61.5,80.21,62.68,81.09z M69.27,90.34c0.12,1.74-0.3,3.1-0.57,4.48c-0.23,1.15-0.89,2.2-0.83,3.41
			c0.01,0.26-0.1,0.58,0.3,0.63c0.28,0.03,0.41-0.18,0.46-0.41c0.52-2.03,1.52-3.95,1.54-6.11C70.19,91.7,70.14,91.09,69.27,90.34z"
			/>
		<path class="st0" d="M189.08,104.9c0.22-1.88-0.04-4.06-0.62-6.24c-0.26-0.98-0.09-2.05,0.5-3c1.37-2.22,2.69-4.47,3.75-6.86
			c0.58-1.3,1.85-1.83,3.11-1.94c2.95-0.25,5.93-0.02,8.83,0.53c2.67,0.51,4.68,2.12,6.15,4.52c0.9,1.47,2.13,2.71,2.74,4.4
			c0.43,1.21,0.67,2.43,0.3,3.59c-0.56,1.75-0.61,3.52-0.53,5.28c0.13,2.84-1.13,5.09-2.72,7.24c-0.3,0.41-0.7,0.72-1.19,0.9
			c-2.57,0.9-4.97,2.19-7.43,3.33c-1.91,0.88-4,0.54-5.8-0.34c-3.12-1.54-5.39-4.06-6.72-7.26
			C188.97,107.93,189.19,106.53,189.08,104.9z M199.35,99.1c-0.09,0.09-0.19,0.18-0.28,0.28c-1.4,1.37-0.82,5.16,0.92,6
			c0.9,0.44,2.48-0.12,2.42-0.94c-0.11-1.36,0.49-2.31,1.24-3.32c0.94-1.25,0.2-2.89-1.36-3.04C201.2,97.96,200.1,98.1,199.35,99.1z
			 M208.96,91.62c-1.29-2.3-3.34-3.19-5.74-3.46c-0.26-0.03-0.72-0.17-0.72,0.34c0,0.27,0.27,0.42,0.58,0.48
			c1.92,0.38,3.72,1.03,5.06,2.57C208.34,91.79,208.61,91.78,208.96,91.62z M203,106.41c-1.73-0.32-3.57,0.52-4.86-1.11
			c-0.14-0.18-0.44-0.16-0.59,0.07c-0.13,0.21-0.06,0.43,0.06,0.64C198.26,107.2,201.8,107.56,203,106.41z"/>
		<path class="st0" d="M56.02,94.58c0.38,2.22-0.45,4.42-1.16,6.62c-0.32,0.99-0.3,1.97-0.06,2.95c0.58,2.46,1.2,4.91,1.24,7.45
			c0.04,2.35-2.02,4.81-4.19,5.5c-2.19,0.7-3.77-0.49-3.66-2.66c0.16-3.04-0.99-5.56-1.99-8.2c-0.36-0.96-0.25-1.89-0.11-2.91
			c0.45-3.17,1.39-6.31,0.44-9.59c-0.39-1.34,0.09-2.76,1.05-3.91c0.9-1.08,2.02-1.87,3.26-2.48c2.1-1.04,4.47,0.44,4.91,2.98
			C56,91.69,56.08,93.04,56.02,94.58z M54.71,92.27c0-0.48,0.05-0.85-0.01-1.21c-0.26-1.71-1.33-3.18-3.13-2.43
			c-0.35,0.15-0.94,0.11-0.89,0.55c0.06,0.49,0.65,0.38,1.05,0.37c0.88-0.02,1.86,0.05,1.77,1.17c-0.15,1.68,0.72,3.18,0.62,4.82
			c-0.03,0.46,0.11,1.08,0.57,1.08c0.7,0,0.48-0.7,0.57-1.16C55.5,94.28,54.33,93.35,54.71,92.27z"/>
		<path class="st0" d="M50.89,74.16c0.99-0.07,1.91,0.21,2.72,0.73c1.29,0.82,2.11,2.05,1.83,3.55c-0.33,1.74-1.54,2.97-3.27,3.45
			c-1.39,0.39-2.7,0.89-3.87,1.7c-1.12,0.77-1.95,0.26-2.77-0.45c-0.85-0.74-1.72-1.67-1.17-2.81c1.14-2.31,2.53-4.47,4.82-5.89
			C49.74,74.09,50.31,74.2,50.89,74.16z M48.25,76.81c-0.02-0.44,0.48-0.54,0.6-0.89c0.09-0.12,0.37-0.2,0.15-0.39
			c-0.2-0.17-0.29,0.06-0.38,0.21C48.14,75.98,47.92,76.3,48.25,76.81c-0.13,0.05-0.15-0.36-0.33-0.09
			C48.03,76.76,48.14,76.79,48.25,76.81z M48.97,75.46c0.63,0.23,1.02-0.2,1.8-0.43C49.9,74.92,49.34,74.76,48.97,75.46z"/>
	</g>
</g>
</svg>
