<?xml version="1.0" encoding="utf-8"?>
<!-- Generator: Adobe Illustrator 27.3.1, SVG Export Plug-In . SVG Version: 6.00 Build 0)  -->
<svg version="1.1" id="Layer_1" xmlns="http://www.w3.org/2000/svg" xmlns:xlink="http://www.w3.org/1999/xlink" x="0px" y="0px"
	 viewBox="0 0 32 32" style="enable-background:new 0 0 32 32;" xml:space="preserve">
<style type="text/css">
	.st0{fill:#F9F6E6;}
</style>
<circle class="st0" cx="14.23" cy="8.83" r="5.9"/>
<path class="st0" d="M25.64,27.05c0.56-5.21-5.61-9.48-11.46-9.48S2.86,21.82,2.86,27.05c0,0-0.24,1.61,2.02,2.2h18.67
	C23.55,29.25,25.43,28.99,25.64,27.05z"/>
<path class="st0" d="M29.49,16.28h-6.96c-0.83,0-1.49-0.67-1.49-1.49v-0.27c0-0.83,0.67-1.49,1.49-1.49h6.96
	c0.83,0,1.49,0.67,1.49,1.49v0.27C30.99,15.61,30.32,16.28,29.49,16.28z"/>
<path class="st0" d="M24.3,18.13v-6.96c0-0.83,0.67-1.49,1.49-1.49h0.27c0.83,0,1.49,0.67,1.49,1.49v6.96
	c0,0.83-0.67,1.49-1.49,1.49H25.8C24.97,19.63,24.3,18.96,24.3,18.13z"/>
</svg>
