<?xml version="1.0" encoding="utf-8"?>
<!-- Generator: Adobe Illustrator 27.3.1, SVG Export Plug-In . SVG Version: 6.00 Build 0)  -->
<svg version="1.1" id="Layer_1" xmlns="http://www.w3.org/2000/svg" xmlns:xlink="http://www.w3.org/1999/xlink" x="0px" y="0px"
	 viewBox="0 0 220 70" style="enable-background:new 0 0 220 70;" xml:space="preserve">
<style type="text/css">
	.st0{fill:#F9F6E6;stroke:#F9F6E6;stroke-width:5;stroke-linecap:round;stroke-linejoin:round;stroke-miterlimit:10;}
	.st1{fill:#E70012;}
</style>
<g>
	<path class="st0" d="M9.79,22.96c0.01-0.36,0.02-0.71,0.03-1.07c0.18-1.03-0.28-1.9-0.8-2.7C8.44,18.3,8.7,17.6,9.19,16.8
		c1.18-1.93,3.1-2.58,5.13-2.79c2.19-0.22,4.32,0.06,5.5,2.37c0.3,0.6,0.74,0.4,1.16,0.14c0.59-0.36,1.17-0.64,1.91-0.72
		c2.81-0.3,5.3,2.18,5.63,4.53c0.1,0.74,0.25,1.57,1.06,2.03c0.09-1,0.09-1-0.52-2.71c-0.48-1.33,0.43-2.95,1.88-3.09
		c3.23-0.31,5.19,0.42,6.35,3.85c0.24,0.72,0.52,1.41,1.09,1.97c1.16,1.16,1.75,2.51,1.73,4.22c-0.02,1.22-0.57,2.42-0.18,3.63
		c0.28,0.86,0.29,1.72,0.33,2.61c0.09,2.04-0.22,4.07-0.18,6.1c0.03,1.26-0.41,2.25-1.19,3.13c-0.37,0.42-0.91,0.7-1.23,1.14
		c-1.84,2.51-6.24,1.77-7.31-1.4c-0.15-0.43-0.17-0.75-0.02-1.18c0.69-2.01,1.3-4.06,1.01-6.21c-0.29-2.1-0.22-4.2-0.29-6.31
		c-0.05-1.51-0.36-3.05-1.54-4.2c-0.2-0.19-0.4-0.45-0.66-0.19c-0.23,0.22,0.05,0.41,0.17,0.58c1.03,1.49,1.58,3.1,1.3,4.95
		c-0.05,0.3,0.04,0.61,0.03,0.92c-0.05,3.04,0.55,6.07-0.38,9.14c-0.86,2.84-2.28,4.57-5.31,5.23c-2.18,0.47-4.14-0.97-3.95-3.2
		c0.11-1.25,0.15-2.54-0.25-3.76c-0.47-1.44-0.2-2.79,0.28-4.13c0.31-0.88,0.44-1.76,0.43-2.68c-0.01-0.96-0.11-1.88-0.38-2.81
		c-0.26-0.89-0.17-1.81,0.28-2.67c0.15-0.29,0.26-0.76-0.12-0.91c-0.29-0.11-0.62,0.18-0.78,0.52c-0.08,0.17-0.2,0.34-0.21,0.51
		c-0.02,0.88-0.07,1.76,0.09,2.64c0.27,1.46,0.69,2.94,0.18,4.42c-0.69,2.01-0.92,3.97-0.38,6.11c0.33,1.28,0.54,2.81-0.36,4.06
		c-0.62,0.87-1.29,1.7-2.1,2.42c-1.5,1.34-3.36,1.66-5.23,1.6c-1.43-0.04-2.09-1.32-1.95-3.4c0.13-1.89,0.23-3.86-0.52-5.54
		c-0.71-1.59-0.54-3.01-0.25-4.52c0.27-1.41,0.33-2.84,0.02-4.19c-0.31-1.36-0.27-2.55,0.23-3.83C9.94,24.53,10.41,23.74,9.79,22.96
		z M36.56,42.07c1.18-0.79,1.86-1.57,2.11-2.67c0.7-2.99,0.29-6.01,0.29-9.02c0-0.31-0.12-0.68-0.48-0.58
		c-0.34,0.09-0.25,0.46-0.22,0.78C38.56,34.42,39,38.28,36.56,42.07z M18.75,38.81c-0.39,0.74,0.09,1.56-0.3,2.07
		c-1.27,1.68-2.31,3.67-4.72,4.02c-0.24,0.03-0.51,0.05-0.51,0.34c0,0.35,0.31,0.38,0.58,0.4c0.86,0.06,1.66-0.12,2.36-0.65
		c1.25-0.94,2.13-2.21,2.89-3.52C19.52,40.67,19.52,39.69,18.75,38.81z M32.9,17.59c-0.5,0.03-0.99,0.05-1.48,0.11
		c-0.18,0.02-0.36,0.16-0.35,0.39c0.02,0.26,0.25,0.25,0.43,0.26c0.27,0.02,0.54,0.03,0.8,0.01c1.37-0.11,2.22,0.53,2.71,1.77
		c0.16,0.42,0.4,0.81,0.63,1.19c0.13,0.21,0.38,0.33,0.6,0.22c0.23-0.12,0.17-0.4,0.11-0.62c-0.12-0.39-0.38-0.71-0.49-1.13
		C35.37,18.04,34.73,17.61,32.9,17.59z M9.74,17.73c-0.11,0.43,0.16,0.88,0.4,1.29c0.34,0.58,0.52,1.83,1.12,1.53
		c0.66-0.33-0.02-1.37-0.33-2.01c-0.37-0.76-0.26-1.3,0.39-1.77c0.49-0.36,1.01-0.68,1.51-1.03c0.16-0.11,0.28-0.26,0.23-0.48
		c-0.06-0.25-0.26-0.22-0.45-0.22C11.25,15,9.77,16.34,9.74,17.73z M28.42,36.61c-0.18,2.28-0.58,4.45-2.39,6.06
		c-0.15,0.14-0.18,0.37,0.01,0.51c0.18,0.13,0.36-0.03,0.52-0.11C28.16,42.24,29.46,38.39,28.42,36.61z M25,17.66
		c-0.79-1.41-1.88-0.88-2.8-0.98c-0.27-0.03-0.61-0.04-0.64,0.3c-0.03,0.41,0.34,0.45,0.64,0.45C23.07,17.44,23.94,17.34,25,17.66z"
		/>
	<path class="st0" d="M100.19,34.17c1.21,0.6,2.82-0.62,2.99-2.2c0.1-0.94,0.2-1.88,0.36-2.81c0.32-1.92,1.51-3.5,2.12-5.32
		c0.55-1.65,0.61-3.41,1.41-4.99c0.95-1.88,2.98-2.88,5.01-2.29c1.25,0.36,2.04,2.08,1.83,3.58c-0.26,1.82-0.98,3.51-1.39,5.29
		c-0.06,0.26-0.14,0.52-0.14,0.78c0.07,3.09-0.86,5.91-2.32,8.57c-0.29,0.52-0.26,1.05-0.31,1.54c-0.37,3.99-2.46,7-5.43,9.46
		c-1.29,1.07-2.1,2.47-3,3.82c-0.83,1.23-2.1,1.83-3.47,2.3c-0.71,0.24-1.33,0.72-2.01,1.05c-1.92,0.92-4.03,1.1-6.05,1.63
		c-4.38,1.14-8.9,1.86-12.87,4.32c-1.64,1.01-3.61,1.24-5.59,1.29c-2.71,0.07-5.44-0.13-8.13,0.43c-1.42,0.3-2.68,1.01-4.11,1.32
		c-3.02,0.65-6.01,1.19-9.12,1.3c-2.22,0.08-4.33-0.36-6.46-0.76c-3.09-0.58-5.95,0.09-8.83,1.12c-2.34,0.83-4.76,1.57-7.18,0.1
		c-0.18-0.11-0.46-0.2-0.65-0.15c-1.92,0.53-3.94,0-5.88,0.68c-3.05,1.07-5.48-0.33-7.68-2.29c-0.72-0.64-1.34-1.28-1.21-2.42
		c0.08-0.71,0.55-1.08,0.92-1.52c1.45-1.71,3.32-2.29,5.57-2.24c2.84,0.06,5.6,0.76,8.44,0.79c0.61,0.01,1.21-0.04,1.81-0.22
		c2.55-0.76,5.13-0.76,7.74-0.35c1.76,0.28,3.42-0.19,4.86-1.22c2.06-1.49,4.27-2.47,6.86-2.13c1.38,0.18,2.78,0.47,4.1,0.91
		c2.74,0.92,5.14,0.04,7.5-1.19c2.06-1.07,4.19-1.85,6.53-1.61c2.33,0.24,4.42-0.47,6.47-1.43c1.23-0.57,2.52-0.81,3.86-0.84
		c1-0.02,2,0.04,3,0.07c1.63,0.05,3.14-0.17,4.55-1.19c1.31-0.95,2.98-1.02,4.55-1.24c0.5-0.07,0.98-0.12,1.4-0.4
		c1.92-1.23,4.08-2.08,5.57-3.96c0.9-1.13,1.19-1.84,0.57-3.2c-0.87-1.91-2.21-3.52-3.51-5.13c-1.02-1.27-1.23-2.66-1.12-4.18
		c0.09-1.23,0.08-2.41-0.33-3.63c-0.82-2.39,1.09-4.91,3.6-4.95c1.5-0.03,2.84,0.15,3.59,1.7c0.22,0.45,0.08,0.9,0.24,1.34
		c0.95,2.63,1.84,5.27,3,7.83c0.29,0.65,0.34,1.35-0.41,1.83C101.03,33.62,100.62,33.89,100.19,34.17z M39.89,56.26
		c0.56,0.3,0.98,0.34,1.27,0.1c0.84-0.7,1.86-0.82,2.86-1.03c2.95-0.62,5.9-1.15,8.94-0.51c0.74,0.16,1.53,0.04,2.3,0.02
		c0.25-0.01,0.45-0.2,0.47-0.43c0.03-0.35-0.29-0.3-0.49-0.29c-1.37,0.07-2.73-0.18-4.1-0.19c-1.68-0.01-3.36,0.12-5.04,0.2
		C43.9,54.25,41.93,55.04,39.89,56.26z M111.04,17.14c1.3,0.61,1.64,1.68,1.61,2.95c-0.02,0.88-0.49,1.59-0.84,2.36
		c-0.83,1.83-1.19,3.75-0.93,5.97c0.55-0.54,0.63-0.97,0.63-1.49c-0.01-1.44,0.07-2.86,0.88-4.16c0.74-1.2,0.86-2.57,0.71-3.96
		C112.95,17.52,112.32,16.98,111.04,17.14z M99.64,30.06c0.08-0.47,0.04-0.8-0.07-1.18c-0.5-1.74-1.43-3.33-1.7-5.14
		c-0.25-1.7-1.19-2.37-2.9-2.03c0.13,0.37,0.44,0.57,0.76,0.62c1.2,0.2,1.37,1.17,1.62,2.07C97.88,26.36,98.45,28.29,99.64,30.06z
		 M107.8,38.05c-0.86,2.49-2.51,4.19-3.98,6.1C105.65,43.93,108.29,39.99,107.8,38.05z M27.1,63.2c-0.26-0.62-0.78-0.48-1.21-0.55
		c-1.93-0.29-3.78,0.37-5.67,0.51c-0.28,0.02-0.58,0.14-0.55,0.46c0.04,0.42,0.4,0.43,0.7,0.34C22.53,63.33,24.76,63.37,27.1,63.2z
		 M77.82,56.91c-1.85,0.35-3.54,1.41-5.75,1.16C73.57,58.95,76.39,58.33,77.82,56.91z"/>
	<path class="st0" d="M78.11,31.14c-0.43,0.32-0.57,0.73-0.6,1.26c-0.13,2.06-0.01,4.16-0.51,6.17c-0.54,2.19-1.27,4.31-3.71,5.22
		c-1.23,0.46-2.21,0.12-3.11-0.71c-0.82-0.76-1-1.63-0.79-2.74c0.42-2.18,0.41-4.39,0.07-6.6c-0.16-1.05-0.13-2.13,0.3-3.15
		c1.13-2.67,0.89-5.38,0.09-8.05c-0.48-1.62-0.84-3.09-0.29-4.84c0.64-2.03,0.57-4.2-0.27-6.26c-0.9-2.21-0.14-3.28,1.75-4.29
		c1.54-0.83,3.14-0.8,4.62,0.31c1.24,0.92,1.46,2.19,1.41,3.62c-0.05,1.37-0.25,2.74,0.16,4.11c0.56,1.88,0.49,3.84,0.48,5.78
		c0,0.5-0.1,1.03,0.15,1.54c0.16-0.09,0.27-0.13,0.27-0.15c-0.47-2.46,1.24-4.13,2.17-6.08c1.02-2.13,2.22-4.17,3.4-6.21
		c1.41-2.43,3.36-2.44,5.09-0.2c1.96,2.54,1.06,5.92-0.75,8.26c-1.32,1.7-2.26,3.57-2.47,5.75c-0.04,0.44-0.12,0.95-0.38,1.29
		c-1.43,1.91-1.5,3.8,0.13,5.58c1.41,1.53,1.82,3.55,2.83,5.26c0.6,1.02,1.28,1.9,1.16,3.22c-0.16,1.76-2.5,3.48-4.21,3.02
		c-1.96-0.53-3.39-1.59-4.14-3.54c-0.5-1.3-1.25-2.49-2.23-3.48c-1.04-1.06-0.88-2.25-0.62-3.49
		C78.16,31.53,78.24,31.36,78.11,31.14z M86.18,18.96c0.08-0.1,0.15-0.2,0.23-0.31c0.06-0.08,0.12-0.16,0.18-0.24
		c-0.17-0.1-0.28-0.07-0.31,0.14c-0.15-0.01-0.23,0.06-0.26,0.2c-0.12,0.09-0.31,0.17-0.17,0.34
		C86.01,19.28,86.07,19.03,86.18,18.96z M73.55,7.81c1.91,0.62,2.02,2.2,1.93,3.74c-0.13,2.17,0.76,4.14,0.93,6.24
		c-0.08-2.55-0.31-5.08-0.48-7.61C75.83,8.68,75.16,7.93,73.55,7.81z M75.61,39.78c1.07-1.07,0.91-2.44,0.66-3.69
		c-0.27-1.35,0-2.65-0.05-3.98C74.49,34.53,76.06,37.24,75.61,39.78z M86.9,9.14c0.38,1.35,1.79,2.09,1.7,3.59
		c-0.01,0.22,0.13,0.35,0.37,0.3c0.23-0.05,0.27-0.24,0.28-0.44C89.33,11.73,87.81,9.47,86.9,9.14z M87.78,39.08
		c-0.69,1.11-1.69,1.65-3.07,1.93C86.67,41.44,88,40.57,87.78,39.08z M85.01,22.05c0-1.04,0.39-1.96,0.98-3.04
		C84.8,19.92,84.48,20.93,85.01,22.05z"/>
	<path class="st0" d="M159.85,28.76c-0.18,1.88,0.13,3.25,0.51,4.56c0.76,2.64,0.41,5.25-0.26,7.76c-0.45,1.66-1.95,2.62-3.69,3.29
		c-1.84,0.71-3.49,0.05-4.41-1.43c-0.52-0.85-0.59-1.8-0.6-2.86c-0.02-1.86,0.76-3.6,0.56-5.45c-0.1-0.92,0.37-1.79,0.23-2.73
		c-0.13-0.9-0.24-1.82-1.21-2.19c-1.03-0.38-1.93-0.15-2.73,0.7c-1.67,1.78-2.28,3.68-1.4,6.1c0.88,2.43,0.77,4.8-1.34,6.71
		c-2.17,1.96-5.81,1.24-6.87-1.46c-0.31-0.79-0.24-1.77,0.01-2.62c0.48-1.66,0.62-3.27-0.22-4.88c-0.44-0.83-0.28-1.64,0.01-2.59
		c0.68-2.21,0.8-4.5-0.13-6.74c-0.87-2.09-0.98-4.31-0.81-6.54c0.12-1.5,0.09-3,0.1-4.5c0.01-0.91-0.56-1.63-0.81-2.46
		c-0.71-2.38,0.91-5.2,3.36-5.79c0.91-0.22,1.81-0.26,2.72-0.21c1.21,0.07,2.13,0.9,1.83,2.02c-0.56,2.13,0.4,3.87,1.09,5.68
		c0.26,0.67,0.43,1.33,0.33,2c-0.33,2.15,0.13,4.31-0.12,6.45c-0.03,0.3-0.21,0.83,0.27,0.85c0.46,0.02,0.36-0.49,0.37-0.82
		c0.06-2.09,0.14-1.92,1.96-2.88c2.73-1.44,5.09-0.57,7.45,0.76c0.66,0.37,1.3,0.96,1.31,1.68c0.03,1.64,1.24,2.73,1.69,4.17
		C159.44,26.62,159.99,27.84,159.85,28.76z M149.6,20.24c3.81-1.19,5.78,0.82,7.15,3.93c-0.09-2.4-1.04-3.99-3.33-4.77
		C151.97,18.92,150.8,18.94,149.6,20.24z M144.27,14.83c0.14-0.84,0.15-1.64-0.23-2.47c-0.6-1.28-1.23-2.57-0.64-4.08
		c0.13-0.34,0.21-0.8,0.19-1.2c-0.02-0.44-0.32-0.83-0.82-0.75c-0.57,0.09-0.12,0.45-0.12,0.7c0.01,0.42,0.1,0.87-0.01,1.26
		c-0.67,2.44,1.05,4.34,1.45,6.54C144.09,14.83,144.15,14.83,144.27,14.83z M156.98,42.82c1.66-0.63,2.97-3.13,2.53-4.85
		C158.94,39.73,158.17,41.39,156.98,42.82z"/>
	<path class="st0" d="M200.59,17.69c1.16-0.17,2.21,0.3,3.2,1.17c1.12,0.99,2.48,1.66,3.66,2.6c1.4,1.12,2.6,2.25,2.78,4.18
		c0.19,2.11,1.3,4.16,1.04,6.24c-0.47,3.78-1.72,7.48-5.61,8.27c-0.54,0.11-1.07,0.2-1.57,0.12c-2.61-0.45-5.15-0.31-7.6,0.74
		c-0.55,0.23-1.12,0.2-1.69,0.22c-0.21,0.01-0.52-0.07-0.52,0.27c0,0.26,0.25,0.4,0.48,0.41c0.61,0.03,1.23,0.06,1.84,0
		c0.68-0.07,1.13,0.24,1.04,0.85c-0.46,3,0.36,5.91,0.47,8.86c0.09,2.22-2.66,4.1-4.81,3.53c-2.75-0.72-4.19-2.92-3.65-5.74
		c0.38-1.99,0.24-3.93-0.38-5.83c-0.43-1.32-0.65-2.67-0.56-4.05c0.11-1.63,0.09-3.23-0.75-4.7c-0.82-1.43-0.32-2.92-0.16-4.36
		c0.18-1.58-0.2-3.09-0.36-4.6c-0.29-2.56,1.68-5.19,4.25-5.2c1.56-0.01,2.83-0.8,4.07-1.6C197.2,18.15,198.73,17.64,200.59,17.69z
		 M196.32,31.84c-0.01,1.39,1,2.16,2.12,1.87c1.25-0.32,2.19-1.12,2.96-2.05c1.18-1.41,0.81-3.26-0.72-3.98
		c-0.38-0.18-0.74-0.37-1.11-0.56c-1.2-0.62-2.92,0.27-3.03,1.62C196.45,29.85,196.66,30.97,196.32,31.84z M200.14,18.8
		c-0.58-0.11-1.24,0.15-1.92,0.22c-0.24,0.03-0.49,0.04-0.5,0.35c0,0.41,0.33,0.37,0.58,0.35c0.26-0.02,0.51-0.12,0.77-0.17
		c1.23-0.23,2.48-0.07,3.33,0.8c1.1,1.12,2.34,1.9,3.79,2.38c0.27,0.09,0.53,0.69,0.84,0.19c0.18-0.29-0.28-0.49-0.49-0.65
		c-1.46-1.05-2.97-2.04-4.42-3.11C201.53,18.73,200.91,18.81,200.14,18.8z M189.15,25.46c-0.04-0.23,0.15-0.57-0.27-0.63
		c-0.39-0.06-0.41,0.24-0.44,0.51c-0.01,0.08-0.02,0.15-0.02,0.23c0.04,2.55,1,5.09,0.06,7.65c-0.07,0.19,0.09,0.35,0.33,0.36
		c0.17,0,0.32-0.07,0.33-0.24c0.07-1.36,0.86-2.67,0.43-4.05C189.17,28.03,188.65,26.81,189.15,25.46z M194.74,54.21
		c1.47-0.27,2.26-1.09,2.48-2.46c0.19-1.2-0.3-2.13-1.39-3.04C196.18,50.79,196.61,52.68,194.74,54.21z M197.08,26.55
		c-0.8-0.27-1.22-0.06-1.56,0.54c-0.5,0.87-0.52,1.68,0.28,2.73C195.71,28.38,196.12,27.37,197.08,26.55z"/>
	<path class="st0" d="M125.48,26.94c2.38-0.34,3.8,0.93,5.09,2.43c0.61,0.7,1.34,1.26,2.07,1.82c2.42,1.87,2.28,2.99,2.09,5.8
		c-0.06,0.84-0.6,1.49-1.32,1.76c-1.42,0.53-2.37,1.67-3.54,2.52c-1.34,0.97-2.74,1.82-4.48,1.8c-0.42,0-0.79-0.09-1.2-0.27
		c-1.47-0.66-3.03-1.04-4.65-1.11c-2.4-0.12-4.26-2.67-4.55-4.38c-0.23-1.4,2.09-3.86,3.59-3.93c0.84-0.04,1.65,0,2.42,0.47
		c1.02,0.62,2.28,0.5,3.38,0.9c0.15,0.06,0.32,0,0.39-0.16c0.1-0.22-0.06-0.36-0.21-0.48c-0.56-0.47-1.26-0.59-1.94-0.68
		c-1.63-0.22-2.97-0.99-4.17-2.03c-1.04-0.91-1.63-1.75-0.79-3.53c0.55-1.16,0.53-2.35-0.22-3.49c-0.79-1.21-0.49-2.42,0.46-3.5
		c2.21-2.52,6.12-2.64,9.07-1.18c1.21,0.6,2.43,0.82,3.84,0.59c2.34-0.38,3.9,0.54,4,3.32c0.06,1.62-0.23,2.97-1.76,3.82
		c-0.89,0.49-1.78,0.66-2.76,0.25c-1.07-0.44-1.93-1.26-3.07-1.58C126.51,25.9,125.99,26.02,125.48,26.94z M133.06,21.84
		c0.57,1.56,0.98,3.06-0.87,4.03c-0.23,0.12-0.45,0.41-0.27,0.67c0.17,0.25,0.49,0.17,0.74,0.04c0.77-0.38,1.46-1.02,1.32-1.84
		C133.82,23.79,134.48,22.51,133.06,21.84z M120.03,40.32c-0.95-0.47-1.68-0.84-2.43-1.2c-0.16-0.07-0.33-0.24-0.51-0.04
		c-0.2,0.23-0.06,0.43,0.08,0.61C117.87,40.58,118.76,40.71,120.03,40.32z M118.54,24.84c0.34-1.38-0.79-2.63,0.42-3.71
		C117.47,21.8,117.39,22.53,118.54,24.84z"/>
	<path class="st0" d="M56.25,39.22c-0.16-0.81,0.27-1.7,0.23-2.62c-0.05-1.25,0.07-2.5-0.38-3.75c-0.33-0.92-0.06-1.97,0.26-2.91
		c0.52-1.53,0.6-3.06-0.09-4.52c-1.01-2.12-1.06-4.27-0.47-6.49c0.71-2.64,0.49-5.24-0.45-7.79c-0.66-1.79,0.66-4.71,3.67-4.09
		c2.64,0.54,4.19,2.42,4.64,5.1c0.35,2.09-0.27,4.2,0.4,6.26c0.33,1,0.64,1.99,0.73,3.08c0.22,2.71-0.98,5.04-1.65,7.53
		c-0.46,1.71-0.39,3.46,0.07,5.19c0.64,2.4,1.47,4.78-0.06,7.21c-0.65,1.03-1.38,1.94-2.54,2.18c-0.72,0.15-1.35,1.03-2.21,0.41
		c-1.24-0.9-1.89-2.15-2.14-3.63C56.21,40.04,56.25,39.68,56.25,39.22z M57.64,14.03c0-0.69,0.1-1.21-0.02-1.67
		c-0.41-1.63-0.33-3.01,1.49-3.76c0.28-0.12,0.15-0.39-0.1-0.5c-1.16-0.5-2.38,0.2-2.59,1.45c-0.11,0.63-0.19,1.29,0.02,1.85
		C56.77,12.24,56.65,13.28,57.64,14.03z M63.18,21.79c0.1,1.47-0.25,2.6-0.48,3.76c-0.19,0.97-0.75,1.84-0.69,2.87
		c0.01,0.22-0.08,0.49,0.26,0.53c0.23,0.03,0.34-0.15,0.39-0.34c0.44-1.71,1.27-3.32,1.3-5.13C63.95,22.94,63.91,22.43,63.18,21.79z
		"/>
	<path class="st0" d="M163.84,34.03c0.18-1.58-0.04-3.41-0.52-5.25c-0.22-0.82-0.08-1.72,0.42-2.52c1.15-1.87,2.26-3.75,3.15-5.77
		c0.48-1.1,1.56-1.54,2.61-1.63c2.48-0.21,4.98-0.02,7.42,0.45c2.24,0.43,3.93,1.78,5.16,3.8c0.76,1.23,1.79,2.28,2.3,3.7
		c0.36,1.01,0.57,2.04,0.25,3.02c-0.47,1.47-0.51,2.95-0.45,4.44c0.11,2.38-0.95,4.27-2.29,6.08c-0.26,0.35-0.59,0.61-1,0.75
		c-2.16,0.76-4.17,1.84-6.24,2.8c-1.61,0.74-3.36,0.46-4.87-0.29c-2.62-1.29-4.53-3.41-5.65-6.1
		C163.74,36.58,163.93,35.4,163.84,34.03z M172.47,29.16c-0.08,0.08-0.16,0.16-0.23,0.23c-1.17,1.15-0.68,4.33,0.78,5.04
		c0.76,0.37,2.09-0.1,2.03-0.79c-0.09-1.14,0.41-1.94,1.04-2.79c0.79-1.05,0.17-2.42-1.14-2.56
		C174.02,28.2,173.1,28.32,172.47,29.16z M180.54,22.87c-1.08-1.93-2.8-2.68-4.82-2.9c-0.22-0.02-0.61-0.14-0.6,0.28
		c0,0.23,0.22,0.35,0.48,0.4c1.62,0.32,3.13,0.86,4.25,2.16C180.02,23.02,180.25,23.01,180.54,22.87z M175.53,35.3
		c-1.45-0.27-3,0.44-4.08-0.93c-0.12-0.15-0.37-0.14-0.49,0.06c-0.11,0.17-0.05,0.36,0.05,0.54
		C171.55,35.97,174.53,36.26,175.53,35.3z"/>
	<path class="st0" d="M52.04,25.36c0.32,1.87-0.38,3.71-0.98,5.56c-0.27,0.84-0.25,1.65-0.05,2.48c0.49,2.06,1.01,4.13,1.04,6.26
		c0.03,1.98-1.7,4.04-3.52,4.62c-1.84,0.59-3.17-0.41-3.07-2.23c0.13-2.55-0.83-4.67-1.67-6.89c-0.3-0.8-0.21-1.59-0.09-2.44
		c0.37-2.66,1.16-5.3,0.37-8.06c-0.32-1.13,0.07-2.32,0.89-3.28c0.76-0.9,1.7-1.57,2.74-2.08c1.76-0.87,3.75,0.37,4.13,2.5
		C52.03,22.93,52.1,24.07,52.04,25.36z M50.95,23.42c0-0.4,0.04-0.71-0.01-1.01c-0.22-1.44-1.12-2.67-2.63-2.04
		c-0.29,0.12-0.79,0.09-0.75,0.47c0.05,0.41,0.54,0.32,0.88,0.31c0.74-0.02,1.57,0.04,1.48,0.98c-0.12,1.41,0.6,2.67,0.52,4.05
		c-0.02,0.39,0.09,0.9,0.48,0.91c0.59,0,0.4-0.59,0.48-0.98C51.61,25.11,50.63,24.33,50.95,23.42z"/>
	<path class="st0" d="M47.73,8.2c0.83-0.06,1.6,0.17,2.29,0.61c1.08,0.69,1.77,1.72,1.53,2.98c-0.27,1.46-1.3,2.49-2.74,2.9
		c-1.16,0.32-2.27,0.75-3.25,1.42c-0.94,0.65-1.64,0.22-2.33-0.38c-0.72-0.62-1.45-1.41-0.98-2.36c0.95-1.94,2.13-3.76,4.05-4.95
		C46.77,8.15,47.25,8.24,47.73,8.2z M45.52,10.43c-0.01-0.37,0.4-0.46,0.5-0.75c0.08-0.1,0.31-0.17,0.12-0.32
		c-0.17-0.14-0.25,0.05-0.32,0.17C45.43,9.73,45.24,10,45.52,10.43c-0.11,0.04-0.12-0.3-0.28-0.07
		C45.33,10.39,45.43,10.41,45.52,10.43z M46.13,9.29c0.53,0.19,0.86-0.17,1.51-0.36C46.9,8.84,46.43,8.71,46.13,9.29z"/>
</g>
<g>
	<path class="st1" d="M9.79,22.96c0.01-0.36,0.02-0.71,0.03-1.07c0.18-1.03-0.28-1.9-0.8-2.7C8.44,18.3,8.7,17.6,9.19,16.8
		c1.18-1.93,3.1-2.58,5.13-2.79c2.19-0.22,4.32,0.06,5.5,2.37c0.3,0.6,0.74,0.4,1.16,0.14c0.59-0.36,1.17-0.64,1.91-0.72
		c2.81-0.3,5.3,2.18,5.63,4.53c0.1,0.74,0.25,1.57,1.06,2.03c0.09-1,0.09-1-0.52-2.71c-0.48-1.33,0.43-2.95,1.88-3.09
		c3.23-0.31,5.19,0.42,6.35,3.85c0.24,0.72,0.52,1.41,1.09,1.97c1.16,1.16,1.75,2.51,1.73,4.22c-0.02,1.22-0.57,2.42-0.18,3.63
		c0.28,0.86,0.29,1.72,0.33,2.61c0.09,2.04-0.22,4.07-0.18,6.1c0.03,1.26-0.41,2.25-1.19,3.13c-0.37,0.42-0.91,0.7-1.23,1.14
		c-1.84,2.51-6.24,1.77-7.31-1.4c-0.15-0.43-0.17-0.75-0.02-1.18c0.69-2.01,1.3-4.06,1.01-6.21c-0.29-2.1-0.26-4.12-0.06-6.28
		c0.15-1.57-0.61-2.83-1.77-4.23c0,0-0.27-0.42-0.54-0.16c-0.23,0.22-0.02,0.87,0.1,1.05c1.03,1.49,1.38,1.91,1.1,3.75
		c-0.05,0.3-0.12,2.16-0.08,2.46c0.41,2.89,0.43,5.09-0.13,8.3c-0.86,2.84-2.28,4.57-5.31,5.23c-2.18,0.47-4.14-0.97-3.95-3.2
		c0.11-1.25,0.15-2.54-0.25-3.76c-0.47-1.44-0.2-2.79,0.28-4.13c0.31-0.88,0.44-1.76,0.43-2.68c-0.01-0.96-0.11-1.88-0.38-2.81
		c-0.26-0.89-0.17-1.81,0.28-2.67c0.15-0.29,0.26-0.76-0.12-0.91c-0.29-0.11-0.62,0.18-0.78,0.52c-0.08,0.17-0.17,0.35-0.21,0.51
		c-0.12,0.57-0.41,1.73-0.25,2.62c0.27,1.46,0.66,2.74,0.15,4.22c-0.69,2.01-1.01,4.08-0.46,6.21c0.33,1.28,1,2.93,0.1,4.18
		c-0.62,0.87-1.29,1.7-2.1,2.42c-1.5,1.34-3.36,1.66-5.23,1.6c-1.43-0.04-2.09-1.32-1.95-3.4c0.13-1.89,0.23-3.86-0.52-5.54
		c-0.71-1.59-0.54-3.01-0.25-4.52c0.27-1.41,0.33-2.84,0.02-4.19c-0.31-1.36-0.27-2.55,0.23-3.83C9.94,24.53,10.41,23.74,9.79,22.96
		z M36.56,42.07c1.18-0.79,1.86-1.57,2.11-2.67c0.7-2.99,0.29-6.01,0.29-9.02c0-0.31-0.12-0.68-0.48-0.58
		c-0.34,0.09-0.25,0.46-0.22,0.78C38.56,34.42,39,38.28,36.56,42.07z M18.75,38.81c-0.39,0.74,0.09,1.56-0.3,2.07
		c-1.27,1.68-2.31,3.67-4.72,4.02c-0.24,0.03-0.51,0.05-0.51,0.34c0,0.35,0.31,0.38,0.58,0.4c0.86,0.06,1.66-0.12,2.36-0.65
		c1.25-0.94,2.13-2.21,2.89-3.52C19.52,40.67,19.52,39.69,18.75,38.81z M32.9,17.59c-0.5,0.03-0.99,0.05-1.48,0.11
		c-0.18,0.02-0.36,0.16-0.35,0.39c0.02,0.26,0.25,0.25,0.43,0.26c0.27,0.02,0.54,0.03,0.8,0.01c1.37-0.11,2.22,0.53,2.71,1.77
		c0.16,0.42,0.4,0.81,0.63,1.19c0.13,0.21,0.38,0.33,0.6,0.22c0.23-0.12,0.17-0.4,0.11-0.62c-0.12-0.39-0.38-0.71-0.49-1.13
		C35.37,18.04,34.73,17.61,32.9,17.59z M9.74,17.73c-0.11,0.43,0.16,0.88,0.4,1.29c0.34,0.58,0.52,1.83,1.12,1.53
		c0.66-0.33-0.02-1.37-0.33-2.01c-0.37-0.76-0.26-1.3,0.39-1.77c0.49-0.36,1.01-0.68,1.51-1.03c0.16-0.11,0.28-0.26,0.23-0.48
		c-0.06-0.25-0.26-0.22-0.45-0.22C11.25,15,9.77,16.34,9.74,17.73z M28.42,36.61c-0.18,2.28-0.58,4.45-2.39,6.06
		c-0.15,0.14-0.18,0.37,0.01,0.51c0.18,0.13,0.36-0.03,0.52-0.11C28.16,42.24,29.46,38.39,28.42,36.61z M25,17.66
		c-0.79-1.41-1.88-0.88-2.8-0.98c-0.27-0.03-0.61-0.04-0.64,0.3c-0.03,0.41,0.34,0.45,0.64,0.45C23.07,17.44,23.94,17.34,25,17.66z"
		/>
	<path class="st1" d="M100.19,34.17c1.21,0.6,2.82-0.62,2.99-2.2c0.1-0.94,0.2-1.88,0.36-2.81c0.32-1.92,1.51-3.5,2.12-5.32
		c0.55-1.65,0.61-3.41,1.41-4.99c0.95-1.88,2.98-2.88,5.01-2.29c1.25,0.36,2.04,2.08,1.83,3.58c-0.26,1.82-0.98,3.51-1.39,5.29
		c-0.06,0.26-0.14,0.52-0.14,0.78c0.07,3.09-0.86,5.91-2.32,8.57c-0.29,0.52-0.26,1.05-0.31,1.54c-0.37,3.99-2.46,7-5.43,9.46
		c-1.29,1.07-2.1,2.47-3,3.82c-0.83,1.23-2.1,1.83-3.47,2.3c-0.71,0.24-1.33,0.72-2.01,1.05c-1.92,0.92-4.03,1.1-6.05,1.63
		c-4.38,1.14-8.9,1.86-12.87,4.32c-1.64,1.01-3.61,1.24-5.59,1.29c-2.71,0.07-5.44-0.13-8.13,0.43c-1.42,0.3-2.68,1.01-4.11,1.32
		c-3.02,0.65-6.01,1.19-9.12,1.3c-2.22,0.08-4.33-0.36-6.46-0.76c-3.09-0.58-5.95,0.09-8.83,1.12c-2.34,0.83-4.76,1.57-7.18,0.1
		c-0.18-0.11-0.46-0.2-0.65-0.15c-1.92,0.53-3.94,0-5.88,0.68c-3.05,1.07-5.48-0.33-7.68-2.29c-0.72-0.64-1.34-1.28-1.21-2.42
		c0.08-0.71,0.55-1.08,0.92-1.52c1.45-1.71,3.32-2.29,5.57-2.24c2.84,0.06,5.6,0.76,8.44,0.79c0.61,0.01,1.21-0.04,1.81-0.22
		c2.55-0.76,5.13-0.76,7.74-0.35c1.76,0.28,3.42-0.19,4.86-1.22c2.06-1.49,4.27-2.47,6.86-2.13c1.38,0.18,2.78,0.47,4.1,0.91
		c2.74,0.92,5.14,0.04,7.5-1.19c2.06-1.07,4.19-1.85,6.53-1.61c2.33,0.24,4.42-0.47,6.47-1.43c1.23-0.57,2.52-0.81,3.86-0.84
		c1-0.02,2,0.04,3,0.07c1.63,0.05,3.14-0.17,4.55-1.19c1.31-0.95,2.98-1.02,4.55-1.24c0.5-0.07,0.98-0.12,1.4-0.4
		c1.92-1.23,4.08-2.08,5.57-3.96c0.9-1.13,1.19-1.84,0.57-3.2c-0.87-1.91-2.21-3.52-3.51-5.13c-1.02-1.27-1.23-2.66-1.12-4.18
		c0.09-1.23,0.08-2.41-0.33-3.63c-0.82-2.39,1.09-4.91,3.6-4.95c1.5-0.03,2.84,0.15,3.59,1.7c0.22,0.45,0.08,0.9,0.24,1.34
		c0.95,2.63,1.84,5.27,3,7.83c0.29,0.65,0.34,1.35-0.41,1.83C101.03,33.62,100.62,33.89,100.19,34.17z M39.89,56.26
		c0.56,0.3,0.98,0.34,1.27,0.1c0.84-0.7,1.86-0.82,2.86-1.03c2.95-0.62,5.9-1.15,8.94-0.51c0.74,0.16,1.53,0.04,2.3,0.02
		c0.25-0.01,0.45-0.2,0.47-0.43c0.03-0.35-0.29-0.3-0.49-0.29c-1.37,0.07-2.73-0.18-4.1-0.19c-1.68-0.01-3.36,0.12-5.04,0.2
		C43.9,54.25,41.93,55.04,39.89,56.26z M111.04,17.14c1.3,0.61,1.64,1.68,1.61,2.95c-0.02,0.88-0.49,1.59-0.84,2.36
		c-0.83,1.83-1.19,3.75-0.93,5.97c0.55-0.54,0.63-0.97,0.63-1.49c-0.01-1.44,0.07-2.86,0.88-4.16c0.74-1.2,0.86-2.57,0.71-3.96
		C112.95,17.52,112.32,16.98,111.04,17.14z M99.64,30.06c0.08-0.47,0.04-0.8-0.07-1.18c-0.5-1.74-1.43-3.33-1.7-5.14
		c-0.25-1.7-1.19-2.37-2.9-2.03c0.13,0.37,0.44,0.57,0.76,0.62c1.2,0.2,1.37,1.17,1.62,2.07C97.88,26.36,98.45,28.29,99.64,30.06z
		 M107.8,38.05c-0.86,2.49-2.51,4.19-3.98,6.1C105.65,43.93,108.29,39.99,107.8,38.05z M27.1,63.2c-0.26-0.62-0.78-0.48-1.21-0.55
		c-1.93-0.29-3.78,0.37-5.67,0.51c-0.28,0.02-0.58,0.14-0.55,0.46c0.04,0.42,0.4,0.43,0.7,0.34C22.53,63.33,24.76,63.37,27.1,63.2z
		 M77.82,56.91c-1.85,0.35-3.54,1.41-5.75,1.16C73.57,58.95,76.39,58.33,77.82,56.91z"/>
	<path class="st1" d="M78.11,31.14c-0.43,0.32-0.57,0.73-0.6,1.26c-0.13,2.06-0.01,4.16-0.51,6.17c-0.54,2.19-1.27,4.31-3.71,5.22
		c-1.23,0.46-2.21,0.12-3.11-0.71c-0.82-0.76-1-1.63-0.79-2.74c0.42-2.18,0.41-4.39,0.07-6.6c-0.16-1.05-0.13-2.13,0.3-3.15
		c1.13-2.67,0.89-5.38,0.09-8.05c-0.48-1.62-0.84-3.09-0.29-4.84c0.64-2.03,0.57-4.2-0.27-6.26c-0.9-2.21-0.14-3.28,1.75-4.29
		c1.54-0.83,3.14-0.8,4.62,0.31c1.24,0.92,1.46,2.19,1.41,3.62c-0.05,1.37-0.25,2.74,0.16,4.11c0.56,1.88,0.49,3.84,0.48,5.78
		c0,0.5-0.1,1.03,0.15,1.54c0.16-0.09,0.27-0.13,0.27-0.15c-0.47-2.46,1.24-4.13,2.17-6.08c1.02-2.13,2.22-4.17,3.4-6.21
		c1.41-2.43,3.36-2.44,5.09-0.2c1.96,2.54,1.06,5.92-0.75,8.26c-1.32,1.7-2.26,3.57-2.47,5.75c-0.04,0.44-0.12,0.95-0.38,1.29
		c-1.43,1.91-1.5,3.8,0.13,5.58c1.41,1.53,1.82,3.55,2.83,5.26c0.6,1.02,1.28,1.9,1.16,3.22c-0.16,1.76-2.5,3.48-4.21,3.02
		c-1.96-0.53-3.39-1.59-4.14-3.54c-0.5-1.3-1.25-2.49-2.23-3.48c-1.04-1.06-0.88-2.25-0.62-3.49
		C78.16,31.53,78.24,31.36,78.11,31.14z M86.18,18.96c0.08-0.1,0.15-0.2,0.23-0.31c0.06-0.08,0.12-0.16,0.18-0.24
		c-0.17-0.1-0.28-0.07-0.31,0.14c-0.15-0.01-0.23,0.06-0.26,0.2c-0.12,0.09-0.31,0.17-0.17,0.34
		C86.01,19.28,86.07,19.03,86.18,18.96z M73.55,7.81c1.91,0.62,2.02,2.2,1.93,3.74c-0.13,2.17,0.76,4.14,0.93,6.24
		c-0.08-2.55-0.31-5.08-0.48-7.61C75.83,8.68,75.16,7.93,73.55,7.81z M75.61,39.78c1.07-1.07,0.91-2.44,0.66-3.69
		c-0.27-1.35,0-2.65-0.05-3.98C74.49,34.53,76.06,37.24,75.61,39.78z M86.9,9.14c0.38,1.35,1.79,2.09,1.7,3.59
		c-0.01,0.22,0.13,0.35,0.37,0.3c0.23-0.05,0.27-0.24,0.28-0.44C89.33,11.73,87.81,9.47,86.9,9.14z M87.78,39.08
		c-0.69,1.11-1.69,1.65-3.07,1.93C86.67,41.44,88,40.57,87.78,39.08z M85.01,22.05c0-1.04,0.39-1.96,0.98-3.04
		C84.8,19.92,84.48,20.93,85.01,22.05z"/>
	<path class="st1" d="M159.85,28.76c-0.18,1.88,0.13,3.25,0.51,4.56c0.76,2.64,0.41,5.25-0.26,7.76c-0.45,1.66-1.95,2.62-3.69,3.29
		c-1.84,0.71-3.49,0.05-4.41-1.43c-0.52-0.85-0.59-1.8-0.6-2.86c-0.02-1.86,0.76-3.6,0.56-5.45c-0.1-0.92,0.37-1.79,0.23-2.73
		c-0.13-0.9-0.24-1.82-1.21-2.19c-1.03-0.38-1.93-0.15-2.73,0.7c-1.67,1.78-2.28,3.68-1.4,6.1c0.88,2.43,0.77,4.8-1.34,6.71
		c-2.17,1.96-5.81,1.24-6.87-1.46c-0.31-0.79-0.24-1.77,0.01-2.62c0.48-1.66,0.62-3.27-0.22-4.88c-0.44-0.83-0.28-1.64,0.01-2.59
		c0.68-2.21,0.8-4.5-0.13-6.74c-0.87-2.09-0.98-4.31-0.81-6.54c0.12-1.5,0.09-3,0.1-4.5c0.01-0.91-0.56-1.63-0.81-2.46
		c-0.71-2.38,0.91-5.2,3.36-5.79c0.91-0.22,1.81-0.26,2.72-0.21c1.21,0.07,2.13,0.9,1.83,2.02c-0.56,2.13,0.4,3.87,1.09,5.68
		c0.26,0.67,0.43,1.33,0.33,2c-0.33,2.15,0.13,4.31-0.12,6.45c-0.03,0.3-0.21,0.83,0.27,0.85c0.46,0.02,0.36-0.49,0.37-0.82
		c0.06-2.09,0.14-1.92,1.96-2.88c2.73-1.44,5.09-0.57,7.45,0.76c0.66,0.37,1.3,0.96,1.31,1.68c0.03,1.64,1.24,2.73,1.69,4.17
		C159.44,26.62,159.99,27.84,159.85,28.76z M149.6,20.24c3.81-1.19,5.78,0.82,7.15,3.93c-0.09-2.4-1.04-3.99-3.33-4.77
		C151.97,18.92,150.8,18.94,149.6,20.24z M144.27,14.83c0.14-0.84,0.15-1.64-0.23-2.47c-0.6-1.28-1.23-2.57-0.64-4.08
		c0.13-0.34,0.21-0.8,0.19-1.2c-0.02-0.44-0.32-0.83-0.82-0.75c-0.57,0.09-0.12,0.45-0.12,0.7c0.01,0.42,0.1,0.87-0.01,1.26
		c-0.67,2.44,1.05,4.34,1.45,6.54C144.09,14.83,144.15,14.83,144.27,14.83z M156.98,42.82c1.66-0.63,2.97-3.13,2.53-4.85
		C158.94,39.73,158.17,41.39,156.98,42.82z"/>
	<path class="st1" d="M200.59,17.69c1.16-0.17,2.21,0.3,3.2,1.17c1.12,0.99,2.48,1.66,3.66,2.6c1.4,1.12,2.6,2.25,2.78,4.18
		c0.19,2.11,1.3,4.16,1.04,6.24c-0.47,3.78-1.72,7.48-5.61,8.27c-0.54,0.11-1.07,0.2-1.57,0.12c-2.61-0.45-5.15-0.31-7.6,0.74
		c-0.55,0.23-1.12,0.2-1.69,0.22c-0.21,0.01-0.52-0.07-0.52,0.27c0,0.26,0.25,0.4,0.48,0.41c0.61,0.03,1.23,0.06,1.84,0
		c0.68-0.07,1.13,0.24,1.04,0.85c-0.46,3,0.36,5.91,0.47,8.86c0.09,2.22-2.66,4.1-4.81,3.53c-2.75-0.72-4.19-2.92-3.65-5.74
		c0.38-1.99,0.24-3.93-0.38-5.83c-0.43-1.32-0.65-2.67-0.56-4.05c0.11-1.63,0.09-3.23-0.75-4.7c-0.82-1.43-0.32-2.92-0.16-4.36
		c0.18-1.58-0.2-3.09-0.36-4.6c-0.29-2.56,1.68-5.19,4.25-5.2c1.56-0.01,2.83-0.8,4.07-1.6C197.2,18.15,198.73,17.64,200.59,17.69z
		 M196.32,31.84c-0.01,1.39,1,2.16,2.12,1.87c1.25-0.32,2.19-1.12,2.96-2.05c1.18-1.41,0.81-3.26-0.72-3.98
		c-0.38-0.18-0.74-0.37-1.11-0.56c-1.2-0.62-2.92,0.27-3.03,1.62C196.45,29.85,196.66,30.97,196.32,31.84z M200.14,18.8
		c-0.58-0.11-1.24,0.15-1.92,0.22c-0.24,0.03-0.49,0.04-0.5,0.35c0,0.41,0.33,0.37,0.58,0.35c0.26-0.02,0.51-0.12,0.77-0.17
		c1.23-0.23,2.48-0.07,3.33,0.8c1.1,1.12,2.34,1.9,3.79,2.38c0.27,0.09,0.53,0.69,0.84,0.19c0.18-0.29-0.28-0.49-0.49-0.65
		c-1.46-1.05-2.97-2.04-4.42-3.11C201.53,18.73,200.91,18.81,200.14,18.8z M189.15,25.46c-0.04-0.23,0.15-0.57-0.27-0.63
		c-0.39-0.06-0.41,0.24-0.44,0.51c-0.01,0.08-0.02,0.15-0.02,0.23c0.04,2.55,1,5.09,0.06,7.65c-0.07,0.19,0.09,0.35,0.33,0.36
		c0.17,0,0.32-0.07,0.33-0.24c0.07-1.36,0.86-2.67,0.43-4.05C189.17,28.03,188.65,26.81,189.15,25.46z M194.74,54.21
		c1.47-0.27,2.26-1.09,2.48-2.46c0.19-1.2-0.3-2.13-1.39-3.04C196.18,50.79,196.61,52.68,194.74,54.21z M197.08,26.55
		c-0.8-0.27-1.22-0.06-1.56,0.54c-0.5,0.87-0.52,1.68,0.28,2.73C195.71,28.38,196.12,27.37,197.08,26.55z"/>
	<path class="st1" d="M125.48,26.94c2.38-0.34,3.8,0.93,5.09,2.43c0.61,0.7,1.34,1.26,2.07,1.82c2.42,1.87,2.28,2.99,2.09,5.8
		c-0.06,0.84-0.6,1.49-1.32,1.76c-1.42,0.53-2.37,1.67-3.54,2.52c-1.34,0.97-2.74,1.82-4.48,1.8c-0.42,0-0.79-0.09-1.2-0.27
		c-1.47-0.66-3.03-1.04-4.65-1.11c-2.4-0.12-4.26-2.67-4.55-4.38c-0.23-1.4,2.09-3.86,3.59-3.93c0.84-0.04,1.65,0,2.42,0.47
		c1.02,0.62,2.28,0.5,3.38,0.9c0.15,0.06,0.32,0,0.39-0.16c0.1-0.22-0.06-0.36-0.21-0.48c-0.56-0.47-1.26-0.59-1.94-0.68
		c-1.63-0.22-2.97-0.99-4.17-2.03c-1.04-0.91-1.63-1.75-0.79-3.53c0.55-1.16,0.53-2.35-0.22-3.49c-0.79-1.21-0.49-2.42,0.46-3.5
		c2.21-2.52,6.12-2.64,9.07-1.18c1.21,0.6,2.43,0.82,3.84,0.59c2.34-0.38,3.9,0.54,4,3.32c0.06,1.62-0.23,2.97-1.76,3.82
		c-0.89,0.49-1.78,0.66-2.76,0.25c-1.07-0.44-1.93-1.26-3.07-1.58C126.51,25.9,125.99,26.02,125.48,26.94z M133.06,21.84
		c0.57,1.56,0.98,3.06-0.87,4.03c-0.23,0.12-0.45,0.41-0.27,0.67c0.17,0.25,0.49,0.17,0.74,0.04c0.77-0.38,1.46-1.02,1.32-1.84
		C133.82,23.79,134.48,22.51,133.06,21.84z M120.03,40.32c-0.95-0.47-1.68-0.84-2.43-1.2c-0.16-0.07-0.33-0.24-0.51-0.04
		c-0.2,0.23-0.06,0.43,0.08,0.61C117.87,40.58,118.76,40.71,120.03,40.32z M118.54,24.84c0.34-1.38-0.79-2.63,0.42-3.71
		C117.47,21.8,117.39,22.53,118.54,24.84z"/>
	<path class="st1" d="M56.25,39.22c-0.16-0.81,0.27-1.7,0.23-2.62c-0.05-1.25,0.07-2.5-0.38-3.75c-0.33-0.92-0.06-1.97,0.26-2.91
		c0.52-1.53,0.6-3.06-0.09-4.52c-1.01-2.12-1.06-4.27-0.47-6.49c0.71-2.64,0.49-5.24-0.45-7.79c-0.66-1.79,0.66-4.71,3.67-4.09
		c2.64,0.54,4.19,2.42,4.64,5.1c0.35,2.09-0.27,4.2,0.4,6.26c0.33,1,0.64,1.99,0.73,3.08c0.22,2.71-0.98,5.04-1.65,7.53
		c-0.46,1.71-0.39,3.46,0.07,5.19c0.64,2.4,1.47,4.78-0.06,7.21c-0.65,1.03-1.38,1.94-2.54,2.18c-0.72,0.15-1.35,1.03-2.21,0.41
		c-1.24-0.9-1.89-2.15-2.14-3.63C56.21,40.04,56.25,39.68,56.25,39.22z M57.64,14.03c0-0.69,0.1-1.21-0.02-1.67
		c-0.41-1.63-0.33-3.01,1.49-3.76c0.28-0.12,0.15-0.39-0.1-0.5c-1.16-0.5-2.38,0.2-2.59,1.45c-0.11,0.63-0.19,1.29,0.02,1.85
		C56.77,12.24,56.65,13.28,57.64,14.03z M63.18,21.79c0.1,1.47-0.25,2.6-0.48,3.76c-0.19,0.97-0.75,1.84-0.69,2.87
		c0.01,0.22-0.08,0.49,0.26,0.53c0.23,0.03,0.34-0.15,0.39-0.34c0.44-1.71,1.27-3.32,1.3-5.13C63.95,22.94,63.91,22.43,63.18,21.79z
		"/>
	<path class="st1" d="M163.84,34.03c0.18-1.58-0.04-3.41-0.52-5.25c-0.22-0.82-0.08-1.72,0.42-2.52c1.15-1.87,2.26-3.75,3.15-5.77
		c0.48-1.1,1.56-1.54,2.61-1.63c2.48-0.21,4.98-0.02,7.42,0.45c2.24,0.43,3.93,1.78,5.16,3.8c0.76,1.23,1.79,2.28,2.3,3.7
		c0.36,1.01,0.57,2.04,0.25,3.02c-0.47,1.47-0.51,2.95-0.45,4.44c0.11,2.38-0.95,4.27-2.29,6.08c-0.26,0.35-0.59,0.61-1,0.75
		c-2.16,0.76-4.17,1.84-6.24,2.8c-1.61,0.74-3.36,0.46-4.87-0.29c-2.62-1.29-4.53-3.41-5.65-6.1
		C163.74,36.58,163.93,35.4,163.84,34.03z M172.47,29.16c-0.08,0.08-0.16,0.16-0.23,0.23c-1.17,1.15-0.68,4.33,0.78,5.04
		c0.76,0.37,2.09-0.1,2.03-0.79c-0.09-1.14,0.41-1.94,1.04-2.79c0.79-1.05,0.17-2.42-1.14-2.56
		C174.02,28.2,173.1,28.32,172.47,29.16z M180.54,22.87c-1.08-1.93-2.8-2.68-4.82-2.9c-0.22-0.02-0.61-0.14-0.6,0.28
		c0,0.23,0.22,0.35,0.48,0.4c1.62,0.32,3.13,0.86,4.25,2.16C180.02,23.02,180.25,23.01,180.54,22.87z M175.53,35.3
		c-1.45-0.27-3,0.44-4.08-0.93c-0.12-0.15-0.37-0.14-0.49,0.06c-0.11,0.17-0.05,0.36,0.05,0.54
		C171.55,35.97,174.53,36.26,175.53,35.3z"/>
	<path class="st1" d="M52.04,25.36c0.32,1.87-0.38,3.71-0.98,5.56c-0.27,0.84-0.25,1.65-0.05,2.48c0.49,2.06,1.01,4.13,1.04,6.26
		c0.03,1.98-1.7,4.04-3.52,4.62c-1.84,0.59-3.17-0.41-3.07-2.23c0.13-2.55-0.83-4.67-1.67-6.89c-0.3-0.8-0.21-1.59-0.09-2.44
		c0.37-2.66,1.16-5.3,0.37-8.06c-0.32-1.13,0.07-2.32,0.89-3.28c0.76-0.9,1.7-1.57,2.74-2.08c1.76-0.87,3.75,0.37,4.13,2.5
		C52.03,22.93,52.1,24.07,52.04,25.36z M50.95,23.42c0-0.4,0.04-0.71-0.01-1.01c-0.22-1.44-1.12-2.67-2.63-2.04
		c-0.29,0.12-0.79,0.09-0.75,0.47c0.05,0.41,0.54,0.32,0.88,0.31c0.74-0.02,1.57,0.04,1.48,0.98c-0.12,1.41,0.6,2.67,0.52,4.05
		c-0.02,0.39,0.09,0.9,0.48,0.91c0.59,0,0.4-0.59,0.48-0.98C51.61,25.11,50.63,24.33,50.95,23.42z"/>
	<path class="st1" d="M47.73,8.2c0.83-0.06,1.6,0.17,2.29,0.61c1.08,0.69,1.77,1.72,1.53,2.98c-0.27,1.46-1.3,2.49-2.74,2.9
		c-1.16,0.32-2.27,0.75-3.25,1.42c-0.94,0.65-1.64,0.22-2.33-0.38c-0.72-0.62-1.45-1.41-0.98-2.36c0.95-1.94,2.13-3.76,4.05-4.95
		C46.77,8.15,47.25,8.24,47.73,8.2z M45.52,10.43c-0.01-0.37,0.4-0.46,0.5-0.75c0.08-0.1,0.31-0.17,0.12-0.32
		c-0.17-0.14-0.25,0.05-0.32,0.17C45.43,9.73,45.24,10,45.52,10.43c-0.11,0.04-0.12-0.3-0.28-0.07
		C45.33,10.39,45.43,10.41,45.52,10.43z M46.13,9.29c0.53,0.19,0.86-0.17,1.51-0.36C46.9,8.84,46.43,8.71,46.13,9.29z"/>
</g>
</svg>
