<?xml version="1.0" encoding="utf-8"?>
<!-- Generator: Adobe Illustrator 27.5.0, SVG Export Plug-In . SVG Version: 6.00 Build 0)  -->
<svg version="1.1" id="Layer_1" xmlns="http://www.w3.org/2000/svg" xmlns:xlink="http://www.w3.org/1999/xlink" x="0px" y="0px"
	 viewBox="0 0 20 20" style="enable-background:new 0 0 20 20;" xml:space="preserve">
<style type="text/css">
	.st0{fill:#05CE5E;}
	.st1{fill:#FFFFFF;}
</style>
<g>
	<rect x="0" y="0" class="st0" width="19.9" height="19.9"/>
	<path class="st1" d="M8.5,11.5c0,0.5,0,1,0,1.5c0,0.5,0,0.9,0,1.4c0,0,0,0.1,0,0.1c0,0.2-0.1,0.3-0.3,0.3c-0.3,0-0.6,0-0.9,0
		c-0.4,0-0.8,0-1.2,0c-0.3,0-0.6,0-0.9,0c-0.1,0-0.3-0.2-0.3-0.4c0-0.3,0-0.7,0-1c0-2.2,0-4.5,0-6.7c0-0.4,0-0.7,0-1.1
		c0-0.1,0-0.3,0.1-0.3c0.1,0,0.1,0,0.2,0c0.7,0,1.4,0,2.1,0c0.3,0,0.6,0,0.9,0c0.2,0,0.4,0.1,0.5,0.3c0,0.1,0.1,0.2,0.2,0.2
		c0.2,0.3,0.4,0.6,0.7,0.9c0,0,0,0.1,0,0.1C9.6,6.9,9.6,7,9.7,7c0.1,0.1,0.1,0.2,0.2,0.3c0,0,0,0.1,0.1,0.1c0.2,0.2,0.3,0.4,0.5,0.7
		c0.1,0.1,0.2,0.2,0.2,0.4c0.1,0.2,0.2,0.3,0.3,0.5c0.1,0.1,0.2,0.3,0.3,0.4c0,0.1,0.1,0.1,0.1,0.1c0,0,0.1,0,0.1,0c0,0,0-0.1,0-0.1
		c0,0,0-0.1,0-0.1c0-0.4,0-0.8,0-1.2c0-0.4,0-0.8,0-1.3c0-0.5,0-0.9,0-1.4c0-0.2,0.2-0.3,0.3-0.3c0.2,0,0.4,0,0.6,0
		c0.6,0,1.2,0,1.8,0c0.2,0,0.4,0,0.6,0c0.2,0,0.3,0.1,0.3,0.3c0,2.8,0,5.7,0,8.5c0,0.1,0,0.2,0,0.3c0,0.2-0.2,0.4-0.4,0.4
		c-0.3,0-0.5,0-0.8,0c-0.4,0-0.9,0-1.3,0c-0.2,0-0.4,0-0.6,0c-0.1,0-0.3,0-0.4,0c-0.2,0-0.3-0.1-0.4-0.3c-0.1-0.2-0.2-0.3-0.4-0.5
		c-0.2-0.2-0.3-0.4-0.5-0.7c-0.2-0.3-0.3-0.5-0.5-0.8c-0.2-0.3-0.5-0.7-0.7-1c-0.1-0.1-0.1-0.2-0.2-0.3c-0.1-0.2-0.3-0.4-0.4-0.6
		c0,0-0.1,0-0.1-0.1c0,0,0,0.1,0,0.1C8.5,10.9,8.5,11.2,8.5,11.5C8.5,11.5,8.5,11.5,8.5,11.5z"/>
</g>
</svg>
