<?xml version="1.0" encoding="utf-8"?>
<!-- Generator: Adobe Illustrator 27.3.1, SVG Export Plug-In . SVG Version: 6.00 Build 0)  -->
<svg version="1.1" id="Layer_1" xmlns="http://www.w3.org/2000/svg" xmlns:xlink="http://www.w3.org/1999/xlink" x="0px" y="0px"
	 viewBox="0 0 144 540" style="enable-background:new 0 0 144 540;" xml:space="preserve">
<style type="text/css">
	.st0{fill:#EAEAEA;}
	.st1{fill:none;stroke:#000000;stroke-width:2;stroke-linecap:round;stroke-miterlimit:10;}
	.st2{fill:#333333;stroke:#000000;stroke-width:2;stroke-linecap:round;stroke-miterlimit:10;}
	.st3{fill:#FECA36;stroke:#000000;stroke-width:2;stroke-linecap:round;stroke-miterlimit:10;}
	.st4{fill:#EAEAEA;stroke:#000000;stroke-width:2;stroke-linecap:round;stroke-miterlimit:10;}
</style>
<polygon class="st0" points="135.34,518.98 135.34,1.69 8.92,1.69 8.92,518.98 1.33,537.74 142.04,537.74 "/>
<rect x="9.02" y="1.69" class="st1" width="126.42" height="517.29"/>
<polyline class="st1" points="9.02,518.98 1.42,537.74 142.13,537.74 135.43,518.98 "/>
<circle class="st1" cx="72.21" cy="93.34" r="40.75"/>
<circle class="st2" cx="72.01" cy="243.26" r="40.75"/>
<circle class="st1" cx="26.53" cy="18.07" r="5.54"/>
<circle class="st1" cx="118.5" cy="18.07" r="5.54"/>
<circle class="st1" cx="72.21" cy="167.73" r="20.1"/>
<circle class="st2" cx="72.21" cy="167.73" r="20.1"/>
<circle class="st3" cx="72.21" cy="93.34" r="40.75"/>
<circle class="st1" cx="72.21" cy="93.34" r="51.22"/>
<circle class="st1" cx="72.21" cy="243.26" r="51.22"/>
<path class="st1" d="M61.45,193.11c-6.3-3.08-17.23-11.58-17.38-25.38c-0.11-10.13,5.63-19.64,14.8-24.78"/>
<path class="st1" d="M84.39,142.97c7.19,3.91,15.92,12.91,15.96,24.76c0.04,12.91-9.01,21.88-16.33,25.44"/>
<circle class="st2" cx="71.69" cy="393.73" r="40.75"/>
<circle class="st1" cx="71.89" cy="318.19" r="20.1"/>
<circle class="st2" cx="71.89" cy="318.19" r="20.1"/>
<circle class="st1" cx="71.89" cy="393.73" r="51.22"/>
<path class="st1" d="M61.13,343.57c-6.3-3.08-17.23-11.58-17.38-25.38c-0.11-10.13,5.63-19.64,14.8-24.78"/>
<path class="st1" d="M84.92,293.44c7.19,3.91,15.92,12.91,15.96,24.76c0.04,12.91-9.01,21.88-16.33,25.44"/>
<path class="st1" d="M24.89,393.73"/>
<circle class="st4" cx="72.21" cy="93.34" r="10.38"/>
<circle class="st4" cx="72.01" cy="243.26" r="10.38"/>
<circle class="st4" cx="72.75" cy="167.09" r="5.54"/>
<circle class="st4" cx="71.69" cy="393.73" r="10.38"/>
<circle class="st4" cx="72.42" cy="317.56" r="5.54"/>
</svg>
