<?xml version="1.0" encoding="utf-8"?>
<!-- Generator: Adobe Illustrator 27.3.1, SVG Export Plug-In . SVG Version: 6.00 Build 0)  -->
<svg version="1.1" id="Layer_1" xmlns="http://www.w3.org/2000/svg" xmlns:xlink="http://www.w3.org/1999/xlink" x="0px" y="0px"
	 viewBox="0 0 484 424" style="enable-background:new 0 0 484 424;" xml:space="preserve">
<style type="text/css">
	.st0{fill:#EAEAEA;}
	.st1{fill:none;stroke:#000000;stroke-width:2;stroke-linecap:round;stroke-miterlimit:10;}
	.st2{fill:none;stroke:#000000;stroke-width:2;stroke-linecap:round;stroke-linejoin:round;stroke-miterlimit:10;}
	.st3{fill:none;stroke:#000000;stroke-width:2;stroke-miterlimit:10;}
	.st4{fill:#FECA36;}
</style>
<g>
	<path class="st0" d="M239.1,214.34c-0.71-3.37-1-6.81-1.5-10.22c-1.5-10.22-2.43-47.04-2.43-47.04c-0.75-3.78-1.73-7.43-2.75-11
		c-14.64-51.08-53.2-49.35-53.2-49.35c-6.83-1.23-14.32-1.68-22.5-1.24c-33.33,1.79-49.35,34.96-57.05,66.87
		c0,0-5.6,24.22-6.36,41.89c-0.46,10.7-0.76,17.66-0.76,17.66c-0.14,6.71-3.48,11.01-4.65,21.86c-1.17,10.85,53.79,9.01,77.61,9.79
		c14.28,0.46,35.89-0.25,52.09-1.32l-13.14,1.47l25.19,147.07c0,0,6.74,2.33,8.2,0c1.46-2.33-20.24-148.52-20.24-148.54
		c10.82-0.71,19.23-1.58,21.42-2.36C242.66,248.59,241.67,226.51,239.1,214.34z"/>
	<path class="st0" d="M90.75,400.77c1.46,2.33,8.2,0,8.2,0l25.19-147.07l-13.14-1.47C110.99,252.23,89.29,398.45,90.75,400.77z"/>
</g>
<path class="st0" d="M477.72,189.72c0,0,0.98-1.73,0.39-6.21c0,0-17.7-17.99-19.27-18.95c-1.57-0.97-6.29-3.23-9.57-3.23
	s-82.07,0-82.07,0H200.98c0,0-173.24,0.65-175.86,0.97c-2.62,0.32-18.62,19.03-19.14,20.97c-0.52,1.94,0,6.45,0,6.45
	s6.01,0.02,16.65,0.07v0.79h-5.11l1.97,228.35h8.26V203.59h10.62v168.4h8.52v-168.4h389.67l-1.31,171.3h9.18v-171.3h9.44v218.73
	h8.52l1.97-232.14l-5.24,0.2v-0.14C470.44,190.11,477.12,189.94,477.72,189.72z"/>
<g>
	<path class="st1" d="M202.2,160.96c0,0-173.24,0.65-175.86,0.97c-2.62,0.32-18.62,19.03-19.14,20.97s0,6.45,0,6.45
		s466.5,1.94,471.75,0c0,0,0.98-1.73,0.39-6.21c0,0-17.7-17.99-19.27-18.95s-6.29-3.23-9.57-3.23s-82.07,0-82.07,0"/>
	<path class="st1" d="M7.2,182.89c0,0,461.91,7.26,472.14,0.24"/>
	<polyline class="st1" points="18.74,190.21 20.7,418.56 28.96,418.56 28.96,203.22 28.96,190.21 	"/>
	<line class="st1" x1="455.08" y1="203.22" x2="28.96" y2="203.22"/>
	<polyline class="st1" points="465.57,189.8 463.6,421.95 455.08,421.95 455.08,190.21 	"/>
	<polyline class="st1" points="39.58,203.22 39.58,371.62 48.11,371.62 48.11,203.22 	"/>
	<line class="st1" x1="39.58" y1="371.62" x2="28.96" y2="391.94"/>
	<line class="st1" x1="48.11" y1="371.62" x2="28.96" y2="418.56"/>
	<polyline class="st1" points="445.64,203.22 445.64,374.52 436.46,374.52 437.77,203.22 	"/>
	<line class="st1" x1="445.64" y1="374.52" x2="455.08" y2="395.49"/>
	<line class="st1" x1="436.46" y1="374.52" x2="455.08" y2="421.95"/>
</g>
<g>
	<path class="st1" d="M237.86,203.09c0.28,3.43,0.78,6.84,1.5,10.22c2.57,12.18,3.55,34.25-0.08,35.54
		c-5.47,1.94-49.69,4.46-73.51,3.68s-78.78,1.07-77.61-9.79s4.51-15.16,4.65-21.86c0,0-0.05-6.98,0.76-17.66"/>
	<path class="st1" d="M232.68,145.05c1.09,3.54,2.01,7.22,2.75,11"/>
	<path class="st1" d="M99.93,161.33c7.7-31.91,23.72-65.08,57.05-66.87c8.19-0.44,15.68,0.01,22.5,1.24"/>
	<path class="st1" d="M94.9,189.72"/>
	<path class="st1" d="M99.93,226.89c0,0,24.83-14.09,63.78-13.22c38.95,0.87,64.72,9.89,72.04,17.74"/>
	<path class="st1" d="M101.36,235.22c3.51,0.87,48.29,14.25,130,1.46"/>
	<path class="st1" d="M204.72,252.68l25.19,147.07c0,0,6.74,2.33,8.2,0s-20.24-148.54-20.24-148.54"/>
	<path class="st1" d="M124.39,252.68L99.2,399.75c0,0-6.74,2.33-8.2,0s20.24-148.54,20.24-148.54"/>
</g>
<path class="st0" d="M174.7,165.25C174.7,165.25,174.7,165.25,174.7,165.25c-0.01-0.01-0.01-0.01-0.02-0.02l0,0
	c-0.54-0.56-1.32-0.97-2.46-1.1c-4.58-0.55-5.42-0.41-7.64,0.83c-2.22,1.24-5.28,6.89-5.28,6.89c-0.14,0.76-4.26,6.29,2.99,7.17
	c3.06,0.37,5.37,0.07,7.15-0.58l0,0.01C169.43,178.46,183.7,173.79,174.7,165.25z"/>
<g>
	<path class="st2" d="M158.63,172.59c-0.14,0.76-4.26,6.29,2.99,7.17c10.21,1.24,12.22-4.9,12.85-7.17
		c0.63-2.27,1.67-7.17-2.92-7.72c-4.58-0.55-5.42-0.41-7.64,0.83C161.68,166.93,158.63,172.59,158.63,172.59z"/>
	<path class="st2" d="M168.75,179.19c0,0,14.29-4.68,5.25-13.22"/>
	<line class="st2" x1="164.64" y1="173.63" x2="163.3" y2="176.38"/>
</g>
<g>
	<path class="st0" d="M261.86,169l-64.76-0.2c-1.45,0-2.15-1.77-1.09-2.75l8.86-8.25c1.17-1.09,2.71-1.7,4.31-1.7l54.15-0.09
		l40.06-0.07l58.92-0.1c1.5,0,2.87,0.84,3.53,2.18l4,8.12c0.73,1.48-0.36,3.21-2.02,3.2l-63.32-0.2L261.86,169z"/>
</g>
<g>
	<path class="st3" d="M304.51,155.93l58.92-0.1c1.5,0,2.87,0.84,3.53,2.18l4,8.12c0.73,1.48-0.36,3.21-2.02,3.2l-63.32-0.2"/>
	<path class="st3" d="M262.99,169l-64.76-0.2c-1.45,0-2.15-1.77-1.09-2.75l8.86-8.25c1.17-1.09,2.71-1.7,4.31-1.7l54.15-0.09"/>
</g>
<path class="st4" d="M382.96,9.73c-0.17-3.79-3.29-6.78-7.12-6.8c-34.16-0.19-185.35-0.99-187.79,0.04c-2.74,1.17-3.13,0.78-4.7,3.5
	c-1.57,2.72-4.67,133.63-0.76,135.91c3.92,2.28,84.06,3.28,84.08,3.28c-0.87,11.62-1.95,21.83-3.26,26.59h-0.67h-6.59
	c-0.79,0-1.19,0.96-0.62,1.51l3.9,3.8h48.25l2.21-4.17c0.27-0.52-0.1-1.14-0.69-1.14h-1.68h-0.62c-0.18-5.09-1.3-15.71-2.72-27.63
	l1.13-0.03c0,0,71.38,1.51,77.33-1.68C389.41,139.29,384.2,37.57,382.96,9.73z"/>
<g>
	<path class="st1" d="M288.93,39.42c-0.17,2.62-2.02,4.75-4.61,5.33c-0.84,0.19-1.14-0.11-1.01-0.97c0.4-2.61,1.87-4.32,4.38-5.17
		c0.05-0.02,0.11-0.04,0.16-0.05C288.82,38.3,289,38.44,288.93,39.42z"/>
	<g>
		<g>
			<path class="st1" d="M261.53,172.24h-6.59c-0.79,0-1.19,0.96-0.62,1.51l3.9,3.8h48.25l2.21-4.17c0.27-0.52-0.1-1.14-0.69-1.14
				h-1.68"/>
			<g>
				<path class="st2" d="M265.46,145.65c0,0-80.16-1-84.08-3.28c-3.92-2.28-0.81-133.18,0.76-135.91c1.57-2.72,1.96-2.33,4.7-3.5
					c2.43-1.03,153.63-0.23,187.79-0.04c3.82,0.02,6.95,3.01,7.12,6.8c1.23,27.84,6.45,129.56-0.31,133.17
					c-5.95,3.18-77.33,1.68-77.33,1.68"/>
				<path class="st1" d="M261.04,174.89c4.79-4.46,7.11-83.47,7.11-83.47h27.92c0,0,10.58,76.36,9.58,83.47"/>
			</g>
		</g>
		<path class="st1" d="M272.38,55.33c0.16-2.22,0.63-4.29,2.24-5.91c1.94-1.95,4.26-2.73,6.88-1.58c1.61,0.71,3.01,0.58,4.56-0.11
			c2.38-1.06,5.51-0.34,7.15,1.52c0.69,0.78,0.57,0.82-0.08,1.33c-3.25,2.59-2.9,7.27,0.7,9.41c0.55,0.32,0.65,0.6,0.41,1.19
			c-0.82,2.03-1.92,3.87-3.5,5.41c-1.09,1.07-2.4,1.17-3.81,0.75c-0.9-0.27-1.78-0.62-2.69-0.79c-1.13-0.2-2.14,0.36-3.15,0.76
			c-1.52,0.6-2.82,0.3-3.95-0.85c-2.04-2.07-3.41-4.52-4.1-7.32C272.74,57.9,272.6,56.6,272.38,55.33z"/>
	</g>
</g>
</svg>
