<?xml version="1.0" encoding="utf-8"?>
<!-- Generator: Adobe Illustrator 27.3.1, SVG Export Plug-In . SVG Version: 6.00 Build 0)  -->
<svg version="1.1" id="Layer_1" xmlns="http://www.w3.org/2000/svg" xmlns:xlink="http://www.w3.org/1999/xlink" x="0px" y="0px"
	 viewBox="0 0 65 78" style="enable-background:new 0 0 65 78;" xml:space="preserve">
<style type="text/css">
	.st0{fill:#EAEAEA;}
	.st1{fill:none;stroke:#231815;stroke-width:2;stroke-linecap:round;stroke-miterlimit:10;}
	.st2{fill:none;stroke:#000000;stroke-miterlimit:10;}
	.st3{stroke:#000000;stroke-miterlimit:10;}
</style>
<g>
	<rect x="1.96" y="2.44" class="st0" width="61.24" height="74.43"/>
	<g>
		<rect x="2" y="2.24" class="st1" width="61.24" height="74.43"/>
		<g>
			<path class="st2" d="M47.47,69.42c0.31-0.76,0.52-1.57,0.79-2.43c-0.81,0.53-1.41,1.52-1.62,2.69
				C46.98,69.58,47.41,69.57,47.47,69.42z"/>
			<path class="st2" d="M39.02,16.73c-1.14-0.37-2.27-0.74-3.49-1.14C35.97,17,38.15,17.24,39.02,16.73z"/>
			<path class="st2" d="M30.08,33.5c0.27-0.25,0.52-0.49,0.78-0.74C29.99,32.9,29.84,33.05,30.08,33.5z"/>
			<path class="st2" d="M28.51,27.39c0.4-0.36,0.56-1.97,0.26-2.62C28.05,25.33,27.89,26.92,28.51,27.39z"/>
			<path class="st2" d="M49.8,60.53c-0.39,1.94-0.75,3.79-1.13,5.68C50.79,64.67,51.19,62.75,49.8,60.53z"/>
			<path class="st2" d="M38.13,14.41c0.73,0.29,1.64-0.17,1.83-0.89c0.33-1.18-0.82-2.63-2.19-2.57c-0.71,0.01-1.45,0.31-2.02,0.96
				c-0.09,0.11-0.16,0.37-0.1,0.45C36.36,13.19,37.09,14,38.13,14.41z"/>
			<path class="st2" d="M32.26,10.47c-0.34-0.01-0.57,0.11-0.6,0.44c-0.04,0.45-0.09,0.92,0,1.35c0.15,0.71,0.67,1.21,1.18,1.68
				c0.62,0.57,1.36,0.95,2.17,1.26c0.01-0.1,0.03-0.14,0.02-0.18c-0.3-0.9-0.29-1.77,0.15-2.62c0.05-0.09-0.01-0.27-0.08-0.37
				c-0.2-0.31-0.43-0.61-0.64-0.92c-0.08-0.02-0.17-0.02-0.23-0.07C33.64,10.65,32.97,10.5,32.26,10.47z"/>
			<path class="st2" d="M30.24,34.83C30.09,34.58,30,34.3,29.87,34c-0.18,0.14-0.31,0.26-0.46,0.36c-0.69,0.48-1.37,1-2.1,1.43
				c-1.06,0.62-2.2,0.47-3.33,0.16c-1.26-0.34-2.45-0.18-3.62,0.42c-1.27,0.66-2.02,1.78-2.64,2.98c-0.88,1.71-1.25,3.52-0.95,5.47
				c0.23,1.49,0.58,2.93,1.14,4.33c0.78,1.94,1.32,3.92,1.31,6.04c0,2.86,0.12,5.7,0.98,8.46c0.4,1.3,0.94,2.5,2.24,3.17
				c0.73,0.38,1.34,0.35,1.81-0.31c0.41-0.57,0.81-1.22,0.93-1.88c0.27-1.5,0.46-3.03,0.5-4.55c0.11-3.55,0.12-7.1,0.19-10.65
				c0.03-1.54,0.42-3.02,0.99-4.45c1.12-2.78,2.78-5.22,4.73-7.48c0.17-0.19,0.13-0.3,0-0.49C31.14,36.3,30.69,35.57,30.24,34.83z"
				/>
			<path class="st2" d="M49.95,59.08c0.38-1.52,0.75-3.05,1.15-4.56c0.36-1.33,0.77-2.64,1.15-3.97c0.39-1.39,0.81-2.78,0.68-4.24
				c-0.12-1.31-0.61-2.44-1.71-3.28c-1.52-1.15-3.26-1.82-5.03-2.42c-1.5-0.51-3.03-0.95-4.53-1.45c-1.51-0.5-2.67-1.49-3.56-2.77
				c-0.65-0.94-0.99-2-0.69-3.16c0.18-0.7,0.45-1.38,0.7-2.06c0.35-0.97,0.74-1.93,1.08-2.91c0.1-0.28,0.25-0.67-0.14-0.82
				c-0.35-0.13-0.48,0.24-0.64,0.49c-0.01,0.01-0.01,0.03-0.02,0.04c-0.18,0.7-0.43,1.39-0.51,2.11c-0.17,1.42-0.68,2.59-1.82,3.53
				c-1.28,1.06-2.44,2.25-3.66,3.38c-0.27,0.25-0.35,0.47-0.11,0.8c0.11,0.15,0.15,0.35,0.21,0.53c0.39,1.21,0,2.34-0.34,3.48
				c-0.47,1.56-1.07,3.1-1.31,4.7c-0.39,2.62,0.06,5.21,0.81,7.74c0.57,1.94,1.49,3.74,2.41,5.53c1.01,1.97,2.12,3.88,3.54,5.59
				c0.55,0.66,1.17,1.27,1.82,1.82c0.9,0.75,1.61,0.58,1.98-0.53c0.34-1,0.52-2.06,0.68-3.11c0.13-0.83,0.09-1.69,0.18-2.53
				c0.2-1.99,0.42-3.98,0.64-5.97c0.11-0.94,0.22-1.88,0.37-2.82c0.08-0.51,0.36-0.93,0.91-1.04c0.53-0.11,0.83,0.27,1.09,0.63
				c0.38,0.53,0.75,1.07,1.07,1.64c1.15,2.05,2.28,4.12,3.45,6.22C49.84,59.47,49.9,59.28,49.95,59.08z"/>
			<path class="st2" d="M33.43,26.33c0.86,0.22,1.69,0.25,2.52-0.16c1.08-0.53,2.2-0.8,3.39-0.35c0.55,0.21,1.01,0,1.42-0.38
				c0.64-0.59,0.94-1.37,1.17-2.16c0.57-2.03,0.28-3.88-1.32-5.39c-0.56-0.53-1.14-1.01-2-0.71c-0.07,0.02-0.15,0.02-0.22,0.03
				c-1.05,0.02-2.11-0.07-2.75-1.02c-0.37-0.54-0.82-0.85-1.38-1.09c-0.19-0.08-0.37-0.18-0.56-0.28c-1.82-1.03-2.51-2.34-2.2-4.38
				c-0.73,0.26-1.39,0.42-1.99,0.73c-2.22,1.15-4.13,2.62-4.94,5.15c-0.33,1.04-0.08,2.71,1.05,3.18c0.53,0.22,1.05,0.48,1.57,0.72
				c1.02,0.47,2.07,0.88,3.06,1.41c1.68,0.9,2.6,2.34,2.75,4.25C33.05,26.18,33.2,26.28,33.43,26.33z"/>
			<path class="st2" d="M32.91,29.27c-0.35,0.86-0.69,1.71-1.04,2.58C33.03,31.47,33.61,30.04,32.91,29.27z"/>
			<path class="st2" d="M31.72,31.61c0.18-0.38,0.4-0.73,0.54-1.12c0.18-0.47,0.3-0.96,0.44-1.45c-1.34-0.28-2.53,1.34-2.77,3.69
				C30.65,32.45,31.37,32.35,31.72,31.61z"/>
			<path class="st3" d="M34.46,11.12C34.47,11.12,34.47,11.12,34.46,11.12C34.47,11.12,34.47,11.12,34.46,11.12
				c0-0.01-0.01-0.01-0.01-0.01C34.46,11.11,34.46,11.12,34.46,11.12z"/>
			<path class="st3" d="M47.78,69.56c-0.01,0-0.03,0-0.04,0c0.23-0.8,0.42-1.58,0.68-2.34c0.1-0.3,0.3-0.6,0.51-0.84
				c0.45-0.51,0.94-0.99,1.41-1.49c0.34-0.36,0.47-0.8,0.49-1.3c0.03-1.11-0.29-2.13-0.73-3.13c-0.09-0.21-0.12-0.49-0.07-0.71
				c0.2-0.9,0.44-1.78,0.68-2.67c0.54-2.02,1.07-4.03,1.63-6.04c0.41-1.5,0.91-2.99,0.83-4.57c-0.06-1.17-0.42-2.25-1.27-3.1
				c-0.99-0.99-2.19-1.7-3.49-2.17c-1.74-0.63-3.52-1.15-5.28-1.73c-1.59-0.52-3.14-1.12-4.28-2.43c-1.1-1.26-1.65-2.67-1.05-4.35
				c0.35-0.99,0.75-1.96,1.09-2.95c0.22-0.64,0.42-1.29,0.56-1.95c0.03-0.16-0.16-0.45-0.33-0.55c-0.11-0.07-0.43,0.03-0.53,0.15
				c-0.22,0.25-0.43,0.55-0.51,0.86c-0.21,0.88-0.37,1.77-0.52,2.66c-0.14,0.82-0.49,1.49-1.12,2.05c-1.32,1.17-2.61,2.38-3.91,3.58
				c-0.19,0.18-0.34,0.39-0.51,0.59c-0.63-0.6-1.67-2.26-1.84-2.98c-0.04-0.16,0.04-0.41,0.16-0.53c0.68-0.65,1.3-1.35,2.12-1.87
				c1.14-0.71,1.25-1.63,0.57-2.82c-0.04-0.06-0.08-0.14-0.07-0.21c0.07-0.7,0.14-1.41,0.21-2.12c0.07,0,0.13-0.01,0.19,0
				c1.03,0.26,2.02,0.16,2.99-0.31c0.39-0.19,0.84-0.36,1.26-0.38c0.58-0.03,1.18,0.06,1.76,0.17c0.65,0.13,1.21,0.02,1.58-0.53
				c0.4-0.6,0.81-1.22,1.05-1.89c0.84-2.38,0.4-4.99-1.95-6.52c-0.06-0.04-0.11-0.12-0.19-0.2c1.46-0.49,2.5-1.43,3.23-2.71
				c0.91-1.6,0.98-3.24,0.11-4.88c-0.08-0.15-0.23-0.27-0.38-0.45c0.27,0.72,0.62,1.33,0.71,1.98c0.39,2.81-1.41,5.07-3.79,5.89
				c-0.12,0.04-0.29,0-0.42-0.04c-1.02-0.36-2.03-0.72-3.04-1.09c-0.45-0.17-1.03-0.16-1.12-0.83c-0.04-0.28-0.12-0.55-0.14-0.83
				c-0.04-0.54,0.08-1.05,0.47-1.61c0.11,0.16,0.16,0.29,0.26,0.38c0.61,0.54,1.19,1.12,1.85,1.59c0.57,0.41,1.24,0.5,1.88,0.07
				c0.51-0.34,0.79-0.81,0.72-1.43c-0.08-0.74-0.38-1.37-1-1.81c-1.02-0.72-2.66-0.47-3.51,0.53c-0.09,0.11-0.18,0.21-0.27,0.31
				c-0.35-0.32-0.65-0.6-0.96-0.89c0,0,0,0,0,0.01c0,0,0,0,0,0c0.22,0.3,0.44,0.6,0.64,0.92c0.06,0.1,0.12,0.28,0.08,0.37
				c-0.44,0.86-0.46,1.73-0.15,2.62c0.01,0.04-0.01,0.08-0.02,0.18c-0.81-0.31-1.54-0.69-2.17-1.26c-0.52-0.47-1.03-0.97-1.18-1.68
				c-0.09-0.43-0.04-0.9,0-1.35c0.03-0.33,0.25-0.45,0.6-0.44c0.71,0.02,1.38,0.17,1.97,0.58c0.06,0.04,0.15,0.05,0.23,0.07
				c0,0-0.01-0.01-0.01-0.01c0,0,0.01,0.01,0.01,0.01c-0.1-0.12-0.17-0.29-0.3-0.33c-0.49-0.19-1-0.35-1.5-0.49
				c-0.21-0.06-0.45-0.04-0.78-0.06c0.39-0.46,0.7-0.83,1.01-1.2c-0.03-0.03-0.07-0.07-0.1-0.1c-0.18,0.19-0.39,0.35-0.52,0.56
				c-0.34,0.56-0.83,0.78-1.46,0.98c-2.7,0.87-4.92,2.36-6.16,5.06c-0.92,2-0.51,3.39,1.41,4.43c0.13,0.07,0.26,0.15,0.4,0.2
				c0.89,0.36,1.8,0.69,2.68,1.08c1.79,0.79,3.19,1.95,3.61,3.99c0.05,0.25,0.06,0.5,0.08,0.75c-0.04,0.02-0.08,0.03-0.13,0.05
				c-0.28-0.19-0.58-0.35-0.82-0.59c-0.8-0.78-1.69-1.32-2.88-1.03c-0.06-0.19-0.1-0.35-0.16-0.5c-0.18-0.45-0.33-0.92-0.57-1.34
				c-0.26-0.44-0.66-0.55-0.98-0.39c-0.34,0.17-0.55,0.73-0.44,1.15c0.04-0.13,0.04-0.28,0.11-0.38c0.17-0.22,0.35-0.54,0.57-0.59
				c0.19-0.04,0.55,0.19,0.66,0.39c0.22,0.39,0.32,0.85,0.48,1.27c0.1,0.26,0.03,0.43-0.14,0.64c-0.59,0.74-0.72,1.59-0.45,2.47
				c0.06,0.18,0.3,0.31,0.46,0.46c0.14-0.17,0.37-0.34,0.4-0.52c0.08-0.67,0.13-1.36,0.09-2.04c-0.02-0.41,0.11-0.5,0.45-0.51
				c0.55,0,1.05,0.15,1.49,0.5c0.55,0.43,1.11,0.84,1.65,1.28c0.12,0.1,0.23,0.29,0.23,0.43c0.01,0.55-0.02,1.1-0.07,1.65
				c-0.01,0.13-0.2,0.34-0.3,0.34c-0.83-0.02-1.35,0.48-1.79,1.08c-0.58,0.8-0.88,1.7-0.97,2.68c-0.01,0.16-0.09,0.36-0.21,0.44
				c-0.67,0.46-1.43,0.38-1.96-0.24c-0.37-0.44-0.64-0.96-0.97-1.43c-0.97-1.4-1.55-2.91-1.59-4.64c-0.01-0.34-0.18-0.74-0.41-0.99
				c-0.59-0.66-0.88-1.41-0.84-2.27c0.03-0.72,0.13-1.45,0.17-2.17c0.02-0.39,0-0.77,0-1.16c-0.14,0.47-0.18,0.93-0.22,1.4
				c-0.06,0.86-0.13,1.72-0.16,2.57c-0.01,0.54,0.22,1.02,0.59,1.4c0.43,0.44,0.58,0.97,0.64,1.56c0.06,0.69,0.05,1.45,0.34,2.05
				c0.59,1.24,1.31,2.43,2.07,3.57c0.54,0.8,1.25,1.18,2.27,0.66c0.06-0.03,0.14-0.03,0.21-0.04c0.16,0.33,0.15,0.57-0.16,0.79
				c-0.3,0.21-0.56,0.5-0.87,0.69c-0.67,0.41-1.33,0.86-2.05,1.14c-0.95,0.37-1.93,0.06-2.89-0.15c-2.04-0.45-3.74,0.23-5,1.79
				c-1.74,2.15-2.59,4.63-2.15,7.46c0.22,1.41,0.5,2.81,1.05,4.12c0.93,2.23,1.46,4.53,1.43,6.96c-0.03,2.71,0.2,5.39,1.06,8
				c0.43,1.3,1.06,2.38,2.28,3.04c0.72,0.39,1.35,0.4,1.94-0.21c0.57-0.59,0.96-1.28,1.09-2.05c0.24-1.34,0.44-2.7,0.48-4.06
				c0.09-2.72,0.04-5.44,0.1-8.16c0.03-1.45,0.06-2.92,0.25-4.35c0.26-2,1.01-3.87,2.03-5.61c0.74-1.26,1.61-2.46,2.45-3.66
				c0.34-0.49,0.77-0.92,1.22-1.45c0.16,0.3,0.27,0.51,0.36,0.72c0.42,0.96,0.17,1.9-0.1,2.83c-0.37,1.23-0.8,2.45-1.18,3.68
				c-0.64,2.11-0.6,4.27-0.28,6.41c0.34,2.28,1.06,4.46,2.04,6.55c1.18,2.5,2.48,4.93,4.12,7.15c0.79,1.07,1.64,2.07,2.77,2.8
				c0.82,0.53,1.59-0.02,1.8-0.6c0.3-0.85,0.57-1.72,0.7-2.61c0.2-1.33,0.26-2.69,0.39-4.03c0.22-2.28,0.42-4.55,0.67-6.83
				c0.06-0.58,0.19-1.18,0.42-1.71c0.25-0.58,0.9-0.6,1.3-0.11c0.18,0.22,0.33,0.46,0.49,0.69c1.65,2.37,2.91,4.96,4.14,7.56
				c0.05,0.11,0.09,0.26,0.06,0.38c-0.2,1.03-0.4,2.07-0.62,3.1c-0.18,0.84-0.36,1.68-0.55,2.52c-0.08,0.37-0.27,0.65-0.54,0.93
				c-0.4,0.4-0.75,0.88-1.04,1.37c-0.24,0.4-0.36,0.87-0.55,1.35c-0.01,0-0.01,0-0.02,0c0.06,0.2,0.12,0.39,0.13,0.39
				C46.5,70.01,47.34,69.81,47.78,69.56z M35.76,11.91c0.57-0.65,1.31-0.96,2.02-0.96c1.37-0.06,2.51,1.39,2.19,2.57
				c-0.2,0.72-1.11,1.18-1.83,0.89c-1.04-0.41-1.77-1.22-2.47-2.05C35.6,12.29,35.67,12.02,35.76,11.91z M28.51,27.39
				c-0.62-0.47-0.46-2.05,0.26-2.62C29.07,25.42,28.91,27.03,28.51,27.39z M30.08,33.5c-0.24-0.46-0.09-0.61,0.78-0.74
				C30.6,33.01,30.35,33.25,30.08,33.5z M39.02,16.73c-0.87,0.51-3.04,0.27-3.49-1.14C36.74,15.99,37.88,16.36,39.02,16.73z
				 M30.28,21.64c-0.99-0.53-2.04-0.95-3.06-1.41c-0.52-0.24-1.04-0.5-1.57-0.72c-1.13-0.47-1.39-2.13-1.05-3.18
				c0.81-2.53,2.72-4,4.94-5.15c0.59-0.31,1.26-0.47,1.99-0.73c-0.31,2.04,0.38,3.35,2.2,4.38c0.18,0.1,0.36,0.2,0.56,0.28
				c0.56,0.24,1.01,0.55,1.38,1.09c0.64,0.95,1.7,1.04,2.75,1.02c0.07,0,0.15,0,0.22-0.03c0.86-0.3,1.44,0.18,2,0.71
				c1.59,1.51,1.89,3.36,1.32,5.39c-0.22,0.8-0.53,1.57-1.17,2.16c-0.41,0.38-0.88,0.59-1.42,0.38c-1.19-0.45-2.31-0.19-3.39,0.35
				c-0.83,0.41-1.66,0.38-2.52,0.16c-0.23-0.06-0.38-0.16-0.4-0.45C32.87,23.98,31.96,22.54,30.28,21.64z M32.91,29.27
				c0.7,0.77,0.12,2.2-1.04,2.58C32.22,30.97,32.57,30.12,32.91,29.27z M32.7,29.03c-0.15,0.49-0.26,0.98-0.44,1.45
				c-0.15,0.39-0.37,0.74-0.54,1.12c-0.35,0.74-1.07,0.84-1.79,1.12C30.18,30.37,31.37,28.76,32.7,29.03z M31.61,37.51
				c-1.95,2.26-3.61,4.7-4.73,7.48c-0.57,1.42-0.96,2.9-0.99,4.45c-0.07,3.55-0.07,7.1-0.19,10.65c-0.05,1.52-0.24,3.05-0.5,4.55
				c-0.12,0.67-0.53,1.32-0.93,1.88c-0.47,0.66-1.08,0.68-1.81,0.31c-1.31-0.67-1.84-1.88-2.24-3.17c-0.86-2.76-0.98-5.6-0.98-8.46
				c0-2.11-0.53-4.1-1.31-6.04c-0.56-1.4-0.91-2.84-1.14-4.33c-0.3-1.95,0.06-3.76,0.95-5.47c0.62-1.2,1.37-2.32,2.64-2.98
				c1.17-0.61,2.35-0.76,3.62-0.42c1.13,0.3,2.27,0.46,3.33-0.16c0.73-0.43,1.4-0.95,2.1-1.43c0.14-0.1,0.28-0.22,0.46-0.36
				c0.13,0.3,0.23,0.58,0.38,0.83c0.44,0.74,0.9,1.47,1.37,2.18C31.74,37.2,31.78,37.32,31.61,37.51z M46.35,53.43
				c-0.32-0.57-0.69-1.11-1.07-1.64c-0.26-0.37-0.56-0.74-1.09-0.63c-0.55,0.11-0.83,0.53-0.91,1.04c-0.15,0.94-0.27,1.88-0.37,2.82
				c-0.22,1.99-0.44,3.98-0.64,5.97c-0.08,0.84-0.05,1.7-0.18,2.53c-0.16,1.05-0.34,2.11-0.68,3.11c-0.37,1.11-1.08,1.28-1.98,0.53
				c-0.66-0.55-1.28-1.16-1.82-1.82c-1.42-1.71-2.53-3.62-3.54-5.59c-0.92-1.8-1.83-3.59-2.41-5.53c-0.75-2.53-1.2-5.12-0.81-7.74
				c0.24-1.6,0.84-3.14,1.31-4.7c0.34-1.14,0.73-2.27,0.34-3.48c-0.06-0.18-0.1-0.39-0.21-0.53c-0.24-0.32-0.15-0.55,0.11-0.8
				c1.22-1.13,2.38-2.32,3.66-3.38c1.14-0.94,1.65-2.11,1.82-3.53c0.09-0.71,0.34-1.41,0.51-2.11c0-0.01,0.01-0.03,0.02-0.04
				c0.15-0.25,0.29-0.62,0.64-0.49c0.39,0.15,0.24,0.55,0.14,0.82c-0.34,0.98-0.73,1.94-1.08,2.91c-0.25,0.68-0.51,1.36-0.7,2.06
				c-0.3,1.16,0.03,2.22,0.69,3.16c0.89,1.28,2.05,2.27,3.56,2.77c1.51,0.5,3.03,0.94,4.53,1.45c1.77,0.6,3.51,1.27,5.03,2.42
				c1.11,0.84,1.59,1.97,1.71,3.28c0.13,1.46-0.29,2.85-0.68,4.24c-0.37,1.32-0.79,2.64-1.15,3.97c-0.41,1.52-0.77,3.04-1.15,4.56
				c-0.05,0.2-0.1,0.39-0.15,0.57C48.63,57.55,47.5,55.48,46.35,53.43z M49.8,60.53c1.38,2.22,0.99,4.14-1.13,5.68
				C49.05,64.32,49.42,62.48,49.8,60.53z M48.27,66.98c-0.27,0.87-0.48,1.67-0.79,2.43c-0.06,0.15-0.49,0.16-0.83,0.26
				C46.86,68.5,47.46,67.51,48.27,66.98z"/>
		</g>
	</g>
</g>
</svg>
