<?xml version="1.0" encoding="utf-8"?>
<!-- Generator: Adobe Illustrator 27.3.1, SVG Export Plug-In . SVG Version: 6.00 Build 0)  -->
<svg version="1.1" id="Layer_1" xmlns="http://www.w3.org/2000/svg" xmlns:xlink="http://www.w3.org/1999/xlink" x="0px" y="0px"
	 viewBox="0 0 65 78" style="enable-background:new 0 0 65 78;" xml:space="preserve">
<style type="text/css">
	.st0{fill:#EAEAEA;}
	.st1{fill:none;stroke:#231815;stroke-width:2;stroke-linecap:round;stroke-miterlimit:10;}
	.st2{stroke:#000000;stroke-miterlimit:10;}
</style>
<g>
	<rect x="1.78" y="1.33" class="st0" width="61.23" height="74.43"/>
	<g>
		<rect x="1.99" y="2.24" class="st1" width="61.23" height="74.43"/>
		<g>
			<path class="st2" d="M25.07,22.51c-0.1-0.07-0.13-0.1-0.18-0.12c-0.49-0.22-0.92-0.53-1.33-0.87c-0.68-0.56-1.41-1.09-1.96-1.79
				c-0.59-0.74-1.11-1.53-1.44-2.42c-0.21-0.57-0.22-1.16-0.06-1.74c0.11-0.39,0.46-0.62,0.9-0.6c0.45,0.02,0.88,0.13,1.25,0.41
				c1.42,1.02,2.61,2.26,3.57,3.72c0.22,0.34,0.54,0.38,0.84,0.11c0.14-0.13,0.27-0.28,0.39-0.43c0.05-0.06,0.07-0.13,0.11-0.2
				c0.03,0.03,0.06,0.06,0.09,0.09c-0.19,0.37-0.38,0.74-0.76,0.94c-0.12,0.06-0.36,0.03-0.48-0.05c-0.21-0.13-0.4-0.31-0.54-0.51
				c-0.64-0.89-1.33-1.72-2.12-2.47c-0.57-0.53-1.16-1.04-1.91-1.31c-0.15-0.05-0.32-0.1-0.48-0.09c-0.48,0.04-0.71,0.38-0.7,0.94
				c0.02,0.81,0.29,1.53,0.71,2.22c0.51,0.84,1.06,1.64,1.85,2.23c0.78,0.59,1.57,1.15,2.35,1.73c0.19,0.14,0.39,0.17,0.63,0.15
				c1.58-0.14,3.16-0.27,4.74-0.38c0.47-0.03,0.94,0.01,1.4,0.02c0.16,0.01,0.25-0.03,0.32-0.19c0.4-0.95,0.73-1.91,0.67-2.97
				c-0.01-0.18-0.01-0.36,0.01-0.54c0.05-0.7-0.1-1.36-0.32-2.01c-0.12-0.34-0.2-0.67-0.17-1.04c0.01-0.07-0.06-0.16-0.11-0.23
				c-0.03-0.04-0.08-0.06-0.13-0.08c-0.93-0.49-1.45-1.29-1.62-2.3c-0.13-0.8,0.14-1.52,0.68-2.13c0.18-0.2,0.53-0.2,0.78-0.04
				c0.67,0.44,0.99,1.1,1.19,1.85c0.08,0.3,0.13,0.61,0.18,0.91c0.1,0.6-0.07,1.13-0.45,1.59c-0.16,0.2-0.16,0.21,0.05,0.34
				c0.62,0.4,1.26,0.75,1.97,0.97c0.99,0.31,2,0.48,3.03,0.31c0.55-0.09,1.08-0.31,1.63-0.4c0.42-0.07,0.69-0.3,0.97-0.58
				c0.51-0.52,1.16-0.71,1.87-0.66c0.23,0.01,0.46,0.05,0.69,0.07c0.85,0.1,1.37,0.69,1.89,1.27c1,1.12,1.62,2.45,1.96,3.9
				c0.23,0.97,0.43,1.96,0.51,2.95c0.09,1.06,0.08,2.13,0.04,3.2c-0.05,1.28-0.18,2.56-0.28,3.84c-0.07,0.86-0.16,1.72-0.22,2.58
				c-0.09,1.31-0.05,2.62,0.03,3.93c0.05,0.78,0.08,1.57,0.16,2.35c0.07,0.67,0.16,1.35,0.3,2.01c0.15,0.74,0.31,1.48,0.56,2.19
				c0.26,0.73,0.63,1.42,0.98,2.11c0.46,0.88,0.95,1.74,1.42,2.62c0.41,0.76,0.82,1.52,1.19,2.3c0.49,1,1,1.99,1.33,3.07
				c0.33,1.04,0.57,2.1,0.51,3.2c-0.03,0.75-0.05,1.5-0.13,2.24c-0.12,1.04-0.4,2.05-0.96,2.94c-0.74,1.18-1.68,2.18-3.06,2.61
				c-0.62,0.19-1.26,0.29-1.9,0.4c-1.27,0.23-2.55,0.43-3.83,0.66c-1.21,0.22-2.42,0.47-3.63,0.67c-1.09,0.17-2.2,0.29-3.3,0.41
				c-1.09,0.12-2.18,0.23-3.27,0.29c-0.67,0.04-1.35-0.03-2.03-0.06c-0.81-0.03-1.63-0.05-2.44-0.09c-1.1-0.07-2.2-0.18-3.3-0.24
				c-1.13-0.06-2.23-0.3-3.32-0.56c-0.62-0.15-1.21-0.4-1.82-0.62c-0.2-0.07-0.38-0.09-0.59-0.03c-0.49,0.13-1,0.21-1.5,0.33
				c-1.11,0.28-2.08,0.79-2.86,1.64c-0.41,0.45-0.85,0.88-1.39,1.2c-0.46,0.27-0.95,0.43-1.48,0.42c-0.74-0.02-1.46,0-2.19,0.16
				c-0.36,0.08-0.72-0.04-1.03-0.23c-0.21-0.13-0.39-0.3-0.37-0.59c0.03-0.31,0.16-0.55,0.46-0.68c0.19-0.08,0.4-0.13,0.59-0.22
				c1.53-0.68,2.77-1.71,3.73-3.08c0.43-0.62,0.9-1.2,1.28-1.85c0.77-1.31,1.48-2.66,1.99-4.09c0.29-0.82,0.49-1.66,0.58-2.52
				c0.03-0.29,0.09-0.57,0.12-0.86c0.11-1.02,0.22-2.05,0.3-3.07c0.11-1.38,0.21-2.76,0.31-4.14c0.08-1.17,0.16-2.34,0.21-3.52
				c0.05-0.96,0.04-1.92,0.09-2.88c0.03-0.76,0.11-1.52,0.16-2.28c0.06-0.73,0.1-1.45,0.18-2.18c0.05-0.52,0.15-1.04,0.22-1.56
				c0.03-0.19,0.06-0.38,0.09-0.58c0.18-1.11,0.41-2.21,0.79-3.27c0.03-0.08,0.03-0.17,0.04-0.27c-0.3-0.04-0.58-0.07-0.85-0.1
				c-1.34-0.18-2.64-0.48-3.86-1.11c-0.73-0.38-1.22-0.97-1.6-1.68c-0.14-0.27-0.28-0.54-0.4-0.81c-0.33-0.75-0.07-1.25,0.64-1.59
				c1.01-0.49,2.06-0.91,3.1-1.35c0.98-0.41,2-0.68,3.03-0.94c0.86-0.21,1.72-0.42,2.59-0.6c0.59-0.12,1.2-0.18,1.79-0.27
				C24.85,22.54,24.93,22.53,25.07,22.51z M20.81,64.94c0.48,0.17,0.9,0.36,1.33,0.46c0.89,0.2,1.79,0.4,2.69,0.49
				c1.51,0.16,3.03,0.23,4.55,0.34c0.93,0.06,1.86,0.12,2.78,0.17c1.8,0.1,3.57-0.15,5.34-0.37c1.12-0.13,2.24-0.3,3.36-0.46
				c0.59-0.08,1.18-0.17,1.77-0.28c0.57-0.11,1.14-0.26,1.71-0.37c1.47-0.27,2.94-0.52,4.4-0.78c0.29-0.05,0.58-0.12,0.85-0.22
				c0.56-0.22,1.07-0.54,1.5-0.96c0.51-0.49,0.96-1.01,1.3-1.63c0.6-1.09,0.76-2.29,0.88-3.5c0.11-1.07,0.07-2.14-0.16-3.21
				c-0.18-0.87-0.38-1.73-0.77-2.53c-0.52-1.06-1.07-2.1-1.61-3.15c-0.8-1.55-1.63-3.08-2.42-4.64c-0.25-0.48-0.43-1-0.6-1.52
				c-0.16-0.48-0.25-0.99-0.37-1.49c-0.04-0.17-0.11-0.35-0.13-0.52c-0.06-0.49-0.1-0.98-0.15-1.46c-0.18-1.61-0.32-3.21-0.33-4.83
				c-0.01-1.2,0.02-2.39,0.17-3.58c0.07-0.53,0.13-1.06,0.17-1.59c0.06-0.83,0.11-1.67,0.16-2.5c0.1-1.6,0.11-3.2-0.12-4.79
				c-0.11-0.75-0.25-1.51-0.46-2.24c-0.43-1.49-1.14-2.85-2.29-3.93c-0.23-0.21-0.5-0.42-0.79-0.52c-1.04-0.37-2.04-0.31-2.95,0.38
				c-0.05,0.04-0.09,0.1-0.14,0.15c0.16,0.01,0.28-0.01,0.41-0.04c0.86-0.16,1.68-0.09,2.43,0.39c0.98,0.61,1.6,1.5,1.86,2.6
				c0.21,0.9,0.32,1.83,0.45,2.75c0.09,0.64,0.19,1.29,0.2,1.93c0.02,1.23-0.01,2.46-0.03,3.7c-0.02,1.43-0.23,2.84-0.4,4.26
				c-0.17,1.44-0.29,2.88-0.59,4.3c-0.16,0.72-0.23,1.47-0.41,2.19c-0.2,0.84-0.47,1.66-0.71,2.49c-0.21,0.76-0.4,1.52-0.63,2.27
				c-0.41,1.36-0.83,2.71-1.26,4.06c-0.18,0.57-0.42,1.1-0.87,1.52c-0.19,0.18-0.38,0.35-0.57,0.54c0.07,0.06,0.1,0.1,0.15,0.12
				c0.38,0.23,0.75,0.49,1.15,0.68c0.94,0.46,1.89,0.88,2.84,1.33c0.9,0.43,1.72,0.97,2.39,1.72c0.3,0.33,0.61,0.65,0.75,1.1
				c0.15,0.5-0.06,0.83-0.59,0.85c-0.44,0.02-0.88,0.03-1.32,0.01c-0.73-0.03-1.45-0.12-2.18-0.13c-2.08-0.02-4.15-0.01-6.23,0
				c-0.49,0-0.47-0.03-0.46,0.46c0.01,0.64-0.08,1.27-0.32,1.86c-0.2,0.5-0.54,0.87-1.12,0.87c-0.44,0-0.88-0.01-1.31-0.09
				c-0.78-0.14-1.53-0.39-2.17-0.91c-0.51-0.42-0.88-0.95-1.22-1.5c-0.2-0.33-0.2-0.32-0.58-0.26c-0.5,0.08-1.01,0.14-1.51,0.24
				c-1.83,0.38-3.66,0.78-5.44,1.38c-0.28,0.09-0.55,0.23-0.8,0.37c-0.09,0.05-0.2,0.17-0.21,0.27c-0.1,1,0.09,1.96,0.43,2.9
				c0.23,0.64,0.44,1.28,0.63,1.93c0.12,0.43,0.14,0.87,0.03,1.31c-0.18,0.74-0.72,1.11-1.41,1.31
				C21.56,64.73,21.21,64.83,20.81,64.94z M23.78,27.71c0.17,0.1,0.29,0.17,0.42,0.25c0.81,0.48,1.65,0.92,2.43,1.44
				c0.88,0.57,1.35,1.41,1.21,2.48c-0.06,0.49-0.24,0.96-0.37,1.44c-0.17,0.62-0.38,1.24-0.49,1.88c-0.11,0.57-0.1,1.16-0.16,1.74
				c-0.1,0.84-0.5,1.48-1.33,1.78c-0.58,0.21-0.91,0.09-1.24-0.45c-0.03-0.04-0.04-0.09-0.07-0.13c-0.24-0.35-0.45-0.73-0.75-1.02
				c-0.39-0.39-0.67-0.83-0.8-1.36c-0.22-0.86-0.11-1.63,0.63-2.23c0.09-0.07,0.17-0.19,0.21-0.3c0.13-0.4,0.2-0.81,0.15-1.23
				c-0.01-0.11-0.08-0.23-0.16-0.32c-0.25-0.3-0.61-0.35-0.98-0.39c-0.55-0.07-1.1-0.14-1.65-0.23c-0.15-0.02-0.2,0.04-0.23,0.15
				c-0.21,0.74-0.44,1.48-0.62,2.22c-0.16,0.69-0.3,1.38-0.4,2.08c-0.13,0.91-0.23,1.83-0.32,2.75c-0.09,0.95-0.2,1.9-0.2,2.85
				C19.07,43,19,44.89,18.92,46.78c-0.02,0.44-0.04,0.88-0.07,1.32c-0.1,1.1-0.21,2.19-0.3,3.29c-0.07,0.81-0.13,1.62-0.2,2.43
				c-0.13,1.31-0.33,2.61-0.71,3.88c-0.24,0.79-0.55,1.56-0.92,2.3c-0.65,1.3-1.31,2.59-2.2,3.76c-0.82,1.09-1.69,2.12-2.86,2.85
				c-0.57,0.36-1.11,0.79-1.8,0.9c-0.12,0.02-0.24,0.12-0.34,0.21c-0.16,0.13-0.15,0.29-0.02,0.43c0.34,0.38,0.74,0.55,1.24,0.38
				c0.47-0.16,0.95-0.19,1.45-0.13c0.67,0.09,1.32-0.05,1.92-0.36c0.51-0.27,0.95-0.63,1.32-1.07c0.87-1.03,2.01-1.59,3.29-1.9
				c0.32-0.08,0.65-0.11,0.98-0.16c0.07-0.01,0.14-0.04,0.26-0.07c-0.23-0.15-0.4-0.26-0.57-0.38c-0.37-0.26-0.66-0.59-0.78-1.04
				c-0.15-0.58-0.17-1.18,0.01-1.76c0.28-0.92,0.6-1.82,0.93-2.72c0.18-0.49,0.49-0.9,0.91-1.21c0.41-0.29,0.84-0.55,1.26-0.83
				c0.16-0.11,0.34-0.23,0.41-0.38c0.12-0.26,0.18-0.55,0.25-0.82c0.29-1.12,0.64-2.23,1.16-3.27c0.57-1.15,1.05-2.34,1.42-3.57
				c0.17-0.56,0.25-1.15,0.39-1.72c0.05-0.19,0.02-0.31-0.12-0.45c-0.77-0.79-1.55-1.57-2.28-2.4c-0.69-0.77-1.36-1.56-1.67-2.59
				c-0.19-0.63-0.12-1.18,0.23-1.71c0.31-0.47,0.77-0.66,1.32-0.62c0.56,0.04,0.99,0.35,1.34,0.76c0.97,1.15,1.37,2.52,1.47,3.98
				c0.06,0.8,0.02,1.62,0.01,2.42c0,0.2,0.05,0.36,0.17,0.51c0.23,0.28,0.45,0.56,0.68,0.84c1.02,1.27,1.9,2.64,2.7,4.06
				c0.46,0.82,0.92,1.63,1.38,2.45c0.08,0.14,0.18,0.22,0.37,0.18c0.25-0.05,0.51-0.08,0.77-0.1c0.75-0.05,1.5-0.09,2.24-0.12
				c0.83-0.04,1.67-0.08,2.51-0.11c0.18-0.01,0.28-0.06,0.3-0.25c0.02-0.17,0.08-0.34,0.11-0.51c0.14-0.63,0.33-1.24,0.74-1.74
				c0.75-0.93,1.55-1.82,2.32-2.73c0.05-0.06,0.1-0.12,0.14-0.18c-0.02-0.03-0.03-0.05-0.04-0.07c-0.03-0.03-0.06-0.06-0.1-0.09
				c-0.68-0.54-1.19-1.22-1.63-1.97c-0.43-0.73-0.81-1.49-1.07-2.31c-0.2-0.61-0.41-1.21-0.64-1.81c-0.17-0.45-0.34-0.91-0.6-1.31
				c-0.47-0.72-0.98-1.4-1.51-2.08c-0.62-0.79-1.3-1.54-1.91-2.35c-0.44-0.59-0.78-1.27-1.21-1.86c-1.01-1.39-1.84-2.9-2.73-4.36
				c-0.7-1.15-1.49-2.23-2.41-3.21c-0.16-0.17-0.46-0.29-0.69-0.3C24.9,27.17,24.37,27.45,23.78,27.71z M37.39,32.54
				c0.04-0.51,0.07-0.95,0.11-1.39c0.1-1.19,0.04-2.36-0.29-3.51c-0.34-1.18-0.78-2.32-1.4-3.39c-0.65-1.14-1.6-1.76-2.93-1.85
				c-0.45-0.03-0.67,0.04-0.85,0.46c-0.24,0.54-0.67,0.88-1.32,0.81c-0.14-0.01-0.27-0.01-0.41,0c-1.62,0.09-3.15-0.25-4.63-0.88
				c-0.14-0.06-0.32-0.08-0.48-0.07c-0.39,0.04-0.78,0.11-1.18,0.16c-1.51,0.2-2.98,0.58-4.45,0.97c-1.75,0.46-3.41,1.18-5.06,1.93
				c-0.17,0.08-0.33,0.17-0.48,0.28c-0.36,0.27-0.43,0.58-0.24,0.99c0.1,0.22,0.21,0.44,0.31,0.67c0.52,1.1,1.34,1.85,2.49,2.25
				c1.14,0.4,2.32,0.64,3.51,0.81c0.35,0.05,0.35,0.05,0.49-0.28c0.4-0.97,1-1.76,1.92-2.29c0.16-0.09,0.32-0.19,0.48-0.29
				c0.06-0.04,0.09-0.11,0.16-0.18c-1.71-0.65-3.33-1.45-5.1-1.8c0.21-0.03,0.44-0.07,0.64-0.02c0.63,0.16,1.25,0.32,1.86,0.54
				c0.93,0.34,1.85,0.72,2.77,1.09c0.14,0.06,0.25,0.06,0.39-0.01c0.3-0.16,0.6-0.31,0.91-0.45c0.64-0.3,1.26-0.31,1.78,0.24
				c0.35,0.37,0.7,0.73,0.98,1.15c0.75,1.08,1.48,2.19,2.19,3.29c0.39,0.6,0.73,1.23,1.11,1.83c0.46,0.73,0.92,1.44,1.4,2.16
				c0.63,0.96,1.26,1.91,2.04,2.76c0.58,0.64,1.12,1.32,1.62,2.02c0.49,0.67,0.91,1.39,1.17,2.18c0.32,0.99,0.68,1.96,1.09,2.91
				c0.39,0.88,0.92,1.66,1.53,2.39c0.17,0.21,0.39,0.38,0.59,0.57c0.09,0.08,0.16,0.08,0.26-0.01c0.7-0.63,1.17-1.4,1.43-2.3
				c0.23-0.79,0.44-1.59,0.68-2.38c0.42-1.38,0.86-2.75,1.28-4.13c0.2-0.65,0.4-1.31,0.53-1.98c0.22-1.15,0.38-2.31,0.57-3.47
				c0.12-0.74,0.24-1.48,0.33-2.22c0.08-0.61,0.11-1.23,0.16-1.85c0.11-1.19,0.25-2.38,0.31-3.57c0.05-0.99,0.03-1.98,0.03-2.96
				c0-0.18-0.02-0.36-0.04-0.54c-0.1-0.76-0.19-1.51-0.3-2.27c-0.08-0.6-0.15-1.2-0.28-1.79c-0.26-1.18-0.88-2.13-1.96-2.75
				c-0.89-0.51-1.81-0.43-2.74-0.16c-0.06,0.02-0.11,0.1-0.15,0.17c-0.37,0.64-0.44,1.36-0.46,2.07c-0.01,0.75,0.05,1.51,0.11,2.26
				c0.03,0.43,0.09,0.86,0.18,1.28c0.12,0.57,0.31,1.13,0.43,1.7c0.25,1.16,0.66,2.26,0.98,3.4c0.27,0.96,0.54,1.92,0.75,2.9
				c0.12,0.56,0.17,1.14,0.19,1.71c0.01,0.47-0.04,0.95-0.11,1.42c-0.09,0.57-0.56,0.93-1.14,0.92c-0.81,0-1.58-0.25-2.32-0.54
				c-0.45-0.18-0.89-0.4-1.32-0.6c-0.13,0.34-0.26,0.68-0.41,1.02c-0.19,0.43-0.46,0.8-0.87,1.04c-0.82,0.47-1.62,0.36-2.4-0.08
				c-0.9-0.5-1.34-1.31-1.52-2.3c-0.06-0.35,0.04-0.66,0.28-0.92c0.49-0.53,1.29-0.9,2.15-0.46c0.61,0.3,1.22,0.59,1.82,0.89
				C36.82,32.2,37.06,32.36,37.39,32.54z M32.64,15.34c0.07,0.41,0.09,0.78,0.19,1.13c0.23,0.8,0.35,1.62,0.35,2.45
				c0,0.85-0.24,1.66-0.49,2.47c-0.07,0.23-0.18,0.45-0.28,0.7c0.25,0.02,0.46,0.04,0.67,0.06c1.15,0.11,2.08,0.62,2.69,1.6
				c0.44,0.71,0.8,1.48,1.13,2.25c0.53,1.23,0.82,2.52,0.86,3.86c0.02,0.85,0.05,1.7-0.17,2.54c-0.04,0.16,0.01,0.26,0.16,0.32
				c0.52,0.23,1.04,0.47,1.56,0.69c0.61,0.25,1.25,0.39,1.92,0.36c0.4-0.02,0.71-0.19,0.81-0.56c0.13-0.48,0.24-0.99,0.22-1.48
				c-0.03-0.72-0.17-1.44-0.3-2.15c-0.11-0.58-0.29-1.16-0.46-1.73c-0.25-0.81-0.56-1.61-0.78-2.42c-0.31-1.14-0.57-2.29-0.83-3.44
				c-0.28-1.19-0.42-2.4-0.37-3.63c0.03-0.67,0.08-1.34,0.41-1.95c0.01-0.01-0.01-0.04-0.02-0.08c-0.08,0.02-0.16,0.04-0.23,0.06
				c-0.96,0.24-1.93,0.49-2.94,0.4c-0.8-0.07-1.59-0.18-2.33-0.52C33.81,16,33.27,15.68,32.64,15.34z M23.36,33.72
				c-0.76,0.66-0.82,2-0.19,2.75c0.27,0.33,0.56,0.64,0.82,0.98c0.19,0.25,0.32,0.53,0.49,0.79c0.21,0.3,0.57,0.4,0.9,0.25
				c0.64-0.29,1.09-0.75,1.2-1.47c0.05-0.34,0.12-0.69,0.1-1.03c-0.04-0.8,0.21-1.53,0.46-2.27c0.19-0.56,0.33-1.15,0.44-1.73
				c0.1-0.55,0.06-1.1-0.3-1.59c-0.32-0.44-0.72-0.76-1.18-1.03c-0.78-0.45-1.56-0.89-2.35-1.33c-0.14-0.08-0.29-0.17-0.46-0.04
				c-0.22,0.15-0.45,0.29-0.67,0.43c-0.84,0.53-1.47,1.22-1.78,2.18c-0.08,0.24-0.07,0.25,0.17,0.28c0.66,0.09,1.32,0.16,1.97,0.29
				c0.62,0.12,0.92,0.56,0.87,1.19c-0.02,0.19-0.07,0.38-0.1,0.57c-0.01,0.07-0.02,0.15-0.04,0.24c0.07,0,0.11,0,0.15,0
				c0.36-0.04,0.49,0.03,0.56,0.39c0.09,0.49,0.1,0.99-0.04,1.48c-0.04,0.14-0.13,0.28-0.23,0.38c-0.06,0.06-0.19,0.1-0.29,0.08
				c-0.31-0.04-0.59-0.37-0.59-0.71c0-0.25,0.04-0.5,0.06-0.75C23.35,33.93,23.35,33.82,23.36,33.72z M22.39,56.61
				c2.62-1.01,5.3-1.55,8-2.01c-1.43-2.57-2.73-5.22-4.8-7.4c-0.09,0.35-0.17,0.66-0.24,0.98c-0.26,1.09-0.59,2.17-1.05,3.2
				c-0.37,0.83-0.78,1.64-1.1,2.49c-0.27,0.71-0.44,1.46-0.66,2.19C22.49,56.22,22.45,56.39,22.39,56.61z M46.53,54.43
				c0,0,0-0.01,0-0.01c0.19-0.01,0.39-0.02,0.58-0.03c0.31-0.02,0.46-0.2,0.37-0.51c-0.04-0.14-0.1-0.29-0.2-0.41
				c-0.3-0.37-0.58-0.76-0.92-1.08c-0.9-0.86-2.03-1.36-3.16-1.83c-0.98-0.41-1.93-0.83-2.78-1.47c-0.13-0.1-0.21-0.07-0.31,0.04
				c-0.58,0.66-1.18,1.32-1.76,1.99c-0.73,0.83-1.14,1.81-1.35,2.88c-0.04,0.19,0.01,0.26,0.21,0.26c0.57-0.02,1.14-0.04,1.71-0.04
				c1.43,0.01,2.87,0.04,4.3,0.07c0.31,0.01,0.62,0.01,0.93,0.03C44.95,54.35,45.74,54.39,46.53,54.43z M21.9,57.15
				c-0.23,0.13-0.47,0.25-0.69,0.39c-0.65,0.44-1.23,0.94-1.47,1.75c-0.25,0.85-0.53,1.69-0.81,2.53c-0.11,0.32-0.18,0.64-0.17,0.99
				c0,0.6,0.28,1.06,0.73,1.4c0.45,0.34,0.91,0.63,1.54,0.42c0.51-0.16,1.03-0.29,1.47-0.59c0.16-0.11,0.32-0.28,0.4-0.46
				c0.28-0.57,0.2-1.18,0.06-1.76c-0.19-0.77-0.48-1.52-0.69-2.29c-0.13-0.46-0.22-0.94-0.3-1.41
				C21.92,57.82,21.92,57.51,21.9,57.15z M25.38,46.56c0.02,0,0.05,0,0.07-0.01c0-0.47,0-0.94,0-1.42c0.01-0.83-0.12-1.64-0.28-2.44
				c-0.21-1.03-0.65-1.96-1.47-2.65c-0.45-0.37-0.98-0.54-1.55-0.33c-0.57,0.21-0.89,0.93-0.76,1.61c0.11,0.61,0.39,1.16,0.75,1.66
				c0.79,1.09,1.74,2.04,2.67,3C24.99,46.18,25.19,46.37,25.38,46.56z M34.03,31.2c-0.27,0.08-0.53,0.12-0.76,0.23
				c-0.53,0.24-0.81,0.64-0.72,1.13c0.07,0.4,0.19,0.83,0.4,1.17c0.5,0.79,1.25,1.25,2.2,1.31c0.57,0.04,1.05-0.18,1.4-0.63
				c0.33-0.43,0.57-0.91,0.69-1.45c0.03-0.16,0.02-0.23-0.13-0.31c-0.78-0.39-1.55-0.79-2.33-1.17
				C34.54,31.35,34.28,31.29,34.03,31.2z M30.84,54.85c0.17,0.25,0.32,0.47,0.47,0.69c0.34,0.51,0.73,0.96,1.29,1.25
				c0.84,0.42,1.73,0.66,2.67,0.69c0.51,0.01,0.81-0.18,1.01-0.64c0.28-0.66,0.35-1.36,0.4-2.07c0.01-0.13-0.03-0.18-0.17-0.18
				c-0.36,0-0.72-0.02-1.08,0c-1.27,0.05-2.55,0.12-3.82,0.18C31.36,54.78,31.11,54.82,30.84,54.85z M32.66,14.99
				c0.14-0.27,0.35-0.5,0.4-0.77c0.17-0.78,0.09-1.55-0.25-2.28c-0.16-0.34-0.38-0.66-0.62-0.96c-0.32-0.39-0.77-0.35-1.04,0.07
				c-0.31,0.49-0.45,1.02-0.36,1.6C30.96,13.79,31.61,14.52,32.66,14.99z M26.06,22.64c0,0.02-0.01,0.04-0.01,0.07
				c0.1,0.05,0.2,0.1,0.31,0.13c0.34,0.11,0.68,0.23,1.03,0.3c1.11,0.23,2.23,0.36,3.37,0.31c0.61-0.02,1.04-0.38,1.22-0.96
				c0.04-0.13,0.01-0.21-0.14-0.21c-0.62,0.01-1.24-0.02-1.86,0.02c-1.23,0.08-2.45,0.2-3.68,0.3
				C26.23,22.61,26.15,22.63,26.06,22.64z M24.29,34.29C24.29,34.29,24.3,34.29,24.29,34.29c0.01-0.19,0.02-0.39,0.01-0.58
				c-0.01-0.14-0.03-0.28-0.21-0.3c-0.21-0.03-0.44,0.05-0.47,0.21c-0.07,0.41-0.12,0.82-0.14,1.23c-0.01,0.21,0.28,0.43,0.47,0.42
				c0.16-0.01,0.33-0.22,0.34-0.44C24.3,34.65,24.29,34.47,24.29,34.29z"/>
		</g>
	</g>
</g>
</svg>
