<?xml version="1.0" encoding="utf-8"?>
<!-- Generator: Adobe Illustrator 27.3.1, SVG Export Plug-In . SVG Version: 6.00 Build 0)  -->
<svg version="1.1" id="Layer_1" xmlns="http://www.w3.org/2000/svg" xmlns:xlink="http://www.w3.org/1999/xlink" x="0px" y="0px"
	 viewBox="0 0 70 108" style="enable-background:new 0 0 70 108;" xml:space="preserve">
<style type="text/css">
	.st0{fill:#EAEAEA;}
	.st1{fill:none;}
	.st2{fill:none;stroke:#000000;stroke-width:2;stroke-linecap:round;stroke-linejoin:round;stroke-miterlimit:10;}
</style>
<g>
	<g>
		<path class="st0" d="M56.16,75.84c-2.02,9.94-10.82,17.43-21.36,17.43h0c-10.39,0-20.63-7.04-21.26-16.99
			c-0.14-2.24-1.91-5.83-6.21-5.5c-4.3,0.33-4.8,5.45-4.8,5.45C4.68,92.25,18.4,104.6,35,104.6h0c16.75,0,30.57-12.57,32.52-28.8
			c0,0-0.81-4.23-5.47-4.47C57.39,71.11,56.16,75.84,56.16,75.84z"/>
		<path class="st0" d="M67.76,65.49V36.16C67.76,18.06,53.09,3.4,35,3.4h0C16.91,3.4,2.24,18.06,2.24,36.16v30.32
			c0,0,0.6,4.76,5.09,4.3s5.67-4.3,5.67-4.3V36.53c0-12.04,9.76-21.8,21.8-21.8h0c12.04,0,21.8,9.76,21.8,21.8v29.06
			c0,0,0.15,5.7,5.46,5.75C67.36,71.39,67.76,65.49,67.76,65.49z"/>
	</g>
	<g>
		<path class="st1" d="M2.24,66.48"/>
		<path class="st2" d="M67.52,75.81C65.57,92.03,51.75,104.6,35,104.6h0c-16.6,0-30.32-12.35-32.47-28.37c0,0,0.5-5.12,4.8-5.45
			c4.3-0.33,6.06,3.26,6.21,5.5c0.63,9.95,10.88,16.99,21.26,16.99h0c10.54,0,19.33-7.48,21.36-17.43c0,0,1.23-4.73,5.89-4.49
			S67.52,75.81,67.52,75.81z"/>
		<path class="st2" d="M67.76,65.49V36.16C67.76,18.06,53.09,3.4,35,3.4h0C16.91,3.4,2.24,18.06,2.24,36.16v30.32
			c0,0,0.6,4.76,5.09,4.3c4.5-0.46,5.67-4.3,5.67-4.3V36.53c0-12.04,9.76-21.8,21.8-21.8h0c12.04,0,21.8,9.76,21.8,21.8v29.06
			c0,0,0.15,5.7,5.46,5.75C67.36,71.39,67.76,65.49,67.76,65.49z"/>
	</g>
</g>
</svg>
