<?xml version="1.0" encoding="utf-8"?>
<!-- Generator: Adobe Illustrator 27.3.1, SVG Export Plug-In . SVG Version: 6.00 Build 0)  -->
<svg version="1.1" id="Layer_1" xmlns="http://www.w3.org/2000/svg" xmlns:xlink="http://www.w3.org/1999/xlink" x="0px" y="0px"
	 viewBox="0 0 746 600" style="enable-background:new 0 0 746 600;" xml:space="preserve">
<style type="text/css">
	.st0{fill:none;stroke:#000000;stroke-width:2;stroke-linecap:round;stroke-linejoin:round;stroke-miterlimit:10;}
	.st1{fill:none;stroke:#000000;stroke-width:2;stroke-linecap:round;stroke-miterlimit:10;}
</style>
<g>
	<g>
		<path class="st0" d="M4.49,493.21c0,11.08,8.99,20.07,20.07,20.07h696.87c11.08,0,20.07-8.99,20.07-20.07v-48.3H4.49V493.21z"/>
		<path class="st0" d="M721.43,4.14H24.57c-11.08,0-20.07,8.99-20.07,20.07v420.7h737.01V24.21
			C741.51,13.13,732.52,4.14,721.43,4.14z"/>
		<rect x="32.89" y="33.94" class="st0" width="680.22" height="381.18"/>
	</g>
	<g>
		<path class="st1" d="M360.6,476.78c0.19-2.72,0.78-5.25,2.75-7.24c2.37-2.39,5.22-3.35,8.42-1.93c1.97,0.87,3.69,0.71,5.58-0.13
			c2.91-1.3,6.75-0.42,8.76,1.86c0.85,0.96,0.7,1-0.09,1.63c-3.98,3.17-3.55,8.91,0.86,11.53c0.67,0.4,0.79,0.74,0.5,1.45
			c-1,2.49-2.36,4.74-4.28,6.62c-1.34,1.31-2.94,1.44-4.66,0.92c-1.1-0.33-2.18-0.76-3.3-0.96c-1.38-0.24-2.62,0.44-3.86,0.93
			c-1.86,0.74-3.45,0.37-4.83-1.04c-2.49-2.54-4.17-5.54-5.02-8.97C361.04,479.92,360.87,478.34,360.6,476.78z"/>
		<path class="st1" d="M380.87,457.3c-0.21,3.21-2.47,5.82-5.65,6.52c-1.03,0.23-1.4-0.13-1.24-1.19c0.49-3.19,2.29-5.29,5.36-6.33
			c0.07-0.02,0.13-0.05,0.2-0.06C380.73,455.92,380.95,456.1,380.87,457.3z"/>
	</g>
	<g>
		<path class="st1" d="M302.25,513.28c0,0,1.74,68.68-8.69,70.42c-10.43,1.74-30.84,8.69-30.84,9.99s114.69,2.17,114.69,2.17"/>
		<path class="st1" d="M448.16,513.28c0,0-1.74,68.68,8.69,70.42s30.84,8.69,30.84,9.99S373,595.86,373,595.86"/>
	</g>
</g>
</svg>
