<?xml version="1.0" encoding="utf-8"?>
<!-- Generator: Adobe Illustrator 27.3.1, SVG Export Plug-In . SVG Version: 6.00 Build 0)  -->
<svg version="1.1" id="Layer_1" xmlns="http://www.w3.org/2000/svg" xmlns:xlink="http://www.w3.org/1999/xlink" x="0px" y="0px"
	 viewBox="0 0 270 250" style="enable-background:new 0 0 270 250;" xml:space="preserve">
<style type="text/css">
	.st0{fill:#FECA36;}
	.st1{fill:#EAEAEA;}
	.st2{fill:none;stroke:#000000;stroke-width:2;stroke-linecap:round;stroke-miterlimit:10;}
	.st3{fill:none;stroke:#000000;stroke-linecap:round;stroke-miterlimit:10;}
</style>
<path class="st0" d="M267.78,206.08l-5.43-10.96l1.51-97.28h4.01V74.87l-3.74-10.69v-9.09l-5.34-6.68h-55.59h-4.36
	c0,0-2.36-19.78-5.08-20.49c-1.03-0.27-7.61-0.98-16.18-1.72l0,0l-8.37-1.26l-0.14-21.16c0,0-0.1-0.01-0.3-0.04V46l-32.82-0.28
	L103.12,46V25.41c-12.9,0.98-24.45,2.15-25.85,2.51c-2.61,0.68-4.89,18.92-5.07,20.38l-0.07,0.1H18.53l-9.62,4.81v12.03l-6.38,9.62
	v22.98h6.91L9.17,198.87l-6.64,8.02v6.89h6.2l11.4-16.42l61.85,0.33c0,0,13.48,0.74,39.41,0.6c0.14,0.98,0.44,3.58-0.06,4.86
	c-0.62,1.6,0.45,3.21,2.14,3.3c1.69,0.09,3.92-0.09,4.1-1.96c0.18-1.87-0.45-3.65-0.45-5.17c0-0.45-0.01-0.8-0.02-1.08
	c2.29-0.02,4.66-0.05,7.11-0.09c0.29,0.69,0.59,1.78,0.39,3.13c-0.36,2.32-0.8,4.99,3.12,4.99s3.3-2.94,3.03-4.28
	c-0.24-1.21-1.73-1.77-1.13-3.93c2.43-0.05,4.93-0.1,7.5-0.16c0.26,1.11,0.77,3.64,0.22,4.8c-0.71,1.51-1.02,3.21,2.03,3.47
	c3.05,0.27,4.3-0.89,3.85-2.94c-0.45-2.05-0.98-3.03-0.62-4.9c0.04-0.22,0.08-0.41,0.11-0.58c10.32-0.28,21.72-0.7,34.18-1.29h68.42
	l5.35,16.03l7.57,0.09L267.78,206.08z"/>
<path class="st1" d="M135.48,45.72L167.77,46V3.74c-2.79-0.35-24.95-3.03-31.72-1.03c-7.23-2.14-32.01,1.07-32.01,1.07l-0.14,21.5
	l-0.26,0.1c-0.14,0.01-0.29,0.02-0.43,0.03V46L135.48,45.72z"/>
<g>
	<g>
		<polyline class="st2" points="251.38,75.27 258.99,75.27 259.75,67.47 		"/>
		<line class="st2" x1="255.12" y1="196.46" x2="255.12" y2="97.85"/>
		<path class="st2" d="M135.76,23.99"/>
		<path class="st2" d="M134.89,23.99"/>
		<g>
			<polygon class="st2" points="2.34,74.87 2.34,97.85 267.68,97.85 267.68,74.87 263.94,64.18 263.94,55.09 258.59,48.41 
				203.01,48.41 18.34,48.41 8.72,53.22 8.72,65.25 			"/>
			<polyline class="st2" points="81.79,197.68 19.94,197.35 8.54,213.77 2.34,213.77 2.34,206.89 8.99,198.87 9.25,97.85 
				9.25,141.41 			"/>
			<line class="st2" x1="93.22" y1="197.74" x2="89.34" y2="197.72"/>
			<path class="st2" d="M173.26,196.46h-20.49c0,0,0,0-0.36,1.87c-0.36,1.87,0.18,2.85,0.62,4.9c0.45,2.05-0.8,3.21-3.85,2.94
				c-3.05-0.27-2.74-1.96-2.03-3.47c0.71-1.51-0.36-5.34-0.36-5.34h-7.13c-1.16,2.76,0.62,3.3,0.89,4.63
				c0.27,1.34,0.89,4.28-3.03,4.28s-3.47-2.67-3.12-4.99c0.36-2.32-0.8-3.92-0.8-3.92h-6.77c0,0,0.09,0.45,0.09,1.96
				s0.62,3.3,0.45,5.17c-0.18,1.87-2.41,2.05-4.1,1.96c-1.69-0.09-2.76-1.69-2.14-3.3c0.62-1.6,0-5.26,0-5.26l-20.51-0.11"/>
			<path class="st2" d="M179.17,196.46"/>
			<polyline class="st2" points="263.67,97.85 262.16,195.13 267.59,206.08 268.04,212.59 260.46,212.5 255.12,196.46 186.7,196.46 
							"/>
			<line class="st2" x1="8.72" y1="62.63" x2="263.94" y2="63.4"/>
			<line class="st2" x1="8.72" y1="53.22" x2="263.94" y2="55.09"/>
			<polyline class="st2" points="8.18,97.14 8.18,75.31 13.26,66.31 259.75,67.47 262.6,74.78 262.6,97.85 			"/>
			<line class="st2" x1="8.18" y1="84.49" x2="262.6" y2="84.49"/>
			<polyline class="st2" points="20.88,84.49 20.88,79.68 26.09,75.27 251.38,75.27 255.32,80.21 255.32,84.09 			"/>
			<polyline class="st2" points="26.09,75.27 14.6,75.27 13.26,66.31 			"/>
			<polyline class="st2" points="258.99,75.27 261.93,79.86 255.32,79.68 20.88,79.68 9.59,79.86 14.6,75.27 			"/>
			<line class="st2" x1="19.94" y1="197.35" x2="19.94" y2="97.85"/>
			<line class="st2" x1="20.88" y1="105.06" x2="255.12" y2="105.06"/>
			<g>
				<polyline class="st3" points="28.63,76.99 26.12,79.68 26.09,84.31 				"/>
				<polyline class="st3" points="33.93,75.49 29.93,79.68 29.9,84.31 				"/>
				<polyline class="st3" points="45.68,75.49 41.68,79.68 41.65,84.31 				"/>
				<polyline class="st3" points="61.31,75.49 57.31,79.68 57.27,84.31 				"/>
				<polygon points="28.46,75.67 26.64,77.55 29.35,77.55 31.17,75.67 				"/>
				<g>
					<polyline class="st3" points="36.25,76.99 33.74,79.68 33.71,84.31 					"/>
					<polygon points="36.08,75.67 34.26,77.55 36.96,77.55 38.78,75.67 					"/>
				</g>
				<g>
					<polyline class="st3" points="40.32,76.99 37.81,79.68 37.78,84.31 					"/>
					<polygon points="40.15,75.67 38.33,77.55 41.04,77.55 42.86,75.67 					"/>
				</g>
				<g>
					<polyline class="st3" points="48.02,76.99 45.51,79.68 45.48,84.31 					"/>
					<polygon points="47.85,75.67 46.03,77.55 48.74,77.55 50.56,75.67 					"/>
				</g>
				<g>
					<polyline class="st3" points="52.1,76.99 49.59,79.68 49.56,84.31 					"/>
					<polygon points="51.93,75.67 50.11,77.55 52.82,77.55 54.64,75.67 					"/>
				</g>
				<g>
					<polyline class="st3" points="56.17,76.99 53.67,79.68 53.63,84.31 					"/>
					<polygon points="56.01,75.67 54.19,77.55 56.89,77.55 58.71,75.67 					"/>
				</g>
				<polyline class="st3" points="65.34,75.49 61.34,79.68 61.31,84.31 				"/>
				<polyline class="st3" points="77.09,75.49 73.09,79.68 73.05,84.31 				"/>
				<polyline class="st3" points="92.72,75.49 88.72,79.68 88.68,84.31 				"/>
				<g>
					<polyline class="st3" points="67.65,76.99 65.15,79.68 65.12,84.31 					"/>
					<polygon points="67.49,75.67 65.67,77.55 68.37,77.55 70.19,75.67 					"/>
				</g>
				<g>
					<polyline class="st3" points="71.73,76.99 69.22,79.68 69.19,84.31 					"/>
					<polygon points="71.56,75.67 69.74,77.55 72.45,77.55 74.27,75.67 					"/>
				</g>
				<g>
					<polyline class="st3" points="79.43,76.99 76.92,79.68 76.89,84.31 					"/>
					<polygon points="79.26,75.67 77.44,77.55 80.15,77.55 81.97,75.67 					"/>
				</g>
				<g>
					<polyline class="st3" points="83.51,76.99 81,79.68 80.97,84.31 					"/>
					<polygon points="83.34,75.67 81.52,77.55 84.22,77.55 86.04,75.67 					"/>
				</g>
				<g>
					<polyline class="st3" points="87.58,76.99 85.07,79.68 85.04,84.31 					"/>
					<polygon points="87.41,75.67 85.59,77.55 88.3,77.55 90.12,75.67 					"/>
				</g>
				<polyline class="st3" points="219.42,75.3 223.42,79.49 223.45,84.12 				"/>
				<polyline class="st3" points="207.67,75.3 211.67,79.49 211.7,84.12 				"/>
				<polyline class="st3" points="192.04,75.3 196.04,79.49 196.07,84.12 				"/>
				<g>
					<polyline class="st3" points="217.1,76.8 219.61,79.49 219.64,84.12 					"/>
					<polygon points="217.27,75.48 219.09,77.37 216.38,77.37 214.56,75.48 					"/>
				</g>
				<g>
					<polyline class="st3" points="213.03,76.8 215.53,79.49 215.56,84.12 					"/>
					<polygon points="213.19,75.48 215.01,77.37 212.31,77.37 210.49,75.48 					"/>
				</g>
				<g>
					<polyline class="st3" points="205.32,76.8 207.83,79.49 207.86,84.12 					"/>
					<polygon points="205.49,75.48 207.31,77.37 204.61,77.37 202.79,75.48 					"/>
				</g>
				<g>
					<polyline class="st3" points="201.25,76.8 203.76,79.49 203.79,84.12 					"/>
					<polygon points="201.42,75.48 203.24,77.37 200.53,77.37 198.71,75.48 					"/>
				</g>
				<g>
					<polyline class="st3" points="197.17,76.8 199.68,79.49 199.71,84.12 					"/>
					<polygon points="197.34,75.48 199.16,77.37 196.45,77.37 194.63,75.48 					"/>
				</g>
				<polyline class="st3" points="188.01,75.3 192.01,79.49 192.04,84.12 				"/>
				<polyline class="st3" points="177.11,75.27 180.26,79.49 180.29,84.12 				"/>
				<polyline class="st3" points="161.78,75.27 163.99,79.68 164.06,84.16 				"/>
				<g>
					<polyline class="st3" points="185.69,76.8 188.2,79.49 188.23,84.12 					"/>
					<polygon points="185.86,75.48 187.68,77.37 184.97,77.37 183.15,75.48 					"/>
				</g>
				<g>
					<polyline class="st3" points="181.62,76.8 184.12,79.49 184.16,84.12 					"/>
					<polygon points="181.78,75.48 183.6,77.37 180.9,77.37 179.08,75.48 					"/>
				</g>
				<g>
					<polyline class="st3" points="166.76,77.03 168.13,79.61 168.13,84.4 					"/>
					<polygon points="166.51,75.64 167.88,77.53 165.62,77.53 164.35,75.64 					"/>
				</g>
				<g>
					<polyline class="st3" points="170.88,77.03 172.25,79.61 172.25,84.4 					"/>
					<polygon points="170.63,75.64 171.99,77.53 169.74,77.53 168.46,75.64 					"/>
				</g>
				<g>
					<polyline class="st3" points="174.99,77.03 176.36,79.61 176.36,84.4 					"/>
					<polygon points="174.74,75.64 176.11,77.53 173.85,77.53 172.57,75.64 					"/>
				</g>
				<polyline class="st3" points="97.12,75.49 93.12,79.68 93.08,84.31 				"/>
				<polyline class="st3" points="108.86,75.49 105.63,79.68 105.6,84.31 				"/>
				<polyline class="st3" points="123.68,75.27 121.5,79.9 121.36,84.49 				"/>
				<g>
					<polyline class="st3" points="99.43,76.99 96.92,79.68 96.89,84.31 					"/>
					<polygon points="99.26,75.67 97.44,77.55 100.15,77.55 101.97,75.67 					"/>
				</g>
				<g>
					<polyline class="st3" points="103.51,76.99 101,79.68 100.97,84.31 					"/>
					<polygon points="103.34,75.67 101.52,77.55 104.23,77.55 106.05,75.67 					"/>
				</g>
				<g>
					<polyline class="st3" points="111.21,76.99 109.69,79.77 109.66,84.4 					"/>
					<polygon points="110.63,75.67 109.49,77.55 112.14,77.55 113.3,75.67 					"/>
				</g>
				<g>
					<polyline class="st3" points="115.28,76.99 113.76,79.77 113.73,84.4 					"/>
					<polygon points="114.88,75.67 113.73,77.55 116,77.55 117.02,75.67 					"/>
				</g>
				<g>
					<polyline class="st3" points="127.54,75.51 126.06,79.9 126.06,84.4 					"/>
					<polygon points="126.46,75.67 125.64,77.55 128.27,77.55 128.91,75.67 					"/>
					<polygon points="130.42,75.67 129.81,77.55 132.09,77.55 132.54,75.67 					"/>
				</g>
				<g>
					<polyline class="st3" points="131.41,75.27 130.14,79.9 130.14,84.4 					"/>
				</g>
				<g>
					<polyline class="st3" points="158.18,75.51 159.66,79.9 159.66,84.4 					"/>
					<polygon points="159.52,75.64 160.35,77.53 157.72,77.53 157.07,75.64 					"/>
					<polygon points="155.7,75.67 156.31,77.55 154.04,77.55 153.58,75.67 					"/>
				</g>
				<g>
					<polyline class="st3" points="154.95,75.27 155.58,79.9 155.58,84.4 					"/>
				</g>
				<polyline class="st3" points="135.76,75.27 134.39,79.9 134.26,84.49 				"/>
				<polyline class="st3" points="150.9,75.51 151.04,80.65 150.92,84.66 				"/>
				<g>
					<polyline class="st3" points="139.7,75.51 138.96,79.9 138.96,84.4 					"/>
					<polygon points="138.63,75.4 138.12,77.77 140.53,77.77 140.74,75.51 					"/>
					<polygon points="142.55,75.4 142.04,77.77 144.46,77.77 144.66,75.51 					"/>
					<polygon points="146.43,75.4 145.91,77.77 148.33,77.77 148.53,75.51 					"/>
				</g>
				<g>
					<polyline class="st3" points="143.67,75.27 143.03,79.9 143.03,84.4 					"/>
				</g>
				<g>
					<polyline class="st3" points="147.22,75.27 147.22,79.66 147.22,84.16 					"/>
				</g>
				<g>
					<polyline class="st3" points="119.36,76.99 117.84,79.77 117.81,84.4 					"/>
					<polygon points="118.87,75.67 117.64,77.55 120.34,77.56 121.47,75.67 					"/>
				</g>
				<polyline class="st3" points="235.77,75.26 239,79.44 239.03,84.08 				"/>
				<polyline class="st3" points="248.1,75.51 250.91,79.9 251.04,84.49 				"/>
				<g>
					<polyline class="st3" points="233.42,76.75 234.94,79.53 234.97,84.16 					"/>
					<polygon points="234,75.43 235.14,77.32 232.49,77.32 231.33,75.43 					"/>
				</g>
				<g>
					<polyline class="st3" points="229.35,76.75 230.87,79.53 230.9,84.16 					"/>
					<polygon points="229.75,75.43 230.9,77.32 228.63,77.32 227.61,75.43 					"/>
				</g>
				<g>
					<polyline class="st3" points="244.87,75.51 246.35,79.9 246.35,84.4 					"/>
					<polygon points="241.64,75.67 242.59,77.55 240.32,77.55 239.44,75.67 					"/>
					<polygon points="245.6,75.67 246.56,77.55 244.29,77.55 243.41,75.67 					"/>
				</g>
				<g>
					<polyline class="st3" points="241,75.27 242.27,79.9 242.27,84.4 					"/>
				</g>
				<g>
					<polyline class="st3" points="225.27,76.75 226.79,79.53 226.82,84.16 					"/>
					<polygon points="225.76,75.43 226.99,77.32 224.29,77.33 223.15,75.43 					"/>
				</g>
			</g>
			<path class="st2" d="M103.51,46l0.28-42.22c0,0,25.2-3.21,32.55-1.07V46C136.33,46,121.6,44.67,103.51,46z"/>
			<path class="st2" d="M169.15,46l-0.28-42.22c0,0-25.2-3.21-32.55-1.07v43.01C136.33,45.72,151.06,44.67,169.15,46z"/>
			<path class="st2" d="M72.01,48.41c0,0,2.36-19.78,5.08-20.49c1.42-0.37,13.29-1.57,26.42-2.55"/>
			<path class="st2" d="M198.64,48.41c0,0-2.36-19.78-5.08-20.49c-1.35-0.35-12.18-1.46-24.54-2.41"/>
		</g>
	</g>
	<path class="st2" d="M121.14,197.89c0,0,2.82-3.21,5.7-0.53"/>
	<path class="st2" d="M133.61,197.35c0,0,3.52-3.25,6.06,0"/>
	<path class="st2" d="M146.48,197.09c0,0,2.41-2.45,6.28-0.63"/>
</g>
<g>
	<path class="st1" d="M176.01,134.39c-5.2-1.42-72.15-0.14-74.67,0.02c-2.52,0.16-5.83,2.52-5.83,2.52s-21.74,18.75-17.96,21.9
		c0,0-0.83,3.19,0.95,3.43c0.23,0.03,2.26,0.05,5.6,0.06v0.01h-3.08l3.62,85.98h5.67l-0.99-76.91h3.51h79.99l2.08,43.83h5.48
		l0.82,31.19h5.2l0.67-84.75c1.65-0.47,4.02-1.06,2.95-2.84C195.92,158.62,181.21,135.81,176.01,134.39z M184.2,161.9v-0.11
		c0.98-0.02,1.74-0.05,2.23-0.07L184.2,161.9z"/>
	<polygon class="st1" points="99.61,218.06 101.03,215.23 101.03,171.91 92.84,171.4 95.04,218.06 	"/>
</g>
<g>
	<path class="st2" d="M94.87,136.93c0,0-21.74,18.75-17.96,21.9c3.78,3.15,108.07,0.16,112.48,0c5.88-0.21-8.82-23.02-14.02-24.44
		c-5.2-1.42-72.15-0.14-74.67,0.02C98.18,134.57,94.87,136.93,94.87,136.93z"/>
	<path class="st2" d="M76.91,158.83c0,0-0.83,3.19,0.95,3.43c1.77,0.24,106.93-0.12,108.58-0.59c1.65-0.47,4.02-1.06,2.95-2.84"/>
	<polyline class="st2" points="88.57,162.33 89.67,248.31 84,248.31 80.38,162.33 	"/>
	<path class="st2" d="M88.68,171.31c4.77,0.44,89.68-0.82,89.68-0.82"/>
	<polyline class="st2" points="178.36,162.33 180.57,246.42 185.77,246.42 186.44,161.67 	"/>
	<polyline class="st2" points="172.53,171.4 174.27,215.23 179.75,215.23 	"/>
	<polyline class="st2" points="92.19,171.4 94.4,218.06 98.96,218.06 100.38,215.23 100.38,171.91 	"/>
	<path class="st2" d="M98.96,218.06"/>
	<path class="st2" d="M98.65,171.4"/>
</g>
</svg>
