<?xml version="1.0" encoding="utf-8"?>
<!-- Generator: Adobe Illustrator 27.3.1, SVG Export Plug-In . SVG Version: 6.00 Build 0)  -->
<svg version="1.1" id="Layer_1" xmlns="http://www.w3.org/2000/svg" xmlns:xlink="http://www.w3.org/1999/xlink" x="0px" y="0px"
	 viewBox="0 0 70 60" style="enable-background:new 0 0 70 60;" xml:space="preserve">
<style type="text/css">
	.st0{fill:#EAEAEA;}
	.st1{fill:none;stroke:#000000;stroke-linecap:round;stroke-miterlimit:10;}
	.st2{fill:none;stroke:#000000;stroke-width:2;stroke-linecap:round;stroke-miterlimit:10;}
	.st3{stroke:#000000;stroke-width:1;stroke-linecap:round;stroke-miterlimit:10.0004;}
	.st4{stroke:#000000;stroke-linecap:round;stroke-miterlimit:10;}
	.st5{fill:#FFFFFF;}
</style>
<path class="st0" d="M68.09,37.97c-0.67-1.66-6.01-2.23-6.01-2.23l0,0c0.4-2.66-1.13-6.28-1.13-6.28l0,0l0,0
	c4.47-4.01,0.1-8.51,0.26-8.24c0,0-0.39-0.96-2.05-3.97c-1.77-3.22-7.41-3.98-7.31-3.99c0,0-0.99-5.12-1.29-5.75
	s-2.92-6.69-5.26-5.55c-2.34,1.14-0.21,8.86,0.22,9.88s1.29,1.82,1.38,2.46c0.09,0.65-0.37,1.12-1.23,1.33s-0.95-0.04-1.72-1.07
	c-0.75-1.02-9.24-9.77-10.42-5.1c-1.19,4.66,7.48,9.87,7.85,10.39s0.39,1.61,0.39,1.61s-0.01,0.92,0.15,2.18l-0.08-0.03
	c-6.8-3.88-24.61-2.4-30.55,6.82c-1.49,2.31-2.14,4.31-2.26,6.05v-1.67c0,0-0.46-2.4-3.88-2.16c-3.41,0.24-2.94,3.91-1.87,4.77
	c1.06,0.86,4.64,1.28,5.73-0.2c0.15,6.62,8.43,8.98,7.39,8.98c-1.51,0-3.89,0.58-4.01,1.52c-0.18,1.35,0.27,1.18,6.12,6.38
	c5.86,5.2,8.68,4.87,9.54,4.66s0.96-2.47-0.63-5.09c-1.59-2.63-3.2-2.76-1.28-2.91c0.64-0.05,1.52-0.46,2.42-0.99l-0.25,5.79
	c0,0,2.04,2.89,2.81-0.38c0.75-3.22-2.79-5.46-2.56-5.41c1.83-1.08,3.72-2.64,3.72-2.64c8.38,3.01,21.5-0.43,22.44-0.71
	c0.93-0.29,8.21,3.22,9.66,2.05c1.45-1.17,1.3-1.64,0.33-2.57c-1.37-1.31-6.11-4.11-6.11-4.11s1.39-0.54,2.58-3.22l-0.21,0.65
	c0,0,5.05,1.16,6.07,0.83C68.05,39.71,68.76,39.63,68.09,37.97z"/>
<path class="st1" d="M60.94,20.57c0.05,0.12,0.13,0.22,0.21,0.31c0.66,0.73,3.53,4.62-0.39,8.12c-6.02,5.39-14.75,2.65-17.15-0.48
	c-2.12-2.78-2.04-7.54-2.04-7.54s-0.02-1.09-0.39-1.61s-9.04-5.72-7.85-10.39c1.19-4.66,9.67,4.08,10.44,5.11
	c0.76,1.03,0.86,1.28,1.72,1.07s1.32-0.68,1.23-1.33s-0.95-1.44-1.38-2.46s-2.56-8.74-0.22-9.88s4.96,4.93,5.26,5.55
	c0.3,0.63,1.29,5.75,1.29,5.75c-0.11,0.01,5.53,0.77,7.31,3.99C60.22,19.04,60.75,20.15,60.94,20.57z"/>
<path class="st1" d="M60.76,29c0,0,1.73,4.09,1.03,6.77c-1.24,4.73-3.38,5.55-3.38,5.55s4.74,2.79,6.09,4.09
	c0.97,0.93,1.12,1.4-0.33,2.57c-1.45,1.17-8.73-2.34-9.66-2.05s-14.05,3.73-22.44,0.71c0,0-4.22,3.49-6.14,3.63
	c-1.93,0.14-0.31,0.28,1.28,2.91s1.5,4.89,0.63,5.09c-0.86,0.21-3.68,0.54-9.54-4.66s-6.3-5.03-6.12-6.38
	c0.12-0.93,2.5-1.51,4.01-1.52c1.34,0-12.76-3.9-5.11-15.78c5.94-9.22,23.75-10.69,30.55-6.82"/>
<path class="st1" d="M8.82,34.34c0,0-0.46-2.4-3.88-2.16C1.53,32.42,2,36.09,3.07,36.95c1.06,0.86,4.68,1.29,5.75-0.22"/>
<path class="st1" d="M28.1,55.08c0,0,2.04,2.89,2.81-0.38c0.75-3.22-2.79-5.47-2.56-5.41"/>
<path class="st1" d="M61.89,35.28c0,0,5.34,0.56,6.01,2.23c0.67,1.66-0.04,1.74-1.05,2.08c-1.01,0.33-6.07-0.83-6.07-0.83"/>
<path class="st1" d="M48.21,20.45"/>
<path class="st2" d="M57.83,17.05"/>
<path class="st1" d="M56.85,25.28c0.08,0.05,1.01,0.35,1.68,0.05c0.29-0.13,0.51-0.92,0.47-1.18"/>
<line class="st1" x1="58.52" y1="25.33" x2="59.24" y2="26.8"/>
<path class="st1" d="M58.28,27.92c0,0,0.97-0.22,0.98-1.04"/>
<path class="st1" d="M60.49,26.75c0,0-0.44,0.51-1.08,0.12"/>
<ellipse transform="matrix(0.1547 -0.988 0.988 0.1547 19.8678 68.4619)" class="st3" cx="49.94" cy="22.62" rx="1.28" ry="1.46"/>
<path class="st4" d="M58.89,19.55c-0.09,0.58-0.51,0.77-1.17,0.66c-0.66-0.1-0.99-0.7-0.9-1.28s0.38-0.72,1.04-0.62
	C58.52,18.41,58.98,18.97,58.89,19.55z"/>
<path class="st1" d="M47.62,22.78c0,0,0.5-1.16,1.96-1.42"/>
<path class="st1" d="M56.94,18.57c0,0,0.37-0.66,1.35-0.78"/>
<circle class="st5" cx="49.94" cy="22.63" r="0.4"/>
<circle class="st5" cx="57.94" cy="19.17" r="0.27"/>
</svg>
