<?xml version="1.0" encoding="utf-8"?>
<!-- Generator: Adobe Illustrator 27.3.1, SVG Export Plug-In . SVG Version: 6.00 Build 0)  -->
<svg version="1.1" id="Layer_1" xmlns="http://www.w3.org/2000/svg" xmlns:xlink="http://www.w3.org/1999/xlink" x="0px" y="0px"
	 viewBox="0 0 405 166" style="enable-background:new 0 0 405 166;" xml:space="preserve">
<style type="text/css">
	.st0{fill:#EAEAEA;}
	.st1{fill:none;stroke:#231815;stroke-width:2;stroke-linecap:round;stroke-miterlimit:10;}
	.st2{fill:none;stroke:#000000;stroke-width:2;stroke-linecap:round;stroke-miterlimit:10;}
</style>
<path class="st0" d="M396.02,95.14L396.02,95.14c-0.63-2.88-1.34-5.34-2.11-7.21c-5.98-14.41-27.18-22.45-31.81-23.5
	c-4.62-1.05-71.49-1.29-80.46,0c-8.97,1.29-11.66,9.69-11.66,9.69s-0.57-22.7-1.93-42.04c-1.36-19.33-22.83-23.55-38.33-25.56
	C214.22,4.5,119.62,3.83,95.16,8.52C73.32,12.71,70.79,34.2,70.5,38.77h-0.61c-2.24-3.24-6.03-6.38-17.41-6.69
	c-15.43-0.42-33.12,9.55-42.2,21.22c-1.01,1.19-1.47,2.01-1.47,2.01C0.28,67.82,5,156.94,7.53,158.95s36.43,2.68,55.82,0
	c10.87,3.13,214.57,1.79,214.57,1.79s122.51,0.56,123.05-4.13C401.45,152.52,400.27,114.44,396.02,95.14z"/>
<g>
	<path class="st1" d="M62.29,159.53c0,0-5.48-71.57,20.45-73.37s151.2-1.8,169.46,0c18.26,1.8,24.83,10.35,26.3,26.11
		c1.46,15.75,0,49.06,0,49.06S73.25,162.68,62.29,159.53z"/>
	<path class="st2" d="M73.05,82.08c0,0,1.29-35.53-1.63-39.58c-2.92-4.05-3.65-10.35-20.09-10.8S15.91,42.5,7.32,55.1
		s-3.83,102.4-1.28,104.43c2.56,2.03,36.7,2.7,56.24,0"/>
	<path class="st2" d="M69.45,39.31c0,0,0.23-26.63,24.89-31.36S214.31,3.9,229.92,5.93s37.25,6.28,38.62,25.76
		s1.94,42.36,1.94,42.36s2.71-8.46,11.75-9.76c9.04-1.3,76.42-1.06,81.08,0c4.66,1.06,26.02,9.16,32.05,23.68s7.67,64.48,7.12,69.21
		c-0.55,4.73-123.99,4.16-123.99,4.16"/>
	<path class="st2" d="M7.32,55.1c0,0,8.4-15.08,33.05-10.02s23.83,20.84,23.83,30s-1.37,47.98-1.37,47.98s3.29-40.51,17.8-50.3
		s72.86-8.1,87.65-8.44c14.79-0.34,81.63,1.01,91.76,5.4s18.87,28.43,17.93,38.52c0,0,5.08-20.18,20.15-23.44s75.33-3.15,86.28,0
		c10.96,3.15,13.08,10.42,13.08,10.42"/>
</g>
</svg>
