<?xml version="1.0" encoding="utf-8"?>
<!-- Generator: Adobe Illustrator 27.3.1, SVG Export Plug-In . SVG Version: 6.00 Build 0)  -->
<svg version="1.1" id="Layer_1" xmlns="http://www.w3.org/2000/svg" xmlns:xlink="http://www.w3.org/1999/xlink" x="0px" y="0px"
	 viewBox="0 0 78 280" style="enable-background:new 0 0 78 280;" xml:space="preserve">
<style type="text/css">
	.st0{fill:none;stroke:#000000;stroke-width:2;stroke-linecap:round;stroke-miterlimit:10;}
	.st1{fill:none;stroke:#000000;stroke-width:2;stroke-linecap:round;stroke-linejoin:round;stroke-miterlimit:10;}
	.st2{fill:none;}
	.st3{fill:#EAEAEA;}
	.st4{fill:#FECA36;stroke:#000000;stroke-width:2;stroke-linecap:round;stroke-miterlimit:10;}
</style>
<path class="st0" d="M16.14,145.9"/>
<path class="st0" d="M22.33,145.9"/>
<path class="st1" d="M-3.27,161.66"/>
<path class="st2" d="M61.3,250.33c0,0,0.01-0.01,0.01-0.01l-0.01,0C61.3,250.32,61.3,250.33,61.3,250.33z"/>
<polygon class="st2" points="14.99,250.18 14.96,250.18 14.99,250.19 "/>
<polygon class="st2" points="38.15,254.79 38.16,254.79 38.15,254.79 "/>
<path class="st3" d="M44.28,245.3c-1.68-0.12-2.79-0.16-2.79-0.16l0.24,0.05c-0.2-0.01-0.4-0.01-0.6-0.02V76.92
	c-1.78-0.07-3.6-0.17-5.47-0.31c-0.21-0.02-0.41-0.03-0.62-0.05v168.63c-0.19,0-0.38,0.01-0.57,0.02l0.26-0.06
	c-14.16,0.27-18.18,2.43-19.32,3.55c-0.01,0.01-0.03,0.03-0.04,0.04c-0.37,0.38-0.4,0.63-0.4,0.63l0.03-0.01c0,0,0,0.01,0,0.01
	l-0.03,0c0,0-0.05,1.66-0.06,1.83c0,0,0,0,0,0c-0.14,2.4-0.4,8.6,0.72,9.16c1.42,0.7,16.19,3.54,23.31,3.55
	c11.31,0.01,21.28-3,22.37-4.01V249.5c0,0,0,0.01-0.01,0.01c0,0,0-0.01,0-0.01l0.01,0c0-0.01-0.01-0.01-0.01-0.02
	C61.11,247.48,53.97,245.8,44.28,245.3z M38.15,253.97C38.15,253.97,38.15,253.97,38.15,253.97
	C38.15,253.97,38.15,253.97,38.15,253.97C38.16,253.97,38.15,253.97,38.15,253.97z"/>
<g>
	<line class="st0" x1="41.85" y1="77.79" x2="41.14" y2="249.25"/>
	<line class="st0" x1="35.04" y1="249.25" x2="35.66" y2="77.42"/>
</g>
<g>
	<path class="st0" d="M61.31,250.46v10.38c-1.08,1.01-11.06,4.03-22.37,4.01c-7.12-0.01-21.89-2.85-23.31-3.55
		c-1.4-0.69-0.66-10.09-0.66-10.09s12.41,3.72,23.19,3.72S61.31,251.16,61.31,250.46z"/>
	<path class="st0" d="M41.49,246.1c0,0,18.72,0.71,19.81,4.36"/>
	<path class="st0" d="M14.96,250.32c0,0,0.55-3.86,19.76-4.22"/>
</g>
<path class="st4" d="M1.55,72.22c0,0,33.03,9.92,74.86,2.36c0,0-1.29-42.15-36.04-42.15S1.55,72.22,1.55,72.22z"/>
<circle class="st4" cx="40.65" cy="29.82" r="2.61"/>
</svg>
