<?xml version="1.0" encoding="utf-8"?>
<!-- Generator: Adobe Illustrator 27.3.1, SVG Export Plug-In . SVG Version: 6.00 Build 0)  -->
<svg version="1.1" id="Layer_1" xmlns="http://www.w3.org/2000/svg" xmlns:xlink="http://www.w3.org/1999/xlink" x="0px" y="0px"
	 viewBox="0 0 236 115" style="enable-background:new 0 0 236 115;" xml:space="preserve">
<style type="text/css">
	.st0{fill:none;stroke:#000000;stroke-linecap:round;stroke-miterlimit:10;}
	.st1{fill:#EAEAEA;}
	.st2{fill:none;stroke:#000000;stroke-width:2;stroke-linecap:round;stroke-miterlimit:10;}
	.st3{fill:none;stroke:#070B16;stroke-linecap:round;stroke-linejoin:round;stroke-miterlimit:10;}
</style>
<g>
	<path class="st0" d="M130.04,6.26"/>
	<path class="st0" d="M71.91,32.94"/>
	<path class="st1" d="M234.23,25.58c0-0.09,0.01-0.17,0-0.26h-0.01c-0.15-7.98-13.01-16.01-32.37-18.96
		C163.9,0.58,73.61,1.08,49.67,4.56c0,0-40.13,3.25-45.91,13.01c-1.51,2.55-2.26,5.17-1.88,7.75H1.76c0,0,0.05,0.07,0.14,0.19
		c1.05,6.23,8.81,12.23,28.76,16.6l-9.2,67.04c1.01,1.98,4.38,1.53,4.38,1.53l7.72-39.61l2.6-4.13l-1.98,9.39
		c0.62,2.23,3.26,0.56,3.26,0.56l7.47-32.25c34.42,5.02,81.91,6.07,148.99-0.99l13.37,68.45c0,0,1.69,1.51,4.82-0.66l-10.22-68.8
		l-0.03,0c22.1-3.36,31.69-9.82,32.35-16.44C234.22,26,234.24,25.79,234.23,25.58C234.23,25.59,234.23,25.58,234.23,25.58z
		 M35.9,59.1l3-15.4c0.69,0.12,1.39,0.23,2.1,0.34l-2.15,10.21L35.9,59.1z"/>
	<g>
		<path class="st2" d="M49.66,4.98c0,0-40.13,3.25-45.91,13.01S3.15,38.47,41.23,44.5c34.7,5.49,83.17,6.89,152.68-0.43
			c58.92-6.2,45.91-31.51,7.95-37.29S73.61,1.5,49.66,4.98z"/>
		<path class="st2" d="M1.76,25.74c0,0,8.38,12.97,49.35,16.11c40.97,3.13,65.79,4.1,91.1,3.13c25.3-0.96,93.19-6.19,92.02-19.24"/>
		<path class="st2" d="M30.98,42.6l-9.51,68.11c0,0,3.91,2.89,4.76,0.72c0.85-2.17,7.17-35.07,7.17-35.07l5.27-13.67"/>
		<path class="st2" d="M40.47,44.38"/>
		<polyline class="st2" points="38.02,44.38 35.38,62.98 39.51,55 		"/>
		<line class="st2" x1="41.23" y1="44.5" x2="39.45" y2="55.39"/>
		<path class="st2" d="M44.84,45.34c0,0-6.81,32.78-7.86,33.38c-1.06,0.6-3.83,0.48-3.59-2.35"/>
		<path class="st2" d="M193.9,44.07l13.37,68.45c0,0,1.69,1.51,4.82-0.66l-10.22-68.8"/>
	</g>
	<path class="st1" d="M163.54,13.05l-0.01,0c-0.13-0.1-0.28-0.19-0.46-0.24l-10.99-2.65c-0.91-0.22-1.88-0.09-2.68,0.35
		l-25.88,14.31c-0.26,0.14-0.41,0.35-0.5,0.57l-0.01,0c-0.44,0.89-0.23,3.09,0.63,3.46l10.11,4.29c1.22,0.52,2.66,0.41,3.76-0.28
		l25.91-16.12C164.19,16.28,164.37,13.55,163.54,13.05z"/>
	<path class="st1" d="M104.69,13.01c0-1.14-5.64-2.07-12.6-2.07c-6.96,0-12.6,0.93-12.6,2.07c0.28,3.2,0.67,5.84,1.17,8.01
		l-1.05-3.46c0,0-1.62-2.04-3.12-1.47c-1.5,0.57-1.81,3.47-1.15,4.83c0.6,1.23,3.37,3.82,4.27,3.82c0.86,0,1.94-0.42,1.97-0.63
		c2.24,5.87,6.16,6.67,12.86,6.2C105.01,29.57,104.69,13.01,104.69,13.01z"/>
	<g>
		<path class="st3" d="M163.8,13.05c0.83,0.5,0.65,3.22-0.12,3.71l-25.91,16.12c-1.1,0.69-2.54,0.79-3.76,0.28l-10.11-4.29
			c-0.85-0.36-1.06-2.57-0.63-3.46"/>
		<g>
			<path class="st3" d="M163.68,14.58L137.76,30.7c-1.1,0.69-2.54,0.79-3.76,0.28l-10.11-4.29c-0.85-0.36-0.92-1.41-0.12-1.85
				l25.88-14.31c0.8-0.44,1.77-0.57,2.68-0.35l10.99,2.65C164.24,13.04,164.45,14.1,163.68,14.58z"/>
			<path class="st3" d="M159.63,13.05c1.69,0.37,3.22,0.52,1.88,1.47l-23.49,14.83c-1.05,0.68-2.52,1.23-3.85,0.62l-8.67-3.73
				c-0.73-0.27-0.9-0.81-0.18-1.21l24.14-13.36c1.79-1.04,2.65-0.47,4.65,0.08"/>
			<path class="st3" d="M154.03,11.95c0,0-0.54,0.68-0.44,0.81c0.1,0.13,3.66,1.19,4.35,1.09c0.69-0.1,1.7-0.75,1.7-0.75"/>
		</g>
	</g>
	<g>
		<ellipse class="st2" cx="91.18" cy="13.07" rx="12.6" ry="2.07"/>
		<path class="st2" d="M103.78,13.07c0,0,0.31,16.56-10.26,17.29c-9.67,0.68-13.54-1.27-14.95-17.29"/>
		<path class="st2" d="M78.69,17.61c0,0-1.62-2.04-3.12-1.47c-1.5,0.57-1.81,3.47-1.15,4.83c0.6,1.23,3.37,3.82,4.27,3.82
			s2.07-0.46,1.98-0.67"/>
	</g>
</g>
</svg>
