<?xml version="1.0" encoding="utf-8"?>
<!-- Generator: Adobe Illustrator 22.0.1, SVG Export Plug-In . SVG Version: 6.00 Build 0)  -->
<svg version="1.1" id="Layer_1" xmlns="http://www.w3.org/2000/svg" xmlns:xlink="http://www.w3.org/1999/xlink" x="0px" y="0px"
	 viewBox="0 0 612 136" style="enable-background:new 0 0 612 136;" xml:space="preserve">
<style type="text/css">
	.st0{enable-background:new    ;}
	.st1{fill:#FFCB36;}
	.st2{fill:#010101;}
</style>
<g class="st0">
	<g>
		<path class="st1" d="M168.8,3.5v2.7l-11,2.7v116.9l11,2.7v2.7h-52v-2.7l11-2.7V26.3L84.7,133.2h-5.5L23.6,26.3v96.8l14.6,5.5v2.7
			H3.5v-2.7l14.6-5.5V9l-11-2.7V3.6H30c3.4,0,6.4,0.4,8.9,1.2c2.6,0.8,4.8,1.9,6.8,3.2c1.9,1.3,3.6,3,5,4.8c1.4,1.9,2.7,4,3.9,6.3
			l39.8,76.2l30.5-76.2c1-2.6,2.1-4.8,3.4-6.7s2.8-3.5,4.7-4.8c1.8-1.3,4.1-2.3,6.8-3s6-1,9.9-1L168.8,3.5L168.8,3.5z"/>
	</g>
	<g>
		<path class="st1" d="M187,6.3V3.6h52v2.7L228,9v116.9l11,2.7v2.7h-52v-2.7l11-2.7V9L187,6.3z"/>
	</g>
</g>
<g class="st0">
	<g>
		<path class="st2" d="M85.4,134.2h-6.8l-54-103.8v92l14.6,5.5v4.4H2.5v-4.4l14.6-5.5V9.8l-11-2.7V2.6H30c3.5,0,6.6,0.4,9.2,1.2
			c2.6,0.8,5,1.9,7,3.3c2,1.4,3.8,3.1,5.3,5.1c1.4,1.9,2.8,4.1,4,6.4l38.8,74.2L124,18.7c1-2.6,2.2-4.9,3.5-6.9s3-3.7,4.9-5.1
			c1.9-1.4,4.3-2.5,7.1-3.2c2.7-0.7,6.1-1,10.1-1h20.2V7l-11,2.7V125l11,2.7v4.5h-54v-4.5l11-2.7V31.4L85.4,134.2z M79.9,132.2h4.2
			l44.6-111v105.5l-11,2.7v1h50v-1l-11-2.7V8.2l11-2.7v-1h-18.2c-3.8,0-7,0.3-9.6,1c-2.5,0.6-4.7,1.6-6.4,2.9
			c-1.7,1.3-3.2,2.8-4.4,4.6s-2.3,4-3.3,6.5L94.5,97.7L53.7,19.6c-1.2-2.2-2.5-4.3-3.8-6.2c-1.3-1.8-2.9-3.3-4.8-4.6
			c-1.9-1.3-4-2.3-6.5-3.1s-5.4-1.1-8.7-1.1H8.1v1l11,2.7v115.6l-14.6,5.5v1h32.7v-1l-14.6-5.5V22.3L79.9,132.2z"/>
	</g>
	<g>
		<path class="st2" d="M240.1,132.4h-54v-4.5l11-2.7V9.8l-11-2.7V2.6h54v4.5l-11,2.7v115.3l11,2.7V132.4z M188,130.4h50v-1l-11-2.7
			V8.2l11-2.7v-1h-50v1l11,2.7v118.4l-11,2.7V130.4z"/>
	</g>
</g>
<g class="st0">
	<g>
		<path class="st2" d="M358.7,11.7l-14.6-5.5V3.5h34.7v2.7l-14.6,5.5v122.4h-5.5l-84.9-99.5v88.6l14.6,5.5v2.7h-34.7v-2.7l14.6-5.5
			V9.9l-12.8-3.7V3.5h19.2c3.7,0,6.8,0.4,9.5,1.2s5,1.8,7,3.1s3.7,2.7,5.2,4.2s2.7,3,3.8,4.3l58.4,68.5L358.7,11.7L358.7,11.7z"/>
	</g>
	<g>
		<path class="st2" d="M409.8,130.4c3.2,0,6.1-0.6,8.8-1.8c2.7-1.2,5-3.2,6.9-6s3.5-6.5,4.6-11c1.1-4.6,1.6-10.1,1.6-16.7V9l-11-2.7
			V3.6h52v2.7l-11,2.7v85.8c0,12.3-3.8,21.9-11.5,28.9c-7.7,6.9-20,10.4-36.9,10.4c-6,0-11.1-0.6-15.3-1.7
			c-4.3-1.2-7.8-2.7-10.5-4.6s-4.7-4-6-6.4s-1.9-4.8-1.9-7.4c0-4.1,1.2-7.5,3.7-10s5.8-3.7,10-3.7c1,0,1.9,0.1,2.6,0.2
			c0.8,0.1,1.6,0.2,2.3,0.4c0.7,0.1,1.5,0.2,2.4,0.4v27.4c0.7,0.4,1.6,0.7,2.6,0.9C405.1,130.1,407.3,130.4,409.8,130.4z"/>
	</g>
	<g>
		<path class="st2" d="M588.8,11.7l-14.6-5.5V3.5h34.7v2.7l-14.6,5.5v74c0,7.5-1.1,14.3-3.2,20.3c-2.1,6-5.1,11-8.9,15.2
			c-3.8,4.2-8.2,7.4-13.3,9.6s-10.7,3.3-16.6,3.3c-18.3,0-32-4.3-41.1-12.9c-9.1-8.6-13.7-20.4-13.7-35.5V9l-11-2.7V3.6h52v2.7
			l-11,2.7v76.7c0,8.3,0.7,15.2,2,20.7s3.2,10,5.7,13.5c2.4,3.5,5.4,5.9,8.9,7.4s7.4,2.2,11.8,2.2c4.1,0,8.2-1,12.1-3
			c3.9-2,7.4-4.9,10.5-8.7c3.1-3.8,5.6-8.4,7.5-13.8s2.8-11.5,2.8-18.4L588.8,11.7L588.8,11.7z"/>
	</g>
</g>
<g class="st0">
	<g>
		<path class="st2" d="M365.2,135.1h-6.9l-83.5-97.8v85.2l14.6,5.5v4.4h-36.7V128l14.6-5.5V10.7L254.5,7V2.5h20.2
			c3.7,0,7,0.4,9.8,1.2s5.2,1.9,7.3,3.2c2.1,1.3,3.9,2.8,5.4,4.4c1.5,1.5,2.8,3,3.9,4.3L357.8,82V12.4l-14.6-5.5V2.5h36.7v4.4
			l-14.6,5.5v122.7H365.2z M359.2,133.1h4V11l14.6-5.5v-1h-32.7v1l14.6,5.5v76.5L299.5,17c-1.1-1.3-2.4-2.7-3.8-4.2s-3.1-2.8-5-4
			s-4.2-2.2-6.8-3c-2.6-0.8-5.7-1.1-9.2-1.1h-18.2v1l12.8,3.7v114.7l-14.6,5.5v1h32.7v-1l-14.6-5.5v-92L359.2,133.1z"/>
	</g>
	<g>
		<path class="st2" d="M413.5,135.1c-6,0-11.3-0.6-15.6-1.8c-4.4-1.2-8-2.8-10.8-4.7c-2.9-2-5-4.2-6.3-6.7c-1.4-2.5-2-5.2-2-7.9
			c0-4.4,1.4-8,4-10.7s6.3-4,10.7-4c1,0,1.9,0.1,2.8,0.2c0.8,0.1,1.6,0.2,2.3,0.4c0.7,0.1,1.5,0.2,2.4,0.4l0.9,0.1V128
			c0.5,0.2,1.1,0.4,1.8,0.6c1.8,0.6,3.9,0.9,6.3,0.9c3,0,5.8-0.6,8.4-1.7c2.5-1.1,4.7-3,6.5-5.7c1.9-2.7,3.4-6.3,4.4-10.7
			c1.1-4.5,1.6-10,1.6-16.5V9.8l-11-2.7V2.6h54v4.5l-11,2.7v85.1c0,12.5-4,22.5-11.8,29.6C443.2,131.5,430.6,135.1,413.5,135.1z
			 M393.4,101.3c-3.8,0-7,1.2-9.2,3.5c-2.3,2.3-3.5,5.3-3.5,9.2c0,2.4,0.6,4.7,1.8,6.9c1.2,2.2,3.1,4.3,5.7,6
			c2.6,1.8,6.1,3.3,10.2,4.4c4.2,1.1,9.2,1.7,15.1,1.7c16.6,0,28.8-3.4,36.2-10.2c7.4-6.7,11.2-16.2,11.2-28.1V8.1l11-2.7v-1h-50v1
			l11,2.7v86.6c0,6.6-0.6,12.3-1.7,16.9c-1.1,4.7-2.7,8.5-4.7,11.4s-4.5,5.1-7.3,6.4s-5.9,1.9-9.2,1.9c-2.7,0-5-0.3-6.9-1
			c-1-0.2-1.9-0.6-2.7-1l-0.6-0.3v-27.1c-0.5-0.1-1.1-0.2-1.5-0.2c-0.7-0.1-1.5-0.2-2.3-0.4C395.1,101.4,394.3,101.3,393.4,101.3z"
			/>
	</g>
	<g>
		<path class="st2" d="M552.3,135.1c-18.4,0-32.5-4.4-41.8-13.1s-14-20.9-14-36.2V9.9l-11-2.7V2.7h54v4.5l-11,2.7v75.9
			c0,8.2,0.7,15.1,2,20.5s3.2,9.8,5.5,13.2c2.3,3.3,5.1,5.7,8.4,7c3.3,1.4,7.2,2.1,11.4,2.1c4,0,7.9-1,11.6-2.9
			c3.8-1.9,7.2-4.8,10.2-8.4c3-3.7,5.5-8.2,7.3-13.5s2.8-11.4,2.8-18V12.5L573.1,7V2.6h36.7V7l-14.6,5.5v73.3
			c0,7.6-1.1,14.6-3.3,20.6c-2.2,6.1-5.2,11.3-9.1,15.6c-3.9,4.3-8.5,7.6-13.7,9.8C564.1,134,558.4,135.1,552.3,135.1z M487.5,5.5
			l11,2.7v77.5c0,14.7,4.5,26.4,13.4,34.8s22.5,12.6,40.4,12.6c5.8,0,11.3-1.1,16.2-3.2c5-2.1,9.3-5.3,13-9.3
			c3.7-4.1,6.6-9.1,8.7-14.9c2.1-5.8,3.1-12.5,3.1-19.9V11l14.6-5.5v-1h-32.7v1l14.6,5.5v74.7c0,6.9-1,13.2-2.9,18.7
			s-4.5,10.3-7.7,14.1c-3.2,3.9-6.8,6.9-10.8,8.9c-4,2.1-8.2,3.1-12.5,3.1c-4.5,0-8.6-0.8-12.2-2.3c-3.6-1.5-6.8-4.1-9.3-7.7
			s-4.5-8.2-5.8-13.9c-1.4-5.6-2-12.6-2-21V8.1l11-2.7v-1h-50L487.5,5.5L487.5,5.5z"/>
	</g>
</g>
</svg>
