<?xml version="1.0" encoding="utf-8"?>
<!-- Generator: Adobe Illustrator 22.0.1, SVG Export Plug-In . SVG Version: 6.00 Build 0)  -->
<svg version="1.1" id="Layer_1" xmlns="http://www.w3.org/2000/svg" xmlns:xlink="http://www.w3.org/1999/xlink" x="0px" y="0px"
	 viewBox="0 0 620 140" style="enable-background:new 0 0 620 140;" xml:space="preserve">
<style type="text/css">
	.st0{enable-background:new    ;}
	.st1{fill:#010101;}
	.st2{fill:#FFCB36;}
</style>
<g class="st0">
	<g>
		<path class="st1" d="M3,8.7V6h52v2.7l-11,2.7V68h39.3V11.4l-11-2.7V6h52v2.7l-11,2.7v116.9l11,2.7v2.7h-52V131l11-2.7V72.6H44
			v55.7l11,2.7v2.7H3V131l11-2.7V11.5L3,8.7z"/>
	</g>
	<g>
		<path class="st1" d="M260.5,69.9c0,10.7-1.4,20.2-4.3,28.5c-2.9,8.3-6.9,15.2-12.1,20.9c-5.2,5.7-11.4,10-18.7,12.9
			s-15.4,4.4-24.3,4.4c-8.9,0-17-1.5-24.3-4.4s-13.5-7.2-18.7-12.9c-5.2-5.7-9.2-12.6-12.1-20.9c-2.9-8.3-4.3-17.8-4.3-28.5
			s1.4-20.2,4.3-28.5c2.9-8.3,6.9-15.2,12.1-20.9c5.2-5.7,11.4-10,18.7-12.9s15.4-4.4,24.3-4.4c8.9,0,17,1.5,24.3,4.4
			s13.5,7.2,18.7,12.9c5.2,5.7,9.2,12.6,12.1,20.9S260.5,59.2,260.5,69.9z M228.6,69.9c0-12.1-0.8-22.1-2.5-30.2
			c-1.6-8.1-3.8-14.6-6.4-19.5c-2.6-4.9-5.6-8.3-8.9-10.3s-6.5-3-9.7-3s-6.4,1-9.7,3s-6.2,5.5-8.9,10.3c-2.6,4.9-4.7,11.4-6.4,19.5
			c-1.6,8.1-2.5,18.2-2.5,30.2s0.8,22.1,2.5,30.2c1.6,8.1,3.8,14.6,6.4,19.5c2.6,4.9,5.6,8.3,8.9,10.3s6.5,3,9.7,3s6.4-1,9.7-3
			s6.2-5.4,8.9-10.3c2.6-4.9,4.7-11.4,6.4-19.5C227.8,92,228.6,82,228.6,69.9z"/>
	</g>
	<g>
		<path class="st1" d="M377.4,14.2l-14.6-5.5V6h34.7v2.7l-14.6,5.5v74c0,7.5-1.1,14.3-3.2,20.3c-2.1,6-5.1,11-8.9,15.2
			c-3.8,4.2-8.2,7.4-13.3,9.6s-10.7,3.3-16.6,3.3c-18.3,0-32-4.3-41.1-12.9s-13.7-20.4-13.7-35.5V11.5l-11-2.7V6h52v2.7l-11,2.7
			v76.7c0,8.3,0.7,15.2,2,20.7s3.2,10,5.7,13.5c2.4,3.5,5.4,5.9,8.9,7.4s7.4,2.2,11.8,2.2c4.1,0,8.2-1,12.1-3
			c3.9-2,7.4-4.9,10.5-8.7c3.1-3.8,5.6-8.4,7.5-13.8s2.8-11.5,2.8-18.4L377.4,14.2L377.4,14.2z"/>
	</g>
</g>
<g class="st0">
	<g>
		<path class="st1" d="M125.5,134.8h-54v-4.5l11-2.7V73.7H45.2v53.9l11,2.7v4.5h-54v-4.5l11-2.7V12.2l-11-2.7V5h54v4.5l-11,2.7V67
			h37.3V12.2l-11-2.7V5h54v4.5l-11,2.7v115.3l11,2.7V134.8z M73.4,132.8h50v-1l-11-2.7V10.7l11-2.7V7h-50v1l11,2.7v58.4H43.1V10.7
			l11-2.7V7h-50v1l11,2.7v118.4l-11,2.7v1h50v-1l-11-2.7V71.6h41.3v57.5l-11,2.7V132.8z"/>
	</g>
	<g>
		<path class="st1" d="M201.2,137.6c-9,0-17.3-1.5-24.7-4.5s-13.8-7.4-19.1-13.1c-5.2-5.7-9.4-12.9-12.3-21.3
			c-2.9-8.3-4.3-18-4.3-28.8s1.5-20.5,4.3-28.8c2.9-8.4,7-15.5,12.3-21.3c5.3-5.7,11.7-10.2,19.1-13.1c7.4-3,15.7-4.5,24.7-4.5
			s17.3,1.5,24.7,4.5s13.8,7.4,19.1,13.1c5.2,5.7,9.4,12.9,12.3,21.3c2.9,8.4,4.3,18.1,4.3,28.8c0,10.8-1.5,20.5-4.3,28.8
			c-2.9,8.4-7,15.5-12.3,21.3c-5.3,5.7-11.7,10.2-19.1,13.1C218.5,136.1,210.2,137.6,201.2,137.6z M201.2,4.2
			c-8.7,0-16.8,1.5-23.9,4.3c-7.1,2.9-13.3,7.1-18.4,12.6c-5.1,5.5-9,12.5-11.8,20.6s-4.2,17.6-4.2,28.2s1.4,20,4.2,28.2
			c2.8,8.1,6.8,15,11.8,20.6c5,5.5,11.2,9.8,18.4,12.6c7.2,2.9,15.2,4.3,23.9,4.3s16.8-1.5,23.9-4.3c7.1-2.8,13.3-7.1,18.4-12.6
			c5.1-5.5,9-12.5,11.8-20.6s4.2-17.6,4.2-28.2c0-10.5-1.4-20-4.2-28.2c-2.8-8.1-6.8-15-11.8-20.6c-5.1-5.5-11.2-9.8-18.4-12.6
			C218,5.7,209.9,4.2,201.2,4.2z M201.2,133.9c-3.3,0-6.8-1.1-10.2-3.2c-3.4-2.1-6.5-5.7-9.2-10.7c-2.7-4.9-4.8-11.6-6.5-19.7
			c-1.6-8.1-2.5-18.4-2.5-30.4c0-12.1,0.8-22.3,2.5-30.4c1.7-8.2,3.8-14.8,6.5-19.7c2.7-5,5.8-8.6,9.2-10.7c6.9-4.2,13.5-4.2,20.4,0
			c3.4,2.1,6.5,5.7,9.2,10.7c2.7,4.9,4.8,11.6,6.5,19.7c1.6,8.1,2.5,18.4,2.5,30.4c0,12.1-0.8,22.3-2.5,30.4
			c-1.7,8.2-3.8,14.8-6.5,19.7c-2.7,5-5.8,8.6-9.2,10.7C208,132.8,204.5,133.9,201.2,133.9z M201.2,7.9c-3,0-6,1-9.2,2.9
			c-3.1,1.9-6,5.2-8.5,9.9c-2.6,4.8-4.7,11.2-6.3,19.2s-2.4,18.1-2.4,30s0.8,22,2.4,30c1.6,8,3.7,14.4,6.3,19.2
			c2.5,4.7,5.4,8,8.5,9.9s6.2,2.9,9.2,2.9s6-1,9.2-2.9c3.1-1.9,6-5.2,8.5-9.9c2.6-4.8,4.7-11.2,6.3-19.2s2.4-18.1,2.4-30
			s-0.8-22-2.4-30c-1.6-8-3.7-14.4-6.3-19.2c-2.5-4.7-5.4-8-8.5-9.9C207.2,8.9,204.2,7.9,201.2,7.9z"/>
	</g>
	<g>
		<path class="st1" d="M340.9,137.6c-18.4,0-32.5-4.4-41.8-13.1c-9.3-8.7-14-20.9-14-36.2V12.4l-11-2.7V5h54v4.5l-11,2.7v75.9
			c0,8.2,0.7,15.1,2,20.5s3.2,9.8,5.5,13.2c2.3,3.3,5.1,5.7,8.4,7c3.3,1.4,7.2,2.1,11.4,2.1c4,0,7.9-1,11.6-2.9
			c3.8-1.9,7.2-4.8,10.2-8.4c3-3.7,5.5-8.2,7.3-13.5s2.8-11.3,2.8-18V14.8l-14.6-5.5V5h36.7v4.4l-14.6,5.5v73.3
			c0,7.6-1.1,14.6-3.3,20.6c-2.2,6.1-5.2,11.3-9.1,15.6c-3.9,4.3-8.5,7.6-13.7,9.8C352.7,136.4,347,137.6,340.9,137.6z M276.1,7.9
			l11,2.7v77.5c0,14.7,4.5,26.4,13.4,34.8s22.5,12.6,40.4,12.6c5.8,0,11.3-1.1,16.2-3.2c5-2.1,9.3-5.3,13-9.3
			c3.7-4.1,6.6-9.1,8.7-14.9c2.1-5.8,3.1-12.5,3.1-19.9V13.5L396.5,8V7h-32.7v1l14.6,5.5v74.7c0,6.9-1,13.2-2.9,18.7
			s-4.5,10.3-7.7,14.1c-3.2,3.9-6.8,6.9-10.8,8.9c-4,2.1-8.2,3.1-12.5,3.1c-4.5,0-8.6-0.8-12.2-2.3c-3.6-1.5-6.8-4.1-9.3-7.7
			s-4.5-8.2-5.8-13.9c-1.4-5.6-2-12.6-2-21V10.6l11-2.7v-1h-50L276.1,7.9L276.1,7.9z"/>
	</g>
</g>
<g class="st0">
	<g>
		<path class="st2" d="M448.6,132c6.9,0,12.5-2.1,16.6-6.2c4.1-4.1,6.2-9.7,6.2-16.6c0-4.7-1.6-8.9-4.8-12.3
			c-3.2-3.5-7.2-6.7-12-9.8c-4.7-3-10-6.1-15.6-9.1c-5.7-3-10.9-6.5-15.6-10.4c-4.7-3.9-8.7-8.4-12-13.6c-3.2-5.2-4.8-11.4-4.8-18.7
			c0-4.4,0.9-8.5,2.7-12.3s4.6-7.2,8.3-10.1s8.4-5.2,14-6.9c5.6-1.7,12.2-2.6,19.7-2.6c4.3,0,8.2,0.6,11.9,1.9s6.8,2.6,9.3,4.1
			c3,1.7,5.7,3.7,8,5.8c1-1.6,2-3,3.2-4.3s2.2-2.3,3.2-3.2c1.2-1,2.4-1.8,3.7-2.6h4.6v34.7h-7.3c-1.7-5.8-4.1-11.1-7.1-15.9
			c-2.6-4-6-7.7-10.2-11c-4.3-3.3-9.4-5-15.5-5c-2.3,0-4.5,0.5-6.6,1.5s-3.9,2.3-5.5,4.1c-1.6,1.8-2.9,3.9-3.8,6.4
			c-1,2.5-1.5,5.2-1.5,8.1c0,5.2,1.6,9.7,4.8,13.4c3.2,3.7,7.2,7.2,12,10.3c4.7,3.2,10,6.3,15.6,9.3c5.7,3,10.9,6.4,15.6,10.1
			c4.7,3.7,8.7,7.9,12,12.7c3.2,4.7,4.8,10.5,4.8,17.2c0,4.7-1,9.3-3.1,13.6c-2.1,4.3-5.2,8.1-9.3,11.4s-9.4,5.9-15.7,7.8
			c-6.3,1.9-13.7,2.8-22.1,2.8c-5.4,0-10-0.6-14.1-1.8c-4-1.2-7.4-2.6-10.2-4c-3.3-1.7-6.1-3.7-8.6-6c-1,1.7-2,3.2-3.2,4.4
			s-2.2,2.3-3.2,3.1c-1.2,1-2.4,1.8-3.7,2.6h-4.6V100h7.3c1.8,6,4.4,11.3,7.7,16.1c1.5,2.1,3.1,4,4.9,5.9c1.8,1.9,3.9,3.6,6.3,5
			c2.4,1.5,5,2.6,7.9,3.6S445.1,132,448.6,132z"/>
	</g>
	<g>
		<path class="st2" d="M578.3,68.1c0.5-2.4,1.2-4.8,2-7c0.8-2.3,1.8-4.2,2.7-5.9c1.1-1.9,2.3-3.7,3.5-5.3h5.5V91h-5.5
			c-1.2-1.6-2.4-3.3-3.5-5.3c-1-1.7-1.9-3.7-2.7-5.8c-0.9-2.2-1.5-4.6-2-7.1h-21v56.6h42.9c0-4.7,0.6-8.9,1.8-12.4
			c1.2-3.5,2.6-6.5,4-8.9c1.7-2.8,3.7-5.1,6-6.9h5.5v32.9H516.1v-2.7l11-2.7V11.5l-11-2.7V6h97.7v32.9h-5.5c-2.3-1.8-4.3-4.1-6-6.9
			c-1.5-2.4-2.8-5.4-4-8.9s-1.8-7.6-1.8-12.5h-39.3v57.5H578.3z"/>
	</g>
</g>
<g class="st0">
	<g>
		<path class="st1" d="M452.3,137.6c-5.4,0-10.3-0.6-14.4-1.9c-4.1-1.2-7.5-2.6-10.4-4.1c-3-1.5-5.6-3.3-7.9-5.4
			c-0.8,1.3-1.7,2.5-2.7,3.5c-1.2,1.2-2.3,2.3-3.3,3.2c-1.3,1-2.5,1.9-3.8,2.7l-0.2,0.1h-5.8V99h9l0.2,0.7
			c1.8,5.8,4.3,11.2,7.5,15.8c1.4,2,3,4,4.8,5.8s3.8,3.5,6.1,4.9s4.9,2.6,7.7,3.5c2.8,0.9,6,1.3,9.4,1.3c6.6,0,12-2,15.9-5.9
			s5.9-9.3,5.9-15.9c0-4.5-1.5-8.4-4.6-11.6c-3.2-3.4-7.1-6.6-11.8-9.6s-9.9-6.1-15.5-9.1c-5.7-3.1-11-6.6-15.8-10.5
			s-8.9-8.6-12.2-13.8c-3.3-5.3-5-11.8-5-19.2c0-4.5,1-8.8,2.8-12.8c1.9-4,4.8-7.5,8.6-10.5s8.6-5.4,14.3-7.1s12.4-2.6,20-2.6
			c4.4,0,8.5,0.7,12.2,2s6.9,2.7,9.5,4.2c2.7,1.5,5.2,3.3,7.3,5.2c0.8-1.2,1.7-2.4,2.7-3.4c1.2-1.3,2.3-2.4,3.3-3.3
			c1.3-1,2.5-1.9,3.8-2.7l0.2-0.1h5.8V41h-9.1l-0.2-0.7c-1.7-5.7-4-11-7-15.6c-2.5-3.9-5.8-7.5-10-10.8c-4.1-3.2-9.1-4.8-14.9-4.8
			c-2.2,0-4.2,0.5-6.1,1.4c-1.9,0.9-3.7,2.2-5.2,3.9c-1.5,1.7-2.7,3.7-3.6,6.1c-0.9,2.4-1.4,5-1.4,7.8c0,5,1.5,9.3,4.6,12.8
			c3.1,3.6,7.1,7,11.8,10.1s9.9,6.3,15.5,9.3c5.7,3.1,11,6.5,15.8,10.2c4.8,3.8,8.9,8.1,12.2,12.9c3.3,4.9,5,10.9,5,17.7
			c0,4.9-1.1,9.6-3.2,14c-2.1,4.4-5.4,8.4-9.6,11.8c-4.2,3.4-9.6,6-16,7.9C468.3,136.6,460.8,137.6,452.3,137.6z M419.2,123.1
			l0.9,0.9c2.4,2.2,5.2,4.2,8.4,5.9c2.7,1.4,6.1,2.8,10.1,3.9c3.9,1.2,8.5,1.8,13.8,1.8c8.3,0,15.6-0.9,21.8-2.8
			c6.2-1.8,11.3-4.4,15.4-7.6c4-3.2,7-6.9,9-11.1s3-8.6,3-13.2c0-6.5-1.6-12-4.7-16.6c-3.2-4.6-7.1-8.8-11.8-12.5s-9.9-7-15.5-10
			c-5.7-3-10.9-6.2-15.7-9.4c-4.8-3.2-8.9-6.7-12.2-10.5c-3.4-3.9-5.1-8.6-5.1-14.1c0-3,0.5-5.9,1.5-8.5s2.4-4.8,4-6.7
			c1.7-1.9,3.6-3.3,5.8-4.3s4.5-1.6,7-1.6c6.3,0,11.7,1.8,16.1,5.2c4.3,3.4,7.9,7.2,10.5,11.3c3,4.6,5.3,9.8,7,15.4h5.6V5.9h-3.3
			c-1.1,0.7-2.2,1.5-3.3,2.3c-0.9,0.8-2,1.8-3.1,3.1c-1.1,1.2-2.1,2.6-3.1,4.1l-0.6,1l-0.9-0.8c-2.2-2.1-4.9-4-7.8-5.7
			c-2.5-1.4-5.6-2.8-9.2-4c-3.5-1.2-7.4-1.9-11.5-1.9c-7.4,0-14,0.8-19.4,2.5c-5.5,1.7-10,3.9-13.6,6.8c-3.6,2.8-6.3,6.1-8,9.8
			c-1.8,3.7-2.6,7.7-2.6,11.9c0,7.1,1.6,13.2,4.7,18.2c3.1,5.1,7.1,9.5,11.7,13.4c4.7,3.8,9.9,7.3,15.5,10.3s10.9,6.1,15.7,9.2
			s8.9,6.4,12.2,9.9c3.4,3.6,5.1,8,5.1,13c0,7.2-2.2,13-6.5,17.3c-4.3,4.3-10.1,6.5-17.3,6.5c-3.6,0-7-0.5-10-1.4s-5.7-2.2-8.2-3.7
			c-2.4-1.5-4.6-3.2-6.5-5.2c-1.9-1.9-3.5-4-5-6.1c-3.2-4.6-5.8-9.9-7.6-15.6h-5.6v32.7h3.3c1.1-0.7,2.2-1.5,3.3-2.3
			c0.9-0.8,2-1.8,3.1-3c1.1-1.1,2.1-2.6,3.1-4.2L419.2,123.1z"/>
	</g>
	<g>
		<path class="st1" d="M618.6,134.8H515.2v-4.5l11-2.7V12.2l-11-2.7V5h99.7v34.9h-6.8l-0.3-0.2c-2.4-1.9-4.5-4.3-6.3-7.2
			c-1.5-2.5-2.9-5.5-4.1-9c-1.2-3.3-1.8-7.3-1.9-11.8h-37.3v55.5h19.2c0.5-2.2,1.1-4.3,1.9-6.4c0.9-2.3,1.8-4.3,2.8-6.1
			c1.1-2,2.3-3.8,3.5-5.4l0.3-0.4h7V92h-7l-0.3-0.4c-1.2-1.6-2.4-3.4-3.6-5.4c-1-1.7-1.9-3.7-2.8-6c-0.8-2-1.4-4.2-1.9-6.5h-19.2
			v54.6H599c0.1-4.4,0.7-8.4,1.9-11.7c1.2-3.6,2.6-6.6,4.1-9.1c1.8-2.9,3.9-5.3,6.3-7.2l0.3-0.2h6.8v34.7H618.6z M517.2,132.8h99.4
			v-30.9h-4.1c-2.1,1.7-4,3.9-5.5,6.5c-1.4,2.4-2.7,5.3-3.9,8.8c-1.2,3.4-1.8,7.5-1.8,12.1v1h-44.9V71.7h22.8l0.2,0.8
			c0.5,2.5,1.1,4.8,2,6.9c0.8,2.1,1.7,4.1,2.7,5.7c1,1.8,2,3.4,3.1,4.8h4V50.8h-4c-1.1,1.4-2.1,3-3.1,4.8c-1,1.7-1.9,3.6-2.7,5.8
			c-0.8,2.2-1.5,4.5-2,6.9l-0.2,0.8h-22.8V9.6h41.3v1c0,4.7,0.6,8.8,1.8,12.2c1.2,3.4,2.5,6.3,3.9,8.7c1.6,2.6,3.4,4.7,5.5,6.5h4.1
			V7h-95.7v1l11,2.7v118.4l-11,2.7v1H517.2z"/>
	</g>
</g>
</svg>
