<?xml version="1.0" encoding="utf-8"?>
<!-- Generator: Adobe Illustrator 27.5.0, SVG Export Plug-In . SVG Version: 6.00 Build 0)  -->
<svg version="1.1" id="Layer_1" xmlns="http://www.w3.org/2000/svg" xmlns:xlink="http://www.w3.org/1999/xlink" x="0px" y="0px"
	 viewBox="0 0 60 60" style="enable-background:new 0 0 60 60;" xml:space="preserve">
<style type="text/css">
	.st0{fill:#FFFFFF;}
</style>
<path d="M58.2,25.1C56.6,16.5,52,9.9,44.6,5.4c-4.6-2.8-9.7-4.2-15.1-4c-8.3,0.2-15.3,3.4-20.8,9.5c-4.2,4.6-6.6,10-7.2,16.2
	c-0.9,9.7,2.4,18,9.7,24.5c4.5,4,9.9,6.2,15.9,6.9c0.4,0,0.7,0.1,1.1,0.1c1.2,0,2.4,0,3.6,0c1.1-0.1,2.1-0.3,3.2-0.4
	c6.6-1.2,12.1-4.3,16.5-9.3c3.8-4.3,6.1-9.4,6.9-15.1c0.1-0.7,0.2-1.4,0.3-2c0-1.2,0-2.4,0-3.6C58.5,27.2,58.4,26.1,58.2,25.1z"/>
<path class="st0" d="M30,45.1c-1-1.2-2-2.3-2.9-3.4c-2.5-3-4.8-6.1-6.6-9.5c-0.8-1.5-1.6-3.1-1.8-4.8c-0.3-2.7,0.4-5.2,2-7.4
	c2.7-3.8,7.3-5.7,11.8-4.7c4.5,1,8,4.5,8.9,9.1c0.4,2.2,0,4.3-0.9,6.3c-1.3,2.7-2.9,5.3-4.8,7.6c-1.6,2.1-3.4,4.2-5.1,6.3
	C30.3,44.7,30.2,44.8,30,45.1z M25.6,26.2c0,2.4,1.9,4.4,4.3,4.4c2.4,0,4.4-1.9,4.4-4.3c0-2.4-1.9-4.4-4.3-4.4
	C27.6,21.9,25.7,23.8,25.6,26.2z"/>
<path d="M25.6,26.2c0-2.4,2-4.3,4.4-4.3c2.4,0,4.3,2,4.3,4.4c0,2.4-2,4.3-4.4,4.3C27.6,30.5,25.6,28.6,25.6,26.2z"/>
</svg>
