<?xml version="1.0" encoding="utf-8"?>
<!-- Generator: Adobe Illustrator 27.5.0, SVG Export Plug-In . SVG Version: 6.00 Build 0)  -->
<svg version="1.1" id="Layer_1" xmlns="http://www.w3.org/2000/svg" xmlns:xlink="http://www.w3.org/1999/xlink" x="0px" y="0px"
	 viewBox="0 0 60 60" style="enable-background:new 0 0 60 60;" xml:space="preserve">
<style type="text/css">
	.st0{fill:#FFFFFF;}
</style>
<path d="M58.2,25.1C56.6,16.5,52,9.9,44.6,5.4c-4.6-2.8-9.7-4.2-15.1-4c-8.3,0.2-15.3,3.4-20.8,9.5c-4.2,4.6-6.6,10-7.2,16.2
	c-0.9,9.7,2.4,18,9.7,24.5c4.5,4,9.9,6.2,15.9,6.9c0.4,0,0.7,0.1,1.1,0.1c1.2,0,2.4,0,3.6,0c1.1-0.1,2.1-0.3,3.2-0.4
	c6.6-1.2,12.1-4.3,16.5-9.3c3.8-4.3,6.1-9.4,6.9-15.1c0.1-0.7,0.2-1.4,0.3-2c0-1.2,0-2.4,0-3.6C58.5,27.2,58.4,26.1,58.2,25.1z"/>
<path class="st0" d="M44.6,27.4c-0.8-4.4-3.2-7.8-7-10.2c-2.4-1.5-5-2.2-7.8-2.1c-4.3,0.1-7.9,1.8-10.8,4.9
	c-2.2,2.4-3.4,5.2-3.7,8.4c-0.4,5,1.2,9.3,5,12.7c2.3,2.1,5.1,3.2,8.2,3.6c0.2,0,0.4,0,0.6,0.1c0.6,0,1.2,0,1.9,0
	c0.6-0.1,1.1-0.1,1.7-0.2c3.4-0.6,6.2-2.2,8.5-4.8c2-2.2,3.2-4.9,3.6-7.8c0-0.4,0.1-0.7,0.1-1.1c0-0.6,0-1.2,0-1.9
	C44.7,28.5,44.7,28,44.6,27.4z"/>
<g>
	<path d="M25,21.9h6.7c3.5,0,5.8,1.9,5.8,5c0,3.5-2.7,5.2-5.9,5.2h-3.1v6.1H25V21.9z M28.5,29.2h2.7c1.6,0,2.8-0.6,2.8-2.3
		c0-1.7-1.2-2.3-2.7-2.3h-2.8V29.2z"/>
</g>
</svg>
