<?xml version="1.0" encoding="utf-8"?>
<!-- Generator: Adobe Illustrator 27.5.0, SVG Export Plug-In . SVG Version: 6.00 Build 0)  -->
<svg version="1.1" id="Layer_1" xmlns="http://www.w3.org/2000/svg" xmlns:xlink="http://www.w3.org/1999/xlink" x="0px" y="0px"
	 viewBox="0 0 30 30" style="enable-background:new 0 0 30 30;" xml:space="preserve">
<path d="M8.6,21.5c0.7-1.2,1.5-2.4,2.4-3.4c0.6-0.6,1.2-1.2,1.8-1.8c0.1-0.1,0.1-0.2,0.1-0.2c-0.1,0-0.2-0.1-0.2-0.1
	c-2.2-0.1-4.4-0.1-6.6-0.3c-1.7-0.1-3.5-0.4-5.2-0.6c0,0,0,0-0.1-0.1c0.3-0.1,0.6-0.1,0.9-0.1c3.6-0.5,7.3-0.7,11-0.8
	c0.1,0,0.2-0.1,0.3-0.1c-0.1-0.1-0.1-0.2-0.2-0.2c-1.5-1.2-2.7-2.5-3.7-4.1C8.9,9.3,8.7,9,8.5,8.6c0,0,0.1,0,0.1-0.1
	c0.6,0.4,1.2,0.7,1.7,1.1c1.3,0.9,2.4,1.9,3.4,3.1c0.1,0.1,0.2,0.1,0.3,0.2c0-0.1,0.1-0.2,0.1-0.3c0-2.9,0.2-5.7,0.5-8.6
	C14.7,3,14.8,2,15,0.9c0,0,0-0.1,0.1-0.1c0.1,0.4,0.1,0.8,0.2,1.3c0.5,3.5,0.6,7,0.7,10.5c0,0.1,0,0.2,0.1,0.3
	c0.1-0.1,0.2-0.1,0.3-0.2c1.2-1.5,2.7-2.9,4.4-3.8c0.2-0.1,0.5-0.2,0.8-0.3c0,0.1-0.1,0.2-0.1,0.3c-1.1,1.8-2.4,3.5-4,4.9
	c-0.1,0.1-0.1,0.2-0.2,0.3c0.1,0,0.2,0.1,0.3,0.1c2.9,0,5.7,0.2,8.6,0.5c1,0.1,2.1,0.3,3.1,0.4c0,0,0.1,0,0.1,0.1
	c-0.4,0.1-0.8,0.1-1.3,0.2c-3.5,0.5-7,0.6-10.5,0.7c-0.1,0-0.2,0.1-0.3,0.1c0.1,0.1,0.1,0.2,0.2,0.2c1.5,1.2,2.7,2.5,3.7,4.1
	c0.2,0.3,0.3,0.7,0.5,1c0,0,0,0-0.1,0.1c-0.1,0-0.2-0.1-0.3-0.1c-1.8-1.1-3.5-2.4-4.9-4.1c-0.1-0.1-0.2-0.1-0.3-0.2
	c0,0.1-0.1,0.2-0.1,0.3c-0.1,3.2-0.2,6.4-0.6,9.7c-0.1,0.7-0.2,1.4-0.3,2.1c0,0,0,0.1-0.1,0.1c-0.1-0.4-0.1-0.8-0.2-1.3
	c-0.5-3.5-0.6-7-0.7-10.5c0-0.1,0-0.2-0.1-0.3c-0.1,0.1-0.2,0.1-0.3,0.2c-1.3,1.6-2.7,2.9-4.5,3.9c-0.2,0.1-0.4,0.2-0.6,0.3
	C8.7,21.5,8.6,21.5,8.6,21.5z"/>
</svg>
