<?xml version="1.0" encoding="utf-8"?>
<!-- Generator: Adobe Illustrator 27.5.0, SVG Export Plug-In . SVG Version: 6.00 Build 0)  -->
<svg version="1.1" id="Layer_1" xmlns="http://www.w3.org/2000/svg" xmlns:xlink="http://www.w3.org/1999/xlink" x="0px" y="0px"
	 viewBox="0 0 100 100" style="enable-background:new 0 0 100 100;" xml:space="preserve">
<style type="text/css">
	.st0{fill:#02A5C4;}
</style>
<g>
	<path class="st0" d="M40.3,6.3c0.5,0.2,1.1,0.3,1.6,0.5c3.2,1.1,5.4,4.1,5.4,7.5c0,8.3,0.1,16.7,0,25c0,4.3-3.6,7.9-8,8
		c-8.3,0.1-16.7,0-25,0c-3.8,0-7-2.7-7.8-6.4c0-0.2-0.1-0.4-0.2-0.5c0-9,0-18,0-27c0.1-0.2,0.1-0.4,0.2-0.5c0.6-2.5,2-4.3,4.2-5.5
		c0.8-0.4,1.7-0.6,2.6-1C22.3,6.3,31.3,6.3,40.3,6.3z M26.8,11.8c-4,0-8,0-12,0c-1.9,0-3,1.1-3,3c0,8,0,16,0,24.1c0,1.9,1.1,3,3,3
		c8,0,16,0,24,0c1.9,0,3-1.1,3-3c0-8,0-16,0-24c0-2-1.1-3-3.1-3.1C34.8,11.8,30.8,11.8,26.8,11.8z"/>
	<path class="st0" d="M93.7,40.3c-0.1,0.4-0.3,0.9-0.4,1.3c-1,3.3-4.1,5.7-7.6,5.7c-8.3,0-16.7,0.1-25,0c-4.3,0-7.9-3.6-8-8
		c-0.1-8.3,0-16.7,0-25c0-3.7,2.7-6.9,6.4-7.8c0.2-0.1,0.4-0.1,0.6-0.2c9,0,18,0,27,0c0.2,0.1,0.3,0.1,0.5,0.2
		c3,0.7,5.1,2.5,6.1,5.5c0.2,0.4,0.3,0.9,0.4,1.4C93.7,22.3,93.7,31.3,93.7,40.3z M73.2,11.8c-4,0-8,0-12,0c-1.9,0-3,1.1-3,3
		c0,8,0,16,0,24c0,2,1.1,3.1,3.1,3.1c8,0,15.9,0,23.9,0c2,0,3.1-1.1,3.1-3c0-8,0-15.9,0-23.9c0-2-1.1-3.1-3.1-3.1
		C81.2,11.8,77.2,11.8,73.2,11.8z"/>
	<path class="st0" d="M6.3,59.7c0.2-0.5,0.3-1.1,0.5-1.6C8,55,11,52.8,14.3,52.7c8.3,0,16.7-0.1,25,0c4.3,0,7.9,3.6,8,8
		c0.1,8.3,0,16.7,0,25c0,3.8-2.8,7-6.5,7.8c-0.2,0-0.3,0.1-0.5,0.2c-9,0-18,0-27,0c-0.3-0.1-0.6-0.2-0.9-0.3
		c-2.8-0.8-4.7-2.6-5.7-5.4c-0.2-0.4-0.3-0.9-0.4-1.4C6.3,77.7,6.3,68.7,6.3,59.7z M26.9,58.2c-4,0-8,0-12,0c-2,0-3.1,1.1-3.1,3
		c0,8,0,15.9,0,23.9c0,2,1.1,3.1,3.1,3.1c7.9,0,15.9,0,23.8,0c2,0,3.1-1.1,3.1-3.1c0-8,0-15.9,0-23.9c0-2-1.1-3.1-3.1-3.1
		C34.8,58.2,30.8,58.2,26.9,58.2z"/>
	<path class="st0" d="M59.7,93.7c-0.8-0.3-1.6-0.5-2.3-0.8c-3-1.5-4.6-3.9-4.7-7.2c-0.1-8.3-0.1-16.7,0-25c0-4.3,3.6-7.9,8-8
		c8.3-0.1,16.7,0,25,0c3.8,0,6.9,2.7,7.8,6.4c0,0.2,0.1,0.4,0.2,0.5c0,9,0,18,0,27c-0.1,0.2-0.1,0.4-0.2,0.5c-0.8,3-2.6,5-5.5,6.1
		c-0.4,0.1-0.9,0.3-1.3,0.4C77.7,93.7,68.7,93.7,59.7,93.7z M58.2,73.2c0,4,0,8,0,12c0,1.9,1.1,3,3,3c8,0,16,0,24.1,0
		c1.9,0,3-1.1,3-3c0-8,0-16,0-24c0-1.9-1.1-3-3-3c-8,0-16,0-24,0c-2,0-3,1.1-3.1,3.1C58.2,65.2,58.2,69.2,58.2,73.2z"/>
</g>
</svg>
