<?xml version="1.0" encoding="utf-8"?>
<!-- Generator: Adobe Illustrator 27.5.0, SVG Export Plug-In . SVG Version: 6.00 Build 0)  -->
<svg version="1.1" id="Layer_1" xmlns="http://www.w3.org/2000/svg" xmlns:xlink="http://www.w3.org/1999/xlink" x="0px" y="0px"
	 viewBox="0 0 60 60" style="enable-background:new 0 0 60 60;" xml:space="preserve">
<style type="text/css">
	.st0{fill:#CCCCCC;}
</style>
<path class="st0" d="M43.6,32c-0.2,0.2-0.3,0.3-0.4,0.5c-3.3,3.3-6.7,6.7-10,10c-0.3,0.3-0.6,0.8-0.7,1.3c-0.2,0.9,0.3,1.7,1,2.1
	c0.8,0.4,1.7,0.3,2.4-0.4c1.1-1.1,2.2-2.2,3.3-3.3c3.5-3.5,7-7,10.5-10.5c1.2-1.2,1.2-2.2,0-3.4c-4.6-4.6-9.1-9.1-13.7-13.7
	c-0.6-0.6-1.3-0.9-2.1-0.7c-1.4,0.4-2,2-1.1,3.2c0.1,0.2,0.3,0.3,0.4,0.5c3.3,3.3,6.6,6.6,10,10c0.1,0.1,0.2,0.2,0.4,0.5
	c-0.3,0-0.5,0-0.6,0c-10.1,0-20.3,0-30.4,0c-0.4,0-0.7,0-1.1,0.1c-0.9,0.3-1.4,1.2-1.3,2.2c0.1,0.9,0.9,1.6,1.9,1.7
	c0.2,0,0.4,0,0.6,0c10.1,0,20.2,0,30.3,0C43.1,32,43.3,32,43.6,32z"/>
</svg>
