<?xml version="1.0" encoding="utf-8"?>
<!-- Generator: Adobe Illustrator 27.5.0, SVG Export Plug-In . SVG Version: 6.00 Build 0)  -->
<svg version="1.1" id="Layer_1" xmlns="http://www.w3.org/2000/svg" xmlns:xlink="http://www.w3.org/1999/xlink" x="0px" y="0px"
	 viewBox="0 0 60.3 60.3" style="enable-background:new 0 0 60.3 60.3;" xml:space="preserve">
<style type="text/css">
	.st0{fill:#FFFFFF;}
	.st1{fill:#8E8E8E;}
</style>
<circle class="st0" cx="30.2" cy="30.2" r="30.2"/>
<path class="st1" d="M43.8,30.1c0.1,0.5-0.2,1-0.7,1.3C38,36,32.8,40.5,27.6,45c-1,0.9-2.5,1-3.6,0.3c-1.1-0.7-1.2-1.9-0.2-2.8
	c4.5-3.9,9-7.9,13.5-11.8c0.7-0.6,0.7-0.5,0-1.1c-4.5-3.9-9-7.9-13.5-11.8c-1.4-1.2-0.6-2.9,1.5-3.2c0.9-0.1,1.7,0.2,2.3,0.7
	c2,1.8,4,3.5,6,5.3c3.1,2.7,6.2,5.4,9.3,8.1C43.5,29.1,43.9,29.5,43.8,30.1z"/>
</svg>
